<?xml version="1.0" encoding="UTF-8" standalone="no"?>
<!-- Created with Inkscape (http://www.inkscape.org/) -->

<svg
   width="210mm"
   height="297mm"
   viewBox="0 0 210 297"
   version="1.1"
   id="svg1"
   inkscape:version="1.4 (e7c3feb100, 2024-10-09)"
   sodipodi:docname="Human Right.svg"
   inkscape:export-filename="Human Right.png"
   inkscape:export-xdpi="96"
   inkscape:export-ydpi="96"
   xmlns:inkscape="http://www.inkscape.org/namespaces/inkscape"
   xmlns:sodipodi="http://sodipodi.sourceforge.net/DTD/sodipodi-0.dtd"
   xmlns="http://www.w3.org/2000/svg"
   xmlns:svg="http://www.w3.org/2000/svg">
  <sodipodi:namedview
     id="namedview1"
     pagecolor="#505050"
     bordercolor="#eeeeee"
     borderopacity="1"
     inkscape:showpageshadow="0"
     inkscape:pageopacity="0"
     inkscape:pagecheckerboard="0"
     inkscape:deskcolor="#505050"
     inkscape:document-units="mm"
     inkscape:zoom="0.83606552"
     inkscape:cx="434.77454"
     inkscape:cy="538.23533"
     inkscape:window-width="2810"
     inkscape:window-height="2085"
     inkscape:window-x="0"
     inkscape:window-y="0"
     inkscape:window-maximized="0"
     inkscape:current-layer="layer1" />
  <defs
     id="defs1">
    <clipPath
       id="_clip2">
      <path
         d="m 13.356,4584.98 h 1847.43 V 3505.99 l -359.504,-130.489 1102.19,-1116.84 1227.07,1247.33 h -314.805 v 1078.99 h 470.497 v -1543.77 l -625.965,-197.903 1464.81,-1177.13 1664.37,1326.02 -640.885,3.646 v 1589.13 h 670.7 v -2886.39 h 1139.98 l 175.448,234.393 v 2652 h 332.544 v -889.008 l -298.833,-102.209 674.753,-720.463 725.166,799.901 h -301.717 v 911.779 h 1762.97 v 5708.37 H 13.375 v -5708.37 z"
         id="path56" />
    </clipPath>
  </defs>
  <g
     inkscape:label="Layer 1"
     inkscape:groupmode="layer"
     id="layer1">
    <rect
       style="fill:#ffffff;stroke-width:2.64583;stroke-linecap:square;stroke-dasharray:none;paint-order:stroke fill markers"
       id="rect1"
       width="210"
       height="297"
       x="0"
       y="-0.50911212" />
    <path
       style="fill:#ff4f4f;fill-opacity:1;stroke:none;stroke-width:2.64583;stroke-linecap:square;stroke-dasharray:none;stroke-opacity:1;paint-order:stroke fill markers"
       d="M 0,190.5464 27.101188,142.36972 H 181.68584 L 210,190.54634 233.84251,3.3565909 39.384001,-42.964364 -49.006228,-3.8041365 Z"
       id="path18"
       sodipodi:nodetypes="cccccccc" />
    <text
       xml:space="preserve"
       style="font-size:51.3772px;line-height:0.8;font-family:Roboto;-inkscape-font-specification:Roboto;text-align:start;letter-spacing:0px;writing-mode:lr-tb;direction:ltr;text-orientation:upright;text-anchor:start;fill:#f9f9f9;stroke-width:5.17427;stroke-linecap:square;stroke-dasharray:none;paint-order:stroke fill markers"
       x="104.72964"
       y="138.09177"
       id="text66"><tspan
         sodipodi:role="line"
         style="font-weight:bold;text-align:center;text-anchor:middle;fill:#f9f9f9;stroke-width:5.17427;stroke-dasharray:none"
         x="104.72964"
         y="138.09177"
         id="tspan66">JOIN US</tspan></text>
    <text
       xml:space="preserve"
       style="font-size:23.1986px;line-height:0.8;font-family:Roboto;-inkscape-font-specification:Roboto;text-align:start;letter-spacing:0px;writing-mode:lr-tb;direction:ltr;text-orientation:upright;text-anchor:start;fill:#f9f9f9;stroke-width:2.33638;stroke-linecap:square;stroke-dasharray:none;paint-order:stroke fill markers"
       x="104.49593"
       y="22.050035"
       id="text1"><tspan
         sodipodi:role="line"
         id="tspan1"
         style="font-weight:bold;text-align:center;text-anchor:middle;fill:#f9f9f9;stroke-width:2.33638;stroke-dasharray:none"
         x="104.49593"
         y="22.050035">HOUSING</tspan><tspan
         sodipodi:role="line"
         style="font-weight:normal;text-align:center;text-anchor:middle;fill:#f9f9f9;stroke-width:2.33638;stroke-dasharray:none"
         x="104.49593"
         y="40.608917"
         id="tspan3">IS A</tspan><tspan
         sodipodi:role="line"
         style="font-weight:bold;text-align:center;text-anchor:middle;fill:#f9f9f9;stroke-width:2.33638;stroke-dasharray:none"
         x="104.49593"
         y="59.167797"
         id="tspan4">HUMAN RIGHT</tspan></text>
    <g
       id="g62"
       transform="matrix(0.01642571,0,0,0.01642571,17.534801,121.88693)"
       style="clip-rule:evenodd;fill-rule:evenodd;stroke-linejoin:round;stroke-miterlimit:2">
      <clipPath
         id="clipPath56">
        <circle
           cx="5314.96"
           cy="5314.96"
           r="4457.77"
           id="circle56" />
      </clipPath>
      <g
         clip-path="none"
         id="g59"
         transform="matrix(1.2903535,0,0,1.2903535,-1559.6237,-1736.2449)">
        <path
           d="m 13.356,4584.98 h 1847.43 V 3505.99 l -359.504,-130.489 1102.19,-1116.84 1227.07,1247.33 h -314.805 v 1078.99 h 470.497 v -1543.77 l -625.965,-197.903 1464.81,-1177.13 1664.37,1326.02 -640.885,3.646 v 1589.13 h 670.7 v -2886.39 h 1139.98 l 175.448,234.393 v 2652 h 332.544 v -889.008 l -298.833,-102.209 674.753,-720.463 725.166,799.901 h -301.717 v 911.779 h 1762.97 v 5708.37 H 13.375 v -5708.37 z"
           style="fill:#080605"
           id="path55" />
        <clipPath
           id="clipPath57">
          <path
             d="m 13.356,4584.98 h 1847.43 V 3505.99 l -359.504,-130.489 1102.19,-1116.84 1227.07,1247.33 h -314.805 v 1078.99 h 470.497 v -1543.77 l -625.965,-197.903 1464.81,-1177.13 1664.37,1326.02 -640.885,3.646 v 1589.13 h 670.7 v -2886.39 h 1139.98 l 175.448,234.393 v 2652 h 332.544 v -889.008 l -298.833,-102.209 674.753,-720.463 725.166,799.901 h -301.717 v 911.779 h 1762.97 v 5708.37 H 13.375 v -5708.37 z"
             id="path57" />
        </clipPath>
        <g
           clip-path="url(#_clip2)"
           id="g58">
          <path
             d="m 13.356,4699.97 h 1962.6 V 3260.24 h -199.01 l 826.299,-837.321 822.317,837.321 h -200.291 v 1439.73 h 875.905 V 2740.02 h -426.153 l 1149.37,-926.172 1160.86,926.172 h -433.846 v 1959.95 h 1082.94 V 1813.84 h 909.63 v 2886.13 h 738.105 V 3490.33 h -160.141 l 419.976,-452.785 401.689,452.785 h -197.663 v 1209.64 h 1870.61 v 5593.38 H 13.353 V 4699.97 Z"
             style="fill:#ff4f4f"
             id="path58" />
          <path
             d="m 13.356,4689.34 c 0,0 1951.97,0 1951.97,0 V 3270.87 h -213.799 l 851.733,-863.095 847.629,863.095 c 0,0 -214.995,0 -214.995,0 0,0 0,1418.47 0,1418.47 92.645,0 762.007,0 854.652,0 v -1938.7 h -445.649 l 1179.46,-950.418 1191.26,950.418 c 0,0 -453.578,0 -453.578,0 0,0 0,1938.7 0,1938.7 h 1061.69 V 1803.21 h 930.884 v 2886.13 h 716.851 V 3500.95 h -173.865 l 444.502,-479.228 425.147,479.228 h -210.67 v 1188.39 h 1870.61 v 5614.63 H 2.688 V 4689.34 h 10.626 z m 0,10.626 v 5593.38 h 10603.2 v -5593.38 h -1870.61 v -1209.64 h 197.663 l -401.689,-452.785 -419.976,452.785 h 160.141 v 1209.64 H 7543.98 v -2886.13 h -909.63 v 2886.13 H 5551.41 v -1959.95 h 433.846 l -1160.86,-926.172 -1149.37,926.172 h 426.153 v 1959.95 h -875.905 v -1439.73 h 200.291 l -822.317,-837.321 -826.299,837.321 h 199.01 v 1439.73 H 13.359 Z"
             id="path59" />
        </g>
      </g>
      <g
         transform="matrix(5015.1124,0,0,5176.046,11352.862,8221.2348)"
         id="g60" />
      <text
         x="-765.31287"
         y="8384.3955"
         style="font-weight:700;font-size:5094.94px;font-family:RobotoCondensed-Bold, 'Roboto Condensed';fill:#000000;fill-opacity:1;fill-rule:nonzero;stroke:none;stroke-width:1.652;stroke-dasharray:none;stroke-opacity:1"
         id="text60"
         transform="scale(0.98433122,1.0159182)"><tspan
           style="font-style:normal;font-variant:normal;font-weight:bold;font-stretch:normal;font-family:'Roboto Condensed';-inkscape-font-specification:'Roboto Condensed,  Bold';fill-rule:nonzero;stroke-width:1.652"
           id="tspan55">R</tspan><tspan
           x="2188.2925 5363.3076 8622.8984"
           y="8384.3955 8384.3955 8384.3955"
           id="tspan60"
           style="font-style:normal;font-variant:normal;font-weight:bold;font-stretch:normal;font-family:'Roboto Condensed';-inkscape-font-specification:'Roboto Condensed,  Bold';fill:#000000;fill-opacity:1;fill-rule:nonzero;stroke:none;stroke-width:1.652;stroke-dasharray:none;stroke-opacity:1">AHU</tspan></text>
      <text
         xml:space="preserve"
         style="font-style:normal;font-variant:normal;font-weight:bold;font-stretch:normal;font-size:945.226px;line-height:0.8;font-family:Roboto;-inkscape-font-specification:'Roboto Bold';text-align:center;letter-spacing:0px;writing-mode:lr-tb;direction:ltr;text-orientation:upright;text-anchor:middle;fill:#ff4f4f;fill-opacity:1;stroke:none;stroke-width:126.593;stroke-linecap:square;stroke-dasharray:none;stroke-opacity:1;paint-order:stroke fill markers"
         x="5298.478"
         y="9739.7178"
         id="text63"><tspan
           sodipodi:role="line"
           id="tspan63"
           style="font-weight:bold;fill:#000000;stroke-width:126.593"
           x="5298.478"
           y="9739.7178">Renters And Housing Union</tspan></text>
    </g>
    <text
       xml:space="preserve"
       style="font-size:19.4767px;line-height:0.8;font-family:Roboto;-inkscape-font-specification:Roboto;text-align:start;letter-spacing:0px;writing-mode:lr-tb;direction:ltr;text-orientation:upright;text-anchor:start;fill:#f9f9f9;stroke-width:1.96153;stroke-linecap:square;stroke-dasharray:none;paint-order:stroke fill markers"
       x="104.5006"
       y="79.282753"
       id="text16"><tspan
         sodipodi:role="line"
         style="font-weight:normal;text-align:center;text-anchor:middle;fill:#f9f9f9;stroke-width:1.96153;stroke-dasharray:none"
         x="104.5006"
         y="79.282753"
         id="tspan18"><tspan
   style="font-weight:bold"
   id="tspan67">FIGHT</tspan> FOR FOR</tspan><tspan
         sodipodi:role="line"
         style="font-weight:normal;text-align:center;text-anchor:middle;fill:#f9f9f9;stroke-width:1.96153;stroke-dasharray:none"
         x="104.5006"
         y="94.864113"
         id="tspan64">WHAT IS <tspan
   style="font-weight:bold"
   id="tspan68">RIGHT</tspan></tspan></text>
  </g>
</svg>
