<svg version="1.1" xmlns="http://www.w3.org/2000/svg" width="220px" height="220px" viewBox="0 0 220 220" preserveAspectRatio="xMinYMin meet" xmlns:xlink="http://www.w3.org/1999/xlink" xmlns:svgjs="http://svgjs.com/svgjs"><rect width="100%" height="100%" fill="#d7d7db" cx="0" cy="0"/><path d="M8,8l7,0 0,7 -7,0 0,-7z M15,8l7,0 0,7 -7,0 0,-7z M22,8l7,0 0,7 -7,0 0,-7z M29,8l7,0 0,7 -7,0 0,-7z M36,8l7,0 0,7 -7,0 0,-7z M43,8l7,0 0,7 -7,0 0,-7z M50,8l7,0 0,7 -7,0 0,-7z M78,8l7,0 0,7 -7,0 0,-7z M85,8l7,0 0,7 -7,0 0,-7z M113,8l7,0 0,7 -7,0 0,-7z M120,8l7,0 0,7 -7,0 0,-7z M127,8l7,0 0,7 -7,0 0,-7z M134,8l7,0 0,7 -7,0 0,-7z M141,8l7,0 0,7 -7,0 0,-7z M148,8l7,0 0,7 -7,0 0,-7z M162,8l7,0 0,7 -7,0 0,-7z M169,8l7,0 0,7 -7,0 0,-7z M176,8l7,0 0,7 -7,0 0,-7z M183,8l7,0 0,7 -7,0 0,-7z M190,8l7,0 0,7 -7,0 0,-7z M197,8l7,0 0,7 -7,0 0,-7z M204,8l7,0 0,7 -7,0 0,-7z M8,15l7,0 0,7 -7,0 0,-7z M50,15l7,0 0,7 -7,0 0,-7z M64,15l7,0 0,7 -7,0 0,-7z M113,15l7,0 0,7 -7,0 0,-7z M127,15l7,0 0,7 -7,0 0,-7z M162,15l7,0 0,7 -7,0 0,-7z M204,15l7,0 0,7 -7,0 0,-7z M8,22l7,0 0,7 -7,0 0,-7z M22,22l7,0 0,7 -7,0 0,-7z M29,22l7,0 0,7 -7,0 0,-7z M36,22l7,0 0,7 -7,0 0,-7z M50,22l7,0 0,7 -7,0 0,-7z M64,22l7,0 0,7 -7,0 0,-7z M92,22l7,0 0,7 -7,0 0,-7z M113,22l7,0 0,7 -7,0 0,-7z M141,22l7,0 0,7 -7,0 0,-7z M162,22l7,0 0,7 -7,0 0,-7z M176,22l7,0 0,7 -7,0 0,-7z M183,22l7,0 0,7 -7,0 0,-7z M190,22l7,0 0,7 -7,0 0,-7z M204,22l7,0 0,7 -7,0 0,-7z M8,29l7,0 0,7 -7,0 0,-7z M22,29l7,0 0,7 -7,0 0,-7z M29,29l7,0 0,7 -7,0 0,-7z M36,29l7,0 0,7 -7,0 0,-7z M50,29l7,0 0,7 -7,0 0,-7z M71,29l7,0 0,7 -7,0 0,-7z M106,29l7,0 0,7 -7,0 0,-7z M113,29l7,0 0,7 -7,0 0,-7z M120,29l7,0 0,7 -7,0 0,-7z M127,29l7,0 0,7 -7,0 0,-7z M162,29l7,0 0,7 -7,0 0,-7z M176,29l7,0 0,7 -7,0 0,-7z M183,29l7,0 0,7 -7,0 0,-7z M190,29l7,0 0,7 -7,0 0,-7z M204,29l7,0 0,7 -7,0 0,-7z M8,36l7,0 0,7 -7,0 0,-7z M22,36l7,0 0,7 -7,0 0,-7z M29,36l7,0 0,7 -7,0 0,-7z M36,36l7,0 0,7 -7,0 0,-7z M50,36l7,0 0,7 -7,0 0,-7z M71,36l7,0 0,7 -7,0 0,-7z M78,36l7,0 0,7 -7,0 0,-7z M85,36l7,0 0,7 -7,0 0,-7z M92,36l7,0 0,7 -7,0 0,-7z M99,36l7,0 0,7 -7,0 0,-7z M113,36l7,0 0,7 -7,0 0,-7z M134,36l7,0 0,7 -7,0 0,-7z M141,36l7,0 0,7 -7,0 0,-7z M162,36l7,0 0,7 -7,0 0,-7z M176,36l7,0 0,7 -7,0 0,-7z M183,36l7,0 0,7 -7,0 0,-7z M190,36l7,0 0,7 -7,0 0,-7z M204,36l7,0 0,7 -7,0 0,-7z M8,43l7,0 0,7 -7,0 0,-7z M50,43l7,0 0,7 -7,0 0,-7z M71,43l7,0 0,7 -7,0 0,-7z M85,43l7,0 0,7 -7,0 0,-7z M99,43l7,0 0,7 -7,0 0,-7z M120,43l7,0 0,7 -7,0 0,-7z M141,43l7,0 0,7 -7,0 0,-7z M148,43l7,0 0,7 -7,0 0,-7z M162,43l7,0 0,7 -7,0 0,-7z M204,43l7,0 0,7 -7,0 0,-7z M8,50l7,0 0,7 -7,0 0,-7z M15,50l7,0 0,7 -7,0 0,-7z M22,50l7,0 0,7 -7,0 0,-7z M29,50l7,0 0,7 -7,0 0,-7z M36,50l7,0 0,7 -7,0 0,-7z M43,50l7,0 0,7 -7,0 0,-7z M50,50l7,0 0,7 -7,0 0,-7z M64,50l7,0 0,7 -7,0 0,-7z M78,50l7,0 0,7 -7,0 0,-7z M92,50l7,0 0,7 -7,0 0,-7z M106,50l7,0 0,7 -7,0 0,-7z M120,50l7,0 0,7 -7,0 0,-7z M134,50l7,0 0,7 -7,0 0,-7z M148,50l7,0 0,7 -7,0 0,-7z M162,50l7,0 0,7 -7,0 0,-7z M169,50l7,0 0,7 -7,0 0,-7z M176,50l7,0 0,7 -7,0 0,-7z M183,50l7,0 0,7 -7,0 0,-7z M190,50l7,0 0,7 -7,0 0,-7z M197,50l7,0 0,7 -7,0 0,-7z M204,50l7,0 0,7 -7,0 0,-7z M71,57l7,0 0,7 -7,0 0,-7z M92,57l7,0 0,7 -7,0 0,-7z M113,57l7,0 0,7 -7,0 0,-7z M127,57l7,0 0,7 -7,0 0,-7z M148,57l7,0 0,7 -7,0 0,-7z M15,64l7,0 0,7 -7,0 0,-7z M22,64l7,0 0,7 -7,0 0,-7z M29,64l7,0 0,7 -7,0 0,-7z M43,64l7,0 0,7 -7,0 0,-7z M50,64l7,0 0,7 -7,0 0,-7z M71,64l7,0 0,7 -7,0 0,-7z M78,64l7,0 0,7 -7,0 0,-7z M85,64l7,0 0,7 -7,0 0,-7z M120,64l7,0 0,7 -7,0 0,-7z M127,64l7,0 0,7 -7,0 0,-7z M134,64l7,0 0,7 -7,0 0,-7z M141,64l7,0 0,7 -7,0 0,-7z M190,64l7,0 0,7 -7,0 0,-7z M197,64l7,0 0,7 -7,0 0,-7z M22,71l7,0 0,7 -7,0 0,-7z M29,71l7,0 0,7 -7,0 0,-7z M36,71l7,0 0,7 -7,0 0,-7z M43,71l7,0 0,7 -7,0 0,-7z M57,71l7,0 0,7 -7,0 0,-7z M78,71l7,0 0,7 -7,0 0,-7z M92,71l7,0 0,7 -7,0 0,-7z M99,71l7,0 0,7 -7,0 0,-7z M120,71l7,0 0,7 -7,0 0,-7z M141,71l7,0 0,7 -7,0 0,-7z M148,71l7,0 0,7 -7,0 0,-7z M155,71l7,0 0,7 -7,0 0,-7z M162,71l7,0 0,7 -7,0 0,-7z M169,71l7,0 0,7 -7,0 0,-7z M176,71l7,0 0,7 -7,0 0,-7z M204,71l7,0 0,7 -7,0 0,-7z M15,78l7,0 0,7 -7,0 0,-7z M22,78l7,0 0,7 -7,0 0,-7z M36,78l7,0 0,7 -7,0 0,-7z M50,78l7,0 0,7 -7,0 0,-7z M57,78l7,0 0,7 -7,0 0,-7z M99,78l7,0 0,7 -7,0 0,-7z M106,78l7,0 0,7 -7,0 0,-7z M127,78l7,0 0,7 -7,0 0,-7z M134,78l7,0 0,7 -7,0 0,-7z M148,78l7,0 0,7 -7,0 0,-7z M162,78l7,0 0,7 -7,0 0,-7z M176,78l7,0 0,7 -7,0 0,-7z M183,78l7,0 0,7 -7,0 0,-7z M190,78l7,0 0,7 -7,0 0,-7z M197,78l7,0 0,7 -7,0 0,-7z M15,85l7,0 0,7 -7,0 0,-7z M22,85l7,0 0,7 -7,0 0,-7z M43,85l7,0 0,7 -7,0 0,-7z M85,85l7,0 0,7 -7,0 0,-7z M106,85l7,0 0,7 -7,0 0,-7z M134,85l7,0 0,7 -7,0 0,-7z M169,85l7,0 0,7 -7,0 0,-7z M176,85l7,0 0,7 -7,0 0,-7z M204,85l7,0 0,7 -7,0 0,-7z M22,92l7,0 0,7 -7,0 0,-7z M29,92l7,0 0,7 -7,0 0,-7z M36,92l7,0 0,7 -7,0 0,-7z M50,92l7,0 0,7 -7,0 0,-7z M57,92l7,0 0,7 -7,0 0,-7z M78,92l7,0 0,7 -7,0 0,-7z M85,92l7,0 0,7 -7,0 0,-7z M99,92l7,0 0,7 -7,0 0,-7z M106,92l7,0 0,7 -7,0 0,-7z M120,92l7,0 0,7 -7,0 0,-7z M127,92l7,0 0,7 -7,0 0,-7z M134,92l7,0 0,7 -7,0 0,-7z M155,92l7,0 0,7 -7,0 0,-7z M169,92l7,0 0,7 -7,0 0,-7z M183,92l7,0 0,7 -7,0 0,-7z M190,92l7,0 0,7 -7,0 0,-7z M197,92l7,0 0,7 -7,0 0,-7z M204,92l7,0 0,7 -7,0 0,-7z M15,99l7,0 0,7 -7,0 0,-7z M22,99l7,0 0,7 -7,0 0,-7z M43,99l7,0 0,7 -7,0 0,-7z M64,99l7,0 0,7 -7,0 0,-7z M71,99l7,0 0,7 -7,0 0,-7z M92,99l7,0 0,7 -7,0 0,-7z M120,99l7,0 0,7 -7,0 0,-7z M127,99l7,0 0,7 -7,0 0,-7z M141,99l7,0 0,7 -7,0 0,-7z M162,99l7,0 0,7 -7,0 0,-7z M169,99l7,0 0,7 -7,0 0,-7z M183,99l7,0 0,7 -7,0 0,-7z M190,99l7,0 0,7 -7,0 0,-7z M204,99l7,0 0,7 -7,0 0,-7z M8,106l7,0 0,7 -7,0 0,-7z M50,106l7,0 0,7 -7,0 0,-7z M57,106l7,0 0,7 -7,0 0,-7z M106,106l7,0 0,7 -7,0 0,-7z M113,106l7,0 0,7 -7,0 0,-7z M134,106l7,0 0,7 -7,0 0,-7z M141,106l7,0 0,7 -7,0 0,-7z M169,106l7,0 0,7 -7,0 0,-7z M176,106l7,0 0,7 -7,0 0,-7z M183,106l7,0 0,7 -7,0 0,-7z M197,106l7,0 0,7 -7,0 0,-7z M204,106l7,0 0,7 -7,0 0,-7z M29,113l7,0 0,7 -7,0 0,-7z M36,113l7,0 0,7 -7,0 0,-7z M64,113l7,0 0,7 -7,0 0,-7z M78,113l7,0 0,7 -7,0 0,-7z M85,113l7,0 0,7 -7,0 0,-7z M92,113l7,0 0,7 -7,0 0,-7z M106,113l7,0 0,7 -7,0 0,-7z M113,113l7,0 0,7 -7,0 0,-7z M120,113l7,0 0,7 -7,0 0,-7z M141,113l7,0 0,7 -7,0 0,-7z M176,113l7,0 0,7 -7,0 0,-7z M183,113l7,0 0,7 -7,0 0,-7z M197,113l7,0 0,7 -7,0 0,-7z M204,113l7,0 0,7 -7,0 0,-7z M8,120l7,0 0,7 -7,0 0,-7z M15,120l7,0 0,7 -7,0 0,-7z M43,120l7,0 0,7 -7,0 0,-7z M50,120l7,0 0,7 -7,0 0,-7z M71,120l7,0 0,7 -7,0 0,-7z M85,120l7,0 0,7 -7,0 0,-7z M99,120l7,0 0,7 -7,0 0,-7z M106,120l7,0 0,7 -7,0 0,-7z M113,120l7,0 0,7 -7,0 0,-7z M120,120l7,0 0,7 -7,0 0,-7z M155,120l7,0 0,7 -7,0 0,-7z M169,120l7,0 0,7 -7,0 0,-7z M176,120l7,0 0,7 -7,0 0,-7z M183,120l7,0 0,7 -7,0 0,-7z M197,120l7,0 0,7 -7,0 0,-7z M204,120l7,0 0,7 -7,0 0,-7z M15,127l7,0 0,7 -7,0 0,-7z M29,127l7,0 0,7 -7,0 0,-7z M64,127l7,0 0,7 -7,0 0,-7z M85,127l7,0 0,7 -7,0 0,-7z M120,127l7,0 0,7 -7,0 0,-7z M127,127l7,0 0,7 -7,0 0,-7z M148,127l7,0 0,7 -7,0 0,-7z M169,127l7,0 0,7 -7,0 0,-7z M8,134l7,0 0,7 -7,0 0,-7z M43,134l7,0 0,7 -7,0 0,-7z M50,134l7,0 0,7 -7,0 0,-7z M71,134l7,0 0,7 -7,0 0,-7z M78,134l7,0 0,7 -7,0 0,-7z M106,134l7,0 0,7 -7,0 0,-7z M113,134l7,0 0,7 -7,0 0,-7z M120,134l7,0 0,7 -7,0 0,-7z M127,134l7,0 0,7 -7,0 0,-7z M148,134l7,0 0,7 -7,0 0,-7z M162,134l7,0 0,7 -7,0 0,-7z M183,134l7,0 0,7 -7,0 0,-7z M22,141l7,0 0,7 -7,0 0,-7z M29,141l7,0 0,7 -7,0 0,-7z M36,141l7,0 0,7 -7,0 0,-7z M71,141l7,0 0,7 -7,0 0,-7z M78,141l7,0 0,7 -7,0 0,-7z M85,141l7,0 0,7 -7,0 0,-7z M127,141l7,0 0,7 -7,0 0,-7z M155,141l7,0 0,7 -7,0 0,-7z M162,141l7,0 0,7 -7,0 0,-7z M169,141l7,0 0,7 -7,0 0,-7z M176,141l7,0 0,7 -7,0 0,-7z M190,141l7,0 0,7 -7,0 0,-7z M204,141l7,0 0,7 -7,0 0,-7z M15,148l7,0 0,7 -7,0 0,-7z M22,148l7,0 0,7 -7,0 0,-7z M29,148l7,0 0,7 -7,0 0,-7z M43,148l7,0 0,7 -7,0 0,-7z M50,148l7,0 0,7 -7,0 0,-7z M64,148l7,0 0,7 -7,0 0,-7z M71,148l7,0 0,7 -7,0 0,-7z M78,148l7,0 0,7 -7,0 0,-7z M99,148l7,0 0,7 -7,0 0,-7z M106,148l7,0 0,7 -7,0 0,-7z M120,148l7,0 0,7 -7,0 0,-7z M127,148l7,0 0,7 -7,0 0,-7z M134,148l7,0 0,7 -7,0 0,-7z M148,148l7,0 0,7 -7,0 0,-7z M155,148l7,0 0,7 -7,0 0,-7z M162,148l7,0 0,7 -7,0 0,-7z M169,148l7,0 0,7 -7,0 0,-7z M176,148l7,0 0,7 -7,0 0,-7z M183,148l7,0 0,7 -7,0 0,-7z M190,148l7,0 0,7 -7,0 0,-7z M197,148l7,0 0,7 -7,0 0,-7z M64,155l7,0 0,7 -7,0 0,-7z M71,155l7,0 0,7 -7,0 0,-7z M99,155l7,0 0,7 -7,0 0,-7z M120,155l7,0 0,7 -7,0 0,-7z M127,155l7,0 0,7 -7,0 0,-7z M134,155l7,0 0,7 -7,0 0,-7z M141,155l7,0 0,7 -7,0 0,-7z M148,155l7,0 0,7 -7,0 0,-7z M176,155l7,0 0,7 -7,0 0,-7z M183,155l7,0 0,7 -7,0 0,-7z M197,155l7,0 0,7 -7,0 0,-7z M204,155l7,0 0,7 -7,0 0,-7z M8,162l7,0 0,7 -7,0 0,-7z M15,162l7,0 0,7 -7,0 0,-7z M22,162l7,0 0,7 -7,0 0,-7z M29,162l7,0 0,7 -7,0 0,-7z M36,162l7,0 0,7 -7,0 0,-7z M43,162l7,0 0,7 -7,0 0,-7z M50,162l7,0 0,7 -7,0 0,-7z M71,162l7,0 0,7 -7,0 0,-7z M78,162l7,0 0,7 -7,0 0,-7z M85,162l7,0 0,7 -7,0 0,-7z M92,162l7,0 0,7 -7,0 0,-7z M106,162l7,0 0,7 -7,0 0,-7z M134,162l7,0 0,7 -7,0 0,-7z M141,162l7,0 0,7 -7,0 0,-7z M148,162l7,0 0,7 -7,0 0,-7z M162,162l7,0 0,7 -7,0 0,-7z M176,162l7,0 0,7 -7,0 0,-7z M190,162l7,0 0,7 -7,0 0,-7z M8,169l7,0 0,7 -7,0 0,-7z M50,169l7,0 0,7 -7,0 0,-7z M64,169l7,0 0,7 -7,0 0,-7z M71,169l7,0 0,7 -7,0 0,-7z M78,169l7,0 0,7 -7,0 0,-7z M106,169l7,0 0,7 -7,0 0,-7z M113,169l7,0 0,7 -7,0 0,-7z M120,169l7,0 0,7 -7,0 0,-7z M134,169l7,0 0,7 -7,0 0,-7z M148,169l7,0 0,7 -7,0 0,-7z M176,169l7,0 0,7 -7,0 0,-7z M197,169l7,0 0,7 -7,0 0,-7z M8,176l7,0 0,7 -7,0 0,-7z M22,176l7,0 0,7 -7,0 0,-7z M29,176l7,0 0,7 -7,0 0,-7z M36,176l7,0 0,7 -7,0 0,-7z M50,176l7,0 0,7 -7,0 0,-7z M78,176l7,0 0,7 -7,0 0,-7z M106,176l7,0 0,7 -7,0 0,-7z M113,176l7,0 0,7 -7,0 0,-7z M134,176l7,0 0,7 -7,0 0,-7z M148,176l7,0 0,7 -7,0 0,-7z M155,176l7,0 0,7 -7,0 0,-7z M162,176l7,0 0,7 -7,0 0,-7z M169,176l7,0 0,7 -7,0 0,-7z M176,176l7,0 0,7 -7,0 0,-7z M183,176l7,0 0,7 -7,0 0,-7z M190,176l7,0 0,7 -7,0 0,-7z M8,183l7,0 0,7 -7,0 0,-7z M22,183l7,0 0,7 -7,0 0,-7z M29,183l7,0 0,7 -7,0 0,-7z M36,183l7,0 0,7 -7,0 0,-7z M50,183l7,0 0,7 -7,0 0,-7z M64,183l7,0 0,7 -7,0 0,-7z M78,183l7,0 0,7 -7,0 0,-7z M85,183l7,0 0,7 -7,0 0,-7z M92,183l7,0 0,7 -7,0 0,-7z M120,183l7,0 0,7 -7,0 0,-7z M141,183l7,0 0,7 -7,0 0,-7z M176,183l7,0 0,7 -7,0 0,-7z M183,183l7,0 0,7 -7,0 0,-7z M197,183l7,0 0,7 -7,0 0,-7z M8,190l7,0 0,7 -7,0 0,-7z M22,190l7,0 0,7 -7,0 0,-7z M29,190l7,0 0,7 -7,0 0,-7z M36,190l7,0 0,7 -7,0 0,-7z M50,190l7,0 0,7 -7,0 0,-7z M64,190l7,0 0,7 -7,0 0,-7z M71,190l7,0 0,7 -7,0 0,-7z M85,190l7,0 0,7 -7,0 0,-7z M106,190l7,0 0,7 -7,0 0,-7z M113,190l7,0 0,7 -7,0 0,-7z M120,190l7,0 0,7 -7,0 0,-7z M127,190l7,0 0,7 -7,0 0,-7z M134,190l7,0 0,7 -7,0 0,-7z M148,190l7,0 0,7 -7,0 0,-7z M169,190l7,0 0,7 -7,0 0,-7z M190,190l7,0 0,7 -7,0 0,-7z M204,190l7,0 0,7 -7,0 0,-7z M8,197l7,0 0,7 -7,0 0,-7z M50,197l7,0 0,7 -7,0 0,-7z M64,197l7,0 0,7 -7,0 0,-7z M78,197l7,0 0,7 -7,0 0,-7z M92,197l7,0 0,7 -7,0 0,-7z M120,197l7,0 0,7 -7,0 0,-7z M148,197l7,0 0,7 -7,0 0,-7z M162,197l7,0 0,7 -7,0 0,-7z M176,197l7,0 0,7 -7,0 0,-7z M183,197l7,0 0,7 -7,0 0,-7z M197,197l7,0 0,7 -7,0 0,-7z M8,204l7,0 0,7 -7,0 0,-7z M15,204l7,0 0,7 -7,0 0,-7z M22,204l7,0 0,7 -7,0 0,-7z M29,204l7,0 0,7 -7,0 0,-7z M36,204l7,0 0,7 -7,0 0,-7z M43,204l7,0 0,7 -7,0 0,-7z M50,204l7,0 0,7 -7,0 0,-7z M85,204l7,0 0,7 -7,0 0,-7z M92,204l7,0 0,7 -7,0 0,-7z M113,204l7,0 0,7 -7,0 0,-7z M120,204l7,0 0,7 -7,0 0,-7z M134,204l7,0 0,7 -7,0 0,-7z M148,204l7,0 0,7 -7,0 0,-7z M162,204l7,0 0,7 -7,0 0,-7z M169,204l7,0 0,7 -7,0 0,-7z M197,204l7,0 0,7 -7,0 0,-7z " stroke="transparent" fill="#0c0c0d"/></svg>