<?xml version="1.0" encoding="UTF-8" standalone="no"?>
<!-- Created with Inkscape (http://www.inkscape.org/) -->

<svg
   width="210mm"
   height="210mm"
   viewBox="0 0 210 210"
   version="1.1"
   id="svg1"
   xml:space="preserve"
   sodipodi:docname="RAHU QR Code.svg"
   inkscape:version="1.3 (0e150ed6c4, 2023-07-21)"
   inkscape:export-filename="RAHU QR Code.png"
   inkscape:export-xdpi="96"
   inkscape:export-ydpi="96"
   xmlns:inkscape="http://www.inkscape.org/namespaces/inkscape"
   xmlns:sodipodi="http://sodipodi.sourceforge.net/DTD/sodipodi-0.dtd"
   xmlns="http://www.w3.org/2000/svg"
   xmlns:svg="http://www.w3.org/2000/svg"><sodipodi:namedview
     id="namedview1"
     pagecolor="#ffffff"
     bordercolor="#000000"
     borderopacity="0.25"
     inkscape:showpageshadow="2"
     inkscape:pageopacity="0.0"
     inkscape:pagecheckerboard="0"
     inkscape:deskcolor="#d1d1d1"
     inkscape:document-units="mm"
     inkscape:zoom="0.51535845"
     inkscape:cx="455.0231"
     inkscape:cy="432.70854"
     inkscape:window-width="1421"
     inkscape:window-height="1000"
     inkscape:window-x="3481"
     inkscape:window-y="1440"
     inkscape:window-maximized="0"
     inkscape:current-layer="layer1"
     inkscape:export-bgcolor="#ffffffff" /><defs
     id="defs1"><clipPath
       clipPathUnits="userSpaceOnUse"
       id="clipPath64"><path
         d="M 0,0 H 596 V 842 H 0 Z"
         id="path64" /></clipPath><clipPath
       clipPathUnits="userSpaceOnUse"
       id="clipPath67"><path
         d="m 299.84,632.434 h 47.926 v -27.961 l -9.328,-3.379 28.593,-28.942 31.832,32.321 h -8.164 v 27.961 h 12.203 V 592.43 l -16.238,-5.129 38,-30.504 43.176,34.363 -16.625,0.094 v 41.18 h 17.398 v -74.797 h 29.575 l 4.55,6.074 v 68.723 h 8.629 v -23.036 l -7.754,-2.652 17.504,-18.668 18.813,20.727 h -7.825 v 23.629 h 45.735 v 147.925 h -278 z"
         transform="scale(1.3333333)"
         id="path67" /></clipPath><clipPath
       clipPathUnits="userSpaceOnUse"
       id="clipPath65"><path
         d="M 0,0 H 596 V 842 H 0 Z"
         id="path65" /></clipPath><clipPath
       clipPathUnits="userSpaceOnUse"
       id="clipPath66"><path
         d="M 0,0 H 596 V 842 H 0 Z"
         id="path66" /></clipPath></defs><g
     inkscape:groupmode="layer"
     id="layer5"
     inkscape:label="Layer 2"><path
       d="m 8,8 h 7 v 7 H 8 Z m 7,0 h 7 v 7 h -7 z m 7,0 h 7 v 7 h -7 z m 7,0 h 7 v 7 h -7 z m 7,0 h 7 v 7 h -7 z m 7,0 h 7 v 7 h -7 z m 7,0 h 7 v 7 h -7 z m 28,0 h 7 v 7 h -7 z m 7,0 h 7 v 7 h -7 z m 28,0 h 7 v 7 h -7 z m 7,0 h 7 v 7 h -7 z m 7,0 h 7 v 7 h -7 z m 7,0 h 7 v 7 h -7 z m 7,0 h 7 v 7 h -7 z m 7,0 h 7 v 7 h -7 z m 14,0 h 7 v 7 h -7 z m 7,0 h 7 v 7 h -7 z m 7,0 h 7 v 7 h -7 z m 7,0 h 7 v 7 h -7 z m 7,0 h 7 v 7 h -7 z m 7,0 h 7 v 7 h -7 z m 7,0 h 7 v 7 h -7 z M 8,15 h 7 v 7 H 8 Z m 42,0 h 7 v 7 h -7 z m 14,0 h 7 v 7 h -7 z m 49,0 h 7 v 7 h -7 z m 14,0 h 7 v 7 h -7 z m 35,0 h 7 v 7 h -7 z m 42,0 h 7 v 7 h -7 z M 8,22 h 7 v 7 H 8 Z m 14,0 h 7 v 7 h -7 z m 7,0 h 7 v 7 h -7 z m 7,0 h 7 v 7 h -7 z m 14,0 h 7 v 7 h -7 z m 14,0 h 7 v 7 h -7 z m 28,0 h 7 v 7 h -7 z m 21,0 h 7 v 7 h -7 z m 28,0 h 7 v 7 h -7 z m 21,0 h 7 v 7 h -7 z m 14,0 h 7 v 7 h -7 z m 7,0 h 7 v 7 h -7 z m 7,0 h 7 v 7 h -7 z m 14,0 h 7 v 7 h -7 z M 8,29 h 7 v 7 H 8 Z m 14,0 h 7 v 7 h -7 z m 7,0 h 7 v 7 h -7 z m 7,0 h 7 v 7 h -7 z m 14,0 h 7 v 7 h -7 z m 21,0 h 7 v 7 h -7 z m 35,0 h 7 v 7 h -7 z m 7,0 h 7 v 7 h -7 z m 7,0 h 7 v 7 h -7 z m 7,0 h 7 v 7 h -7 z m 35,0 h 7 v 7 h -7 z m 14,0 h 7 v 7 h -7 z m 7,0 h 7 v 7 h -7 z m 7,0 h 7 v 7 h -7 z m 14,0 h 7 v 7 h -7 z M 8,36 h 7 v 7 H 8 Z m 14,0 h 7 v 7 h -7 z m 7,0 h 7 v 7 h -7 z m 7,0 h 7 v 7 h -7 z m 14,0 h 7 v 7 h -7 z m 21,0 h 7 v 7 h -7 z m 7,0 h 7 v 7 h -7 z m 7,0 h 7 v 7 h -7 z m 7,0 h 7 v 7 h -7 z m 7,0 h 7 v 7 h -7 z m 14,0 h 7 v 7 h -7 z m 21,0 h 7 v 7 h -7 z m 7,0 h 7 v 7 h -7 z m 21,0 h 7 v 7 h -7 z m 14,0 h 7 v 7 h -7 z m 7,0 h 7 v 7 h -7 z m 7,0 h 7 v 7 h -7 z m 14,0 h 7 v 7 h -7 z M 8,43 h 7 v 7 H 8 Z m 42,0 h 7 v 7 h -7 z m 21,0 h 7 v 7 h -7 z m 14,0 h 7 v 7 h -7 z m 14,0 h 7 v 7 h -7 z m 21,0 h 7 v 7 h -7 z m 21,0 h 7 v 7 h -7 z m 7,0 h 7 v 7 h -7 z m 14,0 h 7 v 7 h -7 z m 42,0 h 7 v 7 h -7 z M 8,50 h 7 v 7 H 8 Z m 7,0 h 7 v 7 h -7 z m 7,0 h 7 v 7 h -7 z m 7,0 h 7 v 7 h -7 z m 7,0 h 7 v 7 h -7 z m 7,0 h 7 v 7 h -7 z m 7,0 h 7 v 7 h -7 z m 14,0 h 7 v 7 h -7 z m 14,0 h 7 v 7 h -7 z m 14,0 h 7 v 7 h -7 z m 14,0 h 7 v 7 h -7 z m 14,0 h 7 v 7 h -7 z m 14,0 h 7 v 7 h -7 z m 14,0 h 7 v 7 h -7 z m 14,0 h 7 v 7 h -7 z m 7,0 h 7 v 7 h -7 z m 7,0 h 7 v 7 h -7 z m 7,0 h 7 v 7 h -7 z m 7,0 h 7 v 7 h -7 z m 7,0 h 7 v 7 h -7 z m 7,0 h 7 v 7 h -7 z M 71,57 h 7 v 7 h -7 z m 21,0 h 7 v 7 h -7 z m 21,0 h 7 v 7 h -7 z m 14,0 h 7 v 7 h -7 z m 21,0 h 7 v 7 h -7 z M 15,64 h 7 v 7 h -7 z m 7,0 h 7 v 7 h -7 z m 7,0 h 7 v 7 h -7 z m 14,0 h 7 v 7 h -7 z m 7,0 h 7 v 7 h -7 z m 21,0 h 7 v 7 h -7 z m 7,0 h 7 v 7 h -7 z m 7,0 h 7 v 7 h -7 z m 35,0 h 7 v 7 h -7 z m 7,0 h 7 v 7 h -7 z m 7,0 h 7 v 7 h -7 z m 7,0 h 7 v 7 h -7 z m 49,0 h 7 v 7 h -7 z m 7,0 h 7 v 7 h -7 z M 22,71 h 7 v 7 h -7 z m 7,0 h 7 v 7 h -7 z m 7,0 h 7 v 7 h -7 z m 7,0 h 7 v 7 h -7 z m 14,0 h 7 v 7 h -7 z m 21,0 h 7 v 7 h -7 z m 14,0 h 7 v 7 h -7 z m 7,0 h 7 v 7 h -7 z m 21,0 h 7 v 7 h -7 z m 21,0 h 7 v 7 h -7 z m 7,0 h 7 v 7 h -7 z m 7,0 h 7 v 7 h -7 z m 7,0 h 7 v 7 h -7 z m 7,0 h 7 v 7 h -7 z m 7,0 h 7 v 7 h -7 z m 28,0 h 7 v 7 h -7 z M 15,78 h 7 v 7 h -7 z m 7,0 h 7 v 7 h -7 z m 14,0 h 7 v 7 h -7 z m 14,0 h 7 v 7 h -7 z m 7,0 h 7 v 7 h -7 z m 42,0 h 7 v 7 h -7 z m 7,0 h 7 v 7 h -7 z m 21,0 h 7 v 7 h -7 z m 7,0 h 7 v 7 h -7 z m 14,0 h 7 v 7 h -7 z m 14,0 h 7 v 7 h -7 z m 14,0 h 7 v 7 h -7 z m 7,0 h 7 v 7 h -7 z m 7,0 h 7 v 7 h -7 z m 7,0 h 7 v 7 h -7 z M 15,85 h 7 v 7 h -7 z m 7,0 h 7 v 7 h -7 z m 21,0 h 7 v 7 h -7 z m 42,0 h 7 v 7 h -7 z m 21,0 h 7 v 7 h -7 z m 28,0 h 7 v 7 h -7 z m 35,0 h 7 v 7 h -7 z m 7,0 h 7 v 7 h -7 z m 28,0 h 7 v 7 h -7 z M 22,92 h 7 v 7 h -7 z m 7,0 h 7 v 7 h -7 z m 7,0 h 7 v 7 h -7 z m 14,0 h 7 v 7 h -7 z m 7,0 h 7 v 7 h -7 z m 21,0 h 7 v 7 h -7 z m 7,0 h 7 v 7 h -7 z m 14,0 h 7 v 7 h -7 z m 7,0 h 7 v 7 h -7 z m 14,0 h 7 v 7 h -7 z m 7,0 h 7 v 7 h -7 z m 7,0 h 7 v 7 h -7 z m 21,0 h 7 v 7 h -7 z m 14,0 h 7 v 7 h -7 z m 14,0 h 7 v 7 h -7 z m 7,0 h 7 v 7 h -7 z m 7,0 h 7 v 7 h -7 z m 7,0 h 7 v 7 h -7 z M 15,99 h 7 v 7 h -7 z m 7,0 h 7 v 7 h -7 z m 21,0 h 7 v 7 h -7 z m 21,0 h 7 v 7 h -7 z m 7,0 h 7 v 7 h -7 z m 21,0 h 7 v 7 h -7 z m 28,0 h 7 v 7 h -7 z m 7,0 h 7 v 7 h -7 z m 14,0 h 7 v 7 h -7 z m 21,0 h 7 v 7 h -7 z m 7,0 h 7 v 7 h -7 z m 14,0 h 7 v 7 h -7 z m 7,0 h 7 v 7 h -7 z m 14,0 h 7 v 7 h -7 z M 8,106 h 7 v 7 H 8 Z m 42,0 h 7 v 7 h -7 z m 7,0 h 7 v 7 h -7 z m 49,0 h 7 v 7 h -7 z m 7,0 h 7 v 7 h -7 z m 21,0 h 7 v 7 h -7 z m 7,0 h 7 v 7 h -7 z m 28,0 h 7 v 7 h -7 z m 7,0 h 7 v 7 h -7 z m 7,0 h 7 v 7 h -7 z m 14,0 h 7 v 7 h -7 z m 7,0 h 7 v 7 h -7 z m -175,7 h 7 v 7 h -7 z m 7,0 h 7 v 7 h -7 z m 28,0 h 7 v 7 h -7 z m 14,0 h 7 v 7 h -7 z m 7,0 h 7 v 7 h -7 z m 7,0 h 7 v 7 h -7 z m 14,0 h 7 v 7 h -7 z m 7,0 h 7 v 7 h -7 z m 7,0 h 7 v 7 h -7 z m 21,0 h 7 v 7 h -7 z m 35,0 h 7 v 7 h -7 z m 7,0 h 7 v 7 h -7 z m 14,0 h 7 v 7 h -7 z m 7,0 h 7 v 7 h -7 z M 8,120 h 7 v 7 H 8 Z m 7,0 h 7 v 7 h -7 z m 28,0 h 7 v 7 h -7 z m 7,0 h 7 v 7 h -7 z m 21,0 h 7 v 7 h -7 z m 14,0 h 7 v 7 h -7 z m 14,0 h 7 v 7 h -7 z m 7,0 h 7 v 7 h -7 z m 7,0 h 7 v 7 h -7 z m 7,0 h 7 v 7 h -7 z m 35,0 h 7 v 7 h -7 z m 14,0 h 7 v 7 h -7 z m 7,0 h 7 v 7 h -7 z m 7,0 h 7 v 7 h -7 z m 14,0 h 7 v 7 h -7 z m 7,0 h 7 v 7 h -7 z m -189,7 h 7 v 7 h -7 z m 14,0 h 7 v 7 h -7 z m 35,0 h 7 v 7 h -7 z m 21,0 h 7 v 7 h -7 z m 35,0 h 7 v 7 h -7 z m 7,0 h 7 v 7 h -7 z m 21,0 h 7 v 7 h -7 z m 21,0 h 7 v 7 h -7 z M 8,134 h 7 v 7 H 8 Z m 35,0 h 7 v 7 h -7 z m 7,0 h 7 v 7 h -7 z m 21,0 h 7 v 7 h -7 z m 7,0 h 7 v 7 h -7 z m 28,0 h 7 v 7 h -7 z m 7,0 h 7 v 7 h -7 z m 7,0 h 7 v 7 h -7 z m 7,0 h 7 v 7 h -7 z m 21,0 h 7 v 7 h -7 z m 14,0 h 7 v 7 h -7 z m 21,0 h 7 v 7 h -7 z m -161,7 h 7 v 7 h -7 z m 7,0 h 7 v 7 h -7 z m 7,0 h 7 v 7 h -7 z m 35,0 h 7 v 7 h -7 z m 7,0 h 7 v 7 h -7 z m 7,0 h 7 v 7 h -7 z m 42,0 h 7 v 7 h -7 z m 28,0 h 7 v 7 h -7 z m 7,0 h 7 v 7 h -7 z m 7,0 h 7 v 7 h -7 z m 7,0 h 7 v 7 h -7 z m 14,0 h 7 v 7 h -7 z m 14,0 h 7 v 7 h -7 z m -189,7 h 7 v 7 h -7 z m 7,0 h 7 v 7 h -7 z m 7,0 h 7 v 7 h -7 z m 14,0 h 7 v 7 h -7 z m 7,0 h 7 v 7 h -7 z m 14,0 h 7 v 7 h -7 z m 7,0 h 7 v 7 h -7 z m 7,0 h 7 v 7 h -7 z m 21,0 h 7 v 7 h -7 z m 7,0 h 7 v 7 h -7 z m 14,0 h 7 v 7 h -7 z m 7,0 h 7 v 7 h -7 z m 7,0 h 7 v 7 h -7 z m 14,0 h 7 v 7 h -7 z m 7,0 h 7 v 7 h -7 z m 7,0 h 7 v 7 h -7 z m 7,0 h 7 v 7 h -7 z m 7,0 h 7 v 7 h -7 z m 7,0 h 7 v 7 h -7 z m 7,0 h 7 v 7 h -7 z m 7,0 h 7 v 7 h -7 z m -133,7 h 7 v 7 h -7 z m 7,0 h 7 v 7 h -7 z m 28,0 h 7 v 7 h -7 z m 21,0 h 7 v 7 h -7 z m 7,0 h 7 v 7 h -7 z m 7,0 h 7 v 7 h -7 z m 7,0 h 7 v 7 h -7 z m 7,0 h 7 v 7 h -7 z m 28,0 h 7 v 7 h -7 z m 7,0 h 7 v 7 h -7 z m 14,0 h 7 v 7 h -7 z m 7,0 h 7 v 7 h -7 z M 8,162 h 7 v 7 H 8 Z m 7,0 h 7 v 7 h -7 z m 7,0 h 7 v 7 h -7 z m 7,0 h 7 v 7 h -7 z m 7,0 h 7 v 7 h -7 z m 7,0 h 7 v 7 h -7 z m 7,0 h 7 v 7 h -7 z m 21,0 h 7 v 7 h -7 z m 7,0 h 7 v 7 h -7 z m 7,0 h 7 v 7 h -7 z m 7,0 h 7 v 7 h -7 z m 14,0 h 7 v 7 h -7 z m 28,0 h 7 v 7 h -7 z m 7,0 h 7 v 7 h -7 z m 7,0 h 7 v 7 h -7 z m 14,0 h 7 v 7 h -7 z m 14,0 h 7 v 7 h -7 z m 14,0 h 7 v 7 h -7 z M 8,169 h 7 v 7 H 8 Z m 42,0 h 7 v 7 h -7 z m 14,0 h 7 v 7 h -7 z m 7,0 h 7 v 7 h -7 z m 7,0 h 7 v 7 h -7 z m 28,0 h 7 v 7 h -7 z m 7,0 h 7 v 7 h -7 z m 7,0 h 7 v 7 h -7 z m 14,0 h 7 v 7 h -7 z m 14,0 h 7 v 7 h -7 z m 28,0 h 7 v 7 h -7 z m 21,0 h 7 v 7 h -7 z M 8,176 h 7 v 7 H 8 Z m 14,0 h 7 v 7 h -7 z m 7,0 h 7 v 7 h -7 z m 7,0 h 7 v 7 h -7 z m 14,0 h 7 v 7 h -7 z m 28,0 h 7 v 7 h -7 z m 28,0 h 7 v 7 h -7 z m 7,0 h 7 v 7 h -7 z m 21,0 h 7 v 7 h -7 z m 14,0 h 7 v 7 h -7 z m 7,0 h 7 v 7 h -7 z m 7,0 h 7 v 7 h -7 z m 7,0 h 7 v 7 h -7 z m 7,0 h 7 v 7 h -7 z m 7,0 h 7 v 7 h -7 z m 7,0 h 7 v 7 h -7 z M 8,183 h 7 v 7 H 8 Z m 14,0 h 7 v 7 h -7 z m 7,0 h 7 v 7 h -7 z m 7,0 h 7 v 7 h -7 z m 14,0 h 7 v 7 h -7 z m 14,0 h 7 v 7 h -7 z m 14,0 h 7 v 7 h -7 z m 7,0 h 7 v 7 h -7 z m 7,0 h 7 v 7 h -7 z m 28,0 h 7 v 7 h -7 z m 21,0 h 7 v 7 h -7 z m 35,0 h 7 v 7 h -7 z m 7,0 h 7 v 7 h -7 z m 14,0 h 7 v 7 h -7 z M 8,190 h 7 v 7 H 8 Z m 14,0 h 7 v 7 h -7 z m 7,0 h 7 v 7 h -7 z m 7,0 h 7 v 7 h -7 z m 14,0 h 7 v 7 h -7 z m 14,0 h 7 v 7 h -7 z m 7,0 h 7 v 7 h -7 z m 14,0 h 7 v 7 h -7 z m 21,0 h 7 v 7 h -7 z m 7,0 h 7 v 7 h -7 z m 7,0 h 7 v 7 h -7 z m 7,0 h 7 v 7 h -7 z m 7,0 h 7 v 7 h -7 z m 14,0 h 7 v 7 h -7 z m 21,0 h 7 v 7 h -7 z m 21,0 h 7 v 7 h -7 z m 14,0 h 7 v 7 h -7 z M 8,197 h 7 v 7 H 8 Z m 42,0 h 7 v 7 h -7 z m 14,0 h 7 v 7 h -7 z m 14,0 h 7 v 7 h -7 z m 14,0 h 7 v 7 h -7 z m 28,0 h 7 v 7 h -7 z m 28,0 h 7 v 7 h -7 z m 14,0 h 7 v 7 h -7 z m 14,0 h 7 v 7 h -7 z m 7,0 h 7 v 7 h -7 z m 14,0 h 7 v 7 h -7 z M 8,204 h 7 v 7 H 8 Z m 7,0 h 7 v 7 h -7 z m 7,0 h 7 v 7 h -7 z m 7,0 h 7 v 7 h -7 z m 7,0 h 7 v 7 h -7 z m 7,0 h 7 v 7 h -7 z m 7,0 h 7 v 7 h -7 z m 35,0 h 7 v 7 h -7 z m 7,0 h 7 v 7 h -7 z m 21,0 h 7 v 7 h -7 z m 7,0 h 7 v 7 h -7 z m 14,0 h 7 v 7 h -7 z m 14,0 h 7 v 7 h -7 z m 14,0 h 7 v 7 h -7 z m 7,0 h 7 v 7 h -7 z m 28,0 h 7 v 7 h -7 z"
       stroke="transparent"
       fill="#0c0c0d"
       id="path1"
       transform="translate(-4.5,-4.5)"
       inkscape:label="path1"
       style="display:none" /></g><g
     inkscape:groupmode="layer"
     id="layer6"
     inkscape:label="Layer 3" /><g
     inkscape:label="Layer 1"
     inkscape:groupmode="layer"
     id="layer1"
     style="display:inline"><g
       id="g33"
       transform="matrix(2.0706396,0,0,2.0706396,-81.113945,-145.20767)"
       clip-path="none"
       style="display:inline;opacity:0.80871671"><g
         id="g32"
         clip-path="none"
         transform="matrix(0.26458333,0,0,0.26458333,-64.913209,-105.4387)"><g
           id="g29"><path
             d="m 299.84,632.434 h 47.926 v -27.961 l -9.328,-3.379 28.593,-28.942 31.832,32.321 h -8.164 v 27.961 h 12.203 V 592.43 l -16.238,-5.129 38,-30.504 43.176,34.363 -16.625,0.094 v 41.18 h 17.398 v -74.797 h 29.575 l 4.55,6.074 v 68.723 h 8.629 v -23.036 l -7.754,-2.652 17.504,-18.668 18.813,20.727 h -7.825 v 23.629 h 45.735 v 147.925 h -278 z"
             style="fill:#ff4f4f;fill-opacity:0.81176472;fill-rule:evenodd;stroke:none"
             transform="scale(1.3333333)"
             clip-path="url(#clipPath64)"
             id="path28" /></g><g
           clip-path="url(#clipPath67)"
           id="g31"><g
             id="g30"><path
               d="m 299.84,635.414 h 50.914 v -37.309 h -5.164 l 21.437,-21.699 21.332,21.699 h -5.195 v 37.309 h 22.723 v -50.789 h -11.059 l 29.82,-24 30.114,24 h -11.254 v 50.789 h 28.094 v -74.789 h 23.597 v 74.789 h 19.149 v -31.348 h -4.157 l 10.895,-11.73 10.422,11.73 h -5.129 v 31.348 h 51.461 v 144.945 h -278 z"
               style="fill:#ff4f4f;fill-opacity:1;fill-rule:evenodd;stroke:none"
               transform="scale(1.3333333)"
               clip-path="url(#clipPath65)"
               id="path29"
               sodipodi:nodetypes="cccccccccccccccccccccccccccccc" /></g></g></g><path
         id="path32"
         d="m 40.863676,118.72123 h 9.756441 c 1.999005,0 3.746524,0.29845 5.152276,0.88989 1.444444,0.59144 2.553569,1.47589 3.275791,2.65876 0.767361,1.1829 1.154266,2.62081 1.154266,4.35717 0,1.44333 -0.212797,2.65877 -0.638392,3.65718 -0.470735,0.9984 -1.109128,1.85028 -1.921626,2.51228 -0.80605,0.6674 -1.78621,1.18288 -2.934026,1.58984 l -1.831346,0.96041 h -7.879957 l -0.04514,-4.39512 h 5.494043 c 0.812499,0 1.534721,-0.1465 2.044145,-0.48293 0.554564,-0.29301 0.980159,-0.77593 1.238095,-1.32939 0.296626,-0.59145 0.425595,-1.29142 0.425595,-2.06732 0,-0.81393 -0.128964,-1.55187 -0.386904,-2.14333 -0.251488,-0.59144 -0.638391,-1.03638 -1.147817,-1.36737 -0.509426,-0.29301 -1.192956,-0.47749 -1.999006,-0.47749 h -3.624005 v 21.86713 h -6.13244 z m 13.760902,26.22971 -5.539181,-11.67151 6.39037,-0.0379 5.661702,11.48702 v 0.22248 z m 21.882671,-21.57414 -6.558032,21.57414 h -6.383923 l 9.453365,-26.22971 h 4.004461 z m 5.113579,21.57414 -6.558024,-21.57414 -0.599703,-4.65557 h 4.088293 l 9.54365,26.22971 z m 0.251488,-9.75067 v 4.35714 H 68.163008 v -4.35714 z m 26.955964,-5.87647 v 4.39515 H 96.440884 V 129.3238 Z M 98.14327,118.72123 v 26.22971 h -6.093748 v -26.22971 z m 15.11506,0 v 26.22971 h -6.04861 v -26.22971 z m 19.59027,0 h 6.08729 v 18.0309 c 0,2.02935 -0.42558,3.65717 -1.27678,4.91061 -0.8512,1.2914 -2.04413,2.21926 -3.53373,2.77271 -1.48957,0.59145 -3.19195,0.88446 -5.10713,0.88446 -1.96032,0 -3.70784,-0.29301 -5.19743,-0.88446 -1.48958,-0.55345 -2.68254,-1.48131 -3.53372,-2.77271 -0.81249,-1.25344 -1.23809,-2.88126 -1.23809,-4.91061 v -18.0309 h 6.0486 v 18.0309 c 0,1.14489 0.17411,1.99137 0.47075,2.62079 0.29663,0.62943 0.72221,1.03638 1.32191,1.25342 0.54812,0.22247 1.27679,0.33643 2.12798,0.33643 0.85118,0 1.52826,-0.11393 2.08282,-0.33643 0.59972,-0.21704 1.0253,-0.62399 1.32193,-1.25342 0.29663,-0.62942 0.4256,-1.4759 0.4256,-2.62079 z m 0,0"
         style="fill:#ffffff;fill-opacity:1;fill-rule:nonzero;stroke:none;stroke-width:0.512521"
         aria-label="RAHU" /></g><g
       id="path43"
       style="display:inline"
       sodipodi:insensitive="true"><path
         id="path48"
         style="color:#000000;fill:#0c0c0d;-inkscape-stroke:none"
         d="m 75.000073,5.0002116 v 3.9997558 h 3.999756 V 5.0002116 Z m 7.00009,0 v 3.9997558 h 3.999756 V 5.0002116 Z m 27.999837,0 v 3.9997558 h 3.99976 V 5.0002116 Z m 7.00009,0 v 3.9997558 h 3.99976 V 5.0002116 Z m 7.00009,0 v 3.9997558 h 3.99976 V 5.0002116 Z m 6.99958,0 v 3.9997558 h 4.00027 V 5.0002116 Z m 7.00009,0 v 3.9997558 h 4.00027 V 5.0002116 Z m 7.00008,0 v 3.9997558 h 4.00028 V 5.0002116 Z M 60.999894,11.999784 v 4.000273 h 4.000273 v -4.000273 z m 49.000106,0 v 4.000273 h 3.99976 v -4.000273 z m 14.00018,0 v 4.000273 h 3.99976 v -4.000273 z m -63.000286,7.00009 v 4.000272 h 4.000273 v -4.000272 z m 28.000358,0 v 4.000272 h 3.999756 v -4.000272 z m 20.999748,0 v 4.000272 h 3.99976 v -4.000272 z m 27.99985,0 v 4.000272 h 4.00027 v -4.000272 z m -69.999866,7.000089 v 4.000273 h 4.000272 v -4.000273 z m 34.999926,0 v 4.000273 h 4.00028 v -4.000273 z m 7.00009,0 v 4.000273 h 3.99976 v -4.000273 z m 7.00009,0 v 4.000273 h 3.99976 v -4.000273 z m 7.00009,0 v 4.000273 h 3.99976 v -4.000273 z m -56.000196,7.00009 v 3.999756 h 4.000272 v -3.999756 z m 7.000089,0 v 3.999756 h 3.999756 v -3.999756 z m 7.00009,0 v 3.999756 h 3.999756 v -3.999756 z m 7.000089,0 v 3.999756 h 3.999756 v -3.999756 z m 6.999573,0 v 3.999756 h 4.000275 v -3.999756 z m 14.000175,0 v 3.999756 h 3.99976 v -3.999756 z m 20.99976,0 v 3.999756 h 4.00027 v -3.999756 z m 7.00009,0 v 3.999756 h 4.00027 v -3.999756 z m -69.999866,7.000089 v 3.999756 h 4.000272 v -3.999756 z m 14.000179,0 v 3.999756 h 3.999756 v -3.999756 z m 13.999662,0 v 3.999756 h 4.000275 v -3.999756 z m 21.000265,0 v 3.999756 h 3.99976 v -3.999756 z m 20.99976,0 v 3.999756 h 4.00027 v -3.999756 z m 7.00008,0 v 3.999756 h 4.00028 v -3.999756 z m -84.000036,7.00009 v 3.999756 h 4.000273 v -3.999756 z m 14.000179,0 v 3.999756 h 3.999756 v -3.999756 z m 14.000179,0 v 3.999756 h 3.999756 v -3.999756 z m 13.999658,0 v 3.999756 h 4.00028 v -3.999756 z m 14.00018,0 v 3.999756 h 3.99976 v -3.999756 z m 13.99967,0 v 3.999756 h 4.00027 v -3.999756 z m 14.00017,0 v 3.999756 h 4.00028 v -3.999756 z m -76.999946,6.999573 v 4.000272 h 4.000272 v -4.000272 z m 21.000268,0 v 4.000272 h 3.999756 v -4.000272 z m 20.999748,0 v 4.000272 h 3.99976 v -4.000272 z m 14.00018,0 v 4.000272 h 3.99976 v -4.000272 z m 20.99975,0 v 4.000272 h 4.00028 V 53.999805 Z M 11.999784,60.999894 v 4.000273 h 4.000273 v -4.000273 z m 7.00009,0 v 4.000273 h 4.000272 v -4.000273 z m 7.000089,0 v 4.000273 h 4.000273 v -4.000273 z m 14.000179,0 v 4.000273 h 3.999756 v -4.000273 z m 7.00009,0 v 4.000273 h 3.999756 v -4.000273 z m 20.999752,0 v 4.000273 h 4.000272 v -4.000273 z m 7.000089,0 v 4.000273 h 3.999756 v -4.000273 z m 7.00009,0 v 4.000273 h 3.999756 v -4.000273 z m 34.999927,0 v 4.000273 h 3.99976 v -4.000273 z m 7.00009,0 v 4.000273 h 3.99976 v -4.000273 z m 6.99958,0 v 4.000273 h 4.00027 v -4.000273 z m 7.00009,0 v 4.000273 h 4.00027 v -4.000273 z m 49.00011,0 v 4.000273 h 4.00027 v -4.000273 z m 7.00008,0 v 4.000273 h 3.99976 v -4.000273 z m -175.000166,7.00009 v 4.000272 h 4.000272 v -4.000272 z m 7.000089,0 v 4.000272 h 4.000273 v -4.000272 z m 7.00009,0 v 4.000272 h 3.999756 v -4.000272 z m 7.000089,0 v 4.000272 h 3.999756 v -4.000272 z m 13.999663,0 v 4.000272 h 4.000272 v -4.000272 z m 21.000268,0 v 4.000272 h 3.999756 v -4.000272 z m 14.000179,0 v 4.000272 h 3.999756 v -4.000272 z m 6.999573,0 v 4.000272 h 4.000275 v -4.000272 z m 21.000265,0 v 4.000272 h 3.99976 v -4.000272 z m 20.99976,0 v 4.000272 h 4.00027 v -4.000272 z m 7.00008,0 v 4.000272 h 4.00028 v -4.000272 z m 7.00009,0 v 4.000272 h 3.99976 v -4.000272 z m 7.00009,0 v 4.000272 h 3.99976 v -4.000272 z m 7.00009,0 v 4.000272 h 3.99976 v -4.000272 z m 6.99958,0 v 4.000272 h 4.00027 v -4.000272 z m 28.00035,0 v 4.000272 h 3.99976 V 67.999984 Z M 11.999784,75.000073 v 3.999756 h 4.000273 v -3.999756 z m 7.00009,0 v 3.999756 h 4.000272 v -3.999756 z m 14.000179,0 v 3.999756 h 3.999756 v -3.999756 z m 14.000179,0 v 3.999756 h 3.999756 v -3.999756 z m 6.999573,0 v 3.999756 h 4.000272 v -3.999756 z m 42.00002,0 v 3.999756 h 4.000275 v -3.999756 z m 7.000085,0 v 3.999756 h 4.00028 v -3.999756 z m 21.00027,0 v 3.999756 h 3.99976 v -3.999756 z m 6.99958,0 v 3.999756 h 4.00027 v -3.999756 z m 14.00017,0 v 3.999756 h 4.00028 v -3.999756 z m 14.00018,0 v 3.999756 h 3.99976 v -3.999756 z m 13.99967,0 v 3.999756 h 4.00027 v -3.999756 z m 7.00009,0 v 3.999756 h 4.00027 v -3.999756 z m 7.00009,0 v 3.999756 h 4.00027 v -3.999756 z m 7.00008,0 v 3.999756 h 3.99976 v -3.999756 z m -182.000256,7.00009 v 3.999756 h 4.000273 v -3.999756 z m 7.00009,0 v 3.999756 h 4.000272 v -3.999756 z m 21.000268,0 v 3.999756 h 3.999756 v -3.999756 z m 42.000021,0 v 3.999756 h 3.999756 v -3.999756 z m 20.999747,0 v 3.999756 h 4.00028 v -3.999756 z m 27.99985,0 v 3.999756 h 4.00027 v -3.999756 z m 35.00044,0 v 3.999756 h 3.99976 v -3.999756 z m 6.99958,0 v 3.999756 h 4.00027 v -3.999756 z m 28.00035,0 v 3.999756 h 3.99976 V 82.000163 Z M 18.999874,89.000252 v 3.999756 h 4.000272 v -3.999756 z m 7.000089,0 v 3.999756 h 4.000273 v -3.999756 z m 7.00009,0 v 3.999756 h 3.999756 v -3.999756 z m 14.000179,0 v 3.999756 h 3.999756 v -3.999756 z m 6.999573,0 v 3.999756 h 4.000272 v -3.999756 z m 21.000268,0 v 3.999756 h 3.999756 v -3.999756 z m 7.00009,0 v 3.999756 h 3.999756 v -3.999756 z m 13.999662,0 v 3.999756 h 4.000275 v -3.999756 z m 7.000085,0 v 3.999756 h 4.00028 v -3.999756 z m 14.00018,0 v 3.999756 h 3.99976 v -3.999756 z m 7.00009,0 v 3.999756 h 3.99976 v -3.999756 z m 6.99958,0 v 3.999756 h 4.00027 v -3.999756 z m 21.00026,0 v 3.999756 h 3.99976 v -3.999756 z m 14.00018,0 v 3.999756 h 3.99976 v -3.999756 z m 13.99967,0 v 3.999756 h 4.00027 v -3.999756 z m 7.00009,0 v 3.999756 h 4.00027 v -3.999756 z m 7.00008,0 v 3.999756 h 3.99976 v -3.999756 z m 7.00009,0 v 3.999756 h 3.99976 V 89.000252 Z M 11.999784,95.999825 v 4.000275 h 4.000273 v -4.000275 z m 7.00009,0 v 4.000275 h 4.000272 v -4.000275 z m 21.000268,0 v 4.000275 h 3.999756 v -4.000275 z m 20.999752,0 v 4.000275 h 4.000273 v -4.000275 z m 7.00009,0 v 4.000275 h 4.000272 v -4.000275 z m 21.000268,0 v 4.000275 h 3.999756 v -4.000275 z m 27.999838,0 v 4.000275 h 3.99976 v -4.000275 z m 7.00009,0 v 4.000275 h 3.99976 v -4.000275 z m 13.99967,0 v 4.000275 h 4.00027 v -4.000275 z m 21.00026,0 v 4.000275 h 3.99976 v -4.000275 z m 7.00009,0 v 4.000275 h 3.99976 v -4.000275 z m 13.99967,0 v 4.000275 h 4.00027 v -4.000275 z m 7.00009,0 v 4.000275 h 4.00027 v -4.000275 z m 14.00017,0 v 4.000275 h 3.99976 V 95.999825 Z M 5.0002116,102.99991 v 4.00028 h 3.9997558 v -4.00028 z m 42.0000204,0 v 4.00028 h 3.999756 v -4.00028 z m 6.999573,0 v 4.00028 h 4.000272 v -4.00028 z m 49.000105,0 v 4.00028 h 4.00028 v -4.00028 z m 7.00009,0 v 4.00028 h 3.99976 v -4.00028 z m 20.99976,0 v 4.00028 h 4.00027 v -4.00028 z m 7.00009,0 v 4.00028 h 4.00027 v -4.00028 z m 28.00035,0 v 4.00028 h 3.99976 v -4.00028 z m 6.99958,0 v 4.00028 h 4.00027 v -4.00028 z m 7.00009,0 v 4.00028 h 4.00027 v -4.00028 z m 14.00017,0 v 4.00028 h 3.99976 v -4.00028 z m 7.00009,0 v 4.00028 h 3.99976 v -4.00028 z M 25.999963,110 v 3.99976 h 4.000273 V 110 Z m 7.00009,0 v 3.99976 h 3.999756 V 110 Z m 27.999841,0 v 3.99976 h 4.000273 V 110 Z m 14.000179,0 v 3.99976 h 3.999756 V 110 Z m 7.00009,0 v 3.99976 h 3.999756 V 110 Z m 7.000089,0 v 3.99976 h 3.999756 V 110 Z m 13.999658,0 v 3.99976 h 4.00028 V 110 Z M 110,110 v 3.99976 h 3.99976 V 110 Z m 7.00009,0 v 3.99976 h 3.99976 V 110 Z m 20.99976,0 v 3.99976 h 4.00027 V 110 Z m 34.99993,0 v 3.99976 h 4.00027 V 110 Z m 7.00009,0 v 3.99976 h 4.00027 V 110 Z m 14.00017,0 v 3.99976 h 3.99976 V 110 Z m 7.00009,0 v 3.99976 h 3.99976 V 110 Z M 5.0002116,117.00009 v 3.99976 h 3.9997558 v -3.99976 z m 6.9995724,0 v 3.99976 h 4.000273 v -3.99976 z m 28.000358,0 v 3.99976 h 3.999756 v -3.99976 z m 7.00009,0 v 3.99976 h 3.999756 v -3.99976 z m 20.999752,0 v 3.99976 h 4.000272 v -3.99976 z m 14.000179,0 v 3.99976 h 3.999756 v -3.99976 z m 13.999662,0 v 3.99976 h 4.000275 v -3.99976 z m 7.000085,0 v 3.99976 h 4.00028 v -3.99976 z m 7.00009,0 v 3.99976 h 3.99976 v -3.99976 z m 7.00009,0 v 3.99976 h 3.99976 v -3.99976 z m 34.99993,0 v 3.99976 h 3.99976 v -3.99976 z m 14.00018,0 v 3.99976 h 3.99976 v -3.99976 z m 6.99958,0 v 3.99976 h 4.00027 v -3.99976 z m 7.00009,0 v 3.99976 h 4.00027 v -3.99976 z m 14.00017,0 v 3.99976 h 3.99976 v -3.99976 z m 7.00009,0 v 3.99976 h 3.99976 v -3.99976 z m -189.000346,7.00009 v 3.99976 h 4.000273 v -3.99976 z m 14.000179,0 v 3.99976 h 4.000273 v -3.99976 z m 34.999931,0 v 3.99976 h 4.000273 v -3.99976 z m 21.000269,0 v 3.99976 h 3.999756 v -3.99976 z m 34.999927,0 v 3.99976 h 3.99976 v -3.99976 z m 7.00009,0 v 3.99976 h 3.99976 v -3.99976 z m 20.99975,0 v 3.99976 h 4.00028 v -3.99976 z m 21.00027,0 v 3.99976 h 3.99976 v -3.99976 z M 5.0002116,130.99976 v 4.00027 h 3.9997558 v -4.00027 z m 34.9999304,0 v 4.00027 h 3.999756 v -4.00027 z m 7.00009,0 v 4.00027 h 3.999756 v -4.00027 z m 20.999752,0 v 4.00027 h 4.000272 v -4.00027 z m 7.000089,0 v 4.00027 h 3.999756 v -4.00027 z m 27.999837,0 v 4.00027 h 4.00028 v -4.00027 z m 7.00009,0 v 4.00027 h 3.99976 v -4.00027 z m 7.00009,0 v 4.00027 h 3.99976 v -4.00027 z m 7.00009,0 v 4.00027 h 3.99976 v -4.00027 z m 20.99975,0 v 4.00027 h 4.00028 v -4.00027 z m 14.00018,0 v 4.00027 h 3.99976 v -4.00027 z m 20.99976,0 v 4.00027 h 4.00027 v -4.00027 z m -160.999996,7.00009 v 4.00027 h 4.000272 v -4.00027 z m 7.000089,0 v 4.00027 h 4.000273 v -4.00027 z m 7.00009,0 v 4.00027 h 3.999756 v -4.00027 z m 34.999931,0 v 4.00027 h 4.000272 v -4.00027 z m 7.000089,0 v 4.00027 h 3.999756 v -4.00027 z m 7.00009,0 v 4.00027 h 3.999756 v -4.00027 z m 42.000017,0 v 4.00027 h 3.99976 v -4.00027 z m 27.99984,0 v 4.00027 h 3.99976 v -4.00027 z m 7.00009,0 v 4.00027 h 3.99976 v -4.00027 z m 7.00009,0 v 4.00027 h 3.99976 v -4.00027 z m 6.99958,0 v 4.00027 h 4.00027 v -4.00027 z m 14.00018,0 v 4.00027 h 4.00027 v -4.00027 z m 14.00017,0 v 4.00027 h 3.99976 v -4.00027 z m -189.000346,7.00008 v 4.00028 h 4.000273 v -4.00028 z m 7.00009,0 v 4.00028 h 4.000272 v -4.00028 z m 7.000089,0 v 4.00028 h 4.000273 v -4.00028 z m 14.000179,0 v 4.00028 h 3.999756 v -4.00028 z m 7.00009,0 v 4.00028 h 3.999756 v -4.00028 z m 13.999662,0 v 4.00028 h 4.000273 v -4.00028 z m 7.00009,0 v 4.00028 h 4.000272 v -4.00028 z m 7.000089,0 v 4.00028 h 3.999756 v -4.00028 z m 20.999752,0 v 4.00028 h 4.000275 v -4.00028 z m 7.000085,0 v 4.00028 h 4.00028 v -4.00028 z m 14.00018,0 v 4.00028 h 3.99976 v -4.00028 z m 7.00009,0 v 4.00028 h 3.99976 v -4.00028 z m 6.99958,0 v 4.00028 h 4.00027 v -4.00028 z m 14.00017,0 v 4.00028 h 4.00028 v -4.00028 z m 7.00009,0 v 4.00028 h 3.99976 v -4.00028 z m 7.00009,0 v 4.00028 h 3.99976 v -4.00028 z m 7.00009,0 v 4.00028 h 3.99976 v -4.00028 z m 6.99958,0 v 4.00028 h 4.00027 v -4.00028 z m 7.00009,0 v 4.00028 h 4.00027 v -4.00028 z m 7.00009,0 v 4.00028 h 4.00027 v -4.00028 z m 7.00008,0 v 4.00028 h 3.99976 v -4.00028 z m -133.000146,7.00009 v 3.99976 h 4.000273 v -3.99976 z m 7.00009,0 v 3.99976 h 4.000272 v -3.99976 z m 27.999841,0 v 3.99976 h 4.000275 v -3.99976 z m 21.000265,0 v 3.99976 h 3.99976 v -3.99976 z m 7.00009,0 v 3.99976 h 3.99976 v -3.99976 z m 6.99958,0 v 3.99976 h 4.00027 v -3.99976 z m 7.00009,0 v 3.99976 h 4.00027 v -3.99976 z m 7.00008,0 v 3.99976 h 4.00028 v -3.99976 z m 27.99985,0 v 3.99976 h 4.00027 v -3.99976 z m 7.00009,0 v 3.99976 h 4.00027 v -3.99976 z m 14.00017,0 v 3.99976 h 3.99976 v -3.99976 z m 7.00009,0 v 3.99976 h 3.99976 v -3.99976 z m -133.000146,7.00009 v 3.99976 h 4.000272 v -3.99976 z m 7.000089,0 v 3.99976 h 3.999756 v -3.99976 z m 7.00009,0 v 3.99976 h 3.999756 v -3.99976 z m 7.000089,0 v 3.99976 h 3.999756 v -3.99976 z m 13.999658,0 v 3.99976 h 4.00028 v -3.99976 z m 27.99985,0 v 3.99976 h 4.00027 v -3.99976 z m 7.00009,0 v 3.99976 h 4.00027 v -3.99976 z m 7.00008,0 v 3.99976 h 4.00028 v -3.99976 z m 14.00018,0 v 3.99976 h 3.99976 v -3.99976 z m 13.99967,0 v 3.99976 h 4.00027 v -3.99976 z m 14.00018,0 v 3.99976 h 4.00027 v -3.99976 z M 60.999894,166.0002 v 3.99976 h 4.000273 v -3.99976 z m 7.00009,0 v 3.99976 h 4.000272 v -3.99976 z m 7.000089,0 v 3.99976 h 3.999756 v -3.99976 z m 27.999837,0 v 3.99976 h 4.00028 v -3.99976 z m 7.00009,0 v 3.99976 h 3.99976 v -3.99976 z m 7.00009,0 v 3.99976 h 3.99976 v -3.99976 z m 13.99967,0 v 3.99976 h 4.00027 v -3.99976 z m 14.00017,0 v 3.99976 h 4.00028 v -3.99976 z m 27.99985,0 v 3.99976 h 4.00027 v -3.99976 z m 21.00026,0 v 3.99976 h 3.99976 v -3.99976 z m -118.999967,6.99958 v 4.00027 h 3.999756 v -4.00027 z m 27.999837,0 v 4.00027 h 4.00028 v -4.00027 z m 7.00009,0 v 4.00027 h 3.99976 v -4.00027 z m 20.99976,0 v 4.00027 h 4.00027 v -4.00027 z m 14.00017,0 v 4.00027 h 4.00028 v -4.00027 z m 7.00009,0 v 4.00027 h 3.99976 v -4.00027 z m 7.00009,0 v 4.00027 h 3.99976 v -4.00027 z m 7.00009,0 v 4.00027 h 3.99976 v -4.00027 z m 6.99958,0 v 4.00027 h 4.00027 v -4.00027 z m 7.00009,0 v 4.00027 h 4.00027 v -4.00027 z m 7.00009,0 v 4.00027 h 4.00027 v -4.00027 z m -126.000066,7.00009 v 4.00027 h 4.000273 v -4.00027 z m 14.000179,0 v 4.00027 h 3.999756 v -4.00027 z m 7.00009,0 v 4.00027 h 3.999756 v -4.00027 z m 7.000089,0 v 4.00027 h 3.999756 v -4.00027 z m 27.999838,0 v 4.00027 h 3.99976 v -4.00027 z m 20.99976,0 v 4.00027 h 4.00027 v -4.00027 z m 34.99993,0 v 4.00027 h 4.00027 v -4.00027 z m 7.00009,0 v 4.00027 h 4.00027 v -4.00027 z m 14.00017,0 v 4.00027 h 3.99976 v -4.00027 z m -133.000146,7.00009 v 4.00027 h 4.000273 v -4.00027 z m 7.00009,0 v 4.00027 h 4.000272 v -4.00027 z m 14.000179,0 v 4.00027 h 3.999756 v -4.00027 z m 20.999747,0 v 4.00027 h 4.00028 v -4.00027 z m 7.00009,0 v 4.00027 h 3.99976 v -4.00027 z m 7.00009,0 v 4.00027 h 3.99976 v -4.00027 z m 7.00009,0 v 4.00027 h 3.99976 v -4.00027 z m 6.99958,0 v 4.00027 h 4.00027 v -4.00027 z m 14.00017,0 v 4.00027 h 4.00028 v -4.00027 z m 21.00027,0 v 4.00027 h 3.99976 v -4.00027 z m 20.99976,0 v 4.00027 h 4.00027 v -4.00027 z m 14.00017,0 v 4.00027 h 3.99976 v -4.00027 z m -140.000236,7.00008 v 3.99976 h 4.000273 v -3.99976 z m 14.000179,0 v 3.99976 h 3.999756 v -3.99976 z m 14.000179,0 v 3.99976 h 3.999756 v -3.99976 z m 27.999838,0 v 3.99976 h 3.99976 v -3.99976 z m 27.99984,0 v 3.99976 h 4.00028 v -3.99976 z m 14.00018,0 v 3.99976 h 3.99976 v -3.99976 z m 13.99967,0 v 3.99976 h 4.00027 v -3.99976 z m 7.00009,0 v 3.99976 h 4.00027 v -3.99976 z m 14.00017,0 v 3.99976 h 3.99976 v -3.99976 z m -111.999877,7.00009 v 3.99976 h 3.999756 v -3.99976 z m 7.000089,0 v 3.99976 h 3.999756 v -3.99976 z m 20.999748,0 v 3.99976 h 3.99976 v -3.99976 z m 7.00009,0 v 3.99976 h 3.99976 v -3.99976 z m 13.99967,0 v 3.99976 h 4.00027 v -3.99976 z m 14.00017,0 v 3.99976 h 4.00028 v -3.99976 z m 14.00018,0 v 3.99976 h 3.99976 v -3.99976 z m 7.00009,0 v 3.99976 h 3.99976 v -3.99976 z m 27.99984,0 v 3.99976 h 3.99976 v -3.99976 z" /></g><path
       d="M 3.5000007,3.5000008 H 10.500001 V 10.500001 H 3.5000007 Z m 7.0000003,0 h 7 v 7.0000002 h -7 z m 7,0 h 6.999998 v 7.0000002 h -6.999998 z m 6.999998,0 h 7.000002 v 7.0000002 h -7.000002 z m 7.000002,0 h 6.999998 v 7.0000002 h -6.999998 z m 6.999998,0 h 7 v 7.0000002 h -7 z m 7,0 h 7.000002 v 7.0000002 h -7.000002 z m 112.000001,0 h 7 v 7.0000002 h -7 z m 7,0 h 7.00001 V 10.500001 H 164.5 Z m 7.00001,0 h 6.99998 v 7.0000002 h -6.99998 z m 6.99998,0 h 7 v 7.0000002 h -7 z m 7,0 H 192.5 v 7.0000002 h -7.00001 z m 7.00001,0 h 7 v 7.0000002 h -7 z m 7,0 h 7.00001 V 10.500001 H 199.5 Z M 3.5000007,10.500001 h 7.0000003 v 6.999998 H 3.5000007 Z m 41.9999983,0 h 7.000002 v 6.999998 h -7.000002 z m 112.000001,0 h 7 v 6.999998 h -7 z m 42,0 h 7.00001 v 6.999998 H 199.5 Z M 3.5000007,17.499999 h 7.0000003 v 7 H 3.5000007 Z m 14.0000003,0 h 6.999998 v 7 h -6.999998 z m 6.999998,0 h 7.000002 v 7 h -7.000002 z m 7.000002,0 h 6.999998 v 7 h -6.999998 z m 13.999998,0 h 7.000002 v 7 h -7.000002 z m 112.000001,0 h 7 v 7 h -7 z m 14.00001,0 h 6.99998 v 7 h -6.99998 z m 6.99998,0 h 7 v 7 h -7 z m 7,0 H 192.5 v 7 h -7.00001 z m 14.00001,0 h 7.00001 v 7 H 199.5 Z m -195.9999993,7 h 7.0000003 v 7.000002 H 3.5000007 Z m 14.0000003,0 h 6.999998 v 7.000002 h -6.999998 z m 6.999998,0 h 7.000002 v 7.000002 h -7.000002 z m 7.000002,0 h 6.999998 v 7.000002 h -6.999998 z m 13.999998,0 h 7.000002 v 7.000002 h -7.000002 z m 112.000001,0 h 7 v 7.000002 h -7 z m 14.00001,0 h 6.99998 v 7.000002 h -6.99998 z m 6.99998,0 h 7 v 7.000002 h -7 z m 7,0 H 192.5 v 7.000002 h -7.00001 z m 14.00001,0 h 7.00001 v 7.000002 H 199.5 Z M 3.5000007,31.500001 h 7.0000003 v 6.999998 H 3.5000007 Z m 14.0000003,0 h 6.999998 v 6.999998 h -6.999998 z m 6.999998,0 h 7.000002 v 6.999998 h -7.000002 z m 7.000002,0 h 6.999998 v 6.999998 h -6.999998 z m 13.999998,0 h 7.000002 v 6.999998 h -7.000002 z m 112.000001,0 h 7 v 6.999998 h -7 z m 14.00001,0 h 6.99998 v 6.999998 h -6.99998 z m 6.99998,0 h 7 v 6.999998 h -7 z m 7,0 H 192.5 v 6.999998 h -7.00001 z m 14.00001,0 h 7.00001 v 6.999998 H 199.5 Z M 3.5000007,38.499999 h 7.0000003 v 7 H 3.5000007 Z m 41.9999983,0 h 7.000002 v 7 h -7.000002 z m 112.000001,0 h 7 v 7 h -7 z m 42,0 h 7.00001 v 7 H 199.5 Z m -195.9999993,7 h 7.0000003 v 7.000002 H 3.5000007 Z m 7.0000003,0 h 7 v 7.000002 h -7 z m 7,0 h 6.999998 v 7.000002 h -6.999998 z m 6.999998,0 h 7.000002 v 7.000002 h -7.000002 z m 7.000002,0 h 6.999998 v 7.000002 h -6.999998 z m 6.999998,0 h 7 v 7.000002 h -7 z m 7,0 h 7.000002 v 7.000002 h -7.000002 z m 112.000001,0 h 7 v 7.000002 h -7 z m 7,0 h 7.00001 v 7.000002 H 164.5 Z m 7.00001,0 h 6.99998 v 7.000002 h -6.99998 z m 6.99998,0 h 7 v 7.000002 h -7 z m 7,0 H 192.5 v 7.000002 h -7.00001 z m 7.00001,0 h 7 v 7.000002 h -7 z m 7,0 h 7.00001 v 7.000002 H 199.5 Z M 3.5000007,157.5 h 7.0000003 v 7.00001 H 3.5000007 Z m 7.0000003,0 h 7 v 7.00001 h -7 z m 7,0 h 6.999998 v 7.00001 h -6.999998 z m 6.999998,0 h 7.000002 v 7.00001 h -7.000002 z m 7.000002,0 h 6.999998 v 7.00001 h -6.999998 z m 6.999998,0 h 7 v 7.00001 h -7 z m 7,0 h 7.000002 v 7.00001 h -7.000002 z m -41.9999983,7.00001 h 7.0000003 v 7 H 3.5000007 Z m 41.9999983,0 h 7.000002 v 7 h -7.000002 z m -41.9999983,7 h 7.0000003 v 6.99998 H 3.5000007 Z m 14.0000003,0 h 6.999998 v 6.99998 h -6.999998 z m 6.999998,0 h 7.000002 v 6.99998 h -7.000002 z m 7.000002,0 h 6.999998 v 6.99998 h -6.999998 z m 13.999998,0 h 7.000002 v 6.99998 H 45.499999 Z M 3.5000007,178.49999 H 10.500001 V 185.5 H 3.5000007 Z m 14.0000003,0 h 6.999998 V 185.5 h -6.999998 z m 6.999998,0 h 7.000002 V 185.5 h -7.000002 z m 7.000002,0 h 6.999998 V 185.5 h -6.999998 z m 13.999998,0 h 7.000002 V 185.5 H 45.499999 Z M 3.5000007,185.5 h 7.0000003 v 7 H 3.5000007 Z m 14.0000003,0 h 6.999998 v 7 h -6.999998 z m 6.999998,0 h 7.000002 v 7 h -7.000002 z m 7.000002,0 h 6.999998 v 7 h -6.999998 z m 13.999998,0 h 7.000002 v 7 h -7.000002 z m -41.9999983,7 h 7.0000003 v 7.00001 H 3.5000007 Z m 41.9999983,0 h 7.000002 v 7.00001 h -7.000002 z m -41.9999983,7.00001 h 7.0000003 v 6.99998 H 3.5000007 Z m 7.0000003,0 h 7 v 6.99998 h -7 z m 7,0 h 6.999998 v 6.99998 h -6.999998 z m 6.999998,0 h 7.000002 v 6.99998 h -7.000002 z m 7.000002,0 h 6.999998 v 6.99998 h -6.999998 z m 6.999998,0 h 7 v 6.99998 h -7 z m 7,0 h 7.000002 v 6.99998 h -7.000002 z"
       stroke="transparent"
       fill="#0c0c0d"
       id="path33"
       style="display:inline;stroke:none;stroke-width:1;stroke-opacity:1"
       sodipodi:nodetypes="ccccccccccccccccccccccccccccccccccccccccccccccccccccccccccccccccccccccccccccccccccccccccccccccccccccccccccccccccccccccccccccccccccccccccccccccccccccccccccccccccccccccccccccccccccccccccccccccccccccccccccccccccccccccccccccccccccccccccccccccccccccccccccccccccccccccccccccccccccccccccccccccccccccccccccccccccccccccccccccccccccccccccccccccccccccccccccccccccccccccccccccccccccccccccccccccccccccccccccccccccccccccccccccccccccccccccccccccccccccccccccccccccccccccccccccccccccccccccccccccccccccccccccccccc" /></g></svg>
