<?xml version='1.0' encoding='utf-8'?>
<mlt LC_NUMERIC="C" producer="main_bin" root="/home/schmilly/Documents_2025/RAHU" version="7.28.0">
 <profile colorspace="601" description="Custom Square (copy)" display_aspect_den="16" display_aspect_num="16" frame_rate_den="1" frame_rate_num="30" height="1920" progressive="1" sample_aspect_den="1" sample_aspect_num="1" width="1920"/>
 <chain id="chain5" out="00:02:01.200">
  <property name="length">00:02:01.267</property>
  <property name="eof">pause</property>
  <property name="resource">/home/schmilly/Downloads/Charli xcx - 365 featuring shygirl (official audio) 4.mp3</property>
  <property name="mlt_service">avformat</property>
  <property name="meta.media.nb_streams">2</property>
  <property name="meta.media.0.stream.type">audio</property>
  <property name="meta.media.0.codec.sample_fmt">fltp</property>
  <property name="meta.media.0.codec.sample_rate">48000</property>
  <property name="meta.media.0.codec.channels">2</property>
  <property name="meta.media.0.codec.layout">stereo</property>
  <property name="meta.media.0.codec.name">mp3float</property>
  <property name="meta.media.0.codec.long_name">MP3 (MPEG audio layer 3)</property>
  <property name="meta.media.0.codec.bit_rate">149868</property>
  <property name="meta.attr.0.stream.encoder.markup">Lavc58.13</property>
  <property name="meta.media.1.stream.type">video</property>
  <property name="meta.media.1.stream.frame_rate">90000</property>
  <property name="meta.media.1.stream.sample_aspect_ratio">0</property>
  <property name="meta.media.1.codec.width">1280</property>
  <property name="meta.media.1.codec.height">720</property>
  <property name="meta.media.1.codec.rotate">0</property>
  <property name="meta.media.1.codec.pix_fmt">rgb24</property>
  <property name="meta.media.1.codec.sample_aspect_ratio">0</property>
  <property name="meta.media.1.codec.colorspace">0</property>
  <property name="meta.media.1.codec.name">png</property>
  <property name="meta.media.1.codec.long_name">PNG (Portable Network Graphics) image</property>
  <property name="meta.media.1.codec.bit_rate">0</property>
  <property name="meta.attr.1.stream.title.markup">"Album cover"</property>
  <property name="meta.attr.1.stream.comment.markup">Cover (front)</property>
  <property name="meta.attr.comment.markup">https://www.youtube.com/watch?v=oslpP-s_w4E</property>
  <property name="meta.attr.title.markup">Charli xcx - 365 featuring shygirl (official audio)</property>
  <property name="meta.attr.artist.markup">Charli xcx</property>
  <property name="meta.attr.encoder.markup">Lavf58.76.100</property>
  <property name="meta.attr.description.markup">Charli xcx - 365 featuring shygirl
Stream: https://charlixcx.lnk.to/bratcompletelydifferentID

Order Brat and it's completely different but also still brat: https://charlixcx.lnk.to/StoreID

BRAT out now: https://charlixcx.lnk.to/BRATdlxID
Order BRAT: https://charlixcx.lnk.to/StoreID

Text 1-310-861-2831

https://charlixcx.com/
https://www.tiktok.com/@charlixcx 
https://www.instagram.com/charli_xcx
https://twitter.com/charli_xcx
https://www.youtube.com/@officialcharlixcx
https://facebook.com/charlixcxmusic

#Charlixcx #365 #shygirl #officialaudio</property>
  <property name="meta.attr.synopsis.markup">Charli xcx - 365 featuring shygirl
Stream: https://charlixcx.lnk.to/bratcompletelydifferentID

Order Brat and it's completely different but also still brat: https://charlixcx.lnk.to/StoreID

BRAT out now: https://charlixcx.lnk.to/BRATdlxID
Order BRAT: https://charlixcx.lnk.to/StoreID

Text 1-310-861-2831

https://charlixcx.com/
https://www.tiktok.com/@charlixcx 
https://www.instagram.com/charli_xcx
https://twitter.com/charli_xcx
https://www.youtube.com/@officialcharlixcx
https://facebook.com/charlixcxmusic

#Charlixcx #365 #shygirl #officialaudio</property>
  <property name="meta.attr.purl.markup">https://www.youtube.com/watch?v=oslpP-s_w4E</property>
  <property name="meta.attr.date.markup">2024</property>
  <property name="seekable">1</property>
  <property name="meta.media.sample_aspect_num">1</property>
  <property name="meta.media.sample_aspect_den">1</property>
  <property name="format">3</property>
  <property name="audio_index">0</property>
  <property name="video_index">-1</property>
  <property name="astream">0</property>
  <property name="vstream">-1</property>
  <property name="kdenlive:control_uuid">{fc83938c-acdd-4d2c-8e07-ac1856ce759c}</property>
  <property name="kdenlive:id">4</property>
  <property name="kdenlive:clip_type">1</property>
  <property name="kdenlive:file_size">2372722</property>
  <property name="kdenlive:file_hash">751c63c2f3174cc0ef044387f6bc73e8</property>
  <property name="kdenlive:folderid">-1</property>
  <property name="kdenlive:audio_max0">256</property>
 </chain>
 <chain id="chain8" out="00:00:39.533">
  <property name="length">00:00:39.600</property>
  <property name="eof">pause</property>
  <property name="resource">/home/schmilly/Downloads/Snapinsta.app_video_AQOQuqFCeDSXydP-CaryKzl5sOIpkmAUJLetswJaKp_pol64P4qjbZcu-xpRnpt34wN5SEljOGhs-3Zn11pszoo8c5rqdEfaRijXHnQ.mp4</property>
  <property name="mlt_service">avformat-novalidate</property>
  <property name="meta.media.nb_streams">2</property>
  <property name="meta.media.0.stream.type">video</property>
  <property name="meta.media.0.stream.frame_rate">30</property>
  <property name="meta.media.0.stream.sample_aspect_ratio">0</property>
  <property name="meta.media.0.codec.width">720</property>
  <property name="meta.media.0.codec.height">1280</property>
  <property name="meta.media.0.codec.rotate">0</property>
  <property name="meta.media.0.codec.pix_fmt">yuv420p</property>
  <property name="meta.media.0.codec.sample_aspect_ratio">0</property>
  <property name="meta.media.0.codec.colorspace">709</property>
  <property name="meta.media.0.codec.color_trc">1</property>
  <property name="meta.media.0.codec.name">h264</property>
  <property name="meta.media.0.codec.long_name">H.264 / AVC / MPEG-4 AVC / MPEG-4 part 10</property>
  <property name="meta.media.0.codec.bit_rate">2125767</property>
  <property name="meta.attr.0.stream.handler_name.markup">VideoHandler</property>
  <property name="meta.attr.0.stream.vendor_id.markup">[0][0][0][0]</property>
  <property name="meta.attr.0.stream.encoder.markup">AVC Coding</property>
  <property name="meta.media.1.stream.type">audio</property>
  <property name="meta.media.1.codec.sample_fmt">fltp</property>
  <property name="meta.media.1.codec.sample_rate">44100</property>
  <property name="meta.media.1.codec.channels">2</property>
  <property name="meta.media.1.codec.layout">stereo</property>
  <property name="meta.media.1.codec.name">aac</property>
  <property name="meta.media.1.codec.long_name">AAC (Advanced Audio Coding)</property>
  <property name="meta.media.1.codec.bit_rate">44600</property>
  <property name="meta.attr.1.stream.handler_name.markup">SoundHandler</property>
  <property name="meta.attr.1.stream.vendor_id.markup">[0][0][0][0]</property>
  <property name="meta.attr.major_brand.markup">isom</property>
  <property name="meta.attr.minor_version.markup">512</property>
  <property name="meta.attr.compatible_brands.markup">isomiso2avc1mp41</property>
  <property name="seekable">1</property>
  <property name="meta.media.sample_aspect_num">1</property>
  <property name="meta.media.sample_aspect_den">1</property>
  <property name="format">3</property>
  <property name="audio_index">1</property>
  <property name="video_index">0</property>
  <property name="vstream">0</property>
  <property name="meta.media.frame_rate_num">30</property>
  <property name="meta.media.frame_rate_den">1</property>
  <property name="meta.media.colorspace">709</property>
  <property name="meta.media.color_trc">1</property>
  <property name="meta.media.has_b_frames">2</property>
  <property name="meta.media.width">720</property>
  <property name="meta.media.height">1280</property>
  <property name="meta.media.aspect_ratio">1</property>
  <property name="meta.media.color_range">mpeg</property>
  <property name="astream">0</property>
  <property name="meta.media.top_field_first">0</property>
  <property name="meta.media.progressive">1</property>
  <property name="kdenlive:control_uuid">{50130ab3-3c43-47dd-a4bb-317e55c84979}</property>
  <property name="kdenlive:id">5</property>
  <property name="kdenlive:clip_type">0</property>
  <property name="kdenlive:file_size">10750471</property>
  <property name="kdenlive:file_hash">f3065b5585d4545bfb7622a181ec8704</property>
  <property name="kdenlive:folderid">-1</property>
  <property name="kdenlive:audio_max1">187</property>
  <property name="mute_on_pause">0</property>
 </chain>
 <chain id="chain6" out="00:01:52.400">
  <property name="length">00:01:52.467</property>
  <property name="eof">pause</property>
  <property name="resource">/home/schmilly/Downloads/Snapinsta.app_video_AQN_aOj9Z9cVqWd2t-0apPQvxI41SmquY7ZoMtebjN9RI7HXMyQo2keM-Nl1oGgvNj3KBQLqQlh5WMtY3aIhDyHPtSG5yoODnFEsYEQ.mp4</property>
  <property name="mlt_service">avformat-novalidate</property>
  <property name="meta.media.nb_streams">2</property>
  <property name="meta.media.0.stream.type">video</property>
  <property name="meta.media.0.stream.frame_rate">30</property>
  <property name="meta.media.0.stream.sample_aspect_ratio">0</property>
  <property name="meta.media.0.codec.width">720</property>
  <property name="meta.media.0.codec.height">1280</property>
  <property name="meta.media.0.codec.rotate">0</property>
  <property name="meta.media.0.codec.pix_fmt">yuv420p</property>
  <property name="meta.media.0.codec.sample_aspect_ratio">0</property>
  <property name="meta.media.0.codec.colorspace">709</property>
  <property name="meta.media.0.codec.color_trc">1</property>
  <property name="meta.media.0.codec.name">h264</property>
  <property name="meta.media.0.codec.long_name">H.264 / AVC / MPEG-4 AVC / MPEG-4 part 10</property>
  <property name="meta.media.0.codec.bit_rate">2533744</property>
  <property name="meta.attr.0.stream.handler_name.markup">VideoHandler</property>
  <property name="meta.attr.0.stream.vendor_id.markup">[0][0][0][0]</property>
  <property name="meta.attr.0.stream.encoder.markup">AVC Coding</property>
  <property name="meta.media.1.stream.type">audio</property>
  <property name="meta.media.1.codec.sample_fmt">fltp</property>
  <property name="meta.media.1.codec.sample_rate">44100</property>
  <property name="meta.media.1.codec.channels">2</property>
  <property name="meta.media.1.codec.layout">stereo</property>
  <property name="meta.media.1.codec.name">aac</property>
  <property name="meta.media.1.codec.long_name">AAC (Advanced Audio Coding)</property>
  <property name="meta.media.1.codec.bit_rate">87450</property>
  <property name="meta.attr.1.stream.handler_name.markup">SoundHandler</property>
  <property name="meta.attr.1.stream.vendor_id.markup">[0][0][0][0]</property>
  <property name="meta.attr.major_brand.markup">isom</property>
  <property name="meta.attr.minor_version.markup">512</property>
  <property name="meta.attr.compatible_brands.markup">isomiso2avc1mp41</property>
  <property name="seekable">1</property>
  <property name="meta.media.sample_aspect_num">1</property>
  <property name="meta.media.sample_aspect_den">1</property>
  <property name="format">3</property>
  <property name="audio_index">1</property>
  <property name="video_index">0</property>
  <property name="vstream">0</property>
  <property name="meta.media.frame_rate_num">30</property>
  <property name="meta.media.frame_rate_den">1</property>
  <property name="meta.media.colorspace">709</property>
  <property name="meta.media.color_trc">1</property>
  <property name="meta.media.has_b_frames">2</property>
  <property name="meta.media.width">720</property>
  <property name="meta.media.height">1280</property>
  <property name="meta.media.aspect_ratio">1</property>
  <property name="meta.media.color_range">mpeg</property>
  <property name="astream">0</property>
  <property name="meta.media.top_field_first">0</property>
  <property name="meta.media.progressive">1</property>
  <property name="kdenlive:control_uuid">{66d5305f-da2b-43fd-aeee-a8c8dbafe24c}</property>
  <property name="kdenlive:id">6</property>
  <property name="kdenlive:clip_type">0</property>
  <property name="kdenlive:file_size">36911800</property>
  <property name="kdenlive:file_hash">7a68e1a4742e1557c498eb58ca385485</property>
  <property name="kdenlive:folderid">-1</property>
  <property name="kdenlive:audio_max1">210</property>
  <property name="mute_on_pause">0</property>
 </chain>
 <chain id="chain7" out="00:04:11.067">
  <property name="length">00:04:11.133</property>
  <property name="eof">pause</property>
  <property name="resource">/home/schmilly/Downloads/Snapinsta.app_video_AQM1KdYbIIdOkdcbdaCILpkWffSeNNOs_VrNQ4_RhOGJQgHfDhw6LFQd_8h4s15np9TyXp34iYqgWxPugsPOpFXWVsLoLxGvWtgpyI8.mp4</property>
  <property name="mlt_service">avformat-novalidate</property>
  <property name="meta.media.nb_streams">2</property>
  <property name="meta.media.0.stream.type">video</property>
  <property name="meta.media.0.stream.frame_rate">30</property>
  <property name="meta.media.0.stream.sample_aspect_ratio">0</property>
  <property name="meta.media.0.codec.width">720</property>
  <property name="meta.media.0.codec.height">1280</property>
  <property name="meta.media.0.codec.rotate">0</property>
  <property name="meta.media.0.codec.pix_fmt">yuv420p</property>
  <property name="meta.media.0.codec.sample_aspect_ratio">0</property>
  <property name="meta.media.0.codec.colorspace">709</property>
  <property name="meta.media.0.codec.color_trc">1</property>
  <property name="meta.media.0.codec.name">h264</property>
  <property name="meta.media.0.codec.long_name">H.264 / AVC / MPEG-4 AVC / MPEG-4 part 10</property>
  <property name="meta.media.0.codec.bit_rate">952853</property>
  <property name="meta.attr.0.stream.handler_name.markup">VideoHandler</property>
  <property name="meta.attr.0.stream.vendor_id.markup">[0][0][0][0]</property>
  <property name="meta.attr.0.stream.encoder.markup">AVC Coding</property>
  <property name="meta.media.1.stream.type">audio</property>
  <property name="meta.media.1.codec.sample_fmt">fltp</property>
  <property name="meta.media.1.codec.sample_rate">44100</property>
  <property name="meta.media.1.codec.channels">2</property>
  <property name="meta.media.1.codec.layout">stereo</property>
  <property name="meta.media.1.codec.name">aac</property>
  <property name="meta.media.1.codec.long_name">AAC (Advanced Audio Coding)</property>
  <property name="meta.media.1.codec.bit_rate">51707</property>
  <property name="meta.attr.1.stream.handler_name.markup">SoundHandler</property>
  <property name="meta.attr.1.stream.vendor_id.markup">[0][0][0][0]</property>
  <property name="meta.attr.major_brand.markup">isom</property>
  <property name="meta.attr.minor_version.markup">512</property>
  <property name="meta.attr.compatible_brands.markup">isomiso2avc1mp41</property>
  <property name="seekable">1</property>
  <property name="meta.media.sample_aspect_num">1</property>
  <property name="meta.media.sample_aspect_den">1</property>
  <property name="format">3</property>
  <property name="audio_index">1</property>
  <property name="video_index">0</property>
  <property name="vstream">0</property>
  <property name="meta.media.frame_rate_num">30</property>
  <property name="meta.media.frame_rate_den">1</property>
  <property name="meta.media.colorspace">709</property>
  <property name="meta.media.color_trc">1</property>
  <property name="meta.media.has_b_frames">2</property>
  <property name="meta.media.width">720</property>
  <property name="meta.media.height">1280</property>
  <property name="meta.media.aspect_ratio">1</property>
  <property name="meta.media.color_range">mpeg</property>
  <property name="astream">0</property>
  <property name="meta.media.top_field_first">0</property>
  <property name="meta.media.progressive">1</property>
  <property name="kdenlive:control_uuid">{b9fbdda5-2175-4a29-8540-1dd4f6b8d4cc}</property>
  <property name="kdenlive:id">7</property>
  <property name="kdenlive:clip_type">0</property>
  <property name="kdenlive:file_size">31730153</property>
  <property name="kdenlive:file_hash">041d5f1ab147ebc4d42a25feffa032eb</property>
  <property name="kdenlive:folderid">-1</property>
  <property name="kdenlive:audio_max1">227</property>
  <property name="mute_on_pause">0</property>
 </chain>
 <chain id="chain11" out="00:00:11.000">
  <property name="length">00:00:11.067</property>
  <property name="eof">pause</property>
  <property name="resource">/home/schmilly/Downloads/Snapinsta.app_video_AQOOsAVmPv3qtzSJ44Z-cmU6PK2_7l4ar1HYQkLJ85NdbwWHzHSUAWU9W001DMl1SSfFQzODfS1jghRk9ZVTVdySVALBZBBN4jfZo64-69-76.mp4</property>
  <property name="mlt_service">avformat-novalidate</property>
  <property name="meta.media.nb_streams">2</property>
  <property name="meta.media.0.stream.type">video</property>
  <property name="meta.media.0.stream.frame_rate">30</property>
  <property name="meta.media.0.stream.sample_aspect_ratio">0</property>
  <property name="meta.media.0.codec.width">720</property>
  <property name="meta.media.0.codec.height">1280</property>
  <property name="meta.media.0.codec.rotate">0</property>
  <property name="meta.media.0.codec.pix_fmt">yuv420p</property>
  <property name="meta.media.0.codec.sample_aspect_ratio">0</property>
  <property name="meta.media.0.codec.colorspace">709</property>
  <property name="meta.media.0.codec.color_trc">1</property>
  <property name="meta.media.0.codec.name">h264</property>
  <property name="meta.media.0.codec.long_name">H.264 / AVC / MPEG-4 AVC / MPEG-4 part 10</property>
  <property name="meta.media.0.codec.bit_rate">719840</property>
  <property name="meta.attr.0.stream.handler_name.markup">VideoHandler</property>
  <property name="meta.attr.0.stream.vendor_id.markup">[0][0][0][0]</property>
  <property name="meta.attr.0.stream.encoder.markup">AVC Coding</property>
  <property name="meta.media.1.stream.type">audio</property>
  <property name="meta.media.1.codec.sample_fmt">fltp</property>
  <property name="meta.media.1.codec.sample_rate">44100</property>
  <property name="meta.media.1.codec.channels">2</property>
  <property name="meta.media.1.codec.layout">stereo</property>
  <property name="meta.media.1.codec.name">aac</property>
  <property name="meta.media.1.codec.long_name">AAC (Advanced Audio Coding)</property>
  <property name="meta.media.1.codec.bit_rate">51196</property>
  <property name="meta.attr.1.stream.handler_name.markup">SoundHandler</property>
  <property name="meta.attr.1.stream.vendor_id.markup">[0][0][0][0]</property>
  <property name="meta.attr.major_brand.markup">isom</property>
  <property name="meta.attr.minor_version.markup">512</property>
  <property name="meta.attr.compatible_brands.markup">isomiso2avc1mp41</property>
  <property name="meta.attr.encoder.markup">Lavf61.7.100</property>
  <property name="seekable">1</property>
  <property name="meta.media.sample_aspect_num">1</property>
  <property name="meta.media.sample_aspect_den">1</property>
  <property name="format">3</property>
  <property name="audio_index">1</property>
  <property name="video_index">0</property>
  <property name="vstream">0</property>
  <property name="meta.media.frame_rate_num">30</property>
  <property name="meta.media.frame_rate_den">1</property>
  <property name="meta.media.colorspace">709</property>
  <property name="meta.media.color_trc">1</property>
  <property name="meta.media.has_b_frames">2</property>
  <property name="meta.media.width">720</property>
  <property name="meta.media.height">1280</property>
  <property name="meta.media.aspect_ratio">1</property>
  <property name="meta.media.color_range">mpeg</property>
  <property name="astream">0</property>
  <property name="meta.media.top_field_first">0</property>
  <property name="meta.media.progressive">1</property>
  <property name="kdenlive:control_uuid">{701ca0c4-388b-46b0-b06a-3d84463b3ac9}</property>
  <property name="kdenlive:id">9</property>
  <property name="kdenlive:clip_type">0</property>
  <property name="kdenlive:file_size">1059174</property>
  <property name="kdenlive:file_hash">3b669e6708b1f7bfc81fdf47e1691c50</property>
  <property name="kdenlive:folderid">-1</property>
  <property name="kdenlive:audio_max1">200</property>
  <property name="mute_on_pause">0</property>
 </chain>
 <chain id="chain14" out="00:00:07.400">
  <property name="length">00:00:07.467</property>
  <property name="eof">pause</property>
  <property name="resource">/home/schmilly/Downloads/Snapinsta.app_video_AQOOsAVmPv3qtzSJ44Z-cmU6PK2_7l4ar1HYQkLJ85NdbwWHzHSUAWU9W001DMl1SSfFQzODfS1jghRk9ZVTVdySVALBZBBN4jfZo64-32-37.mp4</property>
  <property name="mlt_service">avformat-novalidate</property>
  <property name="meta.media.nb_streams">2</property>
  <property name="meta.media.0.stream.type">video</property>
  <property name="meta.media.0.stream.frame_rate">30</property>
  <property name="meta.media.0.stream.sample_aspect_ratio">0</property>
  <property name="meta.media.0.codec.width">720</property>
  <property name="meta.media.0.codec.height">1280</property>
  <property name="meta.media.0.codec.rotate">0</property>
  <property name="meta.media.0.codec.pix_fmt">yuv420p</property>
  <property name="meta.media.0.codec.sample_aspect_ratio">0</property>
  <property name="meta.media.0.codec.colorspace">709</property>
  <property name="meta.media.0.codec.color_trc">1</property>
  <property name="meta.media.0.codec.name">h264</property>
  <property name="meta.media.0.codec.long_name">H.264 / AVC / MPEG-4 AVC / MPEG-4 part 10</property>
  <property name="meta.media.0.codec.bit_rate">1560379</property>
  <property name="meta.attr.0.stream.handler_name.markup">VideoHandler</property>
  <property name="meta.attr.0.stream.vendor_id.markup">[0][0][0][0]</property>
  <property name="meta.attr.0.stream.encoder.markup">AVC Coding</property>
  <property name="meta.media.1.stream.type">audio</property>
  <property name="meta.media.1.codec.sample_fmt">fltp</property>
  <property name="meta.media.1.codec.sample_rate">44100</property>
  <property name="meta.media.1.codec.channels">2</property>
  <property name="meta.media.1.codec.layout">stereo</property>
  <property name="meta.media.1.codec.name">aac</property>
  <property name="meta.media.1.codec.long_name">AAC (Advanced Audio Coding)</property>
  <property name="meta.media.1.codec.bit_rate">62226</property>
  <property name="meta.attr.1.stream.handler_name.markup">SoundHandler</property>
  <property name="meta.attr.1.stream.vendor_id.markup">[0][0][0][0]</property>
  <property name="meta.attr.major_brand.markup">isom</property>
  <property name="meta.attr.minor_version.markup">512</property>
  <property name="meta.attr.compatible_brands.markup">isomiso2avc1mp41</property>
  <property name="meta.attr.encoder.markup">Lavf61.7.100</property>
  <property name="seekable">1</property>
  <property name="meta.media.sample_aspect_num">1</property>
  <property name="meta.media.sample_aspect_den">1</property>
  <property name="format">3</property>
  <property name="audio_index">1</property>
  <property name="video_index">0</property>
  <property name="vstream">0</property>
  <property name="meta.media.frame_rate_num">30</property>
  <property name="meta.media.frame_rate_den">1</property>
  <property name="meta.media.colorspace">709</property>
  <property name="meta.media.color_trc">1</property>
  <property name="meta.media.has_b_frames">2</property>
  <property name="meta.media.width">720</property>
  <property name="meta.media.height">1280</property>
  <property name="meta.media.aspect_ratio">1</property>
  <property name="meta.media.color_range">mpeg</property>
  <property name="astream">0</property>
  <property name="meta.media.top_field_first">0</property>
  <property name="meta.media.progressive">1</property>
  <property name="kdenlive:control_uuid">{12ff8af7-50eb-4343-a8e3-08ef535c7116}</property>
  <property name="kdenlive:id">10</property>
  <property name="kdenlive:clip_type">0</property>
  <property name="kdenlive:file_size">1501777</property>
  <property name="kdenlive:file_hash">4a489f75a3ff287ea80e9bbacead7772</property>
  <property name="kdenlive:folderid">-1</property>
  <property name="kdenlive:audio_max1">210</property>
  <property name="mute_on_pause">0</property>
 </chain>
 <chain id="chain15" out="00:00:16.800">
  <property name="length">00:00:16.867</property>
  <property name="eof">pause</property>
  <property name="resource">/home/schmilly/Downloads/Rental affordability in Australia the worst it's ever been, report says _ ABC News 720-41-54.mp4</property>
  <property name="mlt_service">avformat-novalidate</property>
  <property name="meta.media.nb_streams">3</property>
  <property name="meta.media.0.stream.type">video</property>
  <property name="meta.media.0.stream.frame_rate">25</property>
  <property name="meta.media.0.stream.sample_aspect_ratio">1</property>
  <property name="meta.media.0.codec.width">1280</property>
  <property name="meta.media.0.codec.height">720</property>
  <property name="meta.media.0.codec.rotate">0</property>
  <property name="meta.media.0.codec.pix_fmt">yuv420p</property>
  <property name="meta.media.0.codec.sample_aspect_ratio">1</property>
  <property name="meta.media.0.codec.colorspace">709</property>
  <property name="meta.media.0.codec.color_trc">1</property>
  <property name="meta.media.0.codec.name">h264</property>
  <property name="meta.media.0.codec.long_name">H.264 / AVC / MPEG-4 AVC / MPEG-4 part 10</property>
  <property name="meta.media.0.codec.bit_rate">439489</property>
  <property name="meta.attr.0.stream.handler_name.markup">ISO Media file produced by Google Inc.</property>
  <property name="meta.attr.0.stream.vendor_id.markup">[0][0][0][0]</property>
  <property name="meta.media.1.stream.type">audio</property>
  <property name="meta.media.1.codec.sample_fmt">fltp</property>
  <property name="meta.media.1.codec.sample_rate">44100</property>
  <property name="meta.media.1.codec.channels">2</property>
  <property name="meta.media.1.codec.layout">stereo</property>
  <property name="meta.media.1.codec.name">aac</property>
  <property name="meta.media.1.codec.long_name">AAC (Advanced Audio Coding)</property>
  <property name="meta.media.1.codec.bit_rate">128050</property>
  <property name="meta.attr.1.stream.language.markup">eng</property>
  <property name="meta.attr.1.stream.handler_name.markup">ISO Media file produced by Google Inc.</property>
  <property name="meta.attr.1.stream.vendor_id.markup">[0][0][0][0]</property>
  <property name="meta.media.2.stream.type">video</property>
  <property name="meta.media.2.stream.frame_rate">90000</property>
  <property name="meta.media.2.stream.sample_aspect_ratio">0</property>
  <property name="meta.media.2.codec.width">1280</property>
  <property name="meta.media.2.codec.height">720</property>
  <property name="meta.media.2.codec.rotate">0</property>
  <property name="meta.media.2.codec.pix_fmt">rgb24</property>
  <property name="meta.media.2.codec.sample_aspect_ratio">0</property>
  <property name="meta.media.2.codec.colorspace">0</property>
  <property name="meta.media.2.codec.name">png</property>
  <property name="meta.media.2.codec.long_name">PNG (Portable Network Graphics) image</property>
  <property name="meta.media.2.codec.bit_rate">0</property>
  <property name="meta.attr.major_brand.markup">isom</property>
  <property name="meta.attr.minor_version.markup">512</property>
  <property name="meta.attr.compatible_brands.markup">isomiso2avc1mp41</property>
  <property name="meta.attr.title.markup">Rental affordability in Australia the worst it's ever been, report says | ABC News</property>
  <property name="meta.attr.artist.markup">ABC News (Australia)</property>
  <property name="meta.attr.date.markup">20240423</property>
  <property name="meta.attr.encoder.markup">Lavf61.7.100</property>
  <property name="meta.attr.comment.markup">https://www.youtube.com/watch?v=hliaf_8My40</property>
  <property name="meta.attr.description.markup">There is not a single property across Australia – or even a room in a shared house – that's affordable for someone on youth allowance, according to a new report from support organisation Anglicare Australia.

Subscribe: http://ab.co/1svxLVE
Read more here: https://www.abc.net.au/news/2024-04-23/anglicare-australia-rental-affordability-report/103754274

ABC News provides around the clock coverage of news events as they break in Australia and abroad. It's news when you want it, from Australia's most trusted news organisation.

For more from ABC News, click here: https://ab.co/2kxYCZY
Watch more ABC News content ad-free on ABC iview: https://ab.co/2OB7Mk1

Go deeper on our ABC News In-depth channel: https://ab.co/2lNeBn2
Like ABC News on Facebook: http://facebook.com/abcnews.au
Follow ABC News on Instagram: http://instagram.com/abcnews_au
Follow ABC News on Twitter: http://twitter.com/abcnews

Note: In most cases, our captions are auto-generated.

#ABCNews #ABCNewsAustralia #housing #housingcrisis #rentalproperty</property>
  <property name="meta.attr.synopsis.markup">There is not a single property across Australia – or even a room in a shared house – that's affordable for someone on youth allowance, according to a new report from support organisation Anglicare Australia.

Subscribe: http://ab.co/1svxLVE
Read more here: https://www.abc.net.au/news/2024-04-23/anglicare-australia-rental-affordability-report/103754274

ABC News provides around the clock coverage of news events as they break in Australia and abroad. It's news when you want it, from Australia's most trusted news organisation.

For more from ABC News, click here: https://ab.co/2kxYCZY
Watch more ABC News content ad-free on ABC iview: https://ab.co/2OB7Mk1

Go deeper on our ABC News In-depth channel: https://ab.co/2lNeBn2
Like ABC News on Facebook: http://facebook.com/abcnews.au
Follow ABC News on Instagram: http://instagram.com/abcnews_au
Follow ABC News on Twitter: http://twitter.com/abcnews

Note: In most cases, our captions are auto-generated.

#ABCNews #ABCNewsAustralia #housing #housingcrisis #rentalproperty</property>
  <property name="seekable">1</property>
  <property name="meta.media.sample_aspect_num">1</property>
  <property name="meta.media.sample_aspect_den">1</property>
  <property name="format">3</property>
  <property name="audio_index">1</property>
  <property name="video_index">0</property>
  <property name="vstream">0</property>
  <property name="meta.media.frame_rate_num">25</property>
  <property name="meta.media.frame_rate_den">1</property>
  <property name="meta.media.colorspace">709</property>
  <property name="meta.media.color_trc">1</property>
  <property name="meta.media.has_b_frames">1</property>
  <property name="meta.media.width">1280</property>
  <property name="meta.media.height">720</property>
  <property name="meta.media.aspect_ratio">1</property>
  <property name="meta.media.color_range">mpeg</property>
  <property name="astream">0</property>
  <property name="meta.media.top_field_first">0</property>
  <property name="meta.media.progressive">1</property>
  <property name="kdenlive:control_uuid">{21c05f38-c3ec-47ca-991d-ac2f245e4397}</property>
  <property name="kdenlive:id">11</property>
  <property name="kdenlive:clip_type">0</property>
  <property name="kdenlive:file_size">1719171</property>
  <property name="kdenlive:file_hash">e764b442ca7692714b313c3afb46915b</property>
  <property name="kdenlive:folderid">-1</property>
  <property name="kdenlive:audio_max1">166</property>
  <property name="mute_on_pause">0</property>
 </chain>
 <producer id="producer40" in="00:00:00.000" out="00:00:04.967">
  <property name="length">00:00:05.000</property>
  <property name="eof">pause</property>
  <property name="resource">#fffe4f4f</property>
  <property name="aspect_ratio">1</property>
  <property name="mlt_service">color</property>
  <property name="kdenlive:clipname">Color Clip</property>
  <property name="kdenlive:duration">00:00:05.000</property>
  <property name="xml">was here</property>
  <property name="seekable">1</property>
  <property name="kdenlive:folderid">-1</property>
  <property name="kdenlive:id">12</property>
  <property name="kdenlive:control_uuid">{77d863ed-823c-4bf0-9a3a-07299ec41e0e}</property>
  <property name="mlt_image_format">rgb</property>
  <property name="kdenlive:clip_type">2</property>
  <property name="kdenlive:file_hash">26774a2d5085e7ca27dc11bd714819e5</property>
  <property name="kdenlive:monitorPosition">7</property>
  <property name="kdenlive:clipzones">[
    {
        "in": 0,
        "name": "Zone 1",
        "out": 28
    }
]
</property>
 </producer>
 <producer id="producer1" in="00:00:00.000" out="00:00:04.967">
  <property name="length">00:00:05.000</property>
  <property name="eof">pause</property>
  <property name="resource">0xff0000ff</property>
  <property name="aspect_ratio">1</property>
  <property name="mlt_service">color</property>
  <property name="kdenlive:clipname">Color Clip</property>
  <property name="kdenlive:duration">00:00:05.000</property>
  <property name="xml">was here</property>
  <property name="seekable">1</property>
  <property name="kdenlive:folderid">-1</property>
  <property name="kdenlive:id">14</property>
  <property name="kdenlive:control_uuid">{e46ec023-bf5c-4fb9-8bf9-385786c0ddce}</property>
  <property name="mlt_image_format">rgb</property>
  <property name="kdenlive:clip_type">2</property>
  <property name="kdenlive:file_hash">a4ff63d46e5193b5ac9b230b6a0d11a0</property>
  <property name="kdenlive:monitorPosition">0</property>
 </producer>
 <producer id="producer3" in="00:00:00.000" out="00:00:04.967">
  <property name="length">00:00:05.000</property>
  <property name="eof">pause</property>
  <property name="resource">0xffffffff</property>
  <property name="aspect_ratio">1</property>
  <property name="mlt_service">color</property>
  <property name="kdenlive:clipname">Color Clip</property>
  <property name="kdenlive:duration">00:00:05.000</property>
  <property name="xml">was here</property>
  <property name="seekable">1</property>
  <property name="kdenlive:folderid">-1</property>
  <property name="kdenlive:id">15</property>
  <property name="kdenlive:control_uuid">{d861e319-3d12-40f6-b94d-9b5e75d8bc95}</property>
  <property name="mlt_image_format">rgb</property>
  <property name="kdenlive:clip_type">2</property>
  <property name="kdenlive:file_hash">039b56a692cd66eefeea44a17539e5a2</property>
  <property name="kdenlive:monitorPosition">75</property>
 </producer>
 <producer id="producer2" in="00:00:00.000" out="00:00:04.967">
  <property name="length">00:00:05.000</property>
  <property name="eof">pause</property>
  <property name="resource">0x000000ff</property>
  <property name="aspect_ratio">1</property>
  <property name="mlt_service">color</property>
  <property name="kdenlive:clipname">Color Clip</property>
  <property name="kdenlive:duration">00:00:05.000</property>
  <property name="xml">was here</property>
  <property name="seekable">1</property>
  <property name="kdenlive:folderid">-1</property>
  <property name="kdenlive:id">16</property>
  <property name="kdenlive:control_uuid">{489701e8-492a-4982-aaa3-b0b6368e75d6}</property>
  <property name="mlt_image_format">rgb</property>
  <property name="kdenlive:clip_type">2</property>
  <property name="kdenlive:file_hash">9196813120dc5c505072516b15baf414</property>
  <property name="kdenlive:monitorPosition">1</property>
 </producer>
 <producer id="producer9" in="00:00:00.000" out="00:00:02.467">
  <property name="length">75</property>
  <property name="eof">pause</property>
  <property name="resource"/>
  <property name="meta.media.progressive">1</property>
  <property name="aspect_ratio">1</property>
  <property name="seekable">1</property>
  <property name="mlt_service">kdenlivetitle</property>
  <property name="kdenlive:duration">00:00:02.500</property>
  <property name="kdenlive:clipname">RENTER'S AND...</property>
  <property name="xmldata">&lt;kdenlivetitle LC_NUMERIC="C" duration="75" height="1920" out="74" width="1920">
 &lt;item type="QGraphicsTextItem" z-index="0">
  &lt;position x="259" y="619">
   &lt;transform>1,0,0,0,1,0,0,0,1&lt;/transform>
  &lt;/position>
  &lt;content alignment="1" box-height="681" box-width="1401.5" font="Noto Sans" font-color="0,0,0,255" font-italic="0" font-pixel-size="500" font-underline="0" font-weight="400" letter-spacing="0" line-spacing="0" shadow="0;#64000000;3;3;3" tab-width="80" typewriter="0;2;1;0;0">TIRED&lt;/content>
 &lt;/item>
 &lt;startviewport rect="0,0,1920,1920"/>
 &lt;endviewport rect="0,0,1920,1920"/>
 &lt;background color="0,0,0,0"/>
&lt;/kdenlivetitle>
</property>
  <property name="xml">was here</property>
  <property name="kdenlive:folderid">28</property>
  <property name="kdenlive:id">17</property>
  <property name="kdenlive:control_uuid">{a2f797ef-598d-4582-aa58-3671346dfe88}</property>
  <property name="kdenlive:clip_type">2</property>
  <property name="kdenlive:uniqueId">{3142276d-08f0-47b6-86d9-a440c35d9cc5}</property>
  <property name="kdenlive:file_hash">a8cc7d31ea0ff3671d0f31bdd0090e7d</property>
  <property name="force_reload">0</property>
  <property name="kdenlive:monitorPosition">11</property>
  <property name="meta.media.width">1920</property>
  <property name="meta.media.height">1920</property>
 </producer>
 <producer id="producer10" in="00:00:00.000" out="00:00:02.467">
  <property name="length">75</property>
  <property name="eof">pause</property>
  <property name="resource"/>
  <property name="meta.media.progressive">1</property>
  <property name="aspect_ratio">1</property>
  <property name="seekable">1</property>
  <property name="mlt_service">kdenlivetitle</property>
  <property name="kdenlive:duration">00:00:02.500</property>
  <property name="kdenlive:clipname">FIGHTING BAC...</property>
  <property name="xmldata">&lt;kdenlivetitle LC_NUMERIC="C" duration="75" height="1920" out="74" width="1920">
 &lt;item type="QGraphicsTextItem" z-index="0">
  &lt;position x="211" y="687">
   &lt;transform>1,0,0,0,1,0,0,0,1&lt;/transform>
  &lt;/position>
  &lt;content alignment="1" box-height="545" box-width="1497.95" font="Noto Sans" font-color="255,255,255,255" font-italic="0" font-outline="0" font-outline-color="0,0,0,255" font-pixel-size="400" font-underline="0" font-weight="400" letter-spacing="0" line-spacing="0" shadow="0;#64000000;3;3;3" tab-width="80" typewriter="0;2;1;0;0">OF THIS&lt;/content>
 &lt;/item>
 &lt;startviewport rect="0,0,1920,1920"/>
 &lt;endviewport rect="0,0,1920,1920"/>
 &lt;background color="0,0,0,0"/>
&lt;/kdenlivetitle>
</property>
  <property name="xml">was here</property>
  <property name="kdenlive:folderid">28</property>
  <property name="kdenlive:id">18</property>
  <property name="kdenlive:control_uuid">{2a5c677a-8518-4db3-849f-951d58b42e50}</property>
  <property name="kdenlive:clip_type">2</property>
  <property name="kdenlive:uniqueId">{51503e38-623b-4564-b4dc-1f3953267192}</property>
  <property name="kdenlive:file_hash">1d4cf6ad8694924b4277375a2fb16d6a</property>
  <property name="force_reload">0</property>
  <property name="kdenlive:monitorPosition">42</property>
  <property name="meta.media.width">1920</property>
  <property name="meta.media.height">1920</property>
 </producer>
 <producer id="producer39" in="00:00:00.000" out="00:00:04.933">
  <property name="length">00:00:05.000</property>
  <property name="eof">pause</property>
  <property name="resource"/>
  <property name="meta.media.progressive">1</property>
  <property name="aspect_ratio">1</property>
  <property name="seekable">1</property>
  <property name="mlt_service">kdenlivetitle</property>
  <property name="kdenlive:duration">00:00:05:00</property>
  <property name="kdenlive:clipname">In 30 Second...</property>
  <property name="xmldata">&lt;kdenlivetitle LC_NUMERIC="C" duration="75" height="1920" out="74" width="1920">
 &lt;item type="QGraphicsTextItem" z-index="0">
  &lt;position x="627" y="1452">
   &lt;transform>1,0,0,0,1,0,0,0,1&lt;/transform>
  &lt;/position>
  &lt;content alignment="0" box-height="74" box-width="352.547" font="Noto Sans" font-color="255,255,255,255" font-italic="0" font-outline="0" font-outline-color="0,0,0,255" font-pixel-size="54" font-underline="0" font-weight="400" letter-spacing="0" shadow="0;#64000000;3;3;3" tab-width="80" typewriter="0;2;1;0;0">In 30 Seconds&lt;/content>
 &lt;/item>
 &lt;startviewport rect="0,0,1920,1920"/>
 &lt;endviewport rect="0,0,1920,1920"/>
 &lt;background color="0,0,0,0"/>
&lt;/kdenlivetitle>
</property>
  <property name="xml">was here</property>
  <property name="kdenlive:folderid">28</property>
  <property name="kdenlive:id">19</property>
  <property name="kdenlive:control_uuid">{5db37e38-e0e2-4177-8af1-e8dcf9c10eee}</property>
  <property name="kdenlive:clip_type">2</property>
  <property name="kdenlive:uniqueId">{2a1bb40c-9fea-4870-8fca-553c0f0d9856}</property>
  <property name="kdenlive:file_hash">146c6afbf9259ebfe1b8b22042ac335a</property>
  <property name="force_reload">0</property>
  <property name="kdenlive:monitorPosition">20</property>
 </producer>
 <chain id="chain18" out="00:00:13.733">
  <property name="length">00:00:13.800</property>
  <property name="eof">pause</property>
  <property name="resource">/home/schmilly/Downloads/Rent affordability in South Australia has plummeted to its lowest level on record _ 7 News Australia 720-0-13.mp4</property>
  <property name="mlt_service">avformat-novalidate</property>
  <property name="meta.media.nb_streams">3</property>
  <property name="meta.media.0.stream.type">video</property>
  <property name="meta.media.0.stream.frame_rate">25</property>
  <property name="meta.media.0.stream.sample_aspect_ratio">1</property>
  <property name="meta.media.0.codec.width">1280</property>
  <property name="meta.media.0.codec.height">720</property>
  <property name="meta.media.0.codec.rotate">0</property>
  <property name="meta.media.0.codec.pix_fmt">yuv420p</property>
  <property name="meta.media.0.codec.sample_aspect_ratio">1</property>
  <property name="meta.media.0.codec.colorspace">709</property>
  <property name="meta.media.0.codec.color_trc">1</property>
  <property name="meta.media.0.codec.name">h264</property>
  <property name="meta.media.0.codec.long_name">H.264 / AVC / MPEG-4 AVC / MPEG-4 part 10</property>
  <property name="meta.media.0.codec.bit_rate">1136783</property>
  <property name="meta.attr.0.stream.handler_name.markup">ISO Media file produced by Google Inc.</property>
  <property name="meta.attr.0.stream.vendor_id.markup">[0][0][0][0]</property>
  <property name="meta.media.1.stream.type">audio</property>
  <property name="meta.media.1.codec.sample_fmt">fltp</property>
  <property name="meta.media.1.codec.sample_rate">44100</property>
  <property name="meta.media.1.codec.channels">2</property>
  <property name="meta.media.1.codec.layout">stereo</property>
  <property name="meta.media.1.codec.name">aac</property>
  <property name="meta.media.1.codec.long_name">AAC (Advanced Audio Coding)</property>
  <property name="meta.media.1.codec.bit_rate">128117</property>
  <property name="meta.attr.1.stream.handler_name.markup">ISO Media file produced by Google Inc.</property>
  <property name="meta.attr.1.stream.vendor_id.markup">[0][0][0][0]</property>
  <property name="meta.media.2.stream.type">video</property>
  <property name="meta.media.2.stream.frame_rate">90000</property>
  <property name="meta.media.2.stream.sample_aspect_ratio">0</property>
  <property name="meta.media.2.codec.width">1280</property>
  <property name="meta.media.2.codec.height">720</property>
  <property name="meta.media.2.codec.rotate">0</property>
  <property name="meta.media.2.codec.pix_fmt">rgb24</property>
  <property name="meta.media.2.codec.sample_aspect_ratio">0</property>
  <property name="meta.media.2.codec.colorspace">0</property>
  <property name="meta.media.2.codec.name">png</property>
  <property name="meta.media.2.codec.long_name">PNG (Portable Network Graphics) image</property>
  <property name="meta.media.2.codec.bit_rate">0</property>
  <property name="meta.attr.major_brand.markup">isom</property>
  <property name="meta.attr.minor_version.markup">512</property>
  <property name="meta.attr.compatible_brands.markup">isomiso2avc1mp41</property>
  <property name="meta.attr.title.markup">Rent affordability in South Australia has plummeted to its lowest level on record | 7 News Australia</property>
  <property name="meta.attr.artist.markup">7NEWS Australia</property>
  <property name="meta.attr.date.markup">20240309</property>
  <property name="meta.attr.encoder.markup">Lavf61.7.100</property>
  <property name="meta.attr.comment.markup">https://www.youtube.com/watch?v=mdLjT8tPbFE</property>
  <property name="meta.attr.description.markup">If you are struggling to afford a rental, here is why - affordability in South Australia has plummeted to its lowest level on record.

A new report has found most advertised properties are out of reach for a family with an average income.

Subscribe and set 🔔 » https://7news.link/YTSubscribe | 



For the latest Australian news and breaking news alerts, connect with 7NEWS online:
Visit » https://7news.com.au
7NEWS Podcast » http://smarturl.it/7NewsDaily
Facebook » https://www.facebook.com/7NewsAustralia
Twitter » https://twitter.com/7NewsAustralia
Instagram » https://www.instagram.com/7newsaustralia/ 

7NEWS combines the trusted and powerful news brands including Sunrise, The Morning Show, The Latest, and 7NEWS.com.au, delivering unique, engaging and continuous coverage on the issues that matter most to Australians. Watch 7 News Australia full broadcasts and full episodes nightly at 6pm and weekdays at 11:30am and 4pm on Channel 7 and 7plus.

#BREAKINGNEWS #7NEWS</property>
  <property name="meta.attr.synopsis.markup">If you are struggling to afford a rental, here is why - affordability in South Australia has plummeted to its lowest level on record.

A new report has found most advertised properties are out of reach for a family with an average income.

Subscribe and set 🔔 » https://7news.link/YTSubscribe | 



For the latest Australian news and breaking news alerts, connect with 7NEWS online:
Visit » https://7news.com.au
7NEWS Podcast » http://smarturl.it/7NewsDaily
Facebook » https://www.facebook.com/7NewsAustralia
Twitter » https://twitter.com/7NewsAustralia
Instagram » https://www.instagram.com/7newsaustralia/ 

7NEWS combines the trusted and powerful news brands including Sunrise, The Morning Show, The Latest, and 7NEWS.com.au, delivering unique, engaging and continuous coverage on the issues that matter most to Australians. Watch 7 News Australia full broadcasts and full episodes nightly at 6pm and weekdays at 11:30am and 4pm on Channel 7 and 7plus.

#BREAKINGNEWS #7NEWS</property>
  <property name="seekable">1</property>
  <property name="meta.media.sample_aspect_num">1</property>
  <property name="meta.media.sample_aspect_den">1</property>
  <property name="format">3</property>
  <property name="audio_index">1</property>
  <property name="video_index">0</property>
  <property name="vstream">0</property>
  <property name="meta.media.frame_rate_num">25</property>
  <property name="meta.media.frame_rate_den">1</property>
  <property name="meta.media.colorspace">709</property>
  <property name="meta.media.color_trc">1</property>
  <property name="meta.media.has_b_frames">1</property>
  <property name="meta.media.width">1280</property>
  <property name="meta.media.height">720</property>
  <property name="meta.media.aspect_ratio">1</property>
  <property name="meta.media.color_range">mpeg</property>
  <property name="astream">0</property>
  <property name="meta.media.top_field_first">0</property>
  <property name="meta.media.progressive">1</property>
  <property name="kdenlive:control_uuid">{f9d019d9-a9e1-44ad-a835-fb73d943a12f}</property>
  <property name="kdenlive:id">20</property>
  <property name="kdenlive:clip_type">0</property>
  <property name="kdenlive:file_size">3740050</property>
  <property name="kdenlive:file_hash">ea5ca8d7adcac2ccf8e0f9a257045a6a</property>
  <property name="kdenlive:folderid">-1</property>
  <property name="kdenlive:audio_max1">159</property>
  <property name="mute_on_pause">0</property>
  <property name="kdenlive:monitorPosition">0</property>
 </chain>
 <producer id="producer5" in="00:00:00.000" out="00:00:04.967">
  <property name="length">00:00:05.000</property>
  <property name="eof">pause</property>
  <property name="resource"/>
  <property name="meta.media.progressive">1</property>
  <property name="aspect_ratio">1</property>
  <property name="seekable">1</property>
  <property name="mlt_service">kdenlivetitle</property>
  <property name="kdenlive:duration">00:00:05:00</property>
  <property name="kdenlive:clipname">SHIT?</property>
  <property name="xmldata">&lt;kdenlivetitle LC_NUMERIC="C" duration="75" height="1920" out="74" width="1920">
 &lt;item type="QGraphicsTextItem" z-index="0">
  &lt;position x="696" y="823">
   &lt;transform>1,0,0,0,1,0,0,0,1&lt;/transform>
  &lt;/position>
  &lt;content alignment="0" box-height="273" box-width="527.766" font="Noto Sans" font-color="255,255,255,255" font-italic="0" font-pixel-size="200" font-underline="0" font-weight="400" letter-spacing="0" shadow="0;#64000000;3;3;3" tab-width="80" typewriter="0;2;1;0;0">SHIT?&lt;/content>
 &lt;/item>
 &lt;startviewport rect="0,0,1920,1920"/>
 &lt;endviewport rect="0,0,1920,1920"/>
 &lt;background color="0,0,0,0"/>
&lt;/kdenlivetitle>
</property>
  <property name="xml">was here</property>
  <property name="kdenlive:folderid">28</property>
  <property name="kdenlive:id">21</property>
  <property name="kdenlive:control_uuid">{ba3345fd-f651-4cb3-b61d-cbe19236f717}</property>
  <property name="kdenlive:clip_type">2</property>
  <property name="kdenlive:uniqueId">{32a3a95e-0215-46bf-956f-ee409ae2ed30}</property>
  <property name="kdenlive:file_hash">6bea4b3e5167352ea73aa35befaad241</property>
  <property name="force_reload">0</property>
  <property name="kdenlive:monitorPosition">43</property>
  <property name="meta.media.width">1920</property>
  <property name="meta.media.height">1920</property>
 </producer>
 <chain id="chain21" out="00:00:22.467">
  <property name="length">00:00:22.533</property>
  <property name="eof">pause</property>
  <property name="resource">/home/schmilly/Downloads/Rental affordability worst on record, report finds _ ABC NEWS 720-39-58.mp4</property>
  <property name="mlt_service">avformat-novalidate</property>
  <property name="meta.media.nb_streams">3</property>
  <property name="meta.media.0.stream.type">video</property>
  <property name="meta.media.0.stream.frame_rate">25</property>
  <property name="meta.media.0.stream.sample_aspect_ratio">1</property>
  <property name="meta.media.0.codec.width">1280</property>
  <property name="meta.media.0.codec.height">720</property>
  <property name="meta.media.0.codec.rotate">0</property>
  <property name="meta.media.0.codec.pix_fmt">yuv420p</property>
  <property name="meta.media.0.codec.sample_aspect_ratio">1</property>
  <property name="meta.media.0.codec.colorspace">709</property>
  <property name="meta.media.0.codec.color_trc">1</property>
  <property name="meta.media.0.codec.name">h264</property>
  <property name="meta.media.0.codec.long_name">H.264 / AVC / MPEG-4 AVC / MPEG-4 part 10</property>
  <property name="meta.media.0.codec.bit_rate">532101</property>
  <property name="meta.attr.0.stream.handler_name.markup">ISO Media file produced by Google Inc.</property>
  <property name="meta.attr.0.stream.vendor_id.markup">[0][0][0][0]</property>
  <property name="meta.media.1.stream.type">audio</property>
  <property name="meta.media.1.codec.sample_fmt">fltp</property>
  <property name="meta.media.1.codec.sample_rate">44100</property>
  <property name="meta.media.1.codec.channels">2</property>
  <property name="meta.media.1.codec.layout">stereo</property>
  <property name="meta.media.1.codec.name">aac</property>
  <property name="meta.media.1.codec.long_name">AAC (Advanced Audio Coding)</property>
  <property name="meta.media.1.codec.bit_rate">128075</property>
  <property name="meta.attr.1.stream.language.markup">eng</property>
  <property name="meta.attr.1.stream.handler_name.markup">ISO Media file produced by Google Inc.</property>
  <property name="meta.attr.1.stream.vendor_id.markup">[0][0][0][0]</property>
  <property name="meta.media.2.stream.type">video</property>
  <property name="meta.media.2.stream.frame_rate">90000</property>
  <property name="meta.media.2.stream.sample_aspect_ratio">0</property>
  <property name="meta.media.2.codec.width">1280</property>
  <property name="meta.media.2.codec.height">720</property>
  <property name="meta.media.2.codec.rotate">0</property>
  <property name="meta.media.2.codec.pix_fmt">rgb24</property>
  <property name="meta.media.2.codec.sample_aspect_ratio">0</property>
  <property name="meta.media.2.codec.colorspace">0</property>
  <property name="meta.media.2.codec.name">png</property>
  <property name="meta.media.2.codec.long_name">PNG (Portable Network Graphics) image</property>
  <property name="meta.media.2.codec.bit_rate">0</property>
  <property name="meta.attr.major_brand.markup">isom</property>
  <property name="meta.attr.minor_version.markup">512</property>
  <property name="meta.attr.compatible_brands.markup">isomiso2avc1mp41</property>
  <property name="meta.attr.title.markup">Rental affordability worst on record, report finds | ABC NEWS</property>
  <property name="meta.attr.artist.markup">ABC News (Australia)</property>
  <property name="meta.attr.date.markup">20241122</property>
  <property name="meta.attr.encoder.markup">Lavf61.7.100</property>
  <property name="meta.attr.comment.markup">https://www.youtube.com/watch?v=MPyysf9uJmo</property>
  <property name="meta.attr.description.markup">New data shows that rental affordability has plummeted to new lows across nearly every Australian city and region.
There's now nowhere within budget for single people on JobSeeker benefits, part-time workers on a parenting payment, or those on a pension.

Subscribe: http://ab.co/1svxLVE
Read more here: https://www.abc.net.au/news/2024-11-22/rent-prices-rise-most-unaffordable-in-perth-sydney/104628492

ABC News provides around the clock coverage of news events as they break in Australia and abroad. It's news when you want it, from Australia's most trusted news organisation.

For more from ABC News, click here: https://ab.co/2kxYCZY
Watch more ABC News content ad-free on ABC iview: https://ab.co/2OB7Mk1

Go deeper on our ABC News In-depth channel: https://ab.co/2lNeBn2
Like ABC News on Facebook: http://facebook.com/abcnews.au
Follow ABC News on Instagram: http://instagram.com/abcnews_au
Follow ABC News on X (Twitter): http://twitter.com/abcnews

Note: In most cases, our captions are auto-generated.

#ABCNews #ABCNewsAustralia</property>
  <property name="meta.attr.synopsis.markup">New data shows that rental affordability has plummeted to new lows across nearly every Australian city and region.
There's now nowhere within budget for single people on JobSeeker benefits, part-time workers on a parenting payment, or those on a pension.

Subscribe: http://ab.co/1svxLVE
Read more here: https://www.abc.net.au/news/2024-11-22/rent-prices-rise-most-unaffordable-in-perth-sydney/104628492

ABC News provides around the clock coverage of news events as they break in Australia and abroad. It's news when you want it, from Australia's most trusted news organisation.

For more from ABC News, click here: https://ab.co/2kxYCZY
Watch more ABC News content ad-free on ABC iview: https://ab.co/2OB7Mk1

Go deeper on our ABC News In-depth channel: https://ab.co/2lNeBn2
Like ABC News on Facebook: http://facebook.com/abcnews.au
Follow ABC News on Instagram: http://instagram.com/abcnews_au
Follow ABC News on X (Twitter): http://twitter.com/abcnews

Note: In most cases, our captions are auto-generated.

#ABCNews #ABCNewsAustralia</property>
  <property name="seekable">1</property>
  <property name="meta.media.sample_aspect_num">1</property>
  <property name="meta.media.sample_aspect_den">1</property>
  <property name="format">3</property>
  <property name="audio_index">1</property>
  <property name="video_index">0</property>
  <property name="vstream">0</property>
  <property name="meta.media.frame_rate_num">25</property>
  <property name="meta.media.frame_rate_den">1</property>
  <property name="meta.media.colorspace">709</property>
  <property name="meta.media.color_trc">1</property>
  <property name="meta.media.has_b_frames">1</property>
  <property name="meta.media.width">1280</property>
  <property name="meta.media.height">720</property>
  <property name="meta.media.aspect_ratio">1</property>
  <property name="meta.media.color_range">mpeg</property>
  <property name="astream">0</property>
  <property name="meta.media.top_field_first">0</property>
  <property name="meta.media.progressive">1</property>
  <property name="kdenlive:control_uuid">{e56cc4a7-20aa-482a-b3d8-96f7ed271aa2}</property>
  <property name="kdenlive:id">26</property>
  <property name="kdenlive:clip_type">0</property>
  <property name="kdenlive:file_size">2816689</property>
  <property name="kdenlive:file_hash">97c7326183cba7113925a8d21c75805e</property>
  <property name="kdenlive:folderid">-1</property>
  <property name="kdenlive:audio_max1">156</property>
  <property name="mute_on_pause">0</property>
 </chain>
 <producer id="producer23" in="00:00:00.000" out="00:00:04.967">
  <property name="length">00:00:05.000</property>
  <property name="eof">pause</property>
  <property name="resource">/home/schmilly/Downloads/Screenshot_20241001-182348~2.png</property>
  <property name="ttl">25</property>
  <property name="aspect_ratio">1</property>
  <property name="meta.media.progressive">1</property>
  <property name="seekable">1</property>
  <property name="format">1</property>
  <property name="meta.media.width">1080</property>
  <property name="meta.media.height">1080</property>
  <property name="mlt_service">qimage</property>
  <property name="kdenlive:duration">00:00:05.000</property>
  <property name="xml">was here</property>
  <property name="kdenlive:folderid">-1</property>
  <property name="kdenlive:id">29</property>
  <property name="kdenlive:control_uuid">{58f7e7c3-7b28-4320-a9eb-a59f443837cf}</property>
  <property name="kdenlive:clip_type">2</property>
  <property name="kdenlive:file_size">321786</property>
  <property name="kdenlive:file_hash">e864231b76b3b1d0d24e082e7be29bd5</property>
  <property name="kdenlive:monitorPosition">2</property>
 </producer>
 <producer id="producer41" in="00:00:00.000" out="00:00:04.967">
  <property name="length">00:00:05.000</property>
  <property name="eof">pause</property>
  <property name="resource">/home/schmilly/Downloads/Snapinsta.app_456494723_496612502996469_2691609556679356890_n_1080.jpg</property>
  <property name="ttl">25</property>
  <property name="aspect_ratio">1</property>
  <property name="meta.media.progressive">1</property>
  <property name="seekable">1</property>
  <property name="format">1</property>
  <property name="meta.media.width">1080</property>
  <property name="meta.media.height">1080</property>
  <property name="mlt_service">qimage</property>
  <property name="kdenlive:duration">00:00:05.000</property>
  <property name="xml">was here</property>
  <property name="kdenlive:folderid">-1</property>
  <property name="kdenlive:id">30</property>
  <property name="kdenlive:control_uuid">{b776a6d6-fd5a-48e6-b5fc-de5b1b1ce234}</property>
  <property name="kdenlive:clip_type">2</property>
  <property name="kdenlive:file_size">204089</property>
  <property name="kdenlive:file_hash">42ee2e4ca03e31c6a6805bdae3cb36d5</property>
  <property name="kdenlive:monitorPosition">21</property>
 </producer>
 <producer id="producer26" in="00:00:00.000" out="00:00:04.967">
  <property name="length">00:00:05.000</property>
  <property name="eof">pause</property>
  <property name="resource">/home/schmilly/Downloads/Snapinsta.app_470067524_1316023856067336_1608945085667597025_n_1080.jpg</property>
  <property name="ttl">25</property>
  <property name="aspect_ratio">1</property>
  <property name="meta.media.progressive">1</property>
  <property name="seekable">1</property>
  <property name="format">1</property>
  <property name="meta.media.width">1080</property>
  <property name="meta.media.height">1080</property>
  <property name="mlt_service">qimage</property>
  <property name="kdenlive:duration">00:00:05.000</property>
  <property name="xml">was here</property>
  <property name="kdenlive:folderid">-1</property>
  <property name="kdenlive:id">31</property>
  <property name="kdenlive:control_uuid">{813fe96f-ec7c-4323-bc41-f562cb6cea8f}</property>
  <property name="kdenlive:clip_type">2</property>
  <property name="kdenlive:file_size">192144</property>
  <property name="kdenlive:file_hash">0e8370847b61ed215e55023646e761dd</property>
  <property name="kdenlive:monitorPosition">7</property>
 </producer>
 <producer id="producer24" in="00:00:00.000" out="00:00:04.967">
  <property name="length">00:00:05.000</property>
  <property name="eof">pause</property>
  <property name="resource">/home/schmilly/Downloads/Snapinsta.app_461573170_1715652165642848_1180978336970931846_n_1080.jpg</property>
  <property name="ttl">25</property>
  <property name="aspect_ratio">1</property>
  <property name="meta.media.progressive">1</property>
  <property name="seekable">1</property>
  <property name="format">1</property>
  <property name="meta.media.width">1080</property>
  <property name="meta.media.height">1080</property>
  <property name="mlt_service">qimage</property>
  <property name="kdenlive:duration">00:00:05.000</property>
  <property name="xml">was here</property>
  <property name="kdenlive:folderid">-1</property>
  <property name="kdenlive:id">32</property>
  <property name="kdenlive:control_uuid">{3326ffda-4c64-45fb-8643-a1236e2e7e7f}</property>
  <property name="kdenlive:clip_type">2</property>
  <property name="kdenlive:file_size">117349</property>
  <property name="kdenlive:file_hash">ab15bea8d6e4e55cf826f9f976a16cc9</property>
  <property name="kdenlive:monitorPosition">0</property>
 </producer>
 <producer id="producer25" in="00:00:00.000" out="00:00:04.967">
  <property name="length">00:00:05.000</property>
  <property name="eof">pause</property>
  <property name="resource">/home/schmilly/Downloads/Snapinsta.app_461583144_545207397865714_3213175239902384297_n_1080.jpg</property>
  <property name="ttl">25</property>
  <property name="aspect_ratio">1</property>
  <property name="meta.media.progressive">1</property>
  <property name="seekable">1</property>
  <property name="format">1</property>
  <property name="meta.media.width">1080</property>
  <property name="meta.media.height">1080</property>
  <property name="mlt_service">qimage</property>
  <property name="kdenlive:duration">00:00:05.000</property>
  <property name="xml">was here</property>
  <property name="kdenlive:folderid">-1</property>
  <property name="kdenlive:id">33</property>
  <property name="kdenlive:control_uuid">{2a8bca03-e920-4853-a0d8-b6ba4594e7e3}</property>
  <property name="kdenlive:clip_type">2</property>
  <property name="kdenlive:file_size">120535</property>
  <property name="kdenlive:file_hash">040143bc4c04cfeecc8bf2e9e1684691</property>
  <property name="kdenlive:monitorPosition">21</property>
 </producer>
 <producer id="producer16" in="00:00:00.000" out="00:00:04.967">
  <property name="length">00:00:05.000</property>
  <property name="eof">pause</property>
  <property name="resource">/home/schmilly/Downloads/Snapinsta.app_468702793_560566690191334_4641456314431050045_n_1080.jpg</property>
  <property name="ttl">25</property>
  <property name="aspect_ratio">1</property>
  <property name="meta.media.progressive">1</property>
  <property name="seekable">1</property>
  <property name="format">1</property>
  <property name="meta.media.width">1080</property>
  <property name="meta.media.height">1350</property>
  <property name="mlt_service">qimage</property>
  <property name="kdenlive:duration">00:00:05.000</property>
  <property name="xml">was here</property>
  <property name="kdenlive:folderid">-1</property>
  <property name="kdenlive:id">34</property>
  <property name="kdenlive:control_uuid">{b313b7f6-ed1d-45b9-8b04-7165744930e0}</property>
  <property name="kdenlive:clip_type">2</property>
  <property name="kdenlive:file_size">125071</property>
  <property name="kdenlive:file_hash">92b274e083d8930507f93ca11a1411e5</property>
  <property name="kdenlive:monitorPosition">0</property>
 </producer>
 <producer id="producer27" in="00:00:00.000" out="00:00:04.967">
  <property name="length">00:00:05.000</property>
  <property name="eof">pause</property>
  <property name="resource">/home/schmilly/Downloads/Snapinsta.app_468025041_1099387628254287_7865682395850471301_n_1080.jpg</property>
  <property name="ttl">25</property>
  <property name="aspect_ratio">1</property>
  <property name="meta.media.progressive">1</property>
  <property name="seekable">1</property>
  <property name="format">1</property>
  <property name="meta.media.width">1080</property>
  <property name="meta.media.height">1080</property>
  <property name="mlt_service">qimage</property>
  <property name="kdenlive:duration">00:00:05.000</property>
  <property name="xml">was here</property>
  <property name="kdenlive:folderid">-1</property>
  <property name="kdenlive:id">35</property>
  <property name="kdenlive:control_uuid">{3819fcd7-0b7f-4377-bb1d-0eba5043287a}</property>
  <property name="kdenlive:clip_type">2</property>
  <property name="kdenlive:file_size">229503</property>
  <property name="kdenlive:file_hash">2adaae78659abe61dc635aa958ff4b69</property>
  <property name="kdenlive:monitorPosition">52</property>
 </producer>
 <chain id="chain22" out="00:00:01.000">
  <property name="length">00:00:01.067</property>
  <property name="eof">pause</property>
  <property name="resource">/home/schmilly/Downloads/Snapinsta.app_video_AQOOsAVmPv3qtzSJ44Z-cmU6PK2_7l4ar1HYQkLJ85NdbwWHzHSUAWU9W001DMl1SSfFQzODfS1jghRk9ZVTVdySVALBZBBN4jfZo64-32-37-0-1.mp4</property>
  <property name="mlt_service">avformat-novalidate</property>
  <property name="meta.media.nb_streams">2</property>
  <property name="meta.media.0.stream.type">video</property>
  <property name="meta.media.0.stream.frame_rate">30</property>
  <property name="meta.media.0.stream.sample_aspect_ratio">0</property>
  <property name="meta.media.0.codec.width">720</property>
  <property name="meta.media.0.codec.height">1280</property>
  <property name="meta.media.0.codec.rotate">0</property>
  <property name="meta.media.0.codec.pix_fmt">yuv420p</property>
  <property name="meta.media.0.codec.sample_aspect_ratio">0</property>
  <property name="meta.media.0.codec.colorspace">709</property>
  <property name="meta.media.0.codec.color_trc">1</property>
  <property name="meta.media.0.codec.name">h264</property>
  <property name="meta.media.0.codec.long_name">H.264 / AVC / MPEG-4 AVC / MPEG-4 part 10</property>
  <property name="meta.media.0.codec.bit_rate">2296195</property>
  <property name="meta.attr.0.stream.handler_name.markup">VideoHandler</property>
  <property name="meta.attr.0.stream.vendor_id.markup">[0][0][0][0]</property>
  <property name="meta.attr.0.stream.encoder.markup">AVC Coding</property>
  <property name="meta.media.1.stream.type">audio</property>
  <property name="meta.media.1.codec.sample_fmt">fltp</property>
  <property name="meta.media.1.codec.sample_rate">44100</property>
  <property name="meta.media.1.codec.channels">2</property>
  <property name="meta.media.1.codec.layout">stereo</property>
  <property name="meta.media.1.codec.name">aac</property>
  <property name="meta.media.1.codec.long_name">AAC (Advanced Audio Coding)</property>
  <property name="meta.media.1.codec.bit_rate">52836</property>
  <property name="meta.attr.1.stream.handler_name.markup">SoundHandler</property>
  <property name="meta.attr.1.stream.vendor_id.markup">[0][0][0][0]</property>
  <property name="meta.attr.major_brand.markup">isom</property>
  <property name="meta.attr.minor_version.markup">512</property>
  <property name="meta.attr.compatible_brands.markup">isomiso2avc1mp41</property>
  <property name="meta.attr.encoder.markup">Lavf61.7.100</property>
  <property name="seekable">1</property>
  <property name="meta.media.sample_aspect_num">1</property>
  <property name="meta.media.sample_aspect_den">1</property>
  <property name="format">3</property>
  <property name="audio_index">1</property>
  <property name="video_index">0</property>
  <property name="vstream">0</property>
  <property name="meta.media.frame_rate_num">30</property>
  <property name="meta.media.frame_rate_den">1</property>
  <property name="meta.media.colorspace">709</property>
  <property name="meta.media.color_trc">1</property>
  <property name="meta.media.has_b_frames">2</property>
  <property name="meta.media.width">720</property>
  <property name="meta.media.height">1280</property>
  <property name="meta.media.aspect_ratio">1</property>
  <property name="meta.media.color_range">mpeg</property>
  <property name="astream">0</property>
  <property name="meta.media.top_field_first">0</property>
  <property name="meta.media.progressive">1</property>
  <property name="kdenlive:control_uuid">{2f1ea70a-1784-4d79-8e27-3fafd74bbf84}</property>
  <property name="kdenlive:id">36</property>
  <property name="kdenlive:clip_type">0</property>
  <property name="kdenlive:file_size">286123</property>
  <property name="kdenlive:file_hash">6aef024ea922700b51c4a2bfc552b954</property>
  <property name="kdenlive:folderid">-1</property>
  <property name="kdenlive:audio_max1">200</property>
  <property name="mute_on_pause">0</property>
 </chain>
 <producer id="producer28" in="00:00:00.000" out="00:00:04.967">
  <property name="length">00:00:05.000</property>
  <property name="eof">pause</property>
  <property name="resource">/home/schmilly/Downloads/Snapinsta.app_470163924_2126412721109702_5512725023144920969_n_1080.jpg</property>
  <property name="ttl">25</property>
  <property name="aspect_ratio">1</property>
  <property name="meta.media.progressive">1</property>
  <property name="seekable">1</property>
  <property name="format">1</property>
  <property name="meta.media.width">1080</property>
  <property name="meta.media.height">1080</property>
  <property name="mlt_service">qimage</property>
  <property name="kdenlive:duration">00:00:05.000</property>
  <property name="xml">was here</property>
  <property name="kdenlive:folderid">-1</property>
  <property name="kdenlive:id">37</property>
  <property name="kdenlive:control_uuid">{1ef325ab-6276-498d-a2d8-937d2865b126}</property>
  <property name="kdenlive:clip_type">2</property>
  <property name="kdenlive:file_size">200995</property>
  <property name="kdenlive:file_hash">c22aa85dadafb48c60bf9eadb7042d95</property>
  <property name="kdenlive:monitorPosition">0</property>
 </producer>
 <producer id="producer29" in="00:00:00.000" out="00:00:04.967">
  <property name="length">00:00:05.000</property>
  <property name="eof">pause</property>
  <property name="resource">/home/schmilly/Downloads/Snapinsta.app_469742772_570472398944787_3003785144220172043_n_1080.jpg</property>
  <property name="ttl">25</property>
  <property name="aspect_ratio">1</property>
  <property name="meta.media.progressive">1</property>
  <property name="seekable">1</property>
  <property name="format">1</property>
  <property name="meta.media.width">1080</property>
  <property name="meta.media.height">1080</property>
  <property name="mlt_service">qimage</property>
  <property name="kdenlive:duration">00:00:05.000</property>
  <property name="xml">was here</property>
  <property name="kdenlive:folderid">-1</property>
  <property name="kdenlive:id">38</property>
  <property name="kdenlive:control_uuid">{49e27686-6c48-4c54-adf3-9f86debcdf4c}</property>
  <property name="kdenlive:clip_type">2</property>
  <property name="kdenlive:file_size">139474</property>
  <property name="kdenlive:file_hash">007701ab6aa63d4cdb4632e0a09e8fa9</property>
  <property name="kdenlive:monitorPosition">0</property>
 </producer>
 <producer id="producer30" in="00:00:00.000" out="00:00:04.967">
  <property name="length">00:00:05.000</property>
  <property name="eof">pause</property>
  <property name="resource">/home/schmilly/Downloads/Snapinsta.app_470464070_937205301245053_7507354438842690616_n_1080.jpg</property>
  <property name="ttl">25</property>
  <property name="aspect_ratio">1</property>
  <property name="meta.media.progressive">1</property>
  <property name="seekable">1</property>
  <property name="format">1</property>
  <property name="meta.media.width">1080</property>
  <property name="meta.media.height">1080</property>
  <property name="mlt_service">qimage</property>
  <property name="kdenlive:duration">00:00:05.000</property>
  <property name="xml">was here</property>
  <property name="kdenlive:folderid">-1</property>
  <property name="kdenlive:id">39</property>
  <property name="kdenlive:control_uuid">{ef57b604-4f30-41ff-8d21-81782d426d80}</property>
  <property name="kdenlive:clip_type">2</property>
  <property name="kdenlive:file_size">151210</property>
  <property name="kdenlive:file_hash">bcfca740d7bf7ad7b122a24305959b1d</property>
  <property name="kdenlive:monitorPosition">0</property>
 </producer>
 <producer id="producer31" in="00:00:00.000" out="00:00:04.967">
  <property name="length">00:00:05.000</property>
  <property name="eof">pause</property>
  <property name="resource">/home/schmilly/Downloads/Snapinsta.app_470479062_1280264443288243_5504433760000019641_n_1080.jpg</property>
  <property name="ttl">25</property>
  <property name="aspect_ratio">1</property>
  <property name="meta.media.progressive">1</property>
  <property name="seekable">1</property>
  <property name="format">1</property>
  <property name="meta.media.width">1080</property>
  <property name="meta.media.height">1080</property>
  <property name="mlt_service">qimage</property>
  <property name="kdenlive:duration">00:00:05.000</property>
  <property name="xml">was here</property>
  <property name="kdenlive:folderid">-1</property>
  <property name="kdenlive:id">40</property>
  <property name="kdenlive:control_uuid">{408d0189-ce0e-48e5-8f11-857e25151e16}</property>
  <property name="kdenlive:clip_type">2</property>
  <property name="kdenlive:file_size">213381</property>
  <property name="kdenlive:file_hash">98909e01a43100cab27ea1b475b5a961</property>
  <property name="kdenlive:monitorPosition">0</property>
 </producer>
 <producer id="producer32" in="00:00:00.000" out="00:00:04.967">
  <property name="length">00:00:05.000</property>
  <property name="eof">pause</property>
  <property name="resource">/home/schmilly/Downloads/Snapinsta.app_469746591_3828263740766531_7654721079622070642_n_1080.jpg</property>
  <property name="ttl">25</property>
  <property name="aspect_ratio">1</property>
  <property name="meta.media.progressive">1</property>
  <property name="seekable">1</property>
  <property name="format">1</property>
  <property name="meta.media.width">1080</property>
  <property name="meta.media.height">1080</property>
  <property name="mlt_service">qimage</property>
  <property name="kdenlive:duration">00:00:05.000</property>
  <property name="xml">was here</property>
  <property name="kdenlive:folderid">-1</property>
  <property name="kdenlive:id">41</property>
  <property name="kdenlive:control_uuid">{c7c16487-0808-4b50-a895-7966cda2edd7}</property>
  <property name="kdenlive:clip_type">2</property>
  <property name="kdenlive:file_size">181530</property>
  <property name="kdenlive:file_hash">dc94b20ca1528d8938cf206fc3edd29f</property>
  <property name="kdenlive:monitorPosition">0</property>
 </producer>
 <producer id="producer33" in="00:00:00.000" out="00:00:04.967">
  <property name="length">00:00:05.000</property>
  <property name="eof">pause</property>
  <property name="resource">/home/schmilly/Downloads/Snapinsta.app_470315680_1268609151136446_5782404880212699606_n_1080.jpg</property>
  <property name="ttl">25</property>
  <property name="aspect_ratio">1</property>
  <property name="meta.media.progressive">1</property>
  <property name="seekable">1</property>
  <property name="format">1</property>
  <property name="meta.media.width">1080</property>
  <property name="meta.media.height">1080</property>
  <property name="mlt_service">qimage</property>
  <property name="kdenlive:duration">00:00:05.000</property>
  <property name="xml">was here</property>
  <property name="kdenlive:folderid">-1</property>
  <property name="kdenlive:id">42</property>
  <property name="kdenlive:control_uuid">{4d688508-6024-4972-a969-a84e74879002}</property>
  <property name="kdenlive:clip_type">2</property>
  <property name="kdenlive:file_size">168000</property>
  <property name="kdenlive:file_hash">559dd0a52cc490154a090225b1ea8b0f</property>
  <property name="kdenlive:monitorPosition">4</property>
 </producer>
 <producer id="producer35" in="00:00:00.000" out="00:00:04.967">
  <property name="length">00:00:05.000</property>
  <property name="eof">pause</property>
  <property name="resource">/home/schmilly/Downloads/Snapinsta.app_454157776_834280235347200_5759690416752190834_n_1080.jpg</property>
  <property name="ttl">25</property>
  <property name="aspect_ratio">1</property>
  <property name="meta.media.progressive">1</property>
  <property name="seekable">1</property>
  <property name="format">1</property>
  <property name="meta.media.width">1080</property>
  <property name="meta.media.height">1080</property>
  <property name="mlt_service">qimage</property>
  <property name="kdenlive:duration">00:00:05:00</property>
  <property name="xml">was here</property>
  <property name="kdenlive:folderid">-1</property>
  <property name="kdenlive:id">43</property>
  <property name="kdenlive:control_uuid">{a80d5226-f1e0-4fd5-9700-ffa7faed154f}</property>
  <property name="kdenlive:clip_type">2</property>
  <property name="kdenlive:file_size">177423</property>
  <property name="kdenlive:file_hash">50f47a7195d0894b106565f38efd1dfd</property>
  <property name="kdenlive:monitorPosition">0</property>
 </producer>
 <producer id="producer36" in="00:00:00.000" out="00:00:04.967">
  <property name="length">00:00:05.000</property>
  <property name="eof">pause</property>
  <property name="resource">/home/schmilly/Downloads/Snapinsta.app_448333058_1551960232369184_3878803498318241938_n_1080.jpg</property>
  <property name="ttl">25</property>
  <property name="aspect_ratio">1</property>
  <property name="meta.media.progressive">1</property>
  <property name="seekable">1</property>
  <property name="format">1</property>
  <property name="meta.media.width">1080</property>
  <property name="meta.media.height">1080</property>
  <property name="mlt_service">qimage</property>
  <property name="kdenlive:duration">00:00:05:00</property>
  <property name="xml">was here</property>
  <property name="kdenlive:folderid">-1</property>
  <property name="kdenlive:id">44</property>
  <property name="kdenlive:control_uuid">{075a1781-1a0d-4092-9143-75673f7c42b2}</property>
  <property name="kdenlive:clip_type">2</property>
  <property name="kdenlive:file_size">173318</property>
  <property name="kdenlive:file_hash">823f2d13d6ce7274308f2f395d852368</property>
  <property name="kdenlive:monitorPosition">0</property>
 </producer>
 <producer id="producer37" in="00:00:00.000" out="00:00:04.967">
  <property name="length">00:00:05.000</property>
  <property name="eof">pause</property>
  <property name="resource">/home/schmilly/Downloads/Snapinsta.app_470029354_574649332172105_8467726095459173084_n_1080.jpg</property>
  <property name="ttl">25</property>
  <property name="aspect_ratio">1</property>
  <property name="meta.media.progressive">1</property>
  <property name="seekable">1</property>
  <property name="format">1</property>
  <property name="meta.media.width">1080</property>
  <property name="meta.media.height">810</property>
  <property name="mlt_service">qimage</property>
  <property name="kdenlive:duration">00:00:05:00</property>
  <property name="xml">was here</property>
  <property name="kdenlive:folderid">-1</property>
  <property name="kdenlive:id">45</property>
  <property name="kdenlive:control_uuid">{e3a4e86d-1392-4e3d-bd46-696028a650c2}</property>
  <property name="kdenlive:clip_type">2</property>
  <property name="kdenlive:file_size">128296</property>
  <property name="kdenlive:file_hash">d8ebb46c37df5810c389cc149cc70ff8</property>
  <property name="kdenlive:monitorPosition">0</property>
 </producer>
 <producer id="producer45" in="00:00:00.000" out="00:00:04.967">
  <property name="length">00:00:05.000</property>
  <property name="eof">pause</property>
  <property name="resource">/home/schmilly/Downloads/Snapinsta.app_469898922_889598093347040_1190110452522228122_n_1080.jpg</property>
  <property name="ttl">25</property>
  <property name="aspect_ratio">1</property>
  <property name="meta.media.progressive">1</property>
  <property name="seekable">1</property>
  <property name="format">1</property>
  <property name="meta.media.width">1080</property>
  <property name="meta.media.height">810</property>
  <property name="mlt_service">qimage</property>
  <property name="kdenlive:duration">00:00:05:00</property>
  <property name="xml">was here</property>
  <property name="kdenlive:folderid">-1</property>
  <property name="kdenlive:id">46</property>
  <property name="kdenlive:control_uuid">{6465349b-e3f2-4ff2-9430-54ce4f03c2b2}</property>
  <property name="kdenlive:clip_type">2</property>
  <property name="kdenlive:file_size">110017</property>
  <property name="kdenlive:file_hash">d568df2024853cddcfe21018c7574ef6</property>
  <property name="kdenlive:monitorPosition">0</property>
 </producer>
 <producer id="producer44" in="00:00:00.000" out="00:00:04.967">
  <property name="length">00:00:05.000</property>
  <property name="eof">pause</property>
  <property name="resource">/home/schmilly/Downloads/Snapinsta.app_469858796_548143251373818_8171386078180355468_n_1080.jpg</property>
  <property name="ttl">25</property>
  <property name="aspect_ratio">1</property>
  <property name="meta.media.progressive">1</property>
  <property name="seekable">1</property>
  <property name="format">1</property>
  <property name="meta.media.width">1080</property>
  <property name="meta.media.height">810</property>
  <property name="mlt_service">qimage</property>
  <property name="kdenlive:duration">00:00:05:00</property>
  <property name="xml">was here</property>
  <property name="kdenlive:folderid">-1</property>
  <property name="kdenlive:id">47</property>
  <property name="kdenlive:control_uuid">{128b7ce7-c3b4-45a0-817a-d8a54ba17ad6}</property>
  <property name="kdenlive:clip_type">2</property>
  <property name="kdenlive:file_size">97816</property>
  <property name="kdenlive:file_hash">d80751ae9b27a105e954f246099182e5</property>
  <property name="kdenlive:monitorPosition">0</property>
 </producer>
 <producer id="producer43" in="00:00:00.000" out="00:00:04.967">
  <property name="length">00:00:05.000</property>
  <property name="eof">pause</property>
  <property name="resource">/home/schmilly/Downloads/Snapinsta.app_469828128_8760079947373595_5066643726509621725_n_1080.jpg</property>
  <property name="ttl">25</property>
  <property name="aspect_ratio">1</property>
  <property name="meta.media.progressive">1</property>
  <property name="seekable">1</property>
  <property name="format">1</property>
  <property name="meta.media.width">1080</property>
  <property name="meta.media.height">810</property>
  <property name="mlt_service">qimage</property>
  <property name="kdenlive:duration">00:00:05:00</property>
  <property name="xml">was here</property>
  <property name="kdenlive:folderid">-1</property>
  <property name="kdenlive:id">48</property>
  <property name="kdenlive:control_uuid">{52226003-5da0-4fde-94ab-e2b7806dd4b2}</property>
  <property name="kdenlive:clip_type">2</property>
  <property name="kdenlive:file_size">91728</property>
  <property name="kdenlive:file_hash">41e5850b585bb554b2eef633a05110f2</property>
  <property name="kdenlive:monitorPosition">0</property>
 </producer>
 <producer id="producer38" in="00:00:00.000" out="00:00:04.967">
  <property name="length">00:00:05.000</property>
  <property name="eof">pause</property>
  <property name="resource">/home/schmilly/Downloads/Snapinsta.app_469822234_1656302695306688_7143350762799007749_n_1080.jpg</property>
  <property name="ttl">25</property>
  <property name="aspect_ratio">1</property>
  <property name="meta.media.progressive">1</property>
  <property name="seekable">1</property>
  <property name="format">1</property>
  <property name="meta.media.width">1080</property>
  <property name="meta.media.height">810</property>
  <property name="mlt_service">qimage</property>
  <property name="kdenlive:duration">00:00:05:00</property>
  <property name="xml">was here</property>
  <property name="kdenlive:folderid">-1</property>
  <property name="kdenlive:id">49</property>
  <property name="kdenlive:control_uuid">{87129e16-75c3-4c6f-8d1a-f0fa09c8fe0c}</property>
  <property name="kdenlive:clip_type">2</property>
  <property name="kdenlive:file_size">89211</property>
  <property name="kdenlive:file_hash">ad2f0af0cb82d25162bc82195ee6677e</property>
 </producer>
 <chain id="chain13" out="00:00:21.733">
  <property name="length">653</property>
  <property name="eof">pause</property>
  <property name="resource">/home/schmilly/Downloads/16398510-45a1-4303-a254-3450404d17b8.mp4</property>
  <property name="mlt_service">avformat-novalidate</property>
  <property name="meta.media.nb_streams">2</property>
  <property name="meta.media.0.stream.type">video</property>
  <property name="meta.media.0.stream.frame_rate">25</property>
  <property name="meta.media.0.stream.sample_aspect_ratio">0</property>
  <property name="meta.media.0.codec.width">1024</property>
  <property name="meta.media.0.codec.height">576</property>
  <property name="meta.media.0.codec.rotate">0</property>
  <property name="meta.media.0.codec.pix_fmt">yuv420p</property>
  <property name="meta.media.0.codec.sample_aspect_ratio">0</property>
  <property name="meta.media.0.codec.colorspace">709</property>
  <property name="meta.media.0.codec.color_trc">1</property>
  <property name="meta.media.0.codec.name">h264</property>
  <property name="meta.media.0.codec.long_name">H.264 / AVC / MPEG-4 AVC / MPEG-4 part 10</property>
  <property name="meta.media.0.codec.bit_rate">474252</property>
  <property name="meta.attr.0.stream.creation_time.markup">2022-06-29T15:01:48.000000Z</property>
  <property name="meta.attr.0.stream.handler_name.markup">Vireo Eyes v2.9.0</property>
  <property name="meta.attr.0.stream.vendor_id.markup">[0][0][0][0]</property>
  <property name="meta.attr.0.stream.encoder.markup">AVC Coding</property>
  <property name="meta.media.1.stream.type">audio</property>
  <property name="meta.media.1.codec.sample_fmt">fltp</property>
  <property name="meta.media.1.codec.sample_rate">48000</property>
  <property name="meta.media.1.codec.channels">2</property>
  <property name="meta.media.1.codec.layout">stereo</property>
  <property name="meta.media.1.codec.name">aac</property>
  <property name="meta.media.1.codec.long_name">AAC (Advanced Audio Coding)</property>
  <property name="meta.media.1.codec.bit_rate">128008</property>
  <property name="meta.attr.1.stream.creation_time.markup">2022-06-29T15:01:48.000000Z</property>
  <property name="meta.attr.1.stream.handler_name.markup">Vireo Ears v2.9.0</property>
  <property name="meta.attr.1.stream.vendor_id.markup">[0][0][0][0]</property>
  <property name="meta.attr.major_brand.markup">mp42</property>
  <property name="meta.attr.minor_version.markup">0</property>
  <property name="meta.attr.compatible_brands.markup">mp42mp41iso4</property>
  <property name="meta.attr.creation_time.markup">2022-06-29T15:01:48.000000Z</property>
  <property name="seekable">1</property>
  <property name="meta.media.sample_aspect_num">1</property>
  <property name="meta.media.sample_aspect_den">1</property>
  <property name="format">3</property>
  <property name="audio_index">1</property>
  <property name="video_index">0</property>
  <property name="vstream">0</property>
  <property name="meta.media.frame_rate_num">25</property>
  <property name="meta.media.frame_rate_den">1</property>
  <property name="meta.media.colorspace">709</property>
  <property name="meta.media.color_trc">1</property>
  <property name="meta.media.has_b_frames">2</property>
  <property name="meta.media.width">1024</property>
  <property name="meta.media.height">576</property>
  <property name="meta.media.aspect_ratio">1</property>
  <property name="meta.media.color_range">mpeg</property>
  <property name="astream">0</property>
  <property name="meta.media.top_field_first">0</property>
  <property name="meta.media.progressive">1</property>
  <property name="kdenlive:folderid">-1</property>
  <property name="kdenlive:id">50</property>
  <property name="kdenlive:control_uuid">{8bbe74e1-fb83-402e-bb81-56d7757725b6}</property>
  <property name="mute_on_pause">0</property>
  <property name="kdenlive:clip_type">0</property>
  <property name="kdenlive:file_size">1655487</property>
  <property name="kdenlive:file_hash">dcb00eb090b3ee205728f6148e9df195</property>
  <property name="kdenlive:audio_max1">139</property>
  <property name="kdenlive:monitorPosition">198</property>
 </chain>
 <chain id="chain16" out="00:00:37.167">
  <property name="length">1116</property>
  <property name="eof">pause</property>
  <property name="resource">/home/schmilly/Downloads/rentstrike3.mov</property>
  <property name="mlt_service">avformat-novalidate</property>
  <property name="meta.media.nb_streams">3</property>
  <property name="meta.media.0.stream.type">video</property>
  <property name="meta.media.0.stream.frame_rate">25</property>
  <property name="meta.media.0.stream.sample_aspect_ratio">1</property>
  <property name="meta.media.0.codec.width">1920</property>
  <property name="meta.media.0.codec.height">1080</property>
  <property name="meta.media.0.codec.rotate">0</property>
  <property name="meta.media.0.codec.pix_fmt">yuv420p</property>
  <property name="meta.media.0.codec.sample_aspect_ratio">0</property>
  <property name="meta.media.0.codec.colorspace">709</property>
  <property name="meta.media.0.codec.color_trc">1</property>
  <property name="meta.media.0.codec.name">h264</property>
  <property name="meta.media.0.codec.long_name">H.264 / AVC / MPEG-4 AVC / MPEG-4 part 10</property>
  <property name="meta.media.0.codec.bit_rate">42034617</property>
  <property name="meta.attr.0.stream.creation_time.markup">2020-04-14T15:13:57.000000Z</property>
  <property name="meta.attr.0.stream.language.markup">eng</property>
  <property name="meta.attr.0.stream.handler_name.markup">Apple Video Media Handler</property>
  <property name="meta.attr.0.stream.vendor_id.markup">appl</property>
  <property name="meta.attr.0.stream.encoder.markup">H.264</property>
  <property name="meta.attr.0.stream.timecode.markup">00:00:00:00</property>
  <property name="meta.media.1.stream.type">audio</property>
  <property name="meta.media.1.codec.sample_fmt">s16</property>
  <property name="meta.media.1.codec.sample_rate">48000</property>
  <property name="meta.media.1.codec.channels">2</property>
  <property name="meta.media.1.codec.layout">stereo</property>
  <property name="meta.media.1.codec.name">pcm_s16le</property>
  <property name="meta.media.1.codec.long_name">PCM signed 16-bit little-endian</property>
  <property name="meta.media.1.codec.bit_rate">1536000</property>
  <property name="meta.attr.1.stream.creation_time.markup">2020-04-14T15:13:57.000000Z</property>
  <property name="meta.attr.1.stream.language.markup">eng</property>
  <property name="meta.attr.1.stream.handler_name.markup">Apple Sound Media Handler</property>
  <property name="meta.attr.1.stream.vendor_id.markup">[0][0][0][0]</property>
  <property name="meta.attr.1.stream.timecode.markup">00:00:00:00</property>
  <property name="meta.attr.major_brand.markup">qt  </property>
  <property name="meta.attr.minor_version.markup">537199360</property>
  <property name="meta.attr.compatible_brands.markup">qt  </property>
  <property name="meta.attr.creation_time.markup">2020-04-14T15:13:57.000000Z</property>
  <property name="seekable">1</property>
  <property name="meta.media.sample_aspect_num">1</property>
  <property name="meta.media.sample_aspect_den">1</property>
  <property name="format">3</property>
  <property name="audio_index">1</property>
  <property name="video_index">0</property>
  <property name="vstream">0</property>
  <property name="meta.media.frame_rate_num">25</property>
  <property name="meta.media.frame_rate_den">1</property>
  <property name="meta.media.colorspace">709</property>
  <property name="meta.media.color_trc">1</property>
  <property name="meta.media.has_b_frames">0</property>
  <property name="meta.media.width">1920</property>
  <property name="meta.media.height">1080</property>
  <property name="meta.media.aspect_ratio">1</property>
  <property name="meta.media.color_range">mpeg</property>
  <property name="astream">0</property>
  <property name="meta.media.top_field_first">0</property>
  <property name="meta.media.progressive">1</property>
  <property name="kdenlive:folderid">-1</property>
  <property name="kdenlive:id">51</property>
  <property name="kdenlive:control_uuid">{cbff263c-cf1d-4d28-b35c-9f309c3aaa7e}</property>
  <property name="mute_on_pause">0</property>
  <property name="kdenlive:clip_type">0</property>
  <property name="kdenlive:file_size">202648718</property>
  <property name="kdenlive:file_hash">797d0922e4d9f63d74a94f4986b02582</property>
  <property name="kdenlive:audio_max1">239</property>
  <property name="kdenlive:zone_in">796</property>
  <property name="kdenlive:zone_out">1115</property>
  <property name="kdenlive:monitorPosition">796</property>
 </chain>
 <chain id="chain23" out="00:00:13.467">
  <property name="length">405</property>
  <property name="eof">pause</property>
  <property name="resource">/home/schmilly/Downloads/rentstrike3-6-19.mov</property>
  <property name="mlt_service">avformat-novalidate</property>
  <property name="meta.media.nb_streams">3</property>
  <property name="meta.media.0.stream.type">video</property>
  <property name="meta.media.0.stream.frame_rate">25</property>
  <property name="meta.media.0.stream.sample_aspect_ratio">1</property>
  <property name="meta.media.0.codec.width">1920</property>
  <property name="meta.media.0.codec.height">1080</property>
  <property name="meta.media.0.codec.rotate">0</property>
  <property name="meta.media.0.codec.pix_fmt">yuv420p</property>
  <property name="meta.media.0.codec.sample_aspect_ratio">0</property>
  <property name="meta.media.0.codec.colorspace">709</property>
  <property name="meta.media.0.codec.color_trc">1</property>
  <property name="meta.media.0.codec.name">h264</property>
  <property name="meta.media.0.codec.long_name">H.264 / AVC / MPEG-4 AVC / MPEG-4 part 10</property>
  <property name="meta.media.0.codec.bit_rate">54987696</property>
  <property name="meta.attr.0.stream.language.markup">eng</property>
  <property name="meta.attr.0.stream.handler_name.markup">Apple Video Media Handler</property>
  <property name="meta.attr.0.stream.vendor_id.markup">FFMP</property>
  <property name="meta.attr.0.stream.encoder.markup">H.264</property>
  <property name="meta.attr.0.stream.timecode.markup">00:00:00:00</property>
  <property name="meta.media.1.stream.type">audio</property>
  <property name="meta.media.1.codec.sample_fmt">s16</property>
  <property name="meta.media.1.codec.sample_rate">48000</property>
  <property name="meta.media.1.codec.channels">2</property>
  <property name="meta.media.1.codec.layout">stereo</property>
  <property name="meta.media.1.codec.name">pcm_s16le</property>
  <property name="meta.media.1.codec.long_name">PCM signed 16-bit little-endian</property>
  <property name="meta.media.1.codec.bit_rate">1536000</property>
  <property name="meta.attr.1.stream.language.markup">eng</property>
  <property name="meta.attr.1.stream.handler_name.markup">Apple Sound Media Handler</property>
  <property name="meta.attr.1.stream.vendor_id.markup">[0][0][0][0]</property>
  <property name="meta.attr.major_brand.markup">qt  </property>
  <property name="meta.attr.minor_version.markup">512</property>
  <property name="meta.attr.compatible_brands.markup">qt  </property>
  <property name="meta.attr.encoder.markup">Lavf61.7.100</property>
  <property name="seekable">1</property>
  <property name="meta.media.sample_aspect_num">1</property>
  <property name="meta.media.sample_aspect_den">1</property>
  <property name="format">3</property>
  <property name="audio_index">1</property>
  <property name="video_index">0</property>
  <property name="vstream">0</property>
  <property name="meta.media.frame_rate_num">25</property>
  <property name="meta.media.frame_rate_den">1</property>
  <property name="meta.media.colorspace">709</property>
  <property name="meta.media.color_trc">1</property>
  <property name="meta.media.has_b_frames">0</property>
  <property name="meta.media.width">1920</property>
  <property name="meta.media.height">1080</property>
  <property name="meta.media.aspect_ratio">1</property>
  <property name="meta.media.color_range">mpeg</property>
  <property name="astream">0</property>
  <property name="meta.media.top_field_first">0</property>
  <property name="meta.media.progressive">1</property>
  <property name="kdenlive:folderid">-1</property>
  <property name="kdenlive:id">52</property>
  <property name="kdenlive:control_uuid">{b4cf9620-7982-44e9-9c28-60bc54834224}</property>
  <property name="mute_on_pause">0</property>
  <property name="kdenlive:clip_type">0</property>
  <property name="kdenlive:file_size">95251784</property>
  <property name="kdenlive:file_hash">879b4feddb484863136e0cdb749d392e</property>
  <property name="kdenlive:audio_max1">201</property>
  <property name="kdenlive:monitorPosition">37</property>
 </chain>
 <chain id="chain24" out="00:00:58.100">
  <property name="length">1744</property>
  <property name="eof">pause</property>
  <property name="resource">/home/schmilly/Downloads/IMG_9830-30fps.mp4</property>
  <property name="mlt_service">avformat-novalidate</property>
  <property name="meta.media.nb_streams">2</property>
  <property name="meta.media.0.stream.type">video</property>
  <property name="meta.media.0.stream.frame_rate">30</property>
  <property name="meta.media.0.stream.sample_aspect_ratio">0</property>
  <property name="meta.media.0.codec.width">1920</property>
  <property name="meta.media.0.codec.height">1080</property>
  <property name="meta.media.0.codec.rotate">90</property>
  <property name="meta.media.0.codec.pix_fmt">yuv420p</property>
  <property name="meta.media.0.codec.sample_aspect_ratio">0</property>
  <property name="meta.media.0.codec.colorspace">709</property>
  <property name="meta.media.0.codec.color_trc">1</property>
  <property name="meta.media.0.codec.name">h264</property>
  <property name="meta.media.0.codec.long_name">H.264 / AVC / MPEG-4 AVC / MPEG-4 part 10</property>
  <property name="meta.media.0.codec.bit_rate">27445484</property>
  <property name="meta.attr.0.stream.handler_name.markup">Core Media Video</property>
  <property name="meta.attr.0.stream.vendor_id.markup">[0][0][0][0]</property>
  <property name="meta.attr.0.stream.encoder.markup">Lavc61.19.100 libx264</property>
  <property name="meta.media.1.stream.type">audio</property>
  <property name="meta.media.1.codec.sample_fmt">fltp</property>
  <property name="meta.media.1.codec.sample_rate">44100</property>
  <property name="meta.media.1.codec.channels">1</property>
  <property name="meta.media.1.codec.layout">mono</property>
  <property name="meta.media.1.codec.name">aac</property>
  <property name="meta.media.1.codec.long_name">AAC (Advanced Audio Coding)</property>
  <property name="meta.media.1.codec.bit_rate">181526</property>
  <property name="meta.attr.1.stream.handler_name.markup">Core Media Audio</property>
  <property name="meta.attr.1.stream.vendor_id.markup">[0][0][0][0]</property>
  <property name="meta.attr.major_brand.markup">isom</property>
  <property name="meta.attr.minor_version.markup">512</property>
  <property name="meta.attr.compatible_brands.markup">isomiso2avc1mp41</property>
  <property name="meta.attr.encoder.markup">Lavf61.7.100</property>
  <property name="seekable">1</property>
  <property name="meta.media.sample_aspect_num">1</property>
  <property name="meta.media.sample_aspect_den">1</property>
  <property name="format">3</property>
  <property name="audio_index">1</property>
  <property name="video_index">0</property>
  <property name="vstream">0</property>
  <property name="meta.media.frame_rate_num">30</property>
  <property name="meta.media.frame_rate_den">1</property>
  <property name="meta.media.colorspace">709</property>
  <property name="meta.media.color_trc">1</property>
  <property name="meta.media.has_b_frames">0</property>
  <property name="meta.media.width">1080</property>
  <property name="meta.media.height">1920</property>
  <property name="meta.media.color_range">mpeg</property>
  <property name="astream">0</property>
  <property name="meta.media.top_field_first">0</property>
  <property name="meta.media.progressive">1</property>
  <property name="kdenlive:control_uuid">{850ef4ad-ad3d-4359-b088-a8412be34923}</property>
  <property name="kdenlive:originalurl">/home/schmilly/Downloads/IMG_9830-30fps.mp4</property>
  <property name="kdenlive:id">53</property>
  <property name="mute_on_pause">0</property>
  <property name="kdenlive:clip_type">0</property>
  <property name="kdenlive:file_size">200807569</property>
  <property name="kdenlive:file_hash">97f72263f42ab046c730925bdcf8bd36</property>
  <property name="kdenlive:folderid">-1</property>
  <property name="kdenlive:monitorPosition">1740</property>
  <property name="kdenlive:audio_max1">209</property>
 </chain>
 <producer id="producer51" in="00:00:00.000" out="00:00:04.967">
  <property name="length">00:00:05.000</property>
  <property name="eof">pause</property>
  <property name="resource">/home/schmilly/Downloads/51150028711_dddb12dfc8_o.jpg</property>
  <property name="ttl">25</property>
  <property name="aspect_ratio">1</property>
  <property name="meta.media.progressive">1</property>
  <property name="seekable">1</property>
  <property name="format">1</property>
  <property name="meta.media.width">7952</property>
  <property name="meta.media.height">5304</property>
  <property name="mlt_service">qimage</property>
  <property name="kdenlive:duration">00:00:05:00</property>
  <property name="xml">was here</property>
  <property name="kdenlive:folderid">-1</property>
  <property name="kdenlive:id">54</property>
  <property name="kdenlive:control_uuid">{2d29ceeb-b2eb-4f83-9a79-1cd8b608651d}</property>
  <property name="kdenlive:clip_type">2</property>
  <property name="kdenlive:file_size">27885725</property>
  <property name="kdenlive:file_hash">9b0cc9c4cba4a69c33709acbb062febc</property>
  <property name="kdenlive:monitorPosition">6</property>
 </producer>
 <producer id="producer52" in="00:00:00.000" out="00:00:04.967">
  <property name="length">00:00:05.000</property>
  <property name="eof">pause</property>
  <property name="resource">/home/schmilly/Downloads/51149348932_08fde1eb99_c.jpg</property>
  <property name="ttl">25</property>
  <property name="aspect_ratio">1</property>
  <property name="meta.media.progressive">1</property>
  <property name="seekable">1</property>
  <property name="format">1</property>
  <property name="meta.media.width">800</property>
  <property name="meta.media.height">534</property>
  <property name="mlt_service">qimage</property>
  <property name="kdenlive:duration">00:00:05:00</property>
  <property name="xml">was here</property>
  <property name="kdenlive:folderid">-1</property>
  <property name="kdenlive:id">55</property>
  <property name="kdenlive:control_uuid">{5f7d8f2d-bf27-4f36-8638-359654fa7b7a}</property>
  <property name="kdenlive:clip_type">2</property>
  <property name="kdenlive:file_size">177722</property>
  <property name="kdenlive:file_hash">a24ac7eeafd6a1ccd6676a43d78fff9c</property>
  <property name="kdenlive:monitorPosition">1</property>
 </producer>
 <producer id="producer53" in="00:00:00.000" out="00:00:04.967">
  <property name="length">00:00:05.000</property>
  <property name="eof">pause</property>
  <property name="resource">/home/schmilly/Downloads/IMG_8915.JPG</property>
  <property name="ttl">25</property>
  <property name="aspect_ratio">1</property>
  <property name="meta.media.progressive">1</property>
  <property name="seekable">1</property>
  <property name="format">1</property>
  <property name="meta.media.width">3024</property>
  <property name="meta.media.height">3024</property>
  <property name="mlt_service">qimage</property>
  <property name="kdenlive:duration">00:00:05:00</property>
  <property name="xml">was here</property>
  <property name="kdenlive:folderid">-1</property>
  <property name="kdenlive:id">56</property>
  <property name="kdenlive:control_uuid">{74cdc307-8097-44f5-b977-d58869fcbef9}</property>
  <property name="kdenlive:clip_type">2</property>
  <property name="kdenlive:file_size">2789798</property>
  <property name="kdenlive:file_hash">a164fda5523c83a73d255e890d45d8cd</property>
  <property name="kdenlive:monitorPosition">0</property>
 </producer>
 <producer id="producer57" in="00:00:00.000" out="00:00:04.967">
  <property name="length">00:00:05.000</property>
  <property name="eof">pause</property>
  <property name="resource">/home/schmilly/Downloads/20220809 Rent Is Too High - Launch Post.png</property>
  <property name="ttl">25</property>
  <property name="aspect_ratio">1</property>
  <property name="meta.media.progressive">1</property>
  <property name="seekable">1</property>
  <property name="format">1</property>
  <property name="meta.media.width">1080</property>
  <property name="meta.media.height">1080</property>
  <property name="mlt_service">qimage</property>
  <property name="kdenlive:duration">00:00:05:00</property>
  <property name="xml">was here</property>
  <property name="kdenlive:folderid">-1</property>
  <property name="kdenlive:id">57</property>
  <property name="kdenlive:control_uuid">{3bc08e23-dfa4-4a4a-a40d-0a9beb77cd9e}</property>
  <property name="kdenlive:clip_type">2</property>
  <property name="kdenlive:file_size">505025</property>
  <property name="kdenlive:file_hash">210d1c74fbb13ec866716cc7ec184b21</property>
  <property name="kdenlive:monitorPosition">0</property>
 </producer>
 <chain id="chain25" out="00:00:07.100">
  <property name="length">214</property>
  <property name="eof">pause</property>
  <property name="resource">/home/schmilly/Downloads/rentstrike3-30-37.mov</property>
  <property name="mlt_service">avformat-novalidate</property>
  <property name="meta.media.nb_streams">3</property>
  <property name="meta.media.0.stream.type">video</property>
  <property name="meta.media.0.stream.frame_rate">25</property>
  <property name="meta.media.0.stream.sample_aspect_ratio">1</property>
  <property name="meta.media.0.codec.width">1920</property>
  <property name="meta.media.0.codec.height">1080</property>
  <property name="meta.media.0.codec.rotate">0</property>
  <property name="meta.media.0.codec.pix_fmt">yuv420p</property>
  <property name="meta.media.0.codec.sample_aspect_ratio">0</property>
  <property name="meta.media.0.codec.colorspace">709</property>
  <property name="meta.media.0.codec.color_trc">1</property>
  <property name="meta.media.0.codec.name">h264</property>
  <property name="meta.media.0.codec.long_name">H.264 / AVC / MPEG-4 AVC / MPEG-4 part 10</property>
  <property name="meta.media.0.codec.bit_rate">9074682</property>
  <property name="meta.attr.0.stream.language.markup">eng</property>
  <property name="meta.attr.0.stream.handler_name.markup">Apple Video Media Handler</property>
  <property name="meta.attr.0.stream.vendor_id.markup">FFMP</property>
  <property name="meta.attr.0.stream.encoder.markup">H.264</property>
  <property name="meta.attr.0.stream.timecode.markup">00:00:00:00</property>
  <property name="meta.media.1.stream.type">audio</property>
  <property name="meta.media.1.codec.sample_fmt">s16</property>
  <property name="meta.media.1.codec.sample_rate">48000</property>
  <property name="meta.media.1.codec.channels">2</property>
  <property name="meta.media.1.codec.layout">stereo</property>
  <property name="meta.media.1.codec.name">pcm_s16le</property>
  <property name="meta.media.1.codec.long_name">PCM signed 16-bit little-endian</property>
  <property name="meta.media.1.codec.bit_rate">1536000</property>
  <property name="meta.attr.1.stream.language.markup">eng</property>
  <property name="meta.attr.1.stream.handler_name.markup">Apple Sound Media Handler</property>
  <property name="meta.attr.1.stream.vendor_id.markup">[0][0][0][0]</property>
  <property name="meta.attr.major_brand.markup">qt  </property>
  <property name="meta.attr.minor_version.markup">512</property>
  <property name="meta.attr.compatible_brands.markup">qt  </property>
  <property name="meta.attr.encoder.markup">Lavf61.7.100</property>
  <property name="seekable">1</property>
  <property name="meta.media.sample_aspect_num">1</property>
  <property name="meta.media.sample_aspect_den">1</property>
  <property name="format">3</property>
  <property name="audio_index">1</property>
  <property name="video_index">0</property>
  <property name="vstream">0</property>
  <property name="meta.media.frame_rate_num">25</property>
  <property name="meta.media.frame_rate_den">1</property>
  <property name="meta.media.colorspace">709</property>
  <property name="meta.media.color_trc">1</property>
  <property name="meta.media.has_b_frames">0</property>
  <property name="meta.media.width">1920</property>
  <property name="meta.media.height">1080</property>
  <property name="meta.media.aspect_ratio">1</property>
  <property name="meta.media.color_range">mpeg</property>
  <property name="astream">0</property>
  <property name="meta.media.top_field_first">0</property>
  <property name="meta.media.progressive">1</property>
  <property name="kdenlive:folderid">-1</property>
  <property name="kdenlive:id">58</property>
  <property name="kdenlive:control_uuid">{4920c2ad-600f-46fb-a140-7c60b0966d97}</property>
  <property name="mute_on_pause">0</property>
  <property name="kdenlive:clip_type">0</property>
  <property name="kdenlive:file_size">9445735</property>
  <property name="kdenlive:file_hash">fad3dccfa7a5d11a3c45668823c28cf1</property>
  <property name="kdenlive:audio_max1">241</property>
  <property name="kdenlive:monitorPosition">153</property>
 </chain>
 <producer id="producer61" in="00:00:00.000" out="00:00:04.967">
  <property name="length">00:00:05.000</property>
  <property name="eof">pause</property>
  <property name="resource">/home/schmilly/Downloads/HousingRally_MillieGryphon_Small-35.jpg</property>
  <property name="ttl">25</property>
  <property name="aspect_ratio">1</property>
  <property name="meta.media.progressive">1</property>
  <property name="seekable">1</property>
  <property name="format">1</property>
  <property name="meta.media.width">1350</property>
  <property name="meta.media.height">759</property>
  <property name="mlt_service">qimage</property>
  <property name="kdenlive:duration">00:00:05:00</property>
  <property name="xml">was here</property>
  <property name="kdenlive:folderid">-1</property>
  <property name="kdenlive:id">59</property>
  <property name="kdenlive:control_uuid">{47adf238-05e3-4225-97d3-379d34ab391a}</property>
  <property name="kdenlive:clip_type">2</property>
  <property name="kdenlive:file_size">1083720</property>
  <property name="kdenlive:file_hash">d629ebbbcb359ce338a874ddc12142a8</property>
  <property name="kdenlive:monitorPosition">0</property>
 </producer>
 <producer id="producer62" in="00:00:00.000" out="00:00:04.967">
  <property name="length">00:00:05.000</property>
  <property name="eof">pause</property>
  <property name="resource">/home/schmilly/Downloads/HousingRally_MillieGryphon_Small-20.jpg</property>
  <property name="ttl">25</property>
  <property name="aspect_ratio">1</property>
  <property name="meta.media.progressive">1</property>
  <property name="seekable">1</property>
  <property name="format">1</property>
  <property name="meta.media.width">1350</property>
  <property name="meta.media.height">900</property>
  <property name="mlt_service">qimage</property>
  <property name="kdenlive:duration">00:00:05:00</property>
  <property name="xml">was here</property>
  <property name="kdenlive:folderid">-1</property>
  <property name="kdenlive:id">60</property>
  <property name="kdenlive:control_uuid">{1936b761-ce35-4589-827f-16a5ce3b32d0}</property>
  <property name="kdenlive:clip_type">2</property>
  <property name="kdenlive:file_size">1360306</property>
  <property name="kdenlive:file_hash">df73d6b60bca7932f6a5b4ee816c8560</property>
  <property name="kdenlive:monitorPosition">0</property>
 </producer>
 <producer id="producer63" in="00:00:00.000" out="00:00:04.967">
  <property name="length">00:00:05.000</property>
  <property name="eof">pause</property>
  <property name="resource">/home/schmilly/Downloads/HousingRally_MillieGryphon_Small-21.jpg</property>
  <property name="ttl">25</property>
  <property name="aspect_ratio">1</property>
  <property name="meta.media.progressive">1</property>
  <property name="seekable">1</property>
  <property name="format">1</property>
  <property name="meta.media.width">1080</property>
  <property name="meta.media.height">1350</property>
  <property name="mlt_service">qimage</property>
  <property name="kdenlive:duration">00:00:05:00</property>
  <property name="xml">was here</property>
  <property name="kdenlive:folderid">-1</property>
  <property name="kdenlive:id">61</property>
  <property name="kdenlive:control_uuid">{3e72efcc-ef49-4986-aa87-367d0c9a01b4}</property>
  <property name="kdenlive:clip_type">2</property>
  <property name="kdenlive:file_size">1494951</property>
  <property name="kdenlive:file_hash">d496c9ac6d90ce5f031e24885fde1948</property>
  <property name="kdenlive:monitorPosition">0</property>
 </producer>
 <producer id="producer75" in="00:00:00.000" out="00:00:04.967">
  <property name="length">00:00:05.000</property>
  <property name="eof">pause</property>
  <property name="resource">/home/schmilly/Downloads/asdsada/P1000691.JPG</property>
  <property name="ttl">25</property>
  <property name="aspect_ratio">1</property>
  <property name="meta.media.progressive">1</property>
  <property name="seekable">1</property>
  <property name="format">1</property>
  <property name="meta.media.width">5184</property>
  <property name="meta.media.height">3456</property>
  <property name="mlt_service">qimage</property>
  <property name="kdenlive:duration">00:00:05:00</property>
  <property name="xml">was here</property>
  <property name="kdenlive:folderid">-1</property>
  <property name="kdenlive:id">62</property>
  <property name="kdenlive:control_uuid">{f35b8bf0-910a-4554-8ec3-98524ff07dca}</property>
  <property name="kdenlive:clip_type">2</property>
  <property name="kdenlive:file_size">9108480</property>
  <property name="kdenlive:file_hash">41891f5ad9b0400628d83e95e3ad70ba</property>
  <property name="kdenlive:monitorPosition">0</property>
 </producer>
 <producer id="producer77" in="00:00:00.000" out="00:00:04.967">
  <property name="length">00:00:05.000</property>
  <property name="eof">pause</property>
  <property name="resource">/home/schmilly/Downloads/asdsada/P1000677.JPG</property>
  <property name="ttl">25</property>
  <property name="aspect_ratio">1</property>
  <property name="meta.media.progressive">1</property>
  <property name="seekable">1</property>
  <property name="format">1</property>
  <property name="meta.media.width">5184</property>
  <property name="meta.media.height">3456</property>
  <property name="mlt_service">qimage</property>
  <property name="kdenlive:duration">00:00:05:00</property>
  <property name="xml">was here</property>
  <property name="kdenlive:folderid">-1</property>
  <property name="kdenlive:id">63</property>
  <property name="kdenlive:control_uuid">{67c91201-7a89-4a24-99a7-333ba9950fdd}</property>
  <property name="kdenlive:clip_type">2</property>
  <property name="kdenlive:file_size">8573952</property>
  <property name="kdenlive:file_hash">24f3630abc18feb17ba8cd76109d3643</property>
  <property name="kdenlive:monitorPosition">2</property>
 </producer>
 <producer id="producer80" in="00:00:00.000" out="00:00:05.000">
  <property name="length">151</property>
  <property name="eof">pause</property>
  <property name="resource">/home/schmilly/Downloads/asdsada/P1000667.JPG</property>
  <property name="ttl">25</property>
  <property name="aspect_ratio">1</property>
  <property name="meta.media.progressive">1</property>
  <property name="seekable">1</property>
  <property name="format">1</property>
  <property name="meta.media.width">5184</property>
  <property name="meta.media.height">3456</property>
  <property name="mlt_service">qimage</property>
  <property name="kdenlive:duration">00:00:05:00</property>
  <property name="xml">was here</property>
  <property name="kdenlive:folderid">-1</property>
  <property name="kdenlive:id">64</property>
  <property name="kdenlive:control_uuid">{c64e8ac5-e268-4f2c-8c11-1b9f08fa042c}</property>
  <property name="kdenlive:clip_type">2</property>
  <property name="kdenlive:file_size">8816128</property>
  <property name="kdenlive:file_hash">3eccecfa720b72c048ff18f38ee85b0d</property>
  <property name="kdenlive:monitorPosition">0</property>
 </producer>
 <producer id="producer67" in="00:00:00.000" out="00:00:04.967">
  <property name="length">00:00:05.000</property>
  <property name="eof">pause</property>
  <property name="resource">/home/schmilly/Downloads/asdsada/P1000665.JPG</property>
  <property name="ttl">25</property>
  <property name="aspect_ratio">1</property>
  <property name="meta.media.progressive">1</property>
  <property name="seekable">1</property>
  <property name="format">1</property>
  <property name="meta.media.width">5184</property>
  <property name="meta.media.height">3456</property>
  <property name="mlt_service">qimage</property>
  <property name="kdenlive:duration">00:00:05:00</property>
  <property name="xml">was here</property>
  <property name="kdenlive:folderid">-1</property>
  <property name="kdenlive:id">65</property>
  <property name="kdenlive:control_uuid">{5317f238-e87b-4929-873c-0aeb95d8ac7c}</property>
  <property name="kdenlive:clip_type">2</property>
  <property name="kdenlive:file_size">8612352</property>
  <property name="kdenlive:file_hash">e4c46bbcc91db984696d24e331598639</property>
  <property name="kdenlive:monitorPosition">0</property>
 </producer>
 <producer id="producer65" in="00:00:00.000" out="00:00:04.967">
  <property name="length">00:00:05.000</property>
  <property name="eof">pause</property>
  <property name="resource">/home/schmilly/Downloads/asdsada/P1000654.JPG</property>
  <property name="ttl">25</property>
  <property name="aspect_ratio">1</property>
  <property name="meta.media.progressive">1</property>
  <property name="seekable">1</property>
  <property name="format">1</property>
  <property name="meta.media.width">5184</property>
  <property name="meta.media.height">3456</property>
  <property name="mlt_service">qimage</property>
  <property name="kdenlive:duration">00:00:05:00</property>
  <property name="xml">was here</property>
  <property name="kdenlive:folderid">-1</property>
  <property name="kdenlive:id">66</property>
  <property name="kdenlive:control_uuid">{bb9c2281-ada9-4e3a-8e5e-5207c1e82198}</property>
  <property name="kdenlive:clip_type">2</property>
  <property name="kdenlive:file_size">7885312</property>
  <property name="kdenlive:file_hash">e86c6233013157d1ab8b52180b61359a</property>
  <property name="kdenlive:monitorPosition">1</property>
 </producer>
 <producer id="producer66" in="00:00:00.000" out="00:00:04.967">
  <property name="length">00:00:05.000</property>
  <property name="eof">pause</property>
  <property name="resource">/home/schmilly/Downloads/asdsada/P1000650.JPG</property>
  <property name="ttl">25</property>
  <property name="aspect_ratio">1</property>
  <property name="meta.media.progressive">1</property>
  <property name="seekable">1</property>
  <property name="format">1</property>
  <property name="meta.media.width">5184</property>
  <property name="meta.media.height">3456</property>
  <property name="mlt_service">qimage</property>
  <property name="kdenlive:duration">00:00:05:00</property>
  <property name="xml">was here</property>
  <property name="kdenlive:folderid">-1</property>
  <property name="kdenlive:id">67</property>
  <property name="kdenlive:control_uuid">{286df073-751a-4342-bc02-3b7975ec2f7a}</property>
  <property name="kdenlive:clip_type">2</property>
  <property name="kdenlive:file_size">7343104</property>
  <property name="kdenlive:file_hash">182ff18f7975499def5f129397c7d9de</property>
  <property name="kdenlive:monitorPosition">1</property>
 </producer>
 <producer id="producer64" in="00:00:00.000" out="00:00:04.967">
  <property name="length">00:00:05.000</property>
  <property name="eof">pause</property>
  <property name="resource">/home/schmilly/Downloads/asdsada/P1000641.JPG</property>
  <property name="ttl">25</property>
  <property name="aspect_ratio">1</property>
  <property name="meta.media.progressive">1</property>
  <property name="seekable">1</property>
  <property name="format">1</property>
  <property name="meta.media.width">5184</property>
  <property name="meta.media.height">3456</property>
  <property name="mlt_service">qimage</property>
  <property name="kdenlive:duration">00:00:05:00</property>
  <property name="xml">was here</property>
  <property name="kdenlive:folderid">-1</property>
  <property name="kdenlive:id">68</property>
  <property name="kdenlive:control_uuid">{e73862b2-56fa-40f1-b5f3-66dc33e34589}</property>
  <property name="kdenlive:clip_type">2</property>
  <property name="kdenlive:file_size">6345216</property>
  <property name="kdenlive:file_hash">134d4508e05ba4546dbc183954a08a73</property>
  <property name="kdenlive:monitorPosition">105</property>
 </producer>
 <producer id="producer86" in="00:00:00.000" out="00:00:04.967">
  <property name="length">00:00:05.000</property>
  <property name="eof">pause</property>
  <property name="resource">/home/schmilly/Downloads/asdsada/ExiYUgrUUAUpMyX.jpg</property>
  <property name="ttl">25</property>
  <property name="aspect_ratio">1</property>
  <property name="meta.media.progressive">1</property>
  <property name="seekable">1</property>
  <property name="format">1</property>
  <property name="meta.media.width">2048</property>
  <property name="meta.media.height">1536</property>
  <property name="mlt_service">qimage</property>
  <property name="kdenlive:duration">00:00:05:00</property>
  <property name="xml">was here</property>
  <property name="kdenlive:folderid">-1</property>
  <property name="kdenlive:id">69</property>
  <property name="kdenlive:control_uuid">{7db59452-7029-4839-a3e3-2075d527ff77}</property>
  <property name="kdenlive:clip_type">2</property>
  <property name="kdenlive:file_size">415816</property>
  <property name="kdenlive:file_hash">2805f7d783960d9937e1c67130676e99</property>
  <property name="kdenlive:monitorPosition">0</property>
 </producer>
 <producer id="producer88" in="00:00:00.000" out="00:00:04.967">
  <property name="length">00:00:05.000</property>
  <property name="eof">pause</property>
  <property name="resource">/home/schmilly/Downloads/asdsada/Exh-ws3VoAEyCaZ.jpg</property>
  <property name="ttl">25</property>
  <property name="aspect_ratio">1</property>
  <property name="meta.media.progressive">1</property>
  <property name="seekable">1</property>
  <property name="format">1</property>
  <property name="meta.media.width">1536</property>
  <property name="meta.media.height">2048</property>
  <property name="mlt_service">qimage</property>
  <property name="kdenlive:duration">00:00:05:00</property>
  <property name="xml">was here</property>
  <property name="kdenlive:folderid">-1</property>
  <property name="kdenlive:id">70</property>
  <property name="kdenlive:control_uuid">{1c514aee-e682-44d7-8fda-557fc0aca406}</property>
  <property name="kdenlive:clip_type">2</property>
  <property name="kdenlive:file_size">554936</property>
  <property name="kdenlive:file_hash">92d894930d8ceeee362760267483559d</property>
  <property name="kdenlive:monitorPosition">1</property>
 </producer>
 <producer id="producer60" in="00:00:00.000" out="00:00:04.967">
  <property name="length">00:00:05.000</property>
  <property name="eof">pause</property>
  <property name="resource">/home/schmilly/Downloads/RAHU_in_solidarity_with_Queensland_tenants.jpg</property>
  <property name="ttl">25</property>
  <property name="aspect_ratio">1</property>
  <property name="meta.media.progressive">1</property>
  <property name="seekable">1</property>
  <property name="format">1</property>
  <property name="meta.media.width">1600</property>
  <property name="meta.media.height">1200</property>
  <property name="mlt_service">qimage</property>
  <property name="kdenlive:duration">00:00:05:00</property>
  <property name="xml">was here</property>
  <property name="kdenlive:folderid">-1</property>
  <property name="kdenlive:id">71</property>
  <property name="kdenlive:control_uuid">{dc840fd5-7186-4dea-a62c-cf60dbfa6a68}</property>
  <property name="kdenlive:clip_type">2</property>
  <property name="kdenlive:file_size">463273</property>
  <property name="kdenlive:file_hash">5748f75c18d802b72d4e638e2958351d</property>
  <property name="kdenlive:monitorPosition">0</property>
 </producer>
 <producer id="producer68" in="00:00:00.000" out="00:00:04.967">
  <property name="length">00:00:05.000</property>
  <property name="eof">pause</property>
  <property name="resource">/home/schmilly/Downloads/IMG_8645.JPG</property>
  <property name="ttl">25</property>
  <property name="aspect_ratio">1</property>
  <property name="meta.media.progressive">1</property>
  <property name="seekable">1</property>
  <property name="format">1</property>
  <property name="meta.media.width">1536</property>
  <property name="meta.media.height">2048</property>
  <property name="mlt_service">qimage</property>
  <property name="kdenlive:duration">00:00:05:00</property>
  <property name="xml">was here</property>
  <property name="kdenlive:folderid">-1</property>
  <property name="kdenlive:id">72</property>
  <property name="kdenlive:control_uuid">{2bcfc710-45b4-4159-a98f-6e933f0367de}</property>
  <property name="kdenlive:clip_type">2</property>
  <property name="kdenlive:file_size">522176</property>
  <property name="kdenlive:file_hash">81d4805bf569d1ed16e36facd1a9999a</property>
  <property name="kdenlive:monitorPosition">0</property>
 </producer>
 <producer id="producer89" in="00:00:00.000" out="00:00:04.967">
  <property name="length">00:00:05.000</property>
  <property name="eof">pause</property>
  <property name="resource">/home/schmilly/Downloads/IMG_8590.JPG</property>
  <property name="ttl">25</property>
  <property name="aspect_ratio">1</property>
  <property name="meta.media.progressive">1</property>
  <property name="seekable">1</property>
  <property name="format">1</property>
  <property name="meta.media.width">4032</property>
  <property name="meta.media.height">3024</property>
  <property name="mlt_service">qimage</property>
  <property name="kdenlive:duration">00:00:05:00</property>
  <property name="xml">was here</property>
  <property name="kdenlive:folderid">-1</property>
  <property name="kdenlive:id">73</property>
  <property name="kdenlive:control_uuid">{62ab2a1e-4249-47e6-b401-b92c4100fb36}</property>
  <property name="kdenlive:clip_type">2</property>
  <property name="kdenlive:file_size">3394580</property>
  <property name="kdenlive:file_hash">16639bbd94421134478a7e6632df67f3</property>
  <property name="kdenlive:monitorPosition">0</property>
 </producer>
 <producer id="producer90" in="00:00:00.000" out="00:00:04.967">
  <property name="length">00:00:05.000</property>
  <property name="eof">pause</property>
  <property name="resource">/home/schmilly/Downloads/51051947136_0f183942f7_o.jpg</property>
  <property name="ttl">25</property>
  <property name="aspect_ratio">1</property>
  <property name="meta.media.progressive">1</property>
  <property name="seekable">1</property>
  <property name="format">1</property>
  <property name="meta.media.width">6592</property>
  <property name="meta.media.height">4397</property>
  <property name="mlt_service">qimage</property>
  <property name="kdenlive:duration">00:00:05:00</property>
  <property name="xml">was here</property>
  <property name="kdenlive:folderid">-1</property>
  <property name="kdenlive:id">74</property>
  <property name="kdenlive:control_uuid">{9c9da9fb-ea30-464c-aac1-392f73cf9501}</property>
  <property name="kdenlive:clip_type">2</property>
  <property name="kdenlive:file_size">21166447</property>
  <property name="kdenlive:file_hash">6c39cd63d5e738b64ffdd35833c71e8d</property>
  <property name="kdenlive:monitorPosition">0</property>
 </producer>
 <producer id="producer91" in="00:00:00.000" out="00:00:04.967">
  <property name="length">00:00:05.000</property>
  <property name="eof">pause</property>
  <property name="resource">/home/schmilly/Downloads/51051933296_8115fcd3aa_o.jpg</property>
  <property name="ttl">25</property>
  <property name="aspect_ratio">1</property>
  <property name="meta.media.progressive">1</property>
  <property name="seekable">1</property>
  <property name="format">1</property>
  <property name="meta.media.width">7952</property>
  <property name="meta.media.height">5304</property>
  <property name="mlt_service">qimage</property>
  <property name="kdenlive:duration">00:00:05:00</property>
  <property name="xml">was here</property>
  <property name="kdenlive:folderid">-1</property>
  <property name="kdenlive:id">75</property>
  <property name="kdenlive:control_uuid">{ac30649d-8594-4b97-9d73-1800a877cf3f}</property>
  <property name="kdenlive:clip_type">2</property>
  <property name="kdenlive:file_size">25947653</property>
  <property name="kdenlive:file_hash">bae8216991ab298c0574d22c616c9648</property>
  <property name="kdenlive:monitorPosition">0</property>
 </producer>
 <producer id="producer74" in="00:00:00.000" out="00:00:04.967">
  <property name="length">00:00:05.000</property>
  <property name="eof">pause</property>
  <property name="resource">Art/Poster/Human Right.png</property>
  <property name="ttl">25</property>
  <property name="aspect_ratio">1</property>
  <property name="meta.media.progressive">1</property>
  <property name="seekable">1</property>
  <property name="format">2</property>
  <property name="meta.media.width">1620</property>
  <property name="meta.media.height">2292</property>
  <property name="mlt_service">qimage</property>
  <property name="kdenlive:duration">00:00:05:00</property>
  <property name="xml">was here</property>
  <property name="kdenlive:folderid">-1</property>
  <property name="kdenlive:id">76</property>
  <property name="kdenlive:control_uuid">{b4de7f12-fa3a-4d4f-bd43-c013ae4d1ba4}</property>
  <property name="kdenlive:clip_type">2</property>
  <property name="kdenlive:file_size">197840</property>
  <property name="kdenlive:file_hash">ba92ecebd541c4a4a0bd9cbdba43f11a</property>
  <property name="kdenlive:monitorPosition">3</property>
 </producer>
 <producer id="producer6" in="00:00:00.000" out="00:00:04.967">
  <property name="length">00:00:05.000</property>
  <property name="eof">pause</property>
  <property name="resource">/home/schmilly/Downloads/RAHU_Primary_colour_logo.svg</property>
  <property name="ttl">25</property>
  <property name="aspect_ratio">1</property>
  <property name="meta.media.progressive">1</property>
  <property name="seekable">1</property>
  <property name="format">2</property>
  <property name="meta.media.width">1335</property>
  <property name="meta.media.height">1335</property>
  <property name="mlt_service">qimage</property>
  <property name="kdenlive:duration">00:00:05:00</property>
  <property name="xml">was here</property>
  <property name="kdenlive:folderid">-1</property>
  <property name="kdenlive:id">77</property>
  <property name="kdenlive:control_uuid">{f10f5701-72d4-4a96-bcfa-d47c18144e9b}</property>
  <property name="kdenlive:clip_type">2</property>
  <property name="kdenlive:file_size">122485</property>
  <property name="kdenlive:file_hash">28bb267b119c80624732a1e6b1aa72c2</property>
  <property name="kdenlive:monitorPosition">3</property>
 </producer>
 <producer id="producer92" in="00:00:00.000" out="00:00:04.967">
  <property name="length">00:00:05.000</property>
  <property name="eof">pause</property>
  <property name="resource">Art/QR Codes/RAHU QR Code.svg</property>
  <property name="ttl">25</property>
  <property name="aspect_ratio">1</property>
  <property name="meta.media.progressive">1</property>
  <property name="seekable">1</property>
  <property name="format">2</property>
  <property name="meta.media.width">744</property>
  <property name="meta.media.height">744</property>
  <property name="mlt_service">qimage</property>
  <property name="kdenlive:duration">00:00:05:00</property>
  <property name="xml">was here</property>
  <property name="kdenlive:folderid">-1</property>
  <property name="kdenlive:id">78</property>
  <property name="kdenlive:control_uuid">{15d0fa0f-7400-4ac5-ad80-7311cea8c263}</property>
  <property name="kdenlive:clip_type">2</property>
  <property name="kdenlive:file_size">35212</property>
  <property name="kdenlive:file_hash">0e17ddb17ce7428168c5b165d4995fb4</property>
  <property name="kdenlive:monitorPosition">0</property>
 </producer>
 <producer id="producer7" in="00:00:00.000" out="00:00:04.967">
  <property name="length">150</property>
  <property name="eof">pause</property>
  <property name="resource"/>
  <property name="meta.media.progressive">1</property>
  <property name="aspect_ratio">1</property>
  <property name="seekable">1</property>
  <property name="mlt_service">kdenlivetitle</property>
  <property name="kdenlive:duration">00:00:05:00</property>
  <property name="kdenlive:clipname">rahu.org.au/...</property>
  <property name="xmldata">&lt;kdenlivetitle LC_NUMERIC="C" duration="150" height="1920" out="149" width="1920">
 &lt;item type="QGraphicsTextItem" z-index="0">
  &lt;position x="196" y="824">
   &lt;transform>1,0,0,0,1,0,0,0,1&lt;/transform>
  &lt;/position>
  &lt;content alignment="0" box-height="273" box-width="1527.7" font="Noto Sans" font-color="255,255,255,255" font-italic="0" font-outline="0" font-outline-color="0,0,0,255" font-pixel-size="200" font-underline="0" font-weight="400" letter-spacing="0" shadow="0;#64000000;3;3;3" tab-width="80" typewriter="0;2;1;0;0">rahu.org.au/join&lt;/content>
 &lt;/item>
 &lt;startviewport rect="0,0,1920,1920"/>
 &lt;endviewport rect="0,0,1920,1920"/>
 &lt;background color="0,0,0,0"/>
&lt;/kdenlivetitle>
</property>
  <property name="xml">was here</property>
  <property name="kdenlive:folderid">28</property>
  <property name="kdenlive:id">79</property>
  <property name="kdenlive:control_uuid">{b8e9eb8f-0021-447f-b92f-6d425ce2ab28}</property>
  <property name="kdenlive:clip_type">2</property>
  <property name="kdenlive:uniqueId">{ed26aa89-5d54-4030-8a82-7e6c919425c3}</property>
  <property name="kdenlive:file_hash">f41a3938ba33a433d121010cba440cd7</property>
  <property name="force_reload">0</property>
  <property name="meta.media.width">1920</property>
  <property name="meta.media.height">1920</property>
  <property name="kdenlive:monitorPosition">0</property>
 </producer>
 <producer id="producer8" in="00:00:00.000" out="00:00:00.400">
  <property name="length">00:00:00.433</property>
  <property name="eof">pause</property>
  <property name="resource">0xffffffff</property>
  <property name="aspect_ratio">1</property>
  <property name="mlt_service">color</property>
  <property name="kdenlive:clipname">Color Clip</property>
  <property name="kdenlive:duration">00:00:00:13</property>
  <property name="xml">was here</property>
  <property name="seekable">1</property>
  <property name="kdenlive:folderid">-1</property>
  <property name="kdenlive:id">80</property>
  <property name="kdenlive:control_uuid">{bf26e1e2-f1b0-48a7-8f15-8f220a40b866}</property>
  <property name="mlt_image_format">rgb</property>
  <property name="kdenlive:clip_type">2</property>
  <property name="kdenlive:file_hash">039b56a692cd66eefeea44a17539e5a2</property>
  <property name="kdenlive:monitorPosition">9</property>
 </producer>
 <producer id="producer102" in="00:00:00.000" out="00:00:04.967">
  <property name="length">00:00:05.000</property>
  <property name="eof">pause</property>
  <property name="resource">#fffe4f4f</property>
  <property name="aspect_ratio">1</property>
  <property name="mlt_service">color</property>
  <property name="kdenlive:clipname">Color Clip</property>
  <property name="kdenlive:duration">00:00:05.000</property>
  <property name="xml">was here</property>
  <property name="seekable">1</property>
  <property name="kdenlive:folderid">97</property>
  <property name="kdenlive:id">81</property>
  <property name="kdenlive:control_uuid">{77d863ed-823c-4bf0-9a3a-07299ec41e0e}</property>
  <property name="mlt_image_format">rgb</property>
  <property name="kdenlive:clip_type">2</property>
  <property name="kdenlive:monitorPosition">1</property>
  <property name="kdenlive:clipzones">[
    {
        "in": 0,
        "name": "Zone 1",
        "out": 28
    }
]
</property>
  <property name="kdenlive:file_hash">26774a2d5085e7ca27dc11bd714819e5</property>
 </producer>
 <producer id="producer103" in="00:00:00.000" out="00:00:04.967">
  <property name="length">00:00:05.000</property>
  <property name="eof">pause</property>
  <property name="resource">#fffe4f4f</property>
  <property name="aspect_ratio">1</property>
  <property name="mlt_service">color</property>
  <property name="kdenlive:clipname">Color Clip</property>
  <property name="kdenlive:duration">00:00:05.000</property>
  <property name="xml">was here</property>
  <property name="seekable">1</property>
  <property name="kdenlive:folderid">97</property>
  <property name="kdenlive:id">83</property>
  <property name="kdenlive:control_uuid">{77d863ed-823c-4bf0-9a3a-07299ec41e0e}</property>
  <property name="mlt_image_format">rgb</property>
  <property name="kdenlive:clip_type">2</property>
  <property name="kdenlive:monitorPosition">1</property>
  <property name="kdenlive:clipzones">[
    {
        "in": 0,
        "name": "Zone 1",
        "out": 28
    }
]
</property>
  <property name="kdenlive:file_hash">26774a2d5085e7ca27dc11bd714819e5</property>
 </producer>
 <producer id="producer19" in="00:00:00.000" out="00:00:04.967">
  <property name="length">00:00:05.000</property>
  <property name="eof">pause</property>
  <property name="resource">/home/schmilly/Downloads/vlcsnap-2024-09-29-21h40m22s188.png</property>
  <property name="ttl">25</property>
  <property name="aspect_ratio">1</property>
  <property name="meta.media.progressive">1</property>
  <property name="seekable">1</property>
  <property name="format">1</property>
  <property name="meta.media.width">1920</property>
  <property name="meta.media.height">1080</property>
  <property name="mlt_service">qimage</property>
  <property name="kdenlive:duration">00:00:05:00</property>
  <property name="xml">was here</property>
  <property name="kdenlive:folderid">-1</property>
  <property name="kdenlive:id">85</property>
  <property name="kdenlive:control_uuid">{60a998f1-4c17-4aec-a070-5061d89f9401}</property>
  <property name="kdenlive:clip_type">2</property>
  <property name="kdenlive:file_size">2484566</property>
  <property name="kdenlive:file_hash">e311e20bc5b3cc1128514d58ff38abef</property>
  <property name="kdenlive:monitorPosition">0</property>
 </producer>
 <producer id="producer49" in="00:00:00.000" out="00:00:04.967">
  <property name="length">00:00:05.000</property>
  <property name="eof">pause</property>
  <property name="resource">/home/schmilly/Downloads/vlcsnap-2024-09-29-21h36m51s928.png</property>
  <property name="ttl">25</property>
  <property name="aspect_ratio">1</property>
  <property name="meta.media.progressive">1</property>
  <property name="seekable">1</property>
  <property name="format">1</property>
  <property name="meta.media.width">3840</property>
  <property name="meta.media.height">2160</property>
  <property name="mlt_service">qimage</property>
  <property name="kdenlive:duration">00:00:05:00</property>
  <property name="xml">was here</property>
  <property name="kdenlive:folderid">-1</property>
  <property name="kdenlive:id">86</property>
  <property name="kdenlive:control_uuid">{80b5a3d9-7879-41de-b600-8c36f2f7e052}</property>
  <property name="kdenlive:clip_type">2</property>
  <property name="kdenlive:file_size">9785496</property>
  <property name="kdenlive:file_hash">52255d1268f750bae6ce05efa81dbb72</property>
  <property name="kdenlive:monitorPosition">0</property>
 </producer>
 <producer id="producer18" in="00:00:00.000" out="00:00:04.967">
  <property name="length">00:00:05.000</property>
  <property name="eof">pause</property>
  <property name="resource">/home/schmilly/Downloads/_JRS3068.jpg</property>
  <property name="ttl">25</property>
  <property name="aspect_ratio">1</property>
  <property name="meta.media.progressive">1</property>
  <property name="seekable">1</property>
  <property name="format">1</property>
  <property name="meta.media.width">3376</property>
  <property name="meta.media.height">5064</property>
  <property name="mlt_service">qimage</property>
  <property name="kdenlive:duration">00:00:05:00</property>
  <property name="xml">was here</property>
  <property name="kdenlive:folderid">-1</property>
  <property name="kdenlive:id">87</property>
  <property name="kdenlive:control_uuid">{31ba5f84-3561-4f92-9452-cca8508087cf}</property>
  <property name="kdenlive:clip_type">2</property>
  <property name="kdenlive:file_size">9655075</property>
  <property name="kdenlive:file_hash">2e09601523cc3f186fcb8d64cdeada3b</property>
  <property name="kdenlive:monitorPosition">0</property>
 </producer>
 <chain id="chain29" out="00:00:17.567">
  <property name="length">528</property>
  <property name="eof">pause</property>
  <property name="resource">/home/schmilly/Downloads/IMG_0900-60fps.mp4</property>
  <property name="mlt_service">avformat-novalidate</property>
  <property name="meta.media.nb_streams">2</property>
  <property name="meta.media.0.stream.type">video</property>
  <property name="meta.media.0.stream.frame_rate">59.9401</property>
  <property name="meta.media.0.stream.sample_aspect_ratio">0</property>
  <property name="meta.media.0.codec.width">1920</property>
  <property name="meta.media.0.codec.height">1080</property>
  <property name="meta.media.0.codec.rotate">90</property>
  <property name="meta.media.0.codec.pix_fmt">yuv420p</property>
  <property name="meta.media.0.codec.sample_aspect_ratio">0</property>
  <property name="meta.media.0.codec.colorspace">709</property>
  <property name="meta.media.0.codec.color_trc">1</property>
  <property name="meta.media.0.codec.name">h264</property>
  <property name="meta.media.0.codec.long_name">H.264 / AVC / MPEG-4 AVC / MPEG-4 part 10</property>
  <property name="meta.media.0.codec.bit_rate">48692270</property>
  <property name="meta.attr.0.stream.handler_name.markup">Core Media Video</property>
  <property name="meta.attr.0.stream.vendor_id.markup">[0][0][0][0]</property>
  <property name="meta.attr.0.stream.encoder.markup">Lavc61.19.100 libx264</property>
  <property name="meta.media.1.stream.type">audio</property>
  <property name="meta.media.1.codec.sample_fmt">fltp</property>
  <property name="meta.media.1.codec.sample_rate">44100</property>
  <property name="meta.media.1.codec.channels">2</property>
  <property name="meta.media.1.codec.layout">stereo</property>
  <property name="meta.media.1.codec.name">aac</property>
  <property name="meta.media.1.codec.long_name">AAC (Advanced Audio Coding)</property>
  <property name="meta.media.1.codec.bit_rate">251354</property>
  <property name="meta.attr.1.stream.handler_name.markup">Core Media Audio</property>
  <property name="meta.attr.1.stream.vendor_id.markup">[0][0][0][0]</property>
  <property name="meta.attr.major_brand.markup">isom</property>
  <property name="meta.attr.minor_version.markup">512</property>
  <property name="meta.attr.compatible_brands.markup">isomiso2avc1mp41</property>
  <property name="meta.attr.encoder.markup">Lavf61.7.100</property>
  <property name="seekable">1</property>
  <property name="meta.media.sample_aspect_num">1</property>
  <property name="meta.media.sample_aspect_den">1</property>
  <property name="format">3</property>
  <property name="audio_index">1</property>
  <property name="video_index">0</property>
  <property name="vstream">0</property>
  <property name="meta.media.frame_rate_num">60000</property>
  <property name="meta.media.frame_rate_den">1001</property>
  <property name="meta.media.colorspace">709</property>
  <property name="meta.media.color_trc">1</property>
  <property name="meta.media.has_b_frames">0</property>
  <property name="meta.media.width">1080</property>
  <property name="meta.media.height">1920</property>
  <property name="meta.media.color_range">mpeg</property>
  <property name="astream">0</property>
  <property name="meta.media.top_field_first">0</property>
  <property name="meta.media.progressive">1</property>
  <property name="kdenlive:control_uuid">{ac8bbade-b36e-4358-a27a-d12a6355a2a6}</property>
  <property name="kdenlive:originalurl">/home/schmilly/Downloads/IMG_0900-60fps.mp4</property>
  <property name="kdenlive:id">88</property>
  <property name="mute_on_pause">0</property>
  <property name="kdenlive:clip_type">0</property>
  <property name="kdenlive:file_size">107704102</property>
  <property name="kdenlive:file_hash">609e502527d5432026761d8b374964f1</property>
  <property name="kdenlive:folderid">-1</property>
  <property name="kdenlive:audio_max1">233</property>
  <property name="kdenlive:monitorPosition">0</property>
 </chain>
 <chain id="chain28" out="00:00:49.867">
  <property name="length">1497</property>
  <property name="eof">pause</property>
  <property name="resource">/home/schmilly/Downloads/11_1.mp4</property>
  <property name="mlt_service">avformat-novalidate</property>
  <property name="meta.media.nb_streams">2</property>
  <property name="meta.media.0.stream.type">video</property>
  <property name="meta.media.0.stream.frame_rate">29.97</property>
  <property name="meta.media.0.stream.sample_aspect_ratio">0</property>
  <property name="meta.media.0.codec.width">1920</property>
  <property name="meta.media.0.codec.height">1080</property>
  <property name="meta.media.0.codec.rotate">0</property>
  <property name="meta.media.0.codec.pix_fmt">yuv420p</property>
  <property name="meta.media.0.codec.sample_aspect_ratio">1</property>
  <property name="meta.media.0.codec.colorspace">709</property>
  <property name="meta.media.0.codec.name">h264</property>
  <property name="meta.media.0.codec.long_name">H.264 / AVC / MPEG-4 AVC / MPEG-4 part 10</property>
  <property name="meta.media.0.codec.bit_rate">10525548</property>
  <property name="meta.attr.0.stream.creation_time.markup">2021-03-22T07:05:31.000000Z</property>
  <property name="meta.attr.0.stream.language.markup">eng</property>
  <property name="meta.attr.0.stream.handler_name.markup">Mainconcept Video Media Handler</property>
  <property name="meta.attr.0.stream.vendor_id.markup">[0][0][0][0]</property>
  <property name="meta.attr.0.stream.encoder.markup">AVC Coding</property>
  <property name="meta.media.1.stream.type">audio</property>
  <property name="meta.media.1.codec.sample_fmt">fltp</property>
  <property name="meta.media.1.codec.sample_rate">48000</property>
  <property name="meta.media.1.codec.channels">2</property>
  <property name="meta.media.1.codec.layout">stereo</property>
  <property name="meta.media.1.codec.name">aac</property>
  <property name="meta.media.1.codec.long_name">AAC (Advanced Audio Coding)</property>
  <property name="meta.media.1.codec.bit_rate">317375</property>
  <property name="meta.attr.1.stream.creation_time.markup">2021-03-22T07:05:31.000000Z</property>
  <property name="meta.attr.1.stream.language.markup">eng</property>
  <property name="meta.attr.1.stream.handler_name.markup">#Mainconcept MP4 Sound Media Handler</property>
  <property name="meta.attr.1.stream.vendor_id.markup">[0][0][0][0]</property>
  <property name="meta.attr.major_brand.markup">mp42</property>
  <property name="meta.attr.minor_version.markup">0</property>
  <property name="meta.attr.compatible_brands.markup">mp42mp41</property>
  <property name="meta.attr.creation_time.markup">2021-03-22T07:05:31.000000Z</property>
  <property name="seekable">1</property>
  <property name="meta.media.sample_aspect_num">1</property>
  <property name="meta.media.sample_aspect_den">1</property>
  <property name="format">3</property>
  <property name="audio_index">1</property>
  <property name="video_index">0</property>
  <property name="vstream">0</property>
  <property name="meta.media.frame_rate_num">30000</property>
  <property name="meta.media.frame_rate_den">1001</property>
  <property name="meta.media.colorspace">709</property>
  <property name="meta.media.color_trc">2</property>
  <property name="meta.media.has_b_frames">0</property>
  <property name="meta.media.width">1920</property>
  <property name="meta.media.height">1080</property>
  <property name="meta.media.aspect_ratio">1</property>
  <property name="meta.media.color_range">mpeg</property>
  <property name="astream">0</property>
  <property name="meta.media.top_field_first">0</property>
  <property name="meta.media.progressive">1</property>
  <property name="kdenlive:folderid">-1</property>
  <property name="kdenlive:id">89</property>
  <property name="kdenlive:control_uuid">{61350f70-5f11-4b82-a823-dcef22cfecb7}</property>
  <property name="mute_on_pause">0</property>
  <property name="kdenlive:clip_type">0</property>
  <property name="kdenlive:file_size">67688090</property>
  <property name="kdenlive:file_hash">3e4a6b8963b94c58b81daf3cc56ee5dd</property>
  <property name="kdenlive:audio_max1">160</property>
  <property name="kdenlive:monitorPosition">889</property>
 </chain>
 <chain id="chain31" out="00:00:06.667">
  <property name="length">201</property>
  <property name="eof">pause</property>
  <property name="resource">/home/schmilly/Downloads/IMG_2602-30fps.mp4</property>
  <property name="mlt_service">avformat-novalidate</property>
  <property name="meta.media.nb_streams">2</property>
  <property name="meta.media.0.stream.type">video</property>
  <property name="meta.media.0.stream.frame_rate">30</property>
  <property name="meta.media.0.stream.sample_aspect_ratio">0</property>
  <property name="meta.media.0.codec.width">480</property>
  <property name="meta.media.0.codec.height">852</property>
  <property name="meta.media.0.codec.rotate">0</property>
  <property name="meta.media.0.codec.pix_fmt">yuv420p</property>
  <property name="meta.media.0.codec.sample_aspect_ratio">0</property>
  <property name="meta.media.0.codec.colorspace">709</property>
  <property name="meta.media.0.codec.color_trc">1</property>
  <property name="meta.media.0.codec.name">h264</property>
  <property name="meta.media.0.codec.long_name">H.264 / AVC / MPEG-4 AVC / MPEG-4 part 10</property>
  <property name="meta.media.0.codec.bit_rate">9380432</property>
  <property name="meta.attr.0.stream.handler_name.markup">Core Media Video</property>
  <property name="meta.attr.0.stream.vendor_id.markup">[0][0][0][0]</property>
  <property name="meta.attr.0.stream.encoder.markup">Lavc61.19.100 libx264</property>
  <property name="meta.media.1.stream.type">audio</property>
  <property name="meta.media.1.codec.sample_fmt">fltp</property>
  <property name="meta.media.1.codec.sample_rate">44100</property>
  <property name="meta.media.1.codec.channels">1</property>
  <property name="meta.media.1.codec.layout">mono</property>
  <property name="meta.media.1.codec.name">aac</property>
  <property name="meta.media.1.codec.long_name">AAC (Advanced Audio Coding)</property>
  <property name="meta.media.1.codec.bit_rate">145290</property>
  <property name="meta.attr.1.stream.handler_name.markup">Core Media Audio</property>
  <property name="meta.attr.1.stream.vendor_id.markup">[0][0][0][0]</property>
  <property name="meta.attr.major_brand.markup">isom</property>
  <property name="meta.attr.minor_version.markup">512</property>
  <property name="meta.attr.compatible_brands.markup">isomiso2avc1mp41</property>
  <property name="meta.attr.encoder.markup">Lavf61.7.100</property>
  <property name="seekable">1</property>
  <property name="meta.media.sample_aspect_num">1</property>
  <property name="meta.media.sample_aspect_den">1</property>
  <property name="format">3</property>
  <property name="audio_index">1</property>
  <property name="video_index">0</property>
  <property name="vstream">0</property>
  <property name="meta.media.frame_rate_num">30</property>
  <property name="meta.media.frame_rate_den">1</property>
  <property name="meta.media.colorspace">709</property>
  <property name="meta.media.color_trc">1</property>
  <property name="meta.media.has_b_frames">0</property>
  <property name="meta.media.width">480</property>
  <property name="meta.media.height">852</property>
  <property name="meta.media.aspect_ratio">1</property>
  <property name="meta.media.color_range">mpeg</property>
  <property name="astream">0</property>
  <property name="meta.media.top_field_first">0</property>
  <property name="meta.media.progressive">1</property>
  <property name="kdenlive:control_uuid">{9d4968df-4927-4b85-b50b-1378f4848781}</property>
  <property name="kdenlive:originalurl">/home/schmilly/Downloads/IMG_2602-30fps.mp4</property>
  <property name="kdenlive:id">90</property>
  <property name="mute_on_pause">0</property>
  <property name="kdenlive:clip_type">0</property>
  <property name="kdenlive:file_size">7985036</property>
  <property name="kdenlive:file_hash">ec7a08395f2653fac3e8e219a1894ab9</property>
  <property name="kdenlive:folderid">-1</property>
  <property name="kdenlive:audio_max1">215</property>
  <property name="kdenlive:monitorPosition">0</property>
 </chain>
 <chain id="chain33" out="00:00:30.467">
  <property name="length">915</property>
  <property name="eof">pause</property>
  <property name="resource">/home/schmilly/Downloads/IMG_3228-30fps.mp4</property>
  <property name="mlt_service">avformat-novalidate</property>
  <property name="meta.media.nb_streams">2</property>
  <property name="meta.media.0.stream.type">video</property>
  <property name="meta.media.0.stream.frame_rate">30</property>
  <property name="meta.media.0.stream.sample_aspect_ratio">0</property>
  <property name="meta.media.0.codec.width">480</property>
  <property name="meta.media.0.codec.height">852</property>
  <property name="meta.media.0.codec.rotate">0</property>
  <property name="meta.media.0.codec.pix_fmt">yuv420p</property>
  <property name="meta.media.0.codec.sample_aspect_ratio">0</property>
  <property name="meta.media.0.codec.colorspace">709</property>
  <property name="meta.media.0.codec.color_trc">1</property>
  <property name="meta.media.0.codec.name">h264</property>
  <property name="meta.media.0.codec.long_name">H.264 / AVC / MPEG-4 AVC / MPEG-4 part 10</property>
  <property name="meta.media.0.codec.bit_rate">11914743</property>
  <property name="meta.attr.0.stream.handler_name.markup">Core Media Video</property>
  <property name="meta.attr.0.stream.vendor_id.markup">[0][0][0][0]</property>
  <property name="meta.attr.0.stream.encoder.markup">Lavc61.19.100 libx264</property>
  <property name="meta.media.1.stream.type">audio</property>
  <property name="meta.media.1.codec.sample_fmt">fltp</property>
  <property name="meta.media.1.codec.sample_rate">44100</property>
  <property name="meta.media.1.codec.channels">1</property>
  <property name="meta.media.1.codec.layout">mono</property>
  <property name="meta.media.1.codec.name">aac</property>
  <property name="meta.media.1.codec.long_name">AAC (Advanced Audio Coding)</property>
  <property name="meta.media.1.codec.bit_rate">184103</property>
  <property name="meta.attr.1.stream.handler_name.markup">Core Media Audio</property>
  <property name="meta.attr.1.stream.vendor_id.markup">[0][0][0][0]</property>
  <property name="meta.attr.major_brand.markup">isom</property>
  <property name="meta.attr.minor_version.markup">512</property>
  <property name="meta.attr.compatible_brands.markup">isomiso2avc1mp41</property>
  <property name="meta.attr.encoder.markup">Lavf61.7.100</property>
  <property name="seekable">1</property>
  <property name="meta.media.sample_aspect_num">1</property>
  <property name="meta.media.sample_aspect_den">1</property>
  <property name="format">3</property>
  <property name="audio_index">1</property>
  <property name="video_index">0</property>
  <property name="vstream">0</property>
  <property name="meta.media.frame_rate_num">30</property>
  <property name="meta.media.frame_rate_den">1</property>
  <property name="meta.media.colorspace">709</property>
  <property name="meta.media.color_trc">1</property>
  <property name="meta.media.has_b_frames">0</property>
  <property name="meta.media.width">480</property>
  <property name="meta.media.height">852</property>
  <property name="meta.media.aspect_ratio">1</property>
  <property name="meta.media.color_range">mpeg</property>
  <property name="astream">0</property>
  <property name="meta.media.top_field_first">0</property>
  <property name="meta.media.progressive">1</property>
  <property name="kdenlive:control_uuid">{3a17d469-3439-45be-9980-f3ceb3aad062}</property>
  <property name="kdenlive:originalurl">/home/schmilly/Downloads/IMG_3228-30fps.mp4</property>
  <property name="kdenlive:id">91</property>
  <property name="mute_on_pause">0</property>
  <property name="kdenlive:clip_type">0</property>
  <property name="kdenlive:file_size">46154285</property>
  <property name="kdenlive:file_hash">07ed0d6d42dd7e28ba5a9a1168ad7a70</property>
  <property name="kdenlive:folderid">-1</property>
  <property name="kdenlive:audio_max1">222</property>
  <property name="kdenlive:monitorPosition">92</property>
 </chain>
 <chain id="chain30" out="00:00:38.667">
  <property name="length">1161</property>
  <property name="eof">pause</property>
  <property name="resource">/home/schmilly/Downloads/video-output-904DF217-495D-47B8-AB38-873AFB3B7E4A.mov</property>
  <property name="mlt_service">avformat-novalidate</property>
  <property name="meta.media.nb_streams">2</property>
  <property name="meta.media.0.stream.type">video</property>
  <property name="meta.media.0.stream.frame_rate">30</property>
  <property name="meta.media.0.stream.sample_aspect_ratio">0</property>
  <property name="meta.media.0.codec.width">480</property>
  <property name="meta.media.0.codec.height">852</property>
  <property name="meta.media.0.codec.rotate">0</property>
  <property name="meta.media.0.codec.pix_fmt">yuv420p</property>
  <property name="meta.media.0.codec.sample_aspect_ratio">0</property>
  <property name="meta.media.0.codec.colorspace">709</property>
  <property name="meta.media.0.codec.color_trc">1</property>
  <property name="meta.media.0.codec.name">h264</property>
  <property name="meta.media.0.codec.long_name">H.264 / AVC / MPEG-4 AVC / MPEG-4 part 10</property>
  <property name="meta.media.0.codec.bit_rate">2517455</property>
  <property name="meta.attr.0.stream.creation_time.markup">2024-08-05T01:21:39.000000Z</property>
  <property name="meta.attr.0.stream.handler_name.markup">Core Media Video</property>
  <property name="meta.attr.0.stream.vendor_id.markup">[0][0][0][0]</property>
  <property name="meta.attr.0.stream.encoder.markup">H.264</property>
  <property name="meta.media.1.stream.type">audio</property>
  <property name="meta.media.1.codec.sample_fmt">fltp</property>
  <property name="meta.media.1.codec.sample_rate">44100</property>
  <property name="meta.media.1.codec.channels">2</property>
  <property name="meta.media.1.codec.layout">stereo</property>
  <property name="meta.media.1.codec.name">aac</property>
  <property name="meta.media.1.codec.long_name">AAC (Advanced Audio Coding)</property>
  <property name="meta.media.1.codec.bit_rate">107498</property>
  <property name="meta.attr.1.stream.creation_time.markup">2024-08-05T01:21:39.000000Z</property>
  <property name="meta.attr.1.stream.handler_name.markup">Core Media Audio</property>
  <property name="meta.attr.1.stream.vendor_id.markup">[0][0][0][0]</property>
  <property name="meta.attr.major_brand.markup">qt  </property>
  <property name="meta.attr.minor_version.markup">0</property>
  <property name="meta.attr.compatible_brands.markup">qt  </property>
  <property name="meta.attr.creation_time.markup">2024-08-05T01:21:39.000000Z</property>
  <property name="seekable">1</property>
  <property name="meta.media.sample_aspect_num">1</property>
  <property name="meta.media.sample_aspect_den">1</property>
  <property name="format">3</property>
  <property name="audio_index">1</property>
  <property name="video_index">0</property>
  <property name="vstream">0</property>
  <property name="meta.media.frame_rate_num">30</property>
  <property name="meta.media.frame_rate_den">1</property>
  <property name="meta.media.colorspace">709</property>
  <property name="meta.media.color_trc">1</property>
  <property name="meta.media.has_b_frames">0</property>
  <property name="meta.media.width">480</property>
  <property name="meta.media.height">852</property>
  <property name="meta.media.aspect_ratio">1</property>
  <property name="meta.media.color_range">mpeg</property>
  <property name="astream">0</property>
  <property name="meta.media.top_field_first">0</property>
  <property name="meta.media.progressive">1</property>
  <property name="kdenlive:folderid">-1</property>
  <property name="kdenlive:id">92</property>
  <property name="kdenlive:control_uuid">{c8b725e2-92f6-4f9e-8e64-cf4d926700ed}</property>
  <property name="mute_on_pause">0</property>
  <property name="kdenlive:clip_type">0</property>
  <property name="kdenlive:file_size">12713975</property>
  <property name="kdenlive:file_hash">09166d775cac72a0ec4b5abccb874ee6</property>
  <property name="kdenlive:audio_max1">166</property>
  <property name="kdenlive:monitorPosition">0</property>
 </chain>
 <chain id="chain32" out="00:00:06.333">
  <property name="length">191</property>
  <property name="eof">pause</property>
  <property name="resource">/home/schmilly/Downloads/IMG_8054-30fps.mp4</property>
  <property name="mlt_service">avformat-novalidate</property>
  <property name="meta.media.nb_streams">2</property>
  <property name="meta.media.0.stream.type">video</property>
  <property name="meta.media.0.stream.frame_rate">30</property>
  <property name="meta.media.0.stream.sample_aspect_ratio">0</property>
  <property name="meta.media.0.codec.width">480</property>
  <property name="meta.media.0.codec.height">852</property>
  <property name="meta.media.0.codec.rotate">0</property>
  <property name="meta.media.0.codec.pix_fmt">yuv420p</property>
  <property name="meta.media.0.codec.sample_aspect_ratio">0</property>
  <property name="meta.media.0.codec.colorspace">709</property>
  <property name="meta.media.0.codec.color_trc">1</property>
  <property name="meta.media.0.codec.name">h264</property>
  <property name="meta.media.0.codec.long_name">H.264 / AVC / MPEG-4 AVC / MPEG-4 part 10</property>
  <property name="meta.media.0.codec.bit_rate">6538705</property>
  <property name="meta.attr.0.stream.handler_name.markup">Core Media Video</property>
  <property name="meta.attr.0.stream.vendor_id.markup">[0][0][0][0]</property>
  <property name="meta.attr.0.stream.encoder.markup">Lavc61.19.100 libx264</property>
  <property name="meta.media.1.stream.type">audio</property>
  <property name="meta.media.1.codec.sample_fmt">fltp</property>
  <property name="meta.media.1.codec.sample_rate">44100</property>
  <property name="meta.media.1.codec.channels">2</property>
  <property name="meta.media.1.codec.layout">stereo</property>
  <property name="meta.media.1.codec.name">aac</property>
  <property name="meta.media.1.codec.long_name">AAC (Advanced Audio Coding)</property>
  <property name="meta.media.1.codec.bit_rate">256264</property>
  <property name="meta.attr.1.stream.handler_name.markup">Core Media Audio</property>
  <property name="meta.attr.1.stream.vendor_id.markup">[0][0][0][0]</property>
  <property name="meta.attr.major_brand.markup">isom</property>
  <property name="meta.attr.minor_version.markup">512</property>
  <property name="meta.attr.compatible_brands.markup">isomiso2avc1mp41</property>
  <property name="meta.attr.encoder.markup">Lavf61.7.100</property>
  <property name="seekable">1</property>
  <property name="meta.media.sample_aspect_num">1</property>
  <property name="meta.media.sample_aspect_den">1</property>
  <property name="format">3</property>
  <property name="audio_index">1</property>
  <property name="video_index">0</property>
  <property name="vstream">0</property>
  <property name="meta.media.frame_rate_num">30</property>
  <property name="meta.media.frame_rate_den">1</property>
  <property name="meta.media.colorspace">709</property>
  <property name="meta.media.color_trc">1</property>
  <property name="meta.media.has_b_frames">0</property>
  <property name="meta.media.width">480</property>
  <property name="meta.media.height">852</property>
  <property name="meta.media.aspect_ratio">1</property>
  <property name="meta.media.color_range">mpeg</property>
  <property name="astream">0</property>
  <property name="meta.media.top_field_first">0</property>
  <property name="meta.media.progressive">1</property>
  <property name="kdenlive:control_uuid">{e6420f53-6901-4f02-bb5c-cb621e97d88a}</property>
  <property name="kdenlive:originalurl">/home/schmilly/Downloads/IMG_8054-30fps.mp4</property>
  <property name="kdenlive:id">93</property>
  <property name="mute_on_pause">0</property>
  <property name="kdenlive:clip_type">0</property>
  <property name="kdenlive:file_size">5415018</property>
  <property name="kdenlive:file_hash">123417f9d006f65b05fd6c3e55ce6646</property>
  <property name="kdenlive:folderid">-1</property>
  <property name="kdenlive:audio_max1">219</property>
  <property name="kdenlive:monitorPosition">52</property>
 </chain>
 <chain id="chain34" out="00:00:16.700">
  <property name="length">502</property>
  <property name="eof">pause</property>
  <property name="resource">/home/schmilly/Downloads/VID_20241129_081434_1-30fps.mp4</property>
  <property name="mlt_service">avformat-novalidate</property>
  <property name="meta.media.nb_streams">2</property>
  <property name="meta.media.0.stream.type">video</property>
  <property name="meta.media.0.stream.frame_rate">29.97</property>
  <property name="meta.media.0.stream.sample_aspect_ratio">0</property>
  <property name="meta.media.0.codec.width">480</property>
  <property name="meta.media.0.codec.height">854</property>
  <property name="meta.media.0.codec.rotate">270</property>
  <property name="meta.media.0.codec.pix_fmt">yuv420p</property>
  <property name="meta.media.0.codec.sample_aspect_ratio">0</property>
  <property name="meta.media.0.codec.colorspace">709</property>
  <property name="meta.media.0.codec.color_trc">1</property>
  <property name="meta.media.0.codec.name">h264</property>
  <property name="meta.media.0.codec.long_name">H.264 / AVC / MPEG-4 AVC / MPEG-4 part 10</property>
  <property name="meta.media.0.codec.bit_rate">6917785</property>
  <property name="meta.attr.0.stream.language.markup">eng</property>
  <property name="meta.attr.0.stream.handler_name.markup">VideoHandle</property>
  <property name="meta.attr.0.stream.vendor_id.markup">[0][0][0][0]</property>
  <property name="meta.attr.0.stream.encoder.markup">Lavc61.19.100 libx264</property>
  <property name="meta.media.1.stream.type">audio</property>
  <property name="meta.media.1.codec.sample_fmt">fltp</property>
  <property name="meta.media.1.codec.sample_rate">48000</property>
  <property name="meta.media.1.codec.channels">1</property>
  <property name="meta.media.1.codec.layout">mono</property>
  <property name="meta.media.1.codec.name">aac</property>
  <property name="meta.media.1.codec.long_name">AAC (Advanced Audio Coding)</property>
  <property name="meta.media.1.codec.bit_rate">124656</property>
  <property name="meta.attr.1.stream.language.markup">eng</property>
  <property name="meta.attr.1.stream.handler_name.markup">SoundHandle</property>
  <property name="meta.attr.1.stream.vendor_id.markup">[0][0][0][0]</property>
  <property name="meta.attr.major_brand.markup">isom</property>
  <property name="meta.attr.minor_version.markup">512</property>
  <property name="meta.attr.compatible_brands.markup">isomiso2avc1mp41</property>
  <property name="meta.attr.encoder.markup">Lavf61.7.100</property>
  <property name="seekable">1</property>
  <property name="meta.media.sample_aspect_num">1</property>
  <property name="meta.media.sample_aspect_den">1</property>
  <property name="format">3</property>
  <property name="audio_index">1</property>
  <property name="video_index">0</property>
  <property name="vstream">0</property>
  <property name="meta.media.frame_rate_num">30000</property>
  <property name="meta.media.frame_rate_den">1001</property>
  <property name="meta.media.colorspace">709</property>
  <property name="meta.media.color_trc">1</property>
  <property name="meta.media.has_b_frames">0</property>
  <property name="meta.media.width">854</property>
  <property name="meta.media.height">480</property>
  <property name="meta.media.color_range">mpeg</property>
  <property name="astream">0</property>
  <property name="meta.media.top_field_first">0</property>
  <property name="meta.media.progressive">1</property>
  <property name="kdenlive:control_uuid">{f658fab8-8cc5-45ac-a111-b4817b918189}</property>
  <property name="kdenlive:originalurl">/home/schmilly/Downloads/VID_20241129_081434_1-30fps.mp4</property>
  <property name="kdenlive:id">94</property>
  <property name="mute_on_pause">0</property>
  <property name="kdenlive:clip_type">0</property>
  <property name="kdenlive:file_size">14731843</property>
  <property name="kdenlive:file_hash">51740cc4d7930734c905acd092559e00</property>
  <property name="kdenlive:folderid">-1</property>
  <property name="kdenlive:audio_max1">73</property>
  <property name="kdenlive:monitorPosition">0</property>
 </chain>
 <chain id="chain35" out="00:00:27.700">
  <property name="length">832</property>
  <property name="eof">pause</property>
  <property name="resource">/home/schmilly/Downloads/20210310_100540.mp4</property>
  <property name="mlt_service">avformat-novalidate</property>
  <property name="meta.media.nb_streams">2</property>
  <property name="meta.media.0.stream.type">video</property>
  <property name="meta.media.0.stream.frame_rate">30</property>
  <property name="meta.media.0.stream.sample_aspect_ratio">0</property>
  <property name="meta.media.0.codec.width">1080</property>
  <property name="meta.media.0.codec.height">1920</property>
  <property name="meta.media.0.codec.rotate">0</property>
  <property name="meta.media.0.codec.pix_fmt">yuv420p</property>
  <property name="meta.media.0.codec.sample_aspect_ratio">1</property>
  <property name="meta.media.0.codec.colorspace">709</property>
  <property name="meta.media.0.codec.color_trc">1</property>
  <property name="meta.media.0.codec.name">h264</property>
  <property name="meta.media.0.codec.long_name">H.264 / AVC / MPEG-4 AVC / MPEG-4 part 10</property>
  <property name="meta.media.0.codec.bit_rate">6223327</property>
  <property name="meta.attr.0.stream.creation_time.markup">1970-01-01T00:00:00.000000Z</property>
  <property name="meta.attr.0.stream.handler_name.markup">ISO Media file produced by Google Inc.</property>
  <property name="meta.attr.0.stream.vendor_id.markup">[0][0][0][0]</property>
  <property name="meta.media.1.stream.type">audio</property>
  <property name="meta.media.1.codec.sample_fmt">fltp</property>
  <property name="meta.media.1.codec.sample_rate">44100</property>
  <property name="meta.media.1.codec.channels">2</property>
  <property name="meta.media.1.codec.layout">stereo</property>
  <property name="meta.media.1.codec.name">aac</property>
  <property name="meta.media.1.codec.long_name">AAC (Advanced Audio Coding)</property>
  <property name="meta.media.1.codec.bit_rate">127999</property>
  <property name="meta.attr.1.stream.creation_time.markup">1970-01-01T00:00:00.000000Z</property>
  <property name="meta.attr.1.stream.language.markup">eng</property>
  <property name="meta.attr.1.stream.handler_name.markup">ISO Media file produced by Google Inc.</property>
  <property name="meta.attr.1.stream.vendor_id.markup">[0][0][0][0]</property>
  <property name="meta.attr.major_brand.markup">mp42</property>
  <property name="meta.attr.minor_version.markup">0</property>
  <property name="meta.attr.compatible_brands.markup">isommp42</property>
  <property name="meta.attr.creation_time.markup">2021-03-09T23:06:10.000000Z</property>
  <property name="meta.attr.location.markup">+00.0000+000.0000/</property>
  <property name="seekable">1</property>
  <property name="meta.media.sample_aspect_num">1</property>
  <property name="meta.media.sample_aspect_den">1</property>
  <property name="format">3</property>
  <property name="audio_index">1</property>
  <property name="video_index">0</property>
  <property name="vstream">0</property>
  <property name="meta.media.frame_rate_num">30</property>
  <property name="meta.media.frame_rate_den">1</property>
  <property name="meta.media.colorspace">709</property>
  <property name="meta.media.color_trc">1</property>
  <property name="meta.media.has_b_frames">0</property>
  <property name="meta.media.width">1080</property>
  <property name="meta.media.height">1920</property>
  <property name="meta.media.aspect_ratio">1</property>
  <property name="meta.media.color_range">mpeg</property>
  <property name="astream">0</property>
  <property name="meta.media.top_field_first">0</property>
  <property name="meta.media.progressive">1</property>
  <property name="kdenlive:folderid">-1</property>
  <property name="kdenlive:id">95</property>
  <property name="kdenlive:control_uuid">{3d568d61-846c-49ea-bf7b-a9dc384f5989}</property>
  <property name="mute_on_pause">0</property>
  <property name="kdenlive:clip_type">0</property>
  <property name="kdenlive:file_size">21975883</property>
  <property name="kdenlive:file_hash">7bad4705f9c7cdf3ad1dcd17dd4aa9da</property>
  <property name="kdenlive:monitorPosition">0</property>
  <property name="kdenlive:audio_max1">143</property>
 </chain>
 <producer id="producer47" in="00:00:00.000" out="00:00:04.967">
  <property name="length">00:00:05.000</property>
  <property name="eof">pause</property>
  <property name="resource">/home/schmilly/Downloads/BarakBeacon_2023.07.20_Millie_Gryphon_Small-06.jpg</property>
  <property name="ttl">25</property>
  <property name="aspect_ratio">1</property>
  <property name="meta.media.progressive">1</property>
  <property name="seekable">1</property>
  <property name="format">1</property>
  <property name="meta.media.width">1350</property>
  <property name="meta.media.height">760</property>
  <property name="mlt_service">qimage</property>
  <property name="kdenlive:duration">00:00:05:00</property>
  <property name="xml">was here</property>
  <property name="kdenlive:folderid">-1</property>
  <property name="kdenlive:id">96</property>
  <property name="kdenlive:control_uuid">{1096ce62-9017-4a18-9161-cc12f7778897}</property>
  <property name="kdenlive:clip_type">2</property>
  <property name="kdenlive:file_size">997211</property>
  <property name="kdenlive:file_hash">b0ed5e4e3435448f7650e6d6861da4cd</property>
  <property name="kdenlive:monitorPosition">0</property>
 </producer>
 <producer id="producer46" in="00:00:00.000" out="00:00:04.967">
  <property name="length">00:00:05.000</property>
  <property name="eof">pause</property>
  <property name="resource">/home/schmilly/Downloads/BarakBeacon_2023.07.20_Millie_Gryphon_Small-05.jpg</property>
  <property name="ttl">25</property>
  <property name="aspect_ratio">1</property>
  <property name="meta.media.progressive">1</property>
  <property name="seekable">1</property>
  <property name="format">1</property>
  <property name="meta.media.width">1350</property>
  <property name="meta.media.height">900</property>
  <property name="mlt_service">qimage</property>
  <property name="kdenlive:duration">00:00:05:00</property>
  <property name="xml">was here</property>
  <property name="kdenlive:folderid">-1</property>
  <property name="kdenlive:id">98</property>
  <property name="kdenlive:control_uuid">{570acb2d-a46d-428f-8574-fcbaf87a0019}</property>
  <property name="kdenlive:clip_type">2</property>
  <property name="kdenlive:file_size">1239108</property>
  <property name="kdenlive:file_hash">7f0639886d7db8bb212dc9ce6940f154</property>
  <property name="kdenlive:monitorPosition">0</property>
 </producer>
 <producer id="producer12" in="00:00:00.000" out="00:00:04.967">
  <property name="length">00:00:05.000</property>
  <property name="eof">pause</property>
  <property name="resource">/home/schmilly/Downloads/20240218_123948.jpg</property>
  <property name="ttl">25</property>
  <property name="aspect_ratio">1</property>
  <property name="meta.media.progressive">1</property>
  <property name="seekable">1</property>
  <property name="format">1</property>
  <property name="meta.media.width">4080</property>
  <property name="meta.media.height">3060</property>
  <property name="mlt_service">qimage</property>
  <property name="kdenlive:duration">00:00:05:00</property>
  <property name="xml">was here</property>
  <property name="kdenlive:folderid">-1</property>
  <property name="kdenlive:id">99</property>
  <property name="kdenlive:control_uuid">{848065c6-32d8-471d-a88c-1549d4906fd4}</property>
  <property name="kdenlive:clip_type">2</property>
  <property name="kdenlive:file_size">2660350</property>
  <property name="kdenlive:file_hash">71217e2b82bcfae2ae4f36895fabaee8</property>
  <property name="kdenlive:monitorPosition">0</property>
 </producer>
 <producer id="producer13" in="00:00:00.000" out="00:00:04.967">
  <property name="length">00:00:05.000</property>
  <property name="eof">pause</property>
  <property name="resource">/home/schmilly/Downloads/20240218_122234.jpg</property>
  <property name="ttl">25</property>
  <property name="aspect_ratio">1</property>
  <property name="meta.media.progressive">1</property>
  <property name="seekable">1</property>
  <property name="format">1</property>
  <property name="meta.media.width">4080</property>
  <property name="meta.media.height">3060</property>
  <property name="mlt_service">qimage</property>
  <property name="kdenlive:duration">00:00:05:00</property>
  <property name="xml">was here</property>
  <property name="kdenlive:folderid">-1</property>
  <property name="kdenlive:id">100</property>
  <property name="kdenlive:control_uuid">{9874ade7-083d-4b92-9823-77d83774b135}</property>
  <property name="kdenlive:clip_type">2</property>
  <property name="kdenlive:file_size">3801722</property>
  <property name="kdenlive:file_hash">f3d21446d894f04ca2c9aa1cc34de189</property>
  <property name="kdenlive:monitorPosition">0</property>
 </producer>
 <producer id="producer14" in="00:00:00.000" out="00:00:04.967">
  <property name="length">00:00:05.000</property>
  <property name="eof">pause</property>
  <property name="resource">/home/schmilly/Downloads/IMG_20241108_132253_544.jpg</property>
  <property name="ttl">25</property>
  <property name="aspect_ratio">1</property>
  <property name="meta.media.progressive">1</property>
  <property name="seekable">1</property>
  <property name="format">1</property>
  <property name="meta.media.width">3072</property>
  <property name="meta.media.height">4080</property>
  <property name="mlt_service">qimage</property>
  <property name="kdenlive:duration">00:00:05:00</property>
  <property name="xml">was here</property>
  <property name="kdenlive:folderid">-1</property>
  <property name="kdenlive:id">101</property>
  <property name="kdenlive:control_uuid">{869908be-e553-427c-b1cd-cababd9bd128}</property>
  <property name="kdenlive:clip_type">2</property>
  <property name="kdenlive:file_size">507692</property>
  <property name="kdenlive:file_hash">343fe161570db6bf8b83825edd9691e8</property>
  <property name="kdenlive:monitorPosition">0</property>
 </producer>
 <producer id="producer20" in="00:00:00.000" out="00:00:04.967">
  <property name="length">00:00:05.000</property>
  <property name="eof">pause</property>
  <property name="resource">/home/schmilly/Downloads/_JRS3070.jpg</property>
  <property name="ttl">25</property>
  <property name="aspect_ratio">1</property>
  <property name="meta.media.progressive">1</property>
  <property name="seekable">1</property>
  <property name="format">1</property>
  <property name="meta.media.width">6000</property>
  <property name="meta.media.height">3376</property>
  <property name="mlt_service">qimage</property>
  <property name="kdenlive:duration">00:00:05:00</property>
  <property name="xml">was here</property>
  <property name="kdenlive:folderid">-1</property>
  <property name="kdenlive:id">102</property>
  <property name="kdenlive:control_uuid">{73d8e67a-568d-4065-a926-ac40a770a4b0}</property>
  <property name="kdenlive:clip_type">2</property>
  <property name="kdenlive:file_size">13315471</property>
  <property name="kdenlive:file_hash">f705b51ac10939b08b2b2ae9380439eb</property>
  <property name="kdenlive:monitorPosition">0</property>
 </producer>
 <producer id="producer48" in="00:00:00.000" out="00:00:04.967">
  <property name="length">00:00:05.000</property>
  <property name="eof">pause</property>
  <property name="resource">/home/schmilly/Downloads/vlcsnap-2024-09-29-21h42m06s103.png</property>
  <property name="ttl">25</property>
  <property name="aspect_ratio">1</property>
  <property name="meta.media.progressive">1</property>
  <property name="seekable">1</property>
  <property name="format">1</property>
  <property name="meta.media.width">3840</property>
  <property name="meta.media.height">2160</property>
  <property name="mlt_service">qimage</property>
  <property name="kdenlive:duration">00:00:05:00</property>
  <property name="xml">was here</property>
  <property name="kdenlive:folderid">-1</property>
  <property name="kdenlive:id">103</property>
  <property name="kdenlive:control_uuid">{2ca3a924-6418-4084-b267-79705f209535}</property>
  <property name="kdenlive:clip_type">2</property>
  <property name="kdenlive:file_size">7276611</property>
  <property name="kdenlive:file_hash">2a6352f8bbcff796a2b8f06db147fbb4</property>
  <property name="kdenlive:monitorPosition">0</property>
 </producer>
 <producer id="producer21" in="00:00:00.000" out="00:00:04.967">
  <property name="length">00:00:05.000</property>
  <property name="eof">pause</property>
  <property name="resource">/home/schmilly/Downloads/rahu no person should be without a home - Ishtar.png</property>
  <property name="ttl">25</property>
  <property name="aspect_ratio">1</property>
  <property name="meta.media.progressive">1</property>
  <property name="seekable">1</property>
  <property name="format">1</property>
  <property name="meta.media.width">5000</property>
  <property name="meta.media.height">5000</property>
  <property name="mlt_service">qimage</property>
  <property name="kdenlive:duration">00:00:05:00</property>
  <property name="xml">was here</property>
  <property name="kdenlive:folderid">-1</property>
  <property name="kdenlive:id">104</property>
  <property name="kdenlive:control_uuid">{8fdcbfb5-d3da-48ee-8cb1-879bfdc4e1ca}</property>
  <property name="kdenlive:clip_type">2</property>
  <property name="kdenlive:file_size">1022259</property>
  <property name="kdenlive:file_hash">de62f849f5d478b16fa0e49f943f03a9</property>
  <property name="kdenlive:monitorPosition">0</property>
 </producer>
 <chain id="chain36" out="00:03:06.700">
  <property name="length">5602</property>
  <property name="eof">pause</property>
  <property name="resource">/home/schmilly/Downloads/Snapinsta.app_video_AQN5sblg8yQovHaLl8Wl4Di-S-dDCC1x7xXx3ETkY2knQ1DfHPwhFYiqrDfVPMjkWkQFPPVFkaB8Q-ppaPZr-wECMTPeCtTP9q6udEI.mp4</property>
  <property name="mlt_service">avformat-novalidate</property>
  <property name="meta.media.nb_streams">2</property>
  <property name="meta.media.0.stream.type">video</property>
  <property name="meta.media.0.stream.frame_rate">30</property>
  <property name="meta.media.0.stream.sample_aspect_ratio">0</property>
  <property name="meta.media.0.codec.width">720</property>
  <property name="meta.media.0.codec.height">1280</property>
  <property name="meta.media.0.codec.rotate">0</property>
  <property name="meta.media.0.codec.pix_fmt">yuv420p</property>
  <property name="meta.media.0.codec.sample_aspect_ratio">0</property>
  <property name="meta.media.0.codec.colorspace">709</property>
  <property name="meta.media.0.codec.color_trc">1</property>
  <property name="meta.media.0.codec.name">h264</property>
  <property name="meta.media.0.codec.long_name">H.264 / AVC / MPEG-4 AVC / MPEG-4 part 10</property>
  <property name="meta.media.0.codec.bit_rate">2356326</property>
  <property name="meta.attr.0.stream.handler_name.markup">VideoHandler</property>
  <property name="meta.attr.0.stream.vendor_id.markup">[0][0][0][0]</property>
  <property name="meta.attr.0.stream.encoder.markup">AVC Coding</property>
  <property name="meta.media.1.stream.type">audio</property>
  <property name="meta.media.1.codec.sample_fmt">fltp</property>
  <property name="meta.media.1.codec.sample_rate">44100</property>
  <property name="meta.media.1.codec.channels">2</property>
  <property name="meta.media.1.codec.layout">stereo</property>
  <property name="meta.media.1.codec.name">aac</property>
  <property name="meta.media.1.codec.long_name">AAC (Advanced Audio Coding)</property>
  <property name="meta.media.1.codec.bit_rate">89200</property>
  <property name="meta.attr.1.stream.handler_name.markup">SoundHandler</property>
  <property name="meta.attr.1.stream.vendor_id.markup">[0][0][0][0]</property>
  <property name="meta.attr.major_brand.markup">isom</property>
  <property name="meta.attr.minor_version.markup">512</property>
  <property name="meta.attr.compatible_brands.markup">isomiso2avc1mp41</property>
  <property name="seekable">1</property>
  <property name="meta.media.sample_aspect_num">1</property>
  <property name="meta.media.sample_aspect_den">1</property>
  <property name="format">3</property>
  <property name="audio_index">1</property>
  <property name="video_index">0</property>
  <property name="vstream">0</property>
  <property name="meta.media.frame_rate_num">30</property>
  <property name="meta.media.frame_rate_den">1</property>
  <property name="meta.media.colorspace">709</property>
  <property name="meta.media.color_trc">1</property>
  <property name="meta.media.has_b_frames">2</property>
  <property name="meta.media.width">720</property>
  <property name="meta.media.height">1280</property>
  <property name="meta.media.aspect_ratio">1</property>
  <property name="meta.media.color_range">mpeg</property>
  <property name="astream">0</property>
  <property name="meta.media.top_field_first">0</property>
  <property name="meta.media.progressive">1</property>
  <property name="kdenlive:folderid">-1</property>
  <property name="kdenlive:id">105</property>
  <property name="kdenlive:control_uuid">{b73b238e-b6ec-4e50-b66d-b4863c90e2f0}</property>
  <property name="mute_on_pause">0</property>
  <property name="kdenlive:clip_type">0</property>
  <property name="kdenlive:file_size">57207636</property>
  <property name="kdenlive:file_hash">48188536b148067a44632d308aa24eeb</property>
  <property name="kdenlive:audio_max1">235</property>
  <property name="kdenlive:zone_in">385</property>
  <property name="kdenlive:zone_out">923</property>
  <property name="kdenlive:clipzones">[
    {
        "in": 385,
        "name": "Zone 1",
        "out": 922
    }
]
</property>
  <property name="kdenlive:monitorPosition">4319</property>
 </chain>
 <producer id="producer11" in="00:00:00.000" out="00:00:04.967">
  <property name="length">00:00:05.000</property>
  <property name="eof">pause</property>
  <property name="resource">/home/schmilly/Downloads/51149348932_08fde1eb99_c.jpg</property>
  <property name="ttl">25</property>
  <property name="aspect_ratio">1</property>
  <property name="meta.media.progressive">1</property>
  <property name="seekable">1</property>
  <property name="format">1</property>
  <property name="meta.media.width">800</property>
  <property name="meta.media.height">534</property>
  <property name="mlt_service">qimage</property>
  <property name="kdenlive:duration">00:00:05:00</property>
  <property name="xml">was here</property>
  <property name="kdenlive:folderid">-1</property>
  <property name="kdenlive:id">107</property>
  <property name="kdenlive:control_uuid">{779ba85e-a0f3-4cbe-a0dc-b8879cad144e}</property>
  <property name="kdenlive:clip_type">2</property>
  <property name="kdenlive:file_size">177722</property>
  <property name="kdenlive:file_hash">a24ac7eeafd6a1ccd6676a43d78fff9c</property>
  <property name="kdenlive:monitorPosition">58</property>
 </producer>
 <chain id="chain37" out="00:00:22.633">
  <property name="length">680</property>
  <property name="eof">pause</property>
  <property name="resource">/home/schmilly/Downloads/Snapinsta.app_video_AQNC7WJ8wsXJXQTMi7MPO0Ox-9XyWQxrYyrGq0rP5xKCP7TBytrDeZuAoT1tHidlybYVBItKTnKOi7Vk_442d_cSlgpeYMHlo4wDzMA.mp4</property>
  <property name="mlt_service">avformat-novalidate</property>
  <property name="meta.media.nb_streams">2</property>
  <property name="meta.media.0.stream.type">video</property>
  <property name="meta.media.0.stream.frame_rate">30</property>
  <property name="meta.media.0.stream.sample_aspect_ratio">0</property>
  <property name="meta.media.0.codec.width">720</property>
  <property name="meta.media.0.codec.height">1280</property>
  <property name="meta.media.0.codec.rotate">0</property>
  <property name="meta.media.0.codec.pix_fmt">yuv420p</property>
  <property name="meta.media.0.codec.sample_aspect_ratio">0</property>
  <property name="meta.media.0.codec.colorspace">709</property>
  <property name="meta.media.0.codec.color_trc">1</property>
  <property name="meta.media.0.codec.name">h264</property>
  <property name="meta.media.0.codec.long_name">H.264 / AVC / MPEG-4 AVC / MPEG-4 part 10</property>
  <property name="meta.media.0.codec.bit_rate">2056285</property>
  <property name="meta.attr.0.stream.handler_name.markup">VideoHandler</property>
  <property name="meta.attr.0.stream.vendor_id.markup">[0][0][0][0]</property>
  <property name="meta.attr.0.stream.encoder.markup">AVC Coding</property>
  <property name="meta.media.1.stream.type">audio</property>
  <property name="meta.media.1.codec.sample_fmt">fltp</property>
  <property name="meta.media.1.codec.sample_rate">44100</property>
  <property name="meta.media.1.codec.channels">2</property>
  <property name="meta.media.1.codec.layout">stereo</property>
  <property name="meta.media.1.codec.name">aac</property>
  <property name="meta.media.1.codec.long_name">AAC (Advanced Audio Coding)</property>
  <property name="meta.media.1.codec.bit_rate">83985</property>
  <property name="meta.attr.1.stream.handler_name.markup">SoundHandler</property>
  <property name="meta.attr.1.stream.vendor_id.markup">[0][0][0][0]</property>
  <property name="meta.attr.major_brand.markup">isom</property>
  <property name="meta.attr.minor_version.markup">512</property>
  <property name="meta.attr.compatible_brands.markup">isomiso2avc1mp41</property>
  <property name="seekable">1</property>
  <property name="meta.media.sample_aspect_num">1</property>
  <property name="meta.media.sample_aspect_den">1</property>
  <property name="format">3</property>
  <property name="audio_index">1</property>
  <property name="video_index">0</property>
  <property name="vstream">0</property>
  <property name="meta.media.frame_rate_num">30</property>
  <property name="meta.media.frame_rate_den">1</property>
  <property name="meta.media.colorspace">709</property>
  <property name="meta.media.color_trc">1</property>
  <property name="meta.media.has_b_frames">2</property>
  <property name="meta.media.width">720</property>
  <property name="meta.media.height">1280</property>
  <property name="meta.media.aspect_ratio">1</property>
  <property name="meta.media.color_range">mpeg</property>
  <property name="astream">0</property>
  <property name="meta.media.top_field_first">0</property>
  <property name="meta.media.progressive">1</property>
  <property name="kdenlive:folderid">-1</property>
  <property name="kdenlive:id">108</property>
  <property name="kdenlive:control_uuid">{69dfaa38-0774-4da4-a1ea-f939ea608e86}</property>
  <property name="mute_on_pause">0</property>
  <property name="kdenlive:clip_type">0</property>
  <property name="kdenlive:file_size">6066931</property>
  <property name="kdenlive:file_hash">78cfaaf6c400e9490ba85e189d36f0d2</property>
  <property name="kdenlive:audio_max1">211</property>
  <property name="kdenlive:monitorPosition">0</property>
 </chain>
 <chain id="chain38" out="00:06:47.533">
  <property name="length">12227</property>
  <property name="eof">pause</property>
  <property name="resource">/home/schmilly/Downloads/Snapinsta.app_video_AQOko_qZGNqSBXmqOoTk5sHjgAx3MfydD0v5CikwA1yxVgWuBEXtblb8-kgGSXB-eQy8KntwaK6IQmvoHB6V_EzD-30fps.mp4</property>
  <property name="mlt_service">avformat-novalidate</property>
  <property name="meta.media.nb_streams">2</property>
  <property name="meta.media.0.stream.type">video</property>
  <property name="meta.media.0.stream.frame_rate">29.97</property>
  <property name="meta.media.0.stream.sample_aspect_ratio">0</property>
  <property name="meta.media.0.codec.width">504</property>
  <property name="meta.media.0.codec.height">894</property>
  <property name="meta.media.0.codec.rotate">0</property>
  <property name="meta.media.0.codec.pix_fmt">yuv420p</property>
  <property name="meta.media.0.codec.sample_aspect_ratio">0</property>
  <property name="meta.media.0.codec.colorspace">601</property>
  <property name="meta.media.0.codec.name">h264</property>
  <property name="meta.media.0.codec.long_name">H.264 / AVC / MPEG-4 AVC / MPEG-4 part 10</property>
  <property name="meta.media.0.codec.bit_rate">13009864</property>
  <property name="meta.attr.0.stream.handler_name.markup">VideoHandler</property>
  <property name="meta.attr.0.stream.vendor_id.markup">[0][0][0][0]</property>
  <property name="meta.attr.0.stream.encoder.markup">Lavc61.19.100 libx264</property>
  <property name="meta.media.1.stream.type">audio</property>
  <property name="meta.media.1.codec.sample_fmt">fltp</property>
  <property name="meta.media.1.codec.sample_rate">44100</property>
  <property name="meta.media.1.codec.channels">2</property>
  <property name="meta.media.1.codec.layout">stereo</property>
  <property name="meta.media.1.codec.name">aac</property>
  <property name="meta.media.1.codec.long_name">AAC (Advanced Audio Coding)</property>
  <property name="meta.media.1.codec.bit_rate">223208</property>
  <property name="meta.attr.1.stream.handler_name.markup">SoundHandler</property>
  <property name="meta.attr.1.stream.vendor_id.markup">[0][0][0][0]</property>
  <property name="meta.attr.major_brand.markup">isom</property>
  <property name="meta.attr.minor_version.markup">512</property>
  <property name="meta.attr.compatible_brands.markup">isomiso2avc1mp41</property>
  <property name="meta.attr.encoder.markup">Lavf61.7.100</property>
  <property name="seekable">1</property>
  <property name="meta.media.sample_aspect_num">1</property>
  <property name="meta.media.sample_aspect_den">1</property>
  <property name="format">3</property>
  <property name="audio_index">1</property>
  <property name="video_index">0</property>
  <property name="vstream">0</property>
  <property name="meta.media.frame_rate_num">30000</property>
  <property name="meta.media.frame_rate_den">1001</property>
  <property name="meta.media.colorspace">601</property>
  <property name="meta.media.color_trc">2</property>
  <property name="meta.media.has_b_frames">0</property>
  <property name="meta.media.width">504</property>
  <property name="meta.media.height">894</property>
  <property name="meta.media.aspect_ratio">1</property>
  <property name="meta.media.color_range">mpeg</property>
  <property name="astream">0</property>
  <property name="meta.media.top_field_first">0</property>
  <property name="meta.media.progressive">1</property>
  <property name="kdenlive:control_uuid">{7ef44863-c5c5-4961-94db-d1b48f5d5184}</property>
  <property name="kdenlive:originalurl">/home/schmilly/Downloads/Snapinsta.app_video_AQOko_qZGNqSBXmqOoTk5sHjgAx3MfydD0v5CikwA1yxVgWuBEXtblb8-kgGSXB-eQy8KntwaK6IQmvoHB6V_EzD-30fps.mp4</property>
  <property name="kdenlive:id">109</property>
  <property name="mute_on_pause">0</property>
  <property name="kdenlive:clip_type">0</property>
  <property name="kdenlive:file_size">674311153</property>
  <property name="kdenlive:file_hash">c83f67367a3783172f9042649ab1e179</property>
  <property name="kdenlive:folderid">-1</property>
  <property name="kdenlive:audio_max1">231</property>
  <property name="kdenlive:monitorPosition">0</property>
 </chain>
 <producer id="producer81" in="00:00:00.000" out="00:00:04.967">
  <property name="length">00:00:05.000</property>
  <property name="eof">pause</property>
  <property name="resource">/home/schmilly/Downloads/Snapinsta.app_463187311_418226231323975_4860051291478280500_n_1080.jpg</property>
  <property name="ttl">25</property>
  <property name="aspect_ratio">1</property>
  <property name="meta.media.progressive">1</property>
  <property name="seekable">1</property>
  <property name="format">1</property>
  <property name="meta.media.width">1080</property>
  <property name="meta.media.height">1080</property>
  <property name="mlt_service">qimage</property>
  <property name="kdenlive:duration">00:00:05:00</property>
  <property name="xml">was here</property>
  <property name="kdenlive:folderid">-1</property>
  <property name="kdenlive:id">110</property>
  <property name="kdenlive:control_uuid">{803e6d93-f4b5-4b3c-9621-ad29a3948153}</property>
  <property name="kdenlive:clip_type">2</property>
  <property name="kdenlive:file_size">234799</property>
  <property name="kdenlive:file_hash">0784c5b4bcadae3b6d325a91a26697d3</property>
  <property name="kdenlive:monitorPosition">0</property>
 </producer>
 <producer id="producer82" in="00:00:00.000" out="00:00:04.967">
  <property name="length">00:00:05.000</property>
  <property name="eof">pause</property>
  <property name="resource">Art/Logo/RAHU WA Trans Logo.png</property>
  <property name="ttl">25</property>
  <property name="aspect_ratio">1</property>
  <property name="meta.media.progressive">1</property>
  <property name="seekable">1</property>
  <property name="format">2</property>
  <property name="meta.media.width">2844</property>
  <property name="meta.media.height">2848</property>
  <property name="mlt_service">qimage</property>
  <property name="kdenlive:duration">00:00:05:00</property>
  <property name="xml">was here</property>
  <property name="kdenlive:folderid">-1</property>
  <property name="kdenlive:id">111</property>
  <property name="kdenlive:control_uuid">{ee2381df-13d0-49e4-a344-5ad115c83c41}</property>
  <property name="kdenlive:clip_type">2</property>
  <property name="kdenlive:file_size">610921</property>
  <property name="kdenlive:file_hash">139deabd85b89a9946dc03b88a34eb85</property>
  <property name="kdenlive:monitorPosition">0</property>
 </producer>
 <producer id="producer72" in="00:00:00.000" out="00:00:04.967">
  <property name="length">00:00:05.000</property>
  <property name="eof">pause</property>
  <property name="resource">Art/Logo/RAHU WA Combo Pride Logo.png</property>
  <property name="ttl">25</property>
  <property name="aspect_ratio">1</property>
  <property name="meta.media.progressive">1</property>
  <property name="seekable">1</property>
  <property name="format">2</property>
  <property name="meta.media.width">2844</property>
  <property name="meta.media.height">2848</property>
  <property name="mlt_service">qimage</property>
  <property name="kdenlive:duration">00:00:05:00</property>
  <property name="xml">was here</property>
  <property name="kdenlive:folderid">-1</property>
  <property name="kdenlive:id">112</property>
  <property name="kdenlive:control_uuid">{a5c2388d-8887-46c5-be8f-397722dd63aa}</property>
  <property name="kdenlive:clip_type">2</property>
  <property name="kdenlive:file_size">611208</property>
  <property name="kdenlive:file_hash">4fccd73711b294093ca3204960e8ed9a</property>
  <property name="kdenlive:monitorPosition">0</property>
 </producer>
 <producer id="producer59" in="00:00:00.000" out="00:00:04.967">
  <property name="length">00:00:05.000</property>
  <property name="eof">pause</property>
  <property name="resource">/home/schmilly/Downloads/Snapinsta.app_465820158_864049269050084_3927228250170779861_n_1080.jpg</property>
  <property name="ttl">25</property>
  <property name="aspect_ratio">1</property>
  <property name="meta.media.progressive">1</property>
  <property name="seekable">1</property>
  <property name="format">1</property>
  <property name="meta.media.width">1080</property>
  <property name="meta.media.height">1350</property>
  <property name="mlt_service">qimage</property>
  <property name="kdenlive:duration">00:00:05:00</property>
  <property name="xml">was here</property>
  <property name="kdenlive:folderid">-1</property>
  <property name="kdenlive:id">113</property>
  <property name="kdenlive:control_uuid">{12c9a5dc-01fc-4b7d-9d88-59e0f1f3e055}</property>
  <property name="kdenlive:clip_type">2</property>
  <property name="kdenlive:file_size">102373</property>
  <property name="kdenlive:file_hash">13109076383fac67fb6b552c0a32a6a1</property>
  <property name="kdenlive:monitorPosition">0</property>
 </producer>
 <producer id="producer101" in="00:00:00.000" out="00:00:04.967">
  <property name="length">00:00:05.000</property>
  <property name="eof">pause</property>
  <property name="resource">/home/schmilly/Downloads/Unsaved Image 1.png</property>
  <property name="ttl">25</property>
  <property name="aspect_ratio">1</property>
  <property name="meta.media.progressive">1</property>
  <property name="seekable">1</property>
  <property name="format">2</property>
  <property name="meta.media.width">241</property>
  <property name="meta.media.height">238</property>
  <property name="mlt_service">qimage</property>
  <property name="kdenlive:duration">00:00:05:00</property>
  <property name="xml">was here</property>
  <property name="kdenlive:folderid">-1</property>
  <property name="kdenlive:id">114</property>
  <property name="kdenlive:control_uuid">{62d83d43-761d-4df6-a2e2-68676da0c84a}</property>
  <property name="kdenlive:clip_type">2</property>
  <property name="kdenlive:file_size">38068</property>
  <property name="kdenlive:file_hash">3c01ceb5e17063c403ea28a0c3fa8119</property>
  <property name="kdenlive:monitorPosition">0</property>
 </producer>
 <producer id="producer0" in="00:00:00.000" out="00:05:40.867">
  <property name="length">2147483647</property>
  <property name="eof">continue</property>
  <property name="resource">black</property>
  <property name="aspect_ratio">1</property>
  <property name="mlt_service">color</property>
  <property name="kdenlive:playlistid">black_track</property>
  <property name="mlt_image_format">rgba</property>
  <property name="set.test_audio">0</property>
 </producer>
 <playlist id="playlist0">
  <property name="kdenlive:audio_track">1</property>
 </playlist>
 <playlist id="playlist1">
  <property name="kdenlive:audio_track">1</property>
 </playlist>
 <tractor id="tractor0" in="00:00:00.000">
  <property name="kdenlive:audio_track">1</property>
  <property name="kdenlive:trackheight">67</property>
  <property name="kdenlive:timeline_active">1</property>
  <property name="kdenlive:collapsed">0</property>
  <property name="kdenlive:thumbs_format"/>
  <property name="kdenlive:audio_rec"/>
  <track hide="video" producer="playlist0"/>
  <track hide="video" producer="playlist1"/>
  <filter id="filter0">
   <property name="window">75</property>
   <property name="max_gain">20dB</property>
   <property name="mlt_service">volume</property>
   <property name="internal_added">237</property>
   <property name="disable">1</property>
  </filter>
  <filter id="filter1">
   <property name="channel">-1</property>
   <property name="mlt_service">panner</property>
   <property name="internal_added">237</property>
   <property name="start">0.5</property>
   <property name="disable">1</property>
  </filter>
  <filter id="filter2">
   <property name="iec_scale">0</property>
   <property name="mlt_service">audiolevel</property>
   <property name="dbpeak">1</property>
   <property name="disable">1</property>
  </filter>
 </tractor>
 <playlist id="playlist2">
  <property name="kdenlive:audio_track">1</property>
 </playlist>
 <playlist id="playlist3">
  <property name="kdenlive:audio_track">1</property>
 </playlist>
 <tractor id="tractor1" in="00:00:00.000">
  <property name="kdenlive:audio_track">1</property>
  <property name="kdenlive:trackheight">67</property>
  <property name="kdenlive:timeline_active">1</property>
  <property name="kdenlive:collapsed">0</property>
  <property name="kdenlive:thumbs_format"/>
  <property name="kdenlive:audio_rec"/>
  <track hide="video" producer="playlist2"/>
  <track hide="video" producer="playlist3"/>
  <filter id="filter3">
   <property name="window">75</property>
   <property name="max_gain">20dB</property>
   <property name="mlt_service">volume</property>
   <property name="internal_added">237</property>
   <property name="disable">1</property>
  </filter>
  <filter id="filter4">
   <property name="channel">-1</property>
   <property name="mlt_service">panner</property>
   <property name="internal_added">237</property>
   <property name="start">0.5</property>
   <property name="disable">1</property>
  </filter>
  <filter id="filter5">
   <property name="iec_scale">0</property>
   <property name="mlt_service">audiolevel</property>
   <property name="dbpeak">1</property>
   <property name="disable">1</property>
  </filter>
 </tractor>
 <playlist id="playlist4">
  <property name="kdenlive:audio_track">1</property>
 </playlist>
 <playlist id="playlist5">
  <property name="kdenlive:audio_track">1</property>
 </playlist>
 <tractor id="tractor2" in="00:00:00.000">
  <property name="kdenlive:audio_track">1</property>
  <property name="kdenlive:trackheight">67</property>
  <property name="kdenlive:timeline_active">1</property>
  <property name="kdenlive:collapsed">0</property>
  <property name="kdenlive:thumbs_format"/>
  <property name="kdenlive:audio_rec"/>
  <track hide="video" producer="playlist4"/>
  <track hide="video" producer="playlist5"/>
  <filter id="filter6">
   <property name="window">75</property>
   <property name="max_gain">20dB</property>
   <property name="mlt_service">volume</property>
   <property name="internal_added">237</property>
   <property name="disable">1</property>
  </filter>
  <filter id="filter7">
   <property name="channel">-1</property>
   <property name="mlt_service">panner</property>
   <property name="internal_added">237</property>
   <property name="start">0.5</property>
   <property name="disable">1</property>
  </filter>
  <filter id="filter8">
   <property name="iec_scale">0</property>
   <property name="mlt_service">audiolevel</property>
   <property name="dbpeak">1</property>
   <property name="disable">1</property>
  </filter>
 </tractor>
 <playlist id="playlist6">
  <property name="kdenlive:audio_track">1</property>
 </playlist>
 <playlist id="playlist7">
  <property name="kdenlive:audio_track">1</property>
 </playlist>
 <tractor id="tractor3" in="00:00:00.000">
  <property name="kdenlive:audio_track">1</property>
  <property name="kdenlive:trackheight">67</property>
  <property name="kdenlive:timeline_active">1</property>
  <property name="kdenlive:collapsed">28</property>
  <property name="kdenlive:thumbs_format"/>
  <property name="kdenlive:audio_rec"/>
  <track hide="video" producer="playlist6"/>
  <track hide="video" producer="playlist7"/>
  <filter id="filter9">
   <property name="window">75</property>
   <property name="max_gain">20dB</property>
   <property name="mlt_service">volume</property>
   <property name="internal_added">237</property>
   <property name="disable">1</property>
  </filter>
  <filter id="filter10">
   <property name="channel">-1</property>
   <property name="mlt_service">panner</property>
   <property name="internal_added">237</property>
   <property name="start">0.5</property>
   <property name="disable">1</property>
  </filter>
  <filter id="filter11">
   <property name="iec_scale">0</property>
   <property name="mlt_service">audiolevel</property>
   <property name="dbpeak">1</property>
   <property name="disable">1</property>
  </filter>
 </tractor>
 <playlist id="playlist8">
  <property name="kdenlive:audio_track">1</property>
 </playlist>
 <playlist id="playlist9">
  <property name="kdenlive:audio_track">1</property>
 </playlist>
 <tractor id="tractor4" in="00:00:00.000">
  <property name="kdenlive:audio_track">1</property>
  <property name="kdenlive:trackheight">67</property>
  <property name="kdenlive:timeline_active">1</property>
  <property name="kdenlive:collapsed">28</property>
  <property name="kdenlive:thumbs_format"/>
  <property name="kdenlive:audio_rec"/>
  <track hide="video" producer="playlist8"/>
  <track hide="video" producer="playlist9"/>
  <filter id="filter12">
   <property name="window">75</property>
   <property name="max_gain">20dB</property>
   <property name="mlt_service">volume</property>
   <property name="internal_added">237</property>
   <property name="disable">1</property>
  </filter>
  <filter id="filter13">
   <property name="channel">-1</property>
   <property name="mlt_service">panner</property>
   <property name="internal_added">237</property>
   <property name="start">0.5</property>
   <property name="disable">1</property>
  </filter>
  <filter id="filter14">
   <property name="iec_scale">0</property>
   <property name="mlt_service">audiolevel</property>
   <property name="dbpeak">1</property>
   <property name="disable">1</property>
  </filter>
 </tractor>
 <chain id="chain0" out="00:02:01.200">
  <property name="length">00:02:01.267</property>
  <property name="eof">pause</property>
  <property name="resource">/home/schmilly/Downloads/Charli xcx - 365 featuring shygirl (official audio) 4.mp3</property>
  <property name="mlt_service">avformat-novalidate</property>
  <property name="seekable">1</property>
  <property name="format">3</property>
  <property name="audio_index">0</property>
  <property name="video_index">-1</property>
  <property name="astream">0</property>
  <property name="vstream">-1</property>
  <property name="kdenlive:control_uuid">{fc83938c-acdd-4d2c-8e07-ac1856ce759c}</property>
  <property name="kdenlive:id">4</property>
  <property name="kdenlive:clip_type">1</property>
  <property name="kdenlive:file_size">2372722</property>
  <property name="kdenlive:file_hash">751c63c2f3174cc0ef044387f6bc73e8</property>
  <property name="kdenlive:folderid">-1</property>
  <property name="meta.media.nb_streams">2</property>
  <property name="meta.media.0.stream.type">audio</property>
  <property name="meta.media.0.codec.sample_fmt">fltp</property>
  <property name="meta.media.0.codec.sample_rate">48000</property>
  <property name="meta.media.0.codec.channels">2</property>
  <property name="meta.media.0.codec.layout">stereo</property>
  <property name="meta.media.0.codec.name">mp3float</property>
  <property name="meta.media.0.codec.long_name">MP3 (MPEG audio layer 3)</property>
  <property name="meta.media.0.codec.bit_rate">149868</property>
  <property name="meta.attr.0.stream.encoder.markup">Lavc58.13</property>
  <property name="meta.media.1.stream.type">video</property>
  <property name="meta.media.1.stream.frame_rate">90000</property>
  <property name="meta.media.1.stream.sample_aspect_ratio">0</property>
  <property name="meta.media.1.codec.width">1280</property>
  <property name="meta.media.1.codec.height">720</property>
  <property name="meta.media.1.codec.rotate">0</property>
  <property name="meta.media.1.codec.pix_fmt">rgb24</property>
  <property name="meta.media.1.codec.sample_aspect_ratio">0</property>
  <property name="meta.media.1.codec.colorspace">0</property>
  <property name="meta.media.1.codec.name">png</property>
  <property name="meta.media.1.codec.long_name">PNG (Portable Network Graphics) image</property>
  <property name="meta.media.1.codec.bit_rate">0</property>
  <property name="meta.attr.1.stream.title.markup">"Album cover"</property>
  <property name="meta.attr.1.stream.comment.markup">Cover (front)</property>
  <property name="meta.attr.comment.markup">https://www.youtube.com/watch?v=oslpP-s_w4E</property>
  <property name="meta.attr.title.markup">Charli xcx - 365 featuring shygirl (official audio)</property>
  <property name="meta.attr.artist.markup">Charli xcx</property>
  <property name="meta.attr.encoder.markup">Lavf58.76.100</property>
  <property name="meta.attr.description.markup">Charli xcx - 365 featuring shygirl
Stream: https://charlixcx.lnk.to/bratcompletelydifferentID

Order Brat and it's completely different but also still brat: https://charlixcx.lnk.to/StoreID

BRAT out now: https://charlixcx.lnk.to/BRATdlxID
Order BRAT: https://charlixcx.lnk.to/StoreID

Text 1-310-861-2831

https://charlixcx.com/
https://www.tiktok.com/@charlixcx 
https://www.instagram.com/charli_xcx
https://twitter.com/charli_xcx
https://www.youtube.com/@officialcharlixcx
https://facebook.com/charlixcxmusic

#Charlixcx #365 #shygirl #officialaudio</property>
  <property name="meta.attr.synopsis.markup">Charli xcx - 365 featuring shygirl
Stream: https://charlixcx.lnk.to/bratcompletelydifferentID

Order Brat and it's completely different but also still brat: https://charlixcx.lnk.to/StoreID

BRAT out now: https://charlixcx.lnk.to/BRATdlxID
Order BRAT: https://charlixcx.lnk.to/StoreID

Text 1-310-861-2831

https://charlixcx.com/
https://www.tiktok.com/@charlixcx 
https://www.instagram.com/charli_xcx
https://twitter.com/charli_xcx
https://www.youtube.com/@officialcharlixcx
https://facebook.com/charlixcxmusic

#Charlixcx #365 #shygirl #officialaudio</property>
  <property name="meta.attr.purl.markup">https://www.youtube.com/watch?v=oslpP-s_w4E</property>
  <property name="meta.attr.date.markup">2024</property>
  <property name="meta.media.sample_aspect_num">1</property>
  <property name="meta.media.sample_aspect_den">1</property>
  <property name="xml">was here</property>
  <property name="mute_on_pause">0</property>
  <property name="set.test_audio">0</property>
  <property name="set.test_image">1</property>
 </chain>
 <playlist id="playlist10">
  <property name="kdenlive:audio_track">1</property>
  <entry in="00:00:10.267" out="00:00:33.200" producer="chain0">
   <property name="kdenlive:id">4</property>
   <filter id="filter15" in="00:00:10.267" out="00:00:10.733">
    <property name="window">75</property>
    <property name="max_gain">20dB</property>
    <property name="mlt_service">volume</property>
    <property name="kdenlive_id">fadein</property>
    <property name="gain">0</property>
    <property name="end">1</property>
   </filter>
  </entry>
  <entry in="00:01:15.667" out="00:01:15.767" producer="chain0">
   <property name="kdenlive:id">4</property>
  </entry>
  <entry in="00:01:15.800" out="00:01:23.800" producer="chain0">
   <property name="kdenlive:id">4</property>
  </entry>
  <entry in="00:01:51.300" out="00:01:59.233" producer="chain0">
   <property name="kdenlive:id">4</property>
  </entry>
 </playlist>
 <playlist id="playlist11">
  <property name="kdenlive:audio_track">1</property>
 </playlist>
 <tractor id="tractor5" in="00:00:00.000" out="00:00:39.067">
  <property name="kdenlive:audio_track">1</property>
  <property name="kdenlive:trackheight">84</property>
  <property name="kdenlive:timeline_active">1</property>
  <property name="kdenlive:collapsed">0</property>
  <property name="kdenlive:thumbs_format"/>
  <property name="kdenlive:audio_rec"/>
  <track hide="video" producer="playlist10"/>
  <track hide="video" producer="playlist11"/>
  <filter id="filter16">
   <property name="window">75</property>
   <property name="max_gain">20dB</property>
   <property name="mlt_service">volume</property>
   <property name="internal_added">237</property>
   <property name="disable">1</property>
  </filter>
  <filter id="filter17">
   <property name="channel">-1</property>
   <property name="mlt_service">panner</property>
   <property name="internal_added">237</property>
   <property name="start">0.5</property>
   <property name="disable">1</property>
  </filter>
  <filter id="filter18">
   <property name="iec_scale">0</property>
   <property name="mlt_service">audiolevel</property>
   <property name="dbpeak">1</property>
   <property name="disable">1</property>
  </filter>
 </tractor>
 <playlist id="playlist12">
  <property name="kdenlive:audio_track">1</property>
 </playlist>
 <playlist id="playlist13">
  <property name="kdenlive:audio_track">1</property>
 </playlist>
 <tractor id="tractor6" in="00:00:00.000">
  <property name="kdenlive:audio_track">1</property>
  <property name="kdenlive:trackheight">67</property>
  <property name="kdenlive:timeline_active">1</property>
  <property name="kdenlive:collapsed">0</property>
  <property name="kdenlive:thumbs_format"/>
  <property name="kdenlive:audio_rec"/>
  <track hide="video" producer="playlist12"/>
  <track hide="video" producer="playlist13"/>
  <filter id="filter19">
   <property name="window">75</property>
   <property name="max_gain">20dB</property>
   <property name="mlt_service">volume</property>
   <property name="internal_added">237</property>
   <property name="disable">1</property>
  </filter>
  <filter id="filter20">
   <property name="channel">-1</property>
   <property name="mlt_service">panner</property>
   <property name="internal_added">237</property>
   <property name="start">0.5</property>
   <property name="disable">1</property>
  </filter>
  <filter id="filter21">
   <property name="iec_scale">0</property>
   <property name="mlt_service">audiolevel</property>
   <property name="dbpeak">1</property>
   <property name="disable">1</property>
  </filter>
 </tractor>
 <producer id="producer4" in="00:00:00.000" out="00:00:04.967">
  <property name="length">00:00:05.000</property>
  <property name="eof">pause</property>
  <property name="resource">0x89cd00ff</property>
  <property name="aspect_ratio">1</property>
  <property name="mlt_service">color</property>
  <property name="kdenlive:clipname">Color Clip</property>
  <property name="kdenlive:duration">00:00:05:00</property>
  <property name="xml">was here</property>
  <property name="seekable">1</property>
  <property name="kdenlive:folderid">-1</property>
  <property name="kdenlive:id">118</property>
  <property name="kdenlive:control_uuid">{f310d145-ae6e-4653-9544-c8cee4d14b7c}</property>
  <property name="mlt_image_format">rgb</property>
  <property name="kdenlive:clip_type">2</property>
  <property name="kdenlive:file_hash">6fd154059d56775635e9594de6542fa5</property>
  <property name="kdenlive:monitorPosition">0</property>
 </producer>
 <playlist id="playlist14">
  <blank length="00:00:30.600"/>
  <entry in="00:00:00.000" out="00:00:00.267" producer="producer6">
   <property name="kdenlive:id">77</property>
   <filter id="filter25">
    <property name="version">0.9</property>
    <property name="mlt_service">frei0r.transparency</property>
    <property name="kdenlive_id">frei0r.transparency</property>
    <property name="0">00:00:00.000=0.25</property>
    <property name="kdenlive:collapsed">0</property>
   </filter>
  </entry>
  <entry in="00:00:00.000" out="00:00:00.667" producer="producer7">
   <property name="kdenlive:id">79</property>
  </entry>
  <entry in="00:00:00.000" out="00:00:00.233" producer="producer8">
   <property name="kdenlive:id">80</property>
  </entry>
  <entry in="00:00:00.000" out="00:00:00.233" producer="producer40">
   <property name="kdenlive:id">12</property>
  </entry>
  <entry in="00:00:00.000" out="00:00:00.300" producer="producer2">
   <property name="kdenlive:id">16</property>
  </entry>
  <entry in="00:00:00.000" out="00:00:00.233" producer="producer8">
   <property name="kdenlive:id">80</property>
  </entry>
  <entry in="00:00:00.000" out="00:00:00.233" producer="producer40">
   <property name="kdenlive:id">12</property>
  </entry>
  <entry in="00:00:00.000" out="00:00:00.333" producer="producer2">
   <property name="kdenlive:id">16</property>
  </entry>
  <entry in="00:00:00.000" out="00:00:00.233" producer="producer8">
   <property name="kdenlive:id">80</property>
  </entry>
  <entry in="00:00:00.000" out="00:00:00.233" producer="producer40">
   <property name="kdenlive:id">12</property>
  </entry>
  <entry in="00:00:00.000" out="00:00:00.333" producer="producer2">
   <property name="kdenlive:id">16</property>
  </entry>
  <entry in="00:00:00.000" out="00:00:00.233" producer="producer8">
   <property name="kdenlive:id">80</property>
  </entry>
  <entry in="00:00:00.000" out="00:00:00.233" producer="producer40">
   <property name="kdenlive:id">12</property>
  </entry>
  <entry in="00:00:00.000" out="00:00:00.333" producer="producer2">
   <property name="kdenlive:id">16</property>
  </entry>
  <entry in="00:00:00.000" out="00:00:00.233" producer="producer8">
   <property name="kdenlive:id">80</property>
  </entry>
  <entry in="00:00:00.000" out="00:00:00.233" producer="producer40">
   <property name="kdenlive:id">12</property>
  </entry>
  <entry in="00:00:00.000" out="00:00:00.333" producer="producer2">
   <property name="kdenlive:id">16</property>
  </entry>
  <entry in="00:00:00.000" out="00:00:00.233" producer="producer8">
   <property name="kdenlive:id">80</property>
  </entry>
  <entry in="00:00:00.000" out="00:00:00.233" producer="producer40">
   <property name="kdenlive:id">12</property>
  </entry>
  <entry in="00:00:00.000" out="00:00:00.333" producer="producer2">
   <property name="kdenlive:id">16</property>
  </entry>
  <entry in="00:00:00.000" out="00:00:00.233" producer="producer8">
   <property name="kdenlive:id">80</property>
  </entry>
  <entry in="00:00:00.000" out="00:00:00.233" producer="producer40">
   <property name="kdenlive:id">12</property>
  </entry>
  <entry in="00:00:00.000" out="00:00:00.333" producer="producer2">
   <property name="kdenlive:id">16</property>
  </entry>
  <entry in="00:00:00.000" out="00:00:02.967" producer="producer4">
   <property name="kdenlive:id">118</property>
  </entry>
 </playlist>
 <playlist id="playlist15"/>
 <tractor id="tractor7" in="00:00:00.000" out="00:00:40.833">
  <property name="kdenlive:trackheight">67</property>
  <property name="kdenlive:timeline_active">1</property>
  <property name="kdenlive:collapsed">0</property>
  <property name="kdenlive:thumbs_format"/>
  <property name="kdenlive:audio_rec"/>
  <track hide="audio" producer="playlist14"/>
  <track hide="audio" producer="playlist15"/>
 </tractor>
 <chain id="chain1" out="00:00:06.667">
  <property name="length">201</property>
  <property name="eof">pause</property>
  <property name="resource">/home/schmilly/Downloads/IMG_2602-30fps.mp4</property>
  <property name="mlt_service">avformat-novalidate</property>
  <property name="seekable">1</property>
  <property name="format">3</property>
  <property name="audio_index">1</property>
  <property name="video_index">0</property>
  <property name="vstream">0</property>
  <property name="astream">0</property>
  <property name="kdenlive:control_uuid">{9d4968df-4927-4b85-b50b-1378f4848781}</property>
  <property name="kdenlive:originalurl">/home/schmilly/Downloads/IMG_2602-30fps.mp4</property>
  <property name="kdenlive:id">90</property>
  <property name="mute_on_pause">0</property>
  <property name="kdenlive:clip_type">0</property>
  <property name="kdenlive:file_size">7985036</property>
  <property name="kdenlive:file_hash">ec7a08395f2653fac3e8e219a1894ab9</property>
  <property name="kdenlive:folderid">-1</property>
  <property name="kdenlive:audio_max1">215</property>
  <property name="kdenlive:monitorPosition">0</property>
  <property name="meta.media.nb_streams">2</property>
  <property name="meta.media.0.stream.type">video</property>
  <property name="meta.media.0.stream.frame_rate">30</property>
  <property name="meta.media.0.stream.sample_aspect_ratio">0</property>
  <property name="meta.media.0.codec.width">480</property>
  <property name="meta.media.0.codec.height">852</property>
  <property name="meta.media.0.codec.rotate">0</property>
  <property name="meta.media.0.codec.pix_fmt">yuv420p</property>
  <property name="meta.media.0.codec.sample_aspect_ratio">0</property>
  <property name="meta.media.0.codec.colorspace">709</property>
  <property name="meta.media.0.codec.color_trc">1</property>
  <property name="meta.media.0.codec.name">h264</property>
  <property name="meta.media.0.codec.long_name">H.264 / AVC / MPEG-4 AVC / MPEG-4 part 10</property>
  <property name="meta.media.0.codec.bit_rate">9380432</property>
  <property name="meta.attr.0.stream.handler_name.markup">Core Media Video</property>
  <property name="meta.attr.0.stream.vendor_id.markup">[0][0][0][0]</property>
  <property name="meta.attr.0.stream.encoder.markup">Lavc61.19.100 libx264</property>
  <property name="meta.media.1.stream.type">audio</property>
  <property name="meta.media.1.codec.sample_fmt">fltp</property>
  <property name="meta.media.1.codec.sample_rate">44100</property>
  <property name="meta.media.1.codec.channels">1</property>
  <property name="meta.media.1.codec.layout">mono</property>
  <property name="meta.media.1.codec.name">aac</property>
  <property name="meta.media.1.codec.long_name">AAC (Advanced Audio Coding)</property>
  <property name="meta.media.1.codec.bit_rate">145290</property>
  <property name="meta.attr.1.stream.handler_name.markup">Core Media Audio</property>
  <property name="meta.attr.1.stream.vendor_id.markup">[0][0][0][0]</property>
  <property name="meta.attr.major_brand.markup">isom</property>
  <property name="meta.attr.minor_version.markup">512</property>
  <property name="meta.attr.compatible_brands.markup">isomiso2avc1mp41</property>
  <property name="meta.attr.encoder.markup">Lavf61.7.100</property>
  <property name="meta.media.sample_aspect_num">1</property>
  <property name="meta.media.sample_aspect_den">1</property>
  <property name="meta.media.frame_rate_num">30</property>
  <property name="meta.media.frame_rate_den">1</property>
  <property name="meta.media.colorspace">709</property>
  <property name="meta.media.color_trc">1</property>
  <property name="meta.media.has_b_frames">0</property>
  <property name="meta.media.width">480</property>
  <property name="meta.media.height">852</property>
  <property name="meta.media.aspect_ratio">1</property>
  <property name="meta.media.color_range">mpeg</property>
  <property name="xml">was here</property>
  <property name="meta.media.top_field_first">0</property>
  <property name="meta.media.progressive">1</property>
  <property name="set.test_audio">1</property>
  <property name="set.test_image">0</property>
 </chain>
 <chain id="chain2" out="00:00:17.567">
  <property name="length">528</property>
  <property name="eof">pause</property>
  <property name="resource">/home/schmilly/Downloads/IMG_0900-60fps.mp4</property>
  <property name="mlt_service">avformat-novalidate</property>
  <property name="seekable">1</property>
  <property name="format">3</property>
  <property name="audio_index">1</property>
  <property name="video_index">0</property>
  <property name="vstream">0</property>
  <property name="astream">0</property>
  <property name="kdenlive:control_uuid">{ac8bbade-b36e-4358-a27a-d12a6355a2a6}</property>
  <property name="kdenlive:originalurl">/home/schmilly/Downloads/IMG_0900-60fps.mp4</property>
  <property name="kdenlive:id">88</property>
  <property name="mute_on_pause">0</property>
  <property name="kdenlive:clip_type">0</property>
  <property name="kdenlive:file_size">107704102</property>
  <property name="kdenlive:file_hash">609e502527d5432026761d8b374964f1</property>
  <property name="kdenlive:folderid">-1</property>
  <property name="kdenlive:audio_max1">233</property>
  <property name="kdenlive:monitorPosition">0</property>
  <property name="meta.media.nb_streams">2</property>
  <property name="meta.media.0.stream.type">video</property>
  <property name="meta.media.0.stream.frame_rate">59.9401</property>
  <property name="meta.media.0.stream.sample_aspect_ratio">0</property>
  <property name="meta.media.0.codec.width">1920</property>
  <property name="meta.media.0.codec.height">1080</property>
  <property name="meta.media.0.codec.rotate">90</property>
  <property name="meta.media.0.codec.pix_fmt">yuv420p</property>
  <property name="meta.media.0.codec.sample_aspect_ratio">0</property>
  <property name="meta.media.0.codec.colorspace">709</property>
  <property name="meta.media.0.codec.color_trc">1</property>
  <property name="meta.media.0.codec.name">h264</property>
  <property name="meta.media.0.codec.long_name">H.264 / AVC / MPEG-4 AVC / MPEG-4 part 10</property>
  <property name="meta.media.0.codec.bit_rate">48692270</property>
  <property name="meta.attr.0.stream.handler_name.markup">Core Media Video</property>
  <property name="meta.attr.0.stream.vendor_id.markup">[0][0][0][0]</property>
  <property name="meta.attr.0.stream.encoder.markup">Lavc61.19.100 libx264</property>
  <property name="meta.media.1.stream.type">audio</property>
  <property name="meta.media.1.codec.sample_fmt">fltp</property>
  <property name="meta.media.1.codec.sample_rate">44100</property>
  <property name="meta.media.1.codec.channels">2</property>
  <property name="meta.media.1.codec.layout">stereo</property>
  <property name="meta.media.1.codec.name">aac</property>
  <property name="meta.media.1.codec.long_name">AAC (Advanced Audio Coding)</property>
  <property name="meta.media.1.codec.bit_rate">251354</property>
  <property name="meta.attr.1.stream.handler_name.markup">Core Media Audio</property>
  <property name="meta.attr.1.stream.vendor_id.markup">[0][0][0][0]</property>
  <property name="meta.attr.major_brand.markup">isom</property>
  <property name="meta.attr.minor_version.markup">512</property>
  <property name="meta.attr.compatible_brands.markup">isomiso2avc1mp41</property>
  <property name="meta.attr.encoder.markup">Lavf61.7.100</property>
  <property name="meta.media.sample_aspect_num">1</property>
  <property name="meta.media.sample_aspect_den">1</property>
  <property name="meta.media.frame_rate_num">60000</property>
  <property name="meta.media.frame_rate_den">1001</property>
  <property name="meta.media.colorspace">709</property>
  <property name="meta.media.color_trc">1</property>
  <property name="meta.media.has_b_frames">0</property>
  <property name="meta.media.width">1080</property>
  <property name="meta.media.height">1920</property>
  <property name="meta.media.color_range">mpeg</property>
  <property name="xml">was here</property>
  <property name="meta.media.top_field_first">0</property>
  <property name="meta.media.progressive">1</property>
  <property name="set.test_audio">1</property>
  <property name="set.test_image">0</property>
 </chain>
 <producer id="producer15" in="00:00:00.000" out="00:00:04.967">
  <property name="length">00:00:05.000</property>
  <property name="eof">pause</property>
  <property name="resource">/home/schmilly/Downloads/thumbnail_IMG_2729.jpg</property>
  <property name="ttl">25</property>
  <property name="aspect_ratio">1</property>
  <property name="meta.media.progressive">1</property>
  <property name="seekable">1</property>
  <property name="format">1</property>
  <property name="meta.media.width">1440</property>
  <property name="meta.media.height">1920</property>
  <property name="mlt_service">qimage</property>
  <property name="kdenlive:duration">00:00:05:00</property>
  <property name="xml">was here</property>
  <property name="kdenlive:folderid">-1</property>
  <property name="kdenlive:id">120</property>
  <property name="kdenlive:control_uuid">{803c7f82-19d7-44a6-a57b-2cb6c4cf5251}</property>
  <property name="kdenlive:clip_type">2</property>
  <property name="kdenlive:file_size">523613</property>
  <property name="kdenlive:file_hash">3f63f281e41d81c3c3be51a5661f91d5</property>
  <property name="kdenlive:monitorPosition">0</property>
 </producer>
 <chain id="chain3" out="00:00:16.700">
  <property name="length">502</property>
  <property name="eof">pause</property>
  <property name="resource">/home/schmilly/Downloads/VID_20241129_081434_1-30fps.mp4</property>
  <property name="mlt_service">avformat-novalidate</property>
  <property name="seekable">1</property>
  <property name="format">3</property>
  <property name="audio_index">1</property>
  <property name="video_index">0</property>
  <property name="vstream">0</property>
  <property name="astream">0</property>
  <property name="kdenlive:control_uuid">{f658fab8-8cc5-45ac-a111-b4817b918189}</property>
  <property name="kdenlive:originalurl">/home/schmilly/Downloads/VID_20241129_081434_1-30fps.mp4</property>
  <property name="kdenlive:id">94</property>
  <property name="mute_on_pause">0</property>
  <property name="kdenlive:clip_type">0</property>
  <property name="kdenlive:file_size">14731843</property>
  <property name="kdenlive:file_hash">51740cc4d7930734c905acd092559e00</property>
  <property name="kdenlive:folderid">-1</property>
  <property name="kdenlive:audio_max1">73</property>
  <property name="kdenlive:monitorPosition">0</property>
  <property name="meta.media.nb_streams">2</property>
  <property name="meta.media.0.stream.type">video</property>
  <property name="meta.media.0.stream.frame_rate">29.97</property>
  <property name="meta.media.0.stream.sample_aspect_ratio">0</property>
  <property name="meta.media.0.codec.width">480</property>
  <property name="meta.media.0.codec.height">854</property>
  <property name="meta.media.0.codec.rotate">270</property>
  <property name="meta.media.0.codec.pix_fmt">yuv420p</property>
  <property name="meta.media.0.codec.sample_aspect_ratio">0</property>
  <property name="meta.media.0.codec.colorspace">709</property>
  <property name="meta.media.0.codec.color_trc">1</property>
  <property name="meta.media.0.codec.name">h264</property>
  <property name="meta.media.0.codec.long_name">H.264 / AVC / MPEG-4 AVC / MPEG-4 part 10</property>
  <property name="meta.media.0.codec.bit_rate">6917785</property>
  <property name="meta.attr.0.stream.language.markup">eng</property>
  <property name="meta.attr.0.stream.handler_name.markup">VideoHandle</property>
  <property name="meta.attr.0.stream.vendor_id.markup">[0][0][0][0]</property>
  <property name="meta.attr.0.stream.encoder.markup">Lavc61.19.100 libx264</property>
  <property name="meta.media.1.stream.type">audio</property>
  <property name="meta.media.1.codec.sample_fmt">fltp</property>
  <property name="meta.media.1.codec.sample_rate">48000</property>
  <property name="meta.media.1.codec.channels">1</property>
  <property name="meta.media.1.codec.layout">mono</property>
  <property name="meta.media.1.codec.name">aac</property>
  <property name="meta.media.1.codec.long_name">AAC (Advanced Audio Coding)</property>
  <property name="meta.media.1.codec.bit_rate">124656</property>
  <property name="meta.attr.1.stream.language.markup">eng</property>
  <property name="meta.attr.1.stream.handler_name.markup">SoundHandle</property>
  <property name="meta.attr.1.stream.vendor_id.markup">[0][0][0][0]</property>
  <property name="meta.attr.major_brand.markup">isom</property>
  <property name="meta.attr.minor_version.markup">512</property>
  <property name="meta.attr.compatible_brands.markup">isomiso2avc1mp41</property>
  <property name="meta.attr.encoder.markup">Lavf61.7.100</property>
  <property name="meta.media.sample_aspect_num">1</property>
  <property name="meta.media.sample_aspect_den">1</property>
  <property name="meta.media.frame_rate_num">30000</property>
  <property name="meta.media.frame_rate_den">1001</property>
  <property name="meta.media.colorspace">709</property>
  <property name="meta.media.color_trc">1</property>
  <property name="meta.media.has_b_frames">0</property>
  <property name="meta.media.width">854</property>
  <property name="meta.media.height">480</property>
  <property name="meta.media.color_range">mpeg</property>
  <property name="xml">was here</property>
  <property name="meta.media.top_field_first">0</property>
  <property name="meta.media.progressive">1</property>
  <property name="set.test_audio">1</property>
  <property name="set.test_image">0</property>
 </chain>
 <producer id="producer22" in="00:00:00.000" out="00:00:17.167">
  <property name="length">516</property>
  <property name="eof">pause</property>
  <property name="resource">2.900000:/home/schmilly/Downloads/11_1.mp4</property>
  <property name="aspect_ratio">1</property>
  <property name="meta.media.nb_streams">2</property>
  <property name="meta.media.0.stream.type">video</property>
  <property name="meta.media.0.stream.frame_rate">29.97</property>
  <property name="meta.media.0.stream.sample_aspect_ratio">0</property>
  <property name="meta.media.0.codec.width">1920</property>
  <property name="meta.media.0.codec.height">1080</property>
  <property name="meta.media.0.codec.rotate">0</property>
  <property name="meta.media.0.codec.pix_fmt">yuv420p</property>
  <property name="meta.media.0.codec.sample_aspect_ratio">1</property>
  <property name="meta.media.0.codec.colorspace">709</property>
  <property name="meta.media.0.codec.name">h264</property>
  <property name="meta.media.0.codec.long_name">H.264 / AVC / MPEG-4 AVC / MPEG-4 part 10</property>
  <property name="meta.media.0.codec.bit_rate">10525548</property>
  <property name="meta.attr.0.stream.creation_time.markup">2021-03-22T07:05:31.000000Z</property>
  <property name="meta.attr.0.stream.language.markup">eng</property>
  <property name="meta.attr.0.stream.handler_name.markup">Mainconcept Video Media Handler</property>
  <property name="meta.attr.0.stream.vendor_id.markup">[0][0][0][0]</property>
  <property name="meta.attr.0.stream.encoder.markup">AVC Coding</property>
  <property name="meta.media.1.stream.type">audio</property>
  <property name="meta.media.1.codec.sample_fmt">fltp</property>
  <property name="meta.media.1.codec.sample_rate">48000</property>
  <property name="meta.media.1.codec.channels">2</property>
  <property name="meta.media.1.codec.layout">stereo</property>
  <property name="meta.media.1.codec.name">aac</property>
  <property name="meta.media.1.codec.long_name">AAC (Advanced Audio Coding)</property>
  <property name="meta.media.1.codec.bit_rate">317375</property>
  <property name="meta.attr.1.stream.creation_time.markup">2021-03-22T07:05:31.000000Z</property>
  <property name="meta.attr.1.stream.language.markup">eng</property>
  <property name="meta.attr.1.stream.handler_name.markup">#Mainconcept MP4 Sound Media Handler</property>
  <property name="meta.attr.1.stream.vendor_id.markup">[0][0][0][0]</property>
  <property name="meta.attr.major_brand.markup">mp42</property>
  <property name="meta.attr.minor_version.markup">0</property>
  <property name="meta.attr.compatible_brands.markup">mp42mp41</property>
  <property name="meta.attr.creation_time.markup">2021-03-22T07:05:31.000000Z</property>
  <property name="seekable">1</property>
  <property name="meta.media.sample_aspect_num">1</property>
  <property name="meta.media.sample_aspect_den">1</property>
  <property name="format">3</property>
  <property name="audio_index">1</property>
  <property name="video_index">0</property>
  <property name="warp_speed">2.9</property>
  <property name="warp_resource">/home/schmilly/Downloads/11_1.mp4</property>
  <property name="mlt_service">timewarp</property>
  <property name="kdenlive:control_uuid">{61350f70-5f11-4b82-a823-dcef22cfecb7}</property>
  <property name="vstream">0</property>
  <property name="astream">0</property>
  <property name="set.test_audio">1</property>
  <property name="set.test_image">0</property>
  <property name="kdenlive:id">89</property>
  <property name="warp_pitch">0</property>
  <property name="meta.media.frame_rate_num">30000</property>
  <property name="meta.media.frame_rate_den">1001</property>
  <property name="meta.media.colorspace">709</property>
  <property name="meta.media.color_trc">2</property>
  <property name="meta.media.has_b_frames">0</property>
  <property name="meta.media.width">1920</property>
  <property name="meta.media.height">1080</property>
  <property name="meta.media.aspect_ratio">1</property>
  <property name="meta.media.color_range">mpeg</property>
  <property name="meta.media.top_field_first">0</property>
  <property name="meta.media.progressive">1</property>
 </producer>
 <producer id="producer42" in="00:00:00.000" out="00:00:37.300">
  <property name="length">1120</property>
  <property name="eof">pause</property>
  <property name="resource">5.000000:/home/schmilly/Downloads/Snapinsta.app_video_AQN5sblg8yQovHaLl8Wl4Di-S-dDCC1x7xXx3ETkY2knQ1DfHPwhFYiqrDfVPMjkWkQFPPVFkaB8Q-ppaPZr-wECMTPeCtTP9q6udEI.mp4</property>
  <property name="aspect_ratio">1</property>
  <property name="meta.media.nb_streams">2</property>
  <property name="meta.media.0.stream.type">video</property>
  <property name="meta.media.0.stream.frame_rate">30</property>
  <property name="meta.media.0.stream.sample_aspect_ratio">0</property>
  <property name="meta.media.0.codec.width">720</property>
  <property name="meta.media.0.codec.height">1280</property>
  <property name="meta.media.0.codec.rotate">0</property>
  <property name="meta.media.0.codec.pix_fmt">yuv420p</property>
  <property name="meta.media.0.codec.sample_aspect_ratio">0</property>
  <property name="meta.media.0.codec.colorspace">709</property>
  <property name="meta.media.0.codec.color_trc">1</property>
  <property name="meta.media.0.codec.name">h264</property>
  <property name="meta.media.0.codec.long_name">H.264 / AVC / MPEG-4 AVC / MPEG-4 part 10</property>
  <property name="meta.media.0.codec.bit_rate">2356326</property>
  <property name="meta.attr.0.stream.handler_name.markup">VideoHandler</property>
  <property name="meta.attr.0.stream.vendor_id.markup">[0][0][0][0]</property>
  <property name="meta.attr.0.stream.encoder.markup">AVC Coding</property>
  <property name="meta.media.1.stream.type">audio</property>
  <property name="meta.media.1.codec.sample_fmt">fltp</property>
  <property name="meta.media.1.codec.sample_rate">44100</property>
  <property name="meta.media.1.codec.channels">2</property>
  <property name="meta.media.1.codec.layout">stereo</property>
  <property name="meta.media.1.codec.name">aac</property>
  <property name="meta.media.1.codec.long_name">AAC (Advanced Audio Coding)</property>
  <property name="meta.media.1.codec.bit_rate">89200</property>
  <property name="meta.attr.1.stream.handler_name.markup">SoundHandler</property>
  <property name="meta.attr.1.stream.vendor_id.markup">[0][0][0][0]</property>
  <property name="meta.attr.major_brand.markup">isom</property>
  <property name="meta.attr.minor_version.markup">512</property>
  <property name="meta.attr.compatible_brands.markup">isomiso2avc1mp41</property>
  <property name="seekable">1</property>
  <property name="meta.media.sample_aspect_num">1</property>
  <property name="meta.media.sample_aspect_den">1</property>
  <property name="format">3</property>
  <property name="audio_index">1</property>
  <property name="video_index">0</property>
  <property name="warp_speed">5</property>
  <property name="warp_resource">/home/schmilly/Downloads/Snapinsta.app_video_AQN5sblg8yQovHaLl8Wl4Di-S-dDCC1x7xXx3ETkY2knQ1DfHPwhFYiqrDfVPMjkWkQFPPVFkaB8Q-ppaPZr-wECMTPeCtTP9q6udEI.mp4</property>
  <property name="mlt_service">timewarp</property>
  <property name="kdenlive:control_uuid">{b73b238e-b6ec-4e50-b66d-b4863c90e2f0}</property>
  <property name="vstream">0</property>
  <property name="astream">0</property>
  <property name="set.test_audio">1</property>
  <property name="set.test_image">0</property>
  <property name="kdenlive:id">105</property>
  <property name="warp_pitch">0</property>
  <property name="meta.media.frame_rate_num">30</property>
  <property name="meta.media.frame_rate_den">1</property>
  <property name="meta.media.colorspace">709</property>
  <property name="meta.media.color_trc">1</property>
  <property name="meta.media.has_b_frames">2</property>
  <property name="meta.media.width">720</property>
  <property name="meta.media.height">1280</property>
  <property name="meta.media.aspect_ratio">1</property>
  <property name="meta.media.color_range">mpeg</property>
  <property name="meta.media.top_field_first">0</property>
  <property name="meta.media.progressive">1</property>
 </producer>
 <chain id="chain4" out="00:00:06.333">
  <property name="length">191</property>
  <property name="eof">pause</property>
  <property name="resource">/home/schmilly/Downloads/IMG_8054-30fps.mp4</property>
  <property name="mlt_service">avformat-novalidate</property>
  <property name="seekable">1</property>
  <property name="format">3</property>
  <property name="audio_index">1</property>
  <property name="video_index">0</property>
  <property name="vstream">0</property>
  <property name="astream">0</property>
  <property name="kdenlive:control_uuid">{e6420f53-6901-4f02-bb5c-cb621e97d88a}</property>
  <property name="kdenlive:originalurl">/home/schmilly/Downloads/IMG_8054-30fps.mp4</property>
  <property name="kdenlive:id">93</property>
  <property name="mute_on_pause">0</property>
  <property name="kdenlive:clip_type">0</property>
  <property name="kdenlive:file_size">5415018</property>
  <property name="kdenlive:file_hash">123417f9d006f65b05fd6c3e55ce6646</property>
  <property name="kdenlive:folderid">-1</property>
  <property name="kdenlive:audio_max1">219</property>
  <property name="kdenlive:monitorPosition">52</property>
  <property name="meta.media.nb_streams">2</property>
  <property name="meta.media.0.stream.type">video</property>
  <property name="meta.media.0.stream.frame_rate">30</property>
  <property name="meta.media.0.stream.sample_aspect_ratio">0</property>
  <property name="meta.media.0.codec.width">480</property>
  <property name="meta.media.0.codec.height">852</property>
  <property name="meta.media.0.codec.rotate">0</property>
  <property name="meta.media.0.codec.pix_fmt">yuv420p</property>
  <property name="meta.media.0.codec.sample_aspect_ratio">0</property>
  <property name="meta.media.0.codec.colorspace">709</property>
  <property name="meta.media.0.codec.color_trc">1</property>
  <property name="meta.media.0.codec.name">h264</property>
  <property name="meta.media.0.codec.long_name">H.264 / AVC / MPEG-4 AVC / MPEG-4 part 10</property>
  <property name="meta.media.0.codec.bit_rate">6538705</property>
  <property name="meta.attr.0.stream.handler_name.markup">Core Media Video</property>
  <property name="meta.attr.0.stream.vendor_id.markup">[0][0][0][0]</property>
  <property name="meta.attr.0.stream.encoder.markup">Lavc61.19.100 libx264</property>
  <property name="meta.media.1.stream.type">audio</property>
  <property name="meta.media.1.codec.sample_fmt">fltp</property>
  <property name="meta.media.1.codec.sample_rate">44100</property>
  <property name="meta.media.1.codec.channels">2</property>
  <property name="meta.media.1.codec.layout">stereo</property>
  <property name="meta.media.1.codec.name">aac</property>
  <property name="meta.media.1.codec.long_name">AAC (Advanced Audio Coding)</property>
  <property name="meta.media.1.codec.bit_rate">256264</property>
  <property name="meta.attr.1.stream.handler_name.markup">Core Media Audio</property>
  <property name="meta.attr.1.stream.vendor_id.markup">[0][0][0][0]</property>
  <property name="meta.attr.major_brand.markup">isom</property>
  <property name="meta.attr.minor_version.markup">512</property>
  <property name="meta.attr.compatible_brands.markup">isomiso2avc1mp41</property>
  <property name="meta.attr.encoder.markup">Lavf61.7.100</property>
  <property name="meta.media.sample_aspect_num">1</property>
  <property name="meta.media.sample_aspect_den">1</property>
  <property name="meta.media.frame_rate_num">30</property>
  <property name="meta.media.frame_rate_den">1</property>
  <property name="meta.media.colorspace">709</property>
  <property name="meta.media.color_trc">1</property>
  <property name="meta.media.has_b_frames">0</property>
  <property name="meta.media.width">480</property>
  <property name="meta.media.height">852</property>
  <property name="meta.media.aspect_ratio">1</property>
  <property name="meta.media.color_range">mpeg</property>
  <property name="xml">was here</property>
  <property name="meta.media.top_field_first">0</property>
  <property name="meta.media.progressive">1</property>
  <property name="set.test_audio">1</property>
  <property name="set.test_image">0</property>
 </chain>
 <chain id="chain10" out="00:00:38.667">
  <property name="length">1161</property>
  <property name="eof">pause</property>
  <property name="resource">/home/schmilly/Downloads/video-output-904DF217-495D-47B8-AB38-873AFB3B7E4A.mov</property>
  <property name="mlt_service">avformat-novalidate</property>
  <property name="seekable">1</property>
  <property name="format">3</property>
  <property name="audio_index">1</property>
  <property name="video_index">0</property>
  <property name="vstream">0</property>
  <property name="astream">0</property>
  <property name="kdenlive:folderid">-1</property>
  <property name="kdenlive:id">92</property>
  <property name="kdenlive:control_uuid">{c8b725e2-92f6-4f9e-8e64-cf4d926700ed}</property>
  <property name="mute_on_pause">0</property>
  <property name="kdenlive:clip_type">0</property>
  <property name="kdenlive:file_size">12713975</property>
  <property name="kdenlive:file_hash">09166d775cac72a0ec4b5abccb874ee6</property>
  <property name="kdenlive:audio_max1">166</property>
  <property name="kdenlive:monitorPosition">0</property>
  <property name="meta.media.nb_streams">2</property>
  <property name="meta.media.0.stream.type">video</property>
  <property name="meta.media.0.stream.frame_rate">30</property>
  <property name="meta.media.0.stream.sample_aspect_ratio">0</property>
  <property name="meta.media.0.codec.width">480</property>
  <property name="meta.media.0.codec.height">852</property>
  <property name="meta.media.0.codec.rotate">0</property>
  <property name="meta.media.0.codec.pix_fmt">yuv420p</property>
  <property name="meta.media.0.codec.sample_aspect_ratio">0</property>
  <property name="meta.media.0.codec.colorspace">709</property>
  <property name="meta.media.0.codec.color_trc">1</property>
  <property name="meta.media.0.codec.name">h264</property>
  <property name="meta.media.0.codec.long_name">H.264 / AVC / MPEG-4 AVC / MPEG-4 part 10</property>
  <property name="meta.media.0.codec.bit_rate">2517455</property>
  <property name="meta.attr.0.stream.creation_time.markup">2024-08-05T01:21:39.000000Z</property>
  <property name="meta.attr.0.stream.handler_name.markup">Core Media Video</property>
  <property name="meta.attr.0.stream.vendor_id.markup">[0][0][0][0]</property>
  <property name="meta.attr.0.stream.encoder.markup">H.264</property>
  <property name="meta.media.1.stream.type">audio</property>
  <property name="meta.media.1.codec.sample_fmt">fltp</property>
  <property name="meta.media.1.codec.sample_rate">44100</property>
  <property name="meta.media.1.codec.channels">2</property>
  <property name="meta.media.1.codec.layout">stereo</property>
  <property name="meta.media.1.codec.name">aac</property>
  <property name="meta.media.1.codec.long_name">AAC (Advanced Audio Coding)</property>
  <property name="meta.media.1.codec.bit_rate">107498</property>
  <property name="meta.attr.1.stream.creation_time.markup">2024-08-05T01:21:39.000000Z</property>
  <property name="meta.attr.1.stream.handler_name.markup">Core Media Audio</property>
  <property name="meta.attr.1.stream.vendor_id.markup">[0][0][0][0]</property>
  <property name="meta.attr.major_brand.markup">qt  </property>
  <property name="meta.attr.minor_version.markup">0</property>
  <property name="meta.attr.compatible_brands.markup">qt  </property>
  <property name="meta.attr.creation_time.markup">2024-08-05T01:21:39.000000Z</property>
  <property name="meta.media.sample_aspect_num">1</property>
  <property name="meta.media.sample_aspect_den">1</property>
  <property name="meta.media.frame_rate_num">30</property>
  <property name="meta.media.frame_rate_den">1</property>
  <property name="meta.media.colorspace">709</property>
  <property name="meta.media.color_trc">1</property>
  <property name="meta.media.has_b_frames">0</property>
  <property name="meta.media.width">480</property>
  <property name="meta.media.height">852</property>
  <property name="meta.media.aspect_ratio">1</property>
  <property name="meta.media.color_range">mpeg</property>
  <property name="xml">was here</property>
  <property name="meta.media.top_field_first">0</property>
  <property name="meta.media.progressive">1</property>
  <property name="set.test_audio">1</property>
  <property name="set.test_image">0</property>
 </chain>
 <producer id="producer50" in="00:00:00.000" out="00:00:04.500">
  <property name="length">136</property>
  <property name="eof">pause</property>
  <property name="resource">5.000000:/home/schmilly/Downloads/Snapinsta.app_video_AQNC7WJ8wsXJXQTMi7MPO0Ox-9XyWQxrYyrGq0rP5xKCP7TBytrDeZuAoT1tHidlybYVBItKTnKOi7Vk_442d_cSlgpeYMHlo4wDzMA.mp4</property>
  <property name="aspect_ratio">1</property>
  <property name="meta.media.nb_streams">2</property>
  <property name="meta.media.0.stream.type">video</property>
  <property name="meta.media.0.stream.frame_rate">30</property>
  <property name="meta.media.0.stream.sample_aspect_ratio">0</property>
  <property name="meta.media.0.codec.width">720</property>
  <property name="meta.media.0.codec.height">1280</property>
  <property name="meta.media.0.codec.rotate">0</property>
  <property name="meta.media.0.codec.pix_fmt">yuv420p</property>
  <property name="meta.media.0.codec.sample_aspect_ratio">0</property>
  <property name="meta.media.0.codec.colorspace">709</property>
  <property name="meta.media.0.codec.color_trc">1</property>
  <property name="meta.media.0.codec.name">h264</property>
  <property name="meta.media.0.codec.long_name">H.264 / AVC / MPEG-4 AVC / MPEG-4 part 10</property>
  <property name="meta.media.0.codec.bit_rate">2056285</property>
  <property name="meta.attr.0.stream.handler_name.markup">VideoHandler</property>
  <property name="meta.attr.0.stream.vendor_id.markup">[0][0][0][0]</property>
  <property name="meta.attr.0.stream.encoder.markup">AVC Coding</property>
  <property name="meta.media.1.stream.type">audio</property>
  <property name="meta.media.1.codec.sample_fmt">fltp</property>
  <property name="meta.media.1.codec.sample_rate">44100</property>
  <property name="meta.media.1.codec.channels">2</property>
  <property name="meta.media.1.codec.layout">stereo</property>
  <property name="meta.media.1.codec.name">aac</property>
  <property name="meta.media.1.codec.long_name">AAC (Advanced Audio Coding)</property>
  <property name="meta.media.1.codec.bit_rate">83985</property>
  <property name="meta.attr.1.stream.handler_name.markup">SoundHandler</property>
  <property name="meta.attr.1.stream.vendor_id.markup">[0][0][0][0]</property>
  <property name="meta.attr.major_brand.markup">isom</property>
  <property name="meta.attr.minor_version.markup">512</property>
  <property name="meta.attr.compatible_brands.markup">isomiso2avc1mp41</property>
  <property name="seekable">1</property>
  <property name="meta.media.sample_aspect_num">1</property>
  <property name="meta.media.sample_aspect_den">1</property>
  <property name="format">3</property>
  <property name="audio_index">1</property>
  <property name="video_index">0</property>
  <property name="warp_speed">5</property>
  <property name="warp_resource">/home/schmilly/Downloads/Snapinsta.app_video_AQNC7WJ8wsXJXQTMi7MPO0Ox-9XyWQxrYyrGq0rP5xKCP7TBytrDeZuAoT1tHidlybYVBItKTnKOi7Vk_442d_cSlgpeYMHlo4wDzMA.mp4</property>
  <property name="mlt_service">timewarp</property>
  <property name="kdenlive:control_uuid">{69dfaa38-0774-4da4-a1ea-f939ea608e86}</property>
  <property name="vstream">0</property>
  <property name="astream">0</property>
  <property name="set.test_audio">1</property>
  <property name="set.test_image">0</property>
  <property name="kdenlive:id">108</property>
  <property name="warp_pitch">0</property>
  <property name="meta.media.frame_rate_num">30</property>
  <property name="meta.media.frame_rate_den">1</property>
  <property name="meta.media.colorspace">709</property>
  <property name="meta.media.color_trc">1</property>
  <property name="meta.media.has_b_frames">2</property>
  <property name="meta.media.width">720</property>
  <property name="meta.media.height">1280</property>
  <property name="meta.media.aspect_ratio">1</property>
  <property name="meta.media.color_range">mpeg</property>
  <property name="meta.media.top_field_first">0</property>
  <property name="meta.media.progressive">1</property>
 </producer>
 <chain id="chain12" out="00:00:27.700">
  <property name="length">832</property>
  <property name="eof">pause</property>
  <property name="resource">/home/schmilly/Downloads/20210310_100540.mp4</property>
  <property name="mlt_service">avformat-novalidate</property>
  <property name="seekable">1</property>
  <property name="format">3</property>
  <property name="audio_index">1</property>
  <property name="video_index">0</property>
  <property name="vstream">0</property>
  <property name="astream">0</property>
  <property name="kdenlive:folderid">-1</property>
  <property name="kdenlive:id">95</property>
  <property name="kdenlive:control_uuid">{3d568d61-846c-49ea-bf7b-a9dc384f5989}</property>
  <property name="mute_on_pause">0</property>
  <property name="kdenlive:clip_type">0</property>
  <property name="kdenlive:file_size">21975883</property>
  <property name="kdenlive:file_hash">7bad4705f9c7cdf3ad1dcd17dd4aa9da</property>
  <property name="kdenlive:monitorPosition">0</property>
  <property name="kdenlive:audio_max1">143</property>
  <property name="meta.media.nb_streams">2</property>
  <property name="meta.media.0.stream.type">video</property>
  <property name="meta.media.0.stream.frame_rate">30</property>
  <property name="meta.media.0.stream.sample_aspect_ratio">0</property>
  <property name="meta.media.0.codec.width">1080</property>
  <property name="meta.media.0.codec.height">1920</property>
  <property name="meta.media.0.codec.rotate">0</property>
  <property name="meta.media.0.codec.pix_fmt">yuv420p</property>
  <property name="meta.media.0.codec.sample_aspect_ratio">1</property>
  <property name="meta.media.0.codec.colorspace">709</property>
  <property name="meta.media.0.codec.color_trc">1</property>
  <property name="meta.media.0.codec.name">h264</property>
  <property name="meta.media.0.codec.long_name">H.264 / AVC / MPEG-4 AVC / MPEG-4 part 10</property>
  <property name="meta.media.0.codec.bit_rate">6223327</property>
  <property name="meta.attr.0.stream.creation_time.markup">1970-01-01T00:00:00.000000Z</property>
  <property name="meta.attr.0.stream.handler_name.markup">ISO Media file produced by Google Inc.</property>
  <property name="meta.attr.0.stream.vendor_id.markup">[0][0][0][0]</property>
  <property name="meta.media.1.stream.type">audio</property>
  <property name="meta.media.1.codec.sample_fmt">fltp</property>
  <property name="meta.media.1.codec.sample_rate">44100</property>
  <property name="meta.media.1.codec.channels">2</property>
  <property name="meta.media.1.codec.layout">stereo</property>
  <property name="meta.media.1.codec.name">aac</property>
  <property name="meta.media.1.codec.long_name">AAC (Advanced Audio Coding)</property>
  <property name="meta.media.1.codec.bit_rate">127999</property>
  <property name="meta.attr.1.stream.creation_time.markup">1970-01-01T00:00:00.000000Z</property>
  <property name="meta.attr.1.stream.language.markup">eng</property>
  <property name="meta.attr.1.stream.handler_name.markup">ISO Media file produced by Google Inc.</property>
  <property name="meta.attr.1.stream.vendor_id.markup">[0][0][0][0]</property>
  <property name="meta.attr.major_brand.markup">mp42</property>
  <property name="meta.attr.minor_version.markup">0</property>
  <property name="meta.attr.compatible_brands.markup">isommp42</property>
  <property name="meta.attr.creation_time.markup">2021-03-09T23:06:10.000000Z</property>
  <property name="meta.attr.location.markup">+00.0000+000.0000/</property>
  <property name="meta.media.sample_aspect_num">1</property>
  <property name="meta.media.sample_aspect_den">1</property>
  <property name="meta.media.frame_rate_num">30</property>
  <property name="meta.media.frame_rate_den">1</property>
  <property name="meta.media.colorspace">709</property>
  <property name="meta.media.color_trc">1</property>
  <property name="meta.media.has_b_frames">0</property>
  <property name="meta.media.width">1080</property>
  <property name="meta.media.height">1920</property>
  <property name="meta.media.aspect_ratio">1</property>
  <property name="meta.media.color_range">mpeg</property>
  <property name="xml">was here</property>
  <property name="meta.media.top_field_first">0</property>
  <property name="meta.media.progressive">1</property>
  <property name="set.test_audio">1</property>
  <property name="set.test_image">0</property>
 </chain>
 <playlist id="playlist16">
  <blank length="00:00:01.333"/>
  <entry in="00:00:00.000" out="00:00:00.800" producer="producer1">
   <property name="kdenlive:id">14</property>
  </entry>
  <entry in="00:00:00.000" out="00:00:01.667" producer="producer2">
   <property name="kdenlive:id">16</property>
  </entry>
  <entry in="00:00:00.000" out="00:00:00.967" producer="producer3">
   <property name="kdenlive:id">15</property>
  </entry>
  <entry in="00:00:00.000" out="00:00:00.900" producer="producer2">
   <property name="kdenlive:id">16</property>
  </entry>
  <entry in="00:00:00.000" out="00:00:00.567" producer="producer1">
   <property name="kdenlive:id">14</property>
  </entry>
  <entry in="00:00:00.000" out="00:00:00.833" producer="producer2">
   <property name="kdenlive:id">16</property>
  </entry>
  <blank length="00:00:01.000"/>
  <entry in="00:00:00.000" out="00:00:00.967" producer="producer1">
   <property name="kdenlive:id">14</property>
  </entry>
  <entry in="00:00:00.000" out="00:00:00.833" producer="producer4">
   <property name="kdenlive:id">118</property>
  </entry>
  <blank length="00:00:00.100"/>
  <entry in="00:00:00.000" out="00:00:00.267" producer="producer6">
   <property name="kdenlive:id">77</property>
   <filter id="filter22">
    <property name="version">0.9</property>
    <property name="mlt_service">frei0r.transparency</property>
    <property name="kdenlive_id">frei0r.transparency</property>
    <property name="0">00:00:00.000=0.25</property>
    <property name="kdenlive:collapsed">0</property>
   </filter>
   <filter id="filter23">
    <property name="rotate_center">1</property>
    <property name="mlt_service">qtblend</property>
    <property name="kdenlive_id">qtblend</property>
    <property name="compositing">0</property>
    <property name="distort">0</property>
    <property name="rect">00:00:00.000=299 299 1331 1331 1.000000</property>
    <property name="rotation">00:00:00.000=0</property>
    <property name="kdenlive:collapsed">0</property>
   </filter>
   <filter id="filter24">
    <property name="version">0.1</property>
    <property name="mlt_service">frei0r.glitch0r</property>
    <property name="kdenlive_id">frei0r.glitch0r</property>
    <property name="0">00:00:00.000=0.094</property>
    <property name="1">00:00:00.000=0.49913</property>
    <property name="2">00:00:00.000=0.499305</property>
    <property name="3">00:00:00.000=0.306</property>
   </filter>
  </entry>
  <blank length="00:00:21.067"/>
  <entry in="00:00:00.000" out="00:00:00.100" producer="producer11">
   <property name="kdenlive:id">107</property>
   <filter id="filter26">
    <property name="rotate_center">1</property>
    <property name="mlt_service">qtblend</property>
    <property name="kdenlive_id">qtblend</property>
    <property name="compositing">0</property>
    <property name="distort">1</property>
    <property name="rect">00:00:00.000=0 0 1920 1920 1</property>
    <property name="rotation">00:00:00.000=0</property>
   </filter>
  </entry>
  <entry in="00:00:00.000" out="00:00:00.100" producer="producer77">
   <property name="kdenlive:id">63</property>
   <filter id="filter27">
    <property name="rotate_center">1</property>
    <property name="mlt_service">qtblend</property>
    <property name="kdenlive_id">qtblend</property>
    <property name="compositing">0</property>
    <property name="distort">1</property>
    <property name="rect">00:00:00.000=0 0 1920 1920 1</property>
    <property name="rotation">00:00:00.000=0</property>
   </filter>
  </entry>
  <entry in="00:00:00.000" out="00:00:00.100" producer="producer75">
   <property name="kdenlive:id">62</property>
   <filter id="filter28">
    <property name="rotate_center">1</property>
    <property name="mlt_service">qtblend</property>
    <property name="kdenlive_id">qtblend</property>
    <property name="compositing">0</property>
    <property name="distort">1</property>
    <property name="rect">00:00:00.000=0 0 1920 1920 1</property>
    <property name="rotation">00:00:00.000=0</property>
    <property name="kdenlive:collapsed">0</property>
   </filter>
   <filter id="filter29">
    <property name="rotate_center">1</property>
    <property name="mlt_service">qtblend</property>
    <property name="kdenlive_id">qtblend</property>
    <property name="compositing">0</property>
    <property name="distort">1</property>
    <property name="rect">00:00:00.000=0 0 1920 1920 1</property>
    <property name="rotation">00:00:00.000=0</property>
    <property name="kdenlive:collapsed">0</property>
   </filter>
  </entry>
  <entry in="00:00:00.000" out="00:00:00.100" producer="producer80">
   <property name="kdenlive:id">64</property>
   <filter id="filter30">
    <property name="rotate_center">1</property>
    <property name="mlt_service">qtblend</property>
    <property name="kdenlive_id">qtblend</property>
    <property name="compositing">0</property>
    <property name="distort">1</property>
    <property name="rect">00:00:00.000=0 0 1920 1920 1</property>
    <property name="rotation">00:00:00.000=0</property>
    <property name="kdenlive:collapsed">0</property>
   </filter>
  </entry>
  <entry in="00:00:00.000" out="00:00:00.300" producer="chain1">
   <property name="kdenlive:id">90</property>
   <property name="kdenlive:activeeffect">0</property>
   <filter id="filter31">
    <property name="rotate_center">1</property>
    <property name="mlt_service">qtblend</property>
    <property name="kdenlive_id">qtblend</property>
    <property name="compositing">0</property>
    <property name="distort">0</property>
    <property name="rect">00:00:00.000=-812 -412 3573 3573 1.000000</property>
    <property name="rotation">00:00:00.000=0</property>
    <property name="kdenlive:collapsed">0</property>
   </filter>
  </entry>
  <entry in="00:00:00.000" out="00:00:00.100" producer="producer12">
   <property name="kdenlive:id">99</property>
   <filter id="filter32">
    <property name="rotate_center">1</property>
    <property name="mlt_service">qtblend</property>
    <property name="kdenlive_id">qtblend</property>
    <property name="compositing">0</property>
    <property name="distort">1</property>
    <property name="rect">00:00:00.000=0 0 1920 1920 1</property>
    <property name="rotation">00:00:00.000=0</property>
   </filter>
  </entry>
  <entry in="00:00:00.000" out="00:00:00.100" producer="producer13">
   <property name="kdenlive:id">100</property>
   <filter id="filter33">
    <property name="rotate_center">1</property>
    <property name="mlt_service">qtblend</property>
    <property name="kdenlive_id">qtblend</property>
    <property name="compositing">0</property>
    <property name="distort">1</property>
    <property name="rect">00:00:00.000=0 0 1920 1920 1</property>
    <property name="rotation">00:00:00.000=0</property>
    <property name="kdenlive:collapsed">0</property>
   </filter>
  </entry>
  <entry in="00:00:05.633" out="00:00:05.867" producer="chain2">
   <property name="kdenlive:id">88</property>
   <filter id="filter34">
    <property name="rotate_center">1</property>
    <property name="mlt_service">qtblend</property>
    <property name="kdenlive_id">qtblend</property>
    <property name="compositing">0</property>
    <property name="distort">0</property>
    <property name="rect">00:00:05.633=-777 -697 3520 3520 1.000000</property>
    <property name="rotation">00:00:05.633=0</property>
    <property name="kdenlive:collapsed">0</property>
   </filter>
  </entry>
  <entry in="00:00:00.000" out="00:00:00.167" producer="producer27">
   <property name="kdenlive:id">35</property>
  </entry>
  <entry in="00:00:00.000" out="00:00:00.133" producer="producer14">
   <property name="kdenlive:id">101</property>
   <filter id="filter35">
    <property name="rotate_center">1</property>
    <property name="mlt_service">qtblend</property>
    <property name="kdenlive_id">qtblend</property>
    <property name="compositing">0</property>
    <property name="distort">1</property>
    <property name="rect">00:00:00.000=0 0 1920 1920 1</property>
    <property name="rotation">00:00:00.000=0</property>
    <property name="kdenlive:collapsed">0</property>
   </filter>
  </entry>
  <entry in="00:00:00.000" out="00:00:00.100" producer="producer15">
   <property name="kdenlive:id">120</property>
   <filter id="filter36">
    <property name="rotate_center">1</property>
    <property name="mlt_service">qtblend</property>
    <property name="kdenlive_id">qtblend</property>
    <property name="compositing">0</property>
    <property name="distort">1</property>
    <property name="rect">00:00:00.000=0 0 1920 1920 1</property>
    <property name="rotation">00:00:00.000=0</property>
    <property name="kdenlive:collapsed">0</property>
   </filter>
  </entry>
  <entry in="00:00:00.000" out="00:00:00.100" producer="producer91">
   <property name="kdenlive:id">75</property>
   <filter id="filter38">
    <property name="rotate_center">1</property>
    <property name="mlt_service">qtblend</property>
    <property name="kdenlive_id">qtblend</property>
    <property name="compositing">0</property>
    <property name="distort">1</property>
    <property name="rect">00:00:00.000=0 0 1920 1920 1</property>
    <property name="rotation">00:00:00.000=0</property>
    <property name="kdenlive:collapsed">0</property>
   </filter>
  </entry>
  <entry in="00:00:00.000" out="00:00:00.233" producer="chain2">
   <property name="kdenlive:id">88</property>
   <filter id="filter37">
    <property name="rotate_center">1</property>
    <property name="mlt_service">qtblend</property>
    <property name="kdenlive_id">qtblend</property>
    <property name="compositing">0</property>
    <property name="distort">0</property>
    <property name="rect">00:00:00.000=-777 -697 3520 3520 1.000000</property>
    <property name="rotation">00:00:00.000=0</property>
    <property name="kdenlive:collapsed">0</property>
   </filter>
  </entry>
  <entry in="00:00:00.000" out="00:00:00.167" producer="producer18">
   <property name="kdenlive:id">87</property>
   <filter id="filter39">
    <property name="rotate_center">1</property>
    <property name="mlt_service">qtblend</property>
    <property name="kdenlive_id">qtblend</property>
    <property name="compositing">0</property>
    <property name="distort">0</property>
    <property name="rect">00:00:00.000=-752 -164 3516 3516 1.000000</property>
    <property name="rotation">00:00:00.000=0</property>
    <property name="kdenlive:collapsed">0</property>
   </filter>
  </entry>
  <entry in="00:00:00.000" out="00:00:00.133" producer="producer19">
   <property name="kdenlive:id">85</property>
   <filter id="filter40">
    <property name="rotate_center">1</property>
    <property name="mlt_service">qtblend</property>
    <property name="kdenlive_id">qtblend</property>
    <property name="compositing">0</property>
    <property name="distort">0</property>
    <property name="rect">00:00:00.000=-1127 -811 3569 3569 1.000000</property>
    <property name="rotation">00:00:00.000=0</property>
    <property name="kdenlive:collapsed">0</property>
   </filter>
  </entry>
  <entry in="00:00:00.000" out="00:00:00.233" producer="chain3">
   <property name="kdenlive:id">94</property>
   <filter id="filter41">
    <property name="rotate_center">1</property>
    <property name="mlt_service">qtblend</property>
    <property name="kdenlive_id">qtblend</property>
    <property name="compositing">0</property>
    <property name="distort">1</property>
    <property name="rect">00:00:00.000=0 0 1920 1920 1</property>
    <property name="rotation">00:00:00.000=0</property>
    <property name="kdenlive:collapsed">0</property>
   </filter>
  </entry>
  <entry in="00:00:00.000" out="00:00:00.100" producer="producer20">
   <property name="kdenlive:id">102</property>
   <filter id="filter42">
    <property name="rotate_center">1</property>
    <property name="mlt_service">qtblend</property>
    <property name="kdenlive_id">qtblend</property>
    <property name="compositing">0</property>
    <property name="distort">0</property>
    <property name="rect">00:00:00.000=-907 -907 3750 3750 1.000000</property>
    <property name="rotation">00:00:00.000=0</property>
    <property name="kdenlive:collapsed">0</property>
   </filter>
  </entry>
  <entry in="00:00:00.000" out="00:00:00.100" producer="producer21">
   <property name="kdenlive:id">104</property>
  </entry>
  <entry in="00:00:00.167" out="00:00:00.500" producer="producer22">
   <property name="kdenlive:id">89</property>
   <filter id="filter43">
    <property name="rotate_center">1</property>
    <property name="mlt_service">qtblend</property>
    <property name="kdenlive_id">qtblend</property>
    <property name="compositing">0</property>
    <property name="distort">0</property>
    <property name="rect">00:00:00.167=-11 -819 3690 3690 1.000000</property>
    <property name="rotation">00:00:00.167=0</property>
    <property name="kdenlive:collapsed">0</property>
   </filter>
  </entry>
  <entry in="00:00:00.000" out="00:00:00.233" producer="producer89">
   <property name="kdenlive:id">73</property>
   <filter id="filter44">
    <property name="rotate_center">1</property>
    <property name="mlt_service">qtblend</property>
    <property name="kdenlive_id">qtblend</property>
    <property name="compositing">0</property>
    <property name="distort">1</property>
    <property name="rect">00:00:00.000=0 0 1920 1920 1</property>
    <property name="rotation">00:00:00.000=0</property>
    <property name="kdenlive:collapsed">0</property>
   </filter>
  </entry>
  <entry in="00:00:00.000" out="00:00:00.233" producer="producer42">
   <property name="kdenlive:id">105</property>
   <filter id="filter45">
    <property name="rotate_center">1</property>
    <property name="mlt_service">qtblend</property>
    <property name="kdenlive_id">qtblend</property>
    <property name="compositing">0</property>
    <property name="distort">0</property>
    <property name="rect">00:00:00.000=-812 -412 3573 3573 1.000000</property>
    <property name="rotation">00:00:00.000=0</property>
    <property name="kdenlive:collapsed">0</property>
   </filter>
  </entry>
  <entry in="00:00:00.000" out="00:00:00.167" producer="producer46">
   <property name="kdenlive:id">98</property>
   <filter id="filter46">
    <property name="rotate_center">1</property>
    <property name="mlt_service">qtblend</property>
    <property name="kdenlive_id">qtblend</property>
    <property name="compositing">0</property>
    <property name="distort">1</property>
    <property name="rect">00:00:00.000=0 0 1920 1920 1</property>
    <property name="rotation">00:00:00.000=0</property>
    <property name="kdenlive:collapsed">0</property>
   </filter>
  </entry>
  <entry in="00:00:00.000" out="00:00:00.133" producer="producer47">
   <property name="kdenlive:id">96</property>
   <filter id="filter47">
    <property name="rotate_center">1</property>
    <property name="mlt_service">qtblend</property>
    <property name="kdenlive_id">qtblend</property>
    <property name="compositing">0</property>
    <property name="distort">1</property>
    <property name="rect">00:00:00.000=0 0 1920 1920 1.000000</property>
    <property name="rotation">00:00:00.000=0</property>
    <property name="kdenlive:collapsed">0</property>
   </filter>
  </entry>
  <entry in="00:00:00.000" out="00:00:00.233" producer="chain4">
   <property name="kdenlive:id">93</property>
   <filter id="filter48">
    <property name="rotate_center">1</property>
    <property name="mlt_service">qtblend</property>
    <property name="kdenlive_id">qtblend</property>
    <property name="compositing">0</property>
    <property name="distort">0</property>
    <property name="rect">00:00:00.000=-812 -412 3573 3573 1.000000</property>
    <property name="rotation">00:00:00.000=0</property>
    <property name="kdenlive:collapsed">0</property>
   </filter>
  </entry>
  <entry in="00:00:00.000" out="00:00:00.133" producer="producer48">
   <property name="kdenlive:id">103</property>
   <filter id="filter49">
    <property name="rotate_center">1</property>
    <property name="mlt_service">qtblend</property>
    <property name="kdenlive_id">qtblend</property>
    <property name="compositing">0</property>
    <property name="distort">0</property>
    <property name="rect">00:00:00.000=-907 -907 3750 3750 1.000000</property>
    <property name="rotation">00:00:00.000=0</property>
    <property name="kdenlive:collapsed">0</property>
   </filter>
  </entry>
  <entry in="00:00:00.000" out="00:00:00.067" producer="producer49">
   <property name="kdenlive:id">86</property>
   <filter id="filter50">
    <property name="rotate_center">1</property>
    <property name="mlt_service">qtblend</property>
    <property name="kdenlive_id">qtblend</property>
    <property name="compositing">0</property>
    <property name="distort">0</property>
    <property name="rect">00:00:00.000=-907 -907 3750 3750 1.000000</property>
    <property name="rotation">00:00:00.000=0</property>
    <property name="kdenlive:collapsed">0</property>
   </filter>
  </entry>
  <entry in="00:00:00.000" out="00:00:00.333" producer="chain10">
   <property name="kdenlive:id">92</property>
   <filter id="filter51">
    <property name="version">0.9</property>
    <property name="mlt_service">frei0r.cairoimagegrid</property>
    <property name="kdenlive_id">frei0r.cairoimagegrid</property>
    <property name="rows">00:00:00.000=0</property>
    <property name="columns">00:00:00.000=0.05</property>
    <property name="kdenlive:collapsed">0</property>
   </filter>
   <filter id="filter52">
    <property name="rotate_center">1</property>
    <property name="mlt_service">qtblend</property>
    <property name="kdenlive_id">qtblend</property>
    <property name="compositing">0</property>
    <property name="distort">1</property>
    <property name="rect">00:00:00.000=0 0 1920 1920 1</property>
    <property name="rotation">00:00:00.000=0</property>
    <property name="kdenlive:collapsed">0</property>
   </filter>
  </entry>
  <entry in="00:00:00.000" out="00:00:00.067" producer="producer86">
   <property name="kdenlive:id">69</property>
   <filter id="filter53">
    <property name="rotate_center">1</property>
    <property name="mlt_service">qtblend</property>
    <property name="kdenlive_id">qtblend</property>
    <property name="compositing">0</property>
    <property name="distort">1</property>
    <property name="rect">00:00:00.000=0 0 1920 1920 1</property>
    <property name="rotation">00:00:00.000=0</property>
    <property name="kdenlive:collapsed">0</property>
   </filter>
  </entry>
  <entry in="00:00:00.000" out="00:00:00.133" producer="producer88">
   <property name="kdenlive:id">70</property>
   <filter id="filter54">
    <property name="rotate_center">1</property>
    <property name="mlt_service">qtblend</property>
    <property name="kdenlive_id">qtblend</property>
    <property name="compositing">0</property>
    <property name="distort">1</property>
    <property name="rect">00:00:00.000=0 0 1920 1920 1</property>
    <property name="rotation">00:00:00.000=0</property>
    <property name="kdenlive:collapsed">0</property>
   </filter>
  </entry>
  <entry in="00:00:00.000" out="00:00:00.233" producer="producer50">
   <property name="kdenlive:id">108</property>
   <filter id="filter55">
    <property name="rotate_center">1</property>
    <property name="mlt_service">qtblend</property>
    <property name="kdenlive_id">qtblend</property>
    <property name="compositing">0</property>
    <property name="distort">0</property>
    <property name="rect">00:00:00.000=-907 -307 3750 3750 1.000000</property>
    <property name="rotation">00:00:00.000=0</property>
    <property name="kdenlive:collapsed">0</property>
   </filter>
  </entry>
  <entry in="00:00:03.667" out="00:00:04.000" producer="chain12">
   <property name="kdenlive:id">95</property>
   <property name="kdenlive:activeeffect">1</property>
   <filter id="filter56">
    <property name="version">0.9</property>
    <property name="mlt_service">frei0r.cairoimagegrid</property>
    <property name="kdenlive_id">frei0r.cairoimagegrid</property>
    <property name="rows">00:00:03.667=0</property>
    <property name="columns">00:00:03.667=0.05</property>
    <property name="kdenlive:collapsed">0</property>
   </filter>
   <filter id="filter57">
    <property name="rotate_center">1</property>
    <property name="mlt_service">qtblend</property>
    <property name="kdenlive_id">qtblend</property>
    <property name="compositing">0</property>
    <property name="distort">1</property>
    <property name="rect">00:00:03.667=0 0 1920 1920 1</property>
    <property name="rotation">00:00:03.667=0</property>
    <property name="kdenlive:collapsed">0</property>
   </filter>
  </entry>
  <entry in="00:00:00.000" out="00:00:00.233" producer="producer6">
   <property name="kdenlive:id">77</property>
   <filter id="filter58">
    <property name="rotate_center">1</property>
    <property name="mlt_service">qtblend</property>
    <property name="kdenlive_id">qtblend</property>
    <property name="compositing">0</property>
    <property name="distort">1</property>
    <property name="rect">00:00:00.000=316 0 1268 1884 1.000000</property>
    <property name="rotation">00:00:00.000=0</property>
   </filter>
  </entry>
  <entry in="00:00:00.000" out="00:00:02.700" producer="producer7">
   <property name="kdenlive:id">79</property>
   <property name="kdenlive:activeeffect">0</property>
   <filter id="filter59">
    <property name="rotate_center">1</property>
    <property name="mlt_service">qtblend</property>
    <property name="kdenlive_id">qtblend</property>
    <property name="compositing">0</property>
    <property name="distort">1</property>
    <property name="rect">00:00:00.000=316 0 1268 1884 1.000000</property>
    <property name="rotation">00:00:00.000=0</property>
    <property name="kdenlive:collapsed">0</property>
   </filter>
   <filter id="filter60">
    <property name="mlt_service">invert</property>
    <property name="kdenlive_id">invert</property>
    <property name="kdenlive:collapsed">0</property>
   </filter>
  </entry>
 </playlist>
 <playlist id="playlist17"/>
 <tractor id="tractor8" in="00:00:00.000" out="00:00:40.833">
  <property name="kdenlive:trackheight">67</property>
  <property name="kdenlive:timeline_active">1</property>
  <property name="kdenlive:collapsed">0</property>
  <property name="kdenlive:thumbs_format"/>
  <property name="kdenlive:audio_rec"/>
  <track hide="audio" producer="playlist16"/>
  <track hide="audio" producer="playlist17"/>
 </tractor>
 <producer id="producer17" in="00:00:00.000" out="00:00:02.967">
  <property name="length">90</property>
  <property name="eof">pause</property>
  <property name="resource">7.500000:/home/schmilly/Downloads/Rental affordability worst on record, report finds _ ABC NEWS 720-39-58.mp4</property>
  <property name="aspect_ratio">1</property>
  <property name="meta.media.nb_streams">3</property>
  <property name="meta.media.0.stream.type">video</property>
  <property name="meta.media.0.stream.frame_rate">25</property>
  <property name="meta.media.0.stream.sample_aspect_ratio">1</property>
  <property name="meta.media.0.codec.width">1280</property>
  <property name="meta.media.0.codec.height">720</property>
  <property name="meta.media.0.codec.rotate">0</property>
  <property name="meta.media.0.codec.pix_fmt">yuv420p</property>
  <property name="meta.media.0.codec.sample_aspect_ratio">1</property>
  <property name="meta.media.0.codec.colorspace">709</property>
  <property name="meta.media.0.codec.color_trc">1</property>
  <property name="meta.media.0.codec.name">h264</property>
  <property name="meta.media.0.codec.long_name">H.264 / AVC / MPEG-4 AVC / MPEG-4 part 10</property>
  <property name="meta.media.0.codec.bit_rate">532101</property>
  <property name="meta.attr.0.stream.handler_name.markup">ISO Media file produced by Google Inc.</property>
  <property name="meta.attr.0.stream.vendor_id.markup">[0][0][0][0]</property>
  <property name="meta.media.1.stream.type">audio</property>
  <property name="meta.media.1.codec.sample_fmt">fltp</property>
  <property name="meta.media.1.codec.sample_rate">44100</property>
  <property name="meta.media.1.codec.channels">2</property>
  <property name="meta.media.1.codec.layout">stereo</property>
  <property name="meta.media.1.codec.name">aac</property>
  <property name="meta.media.1.codec.long_name">AAC (Advanced Audio Coding)</property>
  <property name="meta.media.1.codec.bit_rate">128075</property>
  <property name="meta.attr.1.stream.language.markup">eng</property>
  <property name="meta.attr.1.stream.handler_name.markup">ISO Media file produced by Google Inc.</property>
  <property name="meta.attr.1.stream.vendor_id.markup">[0][0][0][0]</property>
  <property name="meta.media.2.stream.type">video</property>
  <property name="meta.media.2.stream.frame_rate">90000</property>
  <property name="meta.media.2.stream.sample_aspect_ratio">0</property>
  <property name="meta.media.2.codec.width">1280</property>
  <property name="meta.media.2.codec.height">720</property>
  <property name="meta.media.2.codec.rotate">0</property>
  <property name="meta.media.2.codec.pix_fmt">rgb24</property>
  <property name="meta.media.2.codec.sample_aspect_ratio">0</property>
  <property name="meta.media.2.codec.colorspace">0</property>
  <property name="meta.media.2.codec.name">png</property>
  <property name="meta.media.2.codec.long_name">PNG (Portable Network Graphics) image</property>
  <property name="meta.media.2.codec.bit_rate">0</property>
  <property name="meta.attr.major_brand.markup">isom</property>
  <property name="meta.attr.minor_version.markup">512</property>
  <property name="meta.attr.compatible_brands.markup">isomiso2avc1mp41</property>
  <property name="meta.attr.title.markup">Rental affordability worst on record, report finds | ABC NEWS</property>
  <property name="meta.attr.artist.markup">ABC News (Australia)</property>
  <property name="meta.attr.date.markup">20241122</property>
  <property name="meta.attr.encoder.markup">Lavf61.7.100</property>
  <property name="meta.attr.comment.markup">https://www.youtube.com/watch?v=MPyysf9uJmo</property>
  <property name="meta.attr.description.markup">New data shows that rental affordability has plummeted to new lows across nearly every Australian city and region.
There's now nowhere within budget for single people on JobSeeker benefits, part-time workers on a parenting payment, or those on a pension.

Subscribe: http://ab.co/1svxLVE
Read more here: https://www.abc.net.au/news/2024-11-22/rent-prices-rise-most-unaffordable-in-perth-sydney/104628492

ABC News provides around the clock coverage of news events as they break in Australia and abroad. It's news when you want it, from Australia's most trusted news organisation.

For more from ABC News, click here: https://ab.co/2kxYCZY
Watch more ABC News content ad-free on ABC iview: https://ab.co/2OB7Mk1

Go deeper on our ABC News In-depth channel: https://ab.co/2lNeBn2
Like ABC News on Facebook: http://facebook.com/abcnews.au
Follow ABC News on Instagram: http://instagram.com/abcnews_au
Follow ABC News on X (Twitter): http://twitter.com/abcnews

Note: In most cases, our captions are auto-generated.

#ABCNews #ABCNewsAustralia</property>
  <property name="meta.attr.synopsis.markup">New data shows that rental affordability has plummeted to new lows across nearly every Australian city and region.
There's now nowhere within budget for single people on JobSeeker benefits, part-time workers on a parenting payment, or those on a pension.

Subscribe: http://ab.co/1svxLVE
Read more here: https://www.abc.net.au/news/2024-11-22/rent-prices-rise-most-unaffordable-in-perth-sydney/104628492

ABC News provides around the clock coverage of news events as they break in Australia and abroad. It's news when you want it, from Australia's most trusted news organisation.

For more from ABC News, click here: https://ab.co/2kxYCZY
Watch more ABC News content ad-free on ABC iview: https://ab.co/2OB7Mk1

Go deeper on our ABC News In-depth channel: https://ab.co/2lNeBn2
Like ABC News on Facebook: http://facebook.com/abcnews.au
Follow ABC News on Instagram: http://instagram.com/abcnews_au
Follow ABC News on X (Twitter): http://twitter.com/abcnews

Note: In most cases, our captions are auto-generated.

#ABCNews #ABCNewsAustralia</property>
  <property name="seekable">1</property>
  <property name="meta.media.sample_aspect_num">1</property>
  <property name="meta.media.sample_aspect_den">1</property>
  <property name="format">3</property>
  <property name="audio_index">1</property>
  <property name="video_index">0</property>
  <property name="warp_speed">7.5</property>
  <property name="warp_resource">/home/schmilly/Downloads/Rental affordability worst on record, report finds _ ABC NEWS 720-39-58.mp4</property>
  <property name="mlt_service">timewarp</property>
  <property name="kdenlive:control_uuid">{e56cc4a7-20aa-482a-b3d8-96f7ed271aa2}</property>
  <property name="vstream">0</property>
  <property name="astream">0</property>
  <property name="set.test_audio">1</property>
  <property name="set.test_image">0</property>
  <property name="kdenlive:id">26</property>
  <property name="warp_pitch">0</property>
  <property name="meta.media.frame_rate_num">25</property>
  <property name="meta.media.frame_rate_den">1</property>
  <property name="meta.media.colorspace">709</property>
  <property name="meta.media.color_trc">1</property>
  <property name="meta.media.has_b_frames">1</property>
  <property name="meta.media.width">1280</property>
  <property name="meta.media.height">720</property>
  <property name="meta.media.aspect_ratio">1</property>
  <property name="meta.media.color_range">mpeg</property>
  <property name="meta.media.top_field_first">0</property>
  <property name="meta.media.progressive">1</property>
 </producer>
 <producer id="producer34" in="00:00:00.000" out="00:00:02.467">
  <property name="length">75</property>
  <property name="eof">pause</property>
  <property name="resource"/>
  <property name="meta.media.progressive">1</property>
  <property name="aspect_ratio">1</property>
  <property name="seekable">1</property>
  <property name="mlt_service">kdenlivetitle</property>
  <property name="kdenlive:duration">00:00:02.500</property>
  <property name="kdenlive:clipname">JOIN RAHU</property>
  <property name="xmldata">&lt;kdenlivetitle LC_NUMERIC="C" duration="75" height="1920" out="74" width="1920">
 &lt;item type="QGraphicsTextItem" z-index="0">
  &lt;position x="227" y="191">
   &lt;transform>1,0,0,0,1,0,0,0,1&lt;/transform>
  &lt;/position>
  &lt;content alignment="1" box-height="477" box-width="1466.09" font="Noto Sans" font-color="255,255,255,255" font-italic="0" font-pixel-size="350" font-underline="0" font-weight="400" letter-spacing="0" line-spacing="0" shadow="0;#64000000;3;3;3" tab-width="80" typewriter="0;2;1;0;0">join rahu&lt;/content>
 &lt;/item>
 &lt;startviewport rect="0,0,1920,1920"/>
 &lt;endviewport rect="0,0,1920,1920"/>
 &lt;background color="0,0,0,0"/>
&lt;/kdenlivetitle>
</property>
  <property name="xml">was here</property>
  <property name="kdenlive:folderid">28</property>
  <property name="kdenlive:id">22</property>
  <property name="kdenlive:control_uuid">{94b44c98-e3c2-43e8-9ea8-9b89e0a79573}</property>
  <property name="kdenlive:clip_type">2</property>
  <property name="kdenlive:uniqueId">{742f622e-db3c-42c8-a880-48125db58080}</property>
  <property name="kdenlive:file_hash">5edac3f9668c9a2d8d5ca71ce05f16ef</property>
  <property name="force_reload">0</property>
  <property name="kdenlive:monitorPosition">1</property>
  <property name="meta.media.width">1920</property>
  <property name="meta.media.height">1920</property>
 </producer>
 <playlist id="playlist18">
  <blank length="00:00:05.800"/>
  <entry in="00:00:00.000" out="00:00:00.567" producer="producer5">
   <property name="kdenlive:id">21</property>
   <property name="kdenlive:activeeffect">2</property>
   <filter id="filter61">
    <property name="rotate_center">1</property>
    <property name="mlt_service">qtblend</property>
    <property name="kdenlive_id">qtblend</property>
    <property name="compositing">0</property>
    <property name="distort">1</property>
    <property name="rect">00:00:00.000=-2069 -2913 6059 7747 1.000000</property>
    <property name="rotation">00:00:00.000=0</property>
    <property name="kdenlive:collapsed">0</property>
   </filter>
   <filter id="filter62">
    <property name="color">00:00:00.000=#b4636363</property>
    <property name="radius">1</property>
    <property name="x">8</property>
    <property name="y">8</property>
    <property name="mlt_service">dropshadow</property>
    <property name="kdenlive_id">dropshadow</property>
    <property name="kdenlive:collapsed">0</property>
   </filter>
   <filter id="filter63">
    <property name="rotate_center">1</property>
    <property name="mlt_service">qtblend</property>
    <property name="kdenlive_id">qtblend</property>
    <property name="compositing">0</property>
    <property name="distort">1</property>
    <property name="rect">00:00:00.000=176 0 1564 1884 1.000000</property>
    <property name="rotation">00:00:00.000=0</property>
    <property name="kdenlive:collapsed">0</property>
   </filter>
  </entry>
  <entry in="00:00:00.000" out="00:00:00.833" producer="producer17">
   <property name="kdenlive:id">26</property>
   <property name="kdenlive:activeeffect">1</property>
   <filter id="filter64">
    <property name="rotate_center">1</property>
    <property name="mlt_service">qtblend</property>
    <property name="kdenlive_id">qtblend</property>
    <property name="compositing">0</property>
    <property name="distort">1</property>
    <property name="rect">00:00:00.000=0 0 1920 1920 1.000000;00:00:00.833=0 0 1920 1920 0.678571</property>
    <property name="rotation">00:00:00.000=0;00:00:00.833=0</property>
    <property name="kdenlive:collapsed">0</property>
   </filter>
   <filter id="filter65">
    <property name="version">0.1</property>
    <property name="mlt_service">frei0r.glitch0r</property>
    <property name="kdenlive_id">frei0r.glitch0r</property>
    <property name="0">00:00:00.000=0.017</property>
    <property name="1">00:00:00.000=0.49913</property>
    <property name="2">00:00:00.000=0.499305</property>
    <property name="3">00:00:00.000=0.306</property>
    <property name="kdenlive:collapsed">0</property>
   </filter>
   <filter id="filter66" out="00:00:00.833">
    <property name="delta">00:00:00.000=14</property>
    <property name="every">00:00:00.000=20</property>
    <property name="brightnessdelta_up">00:00:00.000=20</property>
    <property name="brightnessdelta_down">00:00:00.000=30</property>
    <property name="brightnessdelta_every">00:00:00.000=70</property>
    <property name="unevendevelop_up">00:00:00.000=60</property>
    <property name="unevendevelop_down">00:00:00.000=20</property>
    <property name="unevendevelop_duration">00:00:00.000=70</property>
    <property name="mlt_service">oldfilm</property>
    <property name="kdenlive_id">oldfilm</property>
   </filter>
  </entry>
  <entry in="00:00:00.000" out="00:00:00.967" producer="producer3">
   <property name="kdenlive:id">15</property>
  </entry>
  <blank length="00:00:02.033"/>
  <entry in="00:00:00.000" out="00:00:00.000" producer="producer34">
   <property name="kdenlive:id">22</property>
   <filter id="filter67">
    <property name="rotate_center">1</property>
    <property name="mlt_service">qtblend</property>
    <property name="kdenlive_id">qtblend</property>
    <property name="compositing">0</property>
    <property name="distort">0</property>
    <property name="rect">00:00:00.000=0 1072 1920 1920 1.000000</property>
    <property name="rotation">00:00:00.000=0</property>
    <property name="kdenlive:collapsed">0</property>
   </filter>
  </entry>
  <blank length="00:00:00.167"/>
  <entry in="00:00:00.000" out="00:00:00.000" producer="producer34">
   <property name="kdenlive:id">22</property>
   <filter id="filter68">
    <property name="rotate_center">1</property>
    <property name="mlt_service">qtblend</property>
    <property name="kdenlive_id">qtblend</property>
    <property name="compositing">0</property>
    <property name="distort">0</property>
    <property name="rect">00:00:00.000=0 1072 1920 1920 1.000000</property>
    <property name="rotation">00:00:00.000=0</property>
    <property name="kdenlive:collapsed">0</property>
   </filter>
  </entry>
  <blank length="00:00:20.133"/>
  <entry in="00:00:00.000" out="00:00:00.000" producer="producer34">
   <property name="kdenlive:id">22</property>
   <filter id="filter69">
    <property name="rotate_center">1</property>
    <property name="mlt_service">qtblend</property>
    <property name="kdenlive_id">qtblend</property>
    <property name="compositing">0</property>
    <property name="distort">0</property>
    <property name="rect">00:00:00.000=0 1072 1920 1920 1.000000</property>
    <property name="rotation">00:00:00.000=0</property>
   </filter>
  </entry>
  <blank length="00:00:00.167"/>
  <entry in="00:00:00.000" out="00:00:00.000" producer="producer34">
   <property name="kdenlive:id">22</property>
   <filter id="filter70">
    <property name="rotate_center">1</property>
    <property name="mlt_service">qtblend</property>
    <property name="kdenlive_id">qtblend</property>
    <property name="compositing">0</property>
    <property name="distort">0</property>
    <property name="rect">00:00:00.000=0 1072 1920 1920 1.000000</property>
    <property name="rotation">00:00:00.000=0</property>
   </filter>
  </entry>
 </playlist>
 <playlist id="playlist19"/>
 <tractor id="tractor9" in="00:00:00.000" out="00:00:30.867">
  <property name="kdenlive:trackheight">67</property>
  <property name="kdenlive:timeline_active">1</property>
  <property name="kdenlive:collapsed">28</property>
  <property name="kdenlive:thumbs_format"/>
  <property name="kdenlive:audio_rec"/>
  <track hide="audio" producer="playlist18"/>
  <track hide="audio" producer="playlist19"/>
 </tractor>
 <producer id="producer56" in="00:00:00.000" out="00:00:03.200">
  <property name="length">00:00:03.267</property>
  <property name="eof">pause</property>
  <property name="resource">5.180130:/home/schmilly/Downloads/Rental affordability in Australia the worst it's ever been, report says _ ABC News 720-41-54.mp4</property>
  <property name="aspect_ratio">1</property>
  <property name="meta.media.nb_streams">3</property>
  <property name="meta.media.0.stream.type">video</property>
  <property name="meta.media.0.stream.frame_rate">25</property>
  <property name="meta.media.0.stream.sample_aspect_ratio">1</property>
  <property name="meta.media.0.codec.width">1280</property>
  <property name="meta.media.0.codec.height">720</property>
  <property name="meta.media.0.codec.rotate">0</property>
  <property name="meta.media.0.codec.pix_fmt">yuv420p</property>
  <property name="meta.media.0.codec.sample_aspect_ratio">1</property>
  <property name="meta.media.0.codec.colorspace">709</property>
  <property name="meta.media.0.codec.color_trc">1</property>
  <property name="meta.media.0.codec.name">h264</property>
  <property name="meta.media.0.codec.long_name">H.264 / AVC / MPEG-4 AVC / MPEG-4 part 10</property>
  <property name="meta.media.0.codec.bit_rate">439489</property>
  <property name="meta.attr.0.stream.handler_name.markup">ISO Media file produced by Google Inc.</property>
  <property name="meta.attr.0.stream.vendor_id.markup">[0][0][0][0]</property>
  <property name="meta.media.1.stream.type">audio</property>
  <property name="meta.media.1.codec.sample_fmt">fltp</property>
  <property name="meta.media.1.codec.sample_rate">44100</property>
  <property name="meta.media.1.codec.channels">2</property>
  <property name="meta.media.1.codec.layout">stereo</property>
  <property name="meta.media.1.codec.name">aac</property>
  <property name="meta.media.1.codec.long_name">AAC (Advanced Audio Coding)</property>
  <property name="meta.media.1.codec.bit_rate">128050</property>
  <property name="meta.attr.1.stream.language.markup">eng</property>
  <property name="meta.attr.1.stream.handler_name.markup">ISO Media file produced by Google Inc.</property>
  <property name="meta.attr.1.stream.vendor_id.markup">[0][0][0][0]</property>
  <property name="meta.media.2.stream.type">video</property>
  <property name="meta.media.2.stream.frame_rate">90000</property>
  <property name="meta.media.2.stream.sample_aspect_ratio">0</property>
  <property name="meta.media.2.codec.width">1280</property>
  <property name="meta.media.2.codec.height">720</property>
  <property name="meta.media.2.codec.rotate">0</property>
  <property name="meta.media.2.codec.pix_fmt">rgb24</property>
  <property name="meta.media.2.codec.sample_aspect_ratio">0</property>
  <property name="meta.media.2.codec.colorspace">0</property>
  <property name="meta.media.2.codec.name">png</property>
  <property name="meta.media.2.codec.long_name">PNG (Portable Network Graphics) image</property>
  <property name="meta.media.2.codec.bit_rate">0</property>
  <property name="meta.attr.major_brand.markup">isom</property>
  <property name="meta.attr.minor_version.markup">512</property>
  <property name="meta.attr.compatible_brands.markup">isomiso2avc1mp41</property>
  <property name="meta.attr.title.markup">Rental affordability in Australia the worst it's ever been, report says | ABC News</property>
  <property name="meta.attr.artist.markup">ABC News (Australia)</property>
  <property name="meta.attr.date.markup">20240423</property>
  <property name="meta.attr.encoder.markup">Lavf61.7.100</property>
  <property name="meta.attr.comment.markup">https://www.youtube.com/watch?v=hliaf_8My40</property>
  <property name="meta.attr.description.markup">There is not a single property across Australia – or even a room in a shared house – that's affordable for someone on youth allowance, according to a new report from support organisation Anglicare Australia.

Subscribe: http://ab.co/1svxLVE
Read more here: https://www.abc.net.au/news/2024-04-23/anglicare-australia-rental-affordability-report/103754274

ABC News provides around the clock coverage of news events as they break in Australia and abroad. It's news when you want it, from Australia's most trusted news organisation.

For more from ABC News, click here: https://ab.co/2kxYCZY
Watch more ABC News content ad-free on ABC iview: https://ab.co/2OB7Mk1

Go deeper on our ABC News In-depth channel: https://ab.co/2lNeBn2
Like ABC News on Facebook: http://facebook.com/abcnews.au
Follow ABC News on Instagram: http://instagram.com/abcnews_au
Follow ABC News on Twitter: http://twitter.com/abcnews

Note: In most cases, our captions are auto-generated.

#ABCNews #ABCNewsAustralia #housing #housingcrisis #rentalproperty</property>
  <property name="meta.attr.synopsis.markup">There is not a single property across Australia – or even a room in a shared house – that's affordable for someone on youth allowance, according to a new report from support organisation Anglicare Australia.

Subscribe: http://ab.co/1svxLVE
Read more here: https://www.abc.net.au/news/2024-04-23/anglicare-australia-rental-affordability-report/103754274

ABC News provides around the clock coverage of news events as they break in Australia and abroad. It's news when you want it, from Australia's most trusted news organisation.

For more from ABC News, click here: https://ab.co/2kxYCZY
Watch more ABC News content ad-free on ABC iview: https://ab.co/2OB7Mk1

Go deeper on our ABC News In-depth channel: https://ab.co/2lNeBn2
Like ABC News on Facebook: http://facebook.com/abcnews.au
Follow ABC News on Instagram: http://instagram.com/abcnews_au
Follow ABC News on Twitter: http://twitter.com/abcnews

Note: In most cases, our captions are auto-generated.

#ABCNews #ABCNewsAustralia #housing #housingcrisis #rentalproperty</property>
  <property name="seekable">1</property>
  <property name="meta.media.sample_aspect_num">1</property>
  <property name="meta.media.sample_aspect_den">1</property>
  <property name="format">3</property>
  <property name="audio_index">1</property>
  <property name="video_index">0</property>
  <property name="warp_speed">5.18013</property>
  <property name="warp_resource">/home/schmilly/Downloads/Rental affordability in Australia the worst it's ever been, report says _ ABC News 720-41-54.mp4</property>
  <property name="mlt_service">timewarp</property>
  <property name="kdenlive:control_uuid">{21c05f38-c3ec-47ca-991d-ac2f245e4397}</property>
  <property name="vstream">0</property>
  <property name="astream">0</property>
  <property name="set.test_audio">1</property>
  <property name="set.test_image">0</property>
  <property name="kdenlive:id">11</property>
  <property name="warp_pitch">0</property>
  <property name="meta.media.frame_rate_num">25</property>
  <property name="meta.media.frame_rate_den">1</property>
  <property name="meta.media.colorspace">709</property>
  <property name="meta.media.color_trc">1</property>
  <property name="meta.media.has_b_frames">1</property>
  <property name="meta.media.width">1280</property>
  <property name="meta.media.height">720</property>
  <property name="meta.media.aspect_ratio">1</property>
  <property name="meta.media.color_range">mpeg</property>
  <property name="meta.media.top_field_first">0</property>
  <property name="meta.media.progressive">1</property>
 </producer>
 <playlist id="playlist20">
  <blank length="00:00:00.467"/>
  <entry in="00:00:00.000" out="00:00:00.833" producer="producer56">
   <property name="kdenlive:id">11</property>
   <property name="kdenlive:activeeffect">2</property>
   <filter id="filter71" out="00:00:00.833">
    <property name="delta">00:00:00.000=14</property>
    <property name="every">00:00:00.000=20</property>
    <property name="brightnessdelta_up">00:00:00.000=20</property>
    <property name="brightnessdelta_down">00:00:00.000=30</property>
    <property name="brightnessdelta_every">00:00:00.000=70</property>
    <property name="unevendevelop_up">00:00:00.000=60</property>
    <property name="unevendevelop_down">00:00:00.000=20</property>
    <property name="unevendevelop_duration">00:00:00.000=70</property>
    <property name="mlt_service">oldfilm</property>
    <property name="kdenlive_id">oldfilm</property>
    <property name="kdenlive:collapsed">0</property>
   </filter>
   <filter id="filter72">
    <property name="version">0.1</property>
    <property name="mlt_service">frei0r.glitch0r</property>
    <property name="kdenlive_id">frei0r.glitch0r</property>
    <property name="0">00:00:00.000=0.094</property>
    <property name="1">00:00:00.000=0.49913</property>
    <property name="2">00:00:00.000=0.499305</property>
    <property name="3">00:00:00.000=0.306</property>
    <property name="kdenlive:collapsed">0</property>
   </filter>
   <filter id="filter73">
    <property name="rotate_center">1</property>
    <property name="mlt_service">qtblend</property>
    <property name="kdenlive_id">qtblend</property>
    <property name="compositing">0</property>
    <property name="distort">1</property>
    <property name="rect">00:00:00.000=0 0 1920 1920 1</property>
    <property name="rotation">00:00:00.000=0</property>
    <property name="kdenlive:collapsed">0</property>
   </filter>
  </entry>
  <blank length="00:00:08.933"/>
  <entry in="00:00:00.000" out="00:00:00.033" producer="producer34">
   <property name="kdenlive:id">22</property>
   <filter id="filter74">
    <property name="rotate_center">1</property>
    <property name="mlt_service">qtblend</property>
    <property name="kdenlive_id">qtblend</property>
    <property name="compositing">0</property>
    <property name="distort">0</property>
    <property name="rect">00:00:00.000=0 712 1920 1920 1.000000</property>
    <property name="rotation">00:00:00.000=0</property>
    <property name="kdenlive:collapsed">0</property>
   </filter>
  </entry>
  <blank length="00:00:00.133"/>
  <entry in="00:00:00.000" out="00:00:00.033" producer="producer34">
   <property name="kdenlive:id">22</property>
   <filter id="filter75">
    <property name="rotate_center">1</property>
    <property name="mlt_service">qtblend</property>
    <property name="kdenlive_id">qtblend</property>
    <property name="compositing">0</property>
    <property name="distort">0</property>
    <property name="rect">00:00:00.000=0 712 1920 1920 1.000000</property>
    <property name="rotation">00:00:00.000=0</property>
   </filter>
  </entry>
  <blank length="00:00:07.200"/>
  <entry in="00:00:00.000" out="00:00:00.133" producer="producer3">
   <property name="kdenlive:id">15</property>
  </entry>
  <blank length="00:00:11.933"/>
  <entry in="00:00:00.000" out="00:00:00.233" producer="producer3">
   <property name="kdenlive:id">15</property>
  </entry>
  <blank length="00:00:00.533"/>
  <entry in="00:00:00.000" out="00:00:00.033" producer="producer34">
   <property name="kdenlive:id">22</property>
   <filter id="filter76">
    <property name="rotate_center">1</property>
    <property name="mlt_service">qtblend</property>
    <property name="kdenlive_id">qtblend</property>
    <property name="compositing">0</property>
    <property name="distort">0</property>
    <property name="rect">00:00:00.000=0 712 1920 1920 1.000000</property>
    <property name="rotation">00:00:00.000=0</property>
   </filter>
  </entry>
  <blank length="00:00:00.133"/>
  <entry in="00:00:00.000" out="00:00:00.033" producer="producer34">
   <property name="kdenlive:id">22</property>
   <filter id="filter77">
    <property name="rotate_center">1</property>
    <property name="mlt_service">qtblend</property>
    <property name="kdenlive_id">qtblend</property>
    <property name="compositing">0</property>
    <property name="distort">0</property>
    <property name="rect">00:00:00.000=0 712 1920 1920 1.000000</property>
    <property name="rotation">00:00:00.000=0</property>
   </filter>
  </entry>
 </playlist>
 <playlist id="playlist21"/>
 <tractor id="tractor10" in="00:00:00.000" out="00:00:30.867">
  <property name="kdenlive:trackheight">67</property>
  <property name="kdenlive:timeline_active">1</property>
  <property name="kdenlive:collapsed">28</property>
  <property name="kdenlive:thumbs_format"/>
  <property name="kdenlive:audio_rec"/>
  <track hide="audio" producer="playlist20"/>
  <track hide="audio" producer="playlist21"/>
 </tractor>
 <producer id="producer58" in="00:00:00.000" out="00:00:07.867">
  <property name="length">00:00:07.933</property>
  <property name="eof">pause</property>
  <property name="resource">5.000000:/home/schmilly/Downloads/Snapinsta.app_video_AQOQuqFCeDSXydP-CaryKzl5sOIpkmAUJLetswJaKp_pol64P4qjbZcu-xpRnpt34wN5SEljOGhs-3Zn11pszoo8c5rqdEfaRijXHnQ.mp4</property>
  <property name="aspect_ratio">1</property>
  <property name="meta.media.nb_streams">2</property>
  <property name="meta.media.0.stream.type">video</property>
  <property name="meta.media.0.stream.frame_rate">30</property>
  <property name="meta.media.0.stream.sample_aspect_ratio">0</property>
  <property name="meta.media.0.codec.width">720</property>
  <property name="meta.media.0.codec.height">1280</property>
  <property name="meta.media.0.codec.rotate">0</property>
  <property name="meta.media.0.codec.pix_fmt">yuv420p</property>
  <property name="meta.media.0.codec.sample_aspect_ratio">0</property>
  <property name="meta.media.0.codec.colorspace">709</property>
  <property name="meta.media.0.codec.color_trc">1</property>
  <property name="meta.media.0.codec.name">h264</property>
  <property name="meta.media.0.codec.long_name">H.264 / AVC / MPEG-4 AVC / MPEG-4 part 10</property>
  <property name="meta.media.0.codec.bit_rate">2125767</property>
  <property name="meta.attr.0.stream.handler_name.markup">VideoHandler</property>
  <property name="meta.attr.0.stream.vendor_id.markup">[0][0][0][0]</property>
  <property name="meta.attr.0.stream.encoder.markup">AVC Coding</property>
  <property name="meta.media.1.stream.type">audio</property>
  <property name="meta.media.1.codec.sample_fmt">fltp</property>
  <property name="meta.media.1.codec.sample_rate">44100</property>
  <property name="meta.media.1.codec.channels">2</property>
  <property name="meta.media.1.codec.layout">stereo</property>
  <property name="meta.media.1.codec.name">aac</property>
  <property name="meta.media.1.codec.long_name">AAC (Advanced Audio Coding)</property>
  <property name="meta.media.1.codec.bit_rate">44600</property>
  <property name="meta.attr.1.stream.handler_name.markup">SoundHandler</property>
  <property name="meta.attr.1.stream.vendor_id.markup">[0][0][0][0]</property>
  <property name="meta.attr.major_brand.markup">isom</property>
  <property name="meta.attr.minor_version.markup">512</property>
  <property name="meta.attr.compatible_brands.markup">isomiso2avc1mp41</property>
  <property name="seekable">1</property>
  <property name="meta.media.sample_aspect_num">1</property>
  <property name="meta.media.sample_aspect_den">1</property>
  <property name="format">3</property>
  <property name="audio_index">1</property>
  <property name="video_index">0</property>
  <property name="warp_speed">5</property>
  <property name="warp_resource">/home/schmilly/Downloads/Snapinsta.app_video_AQOQuqFCeDSXydP-CaryKzl5sOIpkmAUJLetswJaKp_pol64P4qjbZcu-xpRnpt34wN5SEljOGhs-3Zn11pszoo8c5rqdEfaRijXHnQ.mp4</property>
  <property name="mlt_service">timewarp</property>
  <property name="kdenlive:control_uuid">{50130ab3-3c43-47dd-a4bb-317e55c84979}</property>
  <property name="vstream">0</property>
  <property name="astream">0</property>
  <property name="set.test_audio">1</property>
  <property name="set.test_image">0</property>
  <property name="kdenlive:id">5</property>
  <property name="warp_pitch">0</property>
  <property name="meta.media.frame_rate_num">30</property>
  <property name="meta.media.frame_rate_den">1</property>
  <property name="meta.media.colorspace">709</property>
  <property name="meta.media.color_trc">1</property>
  <property name="meta.media.has_b_frames">2</property>
  <property name="meta.media.width">720</property>
  <property name="meta.media.height">1280</property>
  <property name="meta.media.aspect_ratio">1</property>
  <property name="meta.media.color_range">mpeg</property>
  <property name="meta.media.top_field_first">0</property>
  <property name="meta.media.progressive">1</property>
 </producer>
 <playlist id="playlist22">
  <blank length="00:00:01.333"/>
  <entry in="00:00:00.000" out="00:00:00.800" producer="producer9">
   <property name="kdenlive:id">17</property>
   <property name="kdenlive:activeeffect">0</property>
   <filter id="filter78">
    <property name="rotate_center">1</property>
    <property name="mlt_service">qtblend</property>
    <property name="kdenlive_id">qtblend</property>
    <property name="compositing">0</property>
    <property name="distort">1</property>
    <property name="rect">00:00:00.000=176 0 1564 1884 1.000000</property>
    <property name="rotation">00:00:00.000=0</property>
    <property name="kdenlive:collapsed">0</property>
   </filter>
   <filter id="filter79">
    <property name="mlt_service">invert</property>
    <property name="kdenlive_id">invert</property>
    <property name="kdenlive:collapsed">0</property>
   </filter>
  </entry>
  <blank length="00:00:08.067"/>
  <entry in="00:00:00.000" out="00:00:00.067" producer="producer34">
   <property name="kdenlive:id">22</property>
  </entry>
  <blank length="00:00:00.100"/>
  <entry in="00:00:00.000" out="00:00:00.067" producer="producer34">
   <property name="kdenlive:id">22</property>
  </entry>
  <blank length="00:00:00.367"/>
  <entry in="00:00:00.000" out="00:00:00.867" producer="producer58">
   <property name="kdenlive:id">5</property>
   <filter id="filter80">
    <property name="rotate_center">1</property>
    <property name="mlt_service">qtblend</property>
    <property name="kdenlive_id">qtblend</property>
    <property name="compositing">0</property>
    <property name="distort">0</property>
    <property name="rect">00:00:00.000=-852 -435 3676 3676 1.000000</property>
    <property name="rotation">00:00:00.000=0</property>
    <property name="kdenlive:collapsed">0</property>
   </filter>
  </entry>
  <blank length="00:00:05.933"/>
  <entry in="00:00:00.000" out="00:00:00.133" producer="producer59">
   <property name="kdenlive:id">113</property>
  </entry>
  <blank length="00:00:10.167"/>
  <entry in="00:00:00.000" out="00:00:00.900" producer="producer40">
   <property name="kdenlive:id">12</property>
  </entry>
  <blank length="00:00:00.633"/>
  <entry in="00:00:00.000" out="00:00:00.933" producer="producer40">
   <property name="kdenlive:id">12</property>
  </entry>
  <entry in="00:00:00.000" out="00:00:00.067" producer="producer34">
   <property name="kdenlive:id">22</property>
  </entry>
  <blank length="00:00:00.100"/>
  <entry in="00:00:00.000" out="00:00:00.067" producer="producer34">
   <property name="kdenlive:id">22</property>
  </entry>
 </playlist>
 <playlist id="playlist23"/>
 <tractor id="tractor11" in="00:00:00.000" out="00:00:30.867">
  <property name="kdenlive:trackheight">67</property>
  <property name="kdenlive:timeline_active">1</property>
  <property name="kdenlive:collapsed">28</property>
  <property name="kdenlive:thumbs_format"/>
  <property name="kdenlive:audio_rec"/>
  <track hide="audio" producer="playlist22"/>
  <track hide="audio" producer="playlist23"/>
 </tractor>
 <producer id="producer69" in="00:00:00.000" out="00:00:04.433">
  <property name="length">00:00:04.467</property>
  <property name="eof">pause</property>
  <property name="resource">3.750000:/home/schmilly/Downloads/Rental affordability in Australia the worst it's ever been, report says _ ABC News 720-41-54.mp4</property>
  <property name="aspect_ratio">1</property>
  <property name="meta.media.nb_streams">3</property>
  <property name="meta.media.0.stream.type">video</property>
  <property name="meta.media.0.stream.frame_rate">25</property>
  <property name="meta.media.0.stream.sample_aspect_ratio">1</property>
  <property name="meta.media.0.codec.width">1280</property>
  <property name="meta.media.0.codec.height">720</property>
  <property name="meta.media.0.codec.rotate">0</property>
  <property name="meta.media.0.codec.pix_fmt">yuv420p</property>
  <property name="meta.media.0.codec.sample_aspect_ratio">1</property>
  <property name="meta.media.0.codec.colorspace">709</property>
  <property name="meta.media.0.codec.color_trc">1</property>
  <property name="meta.media.0.codec.name">h264</property>
  <property name="meta.media.0.codec.long_name">H.264 / AVC / MPEG-4 AVC / MPEG-4 part 10</property>
  <property name="meta.media.0.codec.bit_rate">439489</property>
  <property name="meta.attr.0.stream.handler_name.markup">ISO Media file produced by Google Inc.</property>
  <property name="meta.attr.0.stream.vendor_id.markup">[0][0][0][0]</property>
  <property name="meta.media.1.stream.type">audio</property>
  <property name="meta.media.1.codec.sample_fmt">fltp</property>
  <property name="meta.media.1.codec.sample_rate">44100</property>
  <property name="meta.media.1.codec.channels">2</property>
  <property name="meta.media.1.codec.layout">stereo</property>
  <property name="meta.media.1.codec.name">aac</property>
  <property name="meta.media.1.codec.long_name">AAC (Advanced Audio Coding)</property>
  <property name="meta.media.1.codec.bit_rate">128050</property>
  <property name="meta.attr.1.stream.language.markup">eng</property>
  <property name="meta.attr.1.stream.handler_name.markup">ISO Media file produced by Google Inc.</property>
  <property name="meta.attr.1.stream.vendor_id.markup">[0][0][0][0]</property>
  <property name="meta.media.2.stream.type">video</property>
  <property name="meta.media.2.stream.frame_rate">90000</property>
  <property name="meta.media.2.stream.sample_aspect_ratio">0</property>
  <property name="meta.media.2.codec.width">1280</property>
  <property name="meta.media.2.codec.height">720</property>
  <property name="meta.media.2.codec.rotate">0</property>
  <property name="meta.media.2.codec.pix_fmt">rgb24</property>
  <property name="meta.media.2.codec.sample_aspect_ratio">0</property>
  <property name="meta.media.2.codec.colorspace">0</property>
  <property name="meta.media.2.codec.name">png</property>
  <property name="meta.media.2.codec.long_name">PNG (Portable Network Graphics) image</property>
  <property name="meta.media.2.codec.bit_rate">0</property>
  <property name="meta.attr.major_brand.markup">isom</property>
  <property name="meta.attr.minor_version.markup">512</property>
  <property name="meta.attr.compatible_brands.markup">isomiso2avc1mp41</property>
  <property name="meta.attr.title.markup">Rental affordability in Australia the worst it's ever been, report says | ABC News</property>
  <property name="meta.attr.artist.markup">ABC News (Australia)</property>
  <property name="meta.attr.date.markup">20240423</property>
  <property name="meta.attr.encoder.markup">Lavf61.7.100</property>
  <property name="meta.attr.comment.markup">https://www.youtube.com/watch?v=hliaf_8My40</property>
  <property name="meta.attr.description.markup">There is not a single property across Australia – or even a room in a shared house – that's affordable for someone on youth allowance, according to a new report from support organisation Anglicare Australia.

Subscribe: http://ab.co/1svxLVE
Read more here: https://www.abc.net.au/news/2024-04-23/anglicare-australia-rental-affordability-report/103754274

ABC News provides around the clock coverage of news events as they break in Australia and abroad. It's news when you want it, from Australia's most trusted news organisation.

For more from ABC News, click here: https://ab.co/2kxYCZY
Watch more ABC News content ad-free on ABC iview: https://ab.co/2OB7Mk1

Go deeper on our ABC News In-depth channel: https://ab.co/2lNeBn2
Like ABC News on Facebook: http://facebook.com/abcnews.au
Follow ABC News on Instagram: http://instagram.com/abcnews_au
Follow ABC News on Twitter: http://twitter.com/abcnews

Note: In most cases, our captions are auto-generated.

#ABCNews #ABCNewsAustralia #housing #housingcrisis #rentalproperty</property>
  <property name="meta.attr.synopsis.markup">There is not a single property across Australia – or even a room in a shared house – that's affordable for someone on youth allowance, according to a new report from support organisation Anglicare Australia.

Subscribe: http://ab.co/1svxLVE
Read more here: https://www.abc.net.au/news/2024-04-23/anglicare-australia-rental-affordability-report/103754274

ABC News provides around the clock coverage of news events as they break in Australia and abroad. It's news when you want it, from Australia's most trusted news organisation.

For more from ABC News, click here: https://ab.co/2kxYCZY
Watch more ABC News content ad-free on ABC iview: https://ab.co/2OB7Mk1

Go deeper on our ABC News In-depth channel: https://ab.co/2lNeBn2
Like ABC News on Facebook: http://facebook.com/abcnews.au
Follow ABC News on Instagram: http://instagram.com/abcnews_au
Follow ABC News on Twitter: http://twitter.com/abcnews

Note: In most cases, our captions are auto-generated.

#ABCNews #ABCNewsAustralia #housing #housingcrisis #rentalproperty</property>
  <property name="seekable">1</property>
  <property name="meta.media.sample_aspect_num">1</property>
  <property name="meta.media.sample_aspect_den">1</property>
  <property name="format">3</property>
  <property name="audio_index">1</property>
  <property name="video_index">0</property>
  <property name="warp_speed">3.75</property>
  <property name="warp_resource">/home/schmilly/Downloads/Rental affordability in Australia the worst it's ever been, report says _ ABC News 720-41-54.mp4</property>
  <property name="mlt_service">timewarp</property>
  <property name="kdenlive:control_uuid">{21c05f38-c3ec-47ca-991d-ac2f245e4397}</property>
  <property name="vstream">0</property>
  <property name="astream">0</property>
  <property name="set.test_audio">1</property>
  <property name="set.test_image">0</property>
  <property name="kdenlive:id">11</property>
  <property name="warp_pitch">0</property>
  <property name="meta.media.frame_rate_num">25</property>
  <property name="meta.media.frame_rate_den">1</property>
  <property name="meta.media.colorspace">709</property>
  <property name="meta.media.color_trc">1</property>
  <property name="meta.media.has_b_frames">1</property>
  <property name="meta.media.width">1280</property>
  <property name="meta.media.height">720</property>
  <property name="meta.media.aspect_ratio">1</property>
  <property name="meta.media.color_range">mpeg</property>
  <property name="meta.media.top_field_first">0</property>
  <property name="meta.media.progressive">1</property>
 </producer>
 <producer id="producer70" in="00:00:00.000" out="00:00:10.833">
  <property name="length">00:00:10.867</property>
  <property name="eof">pause</property>
  <property name="resource">1.550000:/home/schmilly/Downloads/Rental affordability in Australia the worst it's ever been, report says _ ABC News 720-41-54.mp4</property>
  <property name="aspect_ratio">1</property>
  <property name="meta.media.nb_streams">3</property>
  <property name="meta.media.0.stream.type">video</property>
  <property name="meta.media.0.stream.frame_rate">25</property>
  <property name="meta.media.0.stream.sample_aspect_ratio">1</property>
  <property name="meta.media.0.codec.width">1280</property>
  <property name="meta.media.0.codec.height">720</property>
  <property name="meta.media.0.codec.rotate">0</property>
  <property name="meta.media.0.codec.pix_fmt">yuv420p</property>
  <property name="meta.media.0.codec.sample_aspect_ratio">1</property>
  <property name="meta.media.0.codec.colorspace">709</property>
  <property name="meta.media.0.codec.color_trc">1</property>
  <property name="meta.media.0.codec.name">h264</property>
  <property name="meta.media.0.codec.long_name">H.264 / AVC / MPEG-4 AVC / MPEG-4 part 10</property>
  <property name="meta.media.0.codec.bit_rate">439489</property>
  <property name="meta.attr.0.stream.handler_name.markup">ISO Media file produced by Google Inc.</property>
  <property name="meta.attr.0.stream.vendor_id.markup">[0][0][0][0]</property>
  <property name="meta.media.1.stream.type">audio</property>
  <property name="meta.media.1.codec.sample_fmt">fltp</property>
  <property name="meta.media.1.codec.sample_rate">44100</property>
  <property name="meta.media.1.codec.channels">2</property>
  <property name="meta.media.1.codec.layout">stereo</property>
  <property name="meta.media.1.codec.name">aac</property>
  <property name="meta.media.1.codec.long_name">AAC (Advanced Audio Coding)</property>
  <property name="meta.media.1.codec.bit_rate">128050</property>
  <property name="meta.attr.1.stream.language.markup">eng</property>
  <property name="meta.attr.1.stream.handler_name.markup">ISO Media file produced by Google Inc.</property>
  <property name="meta.attr.1.stream.vendor_id.markup">[0][0][0][0]</property>
  <property name="meta.media.2.stream.type">video</property>
  <property name="meta.media.2.stream.frame_rate">90000</property>
  <property name="meta.media.2.stream.sample_aspect_ratio">0</property>
  <property name="meta.media.2.codec.width">1280</property>
  <property name="meta.media.2.codec.height">720</property>
  <property name="meta.media.2.codec.rotate">0</property>
  <property name="meta.media.2.codec.pix_fmt">rgb24</property>
  <property name="meta.media.2.codec.sample_aspect_ratio">0</property>
  <property name="meta.media.2.codec.colorspace">0</property>
  <property name="meta.media.2.codec.name">png</property>
  <property name="meta.media.2.codec.long_name">PNG (Portable Network Graphics) image</property>
  <property name="meta.media.2.codec.bit_rate">0</property>
  <property name="meta.attr.major_brand.markup">isom</property>
  <property name="meta.attr.minor_version.markup">512</property>
  <property name="meta.attr.compatible_brands.markup">isomiso2avc1mp41</property>
  <property name="meta.attr.title.markup">Rental affordability in Australia the worst it's ever been, report says | ABC News</property>
  <property name="meta.attr.artist.markup">ABC News (Australia)</property>
  <property name="meta.attr.date.markup">20240423</property>
  <property name="meta.attr.encoder.markup">Lavf61.7.100</property>
  <property name="meta.attr.comment.markup">https://www.youtube.com/watch?v=hliaf_8My40</property>
  <property name="meta.attr.description.markup">There is not a single property across Australia – or even a room in a shared house – that's affordable for someone on youth allowance, according to a new report from support organisation Anglicare Australia.

Subscribe: http://ab.co/1svxLVE
Read more here: https://www.abc.net.au/news/2024-04-23/anglicare-australia-rental-affordability-report/103754274

ABC News provides around the clock coverage of news events as they break in Australia and abroad. It's news when you want it, from Australia's most trusted news organisation.

For more from ABC News, click here: https://ab.co/2kxYCZY
Watch more ABC News content ad-free on ABC iview: https://ab.co/2OB7Mk1

Go deeper on our ABC News In-depth channel: https://ab.co/2lNeBn2
Like ABC News on Facebook: http://facebook.com/abcnews.au
Follow ABC News on Instagram: http://instagram.com/abcnews_au
Follow ABC News on Twitter: http://twitter.com/abcnews

Note: In most cases, our captions are auto-generated.

#ABCNews #ABCNewsAustralia #housing #housingcrisis #rentalproperty</property>
  <property name="meta.attr.synopsis.markup">There is not a single property across Australia – or even a room in a shared house – that's affordable for someone on youth allowance, according to a new report from support organisation Anglicare Australia.

Subscribe: http://ab.co/1svxLVE
Read more here: https://www.abc.net.au/news/2024-04-23/anglicare-australia-rental-affordability-report/103754274

ABC News provides around the clock coverage of news events as they break in Australia and abroad. It's news when you want it, from Australia's most trusted news organisation.

For more from ABC News, click here: https://ab.co/2kxYCZY
Watch more ABC News content ad-free on ABC iview: https://ab.co/2OB7Mk1

Go deeper on our ABC News In-depth channel: https://ab.co/2lNeBn2
Like ABC News on Facebook: http://facebook.com/abcnews.au
Follow ABC News on Instagram: http://instagram.com/abcnews_au
Follow ABC News on Twitter: http://twitter.com/abcnews

Note: In most cases, our captions are auto-generated.

#ABCNews #ABCNewsAustralia #housing #housingcrisis #rentalproperty</property>
  <property name="seekable">1</property>
  <property name="meta.media.sample_aspect_num">1</property>
  <property name="meta.media.sample_aspect_den">1</property>
  <property name="format">3</property>
  <property name="audio_index">1</property>
  <property name="video_index">0</property>
  <property name="warp_speed">1.55</property>
  <property name="warp_resource">/home/schmilly/Downloads/Rental affordability in Australia the worst it's ever been, report says _ ABC News 720-41-54.mp4</property>
  <property name="mlt_service">timewarp</property>
  <property name="kdenlive:control_uuid">{21c05f38-c3ec-47ca-991d-ac2f245e4397}</property>
  <property name="vstream">0</property>
  <property name="astream">0</property>
  <property name="set.test_audio">1</property>
  <property name="set.test_image">0</property>
  <property name="kdenlive:id">11</property>
  <property name="warp_pitch">0</property>
  <property name="meta.media.frame_rate_num">25</property>
  <property name="meta.media.frame_rate_den">1</property>
  <property name="meta.media.colorspace">709</property>
  <property name="meta.media.color_trc">1</property>
  <property name="meta.media.has_b_frames">1</property>
  <property name="meta.media.width">1280</property>
  <property name="meta.media.height">720</property>
  <property name="meta.media.aspect_ratio">1</property>
  <property name="meta.media.color_range">mpeg</property>
  <property name="meta.media.top_field_first">0</property>
  <property name="meta.media.progressive">1</property>
 </producer>
 <producer id="producer71" in="00:00:00.000" out="00:00:01.333">
  <property name="length">00:00:01.400</property>
  <property name="eof">pause</property>
  <property name="resource">10.000000:/home/schmilly/Downloads/Rent affordability in South Australia has plummeted to its lowest level on record _ 7 News Australia 720-0-13.mp4</property>
  <property name="aspect_ratio">1</property>
  <property name="meta.media.nb_streams">3</property>
  <property name="meta.media.0.stream.type">video</property>
  <property name="meta.media.0.stream.frame_rate">25</property>
  <property name="meta.media.0.stream.sample_aspect_ratio">1</property>
  <property name="meta.media.0.codec.width">1280</property>
  <property name="meta.media.0.codec.height">720</property>
  <property name="meta.media.0.codec.rotate">0</property>
  <property name="meta.media.0.codec.pix_fmt">yuv420p</property>
  <property name="meta.media.0.codec.sample_aspect_ratio">1</property>
  <property name="meta.media.0.codec.colorspace">709</property>
  <property name="meta.media.0.codec.color_trc">1</property>
  <property name="meta.media.0.codec.name">h264</property>
  <property name="meta.media.0.codec.long_name">H.264 / AVC / MPEG-4 AVC / MPEG-4 part 10</property>
  <property name="meta.media.0.codec.bit_rate">1136783</property>
  <property name="meta.attr.0.stream.handler_name.markup">ISO Media file produced by Google Inc.</property>
  <property name="meta.attr.0.stream.vendor_id.markup">[0][0][0][0]</property>
  <property name="meta.media.1.stream.type">audio</property>
  <property name="meta.media.1.codec.sample_fmt">fltp</property>
  <property name="meta.media.1.codec.sample_rate">44100</property>
  <property name="meta.media.1.codec.channels">2</property>
  <property name="meta.media.1.codec.layout">stereo</property>
  <property name="meta.media.1.codec.name">aac</property>
  <property name="meta.media.1.codec.long_name">AAC (Advanced Audio Coding)</property>
  <property name="meta.media.1.codec.bit_rate">128117</property>
  <property name="meta.attr.1.stream.handler_name.markup">ISO Media file produced by Google Inc.</property>
  <property name="meta.attr.1.stream.vendor_id.markup">[0][0][0][0]</property>
  <property name="meta.media.2.stream.type">video</property>
  <property name="meta.media.2.stream.frame_rate">90000</property>
  <property name="meta.media.2.stream.sample_aspect_ratio">0</property>
  <property name="meta.media.2.codec.width">1280</property>
  <property name="meta.media.2.codec.height">720</property>
  <property name="meta.media.2.codec.rotate">0</property>
  <property name="meta.media.2.codec.pix_fmt">rgb24</property>
  <property name="meta.media.2.codec.sample_aspect_ratio">0</property>
  <property name="meta.media.2.codec.colorspace">0</property>
  <property name="meta.media.2.codec.name">png</property>
  <property name="meta.media.2.codec.long_name">PNG (Portable Network Graphics) image</property>
  <property name="meta.media.2.codec.bit_rate">0</property>
  <property name="meta.attr.major_brand.markup">isom</property>
  <property name="meta.attr.minor_version.markup">512</property>
  <property name="meta.attr.compatible_brands.markup">isomiso2avc1mp41</property>
  <property name="meta.attr.title.markup">Rent affordability in South Australia has plummeted to its lowest level on record | 7 News Australia</property>
  <property name="meta.attr.artist.markup">7NEWS Australia</property>
  <property name="meta.attr.date.markup">20240309</property>
  <property name="meta.attr.encoder.markup">Lavf61.7.100</property>
  <property name="meta.attr.comment.markup">https://www.youtube.com/watch?v=mdLjT8tPbFE</property>
  <property name="meta.attr.description.markup">If you are struggling to afford a rental, here is why - affordability in South Australia has plummeted to its lowest level on record.

A new report has found most advertised properties are out of reach for a family with an average income.

Subscribe and set 🔔 » https://7news.link/YTSubscribe | 



For the latest Australian news and breaking news alerts, connect with 7NEWS online:
Visit » https://7news.com.au
7NEWS Podcast » http://smarturl.it/7NewsDaily
Facebook » https://www.facebook.com/7NewsAustralia
Twitter » https://twitter.com/7NewsAustralia
Instagram » https://www.instagram.com/7newsaustralia/ 

7NEWS combines the trusted and powerful news brands including Sunrise, The Morning Show, The Latest, and 7NEWS.com.au, delivering unique, engaging and continuous coverage on the issues that matter most to Australians. Watch 7 News Australia full broadcasts and full episodes nightly at 6pm and weekdays at 11:30am and 4pm on Channel 7 and 7plus.

#BREAKINGNEWS #7NEWS</property>
  <property name="meta.attr.synopsis.markup">If you are struggling to afford a rental, here is why - affordability in South Australia has plummeted to its lowest level on record.

A new report has found most advertised properties are out of reach for a family with an average income.

Subscribe and set 🔔 » https://7news.link/YTSubscribe | 



For the latest Australian news and breaking news alerts, connect with 7NEWS online:
Visit » https://7news.com.au
7NEWS Podcast » http://smarturl.it/7NewsDaily
Facebook » https://www.facebook.com/7NewsAustralia
Twitter » https://twitter.com/7NewsAustralia
Instagram » https://www.instagram.com/7newsaustralia/ 

7NEWS combines the trusted and powerful news brands including Sunrise, The Morning Show, The Latest, and 7NEWS.com.au, delivering unique, engaging and continuous coverage on the issues that matter most to Australians. Watch 7 News Australia full broadcasts and full episodes nightly at 6pm and weekdays at 11:30am and 4pm on Channel 7 and 7plus.

#BREAKINGNEWS #7NEWS</property>
  <property name="seekable">1</property>
  <property name="meta.media.sample_aspect_num">1</property>
  <property name="meta.media.sample_aspect_den">1</property>
  <property name="format">3</property>
  <property name="audio_index">1</property>
  <property name="video_index">0</property>
  <property name="warp_speed">10</property>
  <property name="warp_resource">/home/schmilly/Downloads/Rent affordability in South Australia has plummeted to its lowest level on record _ 7 News Australia 720-0-13.mp4</property>
  <property name="mlt_service">timewarp</property>
  <property name="kdenlive:control_uuid">{f9d019d9-a9e1-44ad-a835-fb73d943a12f}</property>
  <property name="vstream">0</property>
  <property name="astream">0</property>
  <property name="set.test_audio">1</property>
  <property name="set.test_image">0</property>
  <property name="kdenlive:id">20</property>
  <property name="warp_pitch">0</property>
  <property name="meta.media.frame_rate_num">25</property>
  <property name="meta.media.frame_rate_den">1</property>
  <property name="meta.media.colorspace">709</property>
  <property name="meta.media.color_trc">1</property>
  <property name="meta.media.has_b_frames">1</property>
  <property name="meta.media.width">1280</property>
  <property name="meta.media.height">720</property>
  <property name="meta.media.aspect_ratio">1</property>
  <property name="meta.media.color_range">mpeg</property>
  <property name="meta.media.top_field_first">0</property>
  <property name="meta.media.progressive">1</property>
 </producer>
 <producer id="producer54" in="00:00:00.000" out="00:00:02.467">
  <property name="length">75</property>
  <property name="eof">pause</property>
  <property name="resource"/>
  <property name="meta.media.progressive">1</property>
  <property name="aspect_ratio">1</property>
  <property name="seekable">1</property>
  <property name="mlt_service">kdenlivetitle</property>
  <property name="kdenlive:duration">00:00:02.500</property>
  <property name="kdenlive:clipname">Action</property>
  <property name="xmldata">&lt;kdenlivetitle LC_NUMERIC="C" duration="75" height="1920" out="74" width="1920">
 &lt;item type="QGraphicsTextItem" z-index="0">
  &lt;position x="368" y="1404">
   &lt;transform>1,0,0,0,1,0,0,0,1&lt;/transform>
  &lt;/position>
  &lt;content alignment="0" box-height="477" box-width="1009" font="Noto Sans" font-color="255,255,255,255" font-italic="0" font-pixel-size="350" font-underline="0" font-weight="400" letter-spacing="0" shadow="0;#64000000;3;3;3" tab-width="80" typewriter="0;2;1;0;0">action&lt;/content>
 &lt;/item>
 &lt;startviewport rect="0,0,1920,1920"/>
 &lt;endviewport rect="0,0,1920,1920"/>
 &lt;background color="0,0,0,0"/>
&lt;/kdenlivetitle>
</property>
  <property name="xml">was here</property>
  <property name="kdenlive:folderid">28</property>
  <property name="kdenlive:id">25</property>
  <property name="kdenlive:control_uuid">{b248c3f2-ecf4-4164-97e0-55ab0719e2c9}</property>
  <property name="kdenlive:clip_type">2</property>
  <property name="kdenlive:uniqueId">{4ef462c7-1a68-4e21-86e7-c166997058e0}</property>
  <property name="kdenlive:file_hash">31e4c4cdd6ef0b4260f519c3ad8b2ea8</property>
  <property name="force_reload">0</property>
  <property name="kdenlive:monitorPosition">26</property>
  <property name="meta.media.width">1920</property>
  <property name="meta.media.height">1920</property>
 </producer>
 <playlist id="playlist24">
  <blank length="00:00:02.167"/>
  <entry in="00:00:02.367" out="00:00:02.600" producer="producer69">
   <property name="kdenlive:id">11</property>
   <property name="kdenlive:activeeffect">1</property>
   <filter id="filter81" in="00:00:02.367" out="00:00:02.600">
    <property name="delta">00:00:00.267=14</property>
    <property name="every">00:00:00.267=20</property>
    <property name="brightnessdelta_up">00:00:00.267=20</property>
    <property name="brightnessdelta_down">00:00:00.267=30</property>
    <property name="brightnessdelta_every">00:00:00.267=70</property>
    <property name="unevendevelop_up">00:00:00.267=60</property>
    <property name="unevendevelop_down">00:00:00.267=20</property>
    <property name="unevendevelop_duration">00:00:00.267=70</property>
    <property name="mlt_service">oldfilm</property>
    <property name="kdenlive_id">oldfilm</property>
    <property name="kdenlive:collapsed">0</property>
   </filter>
   <filter id="filter82">
    <property name="rotate_center">1</property>
    <property name="mlt_service">qtblend</property>
    <property name="kdenlive_id">qtblend</property>
    <property name="compositing">0</property>
    <property name="distort">1</property>
    <property name="rect">00:00:02.367=0 0 1920 1920 1</property>
    <property name="rotation">00:00:02.367=0</property>
    <property name="kdenlive:collapsed">0</property>
   </filter>
  </entry>
  <entry in="00:00:08.533" out="00:00:09.933" producer="producer70">
   <property name="kdenlive:id">11</property>
   <property name="kdenlive:activeeffect">1</property>
   <filter id="filter83" in="00:00:08.533" out="00:00:09.933">
    <property name="delta">00:00:01.433=14</property>
    <property name="every">00:00:01.433=20</property>
    <property name="brightnessdelta_up">00:00:01.433=20</property>
    <property name="brightnessdelta_down">00:00:01.433=30</property>
    <property name="brightnessdelta_every">00:00:01.433=70</property>
    <property name="unevendevelop_up">00:00:01.433=60</property>
    <property name="unevendevelop_down">00:00:01.433=20</property>
    <property name="unevendevelop_duration">00:00:01.433=70</property>
    <property name="mlt_service">oldfilm</property>
    <property name="kdenlive_id">oldfilm</property>
    <property name="kdenlive:collapsed">0</property>
   </filter>
   <filter id="filter84">
    <property name="version">0.1</property>
    <property name="mlt_service">frei0r.glitch0r</property>
    <property name="kdenlive_id">frei0r.glitch0r</property>
    <property name="0">00:00:08.533=0.094</property>
    <property name="1">00:00:08.533=0.49913</property>
    <property name="2">00:00:08.533=0.499305</property>
    <property name="3">00:00:08.533=0.306</property>
    <property name="kdenlive:collapsed">0</property>
   </filter>
   <filter id="filter85">
    <property name="rotate_center">1</property>
    <property name="mlt_service">qtblend</property>
    <property name="kdenlive_id">qtblend</property>
    <property name="compositing">0</property>
    <property name="distort">1</property>
    <property name="rect">00:00:08.533=0 0 1920 1920 1</property>
    <property name="rotation">00:00:08.533=0</property>
    <property name="kdenlive:collapsed">0</property>
   </filter>
  </entry>
  <entry in="00:00:00.000" out="00:00:00.967" producer="producer10">
   <property name="kdenlive:id">18</property>
   <property name="kdenlive:activeeffect">1</property>
   <filter id="filter86">
    <property name="mlt_service">invert</property>
    <property name="kdenlive_id">invert</property>
    <property name="kdenlive:collapsed">0</property>
   </filter>
   <filter id="filter87">
    <property name="rotate_center">1</property>
    <property name="mlt_service">qtblend</property>
    <property name="kdenlive_id">qtblend</property>
    <property name="compositing">0</property>
    <property name="distort">1</property>
    <property name="rect">00:00:00.000=176 0 1564 1884 1.000000</property>
    <property name="rotation">00:00:00.000=0</property>
    <property name="kdenlive:collapsed">0</property>
   </filter>
  </entry>
  <entry in="00:00:00.100" out="00:00:01.000" producer="producer71">
   <property name="kdenlive:id">20</property>
   <property name="kdenlive:activeeffect">0</property>
   <filter id="filter88" in="00:00:00.100" out="00:00:01.000">
    <property name="delta">00:00:00.100=14</property>
    <property name="every">00:00:00.100=20</property>
    <property name="brightnessdelta_up">00:00:00.100=20</property>
    <property name="brightnessdelta_down">00:00:00.100=30</property>
    <property name="brightnessdelta_every">00:00:00.100=70</property>
    <property name="unevendevelop_up">00:00:00.100=60</property>
    <property name="unevendevelop_down">00:00:00.100=20</property>
    <property name="unevendevelop_duration">00:00:00.100=70</property>
    <property name="mlt_service">oldfilm</property>
    <property name="kdenlive_id">oldfilm</property>
    <property name="kdenlive:collapsed">0</property>
   </filter>
   <filter id="filter89">
    <property name="version">0.1</property>
    <property name="mlt_service">frei0r.glitch0r</property>
    <property name="kdenlive_id">frei0r.glitch0r</property>
    <property name="0">00:00:00.100=0.094</property>
    <property name="1">00:00:00.100=0.49913</property>
    <property name="2">00:00:00.100=0.499305</property>
    <property name="3">00:00:00.100=0.306</property>
    <property name="kdenlive:collapsed">0</property>
   </filter>
   <filter id="filter90">
    <property name="rotate_center">1</property>
    <property name="mlt_service">qtblend</property>
    <property name="kdenlive_id">qtblend</property>
    <property name="compositing">0</property>
    <property name="distort">1</property>
    <property name="rect">00:00:00.100=0 0 1920 1920 1</property>
    <property name="rotation">00:00:00.100=0</property>
    <property name="kdenlive:collapsed">0</property>
   </filter>
  </entry>
  <blank length="00:00:03.467"/>
  <entry in="00:00:00.000" out="00:00:00.833" producer="producer54">
   <property name="kdenlive:id">25</property>
   <filter id="filter91">
    <property name="rotate_center">1</property>
    <property name="mlt_service">qtblend</property>
    <property name="kdenlive_id">qtblend</property>
    <property name="compositing">0</property>
    <property name="distort">1</property>
    <property name="rect">00:00:00.000=342 0 1215 1884 1.000000</property>
    <property name="rotation">00:00:00.000=0</property>
    <property name="kdenlive:collapsed">0</property>
   </filter>
   <filter id="filter92">
    <property name="mlt_service">invert</property>
    <property name="kdenlive_id">invert</property>
    <property name="kdenlive:collapsed">0</property>
   </filter>
  </entry>
  <blank length="00:00:04.000"/>
  <entry in="00:00:00.000" out="00:00:01.100" producer="producer3">
   <property name="kdenlive:id">15</property>
  </entry>
  <entry in="00:00:00.000" out="00:00:00.867" producer="producer2">
   <property name="kdenlive:id">16</property>
  </entry>
  <entry in="00:00:00.000" out="00:00:00.800" producer="producer3">
   <property name="kdenlive:id">15</property>
  </entry>
  <entry in="00:00:00.000" out="00:00:00.400" producer="producer2">
   <property name="kdenlive:id">16</property>
  </entry>
  <blank length="00:00:00.300"/>
  <entry in="00:00:00.000" out="00:00:00.133" producer="producer72">
   <property name="kdenlive:id">112</property>
   <filter id="filter93">
    <property name="rotate_center">1</property>
    <property name="mlt_service">qtblend</property>
    <property name="kdenlive_id">qtblend</property>
    <property name="compositing">0</property>
    <property name="distort">0</property>
    <property name="rect">00:00:00.000=1327 444 521 521 1.000000</property>
    <property name="rotation">00:00:00.000=291</property>
    <property name="kdenlive:collapsed">0</property>
   </filter>
   <filter id="filter94">
    <property name="color">00:00:00.000=#b4636363</property>
    <property name="radius">1</property>
    <property name="x">8</property>
    <property name="y">8</property>
    <property name="mlt_service">dropshadow</property>
    <property name="kdenlive_id">dropshadow</property>
   </filter>
  </entry>
  <blank length="00:00:12.500"/>
  <entry in="00:00:00.000" out="00:00:00.133" producer="producer3">
   <property name="kdenlive:id">15</property>
  </entry>
 </playlist>
 <playlist id="playlist25"/>
 <tractor id="tractor12" in="00:00:00.000" out="00:00:30.533">
  <property name="kdenlive:trackheight">67</property>
  <property name="kdenlive:timeline_active">1</property>
  <property name="kdenlive:collapsed">0</property>
  <property name="kdenlive:thumbs_format"/>
  <property name="kdenlive:audio_rec"/>
  <track hide="audio" producer="playlist24"/>
  <track hide="audio" producer="playlist25"/>
 </tractor>
 <producer id="producer55" in="00:00:00.000" out="00:00:02.467">
  <property name="length">75</property>
  <property name="eof">pause</property>
  <property name="resource"/>
  <property name="meta.media.progressive">1</property>
  <property name="aspect_ratio">1</property>
  <property name="seekable">1</property>
  <property name="mlt_service">kdenlivetitle</property>
  <property name="kdenlive:duration">00:00:02.500</property>
  <property name="kdenlive:clipname">Organised</property>
  <property name="xmldata">&lt;kdenlivetitle LC_NUMERIC="C" duration="75" height="1920" out="74" width="1920">
 &lt;item type="QGraphicsTextItem" z-index="0">
  &lt;position x="96" y="801">
   &lt;transform>1,0,0,0,1,0,0,0,1&lt;/transform>
  &lt;/position>
  &lt;content alignment="0" box-height="477" box-width="1651.22" font="Noto Sans" font-color="255,255,255,255" font-italic="0" font-pixel-size="350" font-underline="0" font-weight="400" letter-spacing="0" shadow="0;#64000000;3;3;3" tab-width="80" typewriter="0;2;1;0;0">organised&lt;/content>
 &lt;/item>
 &lt;startviewport rect="0,0,1920,1920"/>
 &lt;endviewport rect="0,0,1920,1920"/>
 &lt;background color="0,0,0,0"/>
&lt;/kdenlivetitle>
</property>
  <property name="xml">was here</property>
  <property name="kdenlive:folderid">28</property>
  <property name="kdenlive:id">23</property>
  <property name="kdenlive:control_uuid">{8e8b2d77-a8bb-46cb-92d8-d5e99453faeb}</property>
  <property name="kdenlive:clip_type">2</property>
  <property name="kdenlive:uniqueId">{85bce351-0696-4a90-9ad2-f0d1d37a222d}</property>
  <property name="kdenlive:file_hash">520d53fb9dbc73013190baf058f59612</property>
  <property name="force_reload">0</property>
  <property name="kdenlive:monitorPosition">56</property>
  <property name="meta.media.width">1920</property>
  <property name="meta.media.height">1920</property>
 </producer>
 <chain id="chain17" out="00:00:11.000">
  <property name="length">00:00:11.067</property>
  <property name="eof">pause</property>
  <property name="resource">/home/schmilly/Downloads/Snapinsta.app_video_AQOOsAVmPv3qtzSJ44Z-cmU6PK2_7l4ar1HYQkLJ85NdbwWHzHSUAWU9W001DMl1SSfFQzODfS1jghRk9ZVTVdySVALBZBBN4jfZo64-69-76.mp4</property>
  <property name="mlt_service">avformat-novalidate</property>
  <property name="seekable">1</property>
  <property name="format">3</property>
  <property name="audio_index">1</property>
  <property name="video_index">0</property>
  <property name="vstream">0</property>
  <property name="astream">0</property>
  <property name="kdenlive:control_uuid">{701ca0c4-388b-46b0-b06a-3d84463b3ac9}</property>
  <property name="kdenlive:id">9</property>
  <property name="kdenlive:clip_type">0</property>
  <property name="kdenlive:file_size">1059174</property>
  <property name="kdenlive:file_hash">3b669e6708b1f7bfc81fdf47e1691c50</property>
  <property name="kdenlive:folderid">-1</property>
  <property name="meta.media.nb_streams">2</property>
  <property name="meta.media.0.stream.type">video</property>
  <property name="meta.media.0.stream.frame_rate">30</property>
  <property name="meta.media.0.stream.sample_aspect_ratio">0</property>
  <property name="meta.media.0.codec.width">720</property>
  <property name="meta.media.0.codec.height">1280</property>
  <property name="meta.media.0.codec.rotate">0</property>
  <property name="meta.media.0.codec.pix_fmt">yuv420p</property>
  <property name="meta.media.0.codec.sample_aspect_ratio">0</property>
  <property name="meta.media.0.codec.colorspace">709</property>
  <property name="meta.media.0.codec.color_trc">1</property>
  <property name="meta.media.0.codec.name">h264</property>
  <property name="meta.media.0.codec.long_name">H.264 / AVC / MPEG-4 AVC / MPEG-4 part 10</property>
  <property name="meta.media.0.codec.bit_rate">719840</property>
  <property name="meta.attr.0.stream.handler_name.markup">VideoHandler</property>
  <property name="meta.attr.0.stream.vendor_id.markup">[0][0][0][0]</property>
  <property name="meta.attr.0.stream.encoder.markup">AVC Coding</property>
  <property name="meta.media.1.stream.type">audio</property>
  <property name="meta.media.1.codec.sample_fmt">fltp</property>
  <property name="meta.media.1.codec.sample_rate">44100</property>
  <property name="meta.media.1.codec.channels">2</property>
  <property name="meta.media.1.codec.layout">stereo</property>
  <property name="meta.media.1.codec.name">aac</property>
  <property name="meta.media.1.codec.long_name">AAC (Advanced Audio Coding)</property>
  <property name="meta.media.1.codec.bit_rate">51196</property>
  <property name="meta.attr.1.stream.handler_name.markup">SoundHandler</property>
  <property name="meta.attr.1.stream.vendor_id.markup">[0][0][0][0]</property>
  <property name="meta.attr.major_brand.markup">isom</property>
  <property name="meta.attr.minor_version.markup">512</property>
  <property name="meta.attr.compatible_brands.markup">isomiso2avc1mp41</property>
  <property name="meta.attr.encoder.markup">Lavf61.7.100</property>
  <property name="meta.media.sample_aspect_num">1</property>
  <property name="meta.media.sample_aspect_den">1</property>
  <property name="meta.media.frame_rate_num">30</property>
  <property name="meta.media.frame_rate_den">1</property>
  <property name="meta.media.colorspace">709</property>
  <property name="meta.media.color_trc">1</property>
  <property name="meta.media.has_b_frames">2</property>
  <property name="meta.media.width">720</property>
  <property name="meta.media.height">1280</property>
  <property name="meta.media.aspect_ratio">1</property>
  <property name="meta.media.color_range">mpeg</property>
  <property name="xml">was here</property>
  <property name="mute_on_pause">0</property>
  <property name="meta.media.top_field_first">0</property>
  <property name="meta.media.progressive">1</property>
  <property name="set.test_audio">1</property>
  <property name="set.test_image">0</property>
 </chain>
 <producer id="producer73" in="00:00:00.000" out="00:01:14.933">
  <property name="length">00:01:15.000</property>
  <property name="eof">pause</property>
  <property name="resource">1.500000:/home/schmilly/Downloads/Snapinsta.app_video_AQN_aOj9Z9cVqWd2t-0apPQvxI41SmquY7ZoMtebjN9RI7HXMyQo2keM-Nl1oGgvNj3KBQLqQlh5WMtY3aIhDyHPtSG5yoODnFEsYEQ.mp4</property>
  <property name="aspect_ratio">1</property>
  <property name="meta.media.nb_streams">2</property>
  <property name="meta.media.0.stream.type">video</property>
  <property name="meta.media.0.stream.frame_rate">30</property>
  <property name="meta.media.0.stream.sample_aspect_ratio">0</property>
  <property name="meta.media.0.codec.width">720</property>
  <property name="meta.media.0.codec.height">1280</property>
  <property name="meta.media.0.codec.rotate">0</property>
  <property name="meta.media.0.codec.pix_fmt">yuv420p</property>
  <property name="meta.media.0.codec.sample_aspect_ratio">0</property>
  <property name="meta.media.0.codec.colorspace">709</property>
  <property name="meta.media.0.codec.color_trc">1</property>
  <property name="meta.media.0.codec.name">h264</property>
  <property name="meta.media.0.codec.long_name">H.264 / AVC / MPEG-4 AVC / MPEG-4 part 10</property>
  <property name="meta.media.0.codec.bit_rate">2533744</property>
  <property name="meta.attr.0.stream.handler_name.markup">VideoHandler</property>
  <property name="meta.attr.0.stream.vendor_id.markup">[0][0][0][0]</property>
  <property name="meta.attr.0.stream.encoder.markup">AVC Coding</property>
  <property name="meta.media.1.stream.type">audio</property>
  <property name="meta.media.1.codec.sample_fmt">fltp</property>
  <property name="meta.media.1.codec.sample_rate">44100</property>
  <property name="meta.media.1.codec.channels">2</property>
  <property name="meta.media.1.codec.layout">stereo</property>
  <property name="meta.media.1.codec.name">aac</property>
  <property name="meta.media.1.codec.long_name">AAC (Advanced Audio Coding)</property>
  <property name="meta.media.1.codec.bit_rate">87450</property>
  <property name="meta.attr.1.stream.handler_name.markup">SoundHandler</property>
  <property name="meta.attr.1.stream.vendor_id.markup">[0][0][0][0]</property>
  <property name="meta.attr.major_brand.markup">isom</property>
  <property name="meta.attr.minor_version.markup">512</property>
  <property name="meta.attr.compatible_brands.markup">isomiso2avc1mp41</property>
  <property name="seekable">1</property>
  <property name="meta.media.sample_aspect_num">1</property>
  <property name="meta.media.sample_aspect_den">1</property>
  <property name="format">3</property>
  <property name="audio_index">1</property>
  <property name="video_index">0</property>
  <property name="warp_speed">1.5</property>
  <property name="warp_resource">/home/schmilly/Downloads/Snapinsta.app_video_AQN_aOj9Z9cVqWd2t-0apPQvxI41SmquY7ZoMtebjN9RI7HXMyQo2keM-Nl1oGgvNj3KBQLqQlh5WMtY3aIhDyHPtSG5yoODnFEsYEQ.mp4</property>
  <property name="mlt_service">timewarp</property>
  <property name="kdenlive:control_uuid">{66d5305f-da2b-43fd-aeee-a8c8dbafe24c}</property>
  <property name="vstream">0</property>
  <property name="astream">0</property>
  <property name="set.test_audio">1</property>
  <property name="set.test_image">0</property>
  <property name="kdenlive:id">6</property>
  <property name="warp_pitch">0</property>
  <property name="meta.media.frame_rate_num">30</property>
  <property name="meta.media.frame_rate_den">1</property>
  <property name="meta.media.colorspace">709</property>
  <property name="meta.media.color_trc">1</property>
  <property name="meta.media.has_b_frames">2</property>
  <property name="meta.media.width">720</property>
  <property name="meta.media.height">1280</property>
  <property name="meta.media.aspect_ratio">1</property>
  <property name="meta.media.color_range">mpeg</property>
  <property name="meta.media.top_field_first">0</property>
  <property name="meta.media.progressive">1</property>
 </producer>
 <producer id="producer76" in="00:00:00.000" out="00:01:14.933">
  <property name="length">00:01:15.000</property>
  <property name="eof">pause</property>
  <property name="resource">1.500000:/home/schmilly/Downloads/Snapinsta.app_video_AQN_aOj9Z9cVqWd2t-0apPQvxI41SmquY7ZoMtebjN9RI7HXMyQo2keM-Nl1oGgvNj3KBQLqQlh5WMtY3aIhDyHPtSG5yoODnFEsYEQ.mp4</property>
  <property name="aspect_ratio">1</property>
  <property name="meta.media.nb_streams">2</property>
  <property name="meta.media.0.stream.type">video</property>
  <property name="meta.media.0.stream.frame_rate">30</property>
  <property name="meta.media.0.stream.sample_aspect_ratio">0</property>
  <property name="meta.media.0.codec.width">720</property>
  <property name="meta.media.0.codec.height">1280</property>
  <property name="meta.media.0.codec.rotate">0</property>
  <property name="meta.media.0.codec.pix_fmt">yuv420p</property>
  <property name="meta.media.0.codec.sample_aspect_ratio">0</property>
  <property name="meta.media.0.codec.colorspace">709</property>
  <property name="meta.media.0.codec.color_trc">1</property>
  <property name="meta.media.0.codec.name">h264</property>
  <property name="meta.media.0.codec.long_name">H.264 / AVC / MPEG-4 AVC / MPEG-4 part 10</property>
  <property name="meta.media.0.codec.bit_rate">2533744</property>
  <property name="meta.attr.0.stream.handler_name.markup">VideoHandler</property>
  <property name="meta.attr.0.stream.vendor_id.markup">[0][0][0][0]</property>
  <property name="meta.attr.0.stream.encoder.markup">AVC Coding</property>
  <property name="meta.media.1.stream.type">audio</property>
  <property name="meta.media.1.codec.sample_fmt">fltp</property>
  <property name="meta.media.1.codec.sample_rate">44100</property>
  <property name="meta.media.1.codec.channels">2</property>
  <property name="meta.media.1.codec.layout">stereo</property>
  <property name="meta.media.1.codec.name">aac</property>
  <property name="meta.media.1.codec.long_name">AAC (Advanced Audio Coding)</property>
  <property name="meta.media.1.codec.bit_rate">87450</property>
  <property name="meta.attr.1.stream.handler_name.markup">SoundHandler</property>
  <property name="meta.attr.1.stream.vendor_id.markup">[0][0][0][0]</property>
  <property name="meta.attr.major_brand.markup">isom</property>
  <property name="meta.attr.minor_version.markup">512</property>
  <property name="meta.attr.compatible_brands.markup">isomiso2avc1mp41</property>
  <property name="seekable">1</property>
  <property name="meta.media.sample_aspect_num">1</property>
  <property name="meta.media.sample_aspect_den">1</property>
  <property name="format">3</property>
  <property name="audio_index">1</property>
  <property name="video_index">0</property>
  <property name="warp_speed">1.5</property>
  <property name="warp_resource">/home/schmilly/Downloads/Snapinsta.app_video_AQN_aOj9Z9cVqWd2t-0apPQvxI41SmquY7ZoMtebjN9RI7HXMyQo2keM-Nl1oGgvNj3KBQLqQlh5WMtY3aIhDyHPtSG5yoODnFEsYEQ.mp4</property>
  <property name="mlt_service">timewarp</property>
  <property name="kdenlive:control_uuid">{66d5305f-da2b-43fd-aeee-a8c8dbafe24c}</property>
  <property name="vstream">0</property>
  <property name="astream">0</property>
  <property name="set.test_audio">1</property>
  <property name="set.test_image">0</property>
  <property name="kdenlive:id">6</property>
  <property name="warp_pitch">0</property>
  <property name="meta.media.frame_rate_num">30</property>
  <property name="meta.media.frame_rate_den">1</property>
  <property name="meta.media.colorspace">709</property>
  <property name="meta.media.color_trc">1</property>
  <property name="meta.media.has_b_frames">2</property>
  <property name="meta.media.width">720</property>
  <property name="meta.media.height">1280</property>
  <property name="meta.media.aspect_ratio">1</property>
  <property name="meta.media.color_range">mpeg</property>
  <property name="meta.media.top_field_first">0</property>
  <property name="meta.media.progressive">1</property>
 </producer>
 <producer id="producer78" in="00:00:00.000" out="00:01:14.933">
  <property name="length">00:01:15.000</property>
  <property name="eof">pause</property>
  <property name="resource">1.500000:/home/schmilly/Downloads/Snapinsta.app_video_AQN_aOj9Z9cVqWd2t-0apPQvxI41SmquY7ZoMtebjN9RI7HXMyQo2keM-Nl1oGgvNj3KBQLqQlh5WMtY3aIhDyHPtSG5yoODnFEsYEQ.mp4</property>
  <property name="aspect_ratio">1</property>
  <property name="meta.media.nb_streams">2</property>
  <property name="meta.media.0.stream.type">video</property>
  <property name="meta.media.0.stream.frame_rate">30</property>
  <property name="meta.media.0.stream.sample_aspect_ratio">0</property>
  <property name="meta.media.0.codec.width">720</property>
  <property name="meta.media.0.codec.height">1280</property>
  <property name="meta.media.0.codec.rotate">0</property>
  <property name="meta.media.0.codec.pix_fmt">yuv420p</property>
  <property name="meta.media.0.codec.sample_aspect_ratio">0</property>
  <property name="meta.media.0.codec.colorspace">709</property>
  <property name="meta.media.0.codec.color_trc">1</property>
  <property name="meta.media.0.codec.name">h264</property>
  <property name="meta.media.0.codec.long_name">H.264 / AVC / MPEG-4 AVC / MPEG-4 part 10</property>
  <property name="meta.media.0.codec.bit_rate">2533744</property>
  <property name="meta.attr.0.stream.handler_name.markup">VideoHandler</property>
  <property name="meta.attr.0.stream.vendor_id.markup">[0][0][0][0]</property>
  <property name="meta.attr.0.stream.encoder.markup">AVC Coding</property>
  <property name="meta.media.1.stream.type">audio</property>
  <property name="meta.media.1.codec.sample_fmt">fltp</property>
  <property name="meta.media.1.codec.sample_rate">44100</property>
  <property name="meta.media.1.codec.channels">2</property>
  <property name="meta.media.1.codec.layout">stereo</property>
  <property name="meta.media.1.codec.name">aac</property>
  <property name="meta.media.1.codec.long_name">AAC (Advanced Audio Coding)</property>
  <property name="meta.media.1.codec.bit_rate">87450</property>
  <property name="meta.attr.1.stream.handler_name.markup">SoundHandler</property>
  <property name="meta.attr.1.stream.vendor_id.markup">[0][0][0][0]</property>
  <property name="meta.attr.major_brand.markup">isom</property>
  <property name="meta.attr.minor_version.markup">512</property>
  <property name="meta.attr.compatible_brands.markup">isomiso2avc1mp41</property>
  <property name="seekable">1</property>
  <property name="meta.media.sample_aspect_num">1</property>
  <property name="meta.media.sample_aspect_den">1</property>
  <property name="format">3</property>
  <property name="audio_index">1</property>
  <property name="video_index">0</property>
  <property name="warp_speed">1.5</property>
  <property name="warp_resource">/home/schmilly/Downloads/Snapinsta.app_video_AQN_aOj9Z9cVqWd2t-0apPQvxI41SmquY7ZoMtebjN9RI7HXMyQo2keM-Nl1oGgvNj3KBQLqQlh5WMtY3aIhDyHPtSG5yoODnFEsYEQ.mp4</property>
  <property name="mlt_service">timewarp</property>
  <property name="kdenlive:control_uuid">{66d5305f-da2b-43fd-aeee-a8c8dbafe24c}</property>
  <property name="vstream">0</property>
  <property name="astream">0</property>
  <property name="set.test_audio">1</property>
  <property name="set.test_image">0</property>
  <property name="kdenlive:id">6</property>
  <property name="warp_pitch">0</property>
  <property name="meta.media.frame_rate_num">30</property>
  <property name="meta.media.frame_rate_den">1</property>
  <property name="meta.media.colorspace">709</property>
  <property name="meta.media.color_trc">1</property>
  <property name="meta.media.has_b_frames">2</property>
  <property name="meta.media.width">720</property>
  <property name="meta.media.height">1280</property>
  <property name="meta.media.aspect_ratio">1</property>
  <property name="meta.media.color_range">mpeg</property>
  <property name="meta.media.top_field_first">0</property>
  <property name="meta.media.progressive">1</property>
 </producer>
 <producer id="producer79" in="00:00:00.000" out="00:02:05.467">
  <property name="length">00:02:05.600</property>
  <property name="eof">pause</property>
  <property name="resource">2.000000:/home/schmilly/Downloads/Snapinsta.app_video_AQM1KdYbIIdOkdcbdaCILpkWffSeNNOs_VrNQ4_RhOGJQgHfDhw6LFQd_8h4s15np9TyXp34iYqgWxPugsPOpFXWVsLoLxGvWtgpyI8.mp4</property>
  <property name="aspect_ratio">1</property>
  <property name="meta.media.nb_streams">2</property>
  <property name="meta.media.0.stream.type">video</property>
  <property name="meta.media.0.stream.frame_rate">30</property>
  <property name="meta.media.0.stream.sample_aspect_ratio">0</property>
  <property name="meta.media.0.codec.width">720</property>
  <property name="meta.media.0.codec.height">1280</property>
  <property name="meta.media.0.codec.rotate">0</property>
  <property name="meta.media.0.codec.pix_fmt">yuv420p</property>
  <property name="meta.media.0.codec.sample_aspect_ratio">0</property>
  <property name="meta.media.0.codec.colorspace">709</property>
  <property name="meta.media.0.codec.color_trc">1</property>
  <property name="meta.media.0.codec.name">h264</property>
  <property name="meta.media.0.codec.long_name">H.264 / AVC / MPEG-4 AVC / MPEG-4 part 10</property>
  <property name="meta.media.0.codec.bit_rate">952853</property>
  <property name="meta.attr.0.stream.handler_name.markup">VideoHandler</property>
  <property name="meta.attr.0.stream.vendor_id.markup">[0][0][0][0]</property>
  <property name="meta.attr.0.stream.encoder.markup">AVC Coding</property>
  <property name="meta.media.1.stream.type">audio</property>
  <property name="meta.media.1.codec.sample_fmt">fltp</property>
  <property name="meta.media.1.codec.sample_rate">44100</property>
  <property name="meta.media.1.codec.channels">2</property>
  <property name="meta.media.1.codec.layout">stereo</property>
  <property name="meta.media.1.codec.name">aac</property>
  <property name="meta.media.1.codec.long_name">AAC (Advanced Audio Coding)</property>
  <property name="meta.media.1.codec.bit_rate">51707</property>
  <property name="meta.attr.1.stream.handler_name.markup">SoundHandler</property>
  <property name="meta.attr.1.stream.vendor_id.markup">[0][0][0][0]</property>
  <property name="meta.attr.major_brand.markup">isom</property>
  <property name="meta.attr.minor_version.markup">512</property>
  <property name="meta.attr.compatible_brands.markup">isomiso2avc1mp41</property>
  <property name="seekable">1</property>
  <property name="meta.media.sample_aspect_num">1</property>
  <property name="meta.media.sample_aspect_den">1</property>
  <property name="format">3</property>
  <property name="audio_index">1</property>
  <property name="video_index">0</property>
  <property name="warp_speed">2</property>
  <property name="warp_resource">/home/schmilly/Downloads/Snapinsta.app_video_AQM1KdYbIIdOkdcbdaCILpkWffSeNNOs_VrNQ4_RhOGJQgHfDhw6LFQd_8h4s15np9TyXp34iYqgWxPugsPOpFXWVsLoLxGvWtgpyI8.mp4</property>
  <property name="mlt_service">timewarp</property>
  <property name="kdenlive:control_uuid">{b9fbdda5-2175-4a29-8540-1dd4f6b8d4cc}</property>
  <property name="vstream">0</property>
  <property name="astream">0</property>
  <property name="set.test_audio">1</property>
  <property name="set.test_image">0</property>
  <property name="kdenlive:id">7</property>
  <property name="warp_pitch">0</property>
  <property name="meta.media.frame_rate_num">30</property>
  <property name="meta.media.frame_rate_den">1</property>
  <property name="meta.media.colorspace">709</property>
  <property name="meta.media.color_trc">1</property>
  <property name="meta.media.has_b_frames">2</property>
  <property name="meta.media.width">720</property>
  <property name="meta.media.height">1280</property>
  <property name="meta.media.aspect_ratio">1</property>
  <property name="meta.media.color_range">mpeg</property>
  <property name="meta.media.top_field_first">0</property>
  <property name="meta.media.progressive">1</property>
 </producer>
 <chain id="chain20" out="00:00:01.000">
  <property name="length">00:00:01.067</property>
  <property name="eof">pause</property>
  <property name="resource">/home/schmilly/Downloads/Snapinsta.app_video_AQOOsAVmPv3qtzSJ44Z-cmU6PK2_7l4ar1HYQkLJ85NdbwWHzHSUAWU9W001DMl1SSfFQzODfS1jghRk9ZVTVdySVALBZBBN4jfZo64-32-37-0-1.mp4</property>
  <property name="mlt_service">avformat-novalidate</property>
  <property name="seekable">1</property>
  <property name="format">3</property>
  <property name="audio_index">1</property>
  <property name="video_index">0</property>
  <property name="vstream">0</property>
  <property name="astream">0</property>
  <property name="kdenlive:control_uuid">{2f1ea70a-1784-4d79-8e27-3fafd74bbf84}</property>
  <property name="kdenlive:id">36</property>
  <property name="kdenlive:clip_type">0</property>
  <property name="kdenlive:file_size">286123</property>
  <property name="kdenlive:file_hash">6aef024ea922700b51c4a2bfc552b954</property>
  <property name="kdenlive:folderid">-1</property>
  <property name="meta.media.nb_streams">2</property>
  <property name="meta.media.0.stream.type">video</property>
  <property name="meta.media.0.stream.frame_rate">30</property>
  <property name="meta.media.0.stream.sample_aspect_ratio">0</property>
  <property name="meta.media.0.codec.width">720</property>
  <property name="meta.media.0.codec.height">1280</property>
  <property name="meta.media.0.codec.rotate">0</property>
  <property name="meta.media.0.codec.pix_fmt">yuv420p</property>
  <property name="meta.media.0.codec.sample_aspect_ratio">0</property>
  <property name="meta.media.0.codec.colorspace">709</property>
  <property name="meta.media.0.codec.color_trc">1</property>
  <property name="meta.media.0.codec.name">h264</property>
  <property name="meta.media.0.codec.long_name">H.264 / AVC / MPEG-4 AVC / MPEG-4 part 10</property>
  <property name="meta.media.0.codec.bit_rate">2296195</property>
  <property name="meta.attr.0.stream.handler_name.markup">VideoHandler</property>
  <property name="meta.attr.0.stream.vendor_id.markup">[0][0][0][0]</property>
  <property name="meta.attr.0.stream.encoder.markup">AVC Coding</property>
  <property name="meta.media.1.stream.type">audio</property>
  <property name="meta.media.1.codec.sample_fmt">fltp</property>
  <property name="meta.media.1.codec.sample_rate">44100</property>
  <property name="meta.media.1.codec.channels">2</property>
  <property name="meta.media.1.codec.layout">stereo</property>
  <property name="meta.media.1.codec.name">aac</property>
  <property name="meta.media.1.codec.long_name">AAC (Advanced Audio Coding)</property>
  <property name="meta.media.1.codec.bit_rate">52836</property>
  <property name="meta.attr.1.stream.handler_name.markup">SoundHandler</property>
  <property name="meta.attr.1.stream.vendor_id.markup">[0][0][0][0]</property>
  <property name="meta.attr.major_brand.markup">isom</property>
  <property name="meta.attr.minor_version.markup">512</property>
  <property name="meta.attr.compatible_brands.markup">isomiso2avc1mp41</property>
  <property name="meta.attr.encoder.markup">Lavf61.7.100</property>
  <property name="meta.media.sample_aspect_num">1</property>
  <property name="meta.media.sample_aspect_den">1</property>
  <property name="meta.media.frame_rate_num">30</property>
  <property name="meta.media.frame_rate_den">1</property>
  <property name="meta.media.colorspace">709</property>
  <property name="meta.media.color_trc">1</property>
  <property name="meta.media.has_b_frames">2</property>
  <property name="meta.media.width">720</property>
  <property name="meta.media.height">1280</property>
  <property name="meta.media.aspect_ratio">1</property>
  <property name="meta.media.color_range">mpeg</property>
  <property name="xml">was here</property>
  <property name="mute_on_pause">0</property>
  <property name="meta.media.top_field_first">0</property>
  <property name="meta.media.progressive">1</property>
  <property name="set.test_audio">1</property>
  <property name="set.test_image">0</property>
 </chain>
 <producer id="producer83" in="00:00:00.000" out="00:00:06.700">
  <property name="length">203</property>
  <property name="eof">pause</property>
  <property name="resource">2.000000:/home/schmilly/Downloads/rentstrike3-6-19.mov</property>
  <property name="aspect_ratio">1</property>
  <property name="meta.media.nb_streams">3</property>
  <property name="meta.media.0.stream.type">video</property>
  <property name="meta.media.0.stream.frame_rate">25</property>
  <property name="meta.media.0.stream.sample_aspect_ratio">1</property>
  <property name="meta.media.0.codec.width">1920</property>
  <property name="meta.media.0.codec.height">1080</property>
  <property name="meta.media.0.codec.rotate">0</property>
  <property name="meta.media.0.codec.pix_fmt">yuv420p</property>
  <property name="meta.media.0.codec.sample_aspect_ratio">0</property>
  <property name="meta.media.0.codec.colorspace">709</property>
  <property name="meta.media.0.codec.color_trc">1</property>
  <property name="meta.media.0.codec.name">h264</property>
  <property name="meta.media.0.codec.long_name">H.264 / AVC / MPEG-4 AVC / MPEG-4 part 10</property>
  <property name="meta.media.0.codec.bit_rate">54987696</property>
  <property name="meta.attr.0.stream.language.markup">eng</property>
  <property name="meta.attr.0.stream.handler_name.markup">Apple Video Media Handler</property>
  <property name="meta.attr.0.stream.vendor_id.markup">FFMP</property>
  <property name="meta.attr.0.stream.encoder.markup">H.264</property>
  <property name="meta.attr.0.stream.timecode.markup">00:00:00:00</property>
  <property name="meta.media.1.stream.type">audio</property>
  <property name="meta.media.1.codec.sample_fmt">s16</property>
  <property name="meta.media.1.codec.sample_rate">48000</property>
  <property name="meta.media.1.codec.channels">2</property>
  <property name="meta.media.1.codec.layout">stereo</property>
  <property name="meta.media.1.codec.name">pcm_s16le</property>
  <property name="meta.media.1.codec.long_name">PCM signed 16-bit little-endian</property>
  <property name="meta.media.1.codec.bit_rate">1536000</property>
  <property name="meta.attr.1.stream.language.markup">eng</property>
  <property name="meta.attr.1.stream.handler_name.markup">Apple Sound Media Handler</property>
  <property name="meta.attr.1.stream.vendor_id.markup">[0][0][0][0]</property>
  <property name="meta.attr.major_brand.markup">qt  </property>
  <property name="meta.attr.minor_version.markup">512</property>
  <property name="meta.attr.compatible_brands.markup">qt  </property>
  <property name="meta.attr.encoder.markup">Lavf61.7.100</property>
  <property name="seekable">1</property>
  <property name="meta.media.sample_aspect_num">1</property>
  <property name="meta.media.sample_aspect_den">1</property>
  <property name="format">3</property>
  <property name="audio_index">1</property>
  <property name="video_index">0</property>
  <property name="warp_speed">2</property>
  <property name="warp_resource">/home/schmilly/Downloads/rentstrike3-6-19.mov</property>
  <property name="mlt_service">timewarp</property>
  <property name="kdenlive:control_uuid">{b4cf9620-7982-44e9-9c28-60bc54834224}</property>
  <property name="vstream">0</property>
  <property name="astream">0</property>
  <property name="set.test_audio">1</property>
  <property name="set.test_image">0</property>
  <property name="kdenlive:id">52</property>
  <property name="warp_pitch">0</property>
  <property name="meta.media.frame_rate_num">25</property>
  <property name="meta.media.frame_rate_den">1</property>
  <property name="meta.media.colorspace">709</property>
  <property name="meta.media.color_trc">1</property>
  <property name="meta.media.has_b_frames">0</property>
  <property name="meta.media.width">1920</property>
  <property name="meta.media.height">1080</property>
  <property name="meta.media.aspect_ratio">1</property>
  <property name="meta.media.color_range">mpeg</property>
  <property name="meta.media.top_field_first">0</property>
  <property name="meta.media.progressive">1</property>
 </producer>
 <producer id="producer84" in="00:00:00.000" out="00:00:06.700">
  <property name="length">203</property>
  <property name="eof">pause</property>
  <property name="resource">2.000000:/home/schmilly/Downloads/rentstrike3-6-19.mov</property>
  <property name="aspect_ratio">1</property>
  <property name="meta.media.nb_streams">3</property>
  <property name="meta.media.0.stream.type">video</property>
  <property name="meta.media.0.stream.frame_rate">25</property>
  <property name="meta.media.0.stream.sample_aspect_ratio">1</property>
  <property name="meta.media.0.codec.width">1920</property>
  <property name="meta.media.0.codec.height">1080</property>
  <property name="meta.media.0.codec.rotate">0</property>
  <property name="meta.media.0.codec.pix_fmt">yuv420p</property>
  <property name="meta.media.0.codec.sample_aspect_ratio">0</property>
  <property name="meta.media.0.codec.colorspace">709</property>
  <property name="meta.media.0.codec.color_trc">1</property>
  <property name="meta.media.0.codec.name">h264</property>
  <property name="meta.media.0.codec.long_name">H.264 / AVC / MPEG-4 AVC / MPEG-4 part 10</property>
  <property name="meta.media.0.codec.bit_rate">54987696</property>
  <property name="meta.attr.0.stream.language.markup">eng</property>
  <property name="meta.attr.0.stream.handler_name.markup">Apple Video Media Handler</property>
  <property name="meta.attr.0.stream.vendor_id.markup">FFMP</property>
  <property name="meta.attr.0.stream.encoder.markup">H.264</property>
  <property name="meta.attr.0.stream.timecode.markup">00:00:00:00</property>
  <property name="meta.media.1.stream.type">audio</property>
  <property name="meta.media.1.codec.sample_fmt">s16</property>
  <property name="meta.media.1.codec.sample_rate">48000</property>
  <property name="meta.media.1.codec.channels">2</property>
  <property name="meta.media.1.codec.layout">stereo</property>
  <property name="meta.media.1.codec.name">pcm_s16le</property>
  <property name="meta.media.1.codec.long_name">PCM signed 16-bit little-endian</property>
  <property name="meta.media.1.codec.bit_rate">1536000</property>
  <property name="meta.attr.1.stream.language.markup">eng</property>
  <property name="meta.attr.1.stream.handler_name.markup">Apple Sound Media Handler</property>
  <property name="meta.attr.1.stream.vendor_id.markup">[0][0][0][0]</property>
  <property name="meta.attr.major_brand.markup">qt  </property>
  <property name="meta.attr.minor_version.markup">512</property>
  <property name="meta.attr.compatible_brands.markup">qt  </property>
  <property name="meta.attr.encoder.markup">Lavf61.7.100</property>
  <property name="seekable">1</property>
  <property name="meta.media.sample_aspect_num">1</property>
  <property name="meta.media.sample_aspect_den">1</property>
  <property name="format">3</property>
  <property name="audio_index">1</property>
  <property name="video_index">0</property>
  <property name="warp_speed">2</property>
  <property name="warp_resource">/home/schmilly/Downloads/rentstrike3-6-19.mov</property>
  <property name="mlt_service">timewarp</property>
  <property name="kdenlive:control_uuid">{b4cf9620-7982-44e9-9c28-60bc54834224}</property>
  <property name="vstream">0</property>
  <property name="astream">0</property>
  <property name="set.test_audio">1</property>
  <property name="set.test_image">0</property>
  <property name="kdenlive:id">52</property>
  <property name="warp_pitch">0</property>
  <property name="meta.media.frame_rate_num">25</property>
  <property name="meta.media.frame_rate_den">1</property>
  <property name="meta.media.colorspace">709</property>
  <property name="meta.media.color_trc">1</property>
  <property name="meta.media.has_b_frames">0</property>
  <property name="meta.media.width">1920</property>
  <property name="meta.media.height">1080</property>
  <property name="meta.media.aspect_ratio">1</property>
  <property name="meta.media.color_range">mpeg</property>
  <property name="meta.media.top_field_first">0</property>
  <property name="meta.media.progressive">1</property>
 </producer>
 <chain id="chain26" out="00:00:13.467">
  <property name="length">405</property>
  <property name="eof">pause</property>
  <property name="resource">/home/schmilly/Downloads/rentstrike3-6-19.mov</property>
  <property name="mlt_service">avformat-novalidate</property>
  <property name="seekable">1</property>
  <property name="format">3</property>
  <property name="audio_index">1</property>
  <property name="video_index">0</property>
  <property name="vstream">0</property>
  <property name="astream">0</property>
  <property name="kdenlive:folderid">-1</property>
  <property name="kdenlive:id">52</property>
  <property name="kdenlive:control_uuid">{b4cf9620-7982-44e9-9c28-60bc54834224}</property>
  <property name="mute_on_pause">0</property>
  <property name="kdenlive:clip_type">0</property>
  <property name="kdenlive:file_size">95251784</property>
  <property name="kdenlive:file_hash">879b4feddb484863136e0cdb749d392e</property>
  <property name="kdenlive:audio_max1">201</property>
  <property name="meta.media.nb_streams">3</property>
  <property name="meta.media.0.stream.type">video</property>
  <property name="meta.media.0.stream.frame_rate">25</property>
  <property name="meta.media.0.stream.sample_aspect_ratio">1</property>
  <property name="meta.media.0.codec.width">1920</property>
  <property name="meta.media.0.codec.height">1080</property>
  <property name="meta.media.0.codec.rotate">0</property>
  <property name="meta.media.0.codec.pix_fmt">yuv420p</property>
  <property name="meta.media.0.codec.sample_aspect_ratio">0</property>
  <property name="meta.media.0.codec.colorspace">709</property>
  <property name="meta.media.0.codec.color_trc">1</property>
  <property name="meta.media.0.codec.name">h264</property>
  <property name="meta.media.0.codec.long_name">H.264 / AVC / MPEG-4 AVC / MPEG-4 part 10</property>
  <property name="meta.media.0.codec.bit_rate">54987696</property>
  <property name="meta.attr.0.stream.language.markup">eng</property>
  <property name="meta.attr.0.stream.handler_name.markup">Apple Video Media Handler</property>
  <property name="meta.attr.0.stream.vendor_id.markup">FFMP</property>
  <property name="meta.attr.0.stream.encoder.markup">H.264</property>
  <property name="meta.attr.0.stream.timecode.markup">00:00:00:00</property>
  <property name="meta.media.1.stream.type">audio</property>
  <property name="meta.media.1.codec.sample_fmt">s16</property>
  <property name="meta.media.1.codec.sample_rate">48000</property>
  <property name="meta.media.1.codec.channels">2</property>
  <property name="meta.media.1.codec.layout">stereo</property>
  <property name="meta.media.1.codec.name">pcm_s16le</property>
  <property name="meta.media.1.codec.long_name">PCM signed 16-bit little-endian</property>
  <property name="meta.media.1.codec.bit_rate">1536000</property>
  <property name="meta.attr.1.stream.language.markup">eng</property>
  <property name="meta.attr.1.stream.handler_name.markup">Apple Sound Media Handler</property>
  <property name="meta.attr.1.stream.vendor_id.markup">[0][0][0][0]</property>
  <property name="meta.attr.major_brand.markup">qt  </property>
  <property name="meta.attr.minor_version.markup">512</property>
  <property name="meta.attr.compatible_brands.markup">qt  </property>
  <property name="meta.attr.encoder.markup">Lavf61.7.100</property>
  <property name="meta.media.sample_aspect_num">1</property>
  <property name="meta.media.sample_aspect_den">1</property>
  <property name="meta.media.frame_rate_num">25</property>
  <property name="meta.media.frame_rate_den">1</property>
  <property name="meta.media.colorspace">709</property>
  <property name="meta.media.color_trc">1</property>
  <property name="meta.media.has_b_frames">0</property>
  <property name="meta.media.width">1920</property>
  <property name="meta.media.height">1080</property>
  <property name="meta.media.aspect_ratio">1</property>
  <property name="meta.media.color_range">mpeg</property>
  <property name="xml">was here</property>
  <property name="meta.media.top_field_first">0</property>
  <property name="meta.media.progressive">1</property>
  <property name="set.test_audio">1</property>
  <property name="set.test_image">0</property>
 </chain>
 <producer id="producer85" in="00:00:00.000" out="00:00:29.033">
  <property name="length">872</property>
  <property name="eof">pause</property>
  <property name="resource">2.000000:/home/schmilly/Downloads/IMG_9830-30fps.mp4</property>
  <property name="aspect_ratio">1</property>
  <property name="meta.media.nb_streams">2</property>
  <property name="meta.media.0.stream.type">video</property>
  <property name="meta.media.0.stream.frame_rate">30</property>
  <property name="meta.media.0.stream.sample_aspect_ratio">0</property>
  <property name="meta.media.0.codec.width">1920</property>
  <property name="meta.media.0.codec.height">1080</property>
  <property name="meta.media.0.codec.rotate">90</property>
  <property name="meta.media.0.codec.pix_fmt">yuv420p</property>
  <property name="meta.media.0.codec.sample_aspect_ratio">0</property>
  <property name="meta.media.0.codec.colorspace">709</property>
  <property name="meta.media.0.codec.color_trc">1</property>
  <property name="meta.media.0.codec.name">h264</property>
  <property name="meta.media.0.codec.long_name">H.264 / AVC / MPEG-4 AVC / MPEG-4 part 10</property>
  <property name="meta.media.0.codec.bit_rate">27445484</property>
  <property name="meta.attr.0.stream.handler_name.markup">Core Media Video</property>
  <property name="meta.attr.0.stream.vendor_id.markup">[0][0][0][0]</property>
  <property name="meta.attr.0.stream.encoder.markup">Lavc61.19.100 libx264</property>
  <property name="meta.media.1.stream.type">audio</property>
  <property name="meta.media.1.codec.sample_fmt">fltp</property>
  <property name="meta.media.1.codec.sample_rate">44100</property>
  <property name="meta.media.1.codec.channels">1</property>
  <property name="meta.media.1.codec.layout">mono</property>
  <property name="meta.media.1.codec.name">aac</property>
  <property name="meta.media.1.codec.long_name">AAC (Advanced Audio Coding)</property>
  <property name="meta.media.1.codec.bit_rate">181526</property>
  <property name="meta.attr.1.stream.handler_name.markup">Core Media Audio</property>
  <property name="meta.attr.1.stream.vendor_id.markup">[0][0][0][0]</property>
  <property name="meta.attr.major_brand.markup">isom</property>
  <property name="meta.attr.minor_version.markup">512</property>
  <property name="meta.attr.compatible_brands.markup">isomiso2avc1mp41</property>
  <property name="meta.attr.encoder.markup">Lavf61.7.100</property>
  <property name="seekable">1</property>
  <property name="meta.media.sample_aspect_num">1</property>
  <property name="meta.media.sample_aspect_den">1</property>
  <property name="format">3</property>
  <property name="audio_index">1</property>
  <property name="video_index">0</property>
  <property name="warp_speed">2</property>
  <property name="warp_resource">/home/schmilly/Downloads/IMG_9830-30fps.mp4</property>
  <property name="mlt_service">timewarp</property>
  <property name="kdenlive:control_uuid">{850ef4ad-ad3d-4359-b088-a8412be34923}</property>
  <property name="kdenlive:originalurl">/home/schmilly/Downloads/IMG_9830-30fps.mp4</property>
  <property name="vstream">0</property>
  <property name="astream">0</property>
  <property name="set.test_audio">1</property>
  <property name="set.test_image">0</property>
  <property name="kdenlive:id">53</property>
  <property name="warp_pitch">0</property>
  <property name="meta.media.frame_rate_num">30</property>
  <property name="meta.media.frame_rate_den">1</property>
  <property name="meta.media.colorspace">709</property>
  <property name="meta.media.color_trc">1</property>
  <property name="meta.media.has_b_frames">0</property>
  <property name="meta.media.width">1080</property>
  <property name="meta.media.height">1920</property>
  <property name="meta.media.color_range">mpeg</property>
  <property name="meta.media.top_field_first">0</property>
  <property name="meta.media.progressive">1</property>
 </producer>
 <producer id="producer87" in="00:00:00.000" out="00:00:07.233">
  <property name="length">218</property>
  <property name="eof">pause</property>
  <property name="resource">3.000000:/home/schmilly/Downloads/16398510-45a1-4303-a254-3450404d17b8.mp4</property>
  <property name="aspect_ratio">1</property>
  <property name="meta.media.nb_streams">2</property>
  <property name="meta.media.0.stream.type">video</property>
  <property name="meta.media.0.stream.frame_rate">25</property>
  <property name="meta.media.0.stream.sample_aspect_ratio">0</property>
  <property name="meta.media.0.codec.width">1024</property>
  <property name="meta.media.0.codec.height">576</property>
  <property name="meta.media.0.codec.rotate">0</property>
  <property name="meta.media.0.codec.pix_fmt">yuv420p</property>
  <property name="meta.media.0.codec.sample_aspect_ratio">0</property>
  <property name="meta.media.0.codec.colorspace">709</property>
  <property name="meta.media.0.codec.color_trc">1</property>
  <property name="meta.media.0.codec.name">h264</property>
  <property name="meta.media.0.codec.long_name">H.264 / AVC / MPEG-4 AVC / MPEG-4 part 10</property>
  <property name="meta.media.0.codec.bit_rate">474252</property>
  <property name="meta.attr.0.stream.creation_time.markup">2022-06-29T15:01:48.000000Z</property>
  <property name="meta.attr.0.stream.handler_name.markup">Vireo Eyes v2.9.0</property>
  <property name="meta.attr.0.stream.vendor_id.markup">[0][0][0][0]</property>
  <property name="meta.attr.0.stream.encoder.markup">AVC Coding</property>
  <property name="meta.media.1.stream.type">audio</property>
  <property name="meta.media.1.codec.sample_fmt">fltp</property>
  <property name="meta.media.1.codec.sample_rate">48000</property>
  <property name="meta.media.1.codec.channels">2</property>
  <property name="meta.media.1.codec.layout">stereo</property>
  <property name="meta.media.1.codec.name">aac</property>
  <property name="meta.media.1.codec.long_name">AAC (Advanced Audio Coding)</property>
  <property name="meta.media.1.codec.bit_rate">128008</property>
  <property name="meta.attr.1.stream.creation_time.markup">2022-06-29T15:01:48.000000Z</property>
  <property name="meta.attr.1.stream.handler_name.markup">Vireo Ears v2.9.0</property>
  <property name="meta.attr.1.stream.vendor_id.markup">[0][0][0][0]</property>
  <property name="meta.attr.major_brand.markup">mp42</property>
  <property name="meta.attr.minor_version.markup">0</property>
  <property name="meta.attr.compatible_brands.markup">mp42mp41iso4</property>
  <property name="meta.attr.creation_time.markup">2022-06-29T15:01:48.000000Z</property>
  <property name="seekable">1</property>
  <property name="meta.media.sample_aspect_num">1</property>
  <property name="meta.media.sample_aspect_den">1</property>
  <property name="format">3</property>
  <property name="audio_index">1</property>
  <property name="video_index">0</property>
  <property name="warp_speed">3</property>
  <property name="warp_resource">/home/schmilly/Downloads/16398510-45a1-4303-a254-3450404d17b8.mp4</property>
  <property name="mlt_service">timewarp</property>
  <property name="kdenlive:control_uuid">{8bbe74e1-fb83-402e-bb81-56d7757725b6}</property>
  <property name="vstream">0</property>
  <property name="astream">0</property>
  <property name="set.test_audio">1</property>
  <property name="set.test_image">0</property>
  <property name="kdenlive:id">50</property>
  <property name="warp_pitch">0</property>
  <property name="meta.media.frame_rate_num">25</property>
  <property name="meta.media.frame_rate_den">1</property>
  <property name="meta.media.colorspace">709</property>
  <property name="meta.media.color_trc">1</property>
  <property name="meta.media.has_b_frames">2</property>
  <property name="meta.media.width">1024</property>
  <property name="meta.media.height">576</property>
  <property name="meta.media.aspect_ratio">1</property>
  <property name="meta.media.color_range">mpeg</property>
  <property name="meta.media.top_field_first">0</property>
  <property name="meta.media.progressive">1</property>
 </producer>
 <producer id="producer93" in="00:00:00.000" out="00:00:17.167">
  <property name="length">516</property>
  <property name="eof">pause</property>
  <property name="resource">2.900000:/home/schmilly/Downloads/11_1.mp4</property>
  <property name="aspect_ratio">1</property>
  <property name="meta.media.nb_streams">2</property>
  <property name="meta.media.0.stream.type">video</property>
  <property name="meta.media.0.stream.frame_rate">29.97</property>
  <property name="meta.media.0.stream.sample_aspect_ratio">0</property>
  <property name="meta.media.0.codec.width">1920</property>
  <property name="meta.media.0.codec.height">1080</property>
  <property name="meta.media.0.codec.rotate">0</property>
  <property name="meta.media.0.codec.pix_fmt">yuv420p</property>
  <property name="meta.media.0.codec.sample_aspect_ratio">1</property>
  <property name="meta.media.0.codec.colorspace">709</property>
  <property name="meta.media.0.codec.name">h264</property>
  <property name="meta.media.0.codec.long_name">H.264 / AVC / MPEG-4 AVC / MPEG-4 part 10</property>
  <property name="meta.media.0.codec.bit_rate">10525548</property>
  <property name="meta.attr.0.stream.creation_time.markup">2021-03-22T07:05:31.000000Z</property>
  <property name="meta.attr.0.stream.language.markup">eng</property>
  <property name="meta.attr.0.stream.handler_name.markup">Mainconcept Video Media Handler</property>
  <property name="meta.attr.0.stream.vendor_id.markup">[0][0][0][0]</property>
  <property name="meta.attr.0.stream.encoder.markup">AVC Coding</property>
  <property name="meta.media.1.stream.type">audio</property>
  <property name="meta.media.1.codec.sample_fmt">fltp</property>
  <property name="meta.media.1.codec.sample_rate">48000</property>
  <property name="meta.media.1.codec.channels">2</property>
  <property name="meta.media.1.codec.layout">stereo</property>
  <property name="meta.media.1.codec.name">aac</property>
  <property name="meta.media.1.codec.long_name">AAC (Advanced Audio Coding)</property>
  <property name="meta.media.1.codec.bit_rate">317375</property>
  <property name="meta.attr.1.stream.creation_time.markup">2021-03-22T07:05:31.000000Z</property>
  <property name="meta.attr.1.stream.language.markup">eng</property>
  <property name="meta.attr.1.stream.handler_name.markup">#Mainconcept MP4 Sound Media Handler</property>
  <property name="meta.attr.1.stream.vendor_id.markup">[0][0][0][0]</property>
  <property name="meta.attr.major_brand.markup">mp42</property>
  <property name="meta.attr.minor_version.markup">0</property>
  <property name="meta.attr.compatible_brands.markup">mp42mp41</property>
  <property name="meta.attr.creation_time.markup">2021-03-22T07:05:31.000000Z</property>
  <property name="seekable">1</property>
  <property name="meta.media.sample_aspect_num">1</property>
  <property name="meta.media.sample_aspect_den">1</property>
  <property name="format">3</property>
  <property name="audio_index">1</property>
  <property name="video_index">0</property>
  <property name="warp_speed">2.9</property>
  <property name="warp_resource">/home/schmilly/Downloads/11_1.mp4</property>
  <property name="mlt_service">timewarp</property>
  <property name="kdenlive:control_uuid">{61350f70-5f11-4b82-a823-dcef22cfecb7}</property>
  <property name="vstream">0</property>
  <property name="astream">0</property>
  <property name="set.test_audio">1</property>
  <property name="set.test_image">0</property>
  <property name="kdenlive:id">89</property>
  <property name="warp_pitch">0</property>
  <property name="meta.media.frame_rate_num">30000</property>
  <property name="meta.media.frame_rate_den">1001</property>
  <property name="meta.media.colorspace">709</property>
  <property name="meta.media.color_trc">2</property>
  <property name="meta.media.has_b_frames">0</property>
  <property name="meta.media.width">1920</property>
  <property name="meta.media.height">1080</property>
  <property name="meta.media.aspect_ratio">1</property>
  <property name="meta.media.color_range">mpeg</property>
  <property name="meta.media.top_field_first">0</property>
  <property name="meta.media.progressive">1</property>
 </producer>
 <producer id="producer94" in="00:00:00.000" out="00:00:06.733">
  <property name="length">203</property>
  <property name="eof">pause</property>
  <property name="resource">5.500000:/home/schmilly/Downloads/rentstrike3.mov</property>
  <property name="aspect_ratio">1</property>
  <property name="meta.media.nb_streams">3</property>
  <property name="meta.media.0.stream.type">video</property>
  <property name="meta.media.0.stream.frame_rate">25</property>
  <property name="meta.media.0.stream.sample_aspect_ratio">1</property>
  <property name="meta.media.0.codec.width">1920</property>
  <property name="meta.media.0.codec.height">1080</property>
  <property name="meta.media.0.codec.rotate">0</property>
  <property name="meta.media.0.codec.pix_fmt">yuv420p</property>
  <property name="meta.media.0.codec.sample_aspect_ratio">0</property>
  <property name="meta.media.0.codec.colorspace">709</property>
  <property name="meta.media.0.codec.color_trc">1</property>
  <property name="meta.media.0.codec.name">h264</property>
  <property name="meta.media.0.codec.long_name">H.264 / AVC / MPEG-4 AVC / MPEG-4 part 10</property>
  <property name="meta.media.0.codec.bit_rate">42034617</property>
  <property name="meta.attr.0.stream.creation_time.markup">2020-04-14T15:13:57.000000Z</property>
  <property name="meta.attr.0.stream.language.markup">eng</property>
  <property name="meta.attr.0.stream.handler_name.markup">Apple Video Media Handler</property>
  <property name="meta.attr.0.stream.vendor_id.markup">appl</property>
  <property name="meta.attr.0.stream.encoder.markup">H.264</property>
  <property name="meta.attr.0.stream.timecode.markup">00:00:00:00</property>
  <property name="meta.media.1.stream.type">audio</property>
  <property name="meta.media.1.codec.sample_fmt">s16</property>
  <property name="meta.media.1.codec.sample_rate">48000</property>
  <property name="meta.media.1.codec.channels">2</property>
  <property name="meta.media.1.codec.layout">stereo</property>
  <property name="meta.media.1.codec.name">pcm_s16le</property>
  <property name="meta.media.1.codec.long_name">PCM signed 16-bit little-endian</property>
  <property name="meta.media.1.codec.bit_rate">1536000</property>
  <property name="meta.attr.1.stream.creation_time.markup">2020-04-14T15:13:57.000000Z</property>
  <property name="meta.attr.1.stream.language.markup">eng</property>
  <property name="meta.attr.1.stream.handler_name.markup">Apple Sound Media Handler</property>
  <property name="meta.attr.1.stream.vendor_id.markup">[0][0][0][0]</property>
  <property name="meta.attr.1.stream.timecode.markup">00:00:00:00</property>
  <property name="meta.attr.major_brand.markup">qt  </property>
  <property name="meta.attr.minor_version.markup">537199360</property>
  <property name="meta.attr.compatible_brands.markup">qt  </property>
  <property name="meta.attr.creation_time.markup">2020-04-14T15:13:57.000000Z</property>
  <property name="seekable">1</property>
  <property name="meta.media.sample_aspect_num">1</property>
  <property name="meta.media.sample_aspect_den">1</property>
  <property name="format">3</property>
  <property name="audio_index">1</property>
  <property name="video_index">0</property>
  <property name="warp_speed">5.5</property>
  <property name="warp_resource">/home/schmilly/Downloads/rentstrike3.mov</property>
  <property name="mlt_service">timewarp</property>
  <property name="kdenlive:control_uuid">{cbff263c-cf1d-4d28-b35c-9f309c3aaa7e}</property>
  <property name="vstream">0</property>
  <property name="astream">0</property>
  <property name="set.test_audio">1</property>
  <property name="set.test_image">0</property>
  <property name="kdenlive:id">51</property>
  <property name="warp_pitch">0</property>
  <property name="meta.media.frame_rate_num">25</property>
  <property name="meta.media.frame_rate_den">1</property>
  <property name="meta.media.colorspace">709</property>
  <property name="meta.media.color_trc">1</property>
  <property name="meta.media.has_b_frames">0</property>
  <property name="meta.media.width">1920</property>
  <property name="meta.media.height">1080</property>
  <property name="meta.media.aspect_ratio">1</property>
  <property name="meta.media.color_range">mpeg</property>
  <property name="meta.media.top_field_first">0</property>
  <property name="meta.media.progressive">1</property>
 </producer>
 <producer id="producer95" in="00:00:00.000" out="00:00:09.267">
  <property name="length">279</property>
  <property name="eof">pause</property>
  <property name="resource">4.000000:/home/schmilly/Downloads/rentstrike3.mov</property>
  <property name="aspect_ratio">1</property>
  <property name="meta.media.nb_streams">3</property>
  <property name="meta.media.0.stream.type">video</property>
  <property name="meta.media.0.stream.frame_rate">25</property>
  <property name="meta.media.0.stream.sample_aspect_ratio">1</property>
  <property name="meta.media.0.codec.width">1920</property>
  <property name="meta.media.0.codec.height">1080</property>
  <property name="meta.media.0.codec.rotate">0</property>
  <property name="meta.media.0.codec.pix_fmt">yuv420p</property>
  <property name="meta.media.0.codec.sample_aspect_ratio">0</property>
  <property name="meta.media.0.codec.colorspace">709</property>
  <property name="meta.media.0.codec.color_trc">1</property>
  <property name="meta.media.0.codec.name">h264</property>
  <property name="meta.media.0.codec.long_name">H.264 / AVC / MPEG-4 AVC / MPEG-4 part 10</property>
  <property name="meta.media.0.codec.bit_rate">42034617</property>
  <property name="meta.attr.0.stream.creation_time.markup">2020-04-14T15:13:57.000000Z</property>
  <property name="meta.attr.0.stream.language.markup">eng</property>
  <property name="meta.attr.0.stream.handler_name.markup">Apple Video Media Handler</property>
  <property name="meta.attr.0.stream.vendor_id.markup">appl</property>
  <property name="meta.attr.0.stream.encoder.markup">H.264</property>
  <property name="meta.attr.0.stream.timecode.markup">00:00:00:00</property>
  <property name="meta.media.1.stream.type">audio</property>
  <property name="meta.media.1.codec.sample_fmt">s16</property>
  <property name="meta.media.1.codec.sample_rate">48000</property>
  <property name="meta.media.1.codec.channels">2</property>
  <property name="meta.media.1.codec.layout">stereo</property>
  <property name="meta.media.1.codec.name">pcm_s16le</property>
  <property name="meta.media.1.codec.long_name">PCM signed 16-bit little-endian</property>
  <property name="meta.media.1.codec.bit_rate">1536000</property>
  <property name="meta.attr.1.stream.creation_time.markup">2020-04-14T15:13:57.000000Z</property>
  <property name="meta.attr.1.stream.language.markup">eng</property>
  <property name="meta.attr.1.stream.handler_name.markup">Apple Sound Media Handler</property>
  <property name="meta.attr.1.stream.vendor_id.markup">[0][0][0][0]</property>
  <property name="meta.attr.1.stream.timecode.markup">00:00:00:00</property>
  <property name="meta.attr.major_brand.markup">qt  </property>
  <property name="meta.attr.minor_version.markup">537199360</property>
  <property name="meta.attr.compatible_brands.markup">qt  </property>
  <property name="meta.attr.creation_time.markup">2020-04-14T15:13:57.000000Z</property>
  <property name="seekable">1</property>
  <property name="meta.media.sample_aspect_num">1</property>
  <property name="meta.media.sample_aspect_den">1</property>
  <property name="format">3</property>
  <property name="audio_index">1</property>
  <property name="video_index">0</property>
  <property name="warp_speed">4</property>
  <property name="warp_resource">/home/schmilly/Downloads/rentstrike3.mov</property>
  <property name="mlt_service">timewarp</property>
  <property name="kdenlive:control_uuid">{cbff263c-cf1d-4d28-b35c-9f309c3aaa7e}</property>
  <property name="vstream">0</property>
  <property name="astream">0</property>
  <property name="set.test_audio">1</property>
  <property name="set.test_image">0</property>
  <property name="kdenlive:id">51</property>
  <property name="warp_pitch">0</property>
  <property name="meta.media.frame_rate_num">25</property>
  <property name="meta.media.frame_rate_den">1</property>
  <property name="meta.media.colorspace">709</property>
  <property name="meta.media.color_trc">1</property>
  <property name="meta.media.has_b_frames">0</property>
  <property name="meta.media.width">1920</property>
  <property name="meta.media.height">1080</property>
  <property name="meta.media.aspect_ratio">1</property>
  <property name="meta.media.color_range">mpeg</property>
  <property name="meta.media.top_field_first">0</property>
  <property name="meta.media.progressive">1</property>
 </producer>
 <producer id="producer96" in="00:00:00.000" out="00:00:04.967">
  <property name="length">150</property>
  <property name="eof">pause</property>
  <property name="resource"/>
  <property name="meta.media.progressive">1</property>
  <property name="aspect_ratio">1</property>
  <property name="seekable">1</property>
  <property name="mlt_service">kdenlivetitle</property>
  <property name="kdenlive:duration">00:00:05:00</property>
  <property name="kdenlive:clipname">FUCK LAND LO...</property>
  <property name="xmldata">&lt;kdenlivetitle LC_NUMERIC="C" duration="150" height="1920" out="149" width="1920">
 &lt;item type="QGraphicsTextItem" z-index="0">
  &lt;position x="323" y="142">
   &lt;transform>1,0,0,0,1,0,0,0,1&lt;/transform>
  &lt;/position>
  &lt;content alignment="4" box-height="1635" box-width="1274.38" font="Noto Sans" font-color="255,255,255,255" font-italic="0" font-outline="0" font-outline-color="0,0,0,255" font-pixel-size="400" font-underline="0" font-weight="400" letter-spacing="0" line-spacing="0" shadow="0;#64000000;3;3;3" tab-width="80" typewriter="0;2;1;0;0">FUCK
LAND
LORDS&lt;/content>
 &lt;/item>
 &lt;startviewport rect="0,0,1920,1920"/>
 &lt;endviewport rect="0,0,1920,1920"/>
 &lt;background color="0,0,0,0"/>
&lt;/kdenlivetitle>
</property>
  <property name="xml">was here</property>
  <property name="kdenlive:folderid">28</property>
  <property name="kdenlive:id">115</property>
  <property name="kdenlive:control_uuid">{2a4aff18-ae1d-4d64-a7f5-fb4c85ca8b83}</property>
  <property name="kdenlive:clip_type">2</property>
  <property name="kdenlive:uniqueId">{876bc7c0-3dac-46dd-9ab8-b992031cfef1}</property>
  <property name="kdenlive:file_hash">fcb8a72d2b0c4aad864eaade982cf8ad</property>
  <property name="force_reload">0</property>
  <property name="meta.media.width">1920</property>
  <property name="meta.media.height">1920</property>
  <property name="kdenlive:monitorPosition">0</property>
 </producer>
 <producer id="producer97" in="00:00:00.000" out="00:00:04.967">
  <property name="length">150</property>
  <property name="eof">pause</property>
  <property name="resource"/>
  <property name="meta.media.progressive">1</property>
  <property name="aspect_ratio">1</property>
  <property name="seekable">1</property>
  <property name="mlt_service">kdenlivetitle</property>
  <property name="kdenlive:duration">00:00:05:00</property>
  <property name="kdenlive:clipname">FUCK REAL ES...</property>
  <property name="xmldata">&lt;kdenlivetitle LC_NUMERIC="C" duration="150" height="1920" out="149" width="1920">
 &lt;item type="QGraphicsTextItem" z-index="0">
  &lt;position x="306" y="142">
   &lt;transform>1,0,0,0,1,0,0,0,1&lt;/transform>
  &lt;/position>
  &lt;content alignment="4" box-height="1635" box-width="1308.75" font="Noto Sans" font-color="255,255,255,255" font-italic="0" font-outline="0" font-outline-color="0,0,0,255" font-pixel-size="400" font-underline="0" font-weight="400" letter-spacing="0" line-spacing="0" shadow="0;#64000000;3;3;3" tab-width="80" typewriter="0;2;1;0;0">FUCK
REAL
ESTATE&lt;/content>
 &lt;/item>
 &lt;startviewport rect="0,0,1920,1920"/>
 &lt;endviewport rect="0,0,1920,1920"/>
 &lt;background color="0,0,0,0"/>
&lt;/kdenlivetitle>
</property>
  <property name="xml">was here</property>
  <property name="kdenlive:folderid">28</property>
  <property name="kdenlive:id">116</property>
  <property name="kdenlive:control_uuid">{ad7def3b-5688-4290-b287-e327ea809803}</property>
  <property name="kdenlive:clip_type">2</property>
  <property name="kdenlive:uniqueId">{fc629d63-0b40-48ff-bcf7-eaf9ebabff97}</property>
  <property name="kdenlive:file_hash">b0415db1370132bc32db01568e3f432c</property>
  <property name="force_reload">0</property>
  <property name="meta.media.width">1920</property>
  <property name="meta.media.height">1920</property>
  <property name="kdenlive:monitorPosition">0</property>
 </producer>
 <producer id="producer98" in="00:00:00.000" out="00:00:04.967">
  <property name="length">150</property>
  <property name="eof">pause</property>
  <property name="resource"/>
  <property name="meta.media.progressive">1</property>
  <property name="aspect_ratio">1</property>
  <property name="seekable">1</property>
  <property name="mlt_service">kdenlivetitle</property>
  <property name="kdenlive:duration">00:00:05:00</property>
  <property name="kdenlive:clipname">Fuck RENT</property>
  <property name="xmldata">&lt;kdenlivetitle LC_NUMERIC="C" duration="150" height="1920" out="149" width="1920">
 &lt;item type="QGraphicsTextItem" z-index="0">
  &lt;position x="461" y="415">
   &lt;transform>1,0,0,0,1,0,0,0,1&lt;/transform>
  &lt;/position>
  &lt;content alignment="4" box-height="1090" box-width="997.578" font="Noto Sans" font-color="255,255,255,255" font-italic="0" font-outline="0" font-outline-color="0,0,0,255" font-pixel-size="400" font-underline="0" font-weight="400" letter-spacing="0" line-spacing="0" shadow="0;#64000000;3;3;3" tab-width="80" typewriter="0;2;1;0;0">Fuck
RENT&lt;/content>
 &lt;/item>
 &lt;startviewport rect="0,0,1920,1920"/>
 &lt;endviewport rect="0,0,1920,1920"/>
 &lt;background color="0,0,0,0"/>
&lt;/kdenlivetitle>
</property>
  <property name="xml">was here</property>
  <property name="kdenlive:folderid">28</property>
  <property name="kdenlive:id">117</property>
  <property name="kdenlive:control_uuid">{a91a8c12-7cb2-409e-bf12-1ae1601ef3b7}</property>
  <property name="kdenlive:clip_type">2</property>
  <property name="kdenlive:uniqueId">{a1fefaa9-9951-46f4-a35a-5e4765816bb4}</property>
  <property name="kdenlive:file_hash">7c79008490fc26c2c78f02bad9fb9cd0</property>
  <property name="force_reload">0</property>
  <property name="meta.media.width">1920</property>
  <property name="meta.media.height">1920</property>
  <property name="kdenlive:monitorPosition">1</property>
 </producer>
 <playlist id="playlist26">
  <blank length="00:00:08.267"/>
  <entry in="00:00:00.000" out="00:00:00.967" producer="producer55">
   <property name="kdenlive:id">23</property>
   <filter id="filter95">
    <property name="rotate_center">1</property>
    <property name="mlt_service">qtblend</property>
    <property name="kdenlive_id">qtblend</property>
    <property name="compositing">0</property>
    <property name="distort">1</property>
    <property name="rect">00:00:00.000=322 0 1263 1884 1.000000</property>
    <property name="rotation">00:00:00.000=0</property>
    <property name="kdenlive:collapsed">0</property>
   </filter>
  </entry>
  <entry in="00:00:00.000" out="00:00:00.833" producer="producer55">
   <property name="kdenlive:id">23</property>
   <filter id="filter96">
    <property name="rotate_center">1</property>
    <property name="mlt_service">qtblend</property>
    <property name="kdenlive_id">qtblend</property>
    <property name="compositing">0</property>
    <property name="distort">1</property>
    <property name="rect">00:00:00.000=322 -2 1263 1884 1.000000</property>
    <property name="rotation">00:00:00.000=0</property>
    <property name="kdenlive:collapsed">0</property>
   </filter>
   <filter id="filter97">
    <property name="mlt_service">invert</property>
    <property name="kdenlive_id">invert</property>
    <property name="kdenlive:collapsed">0</property>
   </filter>
  </entry>
  <blank length="00:00:00.133"/>
  <entry in="00:00:00.000" out="00:00:00.033" producer="producer34">
   <property name="kdenlive:id">22</property>
   <filter id="filter98">
    <property name="rotate_center">1</property>
    <property name="mlt_service">qtblend</property>
    <property name="kdenlive_id">qtblend</property>
    <property name="compositing">0</property>
    <property name="distort">0</property>
    <property name="rect">00:00:00.000=0 -296 1920 1920 1.000000</property>
    <property name="rotation">00:00:00.000=0</property>
    <property name="kdenlive:collapsed">0</property>
   </filter>
  </entry>
  <blank length="00:00:00.133"/>
  <entry in="00:00:00.000" out="00:00:00.033" producer="producer34">
   <property name="kdenlive:id">22</property>
   <filter id="filter99">
    <property name="rotate_center">1</property>
    <property name="mlt_service">qtblend</property>
    <property name="kdenlive_id">qtblend</property>
    <property name="compositing">0</property>
    <property name="distort">0</property>
    <property name="rect">00:00:00.000=0 -296 1920 1920 1.000000</property>
    <property name="rotation">00:00:00.000=0</property>
    <property name="kdenlive:collapsed">0</property>
   </filter>
  </entry>
  <blank length="00:00:01.267"/>
  <entry in="00:00:00.100" out="00:00:00.900" producer="chain17">
   <property name="kdenlive:id">9</property>
   <filter id="filter100">
    <property name="rotate_center">1</property>
    <property name="mlt_service">qtblend</property>
    <property name="kdenlive_id">qtblend</property>
    <property name="compositing">0</property>
    <property name="distort">0</property>
    <property name="rect">00:00:00.100=-419 3 1920 1920 1.000000</property>
    <property name="rotation">00:00:00.100=0</property>
    <property name="kdenlive:collapsed">0</property>
   </filter>
  </entry>
  <entry in="00:00:00.100" out="00:00:00.433" producer="producer73">
   <property name="kdenlive:id">6</property>
   <filter id="filter101">
    <property name="rotate_center">1</property>
    <property name="mlt_service">qtblend</property>
    <property name="kdenlive_id">qtblend</property>
    <property name="compositing">0</property>
    <property name="distort">0</property>
    <property name="rect">00:00:00.100=-429 6 1920 1920 1.000000</property>
    <property name="rotation">00:00:00.100=0</property>
    <property name="kdenlive:collapsed">0</property>
   </filter>
  </entry>
  <entry in="00:00:13.500" out="00:00:13.833" producer="producer76">
   <property name="kdenlive:id">6</property>
   <filter id="filter102">
    <property name="rotate_center">1</property>
    <property name="mlt_service">qtblend</property>
    <property name="kdenlive_id">qtblend</property>
    <property name="compositing">0</property>
    <property name="distort">0</property>
    <property name="rect">00:00:13.500=-429 6 1920 1920 1.000000</property>
    <property name="rotation">00:00:13.500=0</property>
    <property name="kdenlive:collapsed">0</property>
   </filter>
  </entry>
  <entry in="00:00:21.067" out="00:00:21.800" producer="producer78">
   <property name="kdenlive:id">6</property>
   <filter id="filter103">
    <property name="rotate_center">1</property>
    <property name="mlt_service">qtblend</property>
    <property name="kdenlive_id">qtblend</property>
    <property name="compositing">0</property>
    <property name="distort">0</property>
    <property name="rect">00:00:21.067=-429 6 1920 1920 1.000000</property>
    <property name="rotation">00:00:21.067=0</property>
    <property name="kdenlive:collapsed">0</property>
   </filter>
  </entry>
  <entry in="00:00:56.267" out="00:00:57.367" producer="producer79">
   <property name="kdenlive:id">7</property>
   <filter id="filter104">
    <property name="rotate_center">1</property>
    <property name="mlt_service">qtblend</property>
    <property name="kdenlive_id">qtblend</property>
    <property name="compositing">0</property>
    <property name="distort">0</property>
    <property name="rect">00:00:56.267=142 -816 2449 2829 1.000000</property>
    <property name="rotation">00:00:56.267=0</property>
    <property name="kdenlive:collapsed">0</property>
   </filter>
  </entry>
  <blank length="00:00:00.900"/>
  <entry in="00:00:00.000" out="00:00:00.800" producer="chain20">
   <property name="kdenlive:id">36</property>
   <filter id="filter105">
    <property name="version">0.9</property>
    <property name="mlt_service">frei0r.cairoimagegrid</property>
    <property name="kdenlive_id">frei0r.cairoimagegrid</property>
    <property name="rows">00:00:00.000=0</property>
    <property name="columns">00:00:00.000=0.05</property>
    <property name="kdenlive:collapsed">0</property>
   </filter>
   <filter id="filter106">
    <property name="rotate_center">1</property>
    <property name="mlt_service">qtblend</property>
    <property name="kdenlive_id">qtblend</property>
    <property name="compositing">0</property>
    <property name="distort">1</property>
    <property name="rect">00:00:00.000=7 12 1920 1920 1.000000</property>
    <property name="rotation">00:00:00.000=0</property>
    <property name="kdenlive:collapsed">0</property>
   </filter>
  </entry>
  <entry in="00:00:00.000" out="00:00:00.133" producer="producer81">
   <property name="kdenlive:id">110</property>
  </entry>
  <entry in="00:00:00.000" out="00:00:00.233" producer="producer81">
   <property name="kdenlive:id">110</property>
   <filter id="filter107">
    <property name="rotate_center">1</property>
    <property name="mlt_service">qtblend</property>
    <property name="kdenlive_id">qtblend</property>
    <property name="compositing">0</property>
    <property name="distort">0</property>
    <property name="rect">00:00:00.000=-183 -227 3807 3807 1.000000</property>
    <property name="rotation">00:00:00.000=0</property>
    <property name="kdenlive:collapsed">0</property>
   </filter>
  </entry>
  <entry in="00:00:00.000" out="00:00:00.267" producer="producer35">
   <property name="kdenlive:id">43</property>
  </entry>
  <entry in="00:00:00.000" out="00:00:00.133" producer="producer82">
   <property name="kdenlive:id">111</property>
   <filter id="filter108">
    <property name="rotate_center">1</property>
    <property name="mlt_service">qtblend</property>
    <property name="kdenlive_id">qtblend</property>
    <property name="compositing">0</property>
    <property name="distort">0</property>
    <property name="rect">00:00:00.000=1399 989 1099 1099 1.000000</property>
    <property name="rotation">00:00:00.000=-15</property>
    <property name="kdenlive:collapsed">0</property>
   </filter>
   <filter id="filter109">
    <property name="color">00:00:00.000=#b4636363</property>
    <property name="radius">1</property>
    <property name="x">8</property>
    <property name="y">8</property>
    <property name="mlt_service">dropshadow</property>
    <property name="kdenlive_id">dropshadow</property>
    <property name="kdenlive:collapsed">0</property>
   </filter>
  </entry>
  <entry in="00:00:00.000" out="00:00:00.200" producer="producer23">
   <property name="kdenlive:id">29</property>
  </entry>
  <entry in="00:00:00.000" out="00:00:00.133" producer="producer24">
   <property name="kdenlive:id">32</property>
  </entry>
  <entry in="00:00:00.000" out="00:00:00.133" producer="producer25">
   <property name="kdenlive:id">33</property>
  </entry>
  <entry in="00:00:00.000" out="00:00:00.200" producer="producer26">
   <property name="kdenlive:id">31</property>
  </entry>
  <entry in="00:00:00.000" out="00:00:00.367" producer="producer36">
   <property name="kdenlive:id">44</property>
  </entry>
  <entry in="00:00:00.000" out="00:00:00.133" producer="producer16">
   <property name="kdenlive:id">34</property>
   <filter id="filter110">
    <property name="version">0.9</property>
    <property name="mlt_service">frei0r.cairoimagegrid</property>
    <property name="kdenlive_id">frei0r.cairoimagegrid</property>
    <property name="rows">00:00:00.000=0;00:00:00.033=0.05;00:00:00.067=0.1;00:00:00.100=0.2;00:00:00.133=0.4</property>
    <property name="columns">00:00:00.000=0;00:00:00.033=0.05;00:00:00.067=0.1;00:00:00.100=0.2;00:00:00.133=0.4</property>
    <property name="kdenlive:collapsed">0</property>
   </filter>
  </entry>
  <entry in="00:00:00.000" out="00:00:00.667" producer="producer28">
   <property name="kdenlive:id">37</property>
  </entry>
  <entry in="00:00:00.000" out="00:00:00.200" producer="producer29">
   <property name="kdenlive:id">38</property>
  </entry>
  <entry in="00:00:00.000" out="00:00:00.200" producer="producer30">
   <property name="kdenlive:id">39</property>
  </entry>
  <entry in="00:00:00.000" out="00:00:00.533" producer="producer31">
   <property name="kdenlive:id">40</property>
  </entry>
  <entry in="00:00:00.000" out="00:00:00.067" producer="producer32">
   <property name="kdenlive:id">41</property>
  </entry>
  <entry in="00:00:00.000" out="00:00:00.033" producer="producer33">
   <property name="kdenlive:id">42</property>
  </entry>
  <entry in="00:00:00.000" out="00:00:00.267" producer="producer37">
   <property name="kdenlive:id">45</property>
   <filter id="filter111">
    <property name="rotate_center">1</property>
    <property name="mlt_service">qtblend</property>
    <property name="kdenlive_id">qtblend</property>
    <property name="compositing">0</property>
    <property name="distort">1</property>
    <property name="rect">00:00:00.000=0 0 1920 1920 1</property>
    <property name="rotation">00:00:00.000=0</property>
    <property name="kdenlive:collapsed">0</property>
   </filter>
  </entry>
  <entry in="00:00:00.000" out="00:00:00.133" producer="producer37">
   <property name="kdenlive:id">45</property>
   <filter id="filter112">
    <property name="rotate_center">1</property>
    <property name="mlt_service">qtblend</property>
    <property name="kdenlive_id">qtblend</property>
    <property name="compositing">0</property>
    <property name="distort">1</property>
    <property name="rect">00:00:00.000=0 0 1920 1920 1</property>
    <property name="rotation">00:00:00.000=0</property>
    <property name="kdenlive:collapsed">0</property>
   </filter>
  </entry>
  <entry in="00:00:00.000" out="00:00:00.233" producer="producer38">
   <property name="kdenlive:id">49</property>
   <filter id="filter113">
    <property name="rotate_center">1</property>
    <property name="mlt_service">qtblend</property>
    <property name="kdenlive_id">qtblend</property>
    <property name="compositing">0</property>
    <property name="distort">1</property>
    <property name="rect">00:00:00.000=0 0 1920 1920 1</property>
    <property name="rotation">00:00:00.000=0</property>
    <property name="kdenlive:collapsed">0</property>
   </filter>
  </entry>
  <entry in="00:00:00.000" out="00:00:00.200" producer="producer43">
   <property name="kdenlive:id">48</property>
   <filter id="filter114">
    <property name="rotate_center">1</property>
    <property name="mlt_service">qtblend</property>
    <property name="kdenlive_id">qtblend</property>
    <property name="compositing">0</property>
    <property name="distort">1</property>
    <property name="rect">00:00:00.000=0 0 1920 1920 1</property>
    <property name="rotation">00:00:00.000=0</property>
    <property name="kdenlive:collapsed">0</property>
   </filter>
  </entry>
  <entry in="00:00:00.000" out="00:00:00.200" producer="producer44">
   <property name="kdenlive:id">47</property>
   <filter id="filter115">
    <property name="rotate_center">1</property>
    <property name="mlt_service">qtblend</property>
    <property name="kdenlive_id">qtblend</property>
    <property name="compositing">0</property>
    <property name="distort">1</property>
    <property name="rect">00:00:00.000=0 0 1920 1920 1</property>
    <property name="rotation">00:00:00.000=0</property>
    <property name="kdenlive:collapsed">0</property>
   </filter>
  </entry>
  <entry in="00:00:00.000" out="00:00:00.167" producer="producer45">
   <property name="kdenlive:id">46</property>
   <filter id="filter116">
    <property name="rotate_center">1</property>
    <property name="mlt_service">qtblend</property>
    <property name="kdenlive_id">qtblend</property>
    <property name="compositing">0</property>
    <property name="distort">1</property>
    <property name="rect">00:00:00.000=0 0 1920 1920 1</property>
    <property name="rotation">00:00:00.000=0</property>
    <property name="kdenlive:collapsed">0</property>
   </filter>
  </entry>
  <entry in="00:00:00.000" out="00:00:00.133" producer="producer83">
   <property name="kdenlive:id">52</property>
   <property name="kdenlive:activeeffect">1</property>
   <filter id="filter117">
    <property name="rotate_center">1</property>
    <property name="mlt_service">qtblend</property>
    <property name="kdenlive_id">qtblend</property>
    <property name="compositing">0</property>
    <property name="distort">1</property>
    <property name="rect">00:00:00.000=0 0 1920 1920 1</property>
    <property name="rotation">00:00:00.000=0</property>
    <property name="kdenlive:collapsed">0</property>
   </filter>
   <filter id="filter118">
    <property name="version">0.9</property>
    <property name="mlt_service">frei0r.cairoimagegrid</property>
    <property name="kdenlive_id">frei0r.cairoimagegrid</property>
    <property name="rows">00:00:00.000=0.05</property>
    <property name="columns">00:00:00.000=0</property>
    <property name="kdenlive:collapsed">0</property>
   </filter>
  </entry>
  <entry in="00:00:02.033" out="00:00:02.233" producer="producer84">
   <property name="kdenlive:id">52</property>
   <filter id="filter119">
    <property name="rotate_center">1</property>
    <property name="mlt_service">qtblend</property>
    <property name="kdenlive_id">qtblend</property>
    <property name="compositing">0</property>
    <property name="distort">1</property>
    <property name="rect">00:00:02.033=0 0 1920 1920 1</property>
    <property name="rotation">00:00:02.033=0</property>
    <property name="kdenlive:collapsed">0</property>
   </filter>
   <filter id="filter120">
    <property name="version">0.9</property>
    <property name="mlt_service">frei0r.cairoimagegrid</property>
    <property name="kdenlive_id">frei0r.cairoimagegrid</property>
    <property name="rows">00:00:02.033=0.05</property>
    <property name="columns">00:00:02.033=0</property>
    <property name="kdenlive:collapsed">0</property>
   </filter>
  </entry>
  <entry in="00:00:06.867" out="00:00:07.000" producer="chain26">
   <property name="kdenlive:id">52</property>
   <filter id="filter121">
    <property name="rotate_center">1</property>
    <property name="mlt_service">qtblend</property>
    <property name="kdenlive_id">qtblend</property>
    <property name="compositing">0</property>
    <property name="distort">1</property>
    <property name="rect">00:00:06.867=0 0 1920 1920 1</property>
    <property name="rotation">00:00:06.867=0</property>
    <property name="kdenlive:collapsed">0</property>
   </filter>
   <filter id="filter122">
    <property name="version">0.9</property>
    <property name="mlt_service">frei0r.cairoimagegrid</property>
    <property name="kdenlive_id">frei0r.cairoimagegrid</property>
    <property name="rows">00:00:06.867=0.05</property>
    <property name="columns">00:00:06.867=0</property>
    <property name="kdenlive:collapsed">0</property>
   </filter>
  </entry>
  <entry in="00:00:00.000" out="00:00:00.100" producer="producer51">
   <property name="kdenlive:id">54</property>
   <filter id="filter123">
    <property name="rotate_center">1</property>
    <property name="mlt_service">qtblend</property>
    <property name="kdenlive_id">qtblend</property>
    <property name="compositing">0</property>
    <property name="distort">0</property>
    <property name="rect">00:00:00.000=-1018 -1018 3982 3982 1.000000</property>
    <property name="rotation">00:00:00.000=0</property>
    <property name="kdenlive:collapsed">0</property>
   </filter>
  </entry>
  <entry in="00:00:00.000" out="00:00:00.100" producer="producer52">
   <property name="kdenlive:id">55</property>
   <filter id="filter124">
    <property name="rotate_center">1</property>
    <property name="mlt_service">qtblend</property>
    <property name="kdenlive_id">qtblend</property>
    <property name="compositing">0</property>
    <property name="distort">0</property>
    <property name="rect">00:00:00.000=-768 -768 3456 3456 1.000000</property>
    <property name="rotation">00:00:00.000=0</property>
    <property name="kdenlive:collapsed">0</property>
   </filter>
  </entry>
  <entry in="00:00:00.000" out="00:00:00.133" producer="producer53">
   <property name="kdenlive:id">56</property>
  </entry>
  <entry in="00:00:00.000" out="00:00:00.600" producer="producer85">
   <property name="kdenlive:id">53</property>
   <filter id="filter125">
    <property name="rotate_center">1</property>
    <property name="mlt_service">qtblend</property>
    <property name="kdenlive_id">qtblend</property>
    <property name="compositing">0</property>
    <property name="distort">0</property>
    <property name="rect">00:00:00.000=-748 -172 3456 3456 1.000000</property>
    <property name="rotation">00:00:00.000=0</property>
    <property name="kdenlive:collapsed">0</property>
   </filter>
  </entry>
  <entry in="00:00:00.000" out="00:00:00.400" producer="producer87">
   <property name="kdenlive:id">50</property>
   <filter id="filter126">
    <property name="rotate_center">1</property>
    <property name="mlt_service">qtblend</property>
    <property name="kdenlive_id">qtblend</property>
    <property name="compositing">0</property>
    <property name="distort">0</property>
    <property name="rect">00:00:00.000=-1384 -768 3456 3456 1.000000</property>
    <property name="rotation">00:00:00.000=0</property>
    <property name="kdenlive:collapsed">0</property>
   </filter>
  </entry>
  <entry in="00:00:03.900" out="00:00:04.800" producer="producer93">
   <property name="kdenlive:id">89</property>
   <filter id="filter127">
    <property name="rotate_center">1</property>
    <property name="mlt_service">qtblend</property>
    <property name="kdenlive_id">qtblend</property>
    <property name="compositing">0</property>
    <property name="distort">0</property>
    <property name="rect">00:00:03.900=-11 -819 3690 3690 1.000000</property>
    <property name="rotation">00:00:03.900=0</property>
    <property name="kdenlive:collapsed">0</property>
   </filter>
  </entry>
  <entry in="00:00:00.000" out="00:00:00.333" producer="producer57">
   <property name="kdenlive:id">57</property>
  </entry>
  <entry in="00:00:03.867" out="00:00:05.233" producer="producer94">
   <property name="kdenlive:id">51</property>
   <property name="kdenlive:activeeffect">1</property>
   <filter id="filter128">
    <property name="version">0.9</property>
    <property name="mlt_service">frei0r.cairoimagegrid</property>
    <property name="kdenlive_id">frei0r.cairoimagegrid</property>
    <property name="rows">00:00:03.867=0.05</property>
    <property name="columns">00:00:03.867=0</property>
    <property name="kdenlive:collapsed">0</property>
   </filter>
   <filter id="filter129">
    <property name="rotate_center">1</property>
    <property name="mlt_service">qtblend</property>
    <property name="kdenlive_id">qtblend</property>
    <property name="compositing">0</property>
    <property name="distort">1</property>
    <property name="rect">00:00:03.867=0 0 1920 1920 1</property>
    <property name="rotation">00:00:03.867=0</property>
    <property name="kdenlive:collapsed">0</property>
   </filter>
  </entry>
  <entry in="00:00:07.600" out="00:00:08.100" producer="producer95">
   <property name="kdenlive:id">51</property>
   <filter id="filter130">
    <property name="rotate_center">1</property>
    <property name="mlt_service">qtblend</property>
    <property name="kdenlive_id">qtblend</property>
    <property name="compositing">0</property>
    <property name="distort">1</property>
    <property name="rect">00:00:07.600=0 0 1920 1920 1</property>
    <property name="rotation">00:00:07.600=0</property>
    <property name="kdenlive:collapsed">0</property>
   </filter>
  </entry>
  <entry in="00:00:00.000" out="00:00:00.100" producer="producer41">
   <property name="kdenlive:id">30</property>
  </entry>
  <entry in="00:00:00.000" out="00:00:00.133" producer="producer60">
   <property name="kdenlive:id">71</property>
   <filter id="filter131">
    <property name="rotate_center">1</property>
    <property name="mlt_service">qtblend</property>
    <property name="kdenlive_id">qtblend</property>
    <property name="compositing">0</property>
    <property name="distort">0</property>
    <property name="rect">00:00:00.000=-36 -372 2688 2688 1.000000</property>
    <property name="rotation">00:00:00.000=0</property>
    <property name="kdenlive:collapsed">0</property>
   </filter>
  </entry>
  <entry in="00:00:00.000" out="00:00:00.067" producer="producer61">
   <property name="kdenlive:id">59</property>
   <filter id="filter132">
    <property name="rotate_center">1</property>
    <property name="mlt_service">qtblend</property>
    <property name="kdenlive_id">qtblend</property>
    <property name="compositing">0</property>
    <property name="distort">0</property>
    <property name="rect">00:00:00.000=-1157 -785 3506 3506 1.000000</property>
    <property name="rotation">00:00:00.000=0</property>
    <property name="kdenlive:collapsed">0</property>
   </filter>
  </entry>
  <entry in="00:00:00.000" out="00:00:00.100" producer="producer96">
   <property name="kdenlive:id">115</property>
   <property name="kdenlive:activeeffect">0</property>
   <filter id="filter133">
    <property name="rotate_center">1</property>
    <property name="mlt_service">qtblend</property>
    <property name="kdenlive_id">qtblend</property>
    <property name="compositing">0</property>
    <property name="distort">1</property>
    <property name="rect">00:00:00.000=316 0 1268 1884 1.000000</property>
    <property name="rotation">00:00:00.000=0</property>
    <property name="kdenlive:collapsed">0</property>
   </filter>
  </entry>
  <entry in="00:00:00.000" out="00:00:00.033" producer="producer62">
   <property name="kdenlive:id">60</property>
   <filter id="filter134">
    <property name="rotate_center">1</property>
    <property name="mlt_service">qtblend</property>
    <property name="kdenlive_id">qtblend</property>
    <property name="compositing">0</property>
    <property name="distort">0</property>
    <property name="rect">00:00:00.000=-149 -785 3506 3506 1.000000</property>
    <property name="rotation">00:00:00.000=0</property>
    <property name="kdenlive:collapsed">0</property>
   </filter>
  </entry>
  <entry in="00:00:00.000" out="00:00:00.067" producer="producer97">
   <property name="kdenlive:id">116</property>
   <filter id="filter135">
    <property name="rotate_center">1</property>
    <property name="mlt_service">qtblend</property>
    <property name="kdenlive_id">qtblend</property>
    <property name="compositing">0</property>
    <property name="distort">1</property>
    <property name="rect">00:00:00.000=316 0 1268 1884 1.000000</property>
    <property name="rotation">00:00:00.000=0</property>
   </filter>
  </entry>
  <entry in="00:00:00.000" out="00:00:00.100" producer="producer63">
   <property name="kdenlive:id">61</property>
   <filter id="filter136">
    <property name="rotate_center">1</property>
    <property name="mlt_service">qtblend</property>
    <property name="kdenlive_id">qtblend</property>
    <property name="compositing">0</property>
    <property name="distort">0</property>
    <property name="rect">00:00:00.000=-845 -141 3506 3506 1.000000</property>
    <property name="rotation">00:00:00.000=0</property>
    <property name="kdenlive:collapsed">0</property>
   </filter>
  </entry>
  <entry in="00:00:00.000" out="00:00:00.100" producer="producer98">
   <property name="kdenlive:id">117</property>
   <filter id="filter137">
    <property name="rotate_center">1</property>
    <property name="mlt_service">qtblend</property>
    <property name="kdenlive_id">qtblend</property>
    <property name="compositing">0</property>
    <property name="distort">1</property>
    <property name="rect">00:00:00.000=316 0 1268 1884 1.000000</property>
    <property name="rotation">00:00:00.000=0</property>
   </filter>
  </entry>
  <entry in="00:00:00.000" out="00:00:00.100" producer="producer64">
   <property name="kdenlive:id">68</property>
   <filter id="filter138">
    <property name="rotate_center">1</property>
    <property name="mlt_service">qtblend</property>
    <property name="kdenlive_id">qtblend</property>
    <property name="compositing">0</property>
    <property name="distort">0</property>
    <property name="rect">00:00:00.000=-87 -575 3456 3456 1.000000</property>
    <property name="rotation">00:00:00.000=0</property>
    <property name="kdenlive:collapsed">0</property>
   </filter>
  </entry>
  <entry in="00:00:00.000" out="00:00:00.033" producer="producer65">
   <property name="kdenlive:id">66</property>
   <filter id="filter139">
    <property name="rotate_center">1</property>
    <property name="mlt_service">qtblend</property>
    <property name="kdenlive_id">qtblend</property>
    <property name="compositing">0</property>
    <property name="distort">0</property>
    <property name="rect">00:00:00.000=-656 -846 3456 3456 1.000000</property>
    <property name="rotation">00:00:00.000=0</property>
    <property name="kdenlive:collapsed">0</property>
   </filter>
  </entry>
  <entry in="00:00:00.000" out="00:00:00.067" producer="producer66">
   <property name="kdenlive:id">67</property>
   <filter id="filter140">
    <property name="rotate_center">1</property>
    <property name="mlt_service">qtblend</property>
    <property name="kdenlive_id">qtblend</property>
    <property name="compositing">0</property>
    <property name="distort">0</property>
    <property name="rect">00:00:00.000=-376 -490 2880 2880 1.000000</property>
    <property name="rotation">00:00:00.000=0</property>
    <property name="kdenlive:collapsed">0</property>
   </filter>
  </entry>
  <entry in="00:00:00.000" out="00:00:00.300" producer="producer67">
   <property name="kdenlive:id">65</property>
   <filter id="filter141">
    <property name="rotate_center">1</property>
    <property name="mlt_service">qtblend</property>
    <property name="kdenlive_id">qtblend</property>
    <property name="compositing">0</property>
    <property name="distort">0</property>
    <property name="rect">00:00:00.000=-161 -699 3456 3456 1.000000</property>
    <property name="rotation">00:00:00.000=0</property>
    <property name="kdenlive:collapsed">0</property>
   </filter>
  </entry>
  <entry in="00:00:00.000" out="00:00:00.133" producer="producer68">
   <property name="kdenlive:id">72</property>
   <property name="kdenlive:activeeffect">1</property>
   <filter id="filter142">
    <property name="rotate_center">1</property>
    <property name="mlt_service">qtblend</property>
    <property name="kdenlive_id">qtblend</property>
    <property name="compositing">0</property>
    <property name="distort">0</property>
    <property name="rect">00:00:00.000=-480 -20 2880 2880 1.000000</property>
    <property name="rotation">00:00:00.000=0</property>
    <property name="kdenlive:collapsed">0</property>
   </filter>
   <filter id="filter143">
    <property name="version">0.9</property>
    <property name="mlt_service">frei0r.cairoimagegrid</property>
    <property name="kdenlive_id">frei0r.cairoimagegrid</property>
    <property name="rows">00:00:00.000=0</property>
    <property name="columns">00:00:00.000=0</property>
    <property name="kdenlive:collapsed">0</property>
   </filter>
  </entry>
  <blank length="00:00:01.000"/>
  <entry in="00:00:00.000" out="00:00:00.033" producer="producer34">
   <property name="kdenlive:id">22</property>
   <filter id="filter144">
    <property name="rotate_center">1</property>
    <property name="mlt_service">qtblend</property>
    <property name="kdenlive_id">qtblend</property>
    <property name="compositing">0</property>
    <property name="distort">0</property>
    <property name="rect">00:00:00.000=0 -296 1920 1920 1.000000</property>
    <property name="rotation">00:00:00.000=0</property>
   </filter>
  </entry>
  <blank length="00:00:00.133"/>
  <entry in="00:00:00.000" out="00:00:00.033" producer="producer34">
   <property name="kdenlive:id">22</property>
   <filter id="filter145">
    <property name="rotate_center">1</property>
    <property name="mlt_service">qtblend</property>
    <property name="kdenlive_id">qtblend</property>
    <property name="compositing">0</property>
    <property name="distort">0</property>
    <property name="rect">00:00:00.000=0 -296 1920 1920 1.000000</property>
    <property name="rotation">00:00:00.000=0</property>
   </filter>
  </entry>
 </playlist>
 <playlist id="playlist27"/>
 <tractor id="tractor13" in="00:00:00.000" out="00:00:30.867">
  <property name="kdenlive:trackheight">67</property>
  <property name="kdenlive:timeline_active">1</property>
  <property name="kdenlive:collapsed">0</property>
  <property name="kdenlive:thumbs_format"/>
  <property name="kdenlive:audio_rec"/>
  <track hide="audio" producer="playlist26"/>
  <track hide="audio" producer="playlist27"/>
 </tractor>
 <producer id="producer99" in="00:00:00.000" out="00:00:04.967">
  <property name="length">00:00:05.000</property>
  <property name="eof">pause</property>
  <property name="resource">/home/schmilly/Pictures/Screenshots/Screenshot_20250104_105522.png</property>
  <property name="ttl">25</property>
  <property name="aspect_ratio">1</property>
  <property name="meta.media.progressive">1</property>
  <property name="seekable">1</property>
  <property name="format">2</property>
  <property name="meta.media.width">491</property>
  <property name="meta.media.height">483</property>
  <property name="mlt_service">qimage</property>
  <property name="kdenlive:duration">00:00:05:00</property>
  <property name="xml">was here</property>
  <property name="kdenlive:folderid">-1</property>
  <property name="kdenlive:id">119</property>
  <property name="kdenlive:control_uuid">{5ddc9e6e-cb68-4551-9dd8-867010136500}</property>
  <property name="kdenlive:clip_type">2</property>
  <property name="kdenlive:file_size">7306</property>
  <property name="kdenlive:file_hash">2b6b96fe555df7f3900fcd846d781933</property>
  <property name="kdenlive:monitorPosition">17</property>
 </producer>
 <producer id="producer100" in="00:00:00.000" out="00:00:02.467">
  <property name="length">75</property>
  <property name="eof">pause</property>
  <property name="resource"/>
  <property name="meta.media.progressive">1</property>
  <property name="aspect_ratio">1</property>
  <property name="seekable">1</property>
  <property name="mlt_service">kdenlivetitle</property>
  <property name="kdenlive:duration">00:00:02.500</property>
  <property name="kdenlive:clipname">Collective</property>
  <property name="xmldata">&lt;kdenlivetitle LC_NUMERIC="C" duration="75" height="1920" out="74" width="1920">
 &lt;item type="QGraphicsTextItem" z-index="0">
  &lt;position x="265" y="183">
   &lt;transform>1,0,0,0,1,0,0,0,1&lt;/transform>
  &lt;/position>
  &lt;content alignment="0" box-height="477" box-width="1517.52" font="Noto Sans" font-color="255,255,255,255" font-italic="0" font-pixel-size="350" font-underline="0" font-weight="400" letter-spacing="0" shadow="0;#64000000;3;3;3" tab-width="80" typewriter="0;2;1;0;0">collective&lt;/content>
 &lt;/item>
 &lt;startviewport rect="0,0,1920,1920"/>
 &lt;endviewport rect="0,0,1920,1920"/>
 &lt;background color="0,0,0,0"/>
&lt;/kdenlivetitle>
</property>
  <property name="xml">was here</property>
  <property name="kdenlive:folderid">28</property>
  <property name="kdenlive:id">24</property>
  <property name="kdenlive:control_uuid">{2796d904-b372-4d5a-9ba9-37634a7f334f}</property>
  <property name="kdenlive:clip_type">2</property>
  <property name="kdenlive:uniqueId">{5a88c536-ad59-4994-9774-2cc9f6ee974f}</property>
  <property name="kdenlive:file_hash">4fc24442d3d6c6ef0c6541872837c7d0</property>
  <property name="force_reload">0</property>
  <property name="kdenlive:monitorPosition">13</property>
  <property name="meta.media.width">1920</property>
  <property name="meta.media.height">1920</property>
 </producer>
 <chain id="chain27" out="00:00:07.400">
  <property name="length">00:00:07.467</property>
  <property name="eof">pause</property>
  <property name="resource">/home/schmilly/Downloads/Snapinsta.app_video_AQOOsAVmPv3qtzSJ44Z-cmU6PK2_7l4ar1HYQkLJ85NdbwWHzHSUAWU9W001DMl1SSfFQzODfS1jghRk9ZVTVdySVALBZBBN4jfZo64-32-37.mp4</property>
  <property name="mlt_service">avformat-novalidate</property>
  <property name="seekable">1</property>
  <property name="format">3</property>
  <property name="audio_index">1</property>
  <property name="video_index">0</property>
  <property name="vstream">0</property>
  <property name="astream">0</property>
  <property name="kdenlive:control_uuid">{12ff8af7-50eb-4343-a8e3-08ef535c7116}</property>
  <property name="kdenlive:id">10</property>
  <property name="kdenlive:clip_type">0</property>
  <property name="kdenlive:file_size">1501777</property>
  <property name="kdenlive:file_hash">4a489f75a3ff287ea80e9bbacead7772</property>
  <property name="kdenlive:folderid">-1</property>
  <property name="meta.media.nb_streams">2</property>
  <property name="meta.media.0.stream.type">video</property>
  <property name="meta.media.0.stream.frame_rate">30</property>
  <property name="meta.media.0.stream.sample_aspect_ratio">0</property>
  <property name="meta.media.0.codec.width">720</property>
  <property name="meta.media.0.codec.height">1280</property>
  <property name="meta.media.0.codec.rotate">0</property>
  <property name="meta.media.0.codec.pix_fmt">yuv420p</property>
  <property name="meta.media.0.codec.sample_aspect_ratio">0</property>
  <property name="meta.media.0.codec.colorspace">709</property>
  <property name="meta.media.0.codec.color_trc">1</property>
  <property name="meta.media.0.codec.name">h264</property>
  <property name="meta.media.0.codec.long_name">H.264 / AVC / MPEG-4 AVC / MPEG-4 part 10</property>
  <property name="meta.media.0.codec.bit_rate">1560379</property>
  <property name="meta.attr.0.stream.handler_name.markup">VideoHandler</property>
  <property name="meta.attr.0.stream.vendor_id.markup">[0][0][0][0]</property>
  <property name="meta.attr.0.stream.encoder.markup">AVC Coding</property>
  <property name="meta.media.1.stream.type">audio</property>
  <property name="meta.media.1.codec.sample_fmt">fltp</property>
  <property name="meta.media.1.codec.sample_rate">44100</property>
  <property name="meta.media.1.codec.channels">2</property>
  <property name="meta.media.1.codec.layout">stereo</property>
  <property name="meta.media.1.codec.name">aac</property>
  <property name="meta.media.1.codec.long_name">AAC (Advanced Audio Coding)</property>
  <property name="meta.media.1.codec.bit_rate">62226</property>
  <property name="meta.attr.1.stream.handler_name.markup">SoundHandler</property>
  <property name="meta.attr.1.stream.vendor_id.markup">[0][0][0][0]</property>
  <property name="meta.attr.major_brand.markup">isom</property>
  <property name="meta.attr.minor_version.markup">512</property>
  <property name="meta.attr.compatible_brands.markup">isomiso2avc1mp41</property>
  <property name="meta.attr.encoder.markup">Lavf61.7.100</property>
  <property name="meta.media.sample_aspect_num">1</property>
  <property name="meta.media.sample_aspect_den">1</property>
  <property name="meta.media.frame_rate_num">30</property>
  <property name="meta.media.frame_rate_den">1</property>
  <property name="meta.media.colorspace">709</property>
  <property name="meta.media.color_trc">1</property>
  <property name="meta.media.has_b_frames">2</property>
  <property name="meta.media.width">720</property>
  <property name="meta.media.height">1280</property>
  <property name="meta.media.aspect_ratio">1</property>
  <property name="meta.media.color_range">mpeg</property>
  <property name="xml">was here</property>
  <property name="mute_on_pause">0</property>
  <property name="meta.media.top_field_first">0</property>
  <property name="meta.media.progressive">1</property>
  <property name="set.test_audio">1</property>
  <property name="set.test_image">0</property>
 </chain>
 <producer id="producer104" in="00:00:00.000" out="00:01:14.933">
  <property name="length">00:01:15.000</property>
  <property name="eof">pause</property>
  <property name="resource">1.500000:/home/schmilly/Downloads/Snapinsta.app_video_AQN_aOj9Z9cVqWd2t-0apPQvxI41SmquY7ZoMtebjN9RI7HXMyQo2keM-Nl1oGgvNj3KBQLqQlh5WMtY3aIhDyHPtSG5yoODnFEsYEQ.mp4</property>
  <property name="aspect_ratio">1</property>
  <property name="meta.media.nb_streams">2</property>
  <property name="meta.media.0.stream.type">video</property>
  <property name="meta.media.0.stream.frame_rate">30</property>
  <property name="meta.media.0.stream.sample_aspect_ratio">0</property>
  <property name="meta.media.0.codec.width">720</property>
  <property name="meta.media.0.codec.height">1280</property>
  <property name="meta.media.0.codec.rotate">0</property>
  <property name="meta.media.0.codec.pix_fmt">yuv420p</property>
  <property name="meta.media.0.codec.sample_aspect_ratio">0</property>
  <property name="meta.media.0.codec.colorspace">709</property>
  <property name="meta.media.0.codec.color_trc">1</property>
  <property name="meta.media.0.codec.name">h264</property>
  <property name="meta.media.0.codec.long_name">H.264 / AVC / MPEG-4 AVC / MPEG-4 part 10</property>
  <property name="meta.media.0.codec.bit_rate">2533744</property>
  <property name="meta.attr.0.stream.handler_name.markup">VideoHandler</property>
  <property name="meta.attr.0.stream.vendor_id.markup">[0][0][0][0]</property>
  <property name="meta.attr.0.stream.encoder.markup">AVC Coding</property>
  <property name="meta.media.1.stream.type">audio</property>
  <property name="meta.media.1.codec.sample_fmt">fltp</property>
  <property name="meta.media.1.codec.sample_rate">44100</property>
  <property name="meta.media.1.codec.channels">2</property>
  <property name="meta.media.1.codec.layout">stereo</property>
  <property name="meta.media.1.codec.name">aac</property>
  <property name="meta.media.1.codec.long_name">AAC (Advanced Audio Coding)</property>
  <property name="meta.media.1.codec.bit_rate">87450</property>
  <property name="meta.attr.1.stream.handler_name.markup">SoundHandler</property>
  <property name="meta.attr.1.stream.vendor_id.markup">[0][0][0][0]</property>
  <property name="meta.attr.major_brand.markup">isom</property>
  <property name="meta.attr.minor_version.markup">512</property>
  <property name="meta.attr.compatible_brands.markup">isomiso2avc1mp41</property>
  <property name="seekable">1</property>
  <property name="meta.media.sample_aspect_num">1</property>
  <property name="meta.media.sample_aspect_den">1</property>
  <property name="format">3</property>
  <property name="audio_index">1</property>
  <property name="video_index">0</property>
  <property name="warp_speed">1.5</property>
  <property name="warp_resource">/home/schmilly/Downloads/Snapinsta.app_video_AQN_aOj9Z9cVqWd2t-0apPQvxI41SmquY7ZoMtebjN9RI7HXMyQo2keM-Nl1oGgvNj3KBQLqQlh5WMtY3aIhDyHPtSG5yoODnFEsYEQ.mp4</property>
  <property name="mlt_service">timewarp</property>
  <property name="kdenlive:control_uuid">{66d5305f-da2b-43fd-aeee-a8c8dbafe24c}</property>
  <property name="vstream">0</property>
  <property name="astream">0</property>
  <property name="set.test_audio">1</property>
  <property name="set.test_image">0</property>
  <property name="kdenlive:id">6</property>
  <property name="warp_pitch">0</property>
  <property name="meta.media.frame_rate_num">30</property>
  <property name="meta.media.frame_rate_den">1</property>
  <property name="meta.media.colorspace">709</property>
  <property name="meta.media.color_trc">1</property>
  <property name="meta.media.has_b_frames">2</property>
  <property name="meta.media.width">720</property>
  <property name="meta.media.height">1280</property>
  <property name="meta.media.aspect_ratio">1</property>
  <property name="meta.media.color_range">mpeg</property>
  <property name="meta.media.top_field_first">0</property>
  <property name="meta.media.progressive">1</property>
 </producer>
 <producer id="producer105" in="00:00:00.000" out="00:01:14.933">
  <property name="length">00:01:15.000</property>
  <property name="eof">pause</property>
  <property name="resource">1.500000:/home/schmilly/Downloads/Snapinsta.app_video_AQN_aOj9Z9cVqWd2t-0apPQvxI41SmquY7ZoMtebjN9RI7HXMyQo2keM-Nl1oGgvNj3KBQLqQlh5WMtY3aIhDyHPtSG5yoODnFEsYEQ.mp4</property>
  <property name="aspect_ratio">1</property>
  <property name="meta.media.nb_streams">2</property>
  <property name="meta.media.0.stream.type">video</property>
  <property name="meta.media.0.stream.frame_rate">30</property>
  <property name="meta.media.0.stream.sample_aspect_ratio">0</property>
  <property name="meta.media.0.codec.width">720</property>
  <property name="meta.media.0.codec.height">1280</property>
  <property name="meta.media.0.codec.rotate">0</property>
  <property name="meta.media.0.codec.pix_fmt">yuv420p</property>
  <property name="meta.media.0.codec.sample_aspect_ratio">0</property>
  <property name="meta.media.0.codec.colorspace">709</property>
  <property name="meta.media.0.codec.color_trc">1</property>
  <property name="meta.media.0.codec.name">h264</property>
  <property name="meta.media.0.codec.long_name">H.264 / AVC / MPEG-4 AVC / MPEG-4 part 10</property>
  <property name="meta.media.0.codec.bit_rate">2533744</property>
  <property name="meta.attr.0.stream.handler_name.markup">VideoHandler</property>
  <property name="meta.attr.0.stream.vendor_id.markup">[0][0][0][0]</property>
  <property name="meta.attr.0.stream.encoder.markup">AVC Coding</property>
  <property name="meta.media.1.stream.type">audio</property>
  <property name="meta.media.1.codec.sample_fmt">fltp</property>
  <property name="meta.media.1.codec.sample_rate">44100</property>
  <property name="meta.media.1.codec.channels">2</property>
  <property name="meta.media.1.codec.layout">stereo</property>
  <property name="meta.media.1.codec.name">aac</property>
  <property name="meta.media.1.codec.long_name">AAC (Advanced Audio Coding)</property>
  <property name="meta.media.1.codec.bit_rate">87450</property>
  <property name="meta.attr.1.stream.handler_name.markup">SoundHandler</property>
  <property name="meta.attr.1.stream.vendor_id.markup">[0][0][0][0]</property>
  <property name="meta.attr.major_brand.markup">isom</property>
  <property name="meta.attr.minor_version.markup">512</property>
  <property name="meta.attr.compatible_brands.markup">isomiso2avc1mp41</property>
  <property name="seekable">1</property>
  <property name="meta.media.sample_aspect_num">1</property>
  <property name="meta.media.sample_aspect_den">1</property>
  <property name="format">3</property>
  <property name="audio_index">1</property>
  <property name="video_index">0</property>
  <property name="warp_speed">1.5</property>
  <property name="warp_resource">/home/schmilly/Downloads/Snapinsta.app_video_AQN_aOj9Z9cVqWd2t-0apPQvxI41SmquY7ZoMtebjN9RI7HXMyQo2keM-Nl1oGgvNj3KBQLqQlh5WMtY3aIhDyHPtSG5yoODnFEsYEQ.mp4</property>
  <property name="mlt_service">timewarp</property>
  <property name="kdenlive:control_uuid">{66d5305f-da2b-43fd-aeee-a8c8dbafe24c}</property>
  <property name="vstream">0</property>
  <property name="astream">0</property>
  <property name="set.test_audio">1</property>
  <property name="set.test_image">0</property>
  <property name="kdenlive:id">6</property>
  <property name="warp_pitch">0</property>
  <property name="meta.media.frame_rate_num">30</property>
  <property name="meta.media.frame_rate_den">1</property>
  <property name="meta.media.colorspace">709</property>
  <property name="meta.media.color_trc">1</property>
  <property name="meta.media.has_b_frames">2</property>
  <property name="meta.media.width">720</property>
  <property name="meta.media.height">1280</property>
  <property name="meta.media.aspect_ratio">1</property>
  <property name="meta.media.color_range">mpeg</property>
  <property name="meta.media.top_field_first">0</property>
  <property name="meta.media.progressive">1</property>
 </producer>
 <producer id="producer106" in="00:00:00.000" out="00:01:14.933">
  <property name="length">00:01:15.000</property>
  <property name="eof">pause</property>
  <property name="resource">1.500000:/home/schmilly/Downloads/Snapinsta.app_video_AQN_aOj9Z9cVqWd2t-0apPQvxI41SmquY7ZoMtebjN9RI7HXMyQo2keM-Nl1oGgvNj3KBQLqQlh5WMtY3aIhDyHPtSG5yoODnFEsYEQ.mp4</property>
  <property name="aspect_ratio">1</property>
  <property name="meta.media.nb_streams">2</property>
  <property name="meta.media.0.stream.type">video</property>
  <property name="meta.media.0.stream.frame_rate">30</property>
  <property name="meta.media.0.stream.sample_aspect_ratio">0</property>
  <property name="meta.media.0.codec.width">720</property>
  <property name="meta.media.0.codec.height">1280</property>
  <property name="meta.media.0.codec.rotate">0</property>
  <property name="meta.media.0.codec.pix_fmt">yuv420p</property>
  <property name="meta.media.0.codec.sample_aspect_ratio">0</property>
  <property name="meta.media.0.codec.colorspace">709</property>
  <property name="meta.media.0.codec.color_trc">1</property>
  <property name="meta.media.0.codec.name">h264</property>
  <property name="meta.media.0.codec.long_name">H.264 / AVC / MPEG-4 AVC / MPEG-4 part 10</property>
  <property name="meta.media.0.codec.bit_rate">2533744</property>
  <property name="meta.attr.0.stream.handler_name.markup">VideoHandler</property>
  <property name="meta.attr.0.stream.vendor_id.markup">[0][0][0][0]</property>
  <property name="meta.attr.0.stream.encoder.markup">AVC Coding</property>
  <property name="meta.media.1.stream.type">audio</property>
  <property name="meta.media.1.codec.sample_fmt">fltp</property>
  <property name="meta.media.1.codec.sample_rate">44100</property>
  <property name="meta.media.1.codec.channels">2</property>
  <property name="meta.media.1.codec.layout">stereo</property>
  <property name="meta.media.1.codec.name">aac</property>
  <property name="meta.media.1.codec.long_name">AAC (Advanced Audio Coding)</property>
  <property name="meta.media.1.codec.bit_rate">87450</property>
  <property name="meta.attr.1.stream.handler_name.markup">SoundHandler</property>
  <property name="meta.attr.1.stream.vendor_id.markup">[0][0][0][0]</property>
  <property name="meta.attr.major_brand.markup">isom</property>
  <property name="meta.attr.minor_version.markup">512</property>
  <property name="meta.attr.compatible_brands.markup">isomiso2avc1mp41</property>
  <property name="seekable">1</property>
  <property name="meta.media.sample_aspect_num">1</property>
  <property name="meta.media.sample_aspect_den">1</property>
  <property name="format">3</property>
  <property name="audio_index">1</property>
  <property name="video_index">0</property>
  <property name="warp_speed">1.5</property>
  <property name="warp_resource">/home/schmilly/Downloads/Snapinsta.app_video_AQN_aOj9Z9cVqWd2t-0apPQvxI41SmquY7ZoMtebjN9RI7HXMyQo2keM-Nl1oGgvNj3KBQLqQlh5WMtY3aIhDyHPtSG5yoODnFEsYEQ.mp4</property>
  <property name="mlt_service">timewarp</property>
  <property name="kdenlive:control_uuid">{66d5305f-da2b-43fd-aeee-a8c8dbafe24c}</property>
  <property name="vstream">0</property>
  <property name="astream">0</property>
  <property name="set.test_audio">1</property>
  <property name="set.test_image">0</property>
  <property name="kdenlive:id">6</property>
  <property name="warp_pitch">0</property>
  <property name="meta.media.frame_rate_num">30</property>
  <property name="meta.media.frame_rate_den">1</property>
  <property name="meta.media.colorspace">709</property>
  <property name="meta.media.color_trc">1</property>
  <property name="meta.media.has_b_frames">2</property>
  <property name="meta.media.width">720</property>
  <property name="meta.media.height">1280</property>
  <property name="meta.media.aspect_ratio">1</property>
  <property name="meta.media.color_range">mpeg</property>
  <property name="meta.media.top_field_first">0</property>
  <property name="meta.media.progressive">1</property>
 </producer>
 <producer id="producer107" in="00:00:00.000" out="00:02:05.467">
  <property name="length">00:02:05.600</property>
  <property name="eof">pause</property>
  <property name="resource">2.000000:/home/schmilly/Downloads/Snapinsta.app_video_AQM1KdYbIIdOkdcbdaCILpkWffSeNNOs_VrNQ4_RhOGJQgHfDhw6LFQd_8h4s15np9TyXp34iYqgWxPugsPOpFXWVsLoLxGvWtgpyI8.mp4</property>
  <property name="aspect_ratio">1</property>
  <property name="meta.media.nb_streams">2</property>
  <property name="meta.media.0.stream.type">video</property>
  <property name="meta.media.0.stream.frame_rate">30</property>
  <property name="meta.media.0.stream.sample_aspect_ratio">0</property>
  <property name="meta.media.0.codec.width">720</property>
  <property name="meta.media.0.codec.height">1280</property>
  <property name="meta.media.0.codec.rotate">0</property>
  <property name="meta.media.0.codec.pix_fmt">yuv420p</property>
  <property name="meta.media.0.codec.sample_aspect_ratio">0</property>
  <property name="meta.media.0.codec.colorspace">709</property>
  <property name="meta.media.0.codec.color_trc">1</property>
  <property name="meta.media.0.codec.name">h264</property>
  <property name="meta.media.0.codec.long_name">H.264 / AVC / MPEG-4 AVC / MPEG-4 part 10</property>
  <property name="meta.media.0.codec.bit_rate">952853</property>
  <property name="meta.attr.0.stream.handler_name.markup">VideoHandler</property>
  <property name="meta.attr.0.stream.vendor_id.markup">[0][0][0][0]</property>
  <property name="meta.attr.0.stream.encoder.markup">AVC Coding</property>
  <property name="meta.media.1.stream.type">audio</property>
  <property name="meta.media.1.codec.sample_fmt">fltp</property>
  <property name="meta.media.1.codec.sample_rate">44100</property>
  <property name="meta.media.1.codec.channels">2</property>
  <property name="meta.media.1.codec.layout">stereo</property>
  <property name="meta.media.1.codec.name">aac</property>
  <property name="meta.media.1.codec.long_name">AAC (Advanced Audio Coding)</property>
  <property name="meta.media.1.codec.bit_rate">51707</property>
  <property name="meta.attr.1.stream.handler_name.markup">SoundHandler</property>
  <property name="meta.attr.1.stream.vendor_id.markup">[0][0][0][0]</property>
  <property name="meta.attr.major_brand.markup">isom</property>
  <property name="meta.attr.minor_version.markup">512</property>
  <property name="meta.attr.compatible_brands.markup">isomiso2avc1mp41</property>
  <property name="seekable">1</property>
  <property name="meta.media.sample_aspect_num">1</property>
  <property name="meta.media.sample_aspect_den">1</property>
  <property name="format">3</property>
  <property name="audio_index">1</property>
  <property name="video_index">0</property>
  <property name="warp_speed">2</property>
  <property name="warp_resource">/home/schmilly/Downloads/Snapinsta.app_video_AQM1KdYbIIdOkdcbdaCILpkWffSeNNOs_VrNQ4_RhOGJQgHfDhw6LFQd_8h4s15np9TyXp34iYqgWxPugsPOpFXWVsLoLxGvWtgpyI8.mp4</property>
  <property name="mlt_service">timewarp</property>
  <property name="kdenlive:control_uuid">{b9fbdda5-2175-4a29-8540-1dd4f6b8d4cc}</property>
  <property name="vstream">0</property>
  <property name="astream">0</property>
  <property name="set.test_audio">1</property>
  <property name="set.test_image">0</property>
  <property name="kdenlive:id">7</property>
  <property name="warp_pitch">0</property>
  <property name="meta.media.frame_rate_num">30</property>
  <property name="meta.media.frame_rate_den">1</property>
  <property name="meta.media.colorspace">709</property>
  <property name="meta.media.color_trc">1</property>
  <property name="meta.media.has_b_frames">2</property>
  <property name="meta.media.width">720</property>
  <property name="meta.media.height">1280</property>
  <property name="meta.media.aspect_ratio">1</property>
  <property name="meta.media.color_range">mpeg</property>
  <property name="meta.media.top_field_first">0</property>
  <property name="meta.media.progressive">1</property>
 </producer>
 <producer id="producer108" in="00:00:00.000" out="00:00:50.900">
  <property name="length">1528</property>
  <property name="eof">pause</property>
  <property name="resource">8.000000:/home/schmilly/Downloads/Snapinsta.app_video_AQOko_qZGNqSBXmqOoTk5sHjgAx3MfydD0v5CikwA1yxVgWuBEXtblb8-kgGSXB-eQy8KntwaK6IQmvoHB6V_EzD-30fps.mp4</property>
  <property name="aspect_ratio">1</property>
  <property name="meta.media.nb_streams">2</property>
  <property name="meta.media.0.stream.type">video</property>
  <property name="meta.media.0.stream.frame_rate">29.97</property>
  <property name="meta.media.0.stream.sample_aspect_ratio">0</property>
  <property name="meta.media.0.codec.width">504</property>
  <property name="meta.media.0.codec.height">894</property>
  <property name="meta.media.0.codec.rotate">0</property>
  <property name="meta.media.0.codec.pix_fmt">yuv420p</property>
  <property name="meta.media.0.codec.sample_aspect_ratio">0</property>
  <property name="meta.media.0.codec.colorspace">601</property>
  <property name="meta.media.0.codec.name">h264</property>
  <property name="meta.media.0.codec.long_name">H.264 / AVC / MPEG-4 AVC / MPEG-4 part 10</property>
  <property name="meta.media.0.codec.bit_rate">13009864</property>
  <property name="meta.attr.0.stream.handler_name.markup">VideoHandler</property>
  <property name="meta.attr.0.stream.vendor_id.markup">[0][0][0][0]</property>
  <property name="meta.attr.0.stream.encoder.markup">Lavc61.19.100 libx264</property>
  <property name="meta.media.1.stream.type">audio</property>
  <property name="meta.media.1.codec.sample_fmt">fltp</property>
  <property name="meta.media.1.codec.sample_rate">44100</property>
  <property name="meta.media.1.codec.channels">2</property>
  <property name="meta.media.1.codec.layout">stereo</property>
  <property name="meta.media.1.codec.name">aac</property>
  <property name="meta.media.1.codec.long_name">AAC (Advanced Audio Coding)</property>
  <property name="meta.media.1.codec.bit_rate">223208</property>
  <property name="meta.attr.1.stream.handler_name.markup">SoundHandler</property>
  <property name="meta.attr.1.stream.vendor_id.markup">[0][0][0][0]</property>
  <property name="meta.attr.major_brand.markup">isom</property>
  <property name="meta.attr.minor_version.markup">512</property>
  <property name="meta.attr.compatible_brands.markup">isomiso2avc1mp41</property>
  <property name="meta.attr.encoder.markup">Lavf61.7.100</property>
  <property name="seekable">1</property>
  <property name="meta.media.sample_aspect_num">1</property>
  <property name="meta.media.sample_aspect_den">1</property>
  <property name="format">3</property>
  <property name="audio_index">1</property>
  <property name="video_index">0</property>
  <property name="warp_speed">8</property>
  <property name="warp_resource">/home/schmilly/Downloads/Snapinsta.app_video_AQOko_qZGNqSBXmqOoTk5sHjgAx3MfydD0v5CikwA1yxVgWuBEXtblb8-kgGSXB-eQy8KntwaK6IQmvoHB6V_EzD-30fps.mp4</property>
  <property name="mlt_service">timewarp</property>
  <property name="kdenlive:control_uuid">{7ef44863-c5c5-4961-94db-d1b48f5d5184}</property>
  <property name="kdenlive:originalurl">/home/schmilly/Downloads/Snapinsta.app_video_AQOko_qZGNqSBXmqOoTk5sHjgAx3MfydD0v5CikwA1yxVgWuBEXtblb8-kgGSXB-eQy8KntwaK6IQmvoHB6V_EzD-30fps.mp4</property>
  <property name="vstream">0</property>
  <property name="astream">0</property>
  <property name="set.test_audio">1</property>
  <property name="set.test_image">0</property>
  <property name="kdenlive:id">109</property>
  <property name="warp_pitch">0</property>
  <property name="meta.media.frame_rate_num">30000</property>
  <property name="meta.media.frame_rate_den">1001</property>
  <property name="meta.media.colorspace">601</property>
  <property name="meta.media.color_trc">2</property>
  <property name="meta.media.has_b_frames">0</property>
  <property name="meta.media.width">504</property>
  <property name="meta.media.height">894</property>
  <property name="meta.media.aspect_ratio">1</property>
  <property name="meta.media.color_range">mpeg</property>
  <property name="meta.media.top_field_first">0</property>
  <property name="meta.media.progressive">1</property>
 </producer>
 <playlist id="playlist28">
  <entry in="00:00:00.000" out="00:00:00.000" producer="producer99">
   <property name="kdenlive:id">119</property>
  </entry>
  <blank length="00:00:07.233"/>
  <entry in="00:00:00.000" out="00:00:00.967" producer="producer100">
   <property name="kdenlive:id">24</property>
   <filter id="filter146">
    <property name="mlt_service">invert</property>
    <property name="kdenlive_id">invert</property>
    <property name="kdenlive:collapsed">0</property>
   </filter>
   <filter id="filter147">
    <property name="rotate_center">1</property>
    <property name="mlt_service">qtblend</property>
    <property name="kdenlive_id">qtblend</property>
    <property name="compositing">0</property>
    <property name="distort">1</property>
    <property name="rect">00:00:00.000=316 0 1268 1884 1.000000</property>
    <property name="rotation">00:00:00.000=0</property>
    <property name="kdenlive:collapsed">0</property>
   </filter>
  </entry>
  <entry in="00:00:00.000" out="00:00:00.967" producer="producer100">
   <property name="kdenlive:id">24</property>
   <filter id="filter148">
    <property name="rotate_center">1</property>
    <property name="mlt_service">qtblend</property>
    <property name="kdenlive_id">qtblend</property>
    <property name="compositing">0</property>
    <property name="distort">1</property>
    <property name="rect">00:00:00.000=316 0 1268 1884 1.000000</property>
    <property name="rotation">00:00:00.000=0</property>
    <property name="kdenlive:collapsed">0</property>
   </filter>
  </entry>
  <entry in="00:00:00.000" out="00:00:00.833" producer="producer100">
   <property name="kdenlive:id">24</property>
   <filter id="filter149">
    <property name="rotate_center">1</property>
    <property name="mlt_service">qtblend</property>
    <property name="kdenlive_id">qtblend</property>
    <property name="compositing">0</property>
    <property name="distort">1</property>
    <property name="rect">00:00:00.000=316 0 1268 1884 1.000000</property>
    <property name="rotation">00:00:00.000=0</property>
    <property name="kdenlive:collapsed">0</property>
   </filter>
   <filter id="filter150">
    <property name="mlt_service">invert</property>
    <property name="kdenlive_id">invert</property>
   </filter>
  </entry>
  <blank length="00:00:00.100"/>
  <entry in="00:00:00.000" out="00:00:00.067" producer="producer34">
   <property name="kdenlive:id">22</property>
   <filter id="filter151">
    <property name="rotate_center">1</property>
    <property name="mlt_service">qtblend</property>
    <property name="kdenlive_id">qtblend</property>
    <property name="compositing">0</property>
    <property name="distort">0</property>
    <property name="rect">00:00:00.000=0 378 1920 1920 1.000000</property>
    <property name="rotation">00:00:00.000=0</property>
    <property name="kdenlive:collapsed">0</property>
   </filter>
  </entry>
  <blank length="00:00:00.100"/>
  <entry in="00:00:00.000" out="00:00:00.067" producer="producer34">
   <property name="kdenlive:id">22</property>
   <filter id="filter152">
    <property name="rotate_center">1</property>
    <property name="mlt_service">qtblend</property>
    <property name="kdenlive_id">qtblend</property>
    <property name="compositing">0</property>
    <property name="distort">0</property>
    <property name="rect">00:00:00.000=0 378 1920 1920 1.000000</property>
    <property name="rotation">00:00:00.000=0</property>
    <property name="kdenlive:collapsed">0</property>
   </filter>
  </entry>
  <blank length="00:00:01.267"/>
  <entry in="00:00:02.867" out="00:00:03.667" producer="chain27">
   <property name="kdenlive:id">10</property>
   <filter id="filter153">
    <property name="rotate_center">1</property>
    <property name="mlt_service">qtblend</property>
    <property name="kdenlive_id">qtblend</property>
    <property name="compositing">0</property>
    <property name="distort">0</property>
    <property name="rect">00:00:02.867=484 21 1920 1920 1.000000</property>
    <property name="rotation">00:00:02.867=0</property>
    <property name="kdenlive:collapsed">0</property>
   </filter>
  </entry>
  <entry in="00:00:04.867" out="00:00:05.200" producer="producer104">
   <property name="kdenlive:id">6</property>
   <filter id="filter154">
    <property name="rotate_center">1</property>
    <property name="mlt_service">qtblend</property>
    <property name="kdenlive_id">qtblend</property>
    <property name="compositing">0</property>
    <property name="distort">0</property>
    <property name="rect">00:00:04.867=628 -32 1920 1920 1.000000</property>
    <property name="rotation">00:00:04.867=0</property>
    <property name="kdenlive:collapsed">0</property>
   </filter>
  </entry>
  <entry in="00:00:18.267" out="00:00:18.600" producer="producer105">
   <property name="kdenlive:id">6</property>
   <filter id="filter155">
    <property name="rotate_center">1</property>
    <property name="mlt_service">qtblend</property>
    <property name="kdenlive_id">qtblend</property>
    <property name="compositing">0</property>
    <property name="distort">0</property>
    <property name="rect">00:00:18.267=628 -32 1920 1920 1.000000</property>
    <property name="rotation">00:00:18.267=0</property>
    <property name="kdenlive:collapsed">0</property>
   </filter>
  </entry>
  <entry in="00:00:25.833" out="00:00:26.567" producer="producer106">
   <property name="kdenlive:id">6</property>
   <filter id="filter156">
    <property name="rotate_center">1</property>
    <property name="mlt_service">qtblend</property>
    <property name="kdenlive_id">qtblend</property>
    <property name="compositing">0</property>
    <property name="distort">0</property>
    <property name="rect">00:00:25.833=628 -32 1920 1920 1.000000</property>
    <property name="rotation">00:00:25.833=0</property>
    <property name="kdenlive:collapsed">0</property>
   </filter>
  </entry>
  <entry in="00:00:56.233" out="00:00:57.333" producer="producer107">
   <property name="kdenlive:id">7</property>
   <filter id="filter157">
    <property name="rotate_center">1</property>
    <property name="mlt_service">qtblend</property>
    <property name="kdenlive_id">qtblend</property>
    <property name="compositing">0</property>
    <property name="distort">0</property>
    <property name="rect">00:00:56.233=-1074 -12 2700 2719 1.000000</property>
    <property name="rotation">00:00:56.233=0</property>
    <property name="kdenlive:collapsed">0</property>
   </filter>
   <filter id="filter158">
    <property name="mlt_service">crop</property>
    <property name="kdenlive_id">crop</property>
    <property name="top">0</property>
    <property name="left">0</property>
    <property name="bottom">0</property>
    <property name="right">458</property>
    <property name="center">0</property>
    <property name="center_bias">0</property>
    <property name="use_profile">1</property>
    <property name="kdenlive:collapsed">0</property>
   </filter>
  </entry>
  <entry in="00:00:04.500" out="00:00:05.367" producer="producer108">
   <property name="kdenlive:id">109</property>
   <filter id="filter159">
    <property name="rotate_center">1</property>
    <property name="mlt_service">qtblend</property>
    <property name="kdenlive_id">qtblend</property>
    <property name="compositing">0</property>
    <property name="distort">0</property>
    <property name="rect">00:00:04.500=-865 -1205 3768 3684 1.000000</property>
    <property name="rotation">00:00:04.500=0</property>
    <property name="kdenlive:collapsed">0</property>
   </filter>
  </entry>
  <blank length="00:00:01.567"/>
  <entry in="00:00:00.000" out="00:00:00.133" producer="producer101">
   <property name="kdenlive:id">114</property>
   <filter id="filter160">
    <property name="rotate_center">1</property>
    <property name="mlt_service">qtblend</property>
    <property name="kdenlive_id">qtblend</property>
    <property name="compositing">0</property>
    <property name="distort">0</property>
    <property name="rect">00:00:00.000=-54 840 548 567 1.000000</property>
    <property name="rotation">00:00:00.000=24</property>
    <property name="kdenlive:collapsed">0</property>
   </filter>
   <filter id="filter161">
    <property name="color">00:00:00.000=#b4636363</property>
    <property name="radius">1</property>
    <property name="x">8</property>
    <property name="y">8</property>
    <property name="mlt_service">dropshadow</property>
    <property name="kdenlive_id">dropshadow</property>
    <property name="kdenlive:collapsed">0</property>
   </filter>
  </entry>
  <blank length="00:00:11.933"/>
  <entry in="00:00:00.000" out="00:00:00.300" producer="producer74">
   <property name="kdenlive:id">76</property>
   <filter id="filter162">
    <property name="version">0.9</property>
    <property name="mlt_service">frei0r.cairoimagegrid</property>
    <property name="kdenlive_id">frei0r.cairoimagegrid</property>
    <property name="rows">00:00:00.000=0.05</property>
    <property name="columns">00:00:00.000=0.05</property>
    <property name="kdenlive:collapsed">0</property>
   </filter>
   <filter id="filter163">
    <property name="rotate_center">1</property>
    <property name="mlt_service">qtblend</property>
    <property name="kdenlive_id">qtblend</property>
    <property name="compositing">0</property>
    <property name="distort">1</property>
    <property name="rect">00:00:00.000=0 0 1920 1920 1.000000</property>
    <property name="rotation">00:00:00.000=0</property>
    <property name="kdenlive:collapsed">0</property>
   </filter>
  </entry>
  <entry in="00:00:00.000" out="00:00:00.200" producer="producer74">
   <property name="kdenlive:id">76</property>
   <filter id="filter164">
    <property name="version">0.9</property>
    <property name="mlt_service">frei0r.cairoimagegrid</property>
    <property name="kdenlive_id">frei0r.cairoimagegrid</property>
    <property name="rows">00:00:00.000=0.1</property>
    <property name="columns">00:00:00.000=0.1</property>
    <property name="kdenlive:collapsed">0</property>
   </filter>
   <filter id="filter165">
    <property name="rotate_center">1</property>
    <property name="mlt_service">qtblend</property>
    <property name="kdenlive_id">qtblend</property>
    <property name="compositing">0</property>
    <property name="distort">1</property>
    <property name="rect">00:00:00.000=0 0 1920 1920 1.000000</property>
    <property name="rotation">00:00:00.000=0</property>
    <property name="kdenlive:collapsed">0</property>
   </filter>
  </entry>
  <entry in="00:00:00.000" out="00:00:00.133" producer="producer74">
   <property name="kdenlive:id">76</property>
   <filter id="filter166">
    <property name="version">0.9</property>
    <property name="mlt_service">frei0r.cairoimagegrid</property>
    <property name="kdenlive_id">frei0r.cairoimagegrid</property>
    <property name="rows">00:00:00.000=0.2</property>
    <property name="columns">00:00:00.000=0.21</property>
    <property name="kdenlive:collapsed">0</property>
   </filter>
   <filter id="filter167">
    <property name="rotate_center">1</property>
    <property name="mlt_service">qtblend</property>
    <property name="kdenlive_id">qtblend</property>
    <property name="compositing">0</property>
    <property name="distort">1</property>
    <property name="rect">00:00:00.000=0 0 1920 1920 1</property>
    <property name="rotation">00:00:00.000=0</property>
    <property name="kdenlive:collapsed">0</property>
   </filter>
  </entry>
  <blank length="00:00:00.033"/>
  <entry in="00:00:00.000" out="00:00:00.067" producer="producer34">
   <property name="kdenlive:id">22</property>
   <filter id="filter168">
    <property name="rotate_center">1</property>
    <property name="mlt_service">qtblend</property>
    <property name="kdenlive_id">qtblend</property>
    <property name="compositing">0</property>
    <property name="distort">0</property>
    <property name="rect">00:00:00.000=0 378 1920 1920 1.000000</property>
    <property name="rotation">00:00:00.000=0</property>
    <property name="kdenlive:collapsed">0</property>
   </filter>
  </entry>
  <blank length="00:00:00.100"/>
  <entry in="00:00:00.000" out="00:00:00.067" producer="producer34">
   <property name="kdenlive:id">22</property>
   <filter id="filter169">
    <property name="rotate_center">1</property>
    <property name="mlt_service">qtblend</property>
    <property name="kdenlive_id">qtblend</property>
    <property name="compositing">0</property>
    <property name="distort">0</property>
    <property name="rect">00:00:00.000=0 378 1920 1920 1.000000</property>
    <property name="rotation">00:00:00.000=0</property>
   </filter>
  </entry>
 </playlist>
 <playlist id="playlist29"/>
 <tractor id="tractor14" in="00:00:00.000" out="00:00:30.867">
  <property name="kdenlive:trackheight">67</property>
  <property name="kdenlive:timeline_active">1</property>
  <property name="kdenlive:collapsed">0</property>
  <property name="kdenlive:thumbs_format"/>
  <property name="kdenlive:audio_rec"/>
  <track hide="audio" producer="playlist28"/>
  <track hide="audio" producer="playlist29"/>
 </tractor>
 <playlist id="playlist30">
  <blank length="00:00:29.633"/>
  <entry in="00:00:00.000" out="00:00:00.900" producer="producer74">
   <property name="kdenlive:id">76</property>
   <filter id="filter170">
    <property name="version">0.9</property>
    <property name="mlt_service">frei0r.cairoimagegrid</property>
    <property name="kdenlive_id">frei0r.cairoimagegrid</property>
    <property name="rows">00:00:00.000=0;00:00:00.200=0;00:00:00.400=0.05;00:00:00.533=0.05;00:00:00.667=0.1;00:00:00.767=0.1;00:00:00.833=0.2</property>
    <property name="columns">00:00:00.000=0;00:00:00.200=0;00:00:00.400=0.05;00:00:00.533=0.05;00:00:00.667=0.105;00:00:00.767=0.105;00:00:00.833=0.21</property>
    <property name="kdenlive:collapsed">0</property>
   </filter>
   <filter id="filter171">
    <property name="rotate_center">1</property>
    <property name="mlt_service">qtblend</property>
    <property name="kdenlive_id">qtblend</property>
    <property name="compositing">0</property>
    <property name="distort">1</property>
    <property name="rect">00:00:00.000=0 0 1920 1920 1.000000</property>
    <property name="rotation">00:00:00.000=0</property>
    <property name="kdenlive:collapsed">0</property>
   </filter>
  </entry>
 </playlist>
 <playlist id="playlist31"/>
 <tractor id="tractor15" in="00:00:00.000" out="00:00:30.533">
  <property name="kdenlive:trackheight">67</property>
  <property name="kdenlive:timeline_active">1</property>
  <property name="kdenlive:collapsed">28</property>
  <property name="kdenlive:thumbs_format"/>
  <property name="kdenlive:audio_rec"/>
  <track hide="audio" producer="playlist30"/>
  <track hide="audio" producer="playlist31"/>
 </tractor>
 <playlist id="playlist32"/>
 <playlist id="playlist33"/>
 <tractor id="tractor16" in="00:00:00.000">
  <property name="kdenlive:trackheight">67</property>
  <property name="kdenlive:timeline_active">1</property>
  <property name="kdenlive:collapsed">28</property>
  <property name="kdenlive:thumbs_format"/>
  <property name="kdenlive:audio_rec"/>
  <track hide="audio" producer="playlist32"/>
  <track hide="audio" producer="playlist33"/>
 </tractor>
 <playlist id="playlist34"/>
 <playlist id="playlist35"/>
 <tractor id="tractor17" in="00:00:00.000">
  <property name="kdenlive:trackheight">67</property>
  <property name="kdenlive:timeline_active">1</property>
  <property name="kdenlive:collapsed">0</property>
  <property name="kdenlive:thumbs_format"/>
  <property name="kdenlive:audio_rec"/>
  <track hide="audio" producer="playlist34"/>
  <track hide="audio" producer="playlist35"/>
 </tractor>
 <playlist id="playlist36"/>
 <playlist id="playlist37"/>
 <tractor id="tractor18" in="00:00:00.000">
  <property name="kdenlive:trackheight">67</property>
  <property name="kdenlive:timeline_active">1</property>
  <property name="kdenlive:collapsed">0</property>
  <property name="kdenlive:thumbs_format"/>
  <property name="kdenlive:audio_rec"/>
  <track hide="audio" producer="playlist36"/>
  <track hide="audio" producer="playlist37"/>
 </tractor>
 <playlist id="playlist38">
  <property name="kdenlive:playlistid">timeline_preview</property>
 </playlist>
 <tractor id="tractor19" in="00:00:00.000" out="00:00:40.833">
  <property name="kdenlive:duration">00:00:40.867</property>
  <property name="kdenlive:maxduration">1226</property>
  <property name="kdenlive:clipname">Sequence 1</property>
  <property name="kdenlive:description"/>
  <property name="kdenlive:uuid">{21539263-3cf9-4533-becf-ddf070b54995}</property>
  <property name="kdenlive:producer_type">17</property>
  <property name="kdenlive:control_uuid">{21539263-3cf9-4533-becf-ddf070b54995}</property>
  <property name="kdenlive:id">3</property>
  <property name="kdenlive:clip_type">0</property>
  <property name="kdenlive:file_hash">3298b24f5974f64b63a1996af861b2ee</property>
  <property name="kdenlive:folderid">2</property>
  <property name="kdenlive:sequenceproperties.activeTrack">13</property>
  <property name="kdenlive:sequenceproperties.audioTarget">1</property>
  <property name="kdenlive:sequenceproperties.dirtypreviewchunks">0-300</property>
  <property name="kdenlive:sequenceproperties.disablepreview">0</property>
  <property name="kdenlive:sequenceproperties.documentuuid">{21539263-3cf9-4533-becf-ddf070b54995}</property>
  <property name="kdenlive:sequenceproperties.hasAudio">1</property>
  <property name="kdenlive:sequenceproperties.hasVideo">1</property>
  <property name="kdenlive:sequenceproperties.position">0</property>
  <property name="kdenlive:sequenceproperties.scrollPos">0</property>
  <property name="kdenlive:sequenceproperties.tracks">4</property>
  <property name="kdenlive:sequenceproperties.tracksCount">18</property>
  <property name="kdenlive:sequenceproperties.verticalzoom">1</property>
  <property name="kdenlive:sequenceproperties.videoTarget">2</property>
  <property name="kdenlive:sequenceproperties.zonein">0</property>
  <property name="kdenlive:sequenceproperties.zoneout">995</property>
  <property name="kdenlive:sequenceproperties.zoom">9</property>
  <property name="kdenlive:sequenceproperties.groups">[
    {
        "children": [
            {
                "data": "7:964:-1",
                "leaf": "clip",
                "type": "Leaf"
            },
            {
                "data": "7:956:-1",
                "leaf": "clip",
                "type": "Leaf"
            },
            {
                "data": "7:948:-1",
                "leaf": "clip",
                "type": "Leaf"
            }
        ],
        "type": "Normal"
    },
    {
        "children": [
            {
                "data": "7:990:-1",
                "leaf": "clip",
                "type": "Leaf"
            },
            {
                "data": "7:982:-1",
                "leaf": "clip",
                "type": "Leaf"
            },
            {
                "data": "7:974:-1",
                "leaf": "clip",
                "type": "Leaf"
            }
        ],
        "type": "Normal"
    },
    {
        "children": [
            {
                "data": "7:1017:-1",
                "leaf": "clip",
                "type": "Leaf"
            },
            {
                "data": "7:1009:-1",
                "leaf": "clip",
                "type": "Leaf"
            },
            {
                "data": "7:1001:-1",
                "leaf": "clip",
                "type": "Leaf"
            }
        ],
        "type": "Normal"
    },
    {
        "children": [
            {
                "data": "7:1044:-1",
                "leaf": "clip",
                "type": "Leaf"
            },
            {
                "data": "7:1036:-1",
                "leaf": "clip",
                "type": "Leaf"
            },
            {
                "data": "7:1028:-1",
                "leaf": "clip",
                "type": "Leaf"
            }
        ],
        "type": "Normal"
    },
    {
        "children": [
            {
                "data": "7:1071:-1",
                "leaf": "clip",
                "type": "Leaf"
            },
            {
                "data": "7:1063:-1",
                "leaf": "clip",
                "type": "Leaf"
            },
            {
                "data": "7:1055:-1",
                "leaf": "clip",
                "type": "Leaf"
            }
        ],
        "type": "Normal"
    },
    {
        "children": [
            {
                "data": "7:1098:-1",
                "leaf": "clip",
                "type": "Leaf"
            },
            {
                "data": "7:1090:-1",
                "leaf": "clip",
                "type": "Leaf"
            },
            {
                "data": "7:1082:-1",
                "leaf": "clip",
                "type": "Leaf"
            }
        ],
        "type": "Normal"
    },
    {
        "children": [
            {
                "data": "7:1125:-1",
                "leaf": "clip",
                "type": "Leaf"
            },
            {
                "data": "7:1117:-1",
                "leaf": "clip",
                "type": "Leaf"
            },
            {
                "data": "7:1109:-1",
                "leaf": "clip",
                "type": "Leaf"
            }
        ],
        "type": "Normal"
    }
]
</property>
  <property name="kdenlive:sequenceproperties.guides">[
    {
        "comment": "Marker",
        "pos": 116,
        "type": 0
    }
]
</property>
  <property name="kdenlive:sequenceproperties.previewchunks"/>
  <track producer="producer0"/>
  <track producer="tractor0"/>
  <track producer="tractor1"/>
  <track producer="tractor2"/>
  <track producer="tractor3"/>
  <track producer="tractor4"/>
  <track producer="tractor5"/>
  <track producer="tractor6"/>
  <track producer="tractor7"/>
  <track producer="tractor8"/>
  <track producer="tractor9"/>
  <track producer="tractor10"/>
  <track producer="tractor11"/>
  <track producer="tractor12"/>
  <track producer="tractor13"/>
  <track producer="tractor14"/>
  <track producer="tractor15"/>
  <track producer="tractor16"/>
  <track producer="tractor17"/>
  <track producer="tractor18"/>
  <track hide="both" producer="playlist38"/>
  <transition id="transition0">
   <property name="a_track">0</property>
   <property name="b_track">1</property>
   <property name="mlt_service">mix</property>
   <property name="kdenlive_id">mix</property>
   <property name="internal_added">237</property>
   <property name="always_active">1</property>
   <property name="accepts_blanks">1</property>
   <property name="sum">1</property>
  </transition>
  <transition id="transition1">
   <property name="a_track">0</property>
   <property name="b_track">2</property>
   <property name="mlt_service">mix</property>
   <property name="kdenlive_id">mix</property>
   <property name="internal_added">237</property>
   <property name="always_active">1</property>
   <property name="accepts_blanks">1</property>
   <property name="sum">1</property>
  </transition>
  <transition id="transition2">
   <property name="a_track">0</property>
   <property name="b_track">3</property>
   <property name="mlt_service">mix</property>
   <property name="kdenlive_id">mix</property>
   <property name="internal_added">237</property>
   <property name="always_active">1</property>
   <property name="accepts_blanks">1</property>
   <property name="sum">1</property>
  </transition>
  <transition id="transition3">
   <property name="a_track">0</property>
   <property name="b_track">4</property>
   <property name="mlt_service">mix</property>
   <property name="kdenlive_id">mix</property>
   <property name="internal_added">237</property>
   <property name="always_active">1</property>
   <property name="accepts_blanks">1</property>
   <property name="sum">1</property>
  </transition>
  <transition id="transition4">
   <property name="a_track">0</property>
   <property name="b_track">5</property>
   <property name="mlt_service">mix</property>
   <property name="kdenlive_id">mix</property>
   <property name="internal_added">237</property>
   <property name="always_active">1</property>
   <property name="accepts_blanks">1</property>
   <property name="sum">1</property>
  </transition>
  <transition id="transition5">
   <property name="a_track">0</property>
   <property name="b_track">6</property>
   <property name="mlt_service">mix</property>
   <property name="kdenlive_id">mix</property>
   <property name="internal_added">237</property>
   <property name="always_active">1</property>
   <property name="accepts_blanks">1</property>
   <property name="sum">1</property>
  </transition>
  <transition id="transition6">
   <property name="a_track">0</property>
   <property name="b_track">7</property>
   <property name="mlt_service">mix</property>
   <property name="kdenlive_id">mix</property>
   <property name="internal_added">237</property>
   <property name="always_active">1</property>
   <property name="accepts_blanks">1</property>
   <property name="sum">1</property>
  </transition>
  <transition id="transition7">
   <property name="a_track">0</property>
   <property name="b_track">8</property>
   <property name="compositing">0</property>
   <property name="distort">0</property>
   <property name="rotate_center">0</property>
   <property name="mlt_service">qtblend</property>
   <property name="kdenlive_id">qtblend</property>
   <property name="internal_added">237</property>
   <property name="always_active">1</property>
  </transition>
  <transition id="transition8">
   <property name="a_track">0</property>
   <property name="b_track">9</property>
   <property name="compositing">0</property>
   <property name="distort">0</property>
   <property name="rotate_center">0</property>
   <property name="mlt_service">qtblend</property>
   <property name="kdenlive_id">qtblend</property>
   <property name="internal_added">237</property>
   <property name="always_active">1</property>
  </transition>
  <transition id="transition9">
   <property name="a_track">0</property>
   <property name="b_track">10</property>
   <property name="compositing">0</property>
   <property name="distort">0</property>
   <property name="rotate_center">0</property>
   <property name="mlt_service">qtblend</property>
   <property name="kdenlive_id">qtblend</property>
   <property name="internal_added">237</property>
   <property name="always_active">1</property>
  </transition>
  <transition id="transition10">
   <property name="a_track">0</property>
   <property name="b_track">11</property>
   <property name="compositing">0</property>
   <property name="distort">0</property>
   <property name="rotate_center">0</property>
   <property name="mlt_service">qtblend</property>
   <property name="kdenlive_id">qtblend</property>
   <property name="internal_added">237</property>
   <property name="always_active">1</property>
  </transition>
  <transition id="transition11">
   <property name="a_track">0</property>
   <property name="b_track">12</property>
   <property name="compositing">0</property>
   <property name="distort">0</property>
   <property name="rotate_center">0</property>
   <property name="mlt_service">qtblend</property>
   <property name="kdenlive_id">qtblend</property>
   <property name="internal_added">237</property>
   <property name="always_active">1</property>
  </transition>
  <transition id="transition12">
   <property name="a_track">0</property>
   <property name="b_track">13</property>
   <property name="compositing">0</property>
   <property name="distort">0</property>
   <property name="rotate_center">0</property>
   <property name="mlt_service">qtblend</property>
   <property name="kdenlive_id">qtblend</property>
   <property name="internal_added">237</property>
   <property name="always_active">1</property>
  </transition>
  <transition id="transition13">
   <property name="a_track">0</property>
   <property name="b_track">14</property>
   <property name="compositing">0</property>
   <property name="distort">0</property>
   <property name="rotate_center">0</property>
   <property name="mlt_service">qtblend</property>
   <property name="kdenlive_id">qtblend</property>
   <property name="internal_added">237</property>
   <property name="always_active">1</property>
  </transition>
  <transition id="transition14">
   <property name="a_track">0</property>
   <property name="b_track">15</property>
   <property name="compositing">0</property>
   <property name="distort">0</property>
   <property name="rotate_center">0</property>
   <property name="mlt_service">qtblend</property>
   <property name="kdenlive_id">qtblend</property>
   <property name="internal_added">237</property>
   <property name="always_active">1</property>
  </transition>
  <transition id="transition15">
   <property name="a_track">0</property>
   <property name="b_track">16</property>
   <property name="compositing">0</property>
   <property name="distort">0</property>
   <property name="rotate_center">0</property>
   <property name="mlt_service">qtblend</property>
   <property name="kdenlive_id">qtblend</property>
   <property name="internal_added">237</property>
   <property name="always_active">1</property>
  </transition>
  <transition id="transition16">
   <property name="a_track">0</property>
   <property name="b_track">17</property>
   <property name="compositing">0</property>
   <property name="distort">0</property>
   <property name="rotate_center">0</property>
   <property name="mlt_service">qtblend</property>
   <property name="kdenlive_id">qtblend</property>
   <property name="internal_added">237</property>
   <property name="always_active">1</property>
  </transition>
  <transition id="transition17">
   <property name="a_track">0</property>
   <property name="b_track">18</property>
   <property name="compositing">0</property>
   <property name="distort">0</property>
   <property name="rotate_center">0</property>
   <property name="mlt_service">qtblend</property>
   <property name="kdenlive_id">qtblend</property>
   <property name="internal_added">237</property>
   <property name="always_active">1</property>
  </transition>
  <transition id="transition18">
   <property name="a_track">0</property>
   <property name="b_track">19</property>
   <property name="compositing">0</property>
   <property name="distort">0</property>
   <property name="rotate_center">0</property>
   <property name="mlt_service">qtblend</property>
   <property name="kdenlive_id">qtblend</property>
   <property name="internal_added">237</property>
   <property name="always_active">1</property>
  </transition>
  <filter id="filter172">
   <property name="window">75</property>
   <property name="max_gain">20dB</property>
   <property name="mlt_service">volume</property>
   <property name="internal_added">237</property>
   <property name="disable">1</property>
  </filter>
  <filter id="filter173">
   <property name="channel">-1</property>
   <property name="mlt_service">panner</property>
   <property name="internal_added">237</property>
   <property name="start">0.5</property>
   <property name="disable">1</property>
  </filter>
 </tractor>
 <playlist id="main_bin">
  <property name="kdenlive:folder.-1.2">Sequences</property>
  <property name="kdenlive:folder.-1.28">Text</property>
  <property name="kdenlive:folder.-1.97">Pasted clips</property>
  <property name="kdenlive:sequenceFolder">2</property>
  <property name="kdenlive:docproperties.activetimeline">{21539263-3cf9-4533-becf-ddf070b54995}</property>
  <property name="kdenlive:docproperties.audioChannels">2</property>
  <property name="kdenlive:docproperties.binsort">0</property>
  <property name="kdenlive:docproperties.browserurl">/home/schmilly/Videos/</property>
  <property name="kdenlive:docproperties.documentid">1734962673219</property>
  <property name="kdenlive:docproperties.enableTimelineZone">0</property>
  <property name="kdenlive:docproperties.enableexternalproxy">0</property>
  <property name="kdenlive:docproperties.enableproxy">0</property>
  <property name="kdenlive:docproperties.externalproxyparams"/>
  <property name="kdenlive:docproperties.generateimageproxy">0</property>
  <property name="kdenlive:docproperties.generateproxy">0</property>
  <property name="kdenlive:docproperties.guidesCategories">[
    {
        "color": "#9b59b6",
        "comment": "Category 1",
        "index": 0
    },
    {
        "color": "#3daee9",
        "comment": "Category 2",
        "index": 1
    },
    {
        "color": "#1abc9c",
        "comment": "Category 3",
        "index": 2
    },
    {
        "color": "#1cdc9a",
        "comment": "Category 4",
        "index": 3
    },
    {
        "color": "#c9ce3b",
        "comment": "Category 5",
        "index": 4
    },
    {
        "color": "#fdbc4b",
        "comment": "Category 6",
        "index": 5
    },
    {
        "color": "#f39c1f",
        "comment": "Category 7",
        "index": 6
    },
    {
        "color": "#f47750",
        "comment": "Category 8",
        "index": 7
    },
    {
        "color": "#da4453",
        "comment": "Category 9",
        "index": 8
    }
]
</property>
  <property name="kdenlive:docproperties.kdenliveversion">24.12.0</property>
  <property name="kdenlive:docproperties.opensequences">{21539263-3cf9-4533-becf-ddf070b54995}</property>
  <property name="kdenlive:docproperties.previewextension">mp4</property>
  <property name="kdenlive:docproperties.previewparameters">c:v=h264_amf g=1 bf=0 vprofile=main preset=fast</property>
  <property name="kdenlive:docproperties.profile">/home/schmilly/.var/app/org.kde.kdenlive/data/kdenlive/profiles/customprofile2</property>
  <property name="kdenlive:docproperties.proxyextension"/>
  <property name="kdenlive:docproperties.proxyimageminsize">2000</property>
  <property name="kdenlive:docproperties.proxyimagesize">800</property>
  <property name="kdenlive:docproperties.proxyminsize">1000</property>
  <property name="kdenlive:docproperties.proxyparams"/>
  <property name="kdenlive:docproperties.proxyresize">640</property>
  <property name="kdenlive:docproperties.rendercategory">Generic (HD for web, mobile devices...)</property>
  <property name="kdenlive:docproperties.rendercustomquality">-1</property>
  <property name="kdenlive:docproperties.renderendguide">0</property>
  <property name="kdenlive:docproperties.renderexportaudio">0</property>
  <property name="kdenlive:docproperties.renderfullcolorrange">0</property>
  <property name="kdenlive:docproperties.rendermode">0</property>
  <property name="kdenlive:docproperties.renderplay">0</property>
  <property name="kdenlive:docproperties.renderpreview">1</property>
  <property name="kdenlive:docproperties.renderprofile">MP4-H264/AAC</property>
  <property name="kdenlive:docproperties.renderrescale">0</property>
  <property name="kdenlive:docproperties.renderrescaleheight">960</property>
  <property name="kdenlive:docproperties.renderrescalewidth">960</property>
  <property name="kdenlive:docproperties.renderspeed">3</property>
  <property name="kdenlive:docproperties.renderstartguide">0</property>
  <property name="kdenlive:docproperties.rendertcoverlay">0</property>
  <property name="kdenlive:docproperties.rendertctype">-1</property>
  <property name="kdenlive:docproperties.rendertwopass">0</property>
  <property name="kdenlive:docproperties.renderurl">/home/schmilly/Videos/Edit-1500.mp4</property>
  <property name="kdenlive:docproperties.seekOffset">7500</property>
  <property name="kdenlive:docproperties.sessionid">{b3657569-c779-476f-802b-9f0c6ba16c7a}</property>
  <property name="kdenlive:docproperties.uuid">{21539263-3cf9-4533-becf-ddf070b54995}</property>
  <property name="kdenlive:docproperties.version">1.1</property>
  <property name="kdenlive:documentnotes"/>
  <property name="kdenlive:documentnotesversion">2</property>
  <property name="xml_retain">1</property>
  <entry in="00:00:00.000" out="00:02:01.200" producer="chain5"/>
  <entry in="00:00:00.000" out="00:00:39.533" producer="chain8"/>
  <entry in="00:00:00.000" out="00:01:52.400" producer="chain6"/>
  <entry in="00:00:00.000" out="00:04:11.067" producer="chain7"/>
  <entry in="00:00:00.000" out="00:00:11.000" producer="chain11"/>
  <entry in="00:00:00.000" out="00:00:07.400" producer="chain14"/>
  <entry in="00:00:00.000" out="00:00:16.800" producer="chain15"/>
  <entry in="00:00:00.000" out="00:00:04.967" producer="producer40"/>
  <entry in="00:00:00.000" out="00:00:04.967" producer="producer1"/>
  <entry in="00:00:00.000" out="00:00:04.967" producer="producer3"/>
  <entry in="00:00:00.000" out="00:00:04.967" producer="producer2"/>
  <entry in="00:00:00.000" out="00:00:02.467" producer="producer9"/>
  <entry in="00:00:00.000" out="00:00:02.467" producer="producer10"/>
  <entry in="00:00:00.000" out="00:00:04.933" producer="producer39"/>
  <entry in="00:00:00.000" out="00:00:13.733" producer="chain18"/>
  <entry in="00:00:00.000" out="00:00:04.967" producer="producer5"/>
  <entry in="00:00:00.000" out="00:00:22.467" producer="chain21"/>
  <entry in="00:00:00.000" out="00:00:04.967" producer="producer23"/>
  <entry in="00:00:00.000" out="00:00:04.967" producer="producer41"/>
  <entry in="00:00:00.000" out="00:00:04.967" producer="producer26"/>
  <entry in="00:00:00.000" out="00:00:04.967" producer="producer24"/>
  <entry in="00:00:00.000" out="00:00:04.967" producer="producer25"/>
  <entry in="00:00:00.000" out="00:00:04.967" producer="producer16"/>
  <entry in="00:00:00.000" out="00:00:04.967" producer="producer27"/>
  <entry in="00:00:00.000" out="00:00:01.000" producer="chain22"/>
  <entry in="00:00:00.000" out="00:00:04.967" producer="producer28"/>
  <entry in="00:00:00.000" out="00:00:04.967" producer="producer29"/>
  <entry in="00:00:00.000" out="00:00:04.967" producer="producer30"/>
  <entry in="00:00:00.000" out="00:00:04.967" producer="producer31"/>
  <entry in="00:00:00.000" out="00:00:04.967" producer="producer32"/>
  <entry in="00:00:00.000" out="00:00:04.967" producer="producer33"/>
  <entry in="00:00:00.000" out="00:00:04.967" producer="producer35"/>
  <entry in="00:00:00.000" out="00:00:04.967" producer="producer36"/>
  <entry in="00:00:00.000" out="00:00:04.967" producer="producer37"/>
  <entry in="00:00:00.000" out="00:00:04.967" producer="producer45"/>
  <entry in="00:00:00.000" out="00:00:04.967" producer="producer44"/>
  <entry in="00:00:00.000" out="00:00:04.967" producer="producer43"/>
  <entry in="00:00:00.000" out="00:00:04.967" producer="producer38"/>
  <entry in="00:00:00.000" out="00:00:21.733" producer="chain13"/>
  <entry in="00:00:00.000" out="00:00:37.167" producer="chain16"/>
  <entry in="00:00:00.000" out="00:00:13.467" producer="chain23"/>
  <entry in="00:00:00.000" out="00:00:58.100" producer="chain24"/>
  <entry in="00:00:00.000" out="00:00:04.967" producer="producer51"/>
  <entry in="00:00:00.000" out="00:00:04.967" producer="producer52"/>
  <entry in="00:00:00.000" out="00:00:04.967" producer="producer53"/>
  <entry in="00:00:00.000" out="00:00:04.967" producer="producer57"/>
  <entry in="00:00:00.000" out="00:00:07.100" producer="chain25"/>
  <entry in="00:00:00.000" out="00:00:04.967" producer="producer61"/>
  <entry in="00:00:00.000" out="00:00:04.967" producer="producer62"/>
  <entry in="00:00:00.000" out="00:00:04.967" producer="producer63"/>
  <entry in="00:00:00.000" out="00:00:04.967" producer="producer75"/>
  <entry in="00:00:00.000" out="00:00:04.967" producer="producer77"/>
  <entry in="00:00:00.000" out="00:00:05.000" producer="producer80"/>
  <entry in="00:00:00.000" out="00:00:04.967" producer="producer67"/>
  <entry in="00:00:00.000" out="00:00:04.967" producer="producer65"/>
  <entry in="00:00:00.000" out="00:00:04.967" producer="producer66"/>
  <entry in="00:00:00.000" out="00:00:04.967" producer="producer64"/>
  <entry in="00:00:00.000" out="00:00:04.967" producer="producer86"/>
  <entry in="00:00:00.000" out="00:00:04.967" producer="producer88"/>
  <entry in="00:00:00.000" out="00:00:04.967" producer="producer60"/>
  <entry in="00:00:00.000" out="00:00:04.967" producer="producer68"/>
  <entry in="00:00:00.000" out="00:00:04.967" producer="producer89"/>
  <entry in="00:00:00.000" out="00:00:04.967" producer="producer90"/>
  <entry in="00:00:00.000" out="00:00:04.967" producer="producer91"/>
  <entry in="00:00:00.000" out="00:00:04.967" producer="producer74"/>
  <entry in="00:00:00.000" out="00:00:04.967" producer="producer6"/>
  <entry in="00:00:00.000" out="00:00:04.967" producer="producer92"/>
  <entry in="00:00:00.000" out="00:00:04.967" producer="producer7"/>
  <entry in="00:00:00.000" out="00:00:00.400" producer="producer8"/>
  <entry in="00:00:00.000" out="00:00:04.967" producer="producer102"/>
  <entry in="00:00:00.000" out="00:00:04.967" producer="producer103"/>
  <entry in="00:00:00.000" out="00:00:04.967" producer="producer19"/>
  <entry in="00:00:00.000" out="00:00:04.967" producer="producer49"/>
  <entry in="00:00:00.000" out="00:00:04.967" producer="producer18"/>
  <entry in="00:00:00.000" out="00:00:17.567" producer="chain29"/>
  <entry in="00:00:00.000" out="00:00:49.867" producer="chain28"/>
  <entry in="00:00:00.000" out="00:00:06.667" producer="chain31"/>
  <entry in="00:00:00.000" out="00:00:30.467" producer="chain33"/>
  <entry in="00:00:00.000" out="00:00:38.667" producer="chain30"/>
  <entry in="00:00:00.000" out="00:00:06.333" producer="chain32"/>
  <entry in="00:00:00.000" out="00:00:16.700" producer="chain34"/>
  <entry in="00:00:00.000" out="00:00:27.700" producer="chain35"/>
  <entry in="00:00:00.000" out="00:00:04.967" producer="producer47"/>
  <entry in="00:00:00.000" out="00:00:04.967" producer="producer46"/>
  <entry in="00:00:00.000" out="00:00:04.967" producer="producer12"/>
  <entry in="00:00:00.000" out="00:00:04.967" producer="producer13"/>
  <entry in="00:00:00.000" out="00:00:04.967" producer="producer14"/>
  <entry in="00:00:00.000" out="00:00:04.967" producer="producer20"/>
  <entry in="00:00:00.000" out="00:00:04.967" producer="producer48"/>
  <entry in="00:00:00.000" out="00:00:04.967" producer="producer21"/>
  <entry in="00:00:00.000" out="00:03:06.700" producer="chain36"/>
  <entry in="00:00:00.000" out="00:00:04.967" producer="producer11"/>
  <entry in="00:00:00.000" out="00:00:22.633" producer="chain37"/>
  <entry in="00:00:00.000" out="00:06:47.533" producer="chain38"/>
  <entry in="00:00:00.000" out="00:00:04.967" producer="producer81"/>
  <entry in="00:00:00.000" out="00:00:04.967" producer="producer82"/>
  <entry in="00:00:00.000" out="00:00:04.967" producer="producer72"/>
  <entry in="00:00:00.000" out="00:00:04.967" producer="producer59"/>
  <entry in="00:00:00.000" out="00:00:04.967" producer="producer101"/>
  <entry in="00:00:00.000" out="00:00:40.833" producer="tractor19"/>
  <entry in="00:00:00.000" out="00:00:04.967" producer="producer96"/>
  <entry in="00:00:00.000" out="00:00:04.967" producer="producer97"/>
  <entry in="00:00:00.000" out="00:00:04.967" producer="producer98"/>
  <entry in="00:00:00.000" out="00:00:04.967" producer="producer4"/>
  <entry in="00:00:00.000" out="00:00:04.967" producer="producer99"/>
  <entry in="00:00:00.000" out="00:00:04.967" producer="producer15"/>
  <entry in="00:00:00.000" out="00:00:02.467" producer="producer54"/>
  <entry in="00:00:00.000" out="00:00:02.467" producer="producer55"/>
  <entry in="00:00:00.000" out="00:00:02.467" producer="producer100"/>
  <entry in="00:00:00.000" out="00:00:02.467" producer="producer34"/>
 </playlist>
 <tractor id="tractor20" in="00:00:00.000" out="00:00:40.833">
  <property name="kdenlive:projectTractor">1</property>
  <track in="00:00:00.000" out="00:00:40.833" producer="tractor19"/>
 </tractor>
</mlt>
