<?xml version='1.0' encoding='utf-8'?>
<mlt LC_NUMERIC="C" producer="main_bin" root="/home/schmilly/Documents_2025/RAHU" version="7.28.0">
 <profile colorspace="601" description="Custom Square" display_aspect_den="16" display_aspect_num="16" frame_rate_den="2" frame_rate_num="30" height="1920" progressive="1" sample_aspect_den="1" sample_aspect_num="1" width="1920"/>
 <producer id="producer0" in="00:00:00.000" out="00:06:09.067">
  <property name="length">2147483647</property>
  <property name="eof">continue</property>
  <property name="resource">black</property>
  <property name="aspect_ratio">1</property>
  <property name="mlt_service">color</property>
  <property name="kdenlive:playlistid">black_track</property>
  <property name="mlt_image_format">rgba</property>
  <property name="set.test_audio">0</property>
 </producer>
 <playlist id="playlist0">
  <property name="kdenlive:audio_track">1</property>
 </playlist>
 <playlist id="playlist1">
  <property name="kdenlive:audio_track">1</property>
 </playlist>
 <tractor id="tractor0" in="00:00:00.000">
  <property name="kdenlive:audio_track">1</property>
  <property name="kdenlive:trackheight">67</property>
  <property name="kdenlive:timeline_active">1</property>
  <property name="kdenlive:collapsed">0</property>
  <property name="kdenlive:thumbs_format"/>
  <property name="kdenlive:audio_rec"/>
  <track hide="video" producer="playlist0"/>
  <track hide="video" producer="playlist1"/>
  <filter id="filter0">
   <property name="window">75</property>
   <property name="max_gain">20dB</property>
   <property name="mlt_service">volume</property>
   <property name="internal_added">237</property>
   <property name="disable">1</property>
  </filter>
  <filter id="filter1">
   <property name="channel">-1</property>
   <property name="mlt_service">panner</property>
   <property name="internal_added">237</property>
   <property name="start">0.5</property>
   <property name="disable">1</property>
  </filter>
  <filter id="filter2">
   <property name="iec_scale">0</property>
   <property name="mlt_service">audiolevel</property>
   <property name="dbpeak">1</property>
   <property name="disable">1</property>
  </filter>
 </tractor>
 <playlist id="playlist2">
  <property name="kdenlive:audio_track">1</property>
 </playlist>
 <playlist id="playlist3">
  <property name="kdenlive:audio_track">1</property>
 </playlist>
 <tractor id="tractor1" in="00:00:00.000">
  <property name="kdenlive:audio_track">1</property>
  <property name="kdenlive:trackheight">67</property>
  <property name="kdenlive:timeline_active">1</property>
  <property name="kdenlive:collapsed">0</property>
  <property name="kdenlive:thumbs_format"/>
  <property name="kdenlive:audio_rec"/>
  <track hide="video" producer="playlist2"/>
  <track hide="video" producer="playlist3"/>
  <filter id="filter3">
   <property name="window">75</property>
   <property name="max_gain">20dB</property>
   <property name="mlt_service">volume</property>
   <property name="internal_added">237</property>
   <property name="disable">1</property>
  </filter>
  <filter id="filter4">
   <property name="channel">-1</property>
   <property name="mlt_service">panner</property>
   <property name="internal_added">237</property>
   <property name="start">0.5</property>
   <property name="disable">1</property>
  </filter>
  <filter id="filter5">
   <property name="iec_scale">0</property>
   <property name="mlt_service">audiolevel</property>
   <property name="dbpeak">1</property>
   <property name="disable">1</property>
  </filter>
 </tractor>
 <playlist id="playlist4">
  <property name="kdenlive:audio_track">1</property>
 </playlist>
 <playlist id="playlist5">
  <property name="kdenlive:audio_track">1</property>
 </playlist>
 <tractor id="tractor2" in="00:00:00.000">
  <property name="kdenlive:audio_track">1</property>
  <property name="kdenlive:trackheight">67</property>
  <property name="kdenlive:timeline_active">1</property>
  <property name="kdenlive:collapsed">0</property>
  <property name="kdenlive:thumbs_format"/>
  <property name="kdenlive:audio_rec"/>
  <track hide="video" producer="playlist4"/>
  <track hide="video" producer="playlist5"/>
  <filter id="filter6">
   <property name="window">75</property>
   <property name="max_gain">20dB</property>
   <property name="mlt_service">volume</property>
   <property name="internal_added">237</property>
   <property name="disable">1</property>
  </filter>
  <filter id="filter7">
   <property name="channel">-1</property>
   <property name="mlt_service">panner</property>
   <property name="internal_added">237</property>
   <property name="start">0.5</property>
   <property name="disable">1</property>
  </filter>
  <filter id="filter8">
   <property name="iec_scale">0</property>
   <property name="mlt_service">audiolevel</property>
   <property name="dbpeak">1</property>
   <property name="disable">1</property>
  </filter>
 </tractor>
 <playlist id="playlist6">
  <property name="kdenlive:audio_track">1</property>
 </playlist>
 <playlist id="playlist7">
  <property name="kdenlive:audio_track">1</property>
 </playlist>
 <tractor id="tractor3" in="00:00:00.000">
  <property name="kdenlive:audio_track">1</property>
  <property name="kdenlive:trackheight">67</property>
  <property name="kdenlive:timeline_active">1</property>
  <property name="kdenlive:collapsed">0</property>
  <property name="kdenlive:thumbs_format"/>
  <property name="kdenlive:audio_rec"/>
  <track hide="video" producer="playlist6"/>
  <track hide="video" producer="playlist7"/>
  <filter id="filter9">
   <property name="window">75</property>
   <property name="max_gain">20dB</property>
   <property name="mlt_service">volume</property>
   <property name="internal_added">237</property>
   <property name="disable">1</property>
  </filter>
  <filter id="filter10">
   <property name="channel">-1</property>
   <property name="mlt_service">panner</property>
   <property name="internal_added">237</property>
   <property name="start">0.5</property>
   <property name="disable">1</property>
  </filter>
  <filter id="filter11">
   <property name="iec_scale">0</property>
   <property name="mlt_service">audiolevel</property>
   <property name="dbpeak">1</property>
   <property name="disable">1</property>
  </filter>
 </tractor>
 <playlist id="playlist8">
  <property name="kdenlive:audio_track">1</property>
 </playlist>
 <playlist id="playlist9">
  <property name="kdenlive:audio_track">1</property>
 </playlist>
 <tractor id="tractor4" in="00:00:00.000">
  <property name="kdenlive:audio_track">1</property>
  <property name="kdenlive:trackheight">67</property>
  <property name="kdenlive:timeline_active">1</property>
  <property name="kdenlive:collapsed">0</property>
  <property name="kdenlive:thumbs_format"/>
  <property name="kdenlive:audio_rec"/>
  <track hide="video" producer="playlist8"/>
  <track hide="video" producer="playlist9"/>
  <filter id="filter12">
   <property name="window">75</property>
   <property name="max_gain">20dB</property>
   <property name="mlt_service">volume</property>
   <property name="internal_added">237</property>
   <property name="disable">1</property>
  </filter>
  <filter id="filter13">
   <property name="channel">-1</property>
   <property name="mlt_service">panner</property>
   <property name="internal_added">237</property>
   <property name="start">0.5</property>
   <property name="disable">1</property>
  </filter>
  <filter id="filter14">
   <property name="iec_scale">0</property>
   <property name="mlt_service">audiolevel</property>
   <property name="dbpeak">1</property>
   <property name="disable">1</property>
  </filter>
 </tractor>
 <chain id="chain0" out="00:02:01.200">
  <property name="length">1819</property>
  <property name="eof">pause</property>
  <property name="resource">/home/schmilly/Downloads/Charli xcx - 365 featuring shygirl (official audio) 4.mp3</property>
  <property name="mlt_service">avformat-novalidate</property>
  <property name="seekable">1</property>
  <property name="format">3</property>
  <property name="audio_index">0</property>
  <property name="video_index">-1</property>
  <property name="astream">0</property>
  <property name="vstream">-1</property>
  <property name="kdenlive:control_uuid">{fc83938c-acdd-4d2c-8e07-ac1856ce759c}</property>
  <property name="kdenlive:id">4</property>
  <property name="kdenlive:clip_type">1</property>
  <property name="kdenlive:file_size">2372722</property>
  <property name="kdenlive:file_hash">751c63c2f3174cc0ef044387f6bc73e8</property>
  <property name="kdenlive:folderid">-1</property>
  <property name="meta.media.nb_streams">2</property>
  <property name="meta.media.0.stream.type">audio</property>
  <property name="meta.media.0.codec.sample_fmt">fltp</property>
  <property name="meta.media.0.codec.sample_rate">48000</property>
  <property name="meta.media.0.codec.channels">2</property>
  <property name="meta.media.0.codec.layout">stereo</property>
  <property name="meta.media.0.codec.name">mp3float</property>
  <property name="meta.media.0.codec.long_name">MP3 (MPEG audio layer 3)</property>
  <property name="meta.media.0.codec.bit_rate">149868</property>
  <property name="meta.attr.0.stream.encoder.markup">Lavc58.13</property>
  <property name="meta.media.1.stream.type">video</property>
  <property name="meta.media.1.stream.frame_rate">90000</property>
  <property name="meta.media.1.stream.sample_aspect_ratio">0</property>
  <property name="meta.media.1.codec.width">1280</property>
  <property name="meta.media.1.codec.height">720</property>
  <property name="meta.media.1.codec.rotate">0</property>
  <property name="meta.media.1.codec.pix_fmt">rgb24</property>
  <property name="meta.media.1.codec.sample_aspect_ratio">0</property>
  <property name="meta.media.1.codec.colorspace">0</property>
  <property name="meta.media.1.codec.name">png</property>
  <property name="meta.media.1.codec.long_name">PNG (Portable Network Graphics) image</property>
  <property name="meta.media.1.codec.bit_rate">0</property>
  <property name="meta.attr.1.stream.title.markup">"Album cover"</property>
  <property name="meta.attr.1.stream.comment.markup">Cover (front)</property>
  <property name="meta.attr.comment.markup">https://www.youtube.com/watch?v=oslpP-s_w4E</property>
  <property name="meta.attr.title.markup">Charli xcx - 365 featuring shygirl (official audio)</property>
  <property name="meta.attr.artist.markup">Charli xcx</property>
  <property name="meta.attr.encoder.markup">Lavf58.76.100</property>
  <property name="meta.attr.description.markup">Charli xcx - 365 featuring shygirl
Stream: https://charlixcx.lnk.to/bratcompletelydifferentID

Order Brat and it's completely different but also still brat: https://charlixcx.lnk.to/StoreID

BRAT out now: https://charlixcx.lnk.to/BRATdlxID
Order BRAT: https://charlixcx.lnk.to/StoreID

Text 1-310-861-2831

https://charlixcx.com/
https://www.tiktok.com/@charlixcx 
https://www.instagram.com/charli_xcx
https://twitter.com/charli_xcx
https://www.youtube.com/@officialcharlixcx
https://facebook.com/charlixcxmusic

#Charlixcx #365 #shygirl #officialaudio</property>
  <property name="meta.attr.synopsis.markup">Charli xcx - 365 featuring shygirl
Stream: https://charlixcx.lnk.to/bratcompletelydifferentID

Order Brat and it's completely different but also still brat: https://charlixcx.lnk.to/StoreID

BRAT out now: https://charlixcx.lnk.to/BRATdlxID
Order BRAT: https://charlixcx.lnk.to/StoreID

Text 1-310-861-2831

https://charlixcx.com/
https://www.tiktok.com/@charlixcx 
https://www.instagram.com/charli_xcx
https://twitter.com/charli_xcx
https://www.youtube.com/@officialcharlixcx
https://facebook.com/charlixcxmusic

#Charlixcx #365 #shygirl #officialaudio</property>
  <property name="meta.attr.purl.markup">https://www.youtube.com/watch?v=oslpP-s_w4E</property>
  <property name="meta.attr.date.markup">2024</property>
  <property name="meta.media.sample_aspect_num">1</property>
  <property name="meta.media.sample_aspect_den">1</property>
  <property name="xml">was here</property>
  <property name="mute_on_pause">0</property>
  <property name="set.test_audio">0</property>
  <property name="set.test_image">1</property>
 </chain>
 <playlist id="playlist10">
  <property name="kdenlive:audio_track">1</property>
  <entry in="00:00:10.267" out="00:00:33.200" producer="chain0">
   <property name="kdenlive:id">4</property>
   <filter id="filter15" in="00:00:10.267" out="00:00:10.733">
    <property name="window">75</property>
    <property name="max_gain">20dB</property>
    <property name="mlt_service">volume</property>
    <property name="kdenlive_id">fadein</property>
    <property name="gain">0</property>
    <property name="end">1</property>
   </filter>
  </entry>
  <entry in="00:01:15.200" out="00:02:01.200" producer="chain0">
   <property name="kdenlive:id">4</property>
  </entry>
 </playlist>
 <playlist id="playlist11">
  <property name="kdenlive:audio_track">1</property>
 </playlist>
 <tractor id="tractor5" in="00:00:00.000" out="00:01:09.000">
  <property name="kdenlive:audio_track">1</property>
  <property name="kdenlive:trackheight">67</property>
  <property name="kdenlive:timeline_active">1</property>
  <property name="kdenlive:collapsed">0</property>
  <property name="kdenlive:thumbs_format"/>
  <property name="kdenlive:audio_rec"/>
  <track hide="video" producer="playlist10"/>
  <track hide="video" producer="playlist11"/>
  <filter id="filter16">
   <property name="window">75</property>
   <property name="max_gain">20dB</property>
   <property name="mlt_service">volume</property>
   <property name="internal_added">237</property>
   <property name="disable">1</property>
  </filter>
  <filter id="filter17">
   <property name="channel">-1</property>
   <property name="mlt_service">panner</property>
   <property name="internal_added">237</property>
   <property name="start">0.5</property>
   <property name="disable">1</property>
  </filter>
  <filter id="filter18">
   <property name="iec_scale">0</property>
   <property name="mlt_service">audiolevel</property>
   <property name="dbpeak">1</property>
   <property name="disable">1</property>
  </filter>
 </tractor>
 <playlist id="playlist12">
  <property name="kdenlive:audio_track">1</property>
 </playlist>
 <playlist id="playlist13">
  <property name="kdenlive:audio_track">1</property>
 </playlist>
 <tractor id="tractor6" in="00:00:00.000">
  <property name="kdenlive:audio_track">1</property>
  <property name="kdenlive:trackheight">67</property>
  <property name="kdenlive:timeline_active">1</property>
  <property name="kdenlive:collapsed">0</property>
  <property name="kdenlive:thumbs_format"/>
  <property name="kdenlive:audio_rec"/>
  <track hide="video" producer="playlist12"/>
  <track hide="video" producer="playlist13"/>
  <filter id="filter19">
   <property name="window">75</property>
   <property name="max_gain">20dB</property>
   <property name="mlt_service">volume</property>
   <property name="internal_added">237</property>
   <property name="disable">1</property>
  </filter>
  <filter id="filter20">
   <property name="channel">-1</property>
   <property name="mlt_service">panner</property>
   <property name="internal_added">237</property>
   <property name="start">0.5</property>
   <property name="disable">1</property>
  </filter>
  <filter id="filter21">
   <property name="iec_scale">0</property>
   <property name="mlt_service">audiolevel</property>
   <property name="dbpeak">1</property>
   <property name="disable">1</property>
  </filter>
 </tractor>
 <producer id="producer1" in="00:00:00.000" out="00:00:04.933">
  <property name="length">00:00:05.000</property>
  <property name="eof">pause</property>
  <property name="resource">0xff0000ff</property>
  <property name="aspect_ratio">1</property>
  <property name="mlt_service">color</property>
  <property name="kdenlive:clipname">Color Clip</property>
  <property name="kdenlive:duration">00:00:05.000</property>
  <property name="xml">was here</property>
  <property name="seekable">1</property>
  <property name="kdenlive:folderid">-1</property>
  <property name="kdenlive:id">16</property>
  <property name="kdenlive:control_uuid">{e46ec023-bf5c-4fb9-8bf9-385786c0ddce}</property>
  <property name="mlt_image_format">rgb</property>
  <property name="kdenlive:clip_type">2</property>
  <property name="kdenlive:file_hash">a4ff63d46e5193b5ac9b230b6a0d11a0</property>
  <property name="kdenlive:monitorPosition">0</property>
 </producer>
 <producer id="producer2" in="00:00:00.000" out="00:00:04.933">
  <property name="length">00:00:05.000</property>
  <property name="eof">pause</property>
  <property name="resource">0x000000ff</property>
  <property name="aspect_ratio">1</property>
  <property name="mlt_service">color</property>
  <property name="kdenlive:clipname">Color Clip</property>
  <property name="kdenlive:duration">00:00:05.000</property>
  <property name="xml">was here</property>
  <property name="seekable">1</property>
  <property name="kdenlive:folderid">-1</property>
  <property name="kdenlive:id">18</property>
  <property name="kdenlive:control_uuid">{489701e8-492a-4982-aaa3-b0b6368e75d6}</property>
  <property name="mlt_image_format">rgb</property>
  <property name="kdenlive:clip_type">2</property>
  <property name="kdenlive:file_hash">9196813120dc5c505072516b15baf414</property>
  <property name="kdenlive:monitorPosition">1</property>
 </producer>
 <producer id="producer3" in="00:00:00.000" out="00:00:04.933">
  <property name="length">00:00:05.000</property>
  <property name="eof">pause</property>
  <property name="resource">0xffffffff</property>
  <property name="aspect_ratio">1</property>
  <property name="mlt_service">color</property>
  <property name="kdenlive:clipname">Color Clip</property>
  <property name="kdenlive:duration">00:00:05.000</property>
  <property name="xml">was here</property>
  <property name="seekable">1</property>
  <property name="kdenlive:folderid">-1</property>
  <property name="kdenlive:id">17</property>
  <property name="kdenlive:control_uuid">{d861e319-3d12-40f6-b94d-9b5e75d8bc95}</property>
  <property name="mlt_image_format">rgb</property>
  <property name="kdenlive:clip_type">2</property>
  <property name="kdenlive:file_hash">039b56a692cd66eefeea44a17539e5a2</property>
  <property name="kdenlive:monitorPosition">30</property>
 </producer>
 <producer id="producer4" in="00:00:00.000" out="00:00:04.933">
  <property name="length">75</property>
  <property name="eof">pause</property>
  <property name="resource"/>
  <property name="meta.media.progressive">1</property>
  <property name="aspect_ratio">1</property>
  <property name="seekable">1</property>
  <property name="mlt_service">kdenlivetitle</property>
  <property name="kdenlive:duration">00:00:05:00</property>
  <property name="kdenlive:clipname">JOIN RAHU</property>
  <property name="xmldata">&lt;kdenlivetitle LC_NUMERIC="C" duration="75" height="1920" out="74" width="1920">
 &lt;item type="QGraphicsTextItem" z-index="0">
  &lt;position x="70" y="191">
   &lt;transform>1,0,0,0,1,0,0,0,1&lt;/transform>
  &lt;/position>
  &lt;content alignment="1" box-height="477" box-width="1801.02" font="Noto Sans" font-color="255,255,255,255" font-italic="0" font-outline="0" font-outline-color="0,0,0,255" font-pixel-size="350" font-underline="0" font-weight="400" letter-spacing="0" line-spacing="0" shadow="0;#64000000;3;3;3" tab-width="80" typewriter="0;2;1;0;0">JOIN RAHU&lt;/content>
 &lt;/item>
 &lt;startviewport rect="0,0,1920,1920"/>
 &lt;endviewport rect="0,0,1920,1920"/>
 &lt;background color="0,0,0,0"/>
&lt;/kdenlivetitle>
</property>
  <property name="xml">was here</property>
  <property name="kdenlive:folderid">28</property>
  <property name="kdenlive:id">25</property>
  <property name="kdenlive:control_uuid">{94b44c98-e3c2-43e8-9ea8-9b89e0a79573}</property>
  <property name="kdenlive:clip_type">2</property>
  <property name="kdenlive:uniqueId">{742f622e-db3c-42c8-a880-48125db58080}</property>
  <property name="kdenlive:file_hash">0910ad976957a3863214421d7d1bd6a2</property>
  <property name="force_reload">0</property>
  <property name="kdenlive:monitorPosition">0</property>
 </producer>
 <playlist id="playlist14">
  <blank length="00:00:01.467"/>
  <entry in="00:00:00.000" out="00:00:00.667" producer="producer1">
   <property name="kdenlive:id">16</property>
  </entry>
  <entry in="00:00:00.000" out="00:00:01.667" producer="producer2">
   <property name="kdenlive:id">18</property>
  </entry>
  <entry in="00:00:00.000" out="00:00:00.800" producer="producer3">
   <property name="kdenlive:id">17</property>
  </entry>
  <blank length="00:00:00.867"/>
  <entry in="00:00:00.000" out="00:00:00.800" producer="producer1">
   <property name="kdenlive:id">16</property>
  </entry>
  <entry in="00:00:00.000" out="00:00:00.800" producer="producer2">
   <property name="kdenlive:id">18</property>
  </entry>
  <blank length="00:00:01.000"/>
  <entry in="00:00:00.000" out="00:00:00.800" producer="producer1">
   <property name="kdenlive:id">16</property>
  </entry>
  <entry in="00:00:00.000" out="00:00:00.800" producer="producer2">
   <property name="kdenlive:id">18</property>
  </entry>
  <blank length="00:00:00.133"/>
  <entry in="00:00:00.000" out="00:00:00.000" producer="producer4">
   <property name="kdenlive:id">25</property>
   <filter id="filter22">
    <property name="rotate_center">1</property>
    <property name="mlt_service">qtblend</property>
    <property name="kdenlive_id">qtblend</property>
    <property name="compositing">0</property>
    <property name="distort">0</property>
    <property name="rect">00:00:00.000=0 1072 1920 1920 1.000000</property>
    <property name="rotation">00:00:00.000=0</property>
    <property name="kdenlive:collapsed">0</property>
   </filter>
  </entry>
  <blank length="00:00:00.267"/>
  <entry in="00:00:00.000" out="00:00:00.000" producer="producer4">
   <property name="kdenlive:id">25</property>
   <filter id="filter23">
    <property name="rotate_center">1</property>
    <property name="mlt_service">qtblend</property>
    <property name="kdenlive_id">qtblend</property>
    <property name="compositing">0</property>
    <property name="distort">0</property>
    <property name="rect">00:00:00.000=0 1072 1920 1920 1.000000</property>
    <property name="rotation">00:00:00.000=0</property>
    <property name="kdenlive:collapsed">0</property>
   </filter>
  </entry>
 </playlist>
 <playlist id="playlist15"/>
 <tractor id="tractor7" in="00:00:00.000" out="00:00:10.600">
  <property name="kdenlive:trackheight">67</property>
  <property name="kdenlive:timeline_active">1</property>
  <property name="kdenlive:collapsed">0</property>
  <property name="kdenlive:thumbs_format"/>
  <property name="kdenlive:audio_rec"/>
  <track hide="audio" producer="playlist14"/>
  <track hide="audio" producer="playlist15"/>
 </tractor>
 <producer id="producer5" in="00:00:00.000" out="00:00:04.933">
  <property name="length">75</property>
  <property name="eof">pause</property>
  <property name="resource"/>
  <property name="meta.media.progressive">1</property>
  <property name="aspect_ratio">1</property>
  <property name="seekable">1</property>
  <property name="mlt_service">kdenlivetitle</property>
  <property name="kdenlive:duration">00:00:05:00</property>
  <property name="kdenlive:clipname">SHIT?</property>
  <property name="xmldata">&lt;kdenlivetitle LC_NUMERIC="C" duration="75" height="1920" out="74" width="1920">
 &lt;item type="QGraphicsTextItem" z-index="0">
  &lt;position x="696" y="823">
   &lt;transform>1,0,0,0,1,0,0,0,1&lt;/transform>
  &lt;/position>
  &lt;content alignment="0" box-height="273" box-width="527.766" font="Noto Sans" font-color="255,255,255,255" font-italic="0" font-pixel-size="200" font-underline="0" font-weight="400" letter-spacing="0" shadow="0;#64000000;3;3;3" tab-width="80" typewriter="0;2;1;0;0">SHIT?&lt;/content>
 &lt;/item>
 &lt;startviewport rect="0,0,1920,1920"/>
 &lt;endviewport rect="0,0,1920,1920"/>
 &lt;background color="0,0,0,0"/>
&lt;/kdenlivetitle>
</property>
  <property name="xml">was here</property>
  <property name="kdenlive:folderid">28</property>
  <property name="kdenlive:id">24</property>
  <property name="kdenlive:control_uuid">{ba3345fd-f651-4cb3-b61d-cbe19236f717}</property>
  <property name="kdenlive:clip_type">2</property>
  <property name="kdenlive:uniqueId">{32a3a95e-0215-46bf-956f-ee409ae2ed30}</property>
  <property name="kdenlive:file_hash">6bea4b3e5167352ea73aa35befaad241</property>
  <property name="force_reload">0</property>
  <property name="kdenlive:monitorPosition">43</property>
 </producer>
 <producer id="producer6" in="00:00:00.000" out="00:00:01.067">
  <property name="length">17</property>
  <property name="eof">pause</property>
  <property name="resource">20.000000:/home/schmilly/Downloads/Rental affordability worst on record, report finds _ ABC NEWS 720-39-58.mp4</property>
  <property name="aspect_ratio">1</property>
  <property name="meta.media.nb_streams">3</property>
  <property name="meta.media.0.stream.type">video</property>
  <property name="meta.media.0.stream.frame_rate">25</property>
  <property name="meta.media.0.stream.sample_aspect_ratio">1</property>
  <property name="meta.media.0.codec.width">1280</property>
  <property name="meta.media.0.codec.height">720</property>
  <property name="meta.media.0.codec.rotate">0</property>
  <property name="meta.media.0.codec.pix_fmt">yuv420p</property>
  <property name="meta.media.0.codec.sample_aspect_ratio">1</property>
  <property name="meta.media.0.codec.colorspace">709</property>
  <property name="meta.media.0.codec.color_trc">1</property>
  <property name="meta.media.0.codec.name">h264</property>
  <property name="meta.media.0.codec.long_name">H.264 / AVC / MPEG-4 AVC / MPEG-4 part 10</property>
  <property name="meta.media.0.codec.bit_rate">532101</property>
  <property name="meta.attr.0.stream.handler_name.markup">ISO Media file produced by Google Inc.</property>
  <property name="meta.attr.0.stream.vendor_id.markup">[0][0][0][0]</property>
  <property name="meta.media.1.stream.type">audio</property>
  <property name="meta.media.1.codec.sample_fmt">fltp</property>
  <property name="meta.media.1.codec.sample_rate">44100</property>
  <property name="meta.media.1.codec.channels">2</property>
  <property name="meta.media.1.codec.layout">stereo</property>
  <property name="meta.media.1.codec.name">aac</property>
  <property name="meta.media.1.codec.long_name">AAC (Advanced Audio Coding)</property>
  <property name="meta.media.1.codec.bit_rate">128075</property>
  <property name="meta.attr.1.stream.language.markup">eng</property>
  <property name="meta.attr.1.stream.handler_name.markup">ISO Media file produced by Google Inc.</property>
  <property name="meta.attr.1.stream.vendor_id.markup">[0][0][0][0]</property>
  <property name="meta.media.2.stream.type">video</property>
  <property name="meta.media.2.stream.frame_rate">90000</property>
  <property name="meta.media.2.stream.sample_aspect_ratio">0</property>
  <property name="meta.media.2.codec.width">1280</property>
  <property name="meta.media.2.codec.height">720</property>
  <property name="meta.media.2.codec.rotate">0</property>
  <property name="meta.media.2.codec.pix_fmt">rgb24</property>
  <property name="meta.media.2.codec.sample_aspect_ratio">0</property>
  <property name="meta.media.2.codec.colorspace">0</property>
  <property name="meta.media.2.codec.name">png</property>
  <property name="meta.media.2.codec.long_name">PNG (Portable Network Graphics) image</property>
  <property name="meta.media.2.codec.bit_rate">0</property>
  <property name="meta.attr.major_brand.markup">isom</property>
  <property name="meta.attr.minor_version.markup">512</property>
  <property name="meta.attr.compatible_brands.markup">isomiso2avc1mp41</property>
  <property name="meta.attr.title.markup">Rental affordability worst on record, report finds | ABC NEWS</property>
  <property name="meta.attr.artist.markup">ABC News (Australia)</property>
  <property name="meta.attr.date.markup">20241122</property>
  <property name="meta.attr.encoder.markup">Lavf61.7.100</property>
  <property name="meta.attr.comment.markup">https://www.youtube.com/watch?v=MPyysf9uJmo</property>
  <property name="meta.attr.description.markup">New data shows that rental affordability has plummeted to new lows across nearly every Australian city and region.
There's now nowhere within budget for single people on JobSeeker benefits, part-time workers on a parenting payment, or those on a pension.

Subscribe: http://ab.co/1svxLVE
Read more here: https://www.abc.net.au/news/2024-11-22/rent-prices-rise-most-unaffordable-in-perth-sydney/104628492

ABC News provides around the clock coverage of news events as they break in Australia and abroad. It's news when you want it, from Australia's most trusted news organisation.

For more from ABC News, click here: https://ab.co/2kxYCZY
Watch more ABC News content ad-free on ABC iview: https://ab.co/2OB7Mk1

Go deeper on our ABC News In-depth channel: https://ab.co/2lNeBn2
Like ABC News on Facebook: http://facebook.com/abcnews.au
Follow ABC News on Instagram: http://instagram.com/abcnews_au
Follow ABC News on X (Twitter): http://twitter.com/abcnews

Note: In most cases, our captions are auto-generated.

#ABCNews #ABCNewsAustralia</property>
  <property name="meta.attr.synopsis.markup">New data shows that rental affordability has plummeted to new lows across nearly every Australian city and region.
There's now nowhere within budget for single people on JobSeeker benefits, part-time workers on a parenting payment, or those on a pension.

Subscribe: http://ab.co/1svxLVE
Read more here: https://www.abc.net.au/news/2024-11-22/rent-prices-rise-most-unaffordable-in-perth-sydney/104628492

ABC News provides around the clock coverage of news events as they break in Australia and abroad. It's news when you want it, from Australia's most trusted news organisation.

For more from ABC News, click here: https://ab.co/2kxYCZY
Watch more ABC News content ad-free on ABC iview: https://ab.co/2OB7Mk1

Go deeper on our ABC News In-depth channel: https://ab.co/2lNeBn2
Like ABC News on Facebook: http://facebook.com/abcnews.au
Follow ABC News on Instagram: http://instagram.com/abcnews_au
Follow ABC News on X (Twitter): http://twitter.com/abcnews

Note: In most cases, our captions are auto-generated.

#ABCNews #ABCNewsAustralia</property>
  <property name="seekable">1</property>
  <property name="meta.media.sample_aspect_num">1</property>
  <property name="meta.media.sample_aspect_den">1</property>
  <property name="format">3</property>
  <property name="audio_index">1</property>
  <property name="video_index">0</property>
  <property name="warp_speed">20</property>
  <property name="warp_resource">/home/schmilly/Downloads/Rental affordability worst on record, report finds _ ABC NEWS 720-39-58.mp4</property>
  <property name="mlt_service">timewarp</property>
  <property name="kdenlive:control_uuid">{e56cc4a7-20aa-482a-b3d8-96f7ed271aa2}</property>
  <property name="vstream">0</property>
  <property name="astream">0</property>
  <property name="set.test_audio">1</property>
  <property name="set.test_image">0</property>
  <property name="kdenlive:id">32</property>
  <property name="warp_pitch">0</property>
 </producer>
 <producer id="producer7" in="00:00:00.000" out="00:00:00.867">
  <property name="length">14</property>
  <property name="eof">pause</property>
  <property name="resource">25.000000:/home/schmilly/Downloads/Rental affordability worst on record, report finds _ ABC NEWS 720-39-58.mp4</property>
  <property name="aspect_ratio">1</property>
  <property name="meta.media.nb_streams">3</property>
  <property name="meta.media.0.stream.type">video</property>
  <property name="meta.media.0.stream.frame_rate">25</property>
  <property name="meta.media.0.stream.sample_aspect_ratio">1</property>
  <property name="meta.media.0.codec.width">1280</property>
  <property name="meta.media.0.codec.height">720</property>
  <property name="meta.media.0.codec.rotate">0</property>
  <property name="meta.media.0.codec.pix_fmt">yuv420p</property>
  <property name="meta.media.0.codec.sample_aspect_ratio">1</property>
  <property name="meta.media.0.codec.colorspace">709</property>
  <property name="meta.media.0.codec.color_trc">1</property>
  <property name="meta.media.0.codec.name">h264</property>
  <property name="meta.media.0.codec.long_name">H.264 / AVC / MPEG-4 AVC / MPEG-4 part 10</property>
  <property name="meta.media.0.codec.bit_rate">532101</property>
  <property name="meta.attr.0.stream.handler_name.markup">ISO Media file produced by Google Inc.</property>
  <property name="meta.attr.0.stream.vendor_id.markup">[0][0][0][0]</property>
  <property name="meta.media.1.stream.type">audio</property>
  <property name="meta.media.1.codec.sample_fmt">fltp</property>
  <property name="meta.media.1.codec.sample_rate">44100</property>
  <property name="meta.media.1.codec.channels">2</property>
  <property name="meta.media.1.codec.layout">stereo</property>
  <property name="meta.media.1.codec.name">aac</property>
  <property name="meta.media.1.codec.long_name">AAC (Advanced Audio Coding)</property>
  <property name="meta.media.1.codec.bit_rate">128075</property>
  <property name="meta.attr.1.stream.language.markup">eng</property>
  <property name="meta.attr.1.stream.handler_name.markup">ISO Media file produced by Google Inc.</property>
  <property name="meta.attr.1.stream.vendor_id.markup">[0][0][0][0]</property>
  <property name="meta.media.2.stream.type">video</property>
  <property name="meta.media.2.stream.frame_rate">90000</property>
  <property name="meta.media.2.stream.sample_aspect_ratio">0</property>
  <property name="meta.media.2.codec.width">1280</property>
  <property name="meta.media.2.codec.height">720</property>
  <property name="meta.media.2.codec.rotate">0</property>
  <property name="meta.media.2.codec.pix_fmt">rgb24</property>
  <property name="meta.media.2.codec.sample_aspect_ratio">0</property>
  <property name="meta.media.2.codec.colorspace">0</property>
  <property name="meta.media.2.codec.name">png</property>
  <property name="meta.media.2.codec.long_name">PNG (Portable Network Graphics) image</property>
  <property name="meta.media.2.codec.bit_rate">0</property>
  <property name="meta.attr.major_brand.markup">isom</property>
  <property name="meta.attr.minor_version.markup">512</property>
  <property name="meta.attr.compatible_brands.markup">isomiso2avc1mp41</property>
  <property name="meta.attr.title.markup">Rental affordability worst on record, report finds | ABC NEWS</property>
  <property name="meta.attr.artist.markup">ABC News (Australia)</property>
  <property name="meta.attr.date.markup">20241122</property>
  <property name="meta.attr.encoder.markup">Lavf61.7.100</property>
  <property name="meta.attr.comment.markup">https://www.youtube.com/watch?v=MPyysf9uJmo</property>
  <property name="meta.attr.description.markup">New data shows that rental affordability has plummeted to new lows across nearly every Australian city and region.
There's now nowhere within budget for single people on JobSeeker benefits, part-time workers on a parenting payment, or those on a pension.

Subscribe: http://ab.co/1svxLVE
Read more here: https://www.abc.net.au/news/2024-11-22/rent-prices-rise-most-unaffordable-in-perth-sydney/104628492

ABC News provides around the clock coverage of news events as they break in Australia and abroad. It's news when you want it, from Australia's most trusted news organisation.

For more from ABC News, click here: https://ab.co/2kxYCZY
Watch more ABC News content ad-free on ABC iview: https://ab.co/2OB7Mk1

Go deeper on our ABC News In-depth channel: https://ab.co/2lNeBn2
Like ABC News on Facebook: http://facebook.com/abcnews.au
Follow ABC News on Instagram: http://instagram.com/abcnews_au
Follow ABC News on X (Twitter): http://twitter.com/abcnews

Note: In most cases, our captions are auto-generated.

#ABCNews #ABCNewsAustralia</property>
  <property name="meta.attr.synopsis.markup">New data shows that rental affordability has plummeted to new lows across nearly every Australian city and region.
There's now nowhere within budget for single people on JobSeeker benefits, part-time workers on a parenting payment, or those on a pension.

Subscribe: http://ab.co/1svxLVE
Read more here: https://www.abc.net.au/news/2024-11-22/rent-prices-rise-most-unaffordable-in-perth-sydney/104628492

ABC News provides around the clock coverage of news events as they break in Australia and abroad. It's news when you want it, from Australia's most trusted news organisation.

For more from ABC News, click here: https://ab.co/2kxYCZY
Watch more ABC News content ad-free on ABC iview: https://ab.co/2OB7Mk1

Go deeper on our ABC News In-depth channel: https://ab.co/2lNeBn2
Like ABC News on Facebook: http://facebook.com/abcnews.au
Follow ABC News on Instagram: http://instagram.com/abcnews_au
Follow ABC News on X (Twitter): http://twitter.com/abcnews

Note: In most cases, our captions are auto-generated.

#ABCNews #ABCNewsAustralia</property>
  <property name="seekable">1</property>
  <property name="meta.media.sample_aspect_num">1</property>
  <property name="meta.media.sample_aspect_den">1</property>
  <property name="format">3</property>
  <property name="audio_index">1</property>
  <property name="video_index">0</property>
  <property name="warp_speed">25</property>
  <property name="warp_resource">/home/schmilly/Downloads/Rental affordability worst on record, report finds _ ABC NEWS 720-39-58.mp4</property>
  <property name="mlt_service">timewarp</property>
  <property name="kdenlive:control_uuid">{e56cc4a7-20aa-482a-b3d8-96f7ed271aa2}</property>
  <property name="vstream">0</property>
  <property name="astream">0</property>
  <property name="set.test_audio">1</property>
  <property name="set.test_image">0</property>
  <property name="kdenlive:id">32</property>
  <property name="warp_pitch">0</property>
 </producer>
 <playlist id="playlist16">
  <blank length="00:00:04.800"/>
  <entry in="00:00:00.000" out="00:00:00.800" producer="producer2">
   <property name="kdenlive:id">18</property>
  </entry>
  <entry in="00:00:00.000" out="00:00:00.800" producer="producer5">
   <property name="kdenlive:id">24</property>
   <filter id="filter24">
    <property name="rotate_center">1</property>
    <property name="mlt_service">qtblend</property>
    <property name="kdenlive_id">qtblend</property>
    <property name="compositing">0</property>
    <property name="distort">1</property>
    <property name="rect">00:00:00.000=-719 -3033 2414 7170 1.000000</property>
    <property name="rotation">00:00:00.000=0</property>
    <property name="kdenlive:collapsed">0</property>
   </filter>
  </entry>
  <entry in="00:00:00.000" out="00:00:00.400" producer="producer6">
   <property name="kdenlive:id">32</property>
  </entry>
  <entry in="00:00:00.533" out="00:00:00.867" producer="producer7">
   <property name="kdenlive:id">32</property>
  </entry>
  <entry in="00:00:00.000" out="00:00:00.933" producer="producer3">
   <property name="kdenlive:id">17</property>
  </entry>
  <blank length="00:00:01.867"/>
  <entry in="00:00:00.000" out="00:00:00.000" producer="producer4">
   <property name="kdenlive:id">25</property>
   <filter id="filter25">
    <property name="rotate_center">1</property>
    <property name="mlt_service">qtblend</property>
    <property name="kdenlive_id">qtblend</property>
    <property name="compositing">0</property>
    <property name="distort">0</property>
    <property name="rect">00:00:00.000=0 712 1920 1920 1.000000</property>
    <property name="rotation">00:00:00.000=0</property>
    <property name="kdenlive:collapsed">0</property>
   </filter>
  </entry>
  <blank length="00:00:00.200"/>
  <entry in="00:00:00.000" out="00:00:00.067" producer="producer4">
   <property name="kdenlive:id">25</property>
   <filter id="filter26">
    <property name="rotate_center">1</property>
    <property name="mlt_service">qtblend</property>
    <property name="kdenlive_id">qtblend</property>
    <property name="compositing">0</property>
    <property name="distort">0</property>
    <property name="rect">00:00:00.000=0 712 1920 1920 1.000000</property>
    <property name="rotation">00:00:00.000=0</property>
    <property name="kdenlive:collapsed">0</property>
   </filter>
  </entry>
 </playlist>
 <playlist id="playlist17"/>
 <tractor id="tractor8" in="00:00:00.000" out="00:00:10.600">
  <property name="kdenlive:trackheight">67</property>
  <property name="kdenlive:timeline_active">1</property>
  <property name="kdenlive:collapsed">0</property>
  <property name="kdenlive:thumbs_format"/>
  <property name="kdenlive:audio_rec"/>
  <track hide="audio" producer="playlist16"/>
  <track hide="audio" producer="playlist17"/>
 </tractor>
 <producer id="producer8" in="00:00:00.000" out="00:00:03.200">
  <property name="length">49</property>
  <property name="eof">pause</property>
  <property name="resource">5.180130:/home/schmilly/Downloads/Rental affordability in Australia the worst it's ever been, report says _ ABC News 720-41-54.mp4</property>
  <property name="aspect_ratio">1</property>
  <property name="meta.media.nb_streams">3</property>
  <property name="meta.media.0.stream.type">video</property>
  <property name="meta.media.0.stream.frame_rate">25</property>
  <property name="meta.media.0.stream.sample_aspect_ratio">1</property>
  <property name="meta.media.0.codec.width">1280</property>
  <property name="meta.media.0.codec.height">720</property>
  <property name="meta.media.0.codec.rotate">0</property>
  <property name="meta.media.0.codec.pix_fmt">yuv420p</property>
  <property name="meta.media.0.codec.sample_aspect_ratio">1</property>
  <property name="meta.media.0.codec.colorspace">709</property>
  <property name="meta.media.0.codec.color_trc">1</property>
  <property name="meta.media.0.codec.name">h264</property>
  <property name="meta.media.0.codec.long_name">H.264 / AVC / MPEG-4 AVC / MPEG-4 part 10</property>
  <property name="meta.media.0.codec.bit_rate">439489</property>
  <property name="meta.attr.0.stream.handler_name.markup">ISO Media file produced by Google Inc.</property>
  <property name="meta.attr.0.stream.vendor_id.markup">[0][0][0][0]</property>
  <property name="meta.media.1.stream.type">audio</property>
  <property name="meta.media.1.codec.sample_fmt">fltp</property>
  <property name="meta.media.1.codec.sample_rate">44100</property>
  <property name="meta.media.1.codec.channels">2</property>
  <property name="meta.media.1.codec.layout">stereo</property>
  <property name="meta.media.1.codec.name">aac</property>
  <property name="meta.media.1.codec.long_name">AAC (Advanced Audio Coding)</property>
  <property name="meta.media.1.codec.bit_rate">128050</property>
  <property name="meta.attr.1.stream.language.markup">eng</property>
  <property name="meta.attr.1.stream.handler_name.markup">ISO Media file produced by Google Inc.</property>
  <property name="meta.attr.1.stream.vendor_id.markup">[0][0][0][0]</property>
  <property name="meta.media.2.stream.type">video</property>
  <property name="meta.media.2.stream.frame_rate">90000</property>
  <property name="meta.media.2.stream.sample_aspect_ratio">0</property>
  <property name="meta.media.2.codec.width">1280</property>
  <property name="meta.media.2.codec.height">720</property>
  <property name="meta.media.2.codec.rotate">0</property>
  <property name="meta.media.2.codec.pix_fmt">rgb24</property>
  <property name="meta.media.2.codec.sample_aspect_ratio">0</property>
  <property name="meta.media.2.codec.colorspace">0</property>
  <property name="meta.media.2.codec.name">png</property>
  <property name="meta.media.2.codec.long_name">PNG (Portable Network Graphics) image</property>
  <property name="meta.media.2.codec.bit_rate">0</property>
  <property name="meta.attr.major_brand.markup">isom</property>
  <property name="meta.attr.minor_version.markup">512</property>
  <property name="meta.attr.compatible_brands.markup">isomiso2avc1mp41</property>
  <property name="meta.attr.title.markup">Rental affordability in Australia the worst it's ever been, report says | ABC News</property>
  <property name="meta.attr.artist.markup">ABC News (Australia)</property>
  <property name="meta.attr.date.markup">20240423</property>
  <property name="meta.attr.encoder.markup">Lavf61.7.100</property>
  <property name="meta.attr.comment.markup">https://www.youtube.com/watch?v=hliaf_8My40</property>
  <property name="meta.attr.description.markup">There is not a single property across Australia – or even a room in a shared house – that's affordable for someone on youth allowance, according to a new report from support organisation Anglicare Australia.

Subscribe: http://ab.co/1svxLVE
Read more here: https://www.abc.net.au/news/2024-04-23/anglicare-australia-rental-affordability-report/103754274

ABC News provides around the clock coverage of news events as they break in Australia and abroad. It's news when you want it, from Australia's most trusted news organisation.

For more from ABC News, click here: https://ab.co/2kxYCZY
Watch more ABC News content ad-free on ABC iview: https://ab.co/2OB7Mk1

Go deeper on our ABC News In-depth channel: https://ab.co/2lNeBn2
Like ABC News on Facebook: http://facebook.com/abcnews.au
Follow ABC News on Instagram: http://instagram.com/abcnews_au
Follow ABC News on Twitter: http://twitter.com/abcnews

Note: In most cases, our captions are auto-generated.

#ABCNews #ABCNewsAustralia #housing #housingcrisis #rentalproperty</property>
  <property name="meta.attr.synopsis.markup">There is not a single property across Australia – or even a room in a shared house – that's affordable for someone on youth allowance, according to a new report from support organisation Anglicare Australia.

Subscribe: http://ab.co/1svxLVE
Read more here: https://www.abc.net.au/news/2024-04-23/anglicare-australia-rental-affordability-report/103754274

ABC News provides around the clock coverage of news events as they break in Australia and abroad. It's news when you want it, from Australia's most trusted news organisation.

For more from ABC News, click here: https://ab.co/2kxYCZY
Watch more ABC News content ad-free on ABC iview: https://ab.co/2OB7Mk1

Go deeper on our ABC News In-depth channel: https://ab.co/2lNeBn2
Like ABC News on Facebook: http://facebook.com/abcnews.au
Follow ABC News on Instagram: http://instagram.com/abcnews_au
Follow ABC News on Twitter: http://twitter.com/abcnews

Note: In most cases, our captions are auto-generated.

#ABCNews #ABCNewsAustralia #housing #housingcrisis #rentalproperty</property>
  <property name="seekable">1</property>
  <property name="meta.media.sample_aspect_num">1</property>
  <property name="meta.media.sample_aspect_den">1</property>
  <property name="format">3</property>
  <property name="audio_index">1</property>
  <property name="video_index">0</property>
  <property name="warp_speed">5.18013</property>
  <property name="warp_resource">/home/schmilly/Downloads/Rental affordability in Australia the worst it's ever been, report says _ ABC News 720-41-54.mp4</property>
  <property name="mlt_service">timewarp</property>
  <property name="kdenlive:control_uuid">{21c05f38-c3ec-47ca-991d-ac2f245e4397}</property>
  <property name="vstream">0</property>
  <property name="astream">0</property>
  <property name="set.test_audio">1</property>
  <property name="set.test_image">0</property>
  <property name="kdenlive:id">14</property>
  <property name="warp_pitch">0</property>
 </producer>
 <producer id="producer9" in="00:00:00.000" out="00:00:01.333">
  <property name="length">21</property>
  <property name="eof">pause</property>
  <property name="resource">10.000000:/home/schmilly/Downloads/Rent affordability in South Australia has plummeted to its lowest level on record _ 7 News Australia 720-0-13.mp4</property>
  <property name="aspect_ratio">1</property>
  <property name="meta.media.nb_streams">3</property>
  <property name="meta.media.0.stream.type">video</property>
  <property name="meta.media.0.stream.frame_rate">25</property>
  <property name="meta.media.0.stream.sample_aspect_ratio">1</property>
  <property name="meta.media.0.codec.width">1280</property>
  <property name="meta.media.0.codec.height">720</property>
  <property name="meta.media.0.codec.rotate">0</property>
  <property name="meta.media.0.codec.pix_fmt">yuv420p</property>
  <property name="meta.media.0.codec.sample_aspect_ratio">1</property>
  <property name="meta.media.0.codec.colorspace">709</property>
  <property name="meta.media.0.codec.color_trc">1</property>
  <property name="meta.media.0.codec.name">h264</property>
  <property name="meta.media.0.codec.long_name">H.264 / AVC / MPEG-4 AVC / MPEG-4 part 10</property>
  <property name="meta.media.0.codec.bit_rate">1136783</property>
  <property name="meta.attr.0.stream.handler_name.markup">ISO Media file produced by Google Inc.</property>
  <property name="meta.attr.0.stream.vendor_id.markup">[0][0][0][0]</property>
  <property name="meta.media.1.stream.type">audio</property>
  <property name="meta.media.1.codec.sample_fmt">fltp</property>
  <property name="meta.media.1.codec.sample_rate">44100</property>
  <property name="meta.media.1.codec.channels">2</property>
  <property name="meta.media.1.codec.layout">stereo</property>
  <property name="meta.media.1.codec.name">aac</property>
  <property name="meta.media.1.codec.long_name">AAC (Advanced Audio Coding)</property>
  <property name="meta.media.1.codec.bit_rate">128117</property>
  <property name="meta.attr.1.stream.handler_name.markup">ISO Media file produced by Google Inc.</property>
  <property name="meta.attr.1.stream.vendor_id.markup">[0][0][0][0]</property>
  <property name="meta.media.2.stream.type">video</property>
  <property name="meta.media.2.stream.frame_rate">90000</property>
  <property name="meta.media.2.stream.sample_aspect_ratio">0</property>
  <property name="meta.media.2.codec.width">1280</property>
  <property name="meta.media.2.codec.height">720</property>
  <property name="meta.media.2.codec.rotate">0</property>
  <property name="meta.media.2.codec.pix_fmt">rgb24</property>
  <property name="meta.media.2.codec.sample_aspect_ratio">0</property>
  <property name="meta.media.2.codec.colorspace">0</property>
  <property name="meta.media.2.codec.name">png</property>
  <property name="meta.media.2.codec.long_name">PNG (Portable Network Graphics) image</property>
  <property name="meta.media.2.codec.bit_rate">0</property>
  <property name="meta.attr.major_brand.markup">isom</property>
  <property name="meta.attr.minor_version.markup">512</property>
  <property name="meta.attr.compatible_brands.markup">isomiso2avc1mp41</property>
  <property name="meta.attr.title.markup">Rent affordability in South Australia has plummeted to its lowest level on record | 7 News Australia</property>
  <property name="meta.attr.artist.markup">7NEWS Australia</property>
  <property name="meta.attr.date.markup">20240309</property>
  <property name="meta.attr.encoder.markup">Lavf61.7.100</property>
  <property name="meta.attr.comment.markup">https://www.youtube.com/watch?v=mdLjT8tPbFE</property>
  <property name="meta.attr.description.markup">If you are struggling to afford a rental, here is why - affordability in South Australia has plummeted to its lowest level on record.

A new report has found most advertised properties are out of reach for a family with an average income.

Subscribe and set 🔔 » https://7news.link/YTSubscribe | 



For the latest Australian news and breaking news alerts, connect with 7NEWS online:
Visit » https://7news.com.au
7NEWS Podcast » http://smarturl.it/7NewsDaily
Facebook » https://www.facebook.com/7NewsAustralia
Twitter » https://twitter.com/7NewsAustralia
Instagram » https://www.instagram.com/7newsaustralia/ 

7NEWS combines the trusted and powerful news brands including Sunrise, The Morning Show, The Latest, and 7NEWS.com.au, delivering unique, engaging and continuous coverage on the issues that matter most to Australians. Watch 7 News Australia full broadcasts and full episodes nightly at 6pm and weekdays at 11:30am and 4pm on Channel 7 and 7plus.

#BREAKINGNEWS #7NEWS</property>
  <property name="meta.attr.synopsis.markup">If you are struggling to afford a rental, here is why - affordability in South Australia has plummeted to its lowest level on record.

A new report has found most advertised properties are out of reach for a family with an average income.

Subscribe and set 🔔 » https://7news.link/YTSubscribe | 



For the latest Australian news and breaking news alerts, connect with 7NEWS online:
Visit » https://7news.com.au
7NEWS Podcast » http://smarturl.it/7NewsDaily
Facebook » https://www.facebook.com/7NewsAustralia
Twitter » https://twitter.com/7NewsAustralia
Instagram » https://www.instagram.com/7newsaustralia/ 

7NEWS combines the trusted and powerful news brands including Sunrise, The Morning Show, The Latest, and 7NEWS.com.au, delivering unique, engaging and continuous coverage on the issues that matter most to Australians. Watch 7 News Australia full broadcasts and full episodes nightly at 6pm and weekdays at 11:30am and 4pm on Channel 7 and 7plus.

#BREAKINGNEWS #7NEWS</property>
  <property name="seekable">1</property>
  <property name="meta.media.sample_aspect_num">1</property>
  <property name="meta.media.sample_aspect_den">1</property>
  <property name="format">3</property>
  <property name="audio_index">1</property>
  <property name="video_index">0</property>
  <property name="warp_speed">10</property>
  <property name="warp_resource">/home/schmilly/Downloads/Rent affordability in South Australia has plummeted to its lowest level on record _ 7 News Australia 720-0-13.mp4</property>
  <property name="mlt_service">timewarp</property>
  <property name="kdenlive:control_uuid">{f9d019d9-a9e1-44ad-a835-fb73d943a12f}</property>
  <property name="vstream">0</property>
  <property name="astream">0</property>
  <property name="set.test_audio">1</property>
  <property name="set.test_image">0</property>
  <property name="kdenlive:id">23</property>
  <property name="warp_pitch">0</property>
 </producer>
 <playlist id="playlist18">
  <blank length="00:00:00.467"/>
  <entry in="00:00:00.000" out="00:00:00.933" producer="producer8">
   <property name="kdenlive:id">14</property>
  </entry>
  <blank length="00:00:03.333"/>
  <entry in="00:00:00.000" out="00:00:00.800" producer="producer9">
   <property name="kdenlive:id">23</property>
  </entry>
  <blank length="00:00:04.533"/>
  <entry in="00:00:00.000" out="00:00:00.067" producer="producer4">
   <property name="kdenlive:id">25</property>
  </entry>
  <blank length="00:00:00.133"/>
  <entry in="00:00:00.000" out="00:00:00.133" producer="producer4">
   <property name="kdenlive:id">25</property>
  </entry>
 </playlist>
 <playlist id="playlist19"/>
 <tractor id="tractor9" in="00:00:00.000" out="00:00:10.600">
  <property name="kdenlive:trackheight">67</property>
  <property name="kdenlive:timeline_active">1</property>
  <property name="kdenlive:collapsed">0</property>
  <property name="kdenlive:thumbs_format"/>
  <property name="kdenlive:audio_rec"/>
  <track hide="audio" producer="playlist18"/>
  <track hide="audio" producer="playlist19"/>
 </tractor>
 <producer id="producer10" in="00:00:00.000" out="00:00:04.933">
  <property name="length">75</property>
  <property name="eof">pause</property>
  <property name="resource"/>
  <property name="meta.media.progressive">1</property>
  <property name="aspect_ratio">1</property>
  <property name="seekable">1</property>
  <property name="mlt_service">kdenlivetitle</property>
  <property name="kdenlive:duration">00:00:05:00</property>
  <property name="kdenlive:clipname">RENTER'S AND...</property>
  <property name="xmldata">&lt;kdenlivetitle LC_NUMERIC="C" duration="75" height="1920" out="74" width="1920">
 &lt;item type="QGraphicsTextItem" z-index="0">
  &lt;position x="375" y="490">
   &lt;transform>1,0,0,0,1,0,0,0,1&lt;/transform>
  &lt;/position>
  &lt;content alignment="1" box-height="681" box-width="1401.5" font="Noto Sans" font-color="0,0,0,255" font-italic="0" font-outline="0" font-outline-color="0,0,0,255" font-pixel-size="500" font-underline="0" font-weight="400" letter-spacing="0" line-spacing="0" shadow="0;#64000000;3;3;3" tab-width="80" typewriter="0;2;1;0;0">TIRED&lt;/content>
 &lt;/item>
 &lt;startviewport rect="0,0,1920,1920"/>
 &lt;endviewport rect="0,0,1920,1920"/>
 &lt;background color="0,0,0,0"/>
&lt;/kdenlivetitle>
</property>
  <property name="xml">was here</property>
  <property name="kdenlive:folderid">28</property>
  <property name="kdenlive:id">19</property>
  <property name="kdenlive:control_uuid">{a2f797ef-598d-4582-aa58-3671346dfe88}</property>
  <property name="kdenlive:clip_type">2</property>
  <property name="kdenlive:uniqueId">{3142276d-08f0-47b6-86d9-a440c35d9cc5}</property>
  <property name="kdenlive:file_hash">25c79d2c60a2105e64c4d3c2cfe5ded9</property>
  <property name="force_reload">0</property>
  <property name="kdenlive:monitorPosition">11</property>
 </producer>
 <producer id="producer11" in="00:00:00.000" out="00:00:07.867">
  <property name="length">119</property>
  <property name="eof">pause</property>
  <property name="resource">5.000000:/home/schmilly/Downloads/Snapinsta.app_video_AQOQuqFCeDSXydP-CaryKzl5sOIpkmAUJLetswJaKp_pol64P4qjbZcu-xpRnpt34wN5SEljOGhs-3Zn11pszoo8c5rqdEfaRijXHnQ.mp4</property>
  <property name="aspect_ratio">1</property>
  <property name="meta.media.nb_streams">2</property>
  <property name="meta.media.0.stream.type">video</property>
  <property name="meta.media.0.stream.frame_rate">30</property>
  <property name="meta.media.0.stream.sample_aspect_ratio">0</property>
  <property name="meta.media.0.codec.width">720</property>
  <property name="meta.media.0.codec.height">1280</property>
  <property name="meta.media.0.codec.rotate">0</property>
  <property name="meta.media.0.codec.pix_fmt">yuv420p</property>
  <property name="meta.media.0.codec.sample_aspect_ratio">0</property>
  <property name="meta.media.0.codec.colorspace">709</property>
  <property name="meta.media.0.codec.color_trc">1</property>
  <property name="meta.media.0.codec.name">h264</property>
  <property name="meta.media.0.codec.long_name">H.264 / AVC / MPEG-4 AVC / MPEG-4 part 10</property>
  <property name="meta.media.0.codec.bit_rate">2125767</property>
  <property name="meta.attr.0.stream.handler_name.markup">VideoHandler</property>
  <property name="meta.attr.0.stream.vendor_id.markup">[0][0][0][0]</property>
  <property name="meta.attr.0.stream.encoder.markup">AVC Coding</property>
  <property name="meta.media.1.stream.type">audio</property>
  <property name="meta.media.1.codec.sample_fmt">fltp</property>
  <property name="meta.media.1.codec.sample_rate">44100</property>
  <property name="meta.media.1.codec.channels">2</property>
  <property name="meta.media.1.codec.layout">stereo</property>
  <property name="meta.media.1.codec.name">aac</property>
  <property name="meta.media.1.codec.long_name">AAC (Advanced Audio Coding)</property>
  <property name="meta.media.1.codec.bit_rate">44600</property>
  <property name="meta.attr.1.stream.handler_name.markup">SoundHandler</property>
  <property name="meta.attr.1.stream.vendor_id.markup">[0][0][0][0]</property>
  <property name="meta.attr.major_brand.markup">isom</property>
  <property name="meta.attr.minor_version.markup">512</property>
  <property name="meta.attr.compatible_brands.markup">isomiso2avc1mp41</property>
  <property name="seekable">1</property>
  <property name="meta.media.sample_aspect_num">1</property>
  <property name="meta.media.sample_aspect_den">1</property>
  <property name="format">3</property>
  <property name="audio_index">1</property>
  <property name="video_index">0</property>
  <property name="warp_speed">5</property>
  <property name="warp_resource">/home/schmilly/Downloads/Snapinsta.app_video_AQOQuqFCeDSXydP-CaryKzl5sOIpkmAUJLetswJaKp_pol64P4qjbZcu-xpRnpt34wN5SEljOGhs-3Zn11pszoo8c5rqdEfaRijXHnQ.mp4</property>
  <property name="mlt_service">timewarp</property>
  <property name="kdenlive:control_uuid">{50130ab3-3c43-47dd-a4bb-317e55c84979}</property>
  <property name="vstream">0</property>
  <property name="astream">0</property>
  <property name="set.test_audio">1</property>
  <property name="set.test_image">0</property>
  <property name="kdenlive:id">5</property>
  <property name="warp_pitch">0</property>
  <property name="meta.media.frame_rate_num">30</property>
  <property name="meta.media.frame_rate_den">1</property>
  <property name="meta.media.colorspace">709</property>
  <property name="meta.media.color_trc">1</property>
  <property name="meta.media.has_b_frames">2</property>
  <property name="meta.media.width">720</property>
  <property name="meta.media.height">1280</property>
  <property name="meta.media.aspect_ratio">1</property>
  <property name="meta.media.color_range">mpeg</property>
  <property name="meta.media.top_field_first">0</property>
  <property name="meta.media.progressive">1</property>
 </producer>
 <playlist id="playlist20">
  <blank length="00:00:01.467"/>
  <entry in="00:00:00.000" out="00:00:00.667" producer="producer10">
   <property name="kdenlive:id">19</property>
   <filter id="filter27">
    <property name="mlt_service">invert</property>
    <property name="kdenlive_id">invert</property>
   </filter>
  </entry>
  <blank length="00:00:08.667"/>
  <entry in="00:00:00.000" out="00:00:00.867" producer="producer11">
   <property name="kdenlive:id">5</property>
   <filter id="filter28">
    <property name="rotate_center">1</property>
    <property name="mlt_service">qtblend</property>
    <property name="kdenlive_id">qtblend</property>
    <property name="compositing">0</property>
    <property name="distort">0</property>
    <property name="rect">00:00:00.000=-852 -435 3676 3676 1.000000</property>
    <property name="rotation">00:00:00.000=0</property>
    <property name="kdenlive:collapsed">0</property>
   </filter>
  </entry>
 </playlist>
 <playlist id="playlist21"/>
 <tractor id="tractor10" in="00:00:00.000" out="00:00:11.733">
  <property name="kdenlive:trackheight">67</property>
  <property name="kdenlive:timeline_active">1</property>
  <property name="kdenlive:collapsed">0</property>
  <property name="kdenlive:thumbs_format"/>
  <property name="kdenlive:audio_rec"/>
  <track hide="audio" producer="playlist20"/>
  <track hide="audio" producer="playlist21"/>
 </tractor>
 <producer id="producer12" in="00:00:00.000" out="00:00:04.467">
  <property name="length">67</property>
  <property name="eof">pause</property>
  <property name="resource">3.750000:/home/schmilly/Downloads/Rental affordability in Australia the worst it's ever been, report says _ ABC News 720-41-54.mp4</property>
  <property name="aspect_ratio">1</property>
  <property name="meta.media.nb_streams">3</property>
  <property name="meta.media.0.stream.type">video</property>
  <property name="meta.media.0.stream.frame_rate">25</property>
  <property name="meta.media.0.stream.sample_aspect_ratio">1</property>
  <property name="meta.media.0.codec.width">1280</property>
  <property name="meta.media.0.codec.height">720</property>
  <property name="meta.media.0.codec.rotate">0</property>
  <property name="meta.media.0.codec.pix_fmt">yuv420p</property>
  <property name="meta.media.0.codec.sample_aspect_ratio">1</property>
  <property name="meta.media.0.codec.colorspace">709</property>
  <property name="meta.media.0.codec.color_trc">1</property>
  <property name="meta.media.0.codec.name">h264</property>
  <property name="meta.media.0.codec.long_name">H.264 / AVC / MPEG-4 AVC / MPEG-4 part 10</property>
  <property name="meta.media.0.codec.bit_rate">439489</property>
  <property name="meta.attr.0.stream.handler_name.markup">ISO Media file produced by Google Inc.</property>
  <property name="meta.attr.0.stream.vendor_id.markup">[0][0][0][0]</property>
  <property name="meta.media.1.stream.type">audio</property>
  <property name="meta.media.1.codec.sample_fmt">fltp</property>
  <property name="meta.media.1.codec.sample_rate">44100</property>
  <property name="meta.media.1.codec.channels">2</property>
  <property name="meta.media.1.codec.layout">stereo</property>
  <property name="meta.media.1.codec.name">aac</property>
  <property name="meta.media.1.codec.long_name">AAC (Advanced Audio Coding)</property>
  <property name="meta.media.1.codec.bit_rate">128050</property>
  <property name="meta.attr.1.stream.language.markup">eng</property>
  <property name="meta.attr.1.stream.handler_name.markup">ISO Media file produced by Google Inc.</property>
  <property name="meta.attr.1.stream.vendor_id.markup">[0][0][0][0]</property>
  <property name="meta.media.2.stream.type">video</property>
  <property name="meta.media.2.stream.frame_rate">90000</property>
  <property name="meta.media.2.stream.sample_aspect_ratio">0</property>
  <property name="meta.media.2.codec.width">1280</property>
  <property name="meta.media.2.codec.height">720</property>
  <property name="meta.media.2.codec.rotate">0</property>
  <property name="meta.media.2.codec.pix_fmt">rgb24</property>
  <property name="meta.media.2.codec.sample_aspect_ratio">0</property>
  <property name="meta.media.2.codec.colorspace">0</property>
  <property name="meta.media.2.codec.name">png</property>
  <property name="meta.media.2.codec.long_name">PNG (Portable Network Graphics) image</property>
  <property name="meta.media.2.codec.bit_rate">0</property>
  <property name="meta.attr.major_brand.markup">isom</property>
  <property name="meta.attr.minor_version.markup">512</property>
  <property name="meta.attr.compatible_brands.markup">isomiso2avc1mp41</property>
  <property name="meta.attr.title.markup">Rental affordability in Australia the worst it's ever been, report says | ABC News</property>
  <property name="meta.attr.artist.markup">ABC News (Australia)</property>
  <property name="meta.attr.date.markup">20240423</property>
  <property name="meta.attr.encoder.markup">Lavf61.7.100</property>
  <property name="meta.attr.comment.markup">https://www.youtube.com/watch?v=hliaf_8My40</property>
  <property name="meta.attr.description.markup">There is not a single property across Australia – or even a room in a shared house – that's affordable for someone on youth allowance, according to a new report from support organisation Anglicare Australia.

Subscribe: http://ab.co/1svxLVE
Read more here: https://www.abc.net.au/news/2024-04-23/anglicare-australia-rental-affordability-report/103754274

ABC News provides around the clock coverage of news events as they break in Australia and abroad. It's news when you want it, from Australia's most trusted news organisation.

For more from ABC News, click here: https://ab.co/2kxYCZY
Watch more ABC News content ad-free on ABC iview: https://ab.co/2OB7Mk1

Go deeper on our ABC News In-depth channel: https://ab.co/2lNeBn2
Like ABC News on Facebook: http://facebook.com/abcnews.au
Follow ABC News on Instagram: http://instagram.com/abcnews_au
Follow ABC News on Twitter: http://twitter.com/abcnews

Note: In most cases, our captions are auto-generated.

#ABCNews #ABCNewsAustralia #housing #housingcrisis #rentalproperty</property>
  <property name="meta.attr.synopsis.markup">There is not a single property across Australia – or even a room in a shared house – that's affordable for someone on youth allowance, according to a new report from support organisation Anglicare Australia.

Subscribe: http://ab.co/1svxLVE
Read more here: https://www.abc.net.au/news/2024-04-23/anglicare-australia-rental-affordability-report/103754274

ABC News provides around the clock coverage of news events as they break in Australia and abroad. It's news when you want it, from Australia's most trusted news organisation.

For more from ABC News, click here: https://ab.co/2kxYCZY
Watch more ABC News content ad-free on ABC iview: https://ab.co/2OB7Mk1

Go deeper on our ABC News In-depth channel: https://ab.co/2lNeBn2
Like ABC News on Facebook: http://facebook.com/abcnews.au
Follow ABC News on Instagram: http://instagram.com/abcnews_au
Follow ABC News on Twitter: http://twitter.com/abcnews

Note: In most cases, our captions are auto-generated.

#ABCNews #ABCNewsAustralia #housing #housingcrisis #rentalproperty</property>
  <property name="seekable">1</property>
  <property name="meta.media.sample_aspect_num">1</property>
  <property name="meta.media.sample_aspect_den">1</property>
  <property name="format">3</property>
  <property name="audio_index">1</property>
  <property name="video_index">0</property>
  <property name="warp_speed">3.75</property>
  <property name="warp_resource">/home/schmilly/Downloads/Rental affordability in Australia the worst it's ever been, report says _ ABC News 720-41-54.mp4</property>
  <property name="mlt_service">timewarp</property>
  <property name="kdenlive:control_uuid">{21c05f38-c3ec-47ca-991d-ac2f245e4397}</property>
  <property name="vstream">0</property>
  <property name="astream">0</property>
  <property name="set.test_audio">1</property>
  <property name="set.test_image">0</property>
  <property name="kdenlive:id">14</property>
  <property name="warp_pitch">0</property>
 </producer>
 <producer id="producer13" in="00:00:00.000" out="00:00:10.867">
  <property name="length">163</property>
  <property name="eof">pause</property>
  <property name="resource">1.550000:/home/schmilly/Downloads/Rental affordability in Australia the worst it's ever been, report says _ ABC News 720-41-54.mp4</property>
  <property name="aspect_ratio">1</property>
  <property name="meta.media.nb_streams">3</property>
  <property name="meta.media.0.stream.type">video</property>
  <property name="meta.media.0.stream.frame_rate">25</property>
  <property name="meta.media.0.stream.sample_aspect_ratio">1</property>
  <property name="meta.media.0.codec.width">1280</property>
  <property name="meta.media.0.codec.height">720</property>
  <property name="meta.media.0.codec.rotate">0</property>
  <property name="meta.media.0.codec.pix_fmt">yuv420p</property>
  <property name="meta.media.0.codec.sample_aspect_ratio">1</property>
  <property name="meta.media.0.codec.colorspace">709</property>
  <property name="meta.media.0.codec.color_trc">1</property>
  <property name="meta.media.0.codec.name">h264</property>
  <property name="meta.media.0.codec.long_name">H.264 / AVC / MPEG-4 AVC / MPEG-4 part 10</property>
  <property name="meta.media.0.codec.bit_rate">439489</property>
  <property name="meta.attr.0.stream.handler_name.markup">ISO Media file produced by Google Inc.</property>
  <property name="meta.attr.0.stream.vendor_id.markup">[0][0][0][0]</property>
  <property name="meta.media.1.stream.type">audio</property>
  <property name="meta.media.1.codec.sample_fmt">fltp</property>
  <property name="meta.media.1.codec.sample_rate">44100</property>
  <property name="meta.media.1.codec.channels">2</property>
  <property name="meta.media.1.codec.layout">stereo</property>
  <property name="meta.media.1.codec.name">aac</property>
  <property name="meta.media.1.codec.long_name">AAC (Advanced Audio Coding)</property>
  <property name="meta.media.1.codec.bit_rate">128050</property>
  <property name="meta.attr.1.stream.language.markup">eng</property>
  <property name="meta.attr.1.stream.handler_name.markup">ISO Media file produced by Google Inc.</property>
  <property name="meta.attr.1.stream.vendor_id.markup">[0][0][0][0]</property>
  <property name="meta.media.2.stream.type">video</property>
  <property name="meta.media.2.stream.frame_rate">90000</property>
  <property name="meta.media.2.stream.sample_aspect_ratio">0</property>
  <property name="meta.media.2.codec.width">1280</property>
  <property name="meta.media.2.codec.height">720</property>
  <property name="meta.media.2.codec.rotate">0</property>
  <property name="meta.media.2.codec.pix_fmt">rgb24</property>
  <property name="meta.media.2.codec.sample_aspect_ratio">0</property>
  <property name="meta.media.2.codec.colorspace">0</property>
  <property name="meta.media.2.codec.name">png</property>
  <property name="meta.media.2.codec.long_name">PNG (Portable Network Graphics) image</property>
  <property name="meta.media.2.codec.bit_rate">0</property>
  <property name="meta.attr.major_brand.markup">isom</property>
  <property name="meta.attr.minor_version.markup">512</property>
  <property name="meta.attr.compatible_brands.markup">isomiso2avc1mp41</property>
  <property name="meta.attr.title.markup">Rental affordability in Australia the worst it's ever been, report says | ABC News</property>
  <property name="meta.attr.artist.markup">ABC News (Australia)</property>
  <property name="meta.attr.date.markup">20240423</property>
  <property name="meta.attr.encoder.markup">Lavf61.7.100</property>
  <property name="meta.attr.comment.markup">https://www.youtube.com/watch?v=hliaf_8My40</property>
  <property name="meta.attr.description.markup">There is not a single property across Australia – or even a room in a shared house – that's affordable for someone on youth allowance, according to a new report from support organisation Anglicare Australia.

Subscribe: http://ab.co/1svxLVE
Read more here: https://www.abc.net.au/news/2024-04-23/anglicare-australia-rental-affordability-report/103754274

ABC News provides around the clock coverage of news events as they break in Australia and abroad. It's news when you want it, from Australia's most trusted news organisation.

For more from ABC News, click here: https://ab.co/2kxYCZY
Watch more ABC News content ad-free on ABC iview: https://ab.co/2OB7Mk1

Go deeper on our ABC News In-depth channel: https://ab.co/2lNeBn2
Like ABC News on Facebook: http://facebook.com/abcnews.au
Follow ABC News on Instagram: http://instagram.com/abcnews_au
Follow ABC News on Twitter: http://twitter.com/abcnews

Note: In most cases, our captions are auto-generated.

#ABCNews #ABCNewsAustralia #housing #housingcrisis #rentalproperty</property>
  <property name="meta.attr.synopsis.markup">There is not a single property across Australia – or even a room in a shared house – that's affordable for someone on youth allowance, according to a new report from support organisation Anglicare Australia.

Subscribe: http://ab.co/1svxLVE
Read more here: https://www.abc.net.au/news/2024-04-23/anglicare-australia-rental-affordability-report/103754274

ABC News provides around the clock coverage of news events as they break in Australia and abroad. It's news when you want it, from Australia's most trusted news organisation.

For more from ABC News, click here: https://ab.co/2kxYCZY
Watch more ABC News content ad-free on ABC iview: https://ab.co/2OB7Mk1

Go deeper on our ABC News In-depth channel: https://ab.co/2lNeBn2
Like ABC News on Facebook: http://facebook.com/abcnews.au
Follow ABC News on Instagram: http://instagram.com/abcnews_au
Follow ABC News on Twitter: http://twitter.com/abcnews

Note: In most cases, our captions are auto-generated.

#ABCNews #ABCNewsAustralia #housing #housingcrisis #rentalproperty</property>
  <property name="seekable">1</property>
  <property name="meta.media.sample_aspect_num">1</property>
  <property name="meta.media.sample_aspect_den">1</property>
  <property name="format">3</property>
  <property name="audio_index">1</property>
  <property name="video_index">0</property>
  <property name="warp_speed">1.55</property>
  <property name="warp_resource">/home/schmilly/Downloads/Rental affordability in Australia the worst it's ever been, report says _ ABC News 720-41-54.mp4</property>
  <property name="mlt_service">timewarp</property>
  <property name="kdenlive:control_uuid">{21c05f38-c3ec-47ca-991d-ac2f245e4397}</property>
  <property name="vstream">0</property>
  <property name="astream">0</property>
  <property name="set.test_audio">1</property>
  <property name="set.test_image">0</property>
  <property name="kdenlive:id">14</property>
  <property name="warp_pitch">0</property>
 </producer>
 <producer id="producer14" in="00:00:00.000" out="00:00:04.933">
  <property name="length">75</property>
  <property name="eof">pause</property>
  <property name="resource"/>
  <property name="meta.media.progressive">1</property>
  <property name="aspect_ratio">1</property>
  <property name="seekable">1</property>
  <property name="mlt_service">kdenlivetitle</property>
  <property name="kdenlive:duration">00:00:05:00</property>
  <property name="kdenlive:clipname">FIGHTING BAC...</property>
  <property name="xmldata">&lt;kdenlivetitle LC_NUMERIC="C" duration="75" height="1920" out="74" width="1920">
 &lt;item type="QGraphicsTextItem" z-index="0">
  &lt;position x="655" y="900">
   &lt;transform>1,0,0,0,1,0,0,0,1&lt;/transform>
  &lt;/position>
  &lt;content alignment="1" box-height="273" box-width="748.953" font="Noto Sans" font-color="255,255,255,255" font-italic="0" font-outline="0" font-outline-color="0,0,0,255" font-pixel-size="200" font-underline="0" font-weight="400" letter-spacing="0" line-spacing="0" shadow="0;#64000000;3;3;3" tab-width="80" typewriter="0;2;1;0;0">OF THIS&lt;/content>
 &lt;/item>
 &lt;startviewport rect="0,0,1920,1920"/>
 &lt;endviewport rect="0,0,1920,1920"/>
 &lt;background color="0,0,0,0"/>
&lt;/kdenlivetitle>
</property>
  <property name="xml">was here</property>
  <property name="kdenlive:folderid">28</property>
  <property name="kdenlive:id">20</property>
  <property name="kdenlive:control_uuid">{2a5c677a-8518-4db3-849f-951d58b42e50}</property>
  <property name="kdenlive:clip_type">2</property>
  <property name="kdenlive:uniqueId">{51503e38-623b-4564-b4dc-1f3953267192}</property>
  <property name="kdenlive:file_hash">0d98a39fe4ff98a48b375634735e05b7</property>
  <property name="force_reload">0</property>
  <property name="kdenlive:monitorPosition">0</property>
 </producer>
 <producer id="producer15" in="00:00:00.000" out="00:00:04.933">
  <property name="length">75</property>
  <property name="eof">pause</property>
  <property name="resource"/>
  <property name="meta.media.progressive">1</property>
  <property name="aspect_ratio">1</property>
  <property name="seekable">1</property>
  <property name="mlt_service">kdenlivetitle</property>
  <property name="kdenlive:duration">00:00:05:00</property>
  <property name="kdenlive:clipname">Action</property>
  <property name="xmldata">&lt;kdenlivetitle LC_NUMERIC="C" duration="75" height="1920" out="74" width="1920">
 &lt;item type="QGraphicsTextItem" z-index="0">
  &lt;position x="368" y="1404">
   &lt;transform>1,0,0,0,1,0,0,0,1&lt;/transform>
  &lt;/position>
  &lt;content alignment="0" box-height="477" box-width="1036.3" font="Noto Sans" font-color="255,255,255,255" font-italic="0" font-outline="0" font-outline-color="0,0,0,255" font-pixel-size="350" font-underline="0" font-weight="400" letter-spacing="0" shadow="0;#64000000;3;3;3" tab-width="80" typewriter="0;2;1;0;0">Action&lt;/content>
 &lt;/item>
 &lt;startviewport rect="0,0,1920,1920"/>
 &lt;endviewport rect="0,0,1920,1920"/>
 &lt;background color="0,0,0,0"/>
&lt;/kdenlivetitle>
</property>
  <property name="xml">was here</property>
  <property name="kdenlive:folderid">28</property>
  <property name="kdenlive:id">29</property>
  <property name="kdenlive:control_uuid">{b248c3f2-ecf4-4164-97e0-55ab0719e2c9}</property>
  <property name="kdenlive:clip_type">2</property>
  <property name="kdenlive:uniqueId">{4ef462c7-1a68-4e21-86e7-c166997058e0}</property>
  <property name="kdenlive:file_hash">f182dd9cf3d60e68c3479cf8abe10744</property>
  <property name="force_reload">0</property>
  <property name="kdenlive:monitorPosition">0</property>
 </producer>
 <producer id="producer16" in="00:00:00.000" out="00:00:04.933">
  <property name="length">00:00:05.000</property>
  <property name="eof">pause</property>
  <property name="resource">/home/schmilly/Downloads/Snapinsta.app_468702793_560566690191334_4641456314431050045_n_1080.jpg</property>
  <property name="ttl">25</property>
  <property name="aspect_ratio">1</property>
  <property name="meta.media.progressive">1</property>
  <property name="seekable">1</property>
  <property name="format">1</property>
  <property name="meta.media.width">1080</property>
  <property name="meta.media.height">1350</property>
  <property name="mlt_service">qimage</property>
  <property name="kdenlive:duration">00:00:05.000</property>
  <property name="xml">was here</property>
  <property name="kdenlive:folderid">-1</property>
  <property name="kdenlive:id">40</property>
  <property name="kdenlive:control_uuid">{b313b7f6-ed1d-45b9-8b04-7165744930e0}</property>
  <property name="kdenlive:clip_type">2</property>
  <property name="kdenlive:file_size">125071</property>
  <property name="kdenlive:file_hash">92b274e083d8930507f93ca11a1411e5</property>
  <property name="kdenlive:monitorPosition">0</property>
 </producer>
 <playlist id="playlist22">
  <blank length="00:00:02.200"/>
  <entry in="00:00:02.400" out="00:00:02.600" producer="producer12">
   <property name="kdenlive:id">14</property>
  </entry>
  <entry in="00:00:08.533" out="00:00:09.933" producer="producer13">
   <property name="kdenlive:id">14</property>
  </entry>
  <entry in="00:00:00.000" out="00:00:00.800" producer="producer14">
   <property name="kdenlive:id">20</property>
   <filter id="filter29">
    <property name="mlt_service">invert</property>
    <property name="kdenlive_id">invert</property>
    <property name="kdenlive:collapsed">0</property>
   </filter>
  </entry>
  <blank length="00:00:04.467"/>
  <entry in="00:00:00.000" out="00:00:00.800" producer="producer15">
   <property name="kdenlive:id">29</property>
  </entry>
  <blank length="00:00:00.133"/>
  <entry in="00:00:00.000" out="00:00:00.000" producer="producer4">
   <property name="kdenlive:id">25</property>
   <filter id="filter30">
    <property name="rotate_center">1</property>
    <property name="mlt_service">qtblend</property>
    <property name="kdenlive_id">qtblend</property>
    <property name="compositing">0</property>
    <property name="distort">0</property>
    <property name="rect">00:00:00.000=0 -296 1920 1920 1.000000</property>
    <property name="rotation">00:00:00.000=0</property>
    <property name="kdenlive:collapsed">0</property>
   </filter>
  </entry>
  <blank length="00:00:00.200"/>
  <entry in="00:00:00.000" out="00:00:00.067" producer="producer4">
   <property name="kdenlive:id">25</property>
   <filter id="filter31">
    <property name="rotate_center">1</property>
    <property name="mlt_service">qtblend</property>
    <property name="kdenlive_id">qtblend</property>
    <property name="compositing">0</property>
    <property name="distort">0</property>
    <property name="rect">00:00:00.000=0 -296 1920 1920 1.000000</property>
    <property name="rotation">00:00:00.000=0</property>
    <property name="kdenlive:collapsed">0</property>
   </filter>
  </entry>
  <blank length="00:00:08.667"/>
  <entry in="00:00:00.000" out="00:00:00.067" producer="producer16">
   <property name="kdenlive:id">40</property>
   <filter id="filter32">
    <property name="rotate_center">1</property>
    <property name="mlt_service">qtblend</property>
    <property name="kdenlive_id">qtblend</property>
    <property name="compositing">0</property>
    <property name="distort">0</property>
    <property name="rect">00:00:00.000=-294 6 1920 1920 1.000000</property>
    <property name="rotation">00:00:00.000=0</property>
    <property name="kdenlive:collapsed">0</property>
   </filter>
  </entry>
 </playlist>
 <playlist id="playlist23"/>
 <tractor id="tractor11" in="00:00:00.000" out="00:00:19.400">
  <property name="kdenlive:trackheight">67</property>
  <property name="kdenlive:timeline_active">1</property>
  <property name="kdenlive:collapsed">0</property>
  <property name="kdenlive:thumbs_format"/>
  <property name="kdenlive:audio_rec"/>
  <track hide="audio" producer="playlist22"/>
  <track hide="audio" producer="playlist23"/>
 </tractor>
 <producer id="producer17" in="00:00:00.000" out="00:00:04.933">
  <property name="length">75</property>
  <property name="eof">pause</property>
  <property name="resource"/>
  <property name="meta.media.progressive">1</property>
  <property name="aspect_ratio">1</property>
  <property name="seekable">1</property>
  <property name="mlt_service">kdenlivetitle</property>
  <property name="kdenlive:duration">00:00:05:00</property>
  <property name="kdenlive:clipname">Organised</property>
  <property name="xmldata">&lt;kdenlivetitle LC_NUMERIC="C" duration="75" height="1920" out="74" width="1920">
 &lt;item type="QGraphicsTextItem" z-index="0">
  &lt;position x="96" y="801">
   &lt;transform>1,0,0,0,1,0,0,0,1&lt;/transform>
  &lt;/position>
  &lt;content alignment="0" box-height="477" box-width="1712.83" font="Noto Sans" font-color="255,255,255,255" font-italic="0" font-outline="0" font-outline-color="0,0,0,255" font-pixel-size="350" font-underline="0" font-weight="400" letter-spacing="0" shadow="0;#64000000;3;3;3" tab-width="80" typewriter="0;2;1;0;0">Organised&lt;/content>
 &lt;/item>
 &lt;startviewport rect="0,0,1920,1920"/>
 &lt;endviewport rect="0,0,1920,1920"/>
 &lt;background color="0,0,0,0"/>
&lt;/kdenlivetitle>
</property>
  <property name="xml">was here</property>
  <property name="kdenlive:folderid">28</property>
  <property name="kdenlive:id">26</property>
  <property name="kdenlive:control_uuid">{8e8b2d77-a8bb-46cb-92d8-d5e99453faeb}</property>
  <property name="kdenlive:clip_type">2</property>
  <property name="kdenlive:uniqueId">{85bce351-0696-4a90-9ad2-f0d1d37a222d}</property>
  <property name="kdenlive:file_hash">0b6af78daec7213fabf785eaf90113a1</property>
  <property name="force_reload">0</property>
  <property name="kdenlive:monitorPosition">0</property>
 </producer>
 <chain id="chain1" out="00:00:11.000">
  <property name="length">166</property>
  <property name="eof">pause</property>
  <property name="resource">/home/schmilly/Downloads/Snapinsta.app_video_AQOOsAVmPv3qtzSJ44Z-cmU6PK2_7l4ar1HYQkLJ85NdbwWHzHSUAWU9W001DMl1SSfFQzODfS1jghRk9ZVTVdySVALBZBBN4jfZo64-69-76.mp4</property>
  <property name="mlt_service">avformat-novalidate</property>
  <property name="seekable">1</property>
  <property name="format">3</property>
  <property name="audio_index">1</property>
  <property name="video_index">0</property>
  <property name="vstream">0</property>
  <property name="astream">0</property>
  <property name="kdenlive:control_uuid">{701ca0c4-388b-46b0-b06a-3d84463b3ac9}</property>
  <property name="kdenlive:id">12</property>
  <property name="kdenlive:clip_type">0</property>
  <property name="kdenlive:file_size">1059174</property>
  <property name="kdenlive:file_hash">3b669e6708b1f7bfc81fdf47e1691c50</property>
  <property name="kdenlive:folderid">-1</property>
  <property name="meta.media.nb_streams">2</property>
  <property name="meta.media.0.stream.type">video</property>
  <property name="meta.media.0.stream.frame_rate">30</property>
  <property name="meta.media.0.stream.sample_aspect_ratio">0</property>
  <property name="meta.media.0.codec.width">720</property>
  <property name="meta.media.0.codec.height">1280</property>
  <property name="meta.media.0.codec.rotate">0</property>
  <property name="meta.media.0.codec.pix_fmt">yuv420p</property>
  <property name="meta.media.0.codec.sample_aspect_ratio">0</property>
  <property name="meta.media.0.codec.colorspace">709</property>
  <property name="meta.media.0.codec.color_trc">1</property>
  <property name="meta.media.0.codec.name">h264</property>
  <property name="meta.media.0.codec.long_name">H.264 / AVC / MPEG-4 AVC / MPEG-4 part 10</property>
  <property name="meta.media.0.codec.bit_rate">719840</property>
  <property name="meta.attr.0.stream.handler_name.markup">VideoHandler</property>
  <property name="meta.attr.0.stream.vendor_id.markup">[0][0][0][0]</property>
  <property name="meta.attr.0.stream.encoder.markup">AVC Coding</property>
  <property name="meta.media.1.stream.type">audio</property>
  <property name="meta.media.1.codec.sample_fmt">fltp</property>
  <property name="meta.media.1.codec.sample_rate">44100</property>
  <property name="meta.media.1.codec.channels">2</property>
  <property name="meta.media.1.codec.layout">stereo</property>
  <property name="meta.media.1.codec.name">aac</property>
  <property name="meta.media.1.codec.long_name">AAC (Advanced Audio Coding)</property>
  <property name="meta.media.1.codec.bit_rate">51196</property>
  <property name="meta.attr.1.stream.handler_name.markup">SoundHandler</property>
  <property name="meta.attr.1.stream.vendor_id.markup">[0][0][0][0]</property>
  <property name="meta.attr.major_brand.markup">isom</property>
  <property name="meta.attr.minor_version.markup">512</property>
  <property name="meta.attr.compatible_brands.markup">isomiso2avc1mp41</property>
  <property name="meta.attr.encoder.markup">Lavf61.7.100</property>
  <property name="meta.media.sample_aspect_num">1</property>
  <property name="meta.media.sample_aspect_den">1</property>
  <property name="meta.media.frame_rate_num">30</property>
  <property name="meta.media.frame_rate_den">1</property>
  <property name="meta.media.colorspace">709</property>
  <property name="meta.media.color_trc">1</property>
  <property name="meta.media.has_b_frames">2</property>
  <property name="meta.media.width">720</property>
  <property name="meta.media.height">1280</property>
  <property name="meta.media.aspect_ratio">1</property>
  <property name="meta.media.color_range">mpeg</property>
  <property name="xml">was here</property>
  <property name="mute_on_pause">0</property>
  <property name="meta.media.top_field_first">0</property>
  <property name="meta.media.progressive">1</property>
  <property name="set.test_audio">1</property>
  <property name="set.test_image">0</property>
 </chain>
 <producer id="producer18" in="00:00:00.000" out="00:01:14.933">
  <property name="length">1125</property>
  <property name="eof">pause</property>
  <property name="resource">1.500000:/home/schmilly/Downloads/Snapinsta.app_video_AQN_aOj9Z9cVqWd2t-0apPQvxI41SmquY7ZoMtebjN9RI7HXMyQo2keM-Nl1oGgvNj3KBQLqQlh5WMtY3aIhDyHPtSG5yoODnFEsYEQ.mp4</property>
  <property name="aspect_ratio">1</property>
  <property name="meta.media.nb_streams">2</property>
  <property name="meta.media.0.stream.type">video</property>
  <property name="meta.media.0.stream.frame_rate">30</property>
  <property name="meta.media.0.stream.sample_aspect_ratio">0</property>
  <property name="meta.media.0.codec.width">720</property>
  <property name="meta.media.0.codec.height">1280</property>
  <property name="meta.media.0.codec.rotate">0</property>
  <property name="meta.media.0.codec.pix_fmt">yuv420p</property>
  <property name="meta.media.0.codec.sample_aspect_ratio">0</property>
  <property name="meta.media.0.codec.colorspace">709</property>
  <property name="meta.media.0.codec.color_trc">1</property>
  <property name="meta.media.0.codec.name">h264</property>
  <property name="meta.media.0.codec.long_name">H.264 / AVC / MPEG-4 AVC / MPEG-4 part 10</property>
  <property name="meta.media.0.codec.bit_rate">2533744</property>
  <property name="meta.attr.0.stream.handler_name.markup">VideoHandler</property>
  <property name="meta.attr.0.stream.vendor_id.markup">[0][0][0][0]</property>
  <property name="meta.attr.0.stream.encoder.markup">AVC Coding</property>
  <property name="meta.media.1.stream.type">audio</property>
  <property name="meta.media.1.codec.sample_fmt">fltp</property>
  <property name="meta.media.1.codec.sample_rate">44100</property>
  <property name="meta.media.1.codec.channels">2</property>
  <property name="meta.media.1.codec.layout">stereo</property>
  <property name="meta.media.1.codec.name">aac</property>
  <property name="meta.media.1.codec.long_name">AAC (Advanced Audio Coding)</property>
  <property name="meta.media.1.codec.bit_rate">87450</property>
  <property name="meta.attr.1.stream.handler_name.markup">SoundHandler</property>
  <property name="meta.attr.1.stream.vendor_id.markup">[0][0][0][0]</property>
  <property name="meta.attr.major_brand.markup">isom</property>
  <property name="meta.attr.minor_version.markup">512</property>
  <property name="meta.attr.compatible_brands.markup">isomiso2avc1mp41</property>
  <property name="seekable">1</property>
  <property name="meta.media.sample_aspect_num">1</property>
  <property name="meta.media.sample_aspect_den">1</property>
  <property name="format">3</property>
  <property name="audio_index">1</property>
  <property name="video_index">0</property>
  <property name="warp_speed">1.5</property>
  <property name="warp_resource">/home/schmilly/Downloads/Snapinsta.app_video_AQN_aOj9Z9cVqWd2t-0apPQvxI41SmquY7ZoMtebjN9RI7HXMyQo2keM-Nl1oGgvNj3KBQLqQlh5WMtY3aIhDyHPtSG5yoODnFEsYEQ.mp4</property>
  <property name="mlt_service">timewarp</property>
  <property name="kdenlive:control_uuid">{66d5305f-da2b-43fd-aeee-a8c8dbafe24c}</property>
  <property name="vstream">0</property>
  <property name="astream">0</property>
  <property name="set.test_audio">1</property>
  <property name="set.test_image">0</property>
  <property name="kdenlive:id">6</property>
  <property name="warp_pitch">0</property>
  <property name="meta.media.frame_rate_num">30</property>
  <property name="meta.media.frame_rate_den">1</property>
  <property name="meta.media.colorspace">709</property>
  <property name="meta.media.color_trc">1</property>
  <property name="meta.media.has_b_frames">2</property>
  <property name="meta.media.width">720</property>
  <property name="meta.media.height">1280</property>
  <property name="meta.media.aspect_ratio">1</property>
  <property name="meta.media.color_range">mpeg</property>
  <property name="meta.media.top_field_first">0</property>
  <property name="meta.media.progressive">1</property>
 </producer>
 <producer id="producer19" in="00:00:00.000" out="00:01:14.933">
  <property name="length">1125</property>
  <property name="eof">pause</property>
  <property name="resource">1.500000:/home/schmilly/Downloads/Snapinsta.app_video_AQN_aOj9Z9cVqWd2t-0apPQvxI41SmquY7ZoMtebjN9RI7HXMyQo2keM-Nl1oGgvNj3KBQLqQlh5WMtY3aIhDyHPtSG5yoODnFEsYEQ.mp4</property>
  <property name="aspect_ratio">1</property>
  <property name="meta.media.nb_streams">2</property>
  <property name="meta.media.0.stream.type">video</property>
  <property name="meta.media.0.stream.frame_rate">30</property>
  <property name="meta.media.0.stream.sample_aspect_ratio">0</property>
  <property name="meta.media.0.codec.width">720</property>
  <property name="meta.media.0.codec.height">1280</property>
  <property name="meta.media.0.codec.rotate">0</property>
  <property name="meta.media.0.codec.pix_fmt">yuv420p</property>
  <property name="meta.media.0.codec.sample_aspect_ratio">0</property>
  <property name="meta.media.0.codec.colorspace">709</property>
  <property name="meta.media.0.codec.color_trc">1</property>
  <property name="meta.media.0.codec.name">h264</property>
  <property name="meta.media.0.codec.long_name">H.264 / AVC / MPEG-4 AVC / MPEG-4 part 10</property>
  <property name="meta.media.0.codec.bit_rate">2533744</property>
  <property name="meta.attr.0.stream.handler_name.markup">VideoHandler</property>
  <property name="meta.attr.0.stream.vendor_id.markup">[0][0][0][0]</property>
  <property name="meta.attr.0.stream.encoder.markup">AVC Coding</property>
  <property name="meta.media.1.stream.type">audio</property>
  <property name="meta.media.1.codec.sample_fmt">fltp</property>
  <property name="meta.media.1.codec.sample_rate">44100</property>
  <property name="meta.media.1.codec.channels">2</property>
  <property name="meta.media.1.codec.layout">stereo</property>
  <property name="meta.media.1.codec.name">aac</property>
  <property name="meta.media.1.codec.long_name">AAC (Advanced Audio Coding)</property>
  <property name="meta.media.1.codec.bit_rate">87450</property>
  <property name="meta.attr.1.stream.handler_name.markup">SoundHandler</property>
  <property name="meta.attr.1.stream.vendor_id.markup">[0][0][0][0]</property>
  <property name="meta.attr.major_brand.markup">isom</property>
  <property name="meta.attr.minor_version.markup">512</property>
  <property name="meta.attr.compatible_brands.markup">isomiso2avc1mp41</property>
  <property name="seekable">1</property>
  <property name="meta.media.sample_aspect_num">1</property>
  <property name="meta.media.sample_aspect_den">1</property>
  <property name="format">3</property>
  <property name="audio_index">1</property>
  <property name="video_index">0</property>
  <property name="warp_speed">1.5</property>
  <property name="warp_resource">/home/schmilly/Downloads/Snapinsta.app_video_AQN_aOj9Z9cVqWd2t-0apPQvxI41SmquY7ZoMtebjN9RI7HXMyQo2keM-Nl1oGgvNj3KBQLqQlh5WMtY3aIhDyHPtSG5yoODnFEsYEQ.mp4</property>
  <property name="mlt_service">timewarp</property>
  <property name="kdenlive:control_uuid">{66d5305f-da2b-43fd-aeee-a8c8dbafe24c}</property>
  <property name="vstream">0</property>
  <property name="astream">0</property>
  <property name="set.test_audio">1</property>
  <property name="set.test_image">0</property>
  <property name="kdenlive:id">6</property>
  <property name="warp_pitch">0</property>
 </producer>
 <producer id="producer20" in="00:00:00.000" out="00:01:14.933">
  <property name="length">1125</property>
  <property name="eof">pause</property>
  <property name="resource">1.500000:/home/schmilly/Downloads/Snapinsta.app_video_AQN_aOj9Z9cVqWd2t-0apPQvxI41SmquY7ZoMtebjN9RI7HXMyQo2keM-Nl1oGgvNj3KBQLqQlh5WMtY3aIhDyHPtSG5yoODnFEsYEQ.mp4</property>
  <property name="aspect_ratio">1</property>
  <property name="meta.media.nb_streams">2</property>
  <property name="meta.media.0.stream.type">video</property>
  <property name="meta.media.0.stream.frame_rate">30</property>
  <property name="meta.media.0.stream.sample_aspect_ratio">0</property>
  <property name="meta.media.0.codec.width">720</property>
  <property name="meta.media.0.codec.height">1280</property>
  <property name="meta.media.0.codec.rotate">0</property>
  <property name="meta.media.0.codec.pix_fmt">yuv420p</property>
  <property name="meta.media.0.codec.sample_aspect_ratio">0</property>
  <property name="meta.media.0.codec.colorspace">709</property>
  <property name="meta.media.0.codec.color_trc">1</property>
  <property name="meta.media.0.codec.name">h264</property>
  <property name="meta.media.0.codec.long_name">H.264 / AVC / MPEG-4 AVC / MPEG-4 part 10</property>
  <property name="meta.media.0.codec.bit_rate">2533744</property>
  <property name="meta.attr.0.stream.handler_name.markup">VideoHandler</property>
  <property name="meta.attr.0.stream.vendor_id.markup">[0][0][0][0]</property>
  <property name="meta.attr.0.stream.encoder.markup">AVC Coding</property>
  <property name="meta.media.1.stream.type">audio</property>
  <property name="meta.media.1.codec.sample_fmt">fltp</property>
  <property name="meta.media.1.codec.sample_rate">44100</property>
  <property name="meta.media.1.codec.channels">2</property>
  <property name="meta.media.1.codec.layout">stereo</property>
  <property name="meta.media.1.codec.name">aac</property>
  <property name="meta.media.1.codec.long_name">AAC (Advanced Audio Coding)</property>
  <property name="meta.media.1.codec.bit_rate">87450</property>
  <property name="meta.attr.1.stream.handler_name.markup">SoundHandler</property>
  <property name="meta.attr.1.stream.vendor_id.markup">[0][0][0][0]</property>
  <property name="meta.attr.major_brand.markup">isom</property>
  <property name="meta.attr.minor_version.markup">512</property>
  <property name="meta.attr.compatible_brands.markup">isomiso2avc1mp41</property>
  <property name="seekable">1</property>
  <property name="meta.media.sample_aspect_num">1</property>
  <property name="meta.media.sample_aspect_den">1</property>
  <property name="format">3</property>
  <property name="audio_index">1</property>
  <property name="video_index">0</property>
  <property name="warp_speed">1.5</property>
  <property name="warp_resource">/home/schmilly/Downloads/Snapinsta.app_video_AQN_aOj9Z9cVqWd2t-0apPQvxI41SmquY7ZoMtebjN9RI7HXMyQo2keM-Nl1oGgvNj3KBQLqQlh5WMtY3aIhDyHPtSG5yoODnFEsYEQ.mp4</property>
  <property name="mlt_service">timewarp</property>
  <property name="kdenlive:control_uuid">{66d5305f-da2b-43fd-aeee-a8c8dbafe24c}</property>
  <property name="vstream">0</property>
  <property name="astream">0</property>
  <property name="set.test_audio">1</property>
  <property name="set.test_image">0</property>
  <property name="kdenlive:id">6</property>
  <property name="warp_pitch">0</property>
 </producer>
 <producer id="producer21" in="00:00:00.000" out="00:02:05.467">
  <property name="length">1884</property>
  <property name="eof">pause</property>
  <property name="resource">2.000000:/home/schmilly/Downloads/Snapinsta.app_video_AQM1KdYbIIdOkdcbdaCILpkWffSeNNOs_VrNQ4_RhOGJQgHfDhw6LFQd_8h4s15np9TyXp34iYqgWxPugsPOpFXWVsLoLxGvWtgpyI8.mp4</property>
  <property name="aspect_ratio">1</property>
  <property name="meta.media.nb_streams">2</property>
  <property name="meta.media.0.stream.type">video</property>
  <property name="meta.media.0.stream.frame_rate">30</property>
  <property name="meta.media.0.stream.sample_aspect_ratio">0</property>
  <property name="meta.media.0.codec.width">720</property>
  <property name="meta.media.0.codec.height">1280</property>
  <property name="meta.media.0.codec.rotate">0</property>
  <property name="meta.media.0.codec.pix_fmt">yuv420p</property>
  <property name="meta.media.0.codec.sample_aspect_ratio">0</property>
  <property name="meta.media.0.codec.colorspace">709</property>
  <property name="meta.media.0.codec.color_trc">1</property>
  <property name="meta.media.0.codec.name">h264</property>
  <property name="meta.media.0.codec.long_name">H.264 / AVC / MPEG-4 AVC / MPEG-4 part 10</property>
  <property name="meta.media.0.codec.bit_rate">952853</property>
  <property name="meta.attr.0.stream.handler_name.markup">VideoHandler</property>
  <property name="meta.attr.0.stream.vendor_id.markup">[0][0][0][0]</property>
  <property name="meta.attr.0.stream.encoder.markup">AVC Coding</property>
  <property name="meta.media.1.stream.type">audio</property>
  <property name="meta.media.1.codec.sample_fmt">fltp</property>
  <property name="meta.media.1.codec.sample_rate">44100</property>
  <property name="meta.media.1.codec.channels">2</property>
  <property name="meta.media.1.codec.layout">stereo</property>
  <property name="meta.media.1.codec.name">aac</property>
  <property name="meta.media.1.codec.long_name">AAC (Advanced Audio Coding)</property>
  <property name="meta.media.1.codec.bit_rate">51707</property>
  <property name="meta.attr.1.stream.handler_name.markup">SoundHandler</property>
  <property name="meta.attr.1.stream.vendor_id.markup">[0][0][0][0]</property>
  <property name="meta.attr.major_brand.markup">isom</property>
  <property name="meta.attr.minor_version.markup">512</property>
  <property name="meta.attr.compatible_brands.markup">isomiso2avc1mp41</property>
  <property name="seekable">1</property>
  <property name="meta.media.sample_aspect_num">1</property>
  <property name="meta.media.sample_aspect_den">1</property>
  <property name="format">3</property>
  <property name="audio_index">1</property>
  <property name="video_index">0</property>
  <property name="warp_speed">2</property>
  <property name="warp_resource">/home/schmilly/Downloads/Snapinsta.app_video_AQM1KdYbIIdOkdcbdaCILpkWffSeNNOs_VrNQ4_RhOGJQgHfDhw6LFQd_8h4s15np9TyXp34iYqgWxPugsPOpFXWVsLoLxGvWtgpyI8.mp4</property>
  <property name="mlt_service">timewarp</property>
  <property name="kdenlive:control_uuid">{b9fbdda5-2175-4a29-8540-1dd4f6b8d4cc}</property>
  <property name="vstream">0</property>
  <property name="astream">0</property>
  <property name="set.test_audio">1</property>
  <property name="set.test_image">0</property>
  <property name="kdenlive:id">7</property>
  <property name="warp_pitch">0</property>
 </producer>
 <chain id="chain2" out="00:00:01.000">
  <property name="length">16</property>
  <property name="eof">pause</property>
  <property name="resource">/home/schmilly/Downloads/Snapinsta.app_video_AQOOsAVmPv3qtzSJ44Z-cmU6PK2_7l4ar1HYQkLJ85NdbwWHzHSUAWU9W001DMl1SSfFQzODfS1jghRk9ZVTVdySVALBZBBN4jfZo64-32-37-0-1.mp4</property>
  <property name="mlt_service">avformat-novalidate</property>
  <property name="seekable">1</property>
  <property name="format">3</property>
  <property name="audio_index">1</property>
  <property name="video_index">0</property>
  <property name="vstream">0</property>
  <property name="astream">0</property>
  <property name="kdenlive:control_uuid">{2f1ea70a-1784-4d79-8e27-3fafd74bbf84}</property>
  <property name="kdenlive:id">42</property>
  <property name="kdenlive:clip_type">0</property>
  <property name="kdenlive:file_size">286123</property>
  <property name="kdenlive:file_hash">6aef024ea922700b51c4a2bfc552b954</property>
  <property name="kdenlive:folderid">-1</property>
  <property name="meta.media.nb_streams">2</property>
  <property name="meta.media.0.stream.type">video</property>
  <property name="meta.media.0.stream.frame_rate">30</property>
  <property name="meta.media.0.stream.sample_aspect_ratio">0</property>
  <property name="meta.media.0.codec.width">720</property>
  <property name="meta.media.0.codec.height">1280</property>
  <property name="meta.media.0.codec.rotate">0</property>
  <property name="meta.media.0.codec.pix_fmt">yuv420p</property>
  <property name="meta.media.0.codec.sample_aspect_ratio">0</property>
  <property name="meta.media.0.codec.colorspace">709</property>
  <property name="meta.media.0.codec.color_trc">1</property>
  <property name="meta.media.0.codec.name">h264</property>
  <property name="meta.media.0.codec.long_name">H.264 / AVC / MPEG-4 AVC / MPEG-4 part 10</property>
  <property name="meta.media.0.codec.bit_rate">2296195</property>
  <property name="meta.attr.0.stream.handler_name.markup">VideoHandler</property>
  <property name="meta.attr.0.stream.vendor_id.markup">[0][0][0][0]</property>
  <property name="meta.attr.0.stream.encoder.markup">AVC Coding</property>
  <property name="meta.media.1.stream.type">audio</property>
  <property name="meta.media.1.codec.sample_fmt">fltp</property>
  <property name="meta.media.1.codec.sample_rate">44100</property>
  <property name="meta.media.1.codec.channels">2</property>
  <property name="meta.media.1.codec.layout">stereo</property>
  <property name="meta.media.1.codec.name">aac</property>
  <property name="meta.media.1.codec.long_name">AAC (Advanced Audio Coding)</property>
  <property name="meta.media.1.codec.bit_rate">52836</property>
  <property name="meta.attr.1.stream.handler_name.markup">SoundHandler</property>
  <property name="meta.attr.1.stream.vendor_id.markup">[0][0][0][0]</property>
  <property name="meta.attr.major_brand.markup">isom</property>
  <property name="meta.attr.minor_version.markup">512</property>
  <property name="meta.attr.compatible_brands.markup">isomiso2avc1mp41</property>
  <property name="meta.attr.encoder.markup">Lavf61.7.100</property>
  <property name="meta.media.sample_aspect_num">1</property>
  <property name="meta.media.sample_aspect_den">1</property>
  <property name="meta.media.frame_rate_num">30</property>
  <property name="meta.media.frame_rate_den">1</property>
  <property name="meta.media.colorspace">709</property>
  <property name="meta.media.color_trc">1</property>
  <property name="meta.media.has_b_frames">2</property>
  <property name="meta.media.width">720</property>
  <property name="meta.media.height">1280</property>
  <property name="meta.media.aspect_ratio">1</property>
  <property name="meta.media.color_range">mpeg</property>
  <property name="xml">was here</property>
  <property name="mute_on_pause">0</property>
  <property name="meta.media.top_field_first">0</property>
  <property name="meta.media.progressive">1</property>
  <property name="set.test_audio">1</property>
  <property name="set.test_image">0</property>
 </chain>
 <producer id="producer22" in="00:00:00.000" out="00:00:13.600">
  <property name="length">205</property>
  <property name="eof">pause</property>
  <property name="resource">2.000000:/home/schmilly/Downloads/Snapinsta.app_video_AQNsrs8PekU73SJe5m7w2zEJLpHCLwFqXoL8B9NYodfXaHJe2V2qlQk19F726kyR_2kFVw7N4tIHSayJUBhPGFgDpPe1w5mhCLqHZqU.mp4</property>
  <property name="aspect_ratio">1</property>
  <property name="meta.media.nb_streams">2</property>
  <property name="meta.media.0.stream.type">video</property>
  <property name="meta.media.0.stream.frame_rate">30</property>
  <property name="meta.media.0.stream.sample_aspect_ratio">0</property>
  <property name="meta.media.0.codec.width">720</property>
  <property name="meta.media.0.codec.height">1280</property>
  <property name="meta.media.0.codec.rotate">0</property>
  <property name="meta.media.0.codec.pix_fmt">yuv420p</property>
  <property name="meta.media.0.codec.sample_aspect_ratio">0</property>
  <property name="meta.media.0.codec.colorspace">709</property>
  <property name="meta.media.0.codec.color_trc">1</property>
  <property name="meta.media.0.codec.name">h264</property>
  <property name="meta.media.0.codec.long_name">H.264 / AVC / MPEG-4 AVC / MPEG-4 part 10</property>
  <property name="meta.media.0.codec.bit_rate">1238755</property>
  <property name="meta.attr.0.stream.handler_name.markup">VideoHandler</property>
  <property name="meta.attr.0.stream.vendor_id.markup">[0][0][0][0]</property>
  <property name="meta.attr.0.stream.encoder.markup">AVC Coding</property>
  <property name="meta.media.1.stream.type">audio</property>
  <property name="meta.media.1.codec.sample_fmt">fltp</property>
  <property name="meta.media.1.codec.sample_rate">44100</property>
  <property name="meta.media.1.codec.channels">2</property>
  <property name="meta.media.1.codec.layout">stereo</property>
  <property name="meta.media.1.codec.name">aac</property>
  <property name="meta.media.1.codec.long_name">AAC (Advanced Audio Coding)</property>
  <property name="meta.media.1.codec.bit_rate">86652</property>
  <property name="meta.attr.1.stream.handler_name.markup">SoundHandler</property>
  <property name="meta.attr.1.stream.vendor_id.markup">[0][0][0][0]</property>
  <property name="meta.attr.major_brand.markup">isom</property>
  <property name="meta.attr.minor_version.markup">512</property>
  <property name="meta.attr.compatible_brands.markup">isomiso2avc1mp41</property>
  <property name="seekable">1</property>
  <property name="meta.media.sample_aspect_num">1</property>
  <property name="meta.media.sample_aspect_den">1</property>
  <property name="format">3</property>
  <property name="audio_index">1</property>
  <property name="video_index">0</property>
  <property name="warp_speed">2</property>
  <property name="warp_resource">/home/schmilly/Downloads/Snapinsta.app_video_AQNsrs8PekU73SJe5m7w2zEJLpHCLwFqXoL8B9NYodfXaHJe2V2qlQk19F726kyR_2kFVw7N4tIHSayJUBhPGFgDpPe1w5mhCLqHZqU.mp4</property>
  <property name="mlt_service">timewarp</property>
  <property name="kdenlive:control_uuid">{85b34727-78d5-45fe-bee4-ffafe7535571}</property>
  <property name="vstream">0</property>
  <property name="astream">0</property>
  <property name="set.test_audio">1</property>
  <property name="set.test_image">0</property>
  <property name="kdenlive:id">8</property>
  <property name="warp_pitch">0</property>
 </producer>
 <producer id="producer23" in="00:00:00.000" out="00:00:04.933">
  <property name="length">00:00:05.000</property>
  <property name="eof">pause</property>
  <property name="resource">/home/schmilly/Downloads/Screenshot_20241001-182348~2.png</property>
  <property name="ttl">25</property>
  <property name="aspect_ratio">1</property>
  <property name="meta.media.progressive">1</property>
  <property name="seekable">1</property>
  <property name="format">1</property>
  <property name="meta.media.width">1080</property>
  <property name="meta.media.height">1080</property>
  <property name="mlt_service">qimage</property>
  <property name="kdenlive:duration">00:00:05.000</property>
  <property name="xml">was here</property>
  <property name="kdenlive:folderid">-1</property>
  <property name="kdenlive:id">34</property>
  <property name="kdenlive:control_uuid">{58f7e7c3-7b28-4320-a9eb-a59f443837cf}</property>
  <property name="kdenlive:clip_type">2</property>
  <property name="kdenlive:file_size">321786</property>
  <property name="kdenlive:file_hash">e864231b76b3b1d0d24e082e7be29bd5</property>
  <property name="kdenlive:monitorPosition">2</property>
 </producer>
 <producer id="producer24" in="00:00:00.000" out="00:00:04.933">
  <property name="length">00:00:05.000</property>
  <property name="eof">pause</property>
  <property name="resource">/home/schmilly/Downloads/Snapinsta.app_461573170_1715652165642848_1180978336970931846_n_1080.jpg</property>
  <property name="ttl">25</property>
  <property name="aspect_ratio">1</property>
  <property name="meta.media.progressive">1</property>
  <property name="seekable">1</property>
  <property name="format">1</property>
  <property name="meta.media.width">1080</property>
  <property name="meta.media.height">1080</property>
  <property name="mlt_service">qimage</property>
  <property name="kdenlive:duration">00:00:05.000</property>
  <property name="xml">was here</property>
  <property name="kdenlive:folderid">-1</property>
  <property name="kdenlive:id">38</property>
  <property name="kdenlive:control_uuid">{3326ffda-4c64-45fb-8643-a1236e2e7e7f}</property>
  <property name="kdenlive:clip_type">2</property>
  <property name="kdenlive:file_size">117349</property>
  <property name="kdenlive:file_hash">ab15bea8d6e4e55cf826f9f976a16cc9</property>
  <property name="kdenlive:monitorPosition">0</property>
 </producer>
 <producer id="producer25" in="00:00:00.000" out="00:00:04.933">
  <property name="length">00:00:05.000</property>
  <property name="eof">pause</property>
  <property name="resource">/home/schmilly/Downloads/Snapinsta.app_461583144_545207397865714_3213175239902384297_n_1080.jpg</property>
  <property name="ttl">25</property>
  <property name="aspect_ratio">1</property>
  <property name="meta.media.progressive">1</property>
  <property name="seekable">1</property>
  <property name="format">1</property>
  <property name="meta.media.width">1080</property>
  <property name="meta.media.height">1080</property>
  <property name="mlt_service">qimage</property>
  <property name="kdenlive:duration">00:00:05.000</property>
  <property name="xml">was here</property>
  <property name="kdenlive:folderid">-1</property>
  <property name="kdenlive:id">39</property>
  <property name="kdenlive:control_uuid">{2a8bca03-e920-4853-a0d8-b6ba4594e7e3}</property>
  <property name="kdenlive:clip_type">2</property>
  <property name="kdenlive:file_size">120535</property>
  <property name="kdenlive:file_hash">040143bc4c04cfeecc8bf2e9e1684691</property>
  <property name="kdenlive:monitorPosition">21</property>
 </producer>
 <producer id="producer26" in="00:00:00.000" out="00:00:04.933">
  <property name="length">00:00:05.000</property>
  <property name="eof">pause</property>
  <property name="resource">/home/schmilly/Downloads/Snapinsta.app_470067524_1316023856067336_1608945085667597025_n_1080.jpg</property>
  <property name="ttl">25</property>
  <property name="aspect_ratio">1</property>
  <property name="meta.media.progressive">1</property>
  <property name="seekable">1</property>
  <property name="format">1</property>
  <property name="meta.media.width">1080</property>
  <property name="meta.media.height">1080</property>
  <property name="mlt_service">qimage</property>
  <property name="kdenlive:duration">00:00:05.000</property>
  <property name="xml">was here</property>
  <property name="kdenlive:folderid">-1</property>
  <property name="kdenlive:id">37</property>
  <property name="kdenlive:control_uuid">{813fe96f-ec7c-4323-bc41-f562cb6cea8f}</property>
  <property name="kdenlive:clip_type">2</property>
  <property name="kdenlive:file_size">192144</property>
  <property name="kdenlive:file_hash">0e8370847b61ed215e55023646e761dd</property>
  <property name="kdenlive:monitorPosition">0</property>
 </producer>
 <producer id="producer27" in="00:00:00.000" out="00:00:04.933">
  <property name="length">00:00:05.000</property>
  <property name="eof">pause</property>
  <property name="resource">/home/schmilly/Downloads/Snapinsta.app_468025041_1099387628254287_7865682395850471301_n_1080.jpg</property>
  <property name="ttl">25</property>
  <property name="aspect_ratio">1</property>
  <property name="meta.media.progressive">1</property>
  <property name="seekable">1</property>
  <property name="format">1</property>
  <property name="meta.media.width">1080</property>
  <property name="meta.media.height">1080</property>
  <property name="mlt_service">qimage</property>
  <property name="kdenlive:duration">00:00:05.000</property>
  <property name="xml">was here</property>
  <property name="kdenlive:folderid">-1</property>
  <property name="kdenlive:id">41</property>
  <property name="kdenlive:control_uuid">{3819fcd7-0b7f-4377-bb1d-0eba5043287a}</property>
  <property name="kdenlive:clip_type">2</property>
  <property name="kdenlive:file_size">229503</property>
  <property name="kdenlive:file_hash">2adaae78659abe61dc635aa958ff4b69</property>
  <property name="kdenlive:monitorPosition">52</property>
 </producer>
 <producer id="producer28" in="00:00:00.000" out="00:00:04.933">
  <property name="length">00:00:05.000</property>
  <property name="eof">pause</property>
  <property name="resource">/home/schmilly/Downloads/Snapinsta.app_470163924_2126412721109702_5512725023144920969_n_1080.jpg</property>
  <property name="ttl">25</property>
  <property name="aspect_ratio">1</property>
  <property name="meta.media.progressive">1</property>
  <property name="seekable">1</property>
  <property name="format">1</property>
  <property name="meta.media.width">1080</property>
  <property name="meta.media.height">1080</property>
  <property name="mlt_service">qimage</property>
  <property name="kdenlive:duration">00:00:05.000</property>
  <property name="xml">was here</property>
  <property name="kdenlive:folderid">-1</property>
  <property name="kdenlive:id">43</property>
  <property name="kdenlive:control_uuid">{1ef325ab-6276-498d-a2d8-937d2865b126}</property>
  <property name="kdenlive:clip_type">2</property>
  <property name="kdenlive:file_size">200995</property>
  <property name="kdenlive:file_hash">c22aa85dadafb48c60bf9eadb7042d95</property>
  <property name="kdenlive:monitorPosition">0</property>
 </producer>
 <producer id="producer29" in="00:00:00.000" out="00:00:04.933">
  <property name="length">00:00:05.000</property>
  <property name="eof">pause</property>
  <property name="resource">/home/schmilly/Downloads/Snapinsta.app_469742772_570472398944787_3003785144220172043_n_1080.jpg</property>
  <property name="ttl">25</property>
  <property name="aspect_ratio">1</property>
  <property name="meta.media.progressive">1</property>
  <property name="seekable">1</property>
  <property name="format">1</property>
  <property name="meta.media.width">1080</property>
  <property name="meta.media.height">1080</property>
  <property name="mlt_service">qimage</property>
  <property name="kdenlive:duration">00:00:05.000</property>
  <property name="xml">was here</property>
  <property name="kdenlive:folderid">-1</property>
  <property name="kdenlive:id">44</property>
  <property name="kdenlive:control_uuid">{49e27686-6c48-4c54-adf3-9f86debcdf4c}</property>
  <property name="kdenlive:clip_type">2</property>
  <property name="kdenlive:file_size">139474</property>
  <property name="kdenlive:file_hash">007701ab6aa63d4cdb4632e0a09e8fa9</property>
  <property name="kdenlive:monitorPosition">0</property>
 </producer>
 <producer id="producer30" in="00:00:00.000" out="00:00:04.933">
  <property name="length">00:00:05.000</property>
  <property name="eof">pause</property>
  <property name="resource">/home/schmilly/Downloads/Snapinsta.app_470464070_937205301245053_7507354438842690616_n_1080.jpg</property>
  <property name="ttl">25</property>
  <property name="aspect_ratio">1</property>
  <property name="meta.media.progressive">1</property>
  <property name="seekable">1</property>
  <property name="format">1</property>
  <property name="meta.media.width">1080</property>
  <property name="meta.media.height">1080</property>
  <property name="mlt_service">qimage</property>
  <property name="kdenlive:duration">00:00:05.000</property>
  <property name="xml">was here</property>
  <property name="kdenlive:folderid">-1</property>
  <property name="kdenlive:id">45</property>
  <property name="kdenlive:control_uuid">{ef57b604-4f30-41ff-8d21-81782d426d80}</property>
  <property name="kdenlive:clip_type">2</property>
  <property name="kdenlive:file_size">151210</property>
  <property name="kdenlive:file_hash">bcfca740d7bf7ad7b122a24305959b1d</property>
  <property name="kdenlive:monitorPosition">0</property>
 </producer>
 <producer id="producer31" in="00:00:00.000" out="00:00:04.933">
  <property name="length">00:00:05.000</property>
  <property name="eof">pause</property>
  <property name="resource">/home/schmilly/Downloads/Snapinsta.app_470479062_1280264443288243_5504433760000019641_n_1080.jpg</property>
  <property name="ttl">25</property>
  <property name="aspect_ratio">1</property>
  <property name="meta.media.progressive">1</property>
  <property name="seekable">1</property>
  <property name="format">1</property>
  <property name="meta.media.width">1080</property>
  <property name="meta.media.height">1080</property>
  <property name="mlt_service">qimage</property>
  <property name="kdenlive:duration">00:00:05.000</property>
  <property name="xml">was here</property>
  <property name="kdenlive:folderid">-1</property>
  <property name="kdenlive:id">46</property>
  <property name="kdenlive:control_uuid">{408d0189-ce0e-48e5-8f11-857e25151e16}</property>
  <property name="kdenlive:clip_type">2</property>
  <property name="kdenlive:file_size">213381</property>
  <property name="kdenlive:file_hash">98909e01a43100cab27ea1b475b5a961</property>
  <property name="kdenlive:monitorPosition">0</property>
 </producer>
 <producer id="producer32" in="00:00:00.000" out="00:00:04.933">
  <property name="length">00:00:05.000</property>
  <property name="eof">pause</property>
  <property name="resource">/home/schmilly/Downloads/Snapinsta.app_469746591_3828263740766531_7654721079622070642_n_1080.jpg</property>
  <property name="ttl">25</property>
  <property name="aspect_ratio">1</property>
  <property name="meta.media.progressive">1</property>
  <property name="seekable">1</property>
  <property name="format">1</property>
  <property name="meta.media.width">1080</property>
  <property name="meta.media.height">1080</property>
  <property name="mlt_service">qimage</property>
  <property name="kdenlive:duration">00:00:05.000</property>
  <property name="xml">was here</property>
  <property name="kdenlive:folderid">-1</property>
  <property name="kdenlive:id">47</property>
  <property name="kdenlive:control_uuid">{c7c16487-0808-4b50-a895-7966cda2edd7}</property>
  <property name="kdenlive:clip_type">2</property>
  <property name="kdenlive:file_size">181530</property>
  <property name="kdenlive:file_hash">dc94b20ca1528d8938cf206fc3edd29f</property>
  <property name="kdenlive:monitorPosition">0</property>
 </producer>
 <producer id="producer33" in="00:00:00.000" out="00:00:04.933">
  <property name="length">00:00:05.000</property>
  <property name="eof">pause</property>
  <property name="resource">/home/schmilly/Downloads/Snapinsta.app_470315680_1268609151136446_5782404880212699606_n_1080.jpg</property>
  <property name="ttl">25</property>
  <property name="aspect_ratio">1</property>
  <property name="meta.media.progressive">1</property>
  <property name="seekable">1</property>
  <property name="format">1</property>
  <property name="meta.media.width">1080</property>
  <property name="meta.media.height">1080</property>
  <property name="mlt_service">qimage</property>
  <property name="kdenlive:duration">00:00:05.000</property>
  <property name="xml">was here</property>
  <property name="kdenlive:folderid">-1</property>
  <property name="kdenlive:id">48</property>
  <property name="kdenlive:control_uuid">{4d688508-6024-4972-a969-a84e74879002}</property>
  <property name="kdenlive:clip_type">2</property>
  <property name="kdenlive:file_size">168000</property>
  <property name="kdenlive:file_hash">559dd0a52cc490154a090225b1ea8b0f</property>
  <property name="kdenlive:monitorPosition">4</property>
 </producer>
 <playlist id="playlist24">
  <blank length="00:00:08.400"/>
  <entry in="00:00:00.000" out="00:00:01.667" producer="producer17">
   <property name="kdenlive:id">26</property>
  </entry>
  <blank length="00:00:00.067"/>
  <entry in="00:00:00.000" out="00:00:00.067" producer="producer4">
   <property name="kdenlive:id">25</property>
   <filter id="filter33">
    <property name="rotate_center">1</property>
    <property name="mlt_service">qtblend</property>
    <property name="kdenlive_id">qtblend</property>
    <property name="compositing">0</property>
    <property name="distort">0</property>
    <property name="rect">00:00:00.000=0 378 1920 1920 1.000000</property>
    <property name="rotation">00:00:00.000=0</property>
    <property name="kdenlive:collapsed">0</property>
   </filter>
  </entry>
  <blank length="00:00:00.133"/>
  <entry in="00:00:00.000" out="00:00:00.133" producer="producer4">
   <property name="kdenlive:id">25</property>
   <filter id="filter34">
    <property name="rotate_center">1</property>
    <property name="mlt_service">qtblend</property>
    <property name="kdenlive_id">qtblend</property>
    <property name="compositing">0</property>
    <property name="distort">0</property>
    <property name="rect">00:00:00.000=0 378 1920 1920 1.000000</property>
    <property name="rotation">00:00:00.000=0</property>
    <property name="kdenlive:collapsed">0</property>
   </filter>
  </entry>
  <blank length="00:00:01.133"/>
  <entry in="00:00:00.000" out="00:00:00.800" producer="chain1">
   <property name="kdenlive:id">12</property>
   <filter id="filter35">
    <property name="rotate_center">1</property>
    <property name="mlt_service">qtblend</property>
    <property name="kdenlive_id">qtblend</property>
    <property name="compositing">0</property>
    <property name="distort">0</property>
    <property name="rect">00:00:00.000=-419 3 1920 1920 1.000000</property>
    <property name="rotation">00:00:00.000=0</property>
    <property name="kdenlive:collapsed">0</property>
   </filter>
  </entry>
  <entry in="00:00:00.000" out="00:00:01.667" producer="producer18">
   <property name="kdenlive:id">6</property>
   <filter id="filter36">
    <property name="rotate_center">1</property>
    <property name="mlt_service">qtblend</property>
    <property name="kdenlive_id">qtblend</property>
    <property name="compositing">0</property>
    <property name="distort">0</property>
    <property name="rect">00:00:00.000=-429 6 1920 1920 1.000000</property>
    <property name="rotation">00:00:00.000=0</property>
    <property name="kdenlive:collapsed">0</property>
   </filter>
  </entry>
  <entry in="00:00:13.333" out="00:00:14.133" producer="producer19">
   <property name="kdenlive:id">6</property>
   <filter id="filter37">
    <property name="rotate_center">1</property>
    <property name="mlt_service">qtblend</property>
    <property name="kdenlive_id">qtblend</property>
    <property name="compositing">0</property>
    <property name="distort">0</property>
    <property name="rect">00:00:13.333=-429 6 1920 1920 1.000000</property>
    <property name="rotation">00:00:13.333=0</property>
    <property name="kdenlive:collapsed">0</property>
   </filter>
  </entry>
  <entry in="00:00:20.867" out="00:00:21.667" producer="producer20">
   <property name="kdenlive:id">6</property>
   <filter id="filter38">
    <property name="rotate_center">1</property>
    <property name="mlt_service">qtblend</property>
    <property name="kdenlive_id">qtblend</property>
    <property name="compositing">0</property>
    <property name="distort">0</property>
    <property name="rect">00:00:20.867=-429 6 1920 1920 1.000000</property>
    <property name="rotation">00:00:20.867=0</property>
    <property name="kdenlive:collapsed">0</property>
   </filter>
  </entry>
  <entry in="00:00:56.000" out="00:00:56.800" producer="producer21">
   <property name="kdenlive:id">7</property>
   <filter id="filter39">
    <property name="rotate_center">1</property>
    <property name="mlt_service">qtblend</property>
    <property name="kdenlive_id">qtblend</property>
    <property name="compositing">0</property>
    <property name="distort">0</property>
    <property name="rect">00:00:56.000=142 -816 2449 2829 1.000000</property>
    <property name="rotation">00:00:56.000=0</property>
    <property name="kdenlive:collapsed">0</property>
   </filter>
  </entry>
  <entry in="00:00:00.000" out="00:00:00.400" producer="chain2">
   <property name="kdenlive:id">42</property>
   <filter id="filter40">
    <property name="rotate_center">1</property>
    <property name="mlt_service">qtblend</property>
    <property name="kdenlive_id">qtblend</property>
    <property name="compositing">0</property>
    <property name="distort">0</property>
    <property name="rect">00:00:00.000=458 -8 1920 1920 1.000000</property>
    <property name="rotation">00:00:00.000=0</property>
    <property name="kdenlive:collapsed">0</property>
   </filter>
  </entry>
  <entry in="00:00:00.000" out="00:00:00.133" producer="producer22">
   <property name="kdenlive:id">8</property>
   <filter id="filter41">
    <property name="rotate_center">1</property>
    <property name="mlt_service">qtblend</property>
    <property name="kdenlive_id">qtblend</property>
    <property name="compositing">0</property>
    <property name="distort">0</property>
    <property name="rect">00:00:00.000=-807 -57 3548 3511 1.000000</property>
    <property name="rotation">00:00:00.000=0</property>
    <property name="kdenlive:collapsed">0</property>
   </filter>
  </entry>
  <blank length="00:00:00.333"/>
  <entry in="00:00:00.000" out="00:00:00.067" producer="producer23">
   <property name="kdenlive:id">34</property>
  </entry>
  <entry in="00:00:00.000" out="00:00:00.133" producer="producer24">
   <property name="kdenlive:id">38</property>
  </entry>
  <entry in="00:00:00.000" out="00:00:00.133" producer="producer25">
   <property name="kdenlive:id">39</property>
  </entry>
  <entry in="00:00:00.000" out="00:00:00.600" producer="producer26">
   <property name="kdenlive:id">37</property>
  </entry>
  <entry in="00:00:00.000" out="00:00:00.000" producer="producer16">
   <property name="kdenlive:id">40</property>
   <filter id="filter42">
    <property name="rotate_center">1</property>
    <property name="mlt_service">qtblend</property>
    <property name="kdenlive_id">qtblend</property>
    <property name="compositing">0</property>
    <property name="distort">0</property>
    <property name="rect">00:00:00.000=-412 -18 2758 2747 1.000000</property>
    <property name="rotation">00:00:00.000=0</property>
    <property name="kdenlive:collapsed">0</property>
   </filter>
  </entry>
  <entry in="00:00:00.000" out="00:00:00.000" producer="producer16">
   <property name="kdenlive:id">40</property>
   <filter id="filter43">
    <property name="rotate_center">1</property>
    <property name="mlt_service">qtblend</property>
    <property name="kdenlive_id">qtblend</property>
    <property name="compositing">0</property>
    <property name="distort">0</property>
    <property name="rect">00:00:00.000=-294 6 1920 1920 1.000000</property>
    <property name="rotation">00:00:00.000=0</property>
    <property name="kdenlive:collapsed">0</property>
   </filter>
  </entry>
  <entry in="00:00:00.000" out="00:00:00.067" producer="producer16">
   <property name="kdenlive:id">40</property>
   <filter id="filter44">
    <property name="rotate_center">1</property>
    <property name="mlt_service">qtblend</property>
    <property name="kdenlive_id">qtblend</property>
    <property name="compositing">0</property>
    <property name="distort">0</property>
    <property name="rect">00:00:00.000=634 6 1920 1920 1.000000</property>
    <property name="rotation">00:00:00.000=0</property>
    <property name="kdenlive:collapsed">0</property>
   </filter>
   <filter id="filter45">
    <property name="mlt_service">crop</property>
    <property name="kdenlive_id">crop</property>
    <property name="top">0</property>
    <property name="left">221</property>
    <property name="bottom">0</property>
    <property name="right">0</property>
    <property name="center">0</property>
    <property name="center_bias">0</property>
    <property name="use_profile">1</property>
    <property name="kdenlive:collapsed">0</property>
   </filter>
  </entry>
  <entry in="00:00:00.000" out="00:00:00.267" producer="producer27">
   <property name="kdenlive:id">41</property>
  </entry>
  <entry in="00:00:00.000" out="00:00:00.067" producer="producer28">
   <property name="kdenlive:id">43</property>
  </entry>
  <entry in="00:00:00.000" out="00:00:00.200" producer="producer29">
   <property name="kdenlive:id">44</property>
  </entry>
  <entry in="00:00:00.000" out="00:00:00.133" producer="producer30">
   <property name="kdenlive:id">45</property>
  </entry>
  <entry in="00:00:00.000" out="00:00:00.600" producer="producer31">
   <property name="kdenlive:id">46</property>
  </entry>
  <entry in="00:00:00.000" out="00:00:00.400" producer="producer32">
   <property name="kdenlive:id">47</property>
  </entry>
  <entry in="00:00:00.000" out="00:00:00.067" producer="producer33">
   <property name="kdenlive:id">48</property>
  </entry>
  <entry in="00:00:00.000" out="00:00:04.800" producer="producer33">
   <property name="kdenlive:id">48</property>
  </entry>
 </playlist>
 <playlist id="playlist25"/>
 <tractor id="tractor12" in="00:00:00.000" out="00:00:26.467">
  <property name="kdenlive:trackheight">67</property>
  <property name="kdenlive:timeline_active">1</property>
  <property name="kdenlive:collapsed">0</property>
  <property name="kdenlive:thumbs_format"/>
  <property name="kdenlive:audio_rec"/>
  <track hide="audio" producer="playlist24"/>
  <track hide="audio" producer="playlist25"/>
 </tractor>
 <producer id="producer34" in="00:00:00.000" out="00:00:04.933">
  <property name="length">75</property>
  <property name="eof">pause</property>
  <property name="resource"/>
  <property name="meta.media.progressive">1</property>
  <property name="aspect_ratio">1</property>
  <property name="seekable">1</property>
  <property name="mlt_service">kdenlivetitle</property>
  <property name="kdenlive:duration">00:00:05:00</property>
  <property name="kdenlive:clipname">Collective</property>
  <property name="xmldata">&lt;kdenlivetitle LC_NUMERIC="C" duration="75" height="1920" out="74" width="1920">
 &lt;item type="QGraphicsTextItem" z-index="0">
  &lt;position x="265" y="183">
   &lt;transform>1,0,0,0,1,0,0,0,1&lt;/transform>
  &lt;/position>
  &lt;content alignment="0" box-height="477" box-width="1570.72" font="Noto Sans" font-color="255,255,255,255" font-italic="0" font-outline="0" font-outline-color="0,0,0,255" font-pixel-size="350" font-underline="0" font-weight="400" letter-spacing="0" shadow="0;#64000000;3;3;3" tab-width="80" typewriter="0;2;1;0;0">Collective&lt;/content>
 &lt;/item>
 &lt;startviewport rect="0,0,1920,1920"/>
 &lt;endviewport rect="0,0,1920,1920"/>
 &lt;background color="0,0,0,0"/>
&lt;/kdenlivetitle>
</property>
  <property name="xml">was here</property>
  <property name="kdenlive:folderid">28</property>
  <property name="kdenlive:id">27</property>
  <property name="kdenlive:control_uuid">{2796d904-b372-4d5a-9ba9-37634a7f334f}</property>
  <property name="kdenlive:clip_type">2</property>
  <property name="kdenlive:uniqueId">{5a88c536-ad59-4994-9774-2cc9f6ee974f}</property>
  <property name="kdenlive:file_hash">7e709272d2967c7ecbdabe1475822c9a</property>
  <property name="force_reload">0</property>
  <property name="kdenlive:monitorPosition">13</property>
 </producer>
 <chain id="chain3" out="00:00:07.400">
  <property name="length">112</property>
  <property name="eof">pause</property>
  <property name="resource">/home/schmilly/Downloads/Snapinsta.app_video_AQOOsAVmPv3qtzSJ44Z-cmU6PK2_7l4ar1HYQkLJ85NdbwWHzHSUAWU9W001DMl1SSfFQzODfS1jghRk9ZVTVdySVALBZBBN4jfZo64-32-37.mp4</property>
  <property name="mlt_service">avformat-novalidate</property>
  <property name="seekable">1</property>
  <property name="format">3</property>
  <property name="audio_index">1</property>
  <property name="video_index">0</property>
  <property name="vstream">0</property>
  <property name="astream">0</property>
  <property name="kdenlive:control_uuid">{12ff8af7-50eb-4343-a8e3-08ef535c7116}</property>
  <property name="kdenlive:id">13</property>
  <property name="kdenlive:clip_type">0</property>
  <property name="kdenlive:file_size">1501777</property>
  <property name="kdenlive:file_hash">4a489f75a3ff287ea80e9bbacead7772</property>
  <property name="kdenlive:folderid">-1</property>
  <property name="meta.media.nb_streams">2</property>
  <property name="meta.media.0.stream.type">video</property>
  <property name="meta.media.0.stream.frame_rate">30</property>
  <property name="meta.media.0.stream.sample_aspect_ratio">0</property>
  <property name="meta.media.0.codec.width">720</property>
  <property name="meta.media.0.codec.height">1280</property>
  <property name="meta.media.0.codec.rotate">0</property>
  <property name="meta.media.0.codec.pix_fmt">yuv420p</property>
  <property name="meta.media.0.codec.sample_aspect_ratio">0</property>
  <property name="meta.media.0.codec.colorspace">709</property>
  <property name="meta.media.0.codec.color_trc">1</property>
  <property name="meta.media.0.codec.name">h264</property>
  <property name="meta.media.0.codec.long_name">H.264 / AVC / MPEG-4 AVC / MPEG-4 part 10</property>
  <property name="meta.media.0.codec.bit_rate">1560379</property>
  <property name="meta.attr.0.stream.handler_name.markup">VideoHandler</property>
  <property name="meta.attr.0.stream.vendor_id.markup">[0][0][0][0]</property>
  <property name="meta.attr.0.stream.encoder.markup">AVC Coding</property>
  <property name="meta.media.1.stream.type">audio</property>
  <property name="meta.media.1.codec.sample_fmt">fltp</property>
  <property name="meta.media.1.codec.sample_rate">44100</property>
  <property name="meta.media.1.codec.channels">2</property>
  <property name="meta.media.1.codec.layout">stereo</property>
  <property name="meta.media.1.codec.name">aac</property>
  <property name="meta.media.1.codec.long_name">AAC (Advanced Audio Coding)</property>
  <property name="meta.media.1.codec.bit_rate">62226</property>
  <property name="meta.attr.1.stream.handler_name.markup">SoundHandler</property>
  <property name="meta.attr.1.stream.vendor_id.markup">[0][0][0][0]</property>
  <property name="meta.attr.major_brand.markup">isom</property>
  <property name="meta.attr.minor_version.markup">512</property>
  <property name="meta.attr.compatible_brands.markup">isomiso2avc1mp41</property>
  <property name="meta.attr.encoder.markup">Lavf61.7.100</property>
  <property name="meta.media.sample_aspect_num">1</property>
  <property name="meta.media.sample_aspect_den">1</property>
  <property name="meta.media.frame_rate_num">30</property>
  <property name="meta.media.frame_rate_den">1</property>
  <property name="meta.media.colorspace">709</property>
  <property name="meta.media.color_trc">1</property>
  <property name="meta.media.has_b_frames">2</property>
  <property name="meta.media.width">720</property>
  <property name="meta.media.height">1280</property>
  <property name="meta.media.aspect_ratio">1</property>
  <property name="meta.media.color_range">mpeg</property>
  <property name="xml">was here</property>
  <property name="mute_on_pause">0</property>
  <property name="meta.media.top_field_first">0</property>
  <property name="meta.media.progressive">1</property>
  <property name="set.test_audio">1</property>
  <property name="set.test_image">0</property>
 </chain>
 <producer id="producer35" in="00:00:00.000" out="00:01:14.933">
  <property name="length">1125</property>
  <property name="eof">pause</property>
  <property name="resource">1.500000:/home/schmilly/Downloads/Snapinsta.app_video_AQN_aOj9Z9cVqWd2t-0apPQvxI41SmquY7ZoMtebjN9RI7HXMyQo2keM-Nl1oGgvNj3KBQLqQlh5WMtY3aIhDyHPtSG5yoODnFEsYEQ.mp4</property>
  <property name="aspect_ratio">1</property>
  <property name="meta.media.nb_streams">2</property>
  <property name="meta.media.0.stream.type">video</property>
  <property name="meta.media.0.stream.frame_rate">30</property>
  <property name="meta.media.0.stream.sample_aspect_ratio">0</property>
  <property name="meta.media.0.codec.width">720</property>
  <property name="meta.media.0.codec.height">1280</property>
  <property name="meta.media.0.codec.rotate">0</property>
  <property name="meta.media.0.codec.pix_fmt">yuv420p</property>
  <property name="meta.media.0.codec.sample_aspect_ratio">0</property>
  <property name="meta.media.0.codec.colorspace">709</property>
  <property name="meta.media.0.codec.color_trc">1</property>
  <property name="meta.media.0.codec.name">h264</property>
  <property name="meta.media.0.codec.long_name">H.264 / AVC / MPEG-4 AVC / MPEG-4 part 10</property>
  <property name="meta.media.0.codec.bit_rate">2533744</property>
  <property name="meta.attr.0.stream.handler_name.markup">VideoHandler</property>
  <property name="meta.attr.0.stream.vendor_id.markup">[0][0][0][0]</property>
  <property name="meta.attr.0.stream.encoder.markup">AVC Coding</property>
  <property name="meta.media.1.stream.type">audio</property>
  <property name="meta.media.1.codec.sample_fmt">fltp</property>
  <property name="meta.media.1.codec.sample_rate">44100</property>
  <property name="meta.media.1.codec.channels">2</property>
  <property name="meta.media.1.codec.layout">stereo</property>
  <property name="meta.media.1.codec.name">aac</property>
  <property name="meta.media.1.codec.long_name">AAC (Advanced Audio Coding)</property>
  <property name="meta.media.1.codec.bit_rate">87450</property>
  <property name="meta.attr.1.stream.handler_name.markup">SoundHandler</property>
  <property name="meta.attr.1.stream.vendor_id.markup">[0][0][0][0]</property>
  <property name="meta.attr.major_brand.markup">isom</property>
  <property name="meta.attr.minor_version.markup">512</property>
  <property name="meta.attr.compatible_brands.markup">isomiso2avc1mp41</property>
  <property name="seekable">1</property>
  <property name="meta.media.sample_aspect_num">1</property>
  <property name="meta.media.sample_aspect_den">1</property>
  <property name="format">3</property>
  <property name="audio_index">1</property>
  <property name="video_index">0</property>
  <property name="warp_speed">1.5</property>
  <property name="warp_resource">/home/schmilly/Downloads/Snapinsta.app_video_AQN_aOj9Z9cVqWd2t-0apPQvxI41SmquY7ZoMtebjN9RI7HXMyQo2keM-Nl1oGgvNj3KBQLqQlh5WMtY3aIhDyHPtSG5yoODnFEsYEQ.mp4</property>
  <property name="mlt_service">timewarp</property>
  <property name="kdenlive:control_uuid">{66d5305f-da2b-43fd-aeee-a8c8dbafe24c}</property>
  <property name="vstream">0</property>
  <property name="astream">0</property>
  <property name="set.test_audio">1</property>
  <property name="set.test_image">0</property>
  <property name="kdenlive:id">6</property>
  <property name="warp_pitch">0</property>
  <property name="meta.media.frame_rate_num">30</property>
  <property name="meta.media.frame_rate_den">1</property>
  <property name="meta.media.colorspace">709</property>
  <property name="meta.media.color_trc">1</property>
  <property name="meta.media.has_b_frames">2</property>
  <property name="meta.media.width">720</property>
  <property name="meta.media.height">1280</property>
  <property name="meta.media.aspect_ratio">1</property>
  <property name="meta.media.color_range">mpeg</property>
  <property name="meta.media.top_field_first">0</property>
  <property name="meta.media.progressive">1</property>
 </producer>
 <producer id="producer36" in="00:00:00.000" out="00:01:14.933">
  <property name="length">1125</property>
  <property name="eof">pause</property>
  <property name="resource">1.500000:/home/schmilly/Downloads/Snapinsta.app_video_AQN_aOj9Z9cVqWd2t-0apPQvxI41SmquY7ZoMtebjN9RI7HXMyQo2keM-Nl1oGgvNj3KBQLqQlh5WMtY3aIhDyHPtSG5yoODnFEsYEQ.mp4</property>
  <property name="aspect_ratio">1</property>
  <property name="meta.media.nb_streams">2</property>
  <property name="meta.media.0.stream.type">video</property>
  <property name="meta.media.0.stream.frame_rate">30</property>
  <property name="meta.media.0.stream.sample_aspect_ratio">0</property>
  <property name="meta.media.0.codec.width">720</property>
  <property name="meta.media.0.codec.height">1280</property>
  <property name="meta.media.0.codec.rotate">0</property>
  <property name="meta.media.0.codec.pix_fmt">yuv420p</property>
  <property name="meta.media.0.codec.sample_aspect_ratio">0</property>
  <property name="meta.media.0.codec.colorspace">709</property>
  <property name="meta.media.0.codec.color_trc">1</property>
  <property name="meta.media.0.codec.name">h264</property>
  <property name="meta.media.0.codec.long_name">H.264 / AVC / MPEG-4 AVC / MPEG-4 part 10</property>
  <property name="meta.media.0.codec.bit_rate">2533744</property>
  <property name="meta.attr.0.stream.handler_name.markup">VideoHandler</property>
  <property name="meta.attr.0.stream.vendor_id.markup">[0][0][0][0]</property>
  <property name="meta.attr.0.stream.encoder.markup">AVC Coding</property>
  <property name="meta.media.1.stream.type">audio</property>
  <property name="meta.media.1.codec.sample_fmt">fltp</property>
  <property name="meta.media.1.codec.sample_rate">44100</property>
  <property name="meta.media.1.codec.channels">2</property>
  <property name="meta.media.1.codec.layout">stereo</property>
  <property name="meta.media.1.codec.name">aac</property>
  <property name="meta.media.1.codec.long_name">AAC (Advanced Audio Coding)</property>
  <property name="meta.media.1.codec.bit_rate">87450</property>
  <property name="meta.attr.1.stream.handler_name.markup">SoundHandler</property>
  <property name="meta.attr.1.stream.vendor_id.markup">[0][0][0][0]</property>
  <property name="meta.attr.major_brand.markup">isom</property>
  <property name="meta.attr.minor_version.markup">512</property>
  <property name="meta.attr.compatible_brands.markup">isomiso2avc1mp41</property>
  <property name="seekable">1</property>
  <property name="meta.media.sample_aspect_num">1</property>
  <property name="meta.media.sample_aspect_den">1</property>
  <property name="format">3</property>
  <property name="audio_index">1</property>
  <property name="video_index">0</property>
  <property name="warp_speed">1.5</property>
  <property name="warp_resource">/home/schmilly/Downloads/Snapinsta.app_video_AQN_aOj9Z9cVqWd2t-0apPQvxI41SmquY7ZoMtebjN9RI7HXMyQo2keM-Nl1oGgvNj3KBQLqQlh5WMtY3aIhDyHPtSG5yoODnFEsYEQ.mp4</property>
  <property name="mlt_service">timewarp</property>
  <property name="kdenlive:control_uuid">{66d5305f-da2b-43fd-aeee-a8c8dbafe24c}</property>
  <property name="vstream">0</property>
  <property name="astream">0</property>
  <property name="set.test_audio">1</property>
  <property name="set.test_image">0</property>
  <property name="kdenlive:id">6</property>
  <property name="warp_pitch">0</property>
 </producer>
 <producer id="producer37" in="00:00:00.000" out="00:01:14.933">
  <property name="length">1125</property>
  <property name="eof">pause</property>
  <property name="resource">1.500000:/home/schmilly/Downloads/Snapinsta.app_video_AQN_aOj9Z9cVqWd2t-0apPQvxI41SmquY7ZoMtebjN9RI7HXMyQo2keM-Nl1oGgvNj3KBQLqQlh5WMtY3aIhDyHPtSG5yoODnFEsYEQ.mp4</property>
  <property name="aspect_ratio">1</property>
  <property name="meta.media.nb_streams">2</property>
  <property name="meta.media.0.stream.type">video</property>
  <property name="meta.media.0.stream.frame_rate">30</property>
  <property name="meta.media.0.stream.sample_aspect_ratio">0</property>
  <property name="meta.media.0.codec.width">720</property>
  <property name="meta.media.0.codec.height">1280</property>
  <property name="meta.media.0.codec.rotate">0</property>
  <property name="meta.media.0.codec.pix_fmt">yuv420p</property>
  <property name="meta.media.0.codec.sample_aspect_ratio">0</property>
  <property name="meta.media.0.codec.colorspace">709</property>
  <property name="meta.media.0.codec.color_trc">1</property>
  <property name="meta.media.0.codec.name">h264</property>
  <property name="meta.media.0.codec.long_name">H.264 / AVC / MPEG-4 AVC / MPEG-4 part 10</property>
  <property name="meta.media.0.codec.bit_rate">2533744</property>
  <property name="meta.attr.0.stream.handler_name.markup">VideoHandler</property>
  <property name="meta.attr.0.stream.vendor_id.markup">[0][0][0][0]</property>
  <property name="meta.attr.0.stream.encoder.markup">AVC Coding</property>
  <property name="meta.media.1.stream.type">audio</property>
  <property name="meta.media.1.codec.sample_fmt">fltp</property>
  <property name="meta.media.1.codec.sample_rate">44100</property>
  <property name="meta.media.1.codec.channels">2</property>
  <property name="meta.media.1.codec.layout">stereo</property>
  <property name="meta.media.1.codec.name">aac</property>
  <property name="meta.media.1.codec.long_name">AAC (Advanced Audio Coding)</property>
  <property name="meta.media.1.codec.bit_rate">87450</property>
  <property name="meta.attr.1.stream.handler_name.markup">SoundHandler</property>
  <property name="meta.attr.1.stream.vendor_id.markup">[0][0][0][0]</property>
  <property name="meta.attr.major_brand.markup">isom</property>
  <property name="meta.attr.minor_version.markup">512</property>
  <property name="meta.attr.compatible_brands.markup">isomiso2avc1mp41</property>
  <property name="seekable">1</property>
  <property name="meta.media.sample_aspect_num">1</property>
  <property name="meta.media.sample_aspect_den">1</property>
  <property name="format">3</property>
  <property name="audio_index">1</property>
  <property name="video_index">0</property>
  <property name="warp_speed">1.5</property>
  <property name="warp_resource">/home/schmilly/Downloads/Snapinsta.app_video_AQN_aOj9Z9cVqWd2t-0apPQvxI41SmquY7ZoMtebjN9RI7HXMyQo2keM-Nl1oGgvNj3KBQLqQlh5WMtY3aIhDyHPtSG5yoODnFEsYEQ.mp4</property>
  <property name="mlt_service">timewarp</property>
  <property name="kdenlive:control_uuid">{66d5305f-da2b-43fd-aeee-a8c8dbafe24c}</property>
  <property name="vstream">0</property>
  <property name="astream">0</property>
  <property name="set.test_audio">1</property>
  <property name="set.test_image">0</property>
  <property name="kdenlive:id">6</property>
  <property name="warp_pitch">0</property>
 </producer>
 <producer id="producer38" in="00:00:00.000" out="00:02:05.467">
  <property name="length">1884</property>
  <property name="eof">pause</property>
  <property name="resource">2.000000:/home/schmilly/Downloads/Snapinsta.app_video_AQM1KdYbIIdOkdcbdaCILpkWffSeNNOs_VrNQ4_RhOGJQgHfDhw6LFQd_8h4s15np9TyXp34iYqgWxPugsPOpFXWVsLoLxGvWtgpyI8.mp4</property>
  <property name="aspect_ratio">1</property>
  <property name="meta.media.nb_streams">2</property>
  <property name="meta.media.0.stream.type">video</property>
  <property name="meta.media.0.stream.frame_rate">30</property>
  <property name="meta.media.0.stream.sample_aspect_ratio">0</property>
  <property name="meta.media.0.codec.width">720</property>
  <property name="meta.media.0.codec.height">1280</property>
  <property name="meta.media.0.codec.rotate">0</property>
  <property name="meta.media.0.codec.pix_fmt">yuv420p</property>
  <property name="meta.media.0.codec.sample_aspect_ratio">0</property>
  <property name="meta.media.0.codec.colorspace">709</property>
  <property name="meta.media.0.codec.color_trc">1</property>
  <property name="meta.media.0.codec.name">h264</property>
  <property name="meta.media.0.codec.long_name">H.264 / AVC / MPEG-4 AVC / MPEG-4 part 10</property>
  <property name="meta.media.0.codec.bit_rate">952853</property>
  <property name="meta.attr.0.stream.handler_name.markup">VideoHandler</property>
  <property name="meta.attr.0.stream.vendor_id.markup">[0][0][0][0]</property>
  <property name="meta.attr.0.stream.encoder.markup">AVC Coding</property>
  <property name="meta.media.1.stream.type">audio</property>
  <property name="meta.media.1.codec.sample_fmt">fltp</property>
  <property name="meta.media.1.codec.sample_rate">44100</property>
  <property name="meta.media.1.codec.channels">2</property>
  <property name="meta.media.1.codec.layout">stereo</property>
  <property name="meta.media.1.codec.name">aac</property>
  <property name="meta.media.1.codec.long_name">AAC (Advanced Audio Coding)</property>
  <property name="meta.media.1.codec.bit_rate">51707</property>
  <property name="meta.attr.1.stream.handler_name.markup">SoundHandler</property>
  <property name="meta.attr.1.stream.vendor_id.markup">[0][0][0][0]</property>
  <property name="meta.attr.major_brand.markup">isom</property>
  <property name="meta.attr.minor_version.markup">512</property>
  <property name="meta.attr.compatible_brands.markup">isomiso2avc1mp41</property>
  <property name="seekable">1</property>
  <property name="meta.media.sample_aspect_num">1</property>
  <property name="meta.media.sample_aspect_den">1</property>
  <property name="format">3</property>
  <property name="audio_index">1</property>
  <property name="video_index">0</property>
  <property name="warp_speed">2</property>
  <property name="warp_resource">/home/schmilly/Downloads/Snapinsta.app_video_AQM1KdYbIIdOkdcbdaCILpkWffSeNNOs_VrNQ4_RhOGJQgHfDhw6LFQd_8h4s15np9TyXp34iYqgWxPugsPOpFXWVsLoLxGvWtgpyI8.mp4</property>
  <property name="mlt_service">timewarp</property>
  <property name="kdenlive:control_uuid">{b9fbdda5-2175-4a29-8540-1dd4f6b8d4cc}</property>
  <property name="vstream">0</property>
  <property name="astream">0</property>
  <property name="set.test_audio">1</property>
  <property name="set.test_image">0</property>
  <property name="kdenlive:id">7</property>
  <property name="warp_pitch">0</property>
 </producer>
 <chain id="chain4" out="00:00:01.000">
  <property name="length">16</property>
  <property name="eof">pause</property>
  <property name="resource">/home/schmilly/Downloads/Snapinsta.app_video_AQOOsAVmPv3qtzSJ44Z-cmU6PK2_7l4ar1HYQkLJ85NdbwWHzHSUAWU9W001DMl1SSfFQzODfS1jghRk9ZVTVdySVALBZBBN4jfZo64-32-37-0-1.mp4</property>
  <property name="mlt_service">avformat-novalidate</property>
  <property name="seekable">1</property>
  <property name="format">3</property>
  <property name="audio_index">1</property>
  <property name="video_index">0</property>
  <property name="vstream">0</property>
  <property name="astream">0</property>
  <property name="kdenlive:control_uuid">{2f1ea70a-1784-4d79-8e27-3fafd74bbf84}</property>
  <property name="kdenlive:id">42</property>
  <property name="kdenlive:clip_type">0</property>
  <property name="kdenlive:file_size">286123</property>
  <property name="kdenlive:file_hash">6aef024ea922700b51c4a2bfc552b954</property>
  <property name="kdenlive:folderid">-1</property>
  <property name="kdenlive:audio_max1">200</property>
  <property name="meta.media.nb_streams">2</property>
  <property name="meta.media.0.stream.type">video</property>
  <property name="meta.media.0.stream.frame_rate">30</property>
  <property name="meta.media.0.stream.sample_aspect_ratio">0</property>
  <property name="meta.media.0.codec.width">720</property>
  <property name="meta.media.0.codec.height">1280</property>
  <property name="meta.media.0.codec.rotate">0</property>
  <property name="meta.media.0.codec.pix_fmt">yuv420p</property>
  <property name="meta.media.0.codec.sample_aspect_ratio">0</property>
  <property name="meta.media.0.codec.colorspace">709</property>
  <property name="meta.media.0.codec.color_trc">1</property>
  <property name="meta.media.0.codec.name">h264</property>
  <property name="meta.media.0.codec.long_name">H.264 / AVC / MPEG-4 AVC / MPEG-4 part 10</property>
  <property name="meta.media.0.codec.bit_rate">2296195</property>
  <property name="meta.attr.0.stream.handler_name.markup">VideoHandler</property>
  <property name="meta.attr.0.stream.vendor_id.markup">[0][0][0][0]</property>
  <property name="meta.attr.0.stream.encoder.markup">AVC Coding</property>
  <property name="meta.media.1.stream.type">audio</property>
  <property name="meta.media.1.codec.sample_fmt">fltp</property>
  <property name="meta.media.1.codec.sample_rate">44100</property>
  <property name="meta.media.1.codec.channels">2</property>
  <property name="meta.media.1.codec.layout">stereo</property>
  <property name="meta.media.1.codec.name">aac</property>
  <property name="meta.media.1.codec.long_name">AAC (Advanced Audio Coding)</property>
  <property name="meta.media.1.codec.bit_rate">52836</property>
  <property name="meta.attr.1.stream.handler_name.markup">SoundHandler</property>
  <property name="meta.attr.1.stream.vendor_id.markup">[0][0][0][0]</property>
  <property name="meta.attr.major_brand.markup">isom</property>
  <property name="meta.attr.minor_version.markup">512</property>
  <property name="meta.attr.compatible_brands.markup">isomiso2avc1mp41</property>
  <property name="meta.attr.encoder.markup">Lavf61.7.100</property>
  <property name="meta.media.sample_aspect_num">1</property>
  <property name="meta.media.sample_aspect_den">1</property>
  <property name="meta.media.frame_rate_num">30</property>
  <property name="meta.media.frame_rate_den">1</property>
  <property name="meta.media.colorspace">709</property>
  <property name="meta.media.color_trc">1</property>
  <property name="meta.media.has_b_frames">2</property>
  <property name="meta.media.width">720</property>
  <property name="meta.media.height">1280</property>
  <property name="meta.media.aspect_ratio">1</property>
  <property name="meta.media.color_range">mpeg</property>
  <property name="xml">was here</property>
  <property name="mute_on_pause">0</property>
  <property name="meta.media.top_field_first">0</property>
  <property name="meta.media.progressive">1</property>
  <property name="set.test_audio">1</property>
  <property name="set.test_image">0</property>
 </chain>
 <playlist id="playlist26">
  <blank length="00:00:07.400"/>
  <entry in="00:00:00.000" out="00:00:00.933" producer="producer34">
   <property name="kdenlive:id">27</property>
   <filter id="filter46">
    <property name="mlt_service">invert</property>
    <property name="kdenlive_id">invert</property>
   </filter>
  </entry>
  <entry in="00:00:00.000" out="00:00:01.667" producer="producer34">
   <property name="kdenlive:id">27</property>
  </entry>
  <blank length="00:00:01.667"/>
  <entry in="00:00:02.800" out="00:00:03.600" producer="chain3">
   <property name="kdenlive:id">13</property>
   <filter id="filter47">
    <property name="rotate_center">1</property>
    <property name="mlt_service">qtblend</property>
    <property name="kdenlive_id">qtblend</property>
    <property name="compositing">0</property>
    <property name="distort">0</property>
    <property name="rect">00:00:02.800=484 21 1920 1920 1.000000</property>
    <property name="rotation">00:00:02.800=0</property>
    <property name="kdenlive:collapsed">0</property>
   </filter>
  </entry>
  <entry in="00:00:04.800" out="00:00:06.467" producer="producer35">
   <property name="kdenlive:id">6</property>
   <filter id="filter48">
    <property name="rotate_center">1</property>
    <property name="mlt_service">qtblend</property>
    <property name="kdenlive_id">qtblend</property>
    <property name="compositing">0</property>
    <property name="distort">0</property>
    <property name="rect">00:00:04.800=628 -32 1920 1920 1.000000</property>
    <property name="rotation">00:00:04.800=0</property>
    <property name="kdenlive:collapsed">0</property>
   </filter>
  </entry>
  <entry in="00:00:18.133" out="00:00:18.933" producer="producer36">
   <property name="kdenlive:id">6</property>
   <filter id="filter49">
    <property name="rotate_center">1</property>
    <property name="mlt_service">qtblend</property>
    <property name="kdenlive_id">qtblend</property>
    <property name="compositing">0</property>
    <property name="distort">0</property>
    <property name="rect">00:00:18.133=628 -32 1920 1920 1.000000</property>
    <property name="rotation">00:00:18.133=0</property>
    <property name="kdenlive:collapsed">0</property>
   </filter>
  </entry>
  <entry in="00:00:25.667" out="00:00:26.467" producer="producer37">
   <property name="kdenlive:id">6</property>
   <filter id="filter50">
    <property name="rotate_center">1</property>
    <property name="mlt_service">qtblend</property>
    <property name="kdenlive_id">qtblend</property>
    <property name="compositing">0</property>
    <property name="distort">0</property>
    <property name="rect">00:00:25.667=628 -32 1920 1920 1.000000</property>
    <property name="rotation">00:00:25.667=0</property>
    <property name="kdenlive:collapsed">0</property>
   </filter>
  </entry>
  <entry in="00:00:56.000" out="00:00:56.800" producer="producer38">
   <property name="kdenlive:id">7</property>
   <filter id="filter51">
    <property name="rotate_center">1</property>
    <property name="mlt_service">qtblend</property>
    <property name="kdenlive_id">qtblend</property>
    <property name="compositing">0</property>
    <property name="distort">0</property>
    <property name="rect">00:00:56.000=-1074 -12 2700 2719 1.000000</property>
    <property name="rotation">00:00:56.000=0</property>
    <property name="kdenlive:collapsed">0</property>
   </filter>
   <filter id="filter52">
    <property name="mlt_service">crop</property>
    <property name="kdenlive_id">crop</property>
    <property name="top">0</property>
    <property name="left">0</property>
    <property name="bottom">0</property>
    <property name="right">458</property>
    <property name="center">0</property>
    <property name="center_bias">0</property>
    <property name="use_profile">1</property>
    <property name="kdenlive:collapsed">0</property>
   </filter>
  </entry>
  <entry in="00:00:00.000" out="00:00:00.400" producer="chain4">
   <property name="kdenlive:id">42</property>
   <filter id="filter53">
    <property name="rotate_center">1</property>
    <property name="mlt_service">qtblend</property>
    <property name="kdenlive_id">qtblend</property>
    <property name="compositing">0</property>
    <property name="distort">0</property>
    <property name="rect">00:00:00.000=-441 12 1920 1920 1.000000</property>
    <property name="rotation">00:00:00.000=0</property>
    <property name="kdenlive:collapsed">0</property>
   </filter>
  </entry>
  <blank length="00:00:01.800"/>
  <entry in="00:00:00.000" out="00:00:00.000" producer="producer16">
   <property name="kdenlive:id">40</property>
   <filter id="filter54">
    <property name="rotate_center">1</property>
    <property name="mlt_service">qtblend</property>
    <property name="kdenlive_id">qtblend</property>
    <property name="compositing">0</property>
    <property name="distort">0</property>
    <property name="rect">00:00:00.000=634 6 1920 1920 1.000000</property>
    <property name="rotation">00:00:00.000=0</property>
    <property name="kdenlive:collapsed">0</property>
   </filter>
   <filter id="filter55">
    <property name="mlt_service">crop</property>
    <property name="kdenlive_id">crop</property>
    <property name="top">0</property>
    <property name="left">221</property>
    <property name="bottom">0</property>
    <property name="right">0</property>
    <property name="center">0</property>
    <property name="center_bias">0</property>
    <property name="use_profile">1</property>
    <property name="kdenlive:collapsed">0</property>
   </filter>
  </entry>
  <entry in="00:00:00.000" out="00:00:00.067" producer="producer16">
   <property name="kdenlive:id">40</property>
   <filter id="filter56">
    <property name="rotate_center">1</property>
    <property name="mlt_service">qtblend</property>
    <property name="kdenlive_id">qtblend</property>
    <property name="compositing">0</property>
    <property name="distort">0</property>
    <property name="rect">00:00:00.000=-195 -19 1323 1295 1.000000</property>
    <property name="rotation">00:00:00.000=0</property>
    <property name="kdenlive:collapsed">0</property>
   </filter>
  </entry>
 </playlist>
 <playlist id="playlist27"/>
 <tractor id="tractor13" in="00:00:00.000" out="00:00:19.400">
  <property name="kdenlive:trackheight">67</property>
  <property name="kdenlive:timeline_active">1</property>
  <property name="kdenlive:collapsed">0</property>
  <property name="kdenlive:thumbs_format"/>
  <property name="kdenlive:audio_rec"/>
  <track hide="audio" producer="playlist26"/>
  <track hide="audio" producer="playlist27"/>
 </tractor>
 <playlist id="playlist28">
  <blank length="00:00:19.333"/>
  <entry in="00:00:00.000" out="00:00:00.067" producer="producer16">
   <property name="kdenlive:id">40</property>
   <filter id="filter57">
    <property name="rotate_center">1</property>
    <property name="mlt_service">qtblend</property>
    <property name="kdenlive_id">qtblend</property>
    <property name="compositing">0</property>
    <property name="distort">0</property>
    <property name="rect">00:00:00.000=733 -21 1357 1357 1.000000</property>
    <property name="rotation">00:00:00.000=0</property>
    <property name="kdenlive:collapsed">0</property>
   </filter>
   <filter id="filter58">
    <property name="mlt_service">crop</property>
    <property name="kdenlive_id">crop</property>
    <property name="top">0</property>
    <property name="left">243</property>
    <property name="bottom">0</property>
    <property name="right">110</property>
    <property name="center">0</property>
    <property name="center_bias">0</property>
    <property name="use_profile">1</property>
    <property name="kdenlive:collapsed">0</property>
   </filter>
  </entry>
 </playlist>
 <playlist id="playlist29"/>
 <tractor id="tractor14" in="00:00:00.000" out="00:00:19.400">
  <property name="kdenlive:trackheight">67</property>
  <property name="kdenlive:timeline_active">1</property>
  <property name="kdenlive:collapsed">0</property>
  <property name="kdenlive:thumbs_format"/>
  <property name="kdenlive:audio_rec"/>
  <track hide="audio" producer="playlist28"/>
  <track hide="audio" producer="playlist29"/>
 </tractor>
 <playlist id="playlist30"/>
 <playlist id="playlist31"/>
 <tractor id="tractor15" in="00:00:00.000">
  <property name="kdenlive:trackheight">67</property>
  <property name="kdenlive:timeline_active">1</property>
  <property name="kdenlive:collapsed">0</property>
  <property name="kdenlive:thumbs_format"/>
  <property name="kdenlive:audio_rec"/>
  <track hide="audio" producer="playlist30"/>
  <track hide="audio" producer="playlist31"/>
 </tractor>
 <playlist id="playlist32"/>
 <playlist id="playlist33"/>
 <tractor id="tractor16" in="00:00:00.000">
  <property name="kdenlive:trackheight">67</property>
  <property name="kdenlive:timeline_active">1</property>
  <property name="kdenlive:collapsed">0</property>
  <property name="kdenlive:thumbs_format"/>
  <property name="kdenlive:audio_rec"/>
  <track hide="audio" producer="playlist32"/>
  <track hide="audio" producer="playlist33"/>
 </tractor>
 <playlist id="playlist34"/>
 <playlist id="playlist35"/>
 <tractor id="tractor17" in="00:00:00.000">
  <property name="kdenlive:trackheight">67</property>
  <property name="kdenlive:timeline_active">1</property>
  <property name="kdenlive:collapsed">0</property>
  <property name="kdenlive:thumbs_format"/>
  <property name="kdenlive:audio_rec"/>
  <track hide="audio" producer="playlist34"/>
  <track hide="audio" producer="playlist35"/>
 </tractor>
 <playlist id="playlist36">
  <property name="kdenlive:playlistid">timeline_preview</property>
 </playlist>
 <tractor id="tractor18" in="00:00:00.000" out="00:01:09.000">
  <property name="kdenlive:duration">00:01:09.067</property>
  <property name="kdenlive:maxduration">1036</property>
  <property name="kdenlive:clipname">Sequence 1</property>
  <property name="kdenlive:description"/>
  <property name="kdenlive:uuid">{21539263-3cf9-4533-becf-ddf070b54995}</property>
  <property name="kdenlive:producer_type">17</property>
  <property name="kdenlive:control_uuid">{21539263-3cf9-4533-becf-ddf070b54995}</property>
  <property name="kdenlive:id">3</property>
  <property name="kdenlive:clip_type">0</property>
  <property name="kdenlive:file_hash">3298b24f5974f64b63a1996af861b2ee</property>
  <property name="kdenlive:folderid">2</property>
  <property name="kdenlive:sequenceproperties.activeTrack">8</property>
  <property name="kdenlive:sequenceproperties.audioTarget">1</property>
  <property name="kdenlive:sequenceproperties.dirtypreviewchunks">0-300</property>
  <property name="kdenlive:sequenceproperties.disablepreview">0</property>
  <property name="kdenlive:sequenceproperties.documentuuid">{21539263-3cf9-4533-becf-ddf070b54995}</property>
  <property name="kdenlive:sequenceproperties.hasAudio">1</property>
  <property name="kdenlive:sequenceproperties.hasVideo">1</property>
  <property name="kdenlive:sequenceproperties.position">177</property>
  <property name="kdenlive:sequenceproperties.scrollPos">4985</property>
  <property name="kdenlive:sequenceproperties.tracks">4</property>
  <property name="kdenlive:sequenceproperties.tracksCount">17</property>
  <property name="kdenlive:sequenceproperties.verticalzoom">1</property>
  <property name="kdenlive:sequenceproperties.videoTarget">2</property>
  <property name="kdenlive:sequenceproperties.zonein">0</property>
  <property name="kdenlive:sequenceproperties.zoneout">337</property>
  <property name="kdenlive:sequenceproperties.zoom">1</property>
  <property name="kdenlive:sequenceproperties.groups">[
]
</property>
  <property name="kdenlive:sequenceproperties.guides">[
    {
        "comment": "Marker",
        "pos": 116,
        "type": 0
    }
]
</property>
  <property name="kdenlive:sequenceproperties.previewchunks"/>
  <track producer="producer0"/>
  <track producer="tractor0"/>
  <track producer="tractor1"/>
  <track producer="tractor2"/>
  <track producer="tractor3"/>
  <track producer="tractor4"/>
  <track producer="tractor5"/>
  <track producer="tractor6"/>
  <track producer="tractor7"/>
  <track producer="tractor8"/>
  <track producer="tractor9"/>
  <track producer="tractor10"/>
  <track producer="tractor11"/>
  <track producer="tractor12"/>
  <track producer="tractor13"/>
  <track producer="tractor14"/>
  <track producer="tractor15"/>
  <track producer="tractor16"/>
  <track producer="tractor17"/>
  <track hide="both" producer="playlist36"/>
  <transition id="transition0">
   <property name="a_track">0</property>
   <property name="b_track">1</property>
   <property name="mlt_service">mix</property>
   <property name="kdenlive_id">mix</property>
   <property name="internal_added">237</property>
   <property name="always_active">1</property>
   <property name="accepts_blanks">1</property>
   <property name="sum">1</property>
  </transition>
  <transition id="transition1">
   <property name="a_track">0</property>
   <property name="b_track">2</property>
   <property name="mlt_service">mix</property>
   <property name="kdenlive_id">mix</property>
   <property name="internal_added">237</property>
   <property name="always_active">1</property>
   <property name="accepts_blanks">1</property>
   <property name="sum">1</property>
  </transition>
  <transition id="transition2">
   <property name="a_track">0</property>
   <property name="b_track">3</property>
   <property name="mlt_service">mix</property>
   <property name="kdenlive_id">mix</property>
   <property name="internal_added">237</property>
   <property name="always_active">1</property>
   <property name="accepts_blanks">1</property>
   <property name="sum">1</property>
  </transition>
  <transition id="transition3">
   <property name="a_track">0</property>
   <property name="b_track">4</property>
   <property name="mlt_service">mix</property>
   <property name="kdenlive_id">mix</property>
   <property name="internal_added">237</property>
   <property name="always_active">1</property>
   <property name="accepts_blanks">1</property>
   <property name="sum">1</property>
  </transition>
  <transition id="transition4">
   <property name="a_track">0</property>
   <property name="b_track">5</property>
   <property name="mlt_service">mix</property>
   <property name="kdenlive_id">mix</property>
   <property name="internal_added">237</property>
   <property name="always_active">1</property>
   <property name="accepts_blanks">1</property>
   <property name="sum">1</property>
  </transition>
  <transition id="transition5">
   <property name="a_track">0</property>
   <property name="b_track">6</property>
   <property name="mlt_service">mix</property>
   <property name="kdenlive_id">mix</property>
   <property name="internal_added">237</property>
   <property name="always_active">1</property>
   <property name="accepts_blanks">1</property>
   <property name="sum">1</property>
  </transition>
  <transition id="transition6">
   <property name="a_track">0</property>
   <property name="b_track">7</property>
   <property name="mlt_service">mix</property>
   <property name="kdenlive_id">mix</property>
   <property name="internal_added">237</property>
   <property name="always_active">1</property>
   <property name="accepts_blanks">1</property>
   <property name="sum">1</property>
  </transition>
  <transition id="transition7">
   <property name="a_track">0</property>
   <property name="b_track">8</property>
   <property name="compositing">0</property>
   <property name="distort">0</property>
   <property name="rotate_center">0</property>
   <property name="mlt_service">qtblend</property>
   <property name="kdenlive_id">qtblend</property>
   <property name="internal_added">237</property>
   <property name="always_active">1</property>
  </transition>
  <transition id="transition8">
   <property name="a_track">0</property>
   <property name="b_track">9</property>
   <property name="compositing">0</property>
   <property name="distort">0</property>
   <property name="rotate_center">0</property>
   <property name="mlt_service">qtblend</property>
   <property name="kdenlive_id">qtblend</property>
   <property name="internal_added">237</property>
   <property name="always_active">1</property>
  </transition>
  <transition id="transition9">
   <property name="a_track">0</property>
   <property name="b_track">10</property>
   <property name="compositing">0</property>
   <property name="distort">0</property>
   <property name="rotate_center">0</property>
   <property name="mlt_service">qtblend</property>
   <property name="kdenlive_id">qtblend</property>
   <property name="internal_added">237</property>
   <property name="always_active">1</property>
  </transition>
  <transition id="transition10">
   <property name="a_track">0</property>
   <property name="b_track">11</property>
   <property name="compositing">0</property>
   <property name="distort">0</property>
   <property name="rotate_center">0</property>
   <property name="mlt_service">qtblend</property>
   <property name="kdenlive_id">qtblend</property>
   <property name="internal_added">237</property>
   <property name="always_active">1</property>
  </transition>
  <transition id="transition11">
   <property name="a_track">0</property>
   <property name="b_track">12</property>
   <property name="compositing">0</property>
   <property name="distort">0</property>
   <property name="rotate_center">0</property>
   <property name="mlt_service">qtblend</property>
   <property name="kdenlive_id">qtblend</property>
   <property name="internal_added">237</property>
   <property name="always_active">1</property>
  </transition>
  <transition id="transition12">
   <property name="a_track">0</property>
   <property name="b_track">13</property>
   <property name="compositing">0</property>
   <property name="distort">0</property>
   <property name="rotate_center">0</property>
   <property name="mlt_service">qtblend</property>
   <property name="kdenlive_id">qtblend</property>
   <property name="internal_added">237</property>
   <property name="always_active">1</property>
  </transition>
  <transition id="transition13">
   <property name="a_track">0</property>
   <property name="b_track">14</property>
   <property name="compositing">0</property>
   <property name="distort">0</property>
   <property name="rotate_center">0</property>
   <property name="mlt_service">qtblend</property>
   <property name="kdenlive_id">qtblend</property>
   <property name="internal_added">237</property>
   <property name="always_active">1</property>
  </transition>
  <transition id="transition14">
   <property name="a_track">0</property>
   <property name="b_track">15</property>
   <property name="compositing">0</property>
   <property name="distort">0</property>
   <property name="rotate_center">0</property>
   <property name="mlt_service">qtblend</property>
   <property name="kdenlive_id">qtblend</property>
   <property name="internal_added">237</property>
   <property name="always_active">1</property>
  </transition>
  <transition id="transition15">
   <property name="a_track">0</property>
   <property name="b_track">16</property>
   <property name="compositing">0</property>
   <property name="distort">0</property>
   <property name="rotate_center">0</property>
   <property name="mlt_service">qtblend</property>
   <property name="kdenlive_id">qtblend</property>
   <property name="internal_added">237</property>
   <property name="always_active">1</property>
  </transition>
  <transition id="transition16">
   <property name="a_track">0</property>
   <property name="b_track">17</property>
   <property name="compositing">0</property>
   <property name="distort">0</property>
   <property name="rotate_center">0</property>
   <property name="mlt_service">qtblend</property>
   <property name="kdenlive_id">qtblend</property>
   <property name="internal_added">237</property>
   <property name="always_active">1</property>
  </transition>
  <transition id="transition17">
   <property name="a_track">0</property>
   <property name="b_track">18</property>
   <property name="compositing">0</property>
   <property name="distort">0</property>
   <property name="rotate_center">0</property>
   <property name="mlt_service">qtblend</property>
   <property name="kdenlive_id">qtblend</property>
   <property name="internal_added">237</property>
   <property name="always_active">1</property>
  </transition>
  <filter id="filter59">
   <property name="window">75</property>
   <property name="max_gain">20dB</property>
   <property name="mlt_service">volume</property>
   <property name="internal_added">237</property>
   <property name="disable">1</property>
  </filter>
  <filter id="filter60">
   <property name="channel">-1</property>
   <property name="mlt_service">panner</property>
   <property name="internal_added">237</property>
   <property name="start">0.5</property>
   <property name="disable">1</property>
  </filter>
 </tractor>
 <producer id="producer39" in="00:00:00.000" out="00:00:04.933">
  <property name="length">75</property>
  <property name="eof">pause</property>
  <property name="resource"/>
  <property name="meta.media.progressive">1</property>
  <property name="aspect_ratio">1</property>
  <property name="seekable">1</property>
  <property name="mlt_service">kdenlivetitle</property>
  <property name="kdenlive:duration">00:00:05:00</property>
  <property name="kdenlive:clipname">In 30 Second...</property>
  <property name="xmldata">&lt;kdenlivetitle LC_NUMERIC="C" duration="75" height="1920" out="74" width="1920">
 &lt;item type="QGraphicsTextItem" z-index="0">
  &lt;position x="627" y="1452">
   &lt;transform>1,0,0,0,1,0,0,0,1&lt;/transform>
  &lt;/position>
  &lt;content alignment="0" box-height="74" box-width="352.547" font="Noto Sans" font-color="255,255,255,255" font-italic="0" font-outline="0" font-outline-color="0,0,0,255" font-pixel-size="54" font-underline="0" font-weight="400" letter-spacing="0" shadow="0;#64000000;3;3;3" tab-width="80" typewriter="0;2;1;0;0">In 30 Seconds&lt;/content>
 &lt;/item>
 &lt;startviewport rect="0,0,1920,1920"/>
 &lt;endviewport rect="0,0,1920,1920"/>
 &lt;background color="0,0,0,0"/>
&lt;/kdenlivetitle>
</property>
  <property name="xml">was here</property>
  <property name="kdenlive:folderid">28</property>
  <property name="kdenlive:id">21</property>
  <property name="kdenlive:control_uuid">{5db37e38-e0e2-4177-8af1-e8dcf9c10eee}</property>
  <property name="kdenlive:clip_type">2</property>
  <property name="kdenlive:uniqueId">{2a1bb40c-9fea-4870-8fca-553c0f0d9856}</property>
  <property name="kdenlive:file_hash">146c6afbf9259ebfe1b8b22042ac335a</property>
  <property name="force_reload">0</property>
  <property name="kdenlive:monitorPosition">20</property>
 </producer>
 <chain id="chain5" out="00:02:01.200">
  <property name="length">1819</property>
  <property name="eof">pause</property>
  <property name="resource">/home/schmilly/Downloads/Charli xcx - 365 featuring shygirl (official audio) 4.mp3</property>
  <property name="mlt_service">avformat</property>
  <property name="meta.media.nb_streams">2</property>
  <property name="meta.media.0.stream.type">audio</property>
  <property name="meta.media.0.codec.sample_fmt">fltp</property>
  <property name="meta.media.0.codec.sample_rate">48000</property>
  <property name="meta.media.0.codec.channels">2</property>
  <property name="meta.media.0.codec.layout">stereo</property>
  <property name="meta.media.0.codec.name">mp3float</property>
  <property name="meta.media.0.codec.long_name">MP3 (MPEG audio layer 3)</property>
  <property name="meta.media.0.codec.bit_rate">149868</property>
  <property name="meta.attr.0.stream.encoder.markup">Lavc58.13</property>
  <property name="meta.media.1.stream.type">video</property>
  <property name="meta.media.1.stream.frame_rate">90000</property>
  <property name="meta.media.1.stream.sample_aspect_ratio">0</property>
  <property name="meta.media.1.codec.width">1280</property>
  <property name="meta.media.1.codec.height">720</property>
  <property name="meta.media.1.codec.rotate">0</property>
  <property name="meta.media.1.codec.pix_fmt">rgb24</property>
  <property name="meta.media.1.codec.sample_aspect_ratio">0</property>
  <property name="meta.media.1.codec.colorspace">0</property>
  <property name="meta.media.1.codec.name">png</property>
  <property name="meta.media.1.codec.long_name">PNG (Portable Network Graphics) image</property>
  <property name="meta.media.1.codec.bit_rate">0</property>
  <property name="meta.attr.1.stream.title.markup">"Album cover"</property>
  <property name="meta.attr.1.stream.comment.markup">Cover (front)</property>
  <property name="meta.attr.comment.markup">https://www.youtube.com/watch?v=oslpP-s_w4E</property>
  <property name="meta.attr.title.markup">Charli xcx - 365 featuring shygirl (official audio)</property>
  <property name="meta.attr.artist.markup">Charli xcx</property>
  <property name="meta.attr.encoder.markup">Lavf58.76.100</property>
  <property name="meta.attr.description.markup">Charli xcx - 365 featuring shygirl
Stream: https://charlixcx.lnk.to/bratcompletelydifferentID

Order Brat and it's completely different but also still brat: https://charlixcx.lnk.to/StoreID

BRAT out now: https://charlixcx.lnk.to/BRATdlxID
Order BRAT: https://charlixcx.lnk.to/StoreID

Text 1-310-861-2831

https://charlixcx.com/
https://www.tiktok.com/@charlixcx 
https://www.instagram.com/charli_xcx
https://twitter.com/charli_xcx
https://www.youtube.com/@officialcharlixcx
https://facebook.com/charlixcxmusic

#Charlixcx #365 #shygirl #officialaudio</property>
  <property name="meta.attr.synopsis.markup">Charli xcx - 365 featuring shygirl
Stream: https://charlixcx.lnk.to/bratcompletelydifferentID

Order Brat and it's completely different but also still brat: https://charlixcx.lnk.to/StoreID

BRAT out now: https://charlixcx.lnk.to/BRATdlxID
Order BRAT: https://charlixcx.lnk.to/StoreID

Text 1-310-861-2831

https://charlixcx.com/
https://www.tiktok.com/@charlixcx 
https://www.instagram.com/charli_xcx
https://twitter.com/charli_xcx
https://www.youtube.com/@officialcharlixcx
https://facebook.com/charlixcxmusic

#Charlixcx #365 #shygirl #officialaudio</property>
  <property name="meta.attr.purl.markup">https://www.youtube.com/watch?v=oslpP-s_w4E</property>
  <property name="meta.attr.date.markup">2024</property>
  <property name="seekable">1</property>
  <property name="meta.media.sample_aspect_num">1</property>
  <property name="meta.media.sample_aspect_den">1</property>
  <property name="format">3</property>
  <property name="audio_index">0</property>
  <property name="video_index">-1</property>
  <property name="astream">0</property>
  <property name="vstream">-1</property>
  <property name="kdenlive:control_uuid">{fc83938c-acdd-4d2c-8e07-ac1856ce759c}</property>
  <property name="kdenlive:id">4</property>
  <property name="kdenlive:clip_type">1</property>
  <property name="kdenlive:file_size">2372722</property>
  <property name="kdenlive:file_hash">751c63c2f3174cc0ef044387f6bc73e8</property>
  <property name="kdenlive:folderid">-1</property>
  <property name="kdenlive:audio_max0">256</property>
 </chain>
 <chain id="chain6" out="00:01:52.400">
  <property name="length">1687</property>
  <property name="eof">pause</property>
  <property name="resource">/home/schmilly/Downloads/Snapinsta.app_video_AQN_aOj9Z9cVqWd2t-0apPQvxI41SmquY7ZoMtebjN9RI7HXMyQo2keM-Nl1oGgvNj3KBQLqQlh5WMtY3aIhDyHPtSG5yoODnFEsYEQ.mp4</property>
  <property name="mlt_service">avformat</property>
  <property name="meta.media.nb_streams">2</property>
  <property name="meta.media.0.stream.type">video</property>
  <property name="meta.media.0.stream.frame_rate">30</property>
  <property name="meta.media.0.stream.sample_aspect_ratio">0</property>
  <property name="meta.media.0.codec.width">720</property>
  <property name="meta.media.0.codec.height">1280</property>
  <property name="meta.media.0.codec.rotate">0</property>
  <property name="meta.media.0.codec.pix_fmt">yuv420p</property>
  <property name="meta.media.0.codec.sample_aspect_ratio">0</property>
  <property name="meta.media.0.codec.colorspace">709</property>
  <property name="meta.media.0.codec.color_trc">1</property>
  <property name="meta.media.0.codec.name">h264</property>
  <property name="meta.media.0.codec.long_name">H.264 / AVC / MPEG-4 AVC / MPEG-4 part 10</property>
  <property name="meta.media.0.codec.bit_rate">2533744</property>
  <property name="meta.attr.0.stream.handler_name.markup">VideoHandler</property>
  <property name="meta.attr.0.stream.vendor_id.markup">[0][0][0][0]</property>
  <property name="meta.attr.0.stream.encoder.markup">AVC Coding</property>
  <property name="meta.media.1.stream.type">audio</property>
  <property name="meta.media.1.codec.sample_fmt">fltp</property>
  <property name="meta.media.1.codec.sample_rate">44100</property>
  <property name="meta.media.1.codec.channels">2</property>
  <property name="meta.media.1.codec.layout">stereo</property>
  <property name="meta.media.1.codec.name">aac</property>
  <property name="meta.media.1.codec.long_name">AAC (Advanced Audio Coding)</property>
  <property name="meta.media.1.codec.bit_rate">87450</property>
  <property name="meta.attr.1.stream.handler_name.markup">SoundHandler</property>
  <property name="meta.attr.1.stream.vendor_id.markup">[0][0][0][0]</property>
  <property name="meta.attr.major_brand.markup">isom</property>
  <property name="meta.attr.minor_version.markup">512</property>
  <property name="meta.attr.compatible_brands.markup">isomiso2avc1mp41</property>
  <property name="seekable">1</property>
  <property name="meta.media.sample_aspect_num">1</property>
  <property name="meta.media.sample_aspect_den">1</property>
  <property name="format">3</property>
  <property name="audio_index">1</property>
  <property name="video_index">0</property>
  <property name="vstream">0</property>
  <property name="meta.media.frame_rate_num">30</property>
  <property name="meta.media.frame_rate_den">1</property>
  <property name="meta.media.colorspace">709</property>
  <property name="meta.media.color_trc">1</property>
  <property name="meta.media.has_b_frames">2</property>
  <property name="meta.media.width">720</property>
  <property name="meta.media.height">1280</property>
  <property name="meta.media.aspect_ratio">1</property>
  <property name="meta.media.color_range">mpeg</property>
  <property name="astream">0</property>
  <property name="meta.media.top_field_first">0</property>
  <property name="meta.media.progressive">1</property>
  <property name="kdenlive:control_uuid">{66d5305f-da2b-43fd-aeee-a8c8dbafe24c}</property>
  <property name="kdenlive:id">6</property>
  <property name="kdenlive:clip_type">0</property>
  <property name="kdenlive:file_size">36911800</property>
  <property name="kdenlive:file_hash">7a68e1a4742e1557c498eb58ca385485</property>
  <property name="kdenlive:folderid">-1</property>
  <property name="kdenlive:audio_max1">210</property>
 </chain>
 <chain id="chain7" out="00:04:11.067">
  <property name="length">3767</property>
  <property name="eof">pause</property>
  <property name="resource">/home/schmilly/Downloads/Snapinsta.app_video_AQM1KdYbIIdOkdcbdaCILpkWffSeNNOs_VrNQ4_RhOGJQgHfDhw6LFQd_8h4s15np9TyXp34iYqgWxPugsPOpFXWVsLoLxGvWtgpyI8.mp4</property>
  <property name="mlt_service">avformat</property>
  <property name="meta.media.nb_streams">2</property>
  <property name="meta.media.0.stream.type">video</property>
  <property name="meta.media.0.stream.frame_rate">30</property>
  <property name="meta.media.0.stream.sample_aspect_ratio">0</property>
  <property name="meta.media.0.codec.width">720</property>
  <property name="meta.media.0.codec.height">1280</property>
  <property name="meta.media.0.codec.rotate">0</property>
  <property name="meta.media.0.codec.pix_fmt">yuv420p</property>
  <property name="meta.media.0.codec.sample_aspect_ratio">0</property>
  <property name="meta.media.0.codec.colorspace">709</property>
  <property name="meta.media.0.codec.color_trc">1</property>
  <property name="meta.media.0.codec.name">h264</property>
  <property name="meta.media.0.codec.long_name">H.264 / AVC / MPEG-4 AVC / MPEG-4 part 10</property>
  <property name="meta.media.0.codec.bit_rate">952853</property>
  <property name="meta.attr.0.stream.handler_name.markup">VideoHandler</property>
  <property name="meta.attr.0.stream.vendor_id.markup">[0][0][0][0]</property>
  <property name="meta.attr.0.stream.encoder.markup">AVC Coding</property>
  <property name="meta.media.1.stream.type">audio</property>
  <property name="meta.media.1.codec.sample_fmt">fltp</property>
  <property name="meta.media.1.codec.sample_rate">44100</property>
  <property name="meta.media.1.codec.channels">2</property>
  <property name="meta.media.1.codec.layout">stereo</property>
  <property name="meta.media.1.codec.name">aac</property>
  <property name="meta.media.1.codec.long_name">AAC (Advanced Audio Coding)</property>
  <property name="meta.media.1.codec.bit_rate">51707</property>
  <property name="meta.attr.1.stream.handler_name.markup">SoundHandler</property>
  <property name="meta.attr.1.stream.vendor_id.markup">[0][0][0][0]</property>
  <property name="meta.attr.major_brand.markup">isom</property>
  <property name="meta.attr.minor_version.markup">512</property>
  <property name="meta.attr.compatible_brands.markup">isomiso2avc1mp41</property>
  <property name="seekable">1</property>
  <property name="meta.media.sample_aspect_num">1</property>
  <property name="meta.media.sample_aspect_den">1</property>
  <property name="format">3</property>
  <property name="audio_index">1</property>
  <property name="video_index">0</property>
  <property name="vstream">0</property>
  <property name="meta.media.frame_rate_num">30</property>
  <property name="meta.media.frame_rate_den">1</property>
  <property name="meta.media.colorspace">709</property>
  <property name="meta.media.color_trc">1</property>
  <property name="meta.media.has_b_frames">2</property>
  <property name="meta.media.width">720</property>
  <property name="meta.media.height">1280</property>
  <property name="meta.media.aspect_ratio">1</property>
  <property name="meta.media.color_range">mpeg</property>
  <property name="astream">0</property>
  <property name="meta.media.top_field_first">0</property>
  <property name="meta.media.progressive">1</property>
  <property name="kdenlive:control_uuid">{b9fbdda5-2175-4a29-8540-1dd4f6b8d4cc}</property>
  <property name="kdenlive:id">7</property>
  <property name="kdenlive:clip_type">0</property>
  <property name="kdenlive:file_size">31730153</property>
  <property name="kdenlive:file_hash">041d5f1ab147ebc4d42a25feffa032eb</property>
  <property name="kdenlive:folderid">-1</property>
  <property name="kdenlive:audio_max1">227</property>
 </chain>
 <chain id="chain8" out="00:00:39.533">
  <property name="length">594</property>
  <property name="eof">pause</property>
  <property name="resource">/home/schmilly/Downloads/Snapinsta.app_video_AQOQuqFCeDSXydP-CaryKzl5sOIpkmAUJLetswJaKp_pol64P4qjbZcu-xpRnpt34wN5SEljOGhs-3Zn11pszoo8c5rqdEfaRijXHnQ.mp4</property>
  <property name="mlt_service">avformat</property>
  <property name="meta.media.nb_streams">2</property>
  <property name="meta.media.0.stream.type">video</property>
  <property name="meta.media.0.stream.frame_rate">30</property>
  <property name="meta.media.0.stream.sample_aspect_ratio">0</property>
  <property name="meta.media.0.codec.width">720</property>
  <property name="meta.media.0.codec.height">1280</property>
  <property name="meta.media.0.codec.rotate">0</property>
  <property name="meta.media.0.codec.pix_fmt">yuv420p</property>
  <property name="meta.media.0.codec.sample_aspect_ratio">0</property>
  <property name="meta.media.0.codec.colorspace">709</property>
  <property name="meta.media.0.codec.color_trc">1</property>
  <property name="meta.media.0.codec.name">h264</property>
  <property name="meta.media.0.codec.long_name">H.264 / AVC / MPEG-4 AVC / MPEG-4 part 10</property>
  <property name="meta.media.0.codec.bit_rate">2125767</property>
  <property name="meta.attr.0.stream.handler_name.markup">VideoHandler</property>
  <property name="meta.attr.0.stream.vendor_id.markup">[0][0][0][0]</property>
  <property name="meta.attr.0.stream.encoder.markup">AVC Coding</property>
  <property name="meta.media.1.stream.type">audio</property>
  <property name="meta.media.1.codec.sample_fmt">fltp</property>
  <property name="meta.media.1.codec.sample_rate">44100</property>
  <property name="meta.media.1.codec.channels">2</property>
  <property name="meta.media.1.codec.layout">stereo</property>
  <property name="meta.media.1.codec.name">aac</property>
  <property name="meta.media.1.codec.long_name">AAC (Advanced Audio Coding)</property>
  <property name="meta.media.1.codec.bit_rate">44600</property>
  <property name="meta.attr.1.stream.handler_name.markup">SoundHandler</property>
  <property name="meta.attr.1.stream.vendor_id.markup">[0][0][0][0]</property>
  <property name="meta.attr.major_brand.markup">isom</property>
  <property name="meta.attr.minor_version.markup">512</property>
  <property name="meta.attr.compatible_brands.markup">isomiso2avc1mp41</property>
  <property name="seekable">1</property>
  <property name="meta.media.sample_aspect_num">1</property>
  <property name="meta.media.sample_aspect_den">1</property>
  <property name="format">3</property>
  <property name="audio_index">1</property>
  <property name="video_index">0</property>
  <property name="vstream">0</property>
  <property name="meta.media.frame_rate_num">30</property>
  <property name="meta.media.frame_rate_den">1</property>
  <property name="meta.media.colorspace">709</property>
  <property name="meta.media.color_trc">1</property>
  <property name="meta.media.has_b_frames">2</property>
  <property name="meta.media.width">720</property>
  <property name="meta.media.height">1280</property>
  <property name="meta.media.aspect_ratio">1</property>
  <property name="meta.media.color_range">mpeg</property>
  <property name="astream">0</property>
  <property name="meta.media.top_field_first">0</property>
  <property name="meta.media.progressive">1</property>
  <property name="kdenlive:control_uuid">{50130ab3-3c43-47dd-a4bb-317e55c84979}</property>
  <property name="kdenlive:id">5</property>
  <property name="kdenlive:clip_type">0</property>
  <property name="kdenlive:file_size">10750471</property>
  <property name="kdenlive:file_hash">f3065b5585d4545bfb7622a181ec8704</property>
  <property name="kdenlive:folderid">-1</property>
  <property name="kdenlive:audio_max1">187</property>
 </chain>
 <chain id="chain9" out="00:00:27.200">
  <property name="length">409</property>
  <property name="eof">pause</property>
  <property name="resource">/home/schmilly/Downloads/Snapinsta.app_video_AQNsrs8PekU73SJe5m7w2zEJLpHCLwFqXoL8B9NYodfXaHJe2V2qlQk19F726kyR_2kFVw7N4tIHSayJUBhPGFgDpPe1w5mhCLqHZqU.mp4</property>
  <property name="mlt_service">avformat</property>
  <property name="meta.media.nb_streams">2</property>
  <property name="meta.media.0.stream.type">video</property>
  <property name="meta.media.0.stream.frame_rate">30</property>
  <property name="meta.media.0.stream.sample_aspect_ratio">0</property>
  <property name="meta.media.0.codec.width">720</property>
  <property name="meta.media.0.codec.height">1280</property>
  <property name="meta.media.0.codec.rotate">0</property>
  <property name="meta.media.0.codec.pix_fmt">yuv420p</property>
  <property name="meta.media.0.codec.sample_aspect_ratio">0</property>
  <property name="meta.media.0.codec.colorspace">709</property>
  <property name="meta.media.0.codec.color_trc">1</property>
  <property name="meta.media.0.codec.name">h264</property>
  <property name="meta.media.0.codec.long_name">H.264 / AVC / MPEG-4 AVC / MPEG-4 part 10</property>
  <property name="meta.media.0.codec.bit_rate">1238755</property>
  <property name="meta.attr.0.stream.handler_name.markup">VideoHandler</property>
  <property name="meta.attr.0.stream.vendor_id.markup">[0][0][0][0]</property>
  <property name="meta.attr.0.stream.encoder.markup">AVC Coding</property>
  <property name="meta.media.1.stream.type">audio</property>
  <property name="meta.media.1.codec.sample_fmt">fltp</property>
  <property name="meta.media.1.codec.sample_rate">44100</property>
  <property name="meta.media.1.codec.channels">2</property>
  <property name="meta.media.1.codec.layout">stereo</property>
  <property name="meta.media.1.codec.name">aac</property>
  <property name="meta.media.1.codec.long_name">AAC (Advanced Audio Coding)</property>
  <property name="meta.media.1.codec.bit_rate">86652</property>
  <property name="meta.attr.1.stream.handler_name.markup">SoundHandler</property>
  <property name="meta.attr.1.stream.vendor_id.markup">[0][0][0][0]</property>
  <property name="meta.attr.major_brand.markup">isom</property>
  <property name="meta.attr.minor_version.markup">512</property>
  <property name="meta.attr.compatible_brands.markup">isomiso2avc1mp41</property>
  <property name="seekable">1</property>
  <property name="meta.media.sample_aspect_num">1</property>
  <property name="meta.media.sample_aspect_den">1</property>
  <property name="format">3</property>
  <property name="audio_index">1</property>
  <property name="video_index">0</property>
  <property name="vstream">0</property>
  <property name="meta.media.frame_rate_num">30</property>
  <property name="meta.media.frame_rate_den">1</property>
  <property name="meta.media.colorspace">709</property>
  <property name="meta.media.color_trc">1</property>
  <property name="meta.media.has_b_frames">2</property>
  <property name="meta.media.width">720</property>
  <property name="meta.media.height">1280</property>
  <property name="meta.media.aspect_ratio">1</property>
  <property name="meta.media.color_range">mpeg</property>
  <property name="astream">0</property>
  <property name="meta.media.top_field_first">0</property>
  <property name="meta.media.progressive">1</property>
  <property name="kdenlive:control_uuid">{85b34727-78d5-45fe-bee4-ffafe7535571}</property>
  <property name="kdenlive:id">8</property>
  <property name="kdenlive:clip_type">0</property>
  <property name="kdenlive:file_size">4525640</property>
  <property name="kdenlive:file_hash">823814d419c828922bb98e577f9886fa</property>
  <property name="kdenlive:folderid">-1</property>
  <property name="kdenlive:audio_max1">225</property>
 </chain>
 <chain id="chain10" out="00:02:10.000">
  <property name="length">1951</property>
  <property name="eof">pause</property>
  <property name="resource">/home/schmilly/Downloads/Rental affordability in Australia the worst it's ever been, report says _ ABC News 720.mp4</property>
  <property name="mlt_service">avformat</property>
  <property name="meta.media.nb_streams">3</property>
  <property name="meta.media.0.stream.type">video</property>
  <property name="meta.media.0.stream.frame_rate">25</property>
  <property name="meta.media.0.stream.sample_aspect_ratio">1</property>
  <property name="meta.media.0.codec.width">1280</property>
  <property name="meta.media.0.codec.height">720</property>
  <property name="meta.media.0.codec.rotate">0</property>
  <property name="meta.media.0.codec.pix_fmt">yuv420p</property>
  <property name="meta.media.0.codec.sample_aspect_ratio">1</property>
  <property name="meta.media.0.codec.colorspace">709</property>
  <property name="meta.media.0.codec.color_trc">1</property>
  <property name="meta.media.0.codec.name">h264</property>
  <property name="meta.media.0.codec.long_name">H.264 / AVC / MPEG-4 AVC / MPEG-4 part 10</property>
  <property name="meta.media.0.codec.bit_rate">970470</property>
  <property name="meta.attr.0.stream.handler_name.markup">ISO Media file produced by Google Inc.</property>
  <property name="meta.attr.0.stream.vendor_id.markup">[0][0][0][0]</property>
  <property name="meta.media.1.stream.type">audio</property>
  <property name="meta.media.1.codec.sample_fmt">fltp</property>
  <property name="meta.media.1.codec.sample_rate">44100</property>
  <property name="meta.media.1.codec.channels">2</property>
  <property name="meta.media.1.codec.layout">stereo</property>
  <property name="meta.media.1.codec.name">aac</property>
  <property name="meta.media.1.codec.long_name">AAC (Advanced Audio Coding)</property>
  <property name="meta.media.1.codec.bit_rate">127999</property>
  <property name="meta.attr.1.stream.language.markup">eng</property>
  <property name="meta.attr.1.stream.handler_name.markup">ISO Media file produced by Google Inc.</property>
  <property name="meta.attr.1.stream.vendor_id.markup">[0][0][0][0]</property>
  <property name="meta.media.2.stream.type">video</property>
  <property name="meta.media.2.stream.frame_rate">90000</property>
  <property name="meta.media.2.stream.sample_aspect_ratio">0</property>
  <property name="meta.media.2.codec.width">1280</property>
  <property name="meta.media.2.codec.height">720</property>
  <property name="meta.media.2.codec.rotate">0</property>
  <property name="meta.media.2.codec.pix_fmt">rgb24</property>
  <property name="meta.media.2.codec.sample_aspect_ratio">0</property>
  <property name="meta.media.2.codec.colorspace">0</property>
  <property name="meta.media.2.codec.name">png</property>
  <property name="meta.media.2.codec.long_name">PNG (Portable Network Graphics) image</property>
  <property name="meta.media.2.codec.bit_rate">0</property>
  <property name="meta.attr.major_brand.markup">isom</property>
  <property name="meta.attr.minor_version.markup">512</property>
  <property name="meta.attr.compatible_brands.markup">isomiso2avc1mp41</property>
  <property name="meta.attr.title.markup">Rental affordability in Australia the worst it's ever been, report says | ABC News</property>
  <property name="meta.attr.artist.markup">ABC News (Australia)</property>
  <property name="meta.attr.date.markup">20240423</property>
  <property name="meta.attr.encoder.markup">Lavf58.76.100</property>
  <property name="meta.attr.comment.markup">https://www.youtube.com/watch?v=hliaf_8My40</property>
  <property name="meta.attr.description.markup">There is not a single property across Australia – or even a room in a shared house – that's affordable for someone on youth allowance, according to a new report from support organisation Anglicare Australia.

Subscribe: http://ab.co/1svxLVE
Read more here: https://www.abc.net.au/news/2024-04-23/anglicare-australia-rental-affordability-report/103754274

ABC News provides around the clock coverage of news events as they break in Australia and abroad. It's news when you want it, from Australia's most trusted news organisation.

For more from ABC News, click here: https://ab.co/2kxYCZY
Watch more ABC News content ad-free on ABC iview: https://ab.co/2OB7Mk1

Go deeper on our ABC News In-depth channel: https://ab.co/2lNeBn2
Like ABC News on Facebook: http://facebook.com/abcnews.au
Follow ABC News on Instagram: http://instagram.com/abcnews_au
Follow ABC News on Twitter: http://twitter.com/abcnews

Note: In most cases, our captions are auto-generated.

#ABCNews #ABCNewsAustralia #housing #housingcrisis #rentalproperty</property>
  <property name="meta.attr.synopsis.markup">There is not a single property across Australia – or even a room in a shared house – that's affordable for someone on youth allowance, according to a new report from support organisation Anglicare Australia.

Subscribe: http://ab.co/1svxLVE
Read more here: https://www.abc.net.au/news/2024-04-23/anglicare-australia-rental-affordability-report/103754274

ABC News provides around the clock coverage of news events as they break in Australia and abroad. It's news when you want it, from Australia's most trusted news organisation.

For more from ABC News, click here: https://ab.co/2kxYCZY
Watch more ABC News content ad-free on ABC iview: https://ab.co/2OB7Mk1

Go deeper on our ABC News In-depth channel: https://ab.co/2lNeBn2
Like ABC News on Facebook: http://facebook.com/abcnews.au
Follow ABC News on Instagram: http://instagram.com/abcnews_au
Follow ABC News on Twitter: http://twitter.com/abcnews

Note: In most cases, our captions are auto-generated.

#ABCNews #ABCNewsAustralia #housing #housingcrisis #rentalproperty</property>
  <property name="seekable">1</property>
  <property name="meta.media.sample_aspect_num">1</property>
  <property name="meta.media.sample_aspect_den">1</property>
  <property name="format">3</property>
  <property name="audio_index">1</property>
  <property name="video_index">0</property>
  <property name="vstream">0</property>
  <property name="meta.media.frame_rate_num">25</property>
  <property name="meta.media.frame_rate_den">1</property>
  <property name="meta.media.colorspace">709</property>
  <property name="meta.media.color_trc">1</property>
  <property name="meta.media.has_b_frames">1</property>
  <property name="meta.media.width">1280</property>
  <property name="meta.media.height">720</property>
  <property name="meta.media.aspect_ratio">1</property>
  <property name="meta.media.color_range">mpeg</property>
  <property name="astream">0</property>
  <property name="meta.media.top_field_first">0</property>
  <property name="meta.media.progressive">1</property>
  <property name="kdenlive:control_uuid">{8e129d2e-a0aa-4d17-ad8a-1e7b402559fc}</property>
  <property name="kdenlive:id">9</property>
  <property name="kdenlive:clip_type">0</property>
  <property name="kdenlive:file_size">18476397</property>
  <property name="kdenlive:file_hash">64e6d5b598fa985604676c58d24b3ecc</property>
  <property name="kdenlive:folderid">-1</property>
  <property name="kdenlive:audio_max1">190</property>
 </chain>
 <chain id="chain11" out="00:00:11.000">
  <property name="length">166</property>
  <property name="eof">pause</property>
  <property name="resource">/home/schmilly/Downloads/Snapinsta.app_video_AQOOsAVmPv3qtzSJ44Z-cmU6PK2_7l4ar1HYQkLJ85NdbwWHzHSUAWU9W001DMl1SSfFQzODfS1jghRk9ZVTVdySVALBZBBN4jfZo64-69-76.mp4</property>
  <property name="mlt_service">avformat</property>
  <property name="meta.media.nb_streams">2</property>
  <property name="meta.media.0.stream.type">video</property>
  <property name="meta.media.0.stream.frame_rate">30</property>
  <property name="meta.media.0.stream.sample_aspect_ratio">0</property>
  <property name="meta.media.0.codec.width">720</property>
  <property name="meta.media.0.codec.height">1280</property>
  <property name="meta.media.0.codec.rotate">0</property>
  <property name="meta.media.0.codec.pix_fmt">yuv420p</property>
  <property name="meta.media.0.codec.sample_aspect_ratio">0</property>
  <property name="meta.media.0.codec.colorspace">709</property>
  <property name="meta.media.0.codec.color_trc">1</property>
  <property name="meta.media.0.codec.name">h264</property>
  <property name="meta.media.0.codec.long_name">H.264 / AVC / MPEG-4 AVC / MPEG-4 part 10</property>
  <property name="meta.media.0.codec.bit_rate">719840</property>
  <property name="meta.attr.0.stream.handler_name.markup">VideoHandler</property>
  <property name="meta.attr.0.stream.vendor_id.markup">[0][0][0][0]</property>
  <property name="meta.attr.0.stream.encoder.markup">AVC Coding</property>
  <property name="meta.media.1.stream.type">audio</property>
  <property name="meta.media.1.codec.sample_fmt">fltp</property>
  <property name="meta.media.1.codec.sample_rate">44100</property>
  <property name="meta.media.1.codec.channels">2</property>
  <property name="meta.media.1.codec.layout">stereo</property>
  <property name="meta.media.1.codec.name">aac</property>
  <property name="meta.media.1.codec.long_name">AAC (Advanced Audio Coding)</property>
  <property name="meta.media.1.codec.bit_rate">51196</property>
  <property name="meta.attr.1.stream.handler_name.markup">SoundHandler</property>
  <property name="meta.attr.1.stream.vendor_id.markup">[0][0][0][0]</property>
  <property name="meta.attr.major_brand.markup">isom</property>
  <property name="meta.attr.minor_version.markup">512</property>
  <property name="meta.attr.compatible_brands.markup">isomiso2avc1mp41</property>
  <property name="meta.attr.encoder.markup">Lavf61.7.100</property>
  <property name="seekable">1</property>
  <property name="meta.media.sample_aspect_num">1</property>
  <property name="meta.media.sample_aspect_den">1</property>
  <property name="format">3</property>
  <property name="audio_index">1</property>
  <property name="video_index">0</property>
  <property name="vstream">0</property>
  <property name="meta.media.frame_rate_num">30</property>
  <property name="meta.media.frame_rate_den">1</property>
  <property name="meta.media.colorspace">709</property>
  <property name="meta.media.color_trc">1</property>
  <property name="meta.media.has_b_frames">2</property>
  <property name="meta.media.width">720</property>
  <property name="meta.media.height">1280</property>
  <property name="meta.media.aspect_ratio">1</property>
  <property name="meta.media.color_range">mpeg</property>
  <property name="astream">0</property>
  <property name="meta.media.top_field_first">0</property>
  <property name="meta.media.progressive">1</property>
  <property name="kdenlive:control_uuid">{701ca0c4-388b-46b0-b06a-3d84463b3ac9}</property>
  <property name="kdenlive:id">12</property>
  <property name="kdenlive:clip_type">0</property>
  <property name="kdenlive:file_size">1059174</property>
  <property name="kdenlive:file_hash">3b669e6708b1f7bfc81fdf47e1691c50</property>
  <property name="kdenlive:folderid">-1</property>
  <property name="kdenlive:audio_max1">200</property>
 </chain>
 <chain id="chain12" out="00:01:15.933">
  <property name="length">1140</property>
  <property name="eof">pause</property>
  <property name="resource">/home/schmilly/Downloads/Snapinsta.app_video_AQOOsAVmPv3qtzSJ44Z-cmU6PK2_7l4ar1HYQkLJ85NdbwWHzHSUAWU9W001DMl1SSfFQzODfS1jghRk9ZVTVdySVALBZBBN4jfZo64.mp4</property>
  <property name="mlt_service">avformat</property>
  <property name="meta.media.nb_streams">2</property>
  <property name="meta.media.0.stream.type">video</property>
  <property name="meta.media.0.stream.frame_rate">30</property>
  <property name="meta.media.0.stream.sample_aspect_ratio">0</property>
  <property name="meta.media.0.codec.width">720</property>
  <property name="meta.media.0.codec.height">1280</property>
  <property name="meta.media.0.codec.rotate">0</property>
  <property name="meta.media.0.codec.pix_fmt">yuv420p</property>
  <property name="meta.media.0.codec.sample_aspect_ratio">0</property>
  <property name="meta.media.0.codec.colorspace">709</property>
  <property name="meta.media.0.codec.color_trc">1</property>
  <property name="meta.media.0.codec.name">h264</property>
  <property name="meta.media.0.codec.long_name">H.264 / AVC / MPEG-4 AVC / MPEG-4 part 10</property>
  <property name="meta.media.0.codec.bit_rate">1394186</property>
  <property name="meta.attr.0.stream.handler_name.markup">VideoHandler</property>
  <property name="meta.attr.0.stream.vendor_id.markup">[0][0][0][0]</property>
  <property name="meta.attr.0.stream.encoder.markup">AVC Coding</property>
  <property name="meta.media.1.stream.type">audio</property>
  <property name="meta.media.1.codec.sample_fmt">fltp</property>
  <property name="meta.media.1.codec.sample_rate">44100</property>
  <property name="meta.media.1.codec.channels">2</property>
  <property name="meta.media.1.codec.layout">stereo</property>
  <property name="meta.media.1.codec.name">aac</property>
  <property name="meta.media.1.codec.long_name">AAC (Advanced Audio Coding)</property>
  <property name="meta.media.1.codec.bit_rate">59042</property>
  <property name="meta.attr.1.stream.handler_name.markup">SoundHandler</property>
  <property name="meta.attr.1.stream.vendor_id.markup">[0][0][0][0]</property>
  <property name="meta.attr.major_brand.markup">isom</property>
  <property name="meta.attr.minor_version.markup">512</property>
  <property name="meta.attr.compatible_brands.markup">isomiso2avc1mp41</property>
  <property name="seekable">1</property>
  <property name="meta.media.sample_aspect_num">1</property>
  <property name="meta.media.sample_aspect_den">1</property>
  <property name="format">3</property>
  <property name="audio_index">1</property>
  <property name="video_index">0</property>
  <property name="vstream">0</property>
  <property name="meta.media.frame_rate_num">30</property>
  <property name="meta.media.frame_rate_den">1</property>
  <property name="meta.media.colorspace">709</property>
  <property name="meta.media.color_trc">1</property>
  <property name="meta.media.has_b_frames">2</property>
  <property name="meta.media.width">720</property>
  <property name="meta.media.height">1280</property>
  <property name="meta.media.aspect_ratio">1</property>
  <property name="meta.media.color_range">mpeg</property>
  <property name="astream">0</property>
  <property name="meta.media.top_field_first">0</property>
  <property name="meta.media.progressive">1</property>
  <property name="kdenlive:control_uuid">{c1ddd45c-4e16-417c-b71d-4361b773d356}</property>
  <property name="kdenlive:id">11</property>
  <property name="kdenlive:clip_type">0</property>
  <property name="kdenlive:file_size">13845921</property>
  <property name="kdenlive:file_hash">285c3cf9d275a06831dc377845f66d96</property>
  <property name="kdenlive:folderid">-1</property>
  <property name="kdenlive:audio_max1">212</property>
 </chain>
 <producer id="producer40" in="00:00:00.000" out="00:00:04.933">
  <property name="length">00:00:05.000</property>
  <property name="eof">pause</property>
  <property name="resource">0xff8080ff</property>
  <property name="aspect_ratio">1</property>
  <property name="mlt_service">color</property>
  <property name="kdenlive:clipname">Color Clip</property>
  <property name="kdenlive:duration">00:00:05.000</property>
  <property name="xml">was here</property>
  <property name="seekable">1</property>
  <property name="kdenlive:folderid">-1</property>
  <property name="kdenlive:id">15</property>
  <property name="kdenlive:control_uuid">{77d863ed-823c-4bf0-9a3a-07299ec41e0e}</property>
  <property name="mlt_image_format">rgb</property>
  <property name="kdenlive:clip_type">2</property>
  <property name="kdenlive:file_hash">cb181e23de690e63486b4b49c19e6f7d</property>
  <property name="kdenlive:monitorPosition">0</property>
 </producer>
 <chain id="chain13" out="00:00:15.733">
  <property name="length">237</property>
  <property name="eof">pause</property>
  <property name="resource">/home/schmilly/Downloads/Rental affordability in Australia the worst it's ever been, report says _ ABC News 720-41-53.mp4</property>
  <property name="mlt_service">avformat</property>
  <property name="meta.media.nb_streams">3</property>
  <property name="meta.media.0.stream.type">video</property>
  <property name="meta.media.0.stream.frame_rate">25</property>
  <property name="meta.media.0.stream.sample_aspect_ratio">1</property>
  <property name="meta.media.0.codec.width">1280</property>
  <property name="meta.media.0.codec.height">720</property>
  <property name="meta.media.0.codec.rotate">0</property>
  <property name="meta.media.0.codec.pix_fmt">yuv420p</property>
  <property name="meta.media.0.codec.sample_aspect_ratio">1</property>
  <property name="meta.media.0.codec.colorspace">709</property>
  <property name="meta.media.0.codec.color_trc">1</property>
  <property name="meta.media.0.codec.name">h264</property>
  <property name="meta.media.0.codec.long_name">H.264 / AVC / MPEG-4 AVC / MPEG-4 part 10</property>
  <property name="meta.media.0.codec.bit_rate">399484</property>
  <property name="meta.attr.0.stream.handler_name.markup">ISO Media file produced by Google Inc.</property>
  <property name="meta.attr.0.stream.vendor_id.markup">[0][0][0][0]</property>
  <property name="meta.media.1.stream.type">audio</property>
  <property name="meta.media.1.codec.sample_fmt">fltp</property>
  <property name="meta.media.1.codec.sample_rate">44100</property>
  <property name="meta.media.1.codec.channels">2</property>
  <property name="meta.media.1.codec.layout">stereo</property>
  <property name="meta.media.1.codec.name">aac</property>
  <property name="meta.media.1.codec.long_name">AAC (Advanced Audio Coding)</property>
  <property name="meta.media.1.codec.bit_rate">127959</property>
  <property name="meta.attr.1.stream.language.markup">eng</property>
  <property name="meta.attr.1.stream.handler_name.markup">ISO Media file produced by Google Inc.</property>
  <property name="meta.attr.1.stream.vendor_id.markup">[0][0][0][0]</property>
  <property name="meta.media.2.stream.type">video</property>
  <property name="meta.media.2.stream.frame_rate">90000</property>
  <property name="meta.media.2.stream.sample_aspect_ratio">0</property>
  <property name="meta.media.2.codec.width">1280</property>
  <property name="meta.media.2.codec.height">720</property>
  <property name="meta.media.2.codec.rotate">0</property>
  <property name="meta.media.2.codec.pix_fmt">rgb24</property>
  <property name="meta.media.2.codec.sample_aspect_ratio">0</property>
  <property name="meta.media.2.codec.colorspace">0</property>
  <property name="meta.media.2.codec.name">png</property>
  <property name="meta.media.2.codec.long_name">PNG (Portable Network Graphics) image</property>
  <property name="meta.media.2.codec.bit_rate">0</property>
  <property name="meta.attr.major_brand.markup">isom</property>
  <property name="meta.attr.minor_version.markup">512</property>
  <property name="meta.attr.compatible_brands.markup">isomiso2avc1mp41</property>
  <property name="meta.attr.title.markup">Rental affordability in Australia the worst it's ever been, report says | ABC News</property>
  <property name="meta.attr.artist.markup">ABC News (Australia)</property>
  <property name="meta.attr.date.markup">20240423</property>
  <property name="meta.attr.encoder.markup">Lavf61.7.100</property>
  <property name="meta.attr.comment.markup">https://www.youtube.com/watch?v=hliaf_8My40</property>
  <property name="meta.attr.description.markup">There is not a single property across Australia – or even a room in a shared house – that's affordable for someone on youth allowance, according to a new report from support organisation Anglicare Australia.

Subscribe: http://ab.co/1svxLVE
Read more here: https://www.abc.net.au/news/2024-04-23/anglicare-australia-rental-affordability-report/103754274

ABC News provides around the clock coverage of news events as they break in Australia and abroad. It's news when you want it, from Australia's most trusted news organisation.

For more from ABC News, click here: https://ab.co/2kxYCZY
Watch more ABC News content ad-free on ABC iview: https://ab.co/2OB7Mk1

Go deeper on our ABC News In-depth channel: https://ab.co/2lNeBn2
Like ABC News on Facebook: http://facebook.com/abcnews.au
Follow ABC News on Instagram: http://instagram.com/abcnews_au
Follow ABC News on Twitter: http://twitter.com/abcnews

Note: In most cases, our captions are auto-generated.

#ABCNews #ABCNewsAustralia #housing #housingcrisis #rentalproperty</property>
  <property name="meta.attr.synopsis.markup">There is not a single property across Australia – or even a room in a shared house – that's affordable for someone on youth allowance, according to a new report from support organisation Anglicare Australia.

Subscribe: http://ab.co/1svxLVE
Read more here: https://www.abc.net.au/news/2024-04-23/anglicare-australia-rental-affordability-report/103754274

ABC News provides around the clock coverage of news events as they break in Australia and abroad. It's news when you want it, from Australia's most trusted news organisation.

For more from ABC News, click here: https://ab.co/2kxYCZY
Watch more ABC News content ad-free on ABC iview: https://ab.co/2OB7Mk1

Go deeper on our ABC News In-depth channel: https://ab.co/2lNeBn2
Like ABC News on Facebook: http://facebook.com/abcnews.au
Follow ABC News on Instagram: http://instagram.com/abcnews_au
Follow ABC News on Twitter: http://twitter.com/abcnews

Note: In most cases, our captions are auto-generated.

#ABCNews #ABCNewsAustralia #housing #housingcrisis #rentalproperty</property>
  <property name="seekable">1</property>
  <property name="meta.media.sample_aspect_num">1</property>
  <property name="meta.media.sample_aspect_den">1</property>
  <property name="format">3</property>
  <property name="audio_index">1</property>
  <property name="video_index">0</property>
  <property name="vstream">0</property>
  <property name="meta.media.frame_rate_num">25</property>
  <property name="meta.media.frame_rate_den">1</property>
  <property name="meta.media.colorspace">709</property>
  <property name="meta.media.color_trc">1</property>
  <property name="meta.media.has_b_frames">1</property>
  <property name="meta.media.width">1280</property>
  <property name="meta.media.height">720</property>
  <property name="meta.media.aspect_ratio">1</property>
  <property name="meta.media.color_range">mpeg</property>
  <property name="astream">0</property>
  <property name="meta.media.top_field_first">0</property>
  <property name="meta.media.progressive">1</property>
  <property name="kdenlive:control_uuid">{a8d5c76f-d61a-48f4-b36b-265e444671e9}</property>
  <property name="kdenlive:id">10</property>
  <property name="kdenlive:clip_type">0</property>
  <property name="kdenlive:file_size">1563027</property>
  <property name="kdenlive:file_hash">f0078480c0a5081e003c902fb0895882</property>
  <property name="kdenlive:folderid">-1</property>
  <property name="kdenlive:audio_max1">166</property>
 </chain>
 <chain id="chain14" out="00:00:07.400">
  <property name="length">112</property>
  <property name="eof">pause</property>
  <property name="resource">/home/schmilly/Downloads/Snapinsta.app_video_AQOOsAVmPv3qtzSJ44Z-cmU6PK2_7l4ar1HYQkLJ85NdbwWHzHSUAWU9W001DMl1SSfFQzODfS1jghRk9ZVTVdySVALBZBBN4jfZo64-32-37.mp4</property>
  <property name="mlt_service">avformat</property>
  <property name="meta.media.nb_streams">2</property>
  <property name="meta.media.0.stream.type">video</property>
  <property name="meta.media.0.stream.frame_rate">30</property>
  <property name="meta.media.0.stream.sample_aspect_ratio">0</property>
  <property name="meta.media.0.codec.width">720</property>
  <property name="meta.media.0.codec.height">1280</property>
  <property name="meta.media.0.codec.rotate">0</property>
  <property name="meta.media.0.codec.pix_fmt">yuv420p</property>
  <property name="meta.media.0.codec.sample_aspect_ratio">0</property>
  <property name="meta.media.0.codec.colorspace">709</property>
  <property name="meta.media.0.codec.color_trc">1</property>
  <property name="meta.media.0.codec.name">h264</property>
  <property name="meta.media.0.codec.long_name">H.264 / AVC / MPEG-4 AVC / MPEG-4 part 10</property>
  <property name="meta.media.0.codec.bit_rate">1560379</property>
  <property name="meta.attr.0.stream.handler_name.markup">VideoHandler</property>
  <property name="meta.attr.0.stream.vendor_id.markup">[0][0][0][0]</property>
  <property name="meta.attr.0.stream.encoder.markup">AVC Coding</property>
  <property name="meta.media.1.stream.type">audio</property>
  <property name="meta.media.1.codec.sample_fmt">fltp</property>
  <property name="meta.media.1.codec.sample_rate">44100</property>
  <property name="meta.media.1.codec.channels">2</property>
  <property name="meta.media.1.codec.layout">stereo</property>
  <property name="meta.media.1.codec.name">aac</property>
  <property name="meta.media.1.codec.long_name">AAC (Advanced Audio Coding)</property>
  <property name="meta.media.1.codec.bit_rate">62226</property>
  <property name="meta.attr.1.stream.handler_name.markup">SoundHandler</property>
  <property name="meta.attr.1.stream.vendor_id.markup">[0][0][0][0]</property>
  <property name="meta.attr.major_brand.markup">isom</property>
  <property name="meta.attr.minor_version.markup">512</property>
  <property name="meta.attr.compatible_brands.markup">isomiso2avc1mp41</property>
  <property name="meta.attr.encoder.markup">Lavf61.7.100</property>
  <property name="seekable">1</property>
  <property name="meta.media.sample_aspect_num">1</property>
  <property name="meta.media.sample_aspect_den">1</property>
  <property name="format">3</property>
  <property name="audio_index">1</property>
  <property name="video_index">0</property>
  <property name="vstream">0</property>
  <property name="meta.media.frame_rate_num">30</property>
  <property name="meta.media.frame_rate_den">1</property>
  <property name="meta.media.colorspace">709</property>
  <property name="meta.media.color_trc">1</property>
  <property name="meta.media.has_b_frames">2</property>
  <property name="meta.media.width">720</property>
  <property name="meta.media.height">1280</property>
  <property name="meta.media.aspect_ratio">1</property>
  <property name="meta.media.color_range">mpeg</property>
  <property name="astream">0</property>
  <property name="meta.media.top_field_first">0</property>
  <property name="meta.media.progressive">1</property>
  <property name="kdenlive:control_uuid">{12ff8af7-50eb-4343-a8e3-08ef535c7116}</property>
  <property name="kdenlive:id">13</property>
  <property name="kdenlive:clip_type">0</property>
  <property name="kdenlive:file_size">1501777</property>
  <property name="kdenlive:file_hash">4a489f75a3ff287ea80e9bbacead7772</property>
  <property name="kdenlive:folderid">-1</property>
  <property name="kdenlive:audio_max1">210</property>
 </chain>
 <chain id="chain15" out="00:00:16.800">
  <property name="length">253</property>
  <property name="eof">pause</property>
  <property name="resource">/home/schmilly/Downloads/Rental affordability in Australia the worst it's ever been, report says _ ABC News 720-41-54.mp4</property>
  <property name="mlt_service">avformat</property>
  <property name="meta.media.nb_streams">3</property>
  <property name="meta.media.0.stream.type">video</property>
  <property name="meta.media.0.stream.frame_rate">25</property>
  <property name="meta.media.0.stream.sample_aspect_ratio">1</property>
  <property name="meta.media.0.codec.width">1280</property>
  <property name="meta.media.0.codec.height">720</property>
  <property name="meta.media.0.codec.rotate">0</property>
  <property name="meta.media.0.codec.pix_fmt">yuv420p</property>
  <property name="meta.media.0.codec.sample_aspect_ratio">1</property>
  <property name="meta.media.0.codec.colorspace">709</property>
  <property name="meta.media.0.codec.color_trc">1</property>
  <property name="meta.media.0.codec.name">h264</property>
  <property name="meta.media.0.codec.long_name">H.264 / AVC / MPEG-4 AVC / MPEG-4 part 10</property>
  <property name="meta.media.0.codec.bit_rate">439489</property>
  <property name="meta.attr.0.stream.handler_name.markup">ISO Media file produced by Google Inc.</property>
  <property name="meta.attr.0.stream.vendor_id.markup">[0][0][0][0]</property>
  <property name="meta.media.1.stream.type">audio</property>
  <property name="meta.media.1.codec.sample_fmt">fltp</property>
  <property name="meta.media.1.codec.sample_rate">44100</property>
  <property name="meta.media.1.codec.channels">2</property>
  <property name="meta.media.1.codec.layout">stereo</property>
  <property name="meta.media.1.codec.name">aac</property>
  <property name="meta.media.1.codec.long_name">AAC (Advanced Audio Coding)</property>
  <property name="meta.media.1.codec.bit_rate">128050</property>
  <property name="meta.attr.1.stream.language.markup">eng</property>
  <property name="meta.attr.1.stream.handler_name.markup">ISO Media file produced by Google Inc.</property>
  <property name="meta.attr.1.stream.vendor_id.markup">[0][0][0][0]</property>
  <property name="meta.media.2.stream.type">video</property>
  <property name="meta.media.2.stream.frame_rate">90000</property>
  <property name="meta.media.2.stream.sample_aspect_ratio">0</property>
  <property name="meta.media.2.codec.width">1280</property>
  <property name="meta.media.2.codec.height">720</property>
  <property name="meta.media.2.codec.rotate">0</property>
  <property name="meta.media.2.codec.pix_fmt">rgb24</property>
  <property name="meta.media.2.codec.sample_aspect_ratio">0</property>
  <property name="meta.media.2.codec.colorspace">0</property>
  <property name="meta.media.2.codec.name">png</property>
  <property name="meta.media.2.codec.long_name">PNG (Portable Network Graphics) image</property>
  <property name="meta.media.2.codec.bit_rate">0</property>
  <property name="meta.attr.major_brand.markup">isom</property>
  <property name="meta.attr.minor_version.markup">512</property>
  <property name="meta.attr.compatible_brands.markup">isomiso2avc1mp41</property>
  <property name="meta.attr.title.markup">Rental affordability in Australia the worst it's ever been, report says | ABC News</property>
  <property name="meta.attr.artist.markup">ABC News (Australia)</property>
  <property name="meta.attr.date.markup">20240423</property>
  <property name="meta.attr.encoder.markup">Lavf61.7.100</property>
  <property name="meta.attr.comment.markup">https://www.youtube.com/watch?v=hliaf_8My40</property>
  <property name="meta.attr.description.markup">There is not a single property across Australia – or even a room in a shared house – that's affordable for someone on youth allowance, according to a new report from support organisation Anglicare Australia.

Subscribe: http://ab.co/1svxLVE
Read more here: https://www.abc.net.au/news/2024-04-23/anglicare-australia-rental-affordability-report/103754274

ABC News provides around the clock coverage of news events as they break in Australia and abroad. It's news when you want it, from Australia's most trusted news organisation.

For more from ABC News, click here: https://ab.co/2kxYCZY
Watch more ABC News content ad-free on ABC iview: https://ab.co/2OB7Mk1

Go deeper on our ABC News In-depth channel: https://ab.co/2lNeBn2
Like ABC News on Facebook: http://facebook.com/abcnews.au
Follow ABC News on Instagram: http://instagram.com/abcnews_au
Follow ABC News on Twitter: http://twitter.com/abcnews

Note: In most cases, our captions are auto-generated.

#ABCNews #ABCNewsAustralia #housing #housingcrisis #rentalproperty</property>
  <property name="meta.attr.synopsis.markup">There is not a single property across Australia – or even a room in a shared house – that's affordable for someone on youth allowance, according to a new report from support organisation Anglicare Australia.

Subscribe: http://ab.co/1svxLVE
Read more here: https://www.abc.net.au/news/2024-04-23/anglicare-australia-rental-affordability-report/103754274

ABC News provides around the clock coverage of news events as they break in Australia and abroad. It's news when you want it, from Australia's most trusted news organisation.

For more from ABC News, click here: https://ab.co/2kxYCZY
Watch more ABC News content ad-free on ABC iview: https://ab.co/2OB7Mk1

Go deeper on our ABC News In-depth channel: https://ab.co/2lNeBn2
Like ABC News on Facebook: http://facebook.com/abcnews.au
Follow ABC News on Instagram: http://instagram.com/abcnews_au
Follow ABC News on Twitter: http://twitter.com/abcnews

Note: In most cases, our captions are auto-generated.

#ABCNews #ABCNewsAustralia #housing #housingcrisis #rentalproperty</property>
  <property name="seekable">1</property>
  <property name="meta.media.sample_aspect_num">1</property>
  <property name="meta.media.sample_aspect_den">1</property>
  <property name="format">3</property>
  <property name="audio_index">1</property>
  <property name="video_index">0</property>
  <property name="vstream">0</property>
  <property name="meta.media.frame_rate_num">25</property>
  <property name="meta.media.frame_rate_den">1</property>
  <property name="meta.media.colorspace">709</property>
  <property name="meta.media.color_trc">1</property>
  <property name="meta.media.has_b_frames">1</property>
  <property name="meta.media.width">1280</property>
  <property name="meta.media.height">720</property>
  <property name="meta.media.aspect_ratio">1</property>
  <property name="meta.media.color_range">mpeg</property>
  <property name="astream">0</property>
  <property name="meta.media.top_field_first">0</property>
  <property name="meta.media.progressive">1</property>
  <property name="kdenlive:control_uuid">{21c05f38-c3ec-47ca-991d-ac2f245e4397}</property>
  <property name="kdenlive:id">14</property>
  <property name="kdenlive:clip_type">0</property>
  <property name="kdenlive:file_size">1719171</property>
  <property name="kdenlive:file_hash">e764b442ca7692714b313c3afb46915b</property>
  <property name="kdenlive:folderid">-1</property>
  <property name="kdenlive:audio_max1">166</property>
 </chain>
 <chain id="chain16" out="00:01:46.600">
  <property name="length">1600</property>
  <property name="eof">pause</property>
  <property name="resource">/home/schmilly/Downloads/Rent affordability in South Australia has plummeted to its lowest level on record _ 7 News Australia 720.mp4</property>
  <property name="mlt_service">avformat</property>
  <property name="meta.media.nb_streams">3</property>
  <property name="meta.media.0.stream.type">video</property>
  <property name="meta.media.0.stream.frame_rate">25</property>
  <property name="meta.media.0.stream.sample_aspect_ratio">1</property>
  <property name="meta.media.0.codec.width">1280</property>
  <property name="meta.media.0.codec.height">720</property>
  <property name="meta.media.0.codec.rotate">0</property>
  <property name="meta.media.0.codec.pix_fmt">yuv420p</property>
  <property name="meta.media.0.codec.sample_aspect_ratio">1</property>
  <property name="meta.media.0.codec.colorspace">709</property>
  <property name="meta.media.0.codec.color_trc">1</property>
  <property name="meta.media.0.codec.name">h264</property>
  <property name="meta.media.0.codec.long_name">H.264 / AVC / MPEG-4 AVC / MPEG-4 part 10</property>
  <property name="meta.media.0.codec.bit_rate">1190869</property>
  <property name="meta.attr.0.stream.handler_name.markup">ISO Media file produced by Google Inc.</property>
  <property name="meta.attr.0.stream.vendor_id.markup">[0][0][0][0]</property>
  <property name="meta.media.1.stream.type">audio</property>
  <property name="meta.media.1.codec.sample_fmt">fltp</property>
  <property name="meta.media.1.codec.sample_rate">44100</property>
  <property name="meta.media.1.codec.channels">2</property>
  <property name="meta.media.1.codec.layout">stereo</property>
  <property name="meta.media.1.codec.name">aac</property>
  <property name="meta.media.1.codec.long_name">AAC (Advanced Audio Coding)</property>
  <property name="meta.media.1.codec.bit_rate">128000</property>
  <property name="meta.attr.1.stream.handler_name.markup">ISO Media file produced by Google Inc.</property>
  <property name="meta.attr.1.stream.vendor_id.markup">[0][0][0][0]</property>
  <property name="meta.media.2.stream.type">video</property>
  <property name="meta.media.2.stream.frame_rate">90000</property>
  <property name="meta.media.2.stream.sample_aspect_ratio">0</property>
  <property name="meta.media.2.codec.width">1280</property>
  <property name="meta.media.2.codec.height">720</property>
  <property name="meta.media.2.codec.rotate">0</property>
  <property name="meta.media.2.codec.pix_fmt">rgb24</property>
  <property name="meta.media.2.codec.sample_aspect_ratio">0</property>
  <property name="meta.media.2.codec.colorspace">0</property>
  <property name="meta.media.2.codec.name">png</property>
  <property name="meta.media.2.codec.long_name">PNG (Portable Network Graphics) image</property>
  <property name="meta.media.2.codec.bit_rate">0</property>
  <property name="meta.attr.major_brand.markup">isom</property>
  <property name="meta.attr.minor_version.markup">512</property>
  <property name="meta.attr.compatible_brands.markup">isomiso2avc1mp41</property>
  <property name="meta.attr.title.markup">Rent affordability in South Australia has plummeted to its lowest level on record | 7 News Australia</property>
  <property name="meta.attr.artist.markup">7NEWS Australia</property>
  <property name="meta.attr.date.markup">20240309</property>
  <property name="meta.attr.encoder.markup">Lavf58.76.100</property>
  <property name="meta.attr.comment.markup">https://www.youtube.com/watch?v=mdLjT8tPbFE</property>
  <property name="meta.attr.description.markup">If you are struggling to afford a rental, here is why - affordability in South Australia has plummeted to its lowest level on record.

A new report has found most advertised properties are out of reach for a family with an average income.

Subscribe and set 🔔 » https://7news.link/YTSubscribe | 



For the latest Australian news and breaking news alerts, connect with 7NEWS online:
Visit » https://7news.com.au
7NEWS Podcast » http://smarturl.it/7NewsDaily
Facebook » https://www.facebook.com/7NewsAustralia
Twitter » https://twitter.com/7NewsAustralia
Instagram » https://www.instagram.com/7newsaustralia/ 

7NEWS combines the trusted and powerful news brands including Sunrise, The Morning Show, The Latest, and 7NEWS.com.au, delivering unique, engaging and continuous coverage on the issues that matter most to Australians. Watch 7 News Australia full broadcasts and full episodes nightly at 6pm and weekdays at 11:30am and 4pm on Channel 7 and 7plus.

#BREAKINGNEWS #7NEWS</property>
  <property name="meta.attr.synopsis.markup">If you are struggling to afford a rental, here is why - affordability in South Australia has plummeted to its lowest level on record.

A new report has found most advertised properties are out of reach for a family with an average income.

Subscribe and set 🔔 » https://7news.link/YTSubscribe | 



For the latest Australian news and breaking news alerts, connect with 7NEWS online:
Visit » https://7news.com.au
7NEWS Podcast » http://smarturl.it/7NewsDaily
Facebook » https://www.facebook.com/7NewsAustralia
Twitter » https://twitter.com/7NewsAustralia
Instagram » https://www.instagram.com/7newsaustralia/ 

7NEWS combines the trusted and powerful news brands including Sunrise, The Morning Show, The Latest, and 7NEWS.com.au, delivering unique, engaging and continuous coverage on the issues that matter most to Australians. Watch 7 News Australia full broadcasts and full episodes nightly at 6pm and weekdays at 11:30am and 4pm on Channel 7 and 7plus.

#BREAKINGNEWS #7NEWS</property>
  <property name="seekable">1</property>
  <property name="meta.media.sample_aspect_num">1</property>
  <property name="meta.media.sample_aspect_den">1</property>
  <property name="format">3</property>
  <property name="audio_index">1</property>
  <property name="video_index">0</property>
  <property name="vstream">0</property>
  <property name="meta.media.frame_rate_num">25</property>
  <property name="meta.media.frame_rate_den">1</property>
  <property name="meta.media.colorspace">709</property>
  <property name="meta.media.color_trc">1</property>
  <property name="meta.media.has_b_frames">1</property>
  <property name="meta.media.width">1280</property>
  <property name="meta.media.height">720</property>
  <property name="meta.media.aspect_ratio">1</property>
  <property name="meta.media.color_range">mpeg</property>
  <property name="astream">0</property>
  <property name="meta.media.top_field_first">0</property>
  <property name="meta.media.progressive">1</property>
  <property name="kdenlive:control_uuid">{a0ee023e-f926-43b1-8510-239bb8d18800}</property>
  <property name="kdenlive:id">22</property>
  <property name="kdenlive:clip_type">0</property>
  <property name="kdenlive:file_size">19227035</property>
  <property name="kdenlive:file_hash">6ad0145e1cee4c4846a044cb03e8156f</property>
  <property name="kdenlive:folderid">-1</property>
  <property name="kdenlive:audio_max1">169</property>
 </chain>
 <chain id="chain17" out="00:05:26.667">
  <property name="length">4901</property>
  <property name="eof">pause</property>
  <property name="resource">/home/schmilly/Downloads/Australia's Homelessness Crisis Is Growing 720.mp4</property>
  <property name="mlt_service">avformat</property>
  <property name="meta.media.nb_streams">3</property>
  <property name="meta.media.0.stream.type">video</property>
  <property name="meta.media.0.stream.frame_rate">25</property>
  <property name="meta.media.0.stream.sample_aspect_ratio">1</property>
  <property name="meta.media.0.codec.width">1280</property>
  <property name="meta.media.0.codec.height">720</property>
  <property name="meta.media.0.codec.rotate">0</property>
  <property name="meta.media.0.codec.pix_fmt">yuv420p</property>
  <property name="meta.media.0.codec.sample_aspect_ratio">1</property>
  <property name="meta.media.0.codec.colorspace">709</property>
  <property name="meta.media.0.codec.color_trc">1</property>
  <property name="meta.media.0.codec.name">h264</property>
  <property name="meta.media.0.codec.long_name">H.264 / AVC / MPEG-4 AVC / MPEG-4 part 10</property>
  <property name="meta.media.0.codec.bit_rate">1130609</property>
  <property name="meta.attr.0.stream.handler_name.markup">ISO Media file produced by Google Inc.</property>
  <property name="meta.attr.0.stream.vendor_id.markup">[0][0][0][0]</property>
  <property name="meta.media.1.stream.type">audio</property>
  <property name="meta.media.1.codec.sample_fmt">fltp</property>
  <property name="meta.media.1.codec.sample_rate">44100</property>
  <property name="meta.media.1.codec.channels">2</property>
  <property name="meta.media.1.codec.layout">stereo</property>
  <property name="meta.media.1.codec.name">aac</property>
  <property name="meta.media.1.codec.long_name">AAC (Advanced Audio Coding)</property>
  <property name="meta.media.1.codec.bit_rate">127999</property>
  <property name="meta.attr.1.stream.language.markup">eng</property>
  <property name="meta.attr.1.stream.handler_name.markup">ISO Media file produced by Google Inc.</property>
  <property name="meta.attr.1.stream.vendor_id.markup">[0][0][0][0]</property>
  <property name="meta.media.2.stream.type">video</property>
  <property name="meta.media.2.stream.frame_rate">90000</property>
  <property name="meta.media.2.stream.sample_aspect_ratio">0</property>
  <property name="meta.media.2.codec.width">1280</property>
  <property name="meta.media.2.codec.height">720</property>
  <property name="meta.media.2.codec.rotate">0</property>
  <property name="meta.media.2.codec.pix_fmt">rgb24</property>
  <property name="meta.media.2.codec.sample_aspect_ratio">0</property>
  <property name="meta.media.2.codec.colorspace">0</property>
  <property name="meta.media.2.codec.name">png</property>
  <property name="meta.media.2.codec.long_name">PNG (Portable Network Graphics) image</property>
  <property name="meta.media.2.codec.bit_rate">0</property>
  <property name="meta.attr.major_brand.markup">isom</property>
  <property name="meta.attr.minor_version.markup">512</property>
  <property name="meta.attr.compatible_brands.markup">isomiso2avc1mp41</property>
  <property name="meta.attr.title.markup">Australia's Homelessness Crisis Is Growing</property>
  <property name="meta.attr.artist.markup">The Project</property>
  <property name="meta.attr.date.markup">20241118</property>
  <property name="meta.attr.encoder.markup">Lavf58.76.100</property>
  <property name="meta.attr.comment.markup">https://www.youtube.com/watch?v=JY6DpjtCDHo</property>
  <property name="meta.attr.description.markup">A new report has revealed millions of Aussies are on the brink of homelessness, but the services designed to support them are crumbling under the pressure.

Lokahi Foundation CEO Rachael Natoli told us what it's like on the frontline.

#Homelessness #Australia #Homeless</property>
  <property name="meta.attr.synopsis.markup">A new report has revealed millions of Aussies are on the brink of homelessness, but the services designed to support them are crumbling under the pressure.

Lokahi Foundation CEO Rachael Natoli told us what it's like on the frontline.

#Homelessness #Australia #Homeless</property>
  <property name="seekable">1</property>
  <property name="meta.media.sample_aspect_num">1</property>
  <property name="meta.media.sample_aspect_den">1</property>
  <property name="format">3</property>
  <property name="audio_index">1</property>
  <property name="video_index">0</property>
  <property name="vstream">0</property>
  <property name="meta.media.frame_rate_num">25</property>
  <property name="meta.media.frame_rate_den">1</property>
  <property name="meta.media.colorspace">709</property>
  <property name="meta.media.color_trc">1</property>
  <property name="meta.media.has_b_frames">1</property>
  <property name="meta.media.width">1280</property>
  <property name="meta.media.height">720</property>
  <property name="meta.media.aspect_ratio">1</property>
  <property name="meta.media.color_range">mpeg</property>
  <property name="astream">0</property>
  <property name="meta.media.top_field_first">0</property>
  <property name="meta.media.progressive">1</property>
  <property name="kdenlive:control_uuid">{c33a2e35-1096-444d-b255-829e1cb22b03}</property>
  <property name="kdenlive:id">30</property>
  <property name="kdenlive:clip_type">0</property>
  <property name="kdenlive:file_size">52685712</property>
  <property name="kdenlive:file_hash">80c5c2766496d93fbfdf59407deedca9</property>
  <property name="kdenlive:folderid">-1</property>
  <property name="kdenlive:audio_max1">178</property>
 </chain>
 <chain id="chain18" out="00:00:13.733">
  <property name="length">207</property>
  <property name="eof">pause</property>
  <property name="resource">/home/schmilly/Downloads/Rent affordability in South Australia has plummeted to its lowest level on record _ 7 News Australia 720-0-13.mp4</property>
  <property name="mlt_service">avformat</property>
  <property name="meta.media.nb_streams">3</property>
  <property name="meta.media.0.stream.type">video</property>
  <property name="meta.media.0.stream.frame_rate">25</property>
  <property name="meta.media.0.stream.sample_aspect_ratio">1</property>
  <property name="meta.media.0.codec.width">1280</property>
  <property name="meta.media.0.codec.height">720</property>
  <property name="meta.media.0.codec.rotate">0</property>
  <property name="meta.media.0.codec.pix_fmt">yuv420p</property>
  <property name="meta.media.0.codec.sample_aspect_ratio">1</property>
  <property name="meta.media.0.codec.colorspace">709</property>
  <property name="meta.media.0.codec.color_trc">1</property>
  <property name="meta.media.0.codec.name">h264</property>
  <property name="meta.media.0.codec.long_name">H.264 / AVC / MPEG-4 AVC / MPEG-4 part 10</property>
  <property name="meta.media.0.codec.bit_rate">1136783</property>
  <property name="meta.attr.0.stream.handler_name.markup">ISO Media file produced by Google Inc.</property>
  <property name="meta.attr.0.stream.vendor_id.markup">[0][0][0][0]</property>
  <property name="meta.media.1.stream.type">audio</property>
  <property name="meta.media.1.codec.sample_fmt">fltp</property>
  <property name="meta.media.1.codec.sample_rate">44100</property>
  <property name="meta.media.1.codec.channels">2</property>
  <property name="meta.media.1.codec.layout">stereo</property>
  <property name="meta.media.1.codec.name">aac</property>
  <property name="meta.media.1.codec.long_name">AAC (Advanced Audio Coding)</property>
  <property name="meta.media.1.codec.bit_rate">128117</property>
  <property name="meta.attr.1.stream.handler_name.markup">ISO Media file produced by Google Inc.</property>
  <property name="meta.attr.1.stream.vendor_id.markup">[0][0][0][0]</property>
  <property name="meta.media.2.stream.type">video</property>
  <property name="meta.media.2.stream.frame_rate">90000</property>
  <property name="meta.media.2.stream.sample_aspect_ratio">0</property>
  <property name="meta.media.2.codec.width">1280</property>
  <property name="meta.media.2.codec.height">720</property>
  <property name="meta.media.2.codec.rotate">0</property>
  <property name="meta.media.2.codec.pix_fmt">rgb24</property>
  <property name="meta.media.2.codec.sample_aspect_ratio">0</property>
  <property name="meta.media.2.codec.colorspace">0</property>
  <property name="meta.media.2.codec.name">png</property>
  <property name="meta.media.2.codec.long_name">PNG (Portable Network Graphics) image</property>
  <property name="meta.media.2.codec.bit_rate">0</property>
  <property name="meta.attr.major_brand.markup">isom</property>
  <property name="meta.attr.minor_version.markup">512</property>
  <property name="meta.attr.compatible_brands.markup">isomiso2avc1mp41</property>
  <property name="meta.attr.title.markup">Rent affordability in South Australia has plummeted to its lowest level on record | 7 News Australia</property>
  <property name="meta.attr.artist.markup">7NEWS Australia</property>
  <property name="meta.attr.date.markup">20240309</property>
  <property name="meta.attr.encoder.markup">Lavf61.7.100</property>
  <property name="meta.attr.comment.markup">https://www.youtube.com/watch?v=mdLjT8tPbFE</property>
  <property name="meta.attr.description.markup">If you are struggling to afford a rental, here is why - affordability in South Australia has plummeted to its lowest level on record.

A new report has found most advertised properties are out of reach for a family with an average income.

Subscribe and set 🔔 » https://7news.link/YTSubscribe | 



For the latest Australian news and breaking news alerts, connect with 7NEWS online:
Visit » https://7news.com.au
7NEWS Podcast » http://smarturl.it/7NewsDaily
Facebook » https://www.facebook.com/7NewsAustralia
Twitter » https://twitter.com/7NewsAustralia
Instagram » https://www.instagram.com/7newsaustralia/ 

7NEWS combines the trusted and powerful news brands including Sunrise, The Morning Show, The Latest, and 7NEWS.com.au, delivering unique, engaging and continuous coverage on the issues that matter most to Australians. Watch 7 News Australia full broadcasts and full episodes nightly at 6pm and weekdays at 11:30am and 4pm on Channel 7 and 7plus.

#BREAKINGNEWS #7NEWS</property>
  <property name="meta.attr.synopsis.markup">If you are struggling to afford a rental, here is why - affordability in South Australia has plummeted to its lowest level on record.

A new report has found most advertised properties are out of reach for a family with an average income.

Subscribe and set 🔔 » https://7news.link/YTSubscribe | 



For the latest Australian news and breaking news alerts, connect with 7NEWS online:
Visit » https://7news.com.au
7NEWS Podcast » http://smarturl.it/7NewsDaily
Facebook » https://www.facebook.com/7NewsAustralia
Twitter » https://twitter.com/7NewsAustralia
Instagram » https://www.instagram.com/7newsaustralia/ 

7NEWS combines the trusted and powerful news brands including Sunrise, The Morning Show, The Latest, and 7NEWS.com.au, delivering unique, engaging and continuous coverage on the issues that matter most to Australians. Watch 7 News Australia full broadcasts and full episodes nightly at 6pm and weekdays at 11:30am and 4pm on Channel 7 and 7plus.

#BREAKINGNEWS #7NEWS</property>
  <property name="seekable">1</property>
  <property name="meta.media.sample_aspect_num">1</property>
  <property name="meta.media.sample_aspect_den">1</property>
  <property name="format">3</property>
  <property name="audio_index">1</property>
  <property name="video_index">0</property>
  <property name="vstream">0</property>
  <property name="meta.media.frame_rate_num">25</property>
  <property name="meta.media.frame_rate_den">1</property>
  <property name="meta.media.colorspace">709</property>
  <property name="meta.media.color_trc">1</property>
  <property name="meta.media.has_b_frames">1</property>
  <property name="meta.media.width">1280</property>
  <property name="meta.media.height">720</property>
  <property name="meta.media.aspect_ratio">1</property>
  <property name="meta.media.color_range">mpeg</property>
  <property name="astream">0</property>
  <property name="meta.media.top_field_first">0</property>
  <property name="meta.media.progressive">1</property>
  <property name="kdenlive:control_uuid">{f9d019d9-a9e1-44ad-a835-fb73d943a12f}</property>
  <property name="kdenlive:id">23</property>
  <property name="kdenlive:clip_type">0</property>
  <property name="kdenlive:file_size">3740050</property>
  <property name="kdenlive:file_hash">ea5ca8d7adcac2ccf8e0f9a257045a6a</property>
  <property name="kdenlive:folderid">-1</property>
  <property name="kdenlive:audio_max1">159</property>
 </chain>
 <producer id="producer41" in="00:00:00.000" out="00:00:04.933">
  <property name="length">00:00:05.000</property>
  <property name="eof">pause</property>
  <property name="resource">/home/schmilly/Downloads/Snapinsta.app_456494723_496612502996469_2691609556679356890_n_1080.jpg</property>
  <property name="ttl">25</property>
  <property name="aspect_ratio">1</property>
  <property name="meta.media.progressive">1</property>
  <property name="seekable">1</property>
  <property name="format">1</property>
  <property name="meta.media.width">1080</property>
  <property name="meta.media.height">1080</property>
  <property name="mlt_service">qimage</property>
  <property name="kdenlive:duration">00:00:05.000</property>
  <property name="xml">was here</property>
  <property name="kdenlive:folderid">-1</property>
  <property name="kdenlive:id">35</property>
  <property name="kdenlive:control_uuid">{b776a6d6-fd5a-48e6-b5fc-de5b1b1ce234}</property>
  <property name="kdenlive:clip_type">2</property>
  <property name="kdenlive:file_size">204089</property>
  <property name="kdenlive:file_hash">42ee2e4ca03e31c6a6805bdae3cb36d5</property>
  <property name="kdenlive:monitorPosition">62</property>
 </producer>
 <chain id="chain19" out="00:07:24.533">
  <property name="length">6669</property>
  <property name="eof">pause</property>
  <property name="resource">/home/schmilly/Downloads/Snapinsta.app_video_AQOPrRExBxKiFBpUiIWL8MAKr62eUbs0-eHM_C31D6z8Gpnxq9uuBrc0_EXBE5S7p5o0tE4IR7gDOHKwAQzpHPjW-2013-2456-30fps.mp4</property>
  <property name="mlt_service">avformat</property>
  <property name="meta.media.nb_streams">2</property>
  <property name="meta.media.0.stream.type">video</property>
  <property name="meta.media.0.stream.frame_rate">30</property>
  <property name="meta.media.0.stream.sample_aspect_ratio">1</property>
  <property name="meta.media.0.codec.width">504</property>
  <property name="meta.media.0.codec.height">894</property>
  <property name="meta.media.0.codec.rotate">0</property>
  <property name="meta.media.0.codec.pix_fmt">yuv420p</property>
  <property name="meta.media.0.codec.sample_aspect_ratio">1</property>
  <property name="meta.media.0.codec.colorspace">601</property>
  <property name="meta.media.0.codec.name">h264</property>
  <property name="meta.media.0.codec.long_name">H.264 / AVC / MPEG-4 AVC / MPEG-4 part 10</property>
  <property name="meta.media.0.codec.bit_rate">8756983</property>
  <property name="meta.attr.0.stream.handler_name.markup">VideoHandler</property>
  <property name="meta.attr.0.stream.vendor_id.markup">[0][0][0][0]</property>
  <property name="meta.attr.0.stream.encoder.markup">Lavc61.19.100 libx264</property>
  <property name="meta.media.1.stream.type">audio</property>
  <property name="meta.media.1.codec.sample_fmt">fltp</property>
  <property name="meta.media.1.codec.sample_rate">44100</property>
  <property name="meta.media.1.codec.channels">2</property>
  <property name="meta.media.1.codec.layout">stereo</property>
  <property name="meta.media.1.codec.name">aac</property>
  <property name="meta.media.1.codec.long_name">AAC (Advanced Audio Coding)</property>
  <property name="meta.media.1.codec.bit_rate">218039</property>
  <property name="meta.attr.1.stream.handler_name.markup">SoundHandler</property>
  <property name="meta.attr.1.stream.vendor_id.markup">[0][0][0][0]</property>
  <property name="meta.attr.major_brand.markup">isom</property>
  <property name="meta.attr.minor_version.markup">512</property>
  <property name="meta.attr.compatible_brands.markup">isomiso2avc1mp41</property>
  <property name="meta.attr.encoder.markup">Lavf61.7.100</property>
  <property name="seekable">1</property>
  <property name="meta.media.sample_aspect_num">1</property>
  <property name="meta.media.sample_aspect_den">1</property>
  <property name="format">3</property>
  <property name="audio_index">1</property>
  <property name="video_index">0</property>
  <property name="vstream">0</property>
  <property name="meta.media.frame_rate_num">30</property>
  <property name="meta.media.frame_rate_den">1</property>
  <property name="meta.media.colorspace">601</property>
  <property name="meta.media.color_trc">2</property>
  <property name="meta.media.has_b_frames">0</property>
  <property name="meta.media.width">504</property>
  <property name="meta.media.height">894</property>
  <property name="meta.media.aspect_ratio">1</property>
  <property name="meta.media.color_range">mpeg</property>
  <property name="astream">0</property>
  <property name="meta.media.top_field_first">0</property>
  <property name="meta.media.progressive">1</property>
  <property name="kdenlive:control_uuid">{a1bc36a1-2cf8-443c-91b3-32e63cf3e3bc}</property>
  <property name="kdenlive:originalurl">/home/schmilly/Downloads/Snapinsta.app_video_AQOPrRExBxKiFBpUiIWL8MAKr62eUbs0-eHM_C31D6z8Gpnxq9uuBrc0_EXBE5S7p5o0tE4IR7gDOHKwAQzpHPjW-2013-2456-30fps.mp4</property>
  <property name="kdenlive:id">33</property>
  <property name="kdenlive:clip_type">0</property>
  <property name="kdenlive:file_size">498151081</property>
  <property name="kdenlive:file_hash">493aa44b86784b625d53e991fecb9582</property>
  <property name="kdenlive:folderid">-1</property>
  <property name="kdenlive:audio_max1">197</property>
 </chain>
 <producer id="producer42" in="00:00:00.000" out="00:00:04.933">
  <property name="length">00:00:05.000</property>
  <property name="eof">pause</property>
  <property name="resource">/home/schmilly/Downloads/Snapinsta.app_454157776_834280235347200_5759690416752190834_n_1080.jpg</property>
  <property name="ttl">25</property>
  <property name="aspect_ratio">1</property>
  <property name="meta.media.progressive">1</property>
  <property name="seekable">1</property>
  <property name="format">1</property>
  <property name="meta.media.width">1080</property>
  <property name="meta.media.height">1080</property>
  <property name="mlt_service">qimage</property>
  <property name="kdenlive:duration">00:00:05.000</property>
  <property name="xml">was here</property>
  <property name="kdenlive:folderid">-1</property>
  <property name="kdenlive:id">36</property>
  <property name="kdenlive:control_uuid">{7b09cfab-efa1-4911-a55f-127c9d77bcf8}</property>
  <property name="kdenlive:clip_type">2</property>
  <property name="kdenlive:file_size">177423</property>
  <property name="kdenlive:file_hash">50f47a7195d0894b106565f38efd1dfd</property>
  <property name="kdenlive:monitorPosition">2</property>
 </producer>
 <chain id="chain20" out="00:02:16.533">
  <property name="length">2049</property>
  <property name="eof">pause</property>
  <property name="resource">/home/schmilly/Downloads/Rental affordability worst on record, report finds _ ABC NEWS 720.mp4</property>
  <property name="mlt_service">avformat</property>
  <property name="meta.media.nb_streams">3</property>
  <property name="meta.media.0.stream.type">video</property>
  <property name="meta.media.0.stream.frame_rate">25</property>
  <property name="meta.media.0.stream.sample_aspect_ratio">1</property>
  <property name="meta.media.0.codec.width">1280</property>
  <property name="meta.media.0.codec.height">720</property>
  <property name="meta.media.0.codec.rotate">0</property>
  <property name="meta.media.0.codec.pix_fmt">yuv420p</property>
  <property name="meta.media.0.codec.sample_aspect_ratio">1</property>
  <property name="meta.media.0.codec.colorspace">709</property>
  <property name="meta.media.0.codec.color_trc">1</property>
  <property name="meta.media.0.codec.name">h264</property>
  <property name="meta.media.0.codec.long_name">H.264 / AVC / MPEG-4 AVC / MPEG-4 part 10</property>
  <property name="meta.media.0.codec.bit_rate">589835</property>
  <property name="meta.attr.0.stream.handler_name.markup">ISO Media file produced by Google Inc.</property>
  <property name="meta.attr.0.stream.vendor_id.markup">[0][0][0][0]</property>
  <property name="meta.media.1.stream.type">audio</property>
  <property name="meta.media.1.codec.sample_fmt">fltp</property>
  <property name="meta.media.1.codec.sample_rate">44100</property>
  <property name="meta.media.1.codec.channels">2</property>
  <property name="meta.media.1.codec.layout">stereo</property>
  <property name="meta.media.1.codec.name">aac</property>
  <property name="meta.media.1.codec.long_name">AAC (Advanced Audio Coding)</property>
  <property name="meta.media.1.codec.bit_rate">127999</property>
  <property name="meta.attr.1.stream.language.markup">eng</property>
  <property name="meta.attr.1.stream.handler_name.markup">ISO Media file produced by Google Inc.</property>
  <property name="meta.attr.1.stream.vendor_id.markup">[0][0][0][0]</property>
  <property name="meta.media.2.stream.type">video</property>
  <property name="meta.media.2.stream.frame_rate">90000</property>
  <property name="meta.media.2.stream.sample_aspect_ratio">0</property>
  <property name="meta.media.2.codec.width">1280</property>
  <property name="meta.media.2.codec.height">720</property>
  <property name="meta.media.2.codec.rotate">0</property>
  <property name="meta.media.2.codec.pix_fmt">rgb24</property>
  <property name="meta.media.2.codec.sample_aspect_ratio">0</property>
  <property name="meta.media.2.codec.colorspace">0</property>
  <property name="meta.media.2.codec.name">png</property>
  <property name="meta.media.2.codec.long_name">PNG (Portable Network Graphics) image</property>
  <property name="meta.media.2.codec.bit_rate">0</property>
  <property name="meta.attr.major_brand.markup">isom</property>
  <property name="meta.attr.minor_version.markup">512</property>
  <property name="meta.attr.compatible_brands.markup">isomiso2avc1mp41</property>
  <property name="meta.attr.title.markup">Rental affordability worst on record, report finds | ABC NEWS</property>
  <property name="meta.attr.artist.markup">ABC News (Australia)</property>
  <property name="meta.attr.date.markup">20241122</property>
  <property name="meta.attr.encoder.markup">Lavf58.76.100</property>
  <property name="meta.attr.comment.markup">https://www.youtube.com/watch?v=MPyysf9uJmo</property>
  <property name="meta.attr.description.markup">New data shows that rental affordability has plummeted to new lows across nearly every Australian city and region.
There's now nowhere within budget for single people on JobSeeker benefits, part-time workers on a parenting payment, or those on a pension.

Subscribe: http://ab.co/1svxLVE
Read more here: https://www.abc.net.au/news/2024-11-22/rent-prices-rise-most-unaffordable-in-perth-sydney/104628492

ABC News provides around the clock coverage of news events as they break in Australia and abroad. It's news when you want it, from Australia's most trusted news organisation.

For more from ABC News, click here: https://ab.co/2kxYCZY
Watch more ABC News content ad-free on ABC iview: https://ab.co/2OB7Mk1

Go deeper on our ABC News In-depth channel: https://ab.co/2lNeBn2
Like ABC News on Facebook: http://facebook.com/abcnews.au
Follow ABC News on Instagram: http://instagram.com/abcnews_au
Follow ABC News on X (Twitter): http://twitter.com/abcnews

Note: In most cases, our captions are auto-generated.

#ABCNews #ABCNewsAustralia</property>
  <property name="meta.attr.synopsis.markup">New data shows that rental affordability has plummeted to new lows across nearly every Australian city and region.
There's now nowhere within budget for single people on JobSeeker benefits, part-time workers on a parenting payment, or those on a pension.

Subscribe: http://ab.co/1svxLVE
Read more here: https://www.abc.net.au/news/2024-11-22/rent-prices-rise-most-unaffordable-in-perth-sydney/104628492

ABC News provides around the clock coverage of news events as they break in Australia and abroad. It's news when you want it, from Australia's most trusted news organisation.

For more from ABC News, click here: https://ab.co/2kxYCZY
Watch more ABC News content ad-free on ABC iview: https://ab.co/2OB7Mk1

Go deeper on our ABC News In-depth channel: https://ab.co/2lNeBn2
Like ABC News on Facebook: http://facebook.com/abcnews.au
Follow ABC News on Instagram: http://instagram.com/abcnews_au
Follow ABC News on X (Twitter): http://twitter.com/abcnews

Note: In most cases, our captions are auto-generated.

#ABCNews #ABCNewsAustralia</property>
  <property name="seekable">1</property>
  <property name="meta.media.sample_aspect_num">1</property>
  <property name="meta.media.sample_aspect_den">1</property>
  <property name="format">3</property>
  <property name="audio_index">1</property>
  <property name="video_index">0</property>
  <property name="vstream">0</property>
  <property name="meta.media.frame_rate_num">25</property>
  <property name="meta.media.frame_rate_den">1</property>
  <property name="meta.media.colorspace">709</property>
  <property name="meta.media.color_trc">1</property>
  <property name="meta.media.has_b_frames">1</property>
  <property name="meta.media.width">1280</property>
  <property name="meta.media.height">720</property>
  <property name="meta.media.aspect_ratio">1</property>
  <property name="meta.media.color_range">mpeg</property>
  <property name="astream">0</property>
  <property name="meta.media.top_field_first">0</property>
  <property name="meta.media.progressive">1</property>
  <property name="kdenlive:control_uuid">{aceb170c-29ee-4e4a-86da-b0828a2d899a}</property>
  <property name="kdenlive:id">31</property>
  <property name="kdenlive:clip_type">0</property>
  <property name="kdenlive:file_size">13316410</property>
  <property name="kdenlive:file_hash">d6062b372981125ff259f2612085c015</property>
  <property name="kdenlive:folderid">-1</property>
  <property name="kdenlive:audio_max1">163</property>
 </chain>
 <chain id="chain21" out="00:00:22.467">
  <property name="length">338</property>
  <property name="eof">pause</property>
  <property name="resource">/home/schmilly/Downloads/Rental affordability worst on record, report finds _ ABC NEWS 720-39-58.mp4</property>
  <property name="mlt_service">avformat</property>
  <property name="meta.media.nb_streams">3</property>
  <property name="meta.media.0.stream.type">video</property>
  <property name="meta.media.0.stream.frame_rate">25</property>
  <property name="meta.media.0.stream.sample_aspect_ratio">1</property>
  <property name="meta.media.0.codec.width">1280</property>
  <property name="meta.media.0.codec.height">720</property>
  <property name="meta.media.0.codec.rotate">0</property>
  <property name="meta.media.0.codec.pix_fmt">yuv420p</property>
  <property name="meta.media.0.codec.sample_aspect_ratio">1</property>
  <property name="meta.media.0.codec.colorspace">709</property>
  <property name="meta.media.0.codec.color_trc">1</property>
  <property name="meta.media.0.codec.name">h264</property>
  <property name="meta.media.0.codec.long_name">H.264 / AVC / MPEG-4 AVC / MPEG-4 part 10</property>
  <property name="meta.media.0.codec.bit_rate">532101</property>
  <property name="meta.attr.0.stream.handler_name.markup">ISO Media file produced by Google Inc.</property>
  <property name="meta.attr.0.stream.vendor_id.markup">[0][0][0][0]</property>
  <property name="meta.media.1.stream.type">audio</property>
  <property name="meta.media.1.codec.sample_fmt">fltp</property>
  <property name="meta.media.1.codec.sample_rate">44100</property>
  <property name="meta.media.1.codec.channels">2</property>
  <property name="meta.media.1.codec.layout">stereo</property>
  <property name="meta.media.1.codec.name">aac</property>
  <property name="meta.media.1.codec.long_name">AAC (Advanced Audio Coding)</property>
  <property name="meta.media.1.codec.bit_rate">128075</property>
  <property name="meta.attr.1.stream.language.markup">eng</property>
  <property name="meta.attr.1.stream.handler_name.markup">ISO Media file produced by Google Inc.</property>
  <property name="meta.attr.1.stream.vendor_id.markup">[0][0][0][0]</property>
  <property name="meta.media.2.stream.type">video</property>
  <property name="meta.media.2.stream.frame_rate">90000</property>
  <property name="meta.media.2.stream.sample_aspect_ratio">0</property>
  <property name="meta.media.2.codec.width">1280</property>
  <property name="meta.media.2.codec.height">720</property>
  <property name="meta.media.2.codec.rotate">0</property>
  <property name="meta.media.2.codec.pix_fmt">rgb24</property>
  <property name="meta.media.2.codec.sample_aspect_ratio">0</property>
  <property name="meta.media.2.codec.colorspace">0</property>
  <property name="meta.media.2.codec.name">png</property>
  <property name="meta.media.2.codec.long_name">PNG (Portable Network Graphics) image</property>
  <property name="meta.media.2.codec.bit_rate">0</property>
  <property name="meta.attr.major_brand.markup">isom</property>
  <property name="meta.attr.minor_version.markup">512</property>
  <property name="meta.attr.compatible_brands.markup">isomiso2avc1mp41</property>
  <property name="meta.attr.title.markup">Rental affordability worst on record, report finds | ABC NEWS</property>
  <property name="meta.attr.artist.markup">ABC News (Australia)</property>
  <property name="meta.attr.date.markup">20241122</property>
  <property name="meta.attr.encoder.markup">Lavf61.7.100</property>
  <property name="meta.attr.comment.markup">https://www.youtube.com/watch?v=MPyysf9uJmo</property>
  <property name="meta.attr.description.markup">New data shows that rental affordability has plummeted to new lows across nearly every Australian city and region.
There's now nowhere within budget for single people on JobSeeker benefits, part-time workers on a parenting payment, or those on a pension.

Subscribe: http://ab.co/1svxLVE
Read more here: https://www.abc.net.au/news/2024-11-22/rent-prices-rise-most-unaffordable-in-perth-sydney/104628492

ABC News provides around the clock coverage of news events as they break in Australia and abroad. It's news when you want it, from Australia's most trusted news organisation.

For more from ABC News, click here: https://ab.co/2kxYCZY
Watch more ABC News content ad-free on ABC iview: https://ab.co/2OB7Mk1

Go deeper on our ABC News In-depth channel: https://ab.co/2lNeBn2
Like ABC News on Facebook: http://facebook.com/abcnews.au
Follow ABC News on Instagram: http://instagram.com/abcnews_au
Follow ABC News on X (Twitter): http://twitter.com/abcnews

Note: In most cases, our captions are auto-generated.

#ABCNews #ABCNewsAustralia</property>
  <property name="meta.attr.synopsis.markup">New data shows that rental affordability has plummeted to new lows across nearly every Australian city and region.
There's now nowhere within budget for single people on JobSeeker benefits, part-time workers on a parenting payment, or those on a pension.

Subscribe: http://ab.co/1svxLVE
Read more here: https://www.abc.net.au/news/2024-11-22/rent-prices-rise-most-unaffordable-in-perth-sydney/104628492

ABC News provides around the clock coverage of news events as they break in Australia and abroad. It's news when you want it, from Australia's most trusted news organisation.

For more from ABC News, click here: https://ab.co/2kxYCZY
Watch more ABC News content ad-free on ABC iview: https://ab.co/2OB7Mk1

Go deeper on our ABC News In-depth channel: https://ab.co/2lNeBn2
Like ABC News on Facebook: http://facebook.com/abcnews.au
Follow ABC News on Instagram: http://instagram.com/abcnews_au
Follow ABC News on X (Twitter): http://twitter.com/abcnews

Note: In most cases, our captions are auto-generated.

#ABCNews #ABCNewsAustralia</property>
  <property name="seekable">1</property>
  <property name="meta.media.sample_aspect_num">1</property>
  <property name="meta.media.sample_aspect_den">1</property>
  <property name="format">3</property>
  <property name="audio_index">1</property>
  <property name="video_index">0</property>
  <property name="vstream">0</property>
  <property name="meta.media.frame_rate_num">25</property>
  <property name="meta.media.frame_rate_den">1</property>
  <property name="meta.media.colorspace">709</property>
  <property name="meta.media.color_trc">1</property>
  <property name="meta.media.has_b_frames">1</property>
  <property name="meta.media.width">1280</property>
  <property name="meta.media.height">720</property>
  <property name="meta.media.aspect_ratio">1</property>
  <property name="meta.media.color_range">mpeg</property>
  <property name="astream">0</property>
  <property name="meta.media.top_field_first">0</property>
  <property name="meta.media.progressive">1</property>
  <property name="kdenlive:control_uuid">{e56cc4a7-20aa-482a-b3d8-96f7ed271aa2}</property>
  <property name="kdenlive:id">32</property>
  <property name="kdenlive:clip_type">0</property>
  <property name="kdenlive:file_size">2816689</property>
  <property name="kdenlive:file_hash">97c7326183cba7113925a8d21c75805e</property>
  <property name="kdenlive:folderid">-1</property>
  <property name="kdenlive:audio_max1">156</property>
 </chain>
 <chain id="chain22" out="00:00:01.000">
  <property name="length">16</property>
  <property name="eof">pause</property>
  <property name="resource">/home/schmilly/Downloads/Snapinsta.app_video_AQOOsAVmPv3qtzSJ44Z-cmU6PK2_7l4ar1HYQkLJ85NdbwWHzHSUAWU9W001DMl1SSfFQzODfS1jghRk9ZVTVdySVALBZBBN4jfZo64-32-37-0-1.mp4</property>
  <property name="mlt_service">avformat</property>
  <property name="meta.media.nb_streams">2</property>
  <property name="meta.media.0.stream.type">video</property>
  <property name="meta.media.0.stream.frame_rate">30</property>
  <property name="meta.media.0.stream.sample_aspect_ratio">0</property>
  <property name="meta.media.0.codec.width">720</property>
  <property name="meta.media.0.codec.height">1280</property>
  <property name="meta.media.0.codec.rotate">0</property>
  <property name="meta.media.0.codec.pix_fmt">yuv420p</property>
  <property name="meta.media.0.codec.sample_aspect_ratio">0</property>
  <property name="meta.media.0.codec.colorspace">709</property>
  <property name="meta.media.0.codec.color_trc">1</property>
  <property name="meta.media.0.codec.name">h264</property>
  <property name="meta.media.0.codec.long_name">H.264 / AVC / MPEG-4 AVC / MPEG-4 part 10</property>
  <property name="meta.media.0.codec.bit_rate">2296195</property>
  <property name="meta.attr.0.stream.handler_name.markup">VideoHandler</property>
  <property name="meta.attr.0.stream.vendor_id.markup">[0][0][0][0]</property>
  <property name="meta.attr.0.stream.encoder.markup">AVC Coding</property>
  <property name="meta.media.1.stream.type">audio</property>
  <property name="meta.media.1.codec.sample_fmt">fltp</property>
  <property name="meta.media.1.codec.sample_rate">44100</property>
  <property name="meta.media.1.codec.channels">2</property>
  <property name="meta.media.1.codec.layout">stereo</property>
  <property name="meta.media.1.codec.name">aac</property>
  <property name="meta.media.1.codec.long_name">AAC (Advanced Audio Coding)</property>
  <property name="meta.media.1.codec.bit_rate">52836</property>
  <property name="meta.attr.1.stream.handler_name.markup">SoundHandler</property>
  <property name="meta.attr.1.stream.vendor_id.markup">[0][0][0][0]</property>
  <property name="meta.attr.major_brand.markup">isom</property>
  <property name="meta.attr.minor_version.markup">512</property>
  <property name="meta.attr.compatible_brands.markup">isomiso2avc1mp41</property>
  <property name="meta.attr.encoder.markup">Lavf61.7.100</property>
  <property name="seekable">1</property>
  <property name="meta.media.sample_aspect_num">1</property>
  <property name="meta.media.sample_aspect_den">1</property>
  <property name="format">3</property>
  <property name="audio_index">1</property>
  <property name="video_index">0</property>
  <property name="vstream">0</property>
  <property name="meta.media.frame_rate_num">30</property>
  <property name="meta.media.frame_rate_den">1</property>
  <property name="meta.media.colorspace">709</property>
  <property name="meta.media.color_trc">1</property>
  <property name="meta.media.has_b_frames">2</property>
  <property name="meta.media.width">720</property>
  <property name="meta.media.height">1280</property>
  <property name="meta.media.aspect_ratio">1</property>
  <property name="meta.media.color_range">mpeg</property>
  <property name="astream">0</property>
  <property name="meta.media.top_field_first">0</property>
  <property name="meta.media.progressive">1</property>
  <property name="kdenlive:control_uuid">{2f1ea70a-1784-4d79-8e27-3fafd74bbf84}</property>
  <property name="kdenlive:id">42</property>
  <property name="kdenlive:clip_type">0</property>
  <property name="kdenlive:file_size">286123</property>
  <property name="kdenlive:file_hash">6aef024ea922700b51c4a2bfc552b954</property>
  <property name="kdenlive:folderid">-1</property>
  <property name="kdenlive:audio_max1">200</property>
 </chain>
 <playlist id="main_bin">
  <property name="kdenlive:folder.-1.2">Sequences</property>
  <property name="kdenlive:folder.-1.28">Text</property>
  <property name="kdenlive:sequenceFolder">2</property>
  <property name="kdenlive:docproperties.activetimeline">{21539263-3cf9-4533-becf-ddf070b54995}</property>
  <property name="kdenlive:docproperties.audioChannels">2</property>
  <property name="kdenlive:docproperties.binsort">0</property>
  <property name="kdenlive:docproperties.browserurl">/home/schmilly/Videos/</property>
  <property name="kdenlive:docproperties.documentid">1734962673219</property>
  <property name="kdenlive:docproperties.enableTimelineZone">0</property>
  <property name="kdenlive:docproperties.enableexternalproxy">0</property>
  <property name="kdenlive:docproperties.enableproxy">0</property>
  <property name="kdenlive:docproperties.externalproxyparams"/>
  <property name="kdenlive:docproperties.generateimageproxy">0</property>
  <property name="kdenlive:docproperties.generateproxy">0</property>
  <property name="kdenlive:docproperties.guidesCategories">[
    {
        "color": "#9b59b6",
        "comment": "Category 1",
        "index": 0
    },
    {
        "color": "#3daee9",
        "comment": "Category 2",
        "index": 1
    },
    {
        "color": "#1abc9c",
        "comment": "Category 3",
        "index": 2
    },
    {
        "color": "#1cdc9a",
        "comment": "Category 4",
        "index": 3
    },
    {
        "color": "#c9ce3b",
        "comment": "Category 5",
        "index": 4
    },
    {
        "color": "#fdbc4b",
        "comment": "Category 6",
        "index": 5
    },
    {
        "color": "#f39c1f",
        "comment": "Category 7",
        "index": 6
    },
    {
        "color": "#f47750",
        "comment": "Category 8",
        "index": 7
    },
    {
        "color": "#da4453",
        "comment": "Category 9",
        "index": 8
    }
]
</property>
  <property name="kdenlive:docproperties.kdenliveversion">24.12.0</property>
  <property name="kdenlive:docproperties.opensequences">{21539263-3cf9-4533-becf-ddf070b54995}</property>
  <property name="kdenlive:docproperties.previewextension">mp4</property>
  <property name="kdenlive:docproperties.previewparameters">c:v=h264_amf g=1 bf=0 vprofile=main preset=fast</property>
  <property name="kdenlive:docproperties.profile">/home/schmilly/.var/app/org.kde.kdenlive/data/kdenlive/profiles/customprofile0</property>
  <property name="kdenlive:docproperties.proxyextension"/>
  <property name="kdenlive:docproperties.proxyimageminsize">2000</property>
  <property name="kdenlive:docproperties.proxyimagesize">800</property>
  <property name="kdenlive:docproperties.proxyminsize">1000</property>
  <property name="kdenlive:docproperties.proxyparams"/>
  <property name="kdenlive:docproperties.proxyresize">640</property>
  <property name="kdenlive:docproperties.rendercategory">Generic (HD for web, mobile devices...)</property>
  <property name="kdenlive:docproperties.rendercustomquality">100</property>
  <property name="kdenlive:docproperties.renderendguide">0</property>
  <property name="kdenlive:docproperties.renderexportaudio">0</property>
  <property name="kdenlive:docproperties.renderfullcolorrange">0</property>
  <property name="kdenlive:docproperties.rendermode">1</property>
  <property name="kdenlive:docproperties.renderplay">0</property>
  <property name="kdenlive:docproperties.renderpreview">1</property>
  <property name="kdenlive:docproperties.renderprofile">MP4-H264/AAC</property>
  <property name="kdenlive:docproperties.renderrescale">0</property>
  <property name="kdenlive:docproperties.renderrescaleheight">960</property>
  <property name="kdenlive:docproperties.renderrescalewidth">960</property>
  <property name="kdenlive:docproperties.renderspeed">8</property>
  <property name="kdenlive:docproperties.renderstartguide">0</property>
  <property name="kdenlive:docproperties.rendertcoverlay">0</property>
  <property name="kdenlive:docproperties.rendertctype">-1</property>
  <property name="kdenlive:docproperties.rendertwopass">0</property>
  <property name="kdenlive:docproperties.renderurl">/home/schmilly/Videos/Edit-1500.mp4</property>
  <property name="kdenlive:docproperties.seekOffset">7500</property>
  <property name="kdenlive:docproperties.sessionid">{1ca90f1b-3588-46f8-bf28-973bfb9ad56f}</property>
  <property name="kdenlive:docproperties.uuid">{21539263-3cf9-4533-becf-ddf070b54995}</property>
  <property name="kdenlive:docproperties.version">1.1</property>
  <property name="kdenlive:expandedFolders">28</property>
  <property name="kdenlive:binZoom">4</property>
  <property name="kdenlive:extraBins">project_bin:-1:0</property>
  <property name="kdenlive:documentnotes"/>
  <property name="kdenlive:documentnotesversion">2</property>
  <property name="xml_retain">1</property>
  <entry in="00:00:00.000" out="00:01:09.000" producer="tractor18"/>
  <entry in="00:00:00.000" out="00:00:04.933" producer="producer14"/>
  <entry in="00:00:00.000" out="00:00:04.933" producer="producer10"/>
  <entry in="00:00:00.000" out="00:00:04.933" producer="producer39"/>
  <entry in="00:00:00.000" out="00:00:04.933" producer="producer5"/>
  <entry in="00:00:00.000" out="00:00:04.933" producer="producer17"/>
  <entry in="00:00:00.000" out="00:00:04.933" producer="producer4"/>
  <entry in="00:00:00.000" out="00:00:04.933" producer="producer34"/>
  <entry in="00:00:00.000" out="00:00:04.933" producer="producer15"/>
  <entry in="00:00:00.000" out="00:02:01.200" producer="chain5"/>
  <entry in="00:00:00.000" out="00:01:52.400" producer="chain6"/>
  <entry in="00:00:00.000" out="00:04:11.067" producer="chain7"/>
  <entry in="00:00:00.000" out="00:00:39.533" producer="chain8"/>
  <entry in="00:00:00.000" out="00:00:27.200" producer="chain9"/>
  <entry in="00:00:00.000" out="00:02:10.000" producer="chain10"/>
  <entry in="00:00:00.000" out="00:00:11.000" producer="chain11"/>
  <entry in="00:00:00.000" out="00:01:15.933" producer="chain12"/>
  <entry in="00:00:00.000" out="00:00:04.933" producer="producer40"/>
  <entry in="00:00:00.000" out="00:00:04.933" producer="producer1"/>
  <entry in="00:00:00.000" out="00:00:04.933" producer="producer3"/>
  <entry in="00:00:00.000" out="00:00:04.933" producer="producer2"/>
  <entry in="00:00:00.000" out="00:00:15.733" producer="chain13"/>
  <entry in="00:00:00.000" out="00:00:07.400" producer="chain14"/>
  <entry in="00:00:00.000" out="00:00:16.800" producer="chain15"/>
  <entry in="00:00:00.000" out="00:01:46.600" producer="chain16"/>
  <entry in="00:00:00.000" out="00:05:26.667" producer="chain17"/>
  <entry in="00:00:00.000" out="00:00:13.733" producer="chain18"/>
  <entry in="00:00:00.000" out="00:00:04.933" producer="producer23"/>
  <entry in="00:00:00.000" out="00:00:04.933" producer="producer41"/>
  <entry in="00:00:00.000" out="00:07:24.533" producer="chain19"/>
  <entry in="00:00:00.000" out="00:00:04.933" producer="producer42"/>
  <entry in="00:00:00.000" out="00:00:04.933" producer="producer26"/>
  <entry in="00:00:00.000" out="00:00:04.933" producer="producer24"/>
  <entry in="00:00:00.000" out="00:02:16.533" producer="chain20"/>
  <entry in="00:00:00.000" out="00:00:04.933" producer="producer25"/>
  <entry in="00:00:00.000" out="00:00:22.467" producer="chain21"/>
  <entry in="00:00:00.000" out="00:00:04.933" producer="producer16"/>
  <entry in="00:00:00.000" out="00:00:04.933" producer="producer27"/>
  <entry in="00:00:00.000" out="00:00:04.933" producer="producer28"/>
  <entry in="00:00:00.000" out="00:00:04.933" producer="producer29"/>
  <entry in="00:00:00.000" out="00:00:04.933" producer="producer30"/>
  <entry in="00:00:00.000" out="00:00:04.933" producer="producer31"/>
  <entry in="00:00:00.000" out="00:00:04.933" producer="producer32"/>
  <entry in="00:00:00.000" out="00:00:04.933" producer="producer33"/>
  <entry in="00:00:00.000" out="00:00:01.000" producer="chain22"/>
 </playlist>
 <tractor id="tractor19" in="00:00:00.000" out="00:01:09.000">
  <property name="kdenlive:projectTractor">1</property>
  <track in="00:00:00.000" out="00:01:09.000" producer="tractor18"/>
 </tractor>
</mlt>
