<?xml version="1.0" encoding="UTF-8" standalone="no"?>
<!-- Created with Inkscape (http://www.inkscape.org/) -->

<svg
   width="210mm"
   height="297mm"
   viewBox="0 0 210 297"
   version="1.1"
   id="svg1"
   xml:space="preserve"
   inkscape:export-filename="RAHU Poster - Advice.pdf"
   inkscape:export-xdpi="96"
   inkscape:export-ydpi="96"
   inkscape:version="1.4 (e7c3feb100, 2024-10-09)"
   sodipodi:docname="RAHU POSTER.svg"
   xmlns:inkscape="http://www.inkscape.org/namespaces/inkscape"
   xmlns:sodipodi="http://sodipodi.sourceforge.net/DTD/sodipodi-0.dtd"
   xmlns="http://www.w3.org/2000/svg"
   xmlns:svg="http://www.w3.org/2000/svg"><sodipodi:namedview
     id="namedview1"
     pagecolor="#505050"
     bordercolor="#eeeeee"
     borderopacity="1"
     inkscape:showpageshadow="0"
     inkscape:pageopacity="0"
     inkscape:pagecheckerboard="0"
     inkscape:deskcolor="#505050"
     inkscape:document-units="mm"
     inkscape:zoom="0.90532745"
     inkscape:cx="399.85532"
     inkscape:cy="632.92016"
     inkscape:window-width="2185"
     inkscape:window-height="2085"
     inkscape:window-x="0"
     inkscape:window-y="0"
     inkscape:window-maximized="0"
     inkscape:current-layer="layer1" /><defs
     id="defs1" /><g
     inkscape:label="Layer 1"
     inkscape:groupmode="layer"
     id="layer1"><rect
       style="fill:#ffffff;fill-opacity:1;stroke:none;stroke-width:2.67869;stroke-linecap:round;stroke-dasharray:none;paint-order:stroke fill markers"
       id="rect1"
       width="210"
       height="299.02914"
       x="-5.3290705e-15"
       y="0"
       ry="0" /><rect
       style="fill:#ffffff;stroke-width:2.64583;stroke-linecap:round;paint-order:stroke fill markers"
       id="rect2"
       width="4.4754543"
       height="1.3426365"
       x="130.01196"
       y="145.2285"
       ry="0.67131823" /><text
       xml:space="preserve"
       style="font-size:25.4579px;line-height:0;font-family:'Bitstream Vera Sans';-inkscape-font-specification:'Bitstream Vera Sans, Normal';text-align:start;letter-spacing:0px;writing-mode:lr-tb;direction:ltr;text-anchor:start;fill:#ffffff;fill-opacity:1;stroke:none;stroke-width:15.9121;stroke-linecap:round;stroke-dasharray:none;paint-order:stroke fill markers"
       x="105.28957"
       y="24.629583"
       id="text2"><tspan
         sodipodi:role="line"
         style="font-weight:normal;line-height:1;text-align:center;text-anchor:middle;fill:#000000;fill-opacity:1;stroke-width:15.9122"
         x="105.28957"
         y="24.629583"
         id="tspan91"><tspan
   style="font-size:16.9333px"
   id="tspan98">Do You Need</tspan> </tspan><tspan
         sodipodi:role="line"
         style="font-weight:normal;line-height:1;text-align:center;text-anchor:middle;fill:#000000;fill-opacity:1;stroke-width:15.9122"
         x="105.28957"
         y="50.087482"
         id="tspan92"><tspan
   style="font-weight:bold"
   id="tspan99">legal advice</tspan> </tspan><tspan
         sodipodi:role="line"
         style="font-weight:normal;font-size:16.9333px;line-height:1;text-align:center;text-anchor:middle;fill:#000000;fill-opacity:1;stroke-width:15.9122"
         x="105.28957"
         y="69.068687"
         id="tspan93">about your</tspan><tspan
         sodipodi:role="line"
         style="font-weight:normal;line-height:1;text-align:center;text-anchor:middle;fill:#000000;fill-opacity:1;stroke-width:15.9122"
         x="105.28957"
         y="92.478683"
         id="tspan97"> <tspan
   style="font-weight:bold"
   id="tspan100">Lease or</tspan></tspan><tspan
         sodipodi:role="line"
         style="font-weight:bold;line-height:1;text-align:center;text-anchor:middle;fill:#000000;fill-opacity:1;stroke-width:15.9122"
         x="105.28957"
         y="117.93658"
         id="tspan94">Rental?</tspan></text><text
       xml:space="preserve"
       style="font-size:27.8236px;line-height:1;font-family:'Bitstream Vera Sans';-inkscape-font-specification:'Bitstream Vera Sans, Normal';text-align:start;letter-spacing:0px;writing-mode:lr-tb;direction:ltr;text-anchor:start;fill:#000000;fill-opacity:1;stroke:none;stroke-width:17.3908;stroke-linecap:round;stroke-dasharray:none;paint-order:stroke fill markers"
       x="101.32874"
       y="171.10339"
       id="text10"><tspan
         sodipodi:role="line"
         style="text-align:center;text-anchor:middle;stroke-width:17.3908"
         x="101.32874"
         y="171.10339"
         id="tspan57">JOIN RAHU!</tspan></text><g
       style="clip-rule:evenodd;fill-rule:evenodd;stroke-linejoin:round;stroke-miterlimit:2"
       id="g55"
       transform="matrix(0.00914064,0,0,0.00914064,105.52575,181.16993)"><g
         id="g62"><circle
           cx="5314.96"
           cy="5314.96"
           r="5314.96"
           style="fill:#ffffff"
           id="circle1" /><path
           d="m 5314.96,0 c 2933.41,0 5314.96,2381.55 5314.96,5314.96 0,2933.41 -2381.55,5314.96 -5314.96,5314.96 C 2381.55,10629.92 0,8248.37 0,5314.96 0,2381.55 2381.55,0 5314.96,0 Z m 0,108.462 c -2873.55,0 -5206.5,2332.95 -5206.5,5206.5 0,2873.55 2332.95,5206.5 5206.5,5206.5 2873.55,0 5206.5,-2332.95 5206.5,-5206.5 0,-2873.55 -2332.95,-5206.5 -5206.5,-5206.5 z"
           id="path1" /><g
           transform="matrix(2.08333,0,0,2.08333,-164.112,-164.112)"
           id="g26"><g
             transform="matrix(0.49404,0.684689,-0.810937,0.585134,3521.54,1252.94)"
             id="g1"><text
               x="581.47101"
               y="3979.77"
               style="font-weight:500;font-size:298px;font-family:Roboto-Medium, Roboto"
               id="text1">R</text></g><g
             transform="matrix(0.540623,0.648538,-0.768119,0.640307,3487.14,1038.58)"
             id="g2"><text
               x="688.20801"
               y="4128.25"
               style="font-weight:500;font-size:298px;font-family:Roboto-Medium, Roboto"
               id="text2-3">E</text></g><g
             transform="matrix(0.586941,0.606939,-0.718851,0.695165,3388.75,815.577)"
             id="g3"><text
               x="794.59601"
               y="4257.54"
               style="font-weight:500;font-size:298px;font-family:Roboto-Medium, Roboto"
               id="text3">N</text></g><g
             transform="matrix(0.630672,0.561362,-0.66487,0.746959,3270.99,589.555)"
             id="g4"><text
               x="933.63501"
               y="4401.1201"
               style="font-weight:500;font-size:298px;font-family:Roboto-Medium, Roboto"
               id="text4">T</text></g><g
             transform="matrix(0.669605,0.514299,-0.609129,0.793071,3105.59,386.625)"
             id="g5"><text
               x="1066.79"
               y="4519.7798"
               style="font-weight:500;font-size:298px;font-family:Roboto-Medium, Roboto"
               id="text5">E</text></g><g
             transform="matrix(0.705086,0.464466,-0.550108,0.835094,2896.7,205.258)"
             id="g6"><text
               x="1199.35"
               y="4622.7202"
               style="font-weight:500;font-size:298px;font-family:Roboto-Medium, Roboto"
               id="text6">R</text></g><g
             transform="matrix(0.735796,0.414099,-0.490454,0.871467,2673.93,47.2742)"
             id="g7"><text
               x="1352.01"
               y="4723.6401"
               style="font-weight:500;font-size:298px;font-family:Roboto-Medium, Roboto"
               id="text7">S</text></g><g
             transform="matrix(0.770971,0.344207,-0.407674,0.913128,2340.89,-125.402)"
             id="g8"><text
               x="1588.3199"
               y="4849.75"
               style="font-weight:500;font-size:298px;font-family:Roboto-Medium, Roboto"
               id="text8">-</text></g><g
             transform="matrix(0.802073,0.263729,-0.312357,0.949965,1889.76,-220.308)"
             id="g9"><text
               x="1770.35"
               y="4928.2002"
               style="font-weight:500;font-size:298px;font-family:Roboto-Medium, Roboto"
               id="text9">A</text></g><g
             transform="matrix(0.820939,0.197318,-0.233701,0.972309,1515.63,-247.248)"
             id="g10"><text
               x="1953.17"
               y="4988.8398"
               style="font-weight:500;font-size:298px;font-family:Roboto-Medium, Roboto"
               id="text10-6">N</text></g><g
             transform="matrix(0.83428,0.129812,-0.153747,0.98811,1130.87,-219.379)"
             id="g11"><text
               x="2151.29"
               y="5036.5498"
               style="font-weight:500;font-size:298px;font-family:Roboto-Medium, Roboto"
               id="text11">D</text></g><g
             transform="matrix(0.842728,0.0518131,-0.0613667,0.998115,693.368,-116.293)"
             id="g12"><text
               x="2429.03"
               y="5073.5801"
               style="font-weight:500;font-size:298px;font-family:Roboto-Medium, Roboto"
               id="text12">-</text></g><g
             transform="matrix(0.843595,-0.0349541,0.0413992,0.999143,200.498,96.1992)"
             id="g13"><text
               x="2627.47"
               y="5083.4702"
               style="font-weight:500;font-size:298px;font-family:Roboto-Medium, Roboto"
               id="text13">H</text></g><g
             transform="matrix(0.837956,-0.103462,0.122538,0.992464,-163.172,331.144)"
             id="g14"><text
               x="2830.97"
               y="5075.25"
               style="font-weight:500;font-size:298px;font-family:Roboto-Medium, Roboto"
               id="text14">O</text></g><g
             transform="matrix(0.827142,-0.169443,0.200686,0.979656,-490.169,615.895)"
             id="g15"><text
               x="3028.3799"
               y="5050.9302"
               style="font-weight:500;font-size:298px;font-family:Roboto-Medium, Roboto"
               id="text15">U</text></g><g
             transform="matrix(0.812141,-0.230873,0.273443,0.961888,-766.886,933.121)"
             id="g16"><text
               x="3214.21"
               y="5012.77"
               style="font-weight:500;font-size:298px;font-family:Roboto-Medium, Roboto"
               id="text16">S</text></g><g
             transform="matrix(0.798592,-0.274089,0.324628,0.945842,-929.236,1196.66)"
             id="g17"><text
               x="3385.3501"
               y="4962.8301"
               style="font-weight:500;font-size:298px;font-family:Roboto-Medium, Roboto"
               id="text17">I</text></g><g
             transform="matrix(0.778854,-0.325977,0.386082,0.922464,-1135.58,1516)"
             id="g18"><text
               x="3477.28"
               y="4933.0498"
               style="font-weight:500;font-size:298px;font-family:Roboto-Medium, Roboto"
               id="text18">N</text></g><g
             transform="matrix(0.749848,-0.388075,0.45963,0.88811,-1314.22,1965.67)"
             id="g19"><text
               x="3665.5901"
               y="4854.27"
               style="font-weight:500;font-size:298px;font-family:Roboto-Medium, Roboto"
               id="text19">G</text></g><g
             transform="matrix(0.709072,-0.458357,0.542872,0.839816,-1420.77,2551.04)"
             id="g20"><text
               x="3917.3401"
               y="4716.4502"
               style="font-weight:500;font-size:298px;font-family:Roboto-Medium, Roboto"
               id="text20">-</text></g><g
             transform="matrix(0.659591,-0.52708,0.624267,0.781211,-1486.08,3159.62)"
             id="g21"><text
               x="4082.3799"
               y="4606.6201"
               style="font-weight:500;font-size:298px;font-family:Roboto-Medium, Roboto"
               id="text21">U</text></g><g
             transform="matrix(0.615396,-0.578068,0.684655,0.728867,-1446.3,3662.63)"
             id="g22"><text
               x="4230.5298"
               y="4488.9399"
               style="font-weight:500;font-size:298px;font-family:Roboto-Medium, Roboto"
               id="text22">N</text></g><g
             transform="matrix(0.581267,-0.612375,0.725289,0.688445,-1319.49,4035.95)"
             id="g23"><text
               x="4378.8799"
               y="4347.3301"
               style="font-weight:500;font-size:298px;font-family:Roboto-Medium, Roboto"
               id="text23">I</text></g><g
             transform="matrix(0.541107,-0.648135,0.767642,0.640879,-1243.68,4418.37)"
             id="g24"><text
               x="4446.5498"
               y="4278.2598"
               style="font-weight:500;font-size:298px;font-family:Roboto-Medium, Roboto"
               id="text24">O</text></g><g
             transform="matrix(0.486317,-0.690196,0.817459,0.575987,-1022.91,4906.58)"
             id="g25"><text
               x="4574.3398"
               y="4125.7998"
               style="font-weight:500;font-size:298px;font-family:Roboto-Medium, Roboto"
               id="text25">N</text></g></g><g
           transform="matrix(2.08333,0,0,2.08333,584.273,584.273)"
           id="g54"><g
             transform="matrix(0.495807,-0.695335,0.81421,0.580571,-662.652,711.99)"
             id="g27"><text
               x="388.07199"
               y="1054.17"
               style="font-size:302px;font-family:Roboto-Regular, Roboto"
               id="text26">C</text></g><g
             transform="matrix(0.550482,-0.652906,0.764526,0.644592,-473.23,643.35)"
             id="g28"><text
               x="491.20599"
               y="907.79797"
               style="font-size:302px;font-family:Roboto-Regular, Roboto"
               id="text27">O</text></g><g
             transform="matrix(0.599357,-0.608348,0.712351,0.701823,-298.534,600.314)"
             id="g29"><text
               x="612.53003"
               y="763.58398"
               style="font-size:302px;font-family:Roboto-Regular, Roboto"
               id="text28">L</text></g><g
             transform="matrix(0.638114,-0.567561,0.664592,0.747207,-177.436,572.526)"
             id="g30"><text
               x="716.14398"
               y="656.94202"
               style="font-size:302px;font-family:Roboto-Regular, Roboto"
               id="text29">L</text></g><g
             transform="matrix(0.674749,-0.523479,0.612973,0.790104,-73.0661,549.486)"
             id="g31"><text
               x="826.12402"
               y="557.55103"
               style="font-size:302px;font-family:Roboto-Regular, Roboto"
               id="text30">E</text></g><g
             transform="matrix(0.711135,-0.472867,0.553708,0.832711,19.4763,525.964)"
             id="g32"><text
               x="949.49103"
               y="460.16699"
               style="font-size:302px;font-family:Roboto-Regular, Roboto"
               id="text31">C</text></g><g
             transform="matrix(0.743837,-0.419551,0.491277,0.871003,101.875,505.942)"
             id="g33"><text
               x="1094.24"
               y="363.19601"
               style="font-size:302px;font-family:Roboto-Regular, Roboto"
               id="text32">T</text></g><g
             transform="matrix(0.764104,-0.381394,0.446597,0.894735,164.619,501.276)"
             id="g34"><text
               x="1235.89"
               y="284.198"
               style="font-size:302px;font-family:Roboto-Regular, Roboto"
               id="text33">I</text></g><g
             transform="matrix(0.785686,-0.334685,0.391903,0.920007,183.043,456.909)"
             id="g35"><text
               x="1306.11"
               y="247.192"
               style="font-size:302px;font-family:Roboto-Regular, Roboto"
               id="text34">V</text></g><g
             transform="matrix(0.809131,-0.273173,0.319875,0.94746,222.923,409.998)"
             id="g36"><text
               x="1466.6"
               y="178.21001"
               style="font-size:302px;font-family:Roboto-Regular, Roboto"
               id="text35">E</text></g><g
             transform="matrix(0.827918,-0.209446,0.245252,0.969459,262.268,355.313)"
             id="g37"><text
               x="1680.45"
               y="109.709"
               style="font-size:302px;font-family:Roboto-Regular, Roboto"
               id="text36">-</text></g><g
             transform="matrix(0.844128,-0.129474,0.151609,0.988441,273.641,237.337)"
             id="g38"><text
               x="1826.5699"
               y="73.019997"
               style="font-size:302px;font-family:Roboto-Regular, Roboto"
               id="text37">O</text></g><g
             transform="matrix(0.851996,-0.0584771,0.0684744,0.997653,294.949,117.82)"
             id="g39"><text
               x="2013.05"
               y="43.681999"
               style="font-size:302px;font-family:Roboto-Regular, Roboto"
               id="text38">R</text></g><g
             transform="matrix(0.853988,0.0045702,-0.00535152,0.999986,318.796,-9.97273)"
             id="g40"><text
               x="2182.22"
               y="30.834"
               style="font-size:302px;font-family:Roboto-Regular, Roboto"
               id="text39">G</text></g><g
             transform="matrix(0.850776,0.0741337,-0.0868076,0.996225,356.229,-175.505)"
             id="g41"><text
               x="2369.01"
               y="31.306"
               style="font-size:302px;font-family:Roboto-Regular, Roboto"
               id="text40">A</text></g><g
             transform="matrix(0.841506,0.145545,-0.170428,0.98537,411.73,-370.249)"
             id="g42"><text
               x="2548.48"
               y="45.834999"
               style="font-size:302px;font-family:Roboto-Regular, Roboto"
               id="text41">N</text></g><g
             transform="matrix(0.831923,0.192927,-0.22591,0.974148,478.191,-526.125)"
             id="g43"><text
               x="2737.77"
               y="79.829002"
               style="font-size:302px;font-family:Roboto-Regular, Roboto"
               id="text42">I</text></g><g
             transform="matrix(0.819427,0.24053,-0.281651,0.959517,535.546,-673.324)"
             id="g44"><text
               x="2815.55"
               y="96.343002"
               style="font-size:302px;font-family:Roboto-Regular, Roboto"
               id="text43">S</text></g><g
             transform="matrix(0.799109,0.301232,-0.352731,0.935725,647.123,-886.317)"
             id="g45"><text
               x="2972.53"
               y="141.662"
               style="font-size:302px;font-family:Roboto-Regular, Roboto"
               id="text44">E</text></g><g
             transform="matrix(0.774337,0.360164,-0.421738,0.906718,786.731,-1105.55)"
             id="g46"><text
               x="3120.3101"
               y="195.839"
               style="font-size:302px;font-family:Roboto-Regular, Roboto"
               id="text45">D</text></g><g
             transform="matrix(0.741687,0.42334,-0.495714,0.868486,1014.1,-1375.06)"
             id="g47"><text
               x="3342.55"
               y="303.953"
               style="font-size:302px;font-family:Roboto-Regular, Roboto"
               id="text46">-</text></g><g
             transform="matrix(0.699397,0.49006,-0.573841,0.818967,1261.48,-1633.38)"
             id="g48"><text
               x="3473.02"
               y="378.987"
               style="font-size:302px;font-family:Roboto-Regular, Roboto"
               id="text47">A</text></g><g
             transform="matrix(0.65811,0.544249,-0.637294,0.770621,1543.62,-1859.59)"
             id="g49"><text
               x="3619.3101"
               y="480.48801"
               style="font-size:302px;font-family:Roboto-Regular, Roboto"
               id="text48">C</text></g><g
             transform="matrix(0.616764,0.590693,-0.691678,0.722206,1847.47,-2053.24)"
             id="g50"><text
               x="3753.95"
               y="591.06299"
               style="font-size:302px;font-family:Roboto-Regular, Roboto"
               id="text49">T</text></g><g
             transform="matrix(0.586547,0.620708,-0.726825,0.686823,2111.35,-2181.94)"
             id="g51"><text
               x="3870.1299"
               y="703.38202"
               style="font-size:302px;font-family:Roboto-Regular, Roboto"
               id="text50">I</text></g><g
             transform="matrix(0.54621,0.656483,-0.768716,0.63959,2366.03,-2303.75)"
             id="g52"><text
               x="3926.47"
               y="760.01202"
               style="font-size:302px;font-family:Roboto-Regular, Roboto"
               id="text51">O</text></g><g
             transform="matrix(0.488093,0.700772,-0.820576,0.571537,2814.67,-2449.17)"
             id="g53"><text
               x="4048.1201"
               y="904.73602"
               style="font-size:302px;font-family:Roboto-Regular, Roboto"
               id="text52">N</text></g></g><path
           d="m 5314.96,748.728 c 2520.17,0 4566.23,2046.06 4566.23,4566.23 0,2520.17 -2046.06,4566.23 -4566.23,4566.23 -2520.17,0 -4566.23,-2046.06 -4566.23,-4566.23 0,-2520.17 2046.06,-4566.23 4566.23,-4566.23 z m 0,108.462 c -2460.31,0 -4457.77,1997.46 -4457.77,4457.77 0,2460.31 1997.46,4457.77 4457.77,4457.77 2460.31,0 4457.77,-1997.46 4457.77,-4457.77 0,-2460.31 -1997.46,-4457.77 -4457.77,-4457.77 z"
           id="path54" /><circle
           cx="5314.96"
           cy="5314.96"
           r="4457.77"
           style="fill:#ffffff"
           id="circle54" /><clipPath
           id="_clip1"><circle
             cx="5314.96"
             cy="5314.96"
             r="4457.77"
             id="circle55" /></clipPath><g
           clip-path="url(#_clip1)"
           id="g59"><path
             d="m 13.356,4584.98 h 1847.43 V 3505.99 l -359.504,-130.489 1102.19,-1116.84 1227.07,1247.33 h -314.805 v 1078.99 h 470.497 v -1543.77 l -625.965,-197.903 1464.81,-1177.13 1664.37,1326.02 -640.885,3.646 v 1589.13 h 670.7 v -2886.39 h 1139.98 l 175.448,234.393 v 2652 h 332.544 v -889.008 l -298.833,-102.209 674.753,-720.463 725.166,799.901 h -301.717 v 911.779 h 1762.97 v 5708.37 H 13.375 v -5708.37 z"
             style="fill:#080605"
             id="path55" /><clipPath
             id="_clip2"><path
               d="m 13.356,4584.98 h 1847.43 V 3505.99 l -359.504,-130.489 1102.19,-1116.84 1227.07,1247.33 h -314.805 v 1078.99 h 470.497 v -1543.77 l -625.965,-197.903 1464.81,-1177.13 1664.37,1326.02 -640.885,3.646 v 1589.13 h 670.7 v -2886.39 h 1139.98 l 175.448,234.393 v 2652 h 332.544 v -889.008 l -298.833,-102.209 674.753,-720.463 725.166,799.901 h -301.717 v 911.779 h 1762.97 v 5708.37 H 13.375 v -5708.37 z"
               id="path56" /></clipPath><g
             clip-path="url(#_clip2)"
             id="g58"><path
               d="m 13.356,4699.97 h 1962.6 V 3260.24 h -199.01 l 826.299,-837.321 822.317,837.321 h -200.291 v 1439.73 h 875.905 V 2740.02 h -426.153 l 1149.37,-926.172 1160.86,926.172 h -433.846 v 1959.95 h 1082.94 V 1813.84 h 909.63 v 2886.13 h 738.105 V 3490.33 h -160.141 l 419.976,-452.785 401.689,452.785 h -197.663 v 1209.64 h 1870.61 v 5593.38 H 13.353 V 4699.97 Z"
               style="fill:#ff4f4f"
               id="path57" /><path
               d="m 13.356,4689.34 c 0,0 1951.97,0 1951.97,0 V 3270.87 h -213.799 l 851.733,-863.095 847.629,863.095 c 0,0 -214.995,0 -214.995,0 0,0 0,1418.47 0,1418.47 92.645,0 762.007,0 854.652,0 v -1938.7 h -445.649 l 1179.46,-950.418 1191.26,950.418 c 0,0 -453.578,0 -453.578,0 0,0 0,1938.7 0,1938.7 h 1061.69 V 1803.21 h 930.884 v 2886.13 h 716.851 V 3500.95 h -173.865 l 444.502,-479.228 425.147,479.228 h -210.67 v 1188.39 h 1870.61 v 5614.63 H 2.688 V 4689.34 h 10.626 z m 0,10.626 v 5593.38 h 10603.2 v -5593.38 h -1870.61 v -1209.64 h 197.663 l -401.689,-452.785 -419.976,452.785 h 160.141 v 1209.64 H 7543.98 v -2886.13 h -909.63 v 2886.13 H 5551.41 v -1959.95 h 433.846 l -1160.86,-926.172 -1149.37,926.172 h 426.153 v 1959.95 h -875.905 v -1439.73 h 200.291 l -822.317,-837.321 -826.299,837.321 h 199.01 v 1439.73 H 13.359 Z"
               id="path58" /></g></g><path
           d="m 5314.96,748.728 c 2520.17,0 4566.23,2046.06 4566.23,4566.23 0,2520.17 -2046.06,4566.23 -4566.23,4566.23 -2520.17,0 -4566.23,-2046.06 -4566.23,-4566.23 0,-2520.17 2046.06,-4566.23 4566.23,-4566.23 z m 0,108.462 c -2460.31,0 -4457.77,1997.46 -4457.77,4457.77 0,2460.31 1997.46,4457.77 4457.77,4457.77 2460.31,0 4457.77,-1997.46 4457.77,-4457.77 0,-2460.31 -1997.46,-4457.77 -4457.77,-4457.77 z"
           id="path59" /><g
           transform="matrix(0.968908,0,0,1,-14.3588,0)"
           id="g61"><g
             transform="matrix(3078.92,0,0,3078.92,9207.48,7418.58)"
             id="g60" /><text
             x="1775.15"
             y="7418.5801"
             style="font-weight:700;font-size:3078.92px;font-family:RobotoCondensed-Bold, 'Roboto Condensed';fill:#000000;fill-opacity:1;fill-rule:nonzero;stroke:none;stroke-width:0.99832;stroke-dasharray:none;stroke-opacity:1"
             id="text60"><tspan
               style="font-style:normal;font-variant:normal;font-weight:bold;font-stretch:normal;font-family:'Roboto Condensed';-inkscape-font-specification:'Roboto Condensed,  Bold';fill-rule:nonzero"
               id="tspan55">R</tspan><tspan
               x="3560.04 5478.73 7448.5298"
               y="7418.5801 7418.5801 7418.5801"
               id="tspan60"
               style="font-style:normal;font-variant:normal;font-weight:bold;font-stretch:normal;font-family:'Roboto Condensed';-inkscape-font-specification:'Roboto Condensed,  Bold';fill:#000000;fill-opacity:1;fill-rule:nonzero;stroke:none;stroke-width:0.99832;stroke-dasharray:none;stroke-opacity:1">AHU</tspan></text></g></g></g><g
       id="g57"
       transform="matrix(0.3996033,0,0,0.3996033,12.888764,185.21581)"><path
         d="m 8,8 h 7 v 7 H 8 Z m 7,0 h 7 v 7 h -7 z m 7,0 h 7 v 7 h -7 z m 7,0 h 7 v 7 h -7 z m 7,0 h 7 v 7 h -7 z m 7,0 h 7 v 7 h -7 z m 7,0 h 7 v 7 h -7 z m 28,0 h 7 v 7 h -7 z m 7,0 h 7 v 7 h -7 z m 28,0 h 7 v 7 h -7 z m 7,0 h 7 v 7 h -7 z m 7,0 h 7 v 7 h -7 z m 7,0 h 7 v 7 h -7 z m 7,0 h 7 v 7 h -7 z m 7,0 h 7 v 7 h -7 z m 14,0 h 7 v 7 h -7 z m 7,0 h 7 v 7 h -7 z m 7,0 h 7 v 7 h -7 z m 7,0 h 7 v 7 h -7 z m 7,0 h 7 v 7 h -7 z m 7,0 h 7 v 7 h -7 z m 7,0 h 7 v 7 h -7 z M 8,15 h 7 v 7 H 8 Z m 42,0 h 7 v 7 h -7 z m 14,0 h 7 v 7 h -7 z m 49,0 h 7 v 7 h -7 z m 14,0 h 7 v 7 h -7 z m 35,0 h 7 v 7 h -7 z m 42,0 h 7 v 7 h -7 z M 8,22 h 7 v 7 H 8 Z m 14,0 h 7 v 7 h -7 z m 7,0 h 7 v 7 h -7 z m 7,0 h 7 v 7 h -7 z m 14,0 h 7 v 7 h -7 z m 14,0 h 7 v 7 h -7 z m 28,0 h 7 v 7 h -7 z m 21,0 h 7 v 7 h -7 z m 28,0 h 7 v 7 h -7 z m 21,0 h 7 v 7 h -7 z m 14,0 h 7 v 7 h -7 z m 7,0 h 7 v 7 h -7 z m 7,0 h 7 v 7 h -7 z m 14,0 h 7 v 7 h -7 z M 8,29 h 7 v 7 H 8 Z m 14,0 h 7 v 7 h -7 z m 7,0 h 7 v 7 h -7 z m 7,0 h 7 v 7 h -7 z m 14,0 h 7 v 7 h -7 z m 21,0 h 7 v 7 h -7 z m 35,0 h 7 v 7 h -7 z m 7,0 h 7 v 7 h -7 z m 7,0 h 7 v 7 h -7 z m 7,0 h 7 v 7 h -7 z m 35,0 h 7 v 7 h -7 z m 14,0 h 7 v 7 h -7 z m 7,0 h 7 v 7 h -7 z m 7,0 h 7 v 7 h -7 z m 14,0 h 7 v 7 h -7 z M 8,36 h 7 v 7 H 8 Z m 14,0 h 7 v 7 h -7 z m 7,0 h 7 v 7 h -7 z m 7,0 h 7 v 7 h -7 z m 14,0 h 7 v 7 h -7 z m 21,0 h 7 v 7 h -7 z m 7,0 h 7 v 7 h -7 z m 7,0 h 7 v 7 h -7 z m 7,0 h 7 v 7 h -7 z m 7,0 h 7 v 7 h -7 z m 14,0 h 7 v 7 h -7 z m 21,0 h 7 v 7 h -7 z m 7,0 h 7 v 7 h -7 z m 21,0 h 7 v 7 h -7 z m 14,0 h 7 v 7 h -7 z m 7,0 h 7 v 7 h -7 z m 7,0 h 7 v 7 h -7 z m 14,0 h 7 v 7 h -7 z M 8,43 h 7 v 7 H 8 Z m 42,0 h 7 v 7 h -7 z m 21,0 h 7 v 7 h -7 z m 14,0 h 7 v 7 h -7 z m 14,0 h 7 v 7 h -7 z m 21,0 h 7 v 7 h -7 z m 21,0 h 7 v 7 h -7 z m 7,0 h 7 v 7 h -7 z m 14,0 h 7 v 7 h -7 z m 42,0 h 7 v 7 h -7 z M 8,50 h 7 v 7 H 8 Z m 7,0 h 7 v 7 h -7 z m 7,0 h 7 v 7 h -7 z m 7,0 h 7 v 7 h -7 z m 7,0 h 7 v 7 h -7 z m 7,0 h 7 v 7 h -7 z m 7,0 h 7 v 7 h -7 z m 14,0 h 7 v 7 h -7 z m 14,0 h 7 v 7 h -7 z m 14,0 h 7 v 7 h -7 z m 14,0 h 7 v 7 h -7 z m 14,0 h 7 v 7 h -7 z m 14,0 h 7 v 7 h -7 z m 14,0 h 7 v 7 h -7 z m 14,0 h 7 v 7 h -7 z m 7,0 h 7 v 7 h -7 z m 7,0 h 7 v 7 h -7 z m 7,0 h 7 v 7 h -7 z m 7,0 h 7 v 7 h -7 z m 7,0 h 7 v 7 h -7 z m 7,0 h 7 v 7 h -7 z M 71,57 h 7 v 7 h -7 z m 21,0 h 7 v 7 h -7 z m 21,0 h 7 v 7 h -7 z m 14,0 h 7 v 7 h -7 z m 21,0 h 7 v 7 h -7 z M 15,64 h 7 v 7 h -7 z m 7,0 h 7 v 7 h -7 z m 7,0 h 7 v 7 h -7 z m 14,0 h 7 v 7 h -7 z m 7,0 h 7 v 7 h -7 z m 21,0 h 7 v 7 h -7 z m 7,0 h 7 v 7 h -7 z m 7,0 h 7 v 7 h -7 z m 35,0 h 7 v 7 h -7 z m 7,0 h 7 v 7 h -7 z m 7,0 h 7 v 7 h -7 z m 7,0 h 7 v 7 h -7 z m 49,0 h 7 v 7 h -7 z m 7,0 h 7 v 7 h -7 z M 22,71 h 7 v 7 h -7 z m 7,0 h 7 v 7 h -7 z m 7,0 h 7 v 7 h -7 z m 7,0 h 7 v 7 h -7 z m 14,0 h 7 v 7 h -7 z m 21,0 h 7 v 7 h -7 z m 14,0 h 7 v 7 h -7 z m 7,0 h 7 v 7 h -7 z m 21,0 h 7 v 7 h -7 z m 21,0 h 7 v 7 h -7 z m 7,0 h 7 v 7 h -7 z m 7,0 h 7 v 7 h -7 z m 7,0 h 7 v 7 h -7 z m 7,0 h 7 v 7 h -7 z m 7,0 h 7 v 7 h -7 z m 28,0 h 7 v 7 h -7 z M 15,78 h 7 v 7 h -7 z m 7,0 h 7 v 7 h -7 z m 14,0 h 7 v 7 h -7 z m 14,0 h 7 v 7 h -7 z m 7,0 h 7 v 7 h -7 z m 42,0 h 7 v 7 h -7 z m 7,0 h 7 v 7 h -7 z m 21,0 h 7 v 7 h -7 z m 7,0 h 7 v 7 h -7 z m 14,0 h 7 v 7 h -7 z m 14,0 h 7 v 7 h -7 z m 14,0 h 7 v 7 h -7 z m 7,0 h 7 v 7 h -7 z m 7,0 h 7 v 7 h -7 z m 7,0 h 7 v 7 h -7 z M 15,85 h 7 v 7 h -7 z m 7,0 h 7 v 7 h -7 z m 21,0 h 7 v 7 h -7 z m 42,0 h 7 v 7 h -7 z m 21,0 h 7 v 7 h -7 z m 28,0 h 7 v 7 h -7 z m 35,0 h 7 v 7 h -7 z m 7,0 h 7 v 7 h -7 z m 28,0 h 7 v 7 h -7 z M 22,92 h 7 v 7 h -7 z m 7,0 h 7 v 7 h -7 z m 7,0 h 7 v 7 h -7 z m 14,0 h 7 v 7 h -7 z m 7,0 h 7 v 7 h -7 z m 21,0 h 7 v 7 h -7 z m 7,0 h 7 v 7 h -7 z m 14,0 h 7 v 7 h -7 z m 7,0 h 7 v 7 h -7 z m 14,0 h 7 v 7 h -7 z m 7,0 h 7 v 7 h -7 z m 7,0 h 7 v 7 h -7 z m 21,0 h 7 v 7 h -7 z m 14,0 h 7 v 7 h -7 z m 14,0 h 7 v 7 h -7 z m 7,0 h 7 v 7 h -7 z m 7,0 h 7 v 7 h -7 z m 7,0 h 7 v 7 h -7 z M 15,99 h 7 v 7 h -7 z m 7,0 h 7 v 7 h -7 z m 21,0 h 7 v 7 h -7 z m 21,0 h 7 v 7 h -7 z m 7,0 h 7 v 7 h -7 z m 21,0 h 7 v 7 h -7 z m 28,0 h 7 v 7 h -7 z m 7,0 h 7 v 7 h -7 z m 14,0 h 7 v 7 h -7 z m 21,0 h 7 v 7 h -7 z m 7,0 h 7 v 7 h -7 z m 14,0 h 7 v 7 h -7 z m 7,0 h 7 v 7 h -7 z m 14,0 h 7 v 7 h -7 z M 8,106 h 7 v 7 H 8 Z m 42,0 h 7 v 7 h -7 z m 7,0 h 7 v 7 h -7 z m 49,0 h 7 v 7 h -7 z m 7,0 h 7 v 7 h -7 z m 21,0 h 7 v 7 h -7 z m 7,0 h 7 v 7 h -7 z m 28,0 h 7 v 7 h -7 z m 7,0 h 7 v 7 h -7 z m 7,0 h 7 v 7 h -7 z m 14,0 h 7 v 7 h -7 z m 7,0 h 7 v 7 h -7 z m -175,7 h 7 v 7 h -7 z m 7,0 h 7 v 7 h -7 z m 28,0 h 7 v 7 h -7 z m 14,0 h 7 v 7 h -7 z m 7,0 h 7 v 7 h -7 z m 7,0 h 7 v 7 h -7 z m 14,0 h 7 v 7 h -7 z m 7,0 h 7 v 7 h -7 z m 7,0 h 7 v 7 h -7 z m 21,0 h 7 v 7 h -7 z m 35,0 h 7 v 7 h -7 z m 7,0 h 7 v 7 h -7 z m 14,0 h 7 v 7 h -7 z m 7,0 h 7 v 7 h -7 z M 8,120 h 7 v 7 H 8 Z m 7,0 h 7 v 7 h -7 z m 28,0 h 7 v 7 h -7 z m 7,0 h 7 v 7 h -7 z m 21,0 h 7 v 7 h -7 z m 14,0 h 7 v 7 h -7 z m 14,0 h 7 v 7 h -7 z m 7,0 h 7 v 7 h -7 z m 7,0 h 7 v 7 h -7 z m 7,0 h 7 v 7 h -7 z m 35,0 h 7 v 7 h -7 z m 14,0 h 7 v 7 h -7 z m 7,0 h 7 v 7 h -7 z m 7,0 h 7 v 7 h -7 z m 14,0 h 7 v 7 h -7 z m 7,0 h 7 v 7 h -7 z m -189,7 h 7 v 7 h -7 z m 14,0 h 7 v 7 h -7 z m 35,0 h 7 v 7 h -7 z m 21,0 h 7 v 7 h -7 z m 35,0 h 7 v 7 h -7 z m 7,0 h 7 v 7 h -7 z m 21,0 h 7 v 7 h -7 z m 21,0 h 7 v 7 h -7 z M 8,134 h 7 v 7 H 8 Z m 35,0 h 7 v 7 h -7 z m 7,0 h 7 v 7 h -7 z m 21,0 h 7 v 7 h -7 z m 7,0 h 7 v 7 h -7 z m 28,0 h 7 v 7 h -7 z m 7,0 h 7 v 7 h -7 z m 7,0 h 7 v 7 h -7 z m 7,0 h 7 v 7 h -7 z m 21,0 h 7 v 7 h -7 z m 14,0 h 7 v 7 h -7 z m 21,0 h 7 v 7 h -7 z m -161,7 h 7 v 7 h -7 z m 7,0 h 7 v 7 h -7 z m 7,0 h 7 v 7 h -7 z m 35,0 h 7 v 7 h -7 z m 7,0 h 7 v 7 h -7 z m 7,0 h 7 v 7 h -7 z m 42,0 h 7 v 7 h -7 z m 28,0 h 7 v 7 h -7 z m 7,0 h 7 v 7 h -7 z m 7,0 h 7 v 7 h -7 z m 7,0 h 7 v 7 h -7 z m 14,0 h 7 v 7 h -7 z m 14,0 h 7 v 7 h -7 z m -189,7 h 7 v 7 h -7 z m 7,0 h 7 v 7 h -7 z m 7,0 h 7 v 7 h -7 z m 14,0 h 7 v 7 h -7 z m 7,0 h 7 v 7 h -7 z m 14,0 h 7 v 7 h -7 z m 7,0 h 7 v 7 h -7 z m 7,0 h 7 v 7 h -7 z m 21,0 h 7 v 7 h -7 z m 7,0 h 7 v 7 h -7 z m 14,0 h 7 v 7 h -7 z m 7,0 h 7 v 7 h -7 z m 7,0 h 7 v 7 h -7 z m 14,0 h 7 v 7 h -7 z m 7,0 h 7 v 7 h -7 z m 7,0 h 7 v 7 h -7 z m 7,0 h 7 v 7 h -7 z m 7,0 h 7 v 7 h -7 z m 7,0 h 7 v 7 h -7 z m 7,0 h 7 v 7 h -7 z m 7,0 h 7 v 7 h -7 z m -133,7 h 7 v 7 h -7 z m 7,0 h 7 v 7 h -7 z m 28,0 h 7 v 7 h -7 z m 21,0 h 7 v 7 h -7 z m 7,0 h 7 v 7 h -7 z m 7,0 h 7 v 7 h -7 z m 7,0 h 7 v 7 h -7 z m 7,0 h 7 v 7 h -7 z m 28,0 h 7 v 7 h -7 z m 7,0 h 7 v 7 h -7 z m 14,0 h 7 v 7 h -7 z m 7,0 h 7 v 7 h -7 z M 8,162 h 7 v 7 H 8 Z m 7,0 h 7 v 7 h -7 z m 7,0 h 7 v 7 h -7 z m 7,0 h 7 v 7 h -7 z m 7,0 h 7 v 7 h -7 z m 7,0 h 7 v 7 h -7 z m 7,0 h 7 v 7 h -7 z m 21,0 h 7 v 7 h -7 z m 7,0 h 7 v 7 h -7 z m 7,0 h 7 v 7 h -7 z m 7,0 h 7 v 7 h -7 z m 14,0 h 7 v 7 h -7 z m 28,0 h 7 v 7 h -7 z m 7,0 h 7 v 7 h -7 z m 7,0 h 7 v 7 h -7 z m 14,0 h 7 v 7 h -7 z m 14,0 h 7 v 7 h -7 z m 14,0 h 7 v 7 h -7 z M 8,169 h 7 v 7 H 8 Z m 42,0 h 7 v 7 h -7 z m 14,0 h 7 v 7 h -7 z m 7,0 h 7 v 7 h -7 z m 7,0 h 7 v 7 h -7 z m 28,0 h 7 v 7 h -7 z m 7,0 h 7 v 7 h -7 z m 7,0 h 7 v 7 h -7 z m 14,0 h 7 v 7 h -7 z m 14,0 h 7 v 7 h -7 z m 28,0 h 7 v 7 h -7 z m 21,0 h 7 v 7 h -7 z M 8,176 h 7 v 7 H 8 Z m 14,0 h 7 v 7 h -7 z m 7,0 h 7 v 7 h -7 z m 7,0 h 7 v 7 h -7 z m 14,0 h 7 v 7 h -7 z m 28,0 h 7 v 7 h -7 z m 28,0 h 7 v 7 h -7 z m 7,0 h 7 v 7 h -7 z m 21,0 h 7 v 7 h -7 z m 14,0 h 7 v 7 h -7 z m 7,0 h 7 v 7 h -7 z m 7,0 h 7 v 7 h -7 z m 7,0 h 7 v 7 h -7 z m 7,0 h 7 v 7 h -7 z m 7,0 h 7 v 7 h -7 z m 7,0 h 7 v 7 h -7 z M 8,183 h 7 v 7 H 8 Z m 14,0 h 7 v 7 h -7 z m 7,0 h 7 v 7 h -7 z m 7,0 h 7 v 7 h -7 z m 14,0 h 7 v 7 h -7 z m 14,0 h 7 v 7 h -7 z m 14,0 h 7 v 7 h -7 z m 7,0 h 7 v 7 h -7 z m 7,0 h 7 v 7 h -7 z m 28,0 h 7 v 7 h -7 z m 21,0 h 7 v 7 h -7 z m 35,0 h 7 v 7 h -7 z m 7,0 h 7 v 7 h -7 z m 14,0 h 7 v 7 h -7 z M 8,190 h 7 v 7 H 8 Z m 14,0 h 7 v 7 h -7 z m 7,0 h 7 v 7 h -7 z m 7,0 h 7 v 7 h -7 z m 14,0 h 7 v 7 h -7 z m 14,0 h 7 v 7 h -7 z m 7,0 h 7 v 7 h -7 z m 14,0 h 7 v 7 h -7 z m 21,0 h 7 v 7 h -7 z m 7,0 h 7 v 7 h -7 z m 7,0 h 7 v 7 h -7 z m 7,0 h 7 v 7 h -7 z m 7,0 h 7 v 7 h -7 z m 14,0 h 7 v 7 h -7 z m 21,0 h 7 v 7 h -7 z m 21,0 h 7 v 7 h -7 z m 14,0 h 7 v 7 h -7 z M 8,197 h 7 v 7 H 8 Z m 42,0 h 7 v 7 h -7 z m 14,0 h 7 v 7 h -7 z m 14,0 h 7 v 7 h -7 z m 14,0 h 7 v 7 h -7 z m 28,0 h 7 v 7 h -7 z m 28,0 h 7 v 7 h -7 z m 14,0 h 7 v 7 h -7 z m 14,0 h 7 v 7 h -7 z m 7,0 h 7 v 7 h -7 z m 14,0 h 7 v 7 h -7 z M 8,204 h 7 v 7 H 8 Z m 7,0 h 7 v 7 h -7 z m 7,0 h 7 v 7 h -7 z m 7,0 h 7 v 7 h -7 z m 7,0 h 7 v 7 h -7 z m 7,0 h 7 v 7 h -7 z m 7,0 h 7 v 7 h -7 z m 35,0 h 7 v 7 h -7 z m 7,0 h 7 v 7 h -7 z m 21,0 h 7 v 7 h -7 z m 7,0 h 7 v 7 h -7 z m 14,0 h 7 v 7 h -7 z m 14,0 h 7 v 7 h -7 z m 14,0 h 7 v 7 h -7 z m 7,0 h 7 v 7 h -7 z m 28,0 h 7 v 7 h -7 z"
         stroke="transparent"
         fill="#0c0c0d"
         id="path1-3" /></g><text
       xml:space="preserve"
       style="font-style:normal;font-variant:normal;font-weight:bold;font-stretch:normal;font-size:9.27212px;line-height:1;font-family:'Roboto Condensed';-inkscape-font-specification:'Roboto Condensed,  Bold';text-align:center;letter-spacing:0px;writing-mode:lr-tb;direction:ltr;text-anchor:middle;fill:#000000;fill-opacity:1;fill-rule:nonzero;stroke:none;stroke-width:0.142367;stroke-linecap:round;stroke-dasharray:none;stroke-opacity:1;paint-order:stroke fill markers"
       x="55.356468"
       y="278.78659"
       id="text58"><tspan
         sodipodi:role="line"
         id="tspan58"
         style="font-weight:normal;stroke-width:0.142367"
         x="55.356468"
         y="278.78659">Scan to Learn about us</tspan></text></g></svg>
