<?xml version="1.0" encoding="UTF-8" standalone="no"?>
<!-- Created with Inkscape (http://www.inkscape.org/) -->

<svg
   width="297mm"
   height="210mm"
   viewBox="0 0 297 210"
   version="1.1"
   id="svg5"
   inkscape:version="1.2.2 (b0a8486541, 2022-12-01)"
   sodipodi:docname="Panphlet.svg"
   xml:space="preserve"
   xmlns:inkscape="http://www.inkscape.org/namespaces/inkscape"
   xmlns:sodipodi="http://sodipodi.sourceforge.net/DTD/sodipodi-0.dtd"
   xmlns="http://www.w3.org/2000/svg"
   xmlns:svg="http://www.w3.org/2000/svg"><sodipodi:namedview
     id="namedview7"
     pagecolor="#505050"
     bordercolor="#eeeeee"
     borderopacity="1"
     inkscape:showpageshadow="0"
     inkscape:pageopacity="0"
     inkscape:pagecheckerboard="0"
     inkscape:deskcolor="#d1d1d1"
     inkscape:document-units="mm"
     showgrid="true"
     showguides="true"
     inkscape:lockguides="false"
     inkscape:zoom="0.81071148"
     inkscape:cx="2077.8045"
     inkscape:cy="635.24449"
     inkscape:window-width="1920"
     inkscape:window-height="1009"
     inkscape:window-x="0"
     inkscape:window-y="0"
     inkscape:window-maximized="1"
     inkscape:current-layer="layer1"><sodipodi:guide
       position="98.999996,123"
       orientation="-1,0"
       id="guide1070"
       inkscape:locked="false"
       inkscape:label=""
       inkscape:color="rgb(0,134,229)" /><sodipodi:guide
       position="198,-75.000002"
       orientation="-1,0"
       id="guide1072"
       inkscape:locked="false"
       inkscape:label=""
       inkscape:color="rgb(0,134,229)" /><inkscape:page
       x="0"
       y="0"
       width="297"
       height="210"
       id="page1271"
       inkscape:label="Front" /><inkscape:page
       x="339.16638"
       y="0"
       width="297.00006"
       height="210"
       id="page1273"
       inkscape:label="Back" /><sodipodi:guide
       position="0,210"
       orientation="1,0"
       id="guide1353"
       inkscape:locked="false" /><sodipodi:guide
       position="297,210"
       orientation="1,0"
       id="guide1355"
       inkscape:locked="false" /><sodipodi:guide
       position="339.16638,210"
       orientation="1,0"
       id="guide1418"
       inkscape:locked="false" /><sodipodi:guide
       position="636.16644,210"
       orientation="1,0"
       id="guide1420"
       inkscape:locked="false" /><sodipodi:guide
       position="438.166,210.84575"
       orientation="-1,0"
       id="guide1422"
       inkscape:locked="false"
       inkscape:label=""
       inkscape:color="rgb(0,134,229)" /><sodipodi:guide
       position="537.166,206.61699"
       orientation="-1,0"
       id="guide1424"
       inkscape:locked="false"
       inkscape:label=""
       inkscape:color="rgb(0,134,229)" /></sodipodi:namedview><defs
     id="defs2"><rect
       x="1299.0561"
       y="55.014673"
       width="345.05164"
       height="717.17279"
       id="rect17951" /><rect
       x="1107.62"
       y="279.89318"
       width="132.47613"
       height="41.834567"
       id="rect14634" /></defs><g
     inkscape:label="Layer 1"
     inkscape:groupmode="layer"
     id="layer1"><g
       id="g3149"
       inkscape:label="Backgrounnd"
       sodipodi:insensitive="true"><rect
         style="fill:#ffffff;stroke:none;stroke-width:4.36123;stroke-linecap:round;paint-order:fill markers stroke"
         id="rect14074"
         width="99.012718"
         height="210"
         x="98.974556"
         y="0" /><rect
         style="fill:#ffffff;stroke:none;stroke-width:4.36123;stroke-linecap:round;paint-order:fill markers stroke"
         id="rect7511"
         width="99.012718"
         height="210"
         x="197.98729"
         y="-0.0469" /><rect
         style="display:inline;fill:#ffffff;stroke:none;stroke-width:4.36123;stroke-linecap:round;paint-order:fill markers stroke"
         id="rect14076"
         width="99.012718"
         height="210"
         x="0.21431394"
         y="1.9967556e-06" /><rect
         style="display:inline;fill:#ffffff;stroke:none;stroke-width:4.36123;stroke-linecap:round;paint-order:fill markers stroke"
         id="rect16842"
         width="99.012718"
         height="210"
         x="537.15375"
         y="1.1130023e-12" /><rect
         style="display:inline;fill:#ffffff;stroke:none;stroke-width:4.35903;stroke-linecap:round;paint-order:fill markers stroke"
         id="rect16840"
         width="98.913002"
         height="210"
         x="438.16599"
         y="-0.21205379" /><rect
         style="display:inline;fill:#ffffff;stroke:none;stroke-width:4.3787;stroke-linecap:round;stroke-dasharray:none;paint-order:fill markers stroke"
         id="rect16838"
         width="99.012718"
         height="210"
         x="339.26114"
         y="-0.22696459" /></g><rect
       style="display:none;fill:#ffffff;stroke:none;stroke-width:3;stroke-linecap:round;paint-order:fill markers stroke"
       id="rect1426"
       width="98.999992"
       height="210"
       x="0"
       y="0" /><g
       id="g7495"
       transform="matrix(0.66042279,0,0,0.66042279,176.2254,124.48784)"
       inkscape:label="Logo"><path
         style="fill:#fcce65;stroke-width:0.120154"
         d="m 82.359074,95.793742 6.204619,-6.217966 6.204619,-6.217965 h 18.531418 18.53141 l 0.37896,0.07579 0.37897,0.07579 -5.96263,5.973493 -5.96262,5.973494 -0.1068,0.16868 -0.10679,0.168678 z m 37.907366,-4e-5 H 101.46235 82.658258 Z m -72.873358,-29.558279 4.984589,-4.98618 4.984588,-4.986181 0.272146,-0.07814 0.272145,-0.07814 12.568498,-0.01198 12.568498,-0.01198 0.738549,0.07719 0.738549,0.07719 v 0.08616 0.08616 l -3.260431,3.230992 -3.260431,3.230996 -1.550353,1.548508 -1.550353,1.548506 -0.103662,0.193726 -0.103662,0.193724 -13.258835,-0.06008 -13.258835,-0.06008 -0.330069,0.03799 -0.330067,0.03798 c -0.0591,41.952836 -0.05839,41.783206 -0.120864,-0.07636 z m 92.638678,-9.980404 -3.63466,-3.616569 -3.63466,-3.616568 -1.89242,-1.859486 -1.89243,-1.859487 v -0.197196 -0.197197 h 13.46075 13.46075 l 5.73384,5.73735 5.73384,5.73735 z m 27.14897,0.608812 -0.0711,-0.270864 -0.0711,-0.270865 -13.41306,0.03056 -13.41308,0.03056 z m -72.995519,-20.018263 -0.04492,-0.07271 0.68722,-0.634546 0.68722,-0.634545 1.424388,-1.33536 1.424387,-1.335358 0.618461,-0.60077 0.618463,-0.600769 0.78076,-0.712464 0.78077,-0.712462 2.265,-2.171232 2.26499,-2.17123 0.13808,-0.08828 0.13809,-0.08827 8.02027,-0.0018 8.02028,-0.0018 v 0.102728 0.102726 l -0.34728,0.287774 -0.34728,0.287772 -1.77737,1.682155 -1.77737,1.682155 -1.01386,0.961231 -1.01387,0.961232 -0.50583,0.480615 -0.50583,0.480616 -0.53101,0.470114 -0.531,0.470115 -1.6982,1.612146 -1.69819,1.612146 -8.01572,0.02043 -8.015721,0.02043 z"
         id="path7507"
         sodipodi:nodetypes="cccccccccccccccccccccccccccccccccccccccccccccccccccccccccccccccccccccccccccccccccccccccccc" /><path
         style="fill:#fcc215;stroke-width:0.120154"
         d="m 82.654242,118.17422 -0.05797,-0.15204 0.03099,-11.11424 0.03099,-11.114238 h 18.804088 18.80409 v 11.078238 11.07824 l -0.15619,0.15615 -0.15618,0.15616 -18.62093,0.0319 -18.620921,0.0319 z m 22.561218,-5.08919 0.0999,-0.34963 -0.0533,-1.69725 -0.0533,-1.69727 -0.20793,-0.40543 -0.20794,-0.40543 -0.33449,-0.48908 -0.33449,-0.48908 -0.73112,-0.38968 -0.73111,-0.38968 -0.74984,-0.0202 -0.74985,-0.0202 -0.42054,0.17143 -0.42054,0.17143 -0.464537,0.36703 -0.464542,0.36703 -0.373505,0.5407 -0.373505,0.54069 -0.05456,0.18023 -0.05456,0.18023 -0.04422,2.03097 -0.04422,2.03098 0.121501,0.1215 0.121499,0.12151 2.737789,-0.0156 2.73779,-0.0156 0.24031,0.1036 0.24031,0.10363 0.23456,-0.14865 0.23456,-0.14863 z m -11.355757,0.37751 0.155173,-0.0596 -0.03107,-6.52172 -0.03108,-6.52172 -2.977769,-0.0322 -2.977771,-0.0321 -0.236347,0.12649 -0.236347,0.12649 v 6.39997 6.39998 l 0.114064,0.11415 0.114065,0.11414 2.975955,-0.0272 2.975954,-0.0272 z m 21.419167,-0.1717 0.13012,-0.28565 -0.0141,-6.28366 -0.0141,-6.28366 -0.18032,-0.0692 -0.18032,-0.0692 h -2.98693 -2.98693 l -0.0731,0.11833 -0.0731,0.11833 0.009,6.38885 0.009,6.38885 0.17971,0.13132 0.17971,0.13133 h 2.93589 2.9359 l 0.13012,-0.28564 z m -12.32061,-7.23949 0.11415,-0.10464 h 0.16699 0.16699 l 0.31963,-0.30168 0.31964,-0.30169 0.10481,0.011 0.10481,0.011 0.34525,-0.52038 0.34525,-0.52039 4.8e-4,-0.15441 4.8e-4,-0.15443 0.16044,-0.26611 0.16044,-0.26612 0.0263,-0.42054 0.0263,-0.42054 -0.17697,-0.67878 -0.17696,-0.67879 -0.28008,-0.3307 -0.28007,-0.3307 -0.26228,-0.29101 -0.26227,-0.29101 -0.45865,-0.2378 -0.45865,-0.237804 -0.79236,-0.0696 -0.79236,-0.0696 -0.64948,0.210403 -0.64949,0.210403 -0.452304,0.432298 -0.452302,0.4323 -0.309475,0.44657 -0.309474,0.44657 -0.0647,0.94401 -0.0647,0.944 0.328937,0.69532 0.328938,0.69532 0.351852,0.35994 0.351852,0.35994 0.532096,0.23537 0.53209,0.23536 0.69498,0.0987 0.69499,0.0987 0.30038,-0.0579 0.30039,-0.0579 0.11415,-0.10464 z m 25.45032,7.25249 -2.67172,-0.0323 -0.0672,-0.26805 -0.0673,-0.26806 0.0355,-5.91167 0.0355,-5.91168 0.15618,-0.1561 0.15616,-0.15609 h 2.64682 2.64683 l 0.14078,0.19207 0.14077,0.19208 -0.0322,6.0584 -0.0322,6.05841 -0.20812,0.11768 -0.20813,0.11767 z"
         id="path7503" /><path
         style="fill:#fbae16;stroke-width:0.120154"
         d="m 140.21041,95.582841 c -0.1507,-2.134507 -0.015,-4.303239 -0.0552,-6.450954 0.019,-10.916223 0.0379,-21.832447 0.0569,-32.748671 8.94203,-0.02037 17.88407,-0.04075 26.8261,-0.06112 0.30837,1.397501 0.0635,2.866254 0.14237,4.29331 0.003,11.660568 0.006,23.321136 0.009,34.981704 -0.69559,0.42055 -1.61194,0.09634 -2.4011,0.201222 -8.17087,0.01809 -16.34175,0.03617 -24.51262,0.05426 -0.0216,-0.08969 -0.0448,-0.180755 -0.0655,-0.269749 z m 11.16533,-4.692871 c 0.47508,-0.429439 0.0792,-1.295141 0.19692,-1.903579 0.0899,-1.094015 -0.13221,-2.140971 -0.50334,-3.165465 0.1095,-0.728561 -0.34565,0.0398 -0.69827,-0.806866 -0.70849,-0.279723 -1.27254,-0.843532 -2.08886,-0.721707 -0.64815,0.02191 -1.35528,-0.04835 -1.55014,0.334159 -0.73329,0.376415 -0.97439,0.614071 -0.92001,0.105089 -0.0906,0.503055 -0.41637,0.892083 -0.73658,1.379137 -0.25341,1.005903 -0.44185,2.019972 -0.3643,3.068064 0.13175,0.574504 -0.33001,1.446601 0.28791,1.777341 0.9014,0.214627 1.93329,0.02968 2.8846,0.09149 1.11442,-0.04453 2.28693,0.08882 3.36561,-0.06515 l 0.0891,-0.06515 0.0374,-0.02735 z m 10.81156,-0.15256 c 0.16917,-1.692202 0.025,-3.442439 0.0729,-5.157099 -0.026,-2.449799 0.0524,-4.918788 -0.0392,-7.356536 -0.0887,-0.883767 -1.13108,-0.38452 -1.74044,-0.513238 -1.44255,0.03533 -2.92055,-0.07073 -4.34116,0.05208 -0.71177,0.227673 -0.22517,1.173196 -0.36749,1.741981 0,3.807622 0,7.615244 0,11.422866 2.11415,0 4.22829,0 6.34244,0 l 0.0396,-0.103045 z m -12.66719,-7.395823 c 0.71708,-0.03403 0.55389,-0.732926 0.93621,-0.213338 -0.13665,-0.374215 0.49849,-0.976714 0.73429,-1.43164 0.38451,-0.536174 0.30081,-1.291321 0.33799,-1.916363 -0.19237,-0.931108 -0.64931,-1.811668 -1.51081,-2.283765 -0.6839,-0.579858 -1.6726,-0.728857 -2.53869,-0.530156 -0.74833,0.217734 -1.6038,0.505627 -1.98017,1.251455 -0.65238,0.724234 -0.79417,1.750803 -0.7082,2.697788 0.0245,0.659852 0.51458,1.281904 0.97311,1.73381 0.57225,0.6061 1.3047,1.120581 2.17954,0.943091 0.53169,-0.06675 1.17271,0.20132 1.57673,-0.250882 z m 12.79147,-9.051215 c 0.16809,-1.169501 0.0105,-2.367549 0.0449,-3.548763 -0.35728,-0.228031 -0.25266,-1.262697 -0.89295,-1.621153 -0.41645,-0.564269 -0.839,-0.82824 -1.42102,-0.948373 -0.67614,-0.406732 -1.57709,-0.202283 -2.30702,0.0064 -0.79952,-0.06092 -0.38333,0.550079 -1.22442,0.691722 0.0516,0.284984 -0.27507,0.0078 -0.40441,0.78226 -0.71477,1.006097 -0.43934,2.334963 -0.49301,3.503311 0.16824,0.508979 -0.35008,1.722119 0.48109,1.550981 2.04674,0 4.09347,0 6.14021,0 0.0252,-0.138428 0.0542,-0.280213 0.0766,-0.416354 z M 151.30437,73.95369 c 0.26726,-0.364769 0.13647,-0.829452 0.0198,-1.559913 0.0105,-3.654028 0.0412,-7.309506 0.0595,-10.964091 -0.3332,-0.615916 -1.25334,-0.160677 -1.84748,-0.300385 -1.48127,0 -2.96254,0 -4.44381,0 -0.32517,0.696713 -0.0507,1.563445 -0.14003,2.327011 0.003,3.559401 0.007,7.118803 0.01,10.678204 0.3705,0.466703 1.22219,0.06233 1.78062,0.188821 1.50796,-0.01239 3.01591,-0.02478 4.52387,-0.03717 0.0123,-0.110578 0.0264,-0.22298 0.0375,-0.332472 z m 8.49271,-6.576391 c 0.1565,-0.147987 1.04376,-0.49248 1.43725,-0.861946 0.42045,-0.479654 0.86513,-0.825604 0.92605,-1.259962 0.10875,-0.913266 0.46391,-1.943329 -0.19143,-2.717728 -0.001,-0.611206 -1.38464,-1.027108 -0.73019,-1.431045 -0.66627,0.394016 -1.12138,-0.627532 -1.83814,-0.38703 -0.54995,0.13731 -1.53281,-0.36888 -1.7322,0.289543 -0.67986,-0.05738 -1.09602,0.737269 -1.53494,1.154674 -0.1979,0.665131 -0.62054,1.346753 -0.63259,2.017362 0.37044,0.942333 0.54375,2.129873 1.57805,2.600155 0.4984,0.471346 0.97863,0.734729 1.69663,0.628189 0.20147,-0.06672 1.24045,0.183037 1.02151,-0.03221 z m -30.93964,6.611052 c -0.40236,-0.474835 -0.0733,-1.352677 -0.18023,-1.990326 0,-3.41026 0,-6.820521 0,-10.230781 0.3536,-0.710335 1.24174,-0.28283 1.87511,-0.397641 1.31273,0 2.62545,0 3.93818,0 0.31921,0.696249 0.0496,1.559781 0.1386,2.321437 0,3.396621 0,6.793243 0,10.189864 -0.35868,0.504526 -1.2296,0.0898 -1.79468,0.223922 -1.2911,-0.04024 -2.62792,0.07731 -3.89046,-0.06147 l -0.0869,-0.05492 z"
         id="path7501" /><path
         style="fill:#f6921b;stroke-width:0.120154"
         d="m 48.119743,105.83264 -0.174495,-0.11038 -0.109286,0.0675 -0.109286,0.0675 -0.10488,-0.16558 -0.10488,-0.16559 -0.0018,-19.42507 -0.0018,-19.425071 0.07293,-0.190057 0.07293,-0.190058 H 61.103484 74.547868 V 86.04386 105.7918 l -0.811039,0.0766 -0.811039,0.0766 -12.315777,-9.6e-4 -12.315777,-9.6e-4 -0.174493,-0.11039 z m 8.164729,-4.91955 2.102694,0.0194 0.270346,-0.0161 0.270346,-0.0161 v -6.473289 -6.473293 l -0.375481,-0.0751 -0.375481,-0.0751 -2.538251,0.0016 -2.538252,0.0016 -0.266309,0.07139 -0.266309,0.07139 -0.006,6.359444 -0.006,6.359438 0.116017,0.21678 0.116017,0.21678 0.696979,-0.10415 0.696978,-0.10415 2.102693,0.0194 z m 13.603543,-1.935309 -0.03392,-1.98254 -0.19362,-0.633442 -0.193619,-0.633442 -0.373224,-0.365224 -0.373224,-0.365226 -0.695014,-0.333782 -0.695014,-0.333781 -0.80691,0.02034 -0.80691,0.02034 -0.480616,0.219866 -0.480616,0.219866 -0.07393,0.01086 -0.07393,0.01086 -0.376649,0.403204 -0.376649,0.403203 -0.262974,0.558028 -0.262973,0.558027 -0.04836,1.840654 -0.04836,1.840648 0.06588,0.26204 0.06587,0.26204 h 3.279337 3.279337 l -0.03393,-1.982534 z m -1.746496,-5.743682 0.502502,-0.26058 0.07653,-0.123831 0.07653,-0.123831 0.130416,0.0806 0.130417,0.0806 -0.07581,-0.122661 -0.07581,-0.122661 0.237475,-0.214911 0.237474,-0.214912 v -0.161608 -0.161609 h 0.120154 0.120154 V 91.702498 91.5163 l 0.162959,-0.324457 0.162959,-0.324456 -0.09932,-0.987713 -0.09933,-0.987714 -0.213826,-0.232418 -0.213826,-0.232417 -0.208616,-0.302203 -0.208616,-0.302203 -0.572384,-0.392228 -0.572384,-0.392227 -1.08596,-0.0079 -1.08596,-0.0079 -0.701094,0.420539 -0.701096,0.420538 -0.265971,0.420539 -0.265972,0.420539 -0.228795,0.600769 -0.228793,0.60077 0.0243,0.07622 0.0243,0.07622 0.05765,0.588277 0.05765,0.588279 0.126194,0.331912 0.126193,0.331913 0.331441,0.420682 0.331442,0.42068 0.609127,0.407286 0.609128,0.407285 0.532335,0.03801 0.532334,0.03801 0.540693,-0.06813 0.540693,-0.06813 0.502501,-0.260579 z m -9.043412,-9.0191 0.06428,-0.104002 0.01573,-1.876399 0.01573,-1.876399 L 58.970742,79.736221 58.747636,79.114243 58.429083,78.772851 58.11053,78.43146 H 58.0074 57.904278 l -0.157381,-0.252008 -0.157383,-0.252009 -0.06698,0.06699 -0.06699,0.06699 -0.375266,-0.194845 -0.375267,-0.194844 -0.864714,-6.01e-4 -0.864713,-6.01e-4 -0.186634,0.154892 -0.186633,0.154891 v -0.08297 -0.08297 l -0.3905,0.269808 -0.3905,0.269807 -0.374852,0.397239 -0.374851,0.397238 -0.255957,0.594988 -0.255957,0.594988 v 1.910201 1.910202 l 0.0801,0.0801 0.0801,0.0801 h 3.156963 3.156962 l 0.06428,-0.104003 z m 8.94954,-0.857231 1.874295,-3e-6 v -6.54406 -6.544058 l -3.15404,0.0072 -3.154041,0.0072 v 6.529227 6.529227 l 0.3905,0.05593 0.390501,0.05593 0.889244,-0.04832 0.889245,-0.04832 1.874296,-2e-6 z m -11.522867,-6.41649 0.540693,-0.165887 0.360461,-0.163235 0.360462,-0.163236 0.487981,-0.480615 0.487981,-0.480616 0.202904,-0.544709 0.202904,-0.544711 v -0.772966 -0.772966 l -0.202904,-0.54471 -0.202904,-0.54471 -0.507704,-0.502387 -0.507706,-0.502388 -0.581045,-0.205692 -0.581046,-0.205692 -0.781001,0.01138 -0.781,0.01138 -0.185172,0.03921 -0.18517,0.03921 -0.423635,0.24995 -0.423635,0.249952 -0.44254,0.540061 -0.442542,0.540063 v 0.14491 0.144908 l -0.101986,-0.06303 -0.101987,-0.06303 -0.03261,0.386363 -0.03261,0.386363 0.0039,0.750962 0.0039,0.750963 0.02553,0.298193 0.02553,0.298194 0.105135,-0.06498 0.105135,-0.06498 v 0.176389 0.176389 l 0.635262,0.67178 0.635261,0.671779 h 0.205816 0.205816 v 0.14018 0.140179 l 0.07028,-0.07028 0.07028,-0.07028 0.440373,0.161942 0.440374,0.161943 0.180231,0.0072 0.180231,0.0072 0.540692,-0.165888 z m 23.333891,6.152154 -0.144184,-0.144184 v -6.151041 -6.151041 l 0.189929,-0.07288 0.189929,-0.07288 2.704644,-0.01958 2.704643,-0.01958 0.107436,0.16972 0.107434,0.16972 0.0018,6.073781 0.0018,6.073781 -0.144185,0.144184 -0.144184,0.144185 h -2.715479 -2.715479 l -0.144184,-0.144185 z"
         id="path7499" /><path
         style="fill:#cc6828;stroke-width:0.120154"
         d="m 94.012803,56.083677 v -19.10532 h 8.110757 8.11076 l -0.0304,19.074435 -0.0304,19.074435 -8.08036,0.03088 -8.080347,0.03088 z m 11.174317,9.611467 v -6.488311 h -3.124 -3.124006 v 6.488311 6.488312 h 3.124006 3.124 z m 0.20827,-12.706277 -0.0352,-2.012578 -0.24777,-0.540693 -0.24776,-0.540692 -0.32493,-0.384399 -0.32494,-0.384398 -0.667,-0.315544 -0.66701,-0.315544 -0.746,-0.0043 -0.746,-0.0043 -0.62859,0.270413 -0.62859,0.270412 -0.476646,0.541498 -0.476646,0.541499 -0.179673,0.605028 -0.179675,0.605024 v 1.840578 1.840577 h 3.30581 3.30582 z m -2.0628,-5.543951 0.48847,-0.221863 0.43811,-0.38467 0.43812,-0.384671 0.23433,-0.382098 0.23432,-0.382097 0.14351,-0.736383 0.1435,-0.736383 -0.1903,-0.654623 -0.1903,-0.654623 -0.42142,-0.551911 -0.42142,-0.551912 -0.69269,-0.331561 -0.6927,-0.33156 -0.781,0.0041 -0.781,0.0042 -0.61734,0.31302 -0.61733,0.313021 -0.438453,0.512233 -0.438451,0.512232 -0.190433,0.655064 -0.190432,0.655064 0.06464,0.626297 0.06464,0.626297 0.208116,0.40402 0.208116,0.40402 0.310972,0.409032 0.310971,0.40903 0.722564,0.341837 0.72257,0.341835 0.72092,-0.0025 0.72093,-0.0025 0.48847,-0.221863 z m 13.32425,6.445106 -0.0575,-0.150193 0.0312,-6.248004 0.0312,-6.248004 3.03388,-0.0321 3.03389,-0.0321 v 6.430298 6.430298 h -3.00762 -3.00762 z"
         id="path7497" /></g><g
       id="g12646"
       transform="matrix(0.66042279,0,0,0.66042279,-133.682,-5.2442291)"><path
         style="fill:#fcce65;stroke-width:0.120154"
         d="m 82.359074,95.793742 6.204619,-6.217966 6.204619,-6.217965 h 18.531418 18.53141 l 0.37896,0.07579 0.37897,0.07579 -5.96263,5.973493 -5.96262,5.973494 -0.1068,0.16868 -0.10679,0.168678 z m 37.907366,-4e-5 H 101.46235 82.658258 Z m -72.873358,-29.558279 4.984589,-4.98618 4.984588,-4.986181 0.272146,-0.07814 0.272145,-0.07814 12.568498,-0.01198 12.568498,-0.01198 0.738549,0.07719 0.738549,0.07719 v 0.08616 0.08616 l -3.260431,3.230992 -3.260431,3.230996 -1.550353,1.548508 -1.550353,1.548506 -0.103662,0.193726 -0.103662,0.193724 -13.258835,-0.06008 -13.258835,-0.06008 -0.330069,0.03799 -0.330067,0.03798 c -0.0591,41.952836 -0.05839,41.783206 -0.120864,-0.07636 z m 92.638678,-9.980404 -3.63466,-3.616569 -3.63466,-3.616568 -1.89242,-1.859486 -1.89243,-1.859487 v -0.197196 -0.197197 h 13.46075 13.46075 l 5.73384,5.73735 5.73384,5.73735 z m 27.14897,0.608812 -0.0711,-0.270864 -0.0711,-0.270865 -13.41306,0.03056 -13.41308,0.03056 z m -72.995519,-20.018263 -0.04492,-0.07271 0.68722,-0.634546 0.68722,-0.634545 1.424388,-1.33536 1.424387,-1.335358 0.618461,-0.60077 0.618463,-0.600769 0.78076,-0.712464 0.78077,-0.712462 2.265,-2.171232 2.26499,-2.17123 0.13808,-0.08828 0.13809,-0.08827 8.02027,-0.0018 8.02028,-0.0018 v 0.102728 0.102726 l -0.34728,0.287774 -0.34728,0.287772 -1.77737,1.682155 -1.77737,1.682155 -1.01386,0.961231 -1.01387,0.961232 -0.50583,0.480615 -0.50583,0.480616 -0.53101,0.470114 -0.531,0.470115 -1.6982,1.612146 -1.69819,1.612146 -8.01572,0.02043 -8.015721,0.02043 z"
         id="path12636"
         sodipodi:nodetypes="cccccccccccccccccccccccccccccccccccccccccccccccccccccccccccccccccccccccccccccccccccccccccc" /><path
         style="fill:#fcc215;stroke-width:0.120154"
         d="m 82.654242,118.17422 -0.05797,-0.15204 0.03099,-11.11424 0.03099,-11.114238 h 18.804088 18.80409 v 11.078238 11.07824 l -0.15619,0.15615 -0.15618,0.15616 -18.62093,0.0319 -18.620921,0.0319 z m 22.561218,-5.08919 0.0999,-0.34963 -0.0533,-1.69725 -0.0533,-1.69727 -0.20793,-0.40543 -0.20794,-0.40543 -0.33449,-0.48908 -0.33449,-0.48908 -0.73112,-0.38968 -0.73111,-0.38968 -0.74984,-0.0202 -0.74985,-0.0202 -0.42054,0.17143 -0.42054,0.17143 -0.464537,0.36703 -0.464542,0.36703 -0.373505,0.5407 -0.373505,0.54069 -0.05456,0.18023 -0.05456,0.18023 -0.04422,2.03097 -0.04422,2.03098 0.121501,0.1215 0.121499,0.12151 2.737789,-0.0156 2.73779,-0.0156 0.24031,0.1036 0.24031,0.10363 0.23456,-0.14865 0.23456,-0.14863 z m -11.355757,0.37751 0.155173,-0.0596 -0.03107,-6.52172 -0.03108,-6.52172 -2.977769,-0.0322 -2.977771,-0.0321 -0.236347,0.12649 -0.236347,0.12649 v 6.39997 6.39998 l 0.114064,0.11415 0.114065,0.11414 2.975955,-0.0272 2.975954,-0.0272 z m 21.419167,-0.1717 0.13012,-0.28565 -0.0141,-6.28366 -0.0141,-6.28366 -0.18032,-0.0692 -0.18032,-0.0692 h -2.98693 -2.98693 l -0.0731,0.11833 -0.0731,0.11833 0.009,6.38885 0.009,6.38885 0.17971,0.13132 0.17971,0.13133 h 2.93589 2.9359 l 0.13012,-0.28564 z m -12.32061,-7.23949 0.11415,-0.10464 h 0.16699 0.16699 l 0.31963,-0.30168 0.31964,-0.30169 0.10481,0.011 0.10481,0.011 0.34525,-0.52038 0.34525,-0.52039 4.8e-4,-0.15441 4.8e-4,-0.15443 0.16044,-0.26611 0.16044,-0.26612 0.0263,-0.42054 0.0263,-0.42054 -0.17697,-0.67878 -0.17696,-0.67879 -0.28008,-0.3307 -0.28007,-0.3307 -0.26228,-0.29101 -0.26227,-0.29101 -0.45865,-0.2378 -0.45865,-0.237804 -0.79236,-0.0696 -0.79236,-0.0696 -0.64948,0.210403 -0.64949,0.210403 -0.452304,0.432298 -0.452302,0.4323 -0.309475,0.44657 -0.309474,0.44657 -0.0647,0.94401 -0.0647,0.944 0.328937,0.69532 0.328938,0.69532 0.351852,0.35994 0.351852,0.35994 0.532096,0.23537 0.53209,0.23536 0.69498,0.0987 0.69499,0.0987 0.30038,-0.0579 0.30039,-0.0579 0.11415,-0.10464 z m 25.45032,7.25249 -2.67172,-0.0323 -0.0672,-0.26805 -0.0673,-0.26806 0.0355,-5.91167 0.0355,-5.91168 0.15618,-0.1561 0.15616,-0.15609 h 2.64682 2.64683 l 0.14078,0.19207 0.14077,0.19208 -0.0322,6.0584 -0.0322,6.05841 -0.20812,0.11768 -0.20813,0.11767 z"
         id="path12638" /><path
         style="fill:#fbae16;stroke-width:0.120154"
         d="m 140.21041,95.582841 c -0.1507,-2.134507 -0.015,-4.303239 -0.0552,-6.450954 0.019,-10.916223 0.0379,-21.832447 0.0569,-32.748671 8.94203,-0.02037 17.88407,-0.04075 26.8261,-0.06112 0.30837,1.397501 0.0635,2.866254 0.14237,4.29331 0.003,11.660568 0.006,23.321136 0.009,34.981704 -0.69559,0.42055 -1.61194,0.09634 -2.4011,0.201222 -8.17087,0.01809 -16.34175,0.03617 -24.51262,0.05426 -0.0216,-0.08969 -0.0448,-0.180755 -0.0655,-0.269749 z m 11.16533,-4.692871 c 0.47508,-0.429439 0.0792,-1.295141 0.19692,-1.903579 0.0899,-1.094015 -0.13221,-2.140971 -0.50334,-3.165465 0.1095,-0.728561 -0.34565,0.0398 -0.69827,-0.806866 -0.70849,-0.279723 -1.27254,-0.843532 -2.08886,-0.721707 -0.64815,0.02191 -1.35528,-0.04835 -1.55014,0.334159 -0.73329,0.376415 -0.97439,0.614071 -0.92001,0.105089 -0.0906,0.503055 -0.41637,0.892083 -0.73658,1.379137 -0.25341,1.005903 -0.44185,2.019972 -0.3643,3.068064 0.13175,0.574504 -0.33001,1.446601 0.28791,1.777341 0.9014,0.214627 1.93329,0.02968 2.8846,0.09149 1.11442,-0.04453 2.28693,0.08882 3.36561,-0.06515 l 0.0891,-0.06515 0.0374,-0.02735 z m 10.81156,-0.15256 c 0.16917,-1.692202 0.025,-3.442439 0.0729,-5.157099 -0.026,-2.449799 0.0524,-4.918788 -0.0392,-7.356536 -0.0887,-0.883767 -1.13108,-0.38452 -1.74044,-0.513238 -1.44255,0.03533 -2.92055,-0.07073 -4.34116,0.05208 -0.71177,0.227673 -0.22517,1.173196 -0.36749,1.741981 0,3.807622 0,7.615244 0,11.422866 2.11415,0 4.22829,0 6.34244,0 l 0.0396,-0.103045 z m -12.66719,-7.395823 c 0.71708,-0.03403 0.55389,-0.732926 0.93621,-0.213338 -0.13665,-0.374215 0.49849,-0.976714 0.73429,-1.43164 0.38451,-0.536174 0.30081,-1.291321 0.33799,-1.916363 -0.19237,-0.931108 -0.64931,-1.811668 -1.51081,-2.283765 -0.6839,-0.579858 -1.6726,-0.728857 -2.53869,-0.530156 -0.74833,0.217734 -1.6038,0.505627 -1.98017,1.251455 -0.65238,0.724234 -0.79417,1.750803 -0.7082,2.697788 0.0245,0.659852 0.51458,1.281904 0.97311,1.73381 0.57225,0.6061 1.3047,1.120581 2.17954,0.943091 0.53169,-0.06675 1.17271,0.20132 1.57673,-0.250882 z m 12.79147,-9.051215 c 0.16809,-1.169501 0.0105,-2.367549 0.0449,-3.548763 -0.35728,-0.228031 -0.25266,-1.262697 -0.89295,-1.621153 -0.41645,-0.564269 -0.839,-0.82824 -1.42102,-0.948373 -0.67614,-0.406732 -1.57709,-0.202283 -2.30702,0.0064 -0.79952,-0.06092 -0.38333,0.550079 -1.22442,0.691722 0.0516,0.284984 -0.27507,0.0078 -0.40441,0.78226 -0.71477,1.006097 -0.43934,2.334963 -0.49301,3.503311 0.16824,0.508979 -0.35008,1.722119 0.48109,1.550981 2.04674,0 4.09347,0 6.14021,0 0.0252,-0.138428 0.0542,-0.280213 0.0766,-0.416354 z M 151.30437,73.95369 c 0.26726,-0.364769 0.13647,-0.829452 0.0198,-1.559913 0.0105,-3.654028 0.0412,-7.309506 0.0595,-10.964091 -0.3332,-0.615916 -1.25334,-0.160677 -1.84748,-0.300385 -1.48127,0 -2.96254,0 -4.44381,0 -0.32517,0.696713 -0.0507,1.563445 -0.14003,2.327011 0.003,3.559401 0.007,7.118803 0.01,10.678204 0.3705,0.466703 1.22219,0.06233 1.78062,0.188821 1.50796,-0.01239 3.01591,-0.02478 4.52387,-0.03717 0.0123,-0.110578 0.0264,-0.22298 0.0375,-0.332472 z m 8.49271,-6.576391 c 0.1565,-0.147987 1.04376,-0.49248 1.43725,-0.861946 0.42045,-0.479654 0.86513,-0.825604 0.92605,-1.259962 0.10875,-0.913266 0.46391,-1.943329 -0.19143,-2.717728 -0.001,-0.611206 -1.38464,-1.027108 -0.73019,-1.431045 -0.66627,0.394016 -1.12138,-0.627532 -1.83814,-0.38703 -0.54995,0.13731 -1.53281,-0.36888 -1.7322,0.289543 -0.67986,-0.05738 -1.09602,0.737269 -1.53494,1.154674 -0.1979,0.665131 -0.62054,1.346753 -0.63259,2.017362 0.37044,0.942333 0.54375,2.129873 1.57805,2.600155 0.4984,0.471346 0.97863,0.734729 1.69663,0.628189 0.20147,-0.06672 1.24045,0.183037 1.02151,-0.03221 z m -30.93964,6.611052 c -0.40236,-0.474835 -0.0733,-1.352677 -0.18023,-1.990326 0,-3.41026 0,-6.820521 0,-10.230781 0.3536,-0.710335 1.24174,-0.28283 1.87511,-0.397641 1.31273,0 2.62545,0 3.93818,0 0.31921,0.696249 0.0496,1.559781 0.1386,2.321437 0,3.396621 0,6.793243 0,10.189864 -0.35868,0.504526 -1.2296,0.0898 -1.79468,0.223922 -1.2911,-0.04024 -2.62792,0.07731 -3.89046,-0.06147 l -0.0869,-0.05492 z"
         id="path12640" /><path
         style="fill:#f6921b;stroke-width:0.120154"
         d="m 48.119743,105.83264 -0.174495,-0.11038 -0.109286,0.0675 -0.109286,0.0675 -0.10488,-0.16558 -0.10488,-0.16559 -0.0018,-19.42507 -0.0018,-19.425071 0.07293,-0.190057 0.07293,-0.190058 H 61.103484 74.547868 V 86.04386 105.7918 l -0.811039,0.0766 -0.811039,0.0766 -12.315777,-9.6e-4 -12.315777,-9.6e-4 -0.174493,-0.11039 z m 8.164729,-4.91955 2.102694,0.0194 0.270346,-0.0161 0.270346,-0.0161 v -6.473289 -6.473293 l -0.375481,-0.0751 -0.375481,-0.0751 -2.538251,0.0016 -2.538252,0.0016 -0.266309,0.07139 -0.266309,0.07139 -0.006,6.359444 -0.006,6.359438 0.116017,0.21678 0.116017,0.21678 0.696979,-0.10415 0.696978,-0.10415 2.102693,0.0194 z m 13.603543,-1.935309 -0.03392,-1.98254 -0.19362,-0.633442 -0.193619,-0.633442 -0.373224,-0.365224 -0.373224,-0.365226 -0.695014,-0.333782 -0.695014,-0.333781 -0.80691,0.02034 -0.80691,0.02034 -0.480616,0.219866 -0.480616,0.219866 -0.07393,0.01086 -0.07393,0.01086 -0.376649,0.403204 -0.376649,0.403203 -0.262974,0.558028 -0.262973,0.558027 -0.04836,1.840654 -0.04836,1.840648 0.06588,0.26204 0.06587,0.26204 h 3.279337 3.279337 l -0.03393,-1.982534 z m -1.746496,-5.743682 0.502502,-0.26058 0.07653,-0.123831 0.07653,-0.123831 0.130416,0.0806 0.130417,0.0806 -0.07581,-0.122661 -0.07581,-0.122661 0.237475,-0.214911 0.237474,-0.214912 v -0.161608 -0.161609 h 0.120154 0.120154 V 91.702498 91.5163 l 0.162959,-0.324457 0.162959,-0.324456 -0.09932,-0.987713 -0.09933,-0.987714 -0.213826,-0.232418 -0.213826,-0.232417 -0.208616,-0.302203 -0.208616,-0.302203 -0.572384,-0.392228 -0.572384,-0.392227 -1.08596,-0.0079 -1.08596,-0.0079 -0.701094,0.420539 -0.701096,0.420538 -0.265971,0.420539 -0.265972,0.420539 -0.228795,0.600769 -0.228793,0.60077 0.0243,0.07622 0.0243,0.07622 0.05765,0.588277 0.05765,0.588279 0.126194,0.331912 0.126193,0.331913 0.331441,0.420682 0.331442,0.42068 0.609127,0.407286 0.609128,0.407285 0.532335,0.03801 0.532334,0.03801 0.540693,-0.06813 0.540693,-0.06813 0.502501,-0.260579 z m -9.043412,-9.0191 0.06428,-0.104002 0.01573,-1.876399 0.01573,-1.876399 L 58.970742,79.736221 58.747636,79.114243 58.429083,78.772851 58.11053,78.43146 H 58.0074 57.904278 l -0.157381,-0.252008 -0.157383,-0.252009 -0.06698,0.06699 -0.06699,0.06699 -0.375266,-0.194845 -0.375267,-0.194844 -0.864714,-6.01e-4 -0.864713,-6.01e-4 -0.186634,0.154892 -0.186633,0.154891 v -0.08297 -0.08297 l -0.3905,0.269808 -0.3905,0.269807 -0.374852,0.397239 -0.374851,0.397238 -0.255957,0.594988 -0.255957,0.594988 v 1.910201 1.910202 l 0.0801,0.0801 0.0801,0.0801 h 3.156963 3.156962 l 0.06428,-0.104003 z m 8.94954,-0.857231 1.874295,-3e-6 v -6.54406 -6.544058 l -3.15404,0.0072 -3.154041,0.0072 v 6.529227 6.529227 l 0.3905,0.05593 0.390501,0.05593 0.889244,-0.04832 0.889245,-0.04832 1.874296,-2e-6 z m -11.522867,-6.41649 0.540693,-0.165887 0.360461,-0.163235 0.360462,-0.163236 0.487981,-0.480615 0.487981,-0.480616 0.202904,-0.544709 0.202904,-0.544711 v -0.772966 -0.772966 l -0.202904,-0.54471 -0.202904,-0.54471 -0.507704,-0.502387 -0.507706,-0.502388 -0.581045,-0.205692 -0.581046,-0.205692 -0.781001,0.01138 -0.781,0.01138 -0.185172,0.03921 -0.18517,0.03921 -0.423635,0.24995 -0.423635,0.249952 -0.44254,0.540061 -0.442542,0.540063 v 0.14491 0.144908 l -0.101986,-0.06303 -0.101987,-0.06303 -0.03261,0.386363 -0.03261,0.386363 0.0039,0.750962 0.0039,0.750963 0.02553,0.298193 0.02553,0.298194 0.105135,-0.06498 0.105135,-0.06498 v 0.176389 0.176389 l 0.635262,0.67178 0.635261,0.671779 h 0.205816 0.205816 v 0.14018 0.140179 l 0.07028,-0.07028 0.07028,-0.07028 0.440373,0.161942 0.440374,0.161943 0.180231,0.0072 0.180231,0.0072 0.540692,-0.165888 z m 23.333891,6.152154 -0.144184,-0.144184 v -6.151041 -6.151041 l 0.189929,-0.07288 0.189929,-0.07288 2.704644,-0.01958 2.704643,-0.01958 0.107436,0.16972 0.107434,0.16972 0.0018,6.073781 0.0018,6.073781 -0.144185,0.144184 -0.144184,0.144185 h -2.715479 -2.715479 l -0.144184,-0.144185 z"
         id="path12642" /><path
         style="fill:#cc6828;stroke-width:0.120154"
         d="m 94.012803,56.083677 v -19.10532 h 8.110757 8.11076 l -0.0304,19.074435 -0.0304,19.074435 -8.08036,0.03088 -8.080347,0.03088 z m 11.174317,9.611467 v -6.488311 h -3.124 -3.124006 v 6.488311 6.488312 h 3.124006 3.124 z m 0.20827,-12.706277 -0.0352,-2.012578 -0.24777,-0.540693 -0.24776,-0.540692 -0.32493,-0.384399 -0.32494,-0.384398 -0.667,-0.315544 -0.66701,-0.315544 -0.746,-0.0043 -0.746,-0.0043 -0.62859,0.270413 -0.62859,0.270412 -0.476646,0.541498 -0.476646,0.541499 -0.179673,0.605028 -0.179675,0.605024 v 1.840578 1.840577 h 3.30581 3.30582 z m -2.0628,-5.543951 0.48847,-0.221863 0.43811,-0.38467 0.43812,-0.384671 0.23433,-0.382098 0.23432,-0.382097 0.14351,-0.736383 0.1435,-0.736383 -0.1903,-0.654623 -0.1903,-0.654623 -0.42142,-0.551911 -0.42142,-0.551912 -0.69269,-0.331561 -0.6927,-0.33156 -0.781,0.0041 -0.781,0.0042 -0.61734,0.31302 -0.61733,0.313021 -0.438453,0.512233 -0.438451,0.512232 -0.190433,0.655064 -0.190432,0.655064 0.06464,0.626297 0.06464,0.626297 0.208116,0.40402 0.208116,0.40402 0.310972,0.409032 0.310971,0.40903 0.722564,0.341837 0.72257,0.341835 0.72092,-0.0025 0.72093,-0.0025 0.48847,-0.221863 z m 13.32425,6.445106 -0.0575,-0.150193 0.0312,-6.248004 0.0312,-6.248004 3.03388,-0.0321 3.03389,-0.0321 v 6.430298 6.430298 h -3.00762 -3.00762 z"
         id="path12644" /></g><g
       id="g3110"
       inkscape:label="Title"><text
         xml:space="preserve"
         style="font-style:normal;font-variant:normal;font-weight:bold;font-stretch:normal;font-size:15.3694px;line-height:1;font-family:Cantarell;-inkscape-font-specification:'Cantarell, Bold';font-variant-ligatures:normal;font-variant-caps:normal;font-variant-numeric:normal;font-variant-east-asian:normal;fill:#fbae16;fill-opacity:1;stroke:none;stroke-width:5.94081;stroke-linecap:round;paint-order:fill markers stroke"
         x="246.90427"
         y="58.809315"
         id="text14094"><tspan
           sodipodi:role="line"
           id="tspan14092"
           style="text-align:center;text-anchor:middle;fill:#4d4d4d;stroke-width:5.94081"
           x="246.90427"
           y="58.809315">What is </tspan><tspan
           sodipodi:role="line"
           style="text-align:center;text-anchor:middle;fill:#4d4d4d;stroke-width:5.94081"
           x="246.90427"
           y="74.178711"
           id="tspan14098" /><tspan
           sodipodi:role="line"
           style="text-align:center;text-anchor:middle;fill:#4d4d4d;stroke-width:5.94081"
           x="246.90427"
           y="89.548111"
           id="tspan14096">Housing?</tspan></text><text
         xml:space="preserve"
         transform="scale(0.26458333)"
         id="text14632"
         style="font-style:normal;font-variant:normal;font-weight:bold;font-stretch:normal;font-size:29.3339px;line-height:1;font-family:Cantarell;-inkscape-font-specification:'Cantarell, Bold';font-variant-ligatures:normal;font-variant-caps:normal;font-variant-numeric:normal;font-variant-east-asian:normal;text-align:center;white-space:pre;shape-inside:url(#rect14634);display:inline;fill:#fcc215;fill-opacity:1;stroke:none;stroke-width:11.3386;stroke-linecap:round;paint-order:fill markers stroke" /><text
         xml:space="preserve"
         style="font-style:normal;font-variant:normal;font-weight:bold;font-stretch:normal;font-size:17.3541px;line-height:1;font-family:Cantarell;-inkscape-font-specification:'Cantarell, Bold';font-variant-ligatures:normal;font-variant-caps:normal;font-variant-numeric:normal;font-variant-east-asian:normal;fill:#fcc215;fill-opacity:1;stroke:none;stroke-width:6.70796;stroke-linecap:round;paint-order:fill markers stroke"
         x="246.90129"
         y="56.877018"
         id="text14713"><tspan
           sodipodi:role="line"
           id="tspan14707"
           style="text-align:center;text-anchor:middle;fill:#fcc215;fill-opacity:1;stroke-width:6.70796"
           x="246.90129"
           y="56.877018"> </tspan><tspan
           sodipodi:role="line"
           style="text-align:center;text-anchor:middle;fill:#fcc215;fill-opacity:1;stroke-width:6.70796"
           x="246.90129"
           y="74.231133"
           id="tspan14709">Cooperative</tspan><tspan
           sodipodi:role="line"
           style="text-align:center;text-anchor:middle;fill:#fcc215;fill-opacity:1;stroke-width:6.70796"
           x="246.90129"
           y="91.585251"
           id="tspan14711" /></text></g><text
       xml:space="preserve"
       style="font-style:normal;font-variant:normal;font-weight:bold;font-stretch:normal;font-size:3.42372px;line-height:1;font-family:Cantarell;-inkscape-font-specification:'Cantarell, Bold';font-variant-ligatures:normal;font-variant-caps:normal;font-variant-numeric:normal;font-variant-east-asian:normal;text-align:start;text-anchor:start;fill:#4d4d4d;fill-opacity:1;stroke:none;stroke-width:1.32339;stroke-linecap:round;paint-order:fill markers stroke"
       x="247.5049"
       y="207.30652"
       id="text17209"
       inkscape:label="Disclaimer"><tspan
         sodipodi:role="line"
         style="font-style:normal;font-variant:normal;font-weight:normal;font-stretch:normal;font-size:3.42372px;font-family:Cantarell;-inkscape-font-specification:Cantarell;font-variant-ligatures:normal;font-variant-caps:normal;font-variant-numeric:normal;font-variant-east-asian:normal;text-align:center;text-anchor:middle;fill:#4d4d4d;fill-opacity:1;stroke-width:1.32339"
         x="247.5049"
         y="207.30652"
         id="tspan17418">A pamphlet by Cooperation Housing</tspan></text><g
       id="g3099"
       inkscape:label="River of Colour Front"
       style="display:inline"><rect
         style="fill:#cc6828;fill-opacity:1;stroke:none;stroke-width:2.56071;stroke-linecap:round;paint-order:fill markers stroke"
         id="rect15936"
         width="19.765232"
         height="12.173738"
         x="-303.25317"
         y="-14.528629"
         transform="matrix(-1,0,0.53221882,-0.84660683,0,0)" /><rect
         style="fill:#fbae16;fill-opacity:1;stroke:none;stroke-width:2.56071;stroke-linecap:round;paint-order:fill markers stroke"
         id="rect12719"
         width="19.765232"
         height="12.173738"
         x="250.29169"
         y="-11.465811"
         transform="matrix(1,0,-0.53221882,-0.84660683,0,0)" /><rect
         style="fill:#f6921b;fill-opacity:1;stroke:none;stroke-width:2.56071;stroke-linecap:round;paint-order:fill markers stroke"
         id="rect12773"
         width="19.765232"
         height="12.173738"
         x="227.34389"
         y="-17.552679"
         transform="matrix(1,0,-0.53221882,-0.84660683,0,0)" /><rect
         style="fill:#fcc215;fill-opacity:1;stroke:none;stroke-width:2.56071;stroke-linecap:round;paint-order:fill markers stroke"
         id="rect12775"
         width="19.765232"
         height="12.173738"
         x="230.30341"
         y="-32.708744"
         transform="matrix(1,0,-0.53221882,-0.84660683,0,0)" /><rect
         style="fill:#4d4d4d;fill-opacity:1;stroke:none;stroke-width:2.56071;stroke-linecap:round;paint-order:fill markers stroke"
         id="rect12777"
         width="19.765232"
         height="12.173738"
         x="-256.48575"
         y="-37.787571"
         transform="matrix(-1,0,0.53221882,-0.84660683,0,0)" /><rect
         style="fill:#fbae16;fill-opacity:1;stroke:none;stroke-width:2.56071;stroke-linecap:round;paint-order:fill markers stroke"
         id="rect12779"
         width="19.765232"
         height="12.173738"
         x="206.38947"
         y="-23.918465"
         transform="matrix(1,0,-0.53221882,-0.84660683,0,0)" /><rect
         style="fill:#cc6828;fill-opacity:1;stroke:none;stroke-width:2.56071;stroke-linecap:round;paint-order:fill markers stroke"
         id="rect12781"
         width="19.765232"
         height="12.173738"
         x="-230.73352"
         y="-13.95615"
         transform="matrix(-1,0,0.53221882,-0.84660683,0,0)" /><rect
         style="fill:#f6921b;fill-opacity:1;stroke:none;stroke-width:2.56071;stroke-linecap:round;paint-order:fill markers stroke"
         id="rect14064"
         width="19.765232"
         height="12.173738"
         x="-209.88419"
         y="-33.834507"
         transform="matrix(-1,0,0.53221882,-0.84660683,0,0)" /><rect
         style="fill:#fcc215;fill-opacity:1;stroke:none;stroke-width:2.56071;stroke-linecap:round;paint-order:fill markers stroke"
         id="rect12783"
         width="19.765232"
         height="12.173738"
         x="184.15321"
         y="-28.411274"
         transform="matrix(1,0,-0.53221882,-0.84660683,0,0)" /><rect
         style="fill:#f6921b;fill-opacity:1;stroke:none;stroke-width:2.56071;stroke-linecap:round;paint-order:fill markers stroke"
         id="rect12785"
         width="19.765232"
         height="12.173738"
         x="-233.10196"
         y="-43.25708"
         transform="matrix(-1,0,0.53221882,-0.84660683,0,0)" /><rect
         style="fill:#fbae16;fill-opacity:1;stroke:none;stroke-width:2.56071;stroke-linecap:round;paint-order:fill markers stroke"
         id="rect14062"
         width="19.765232"
         height="12.173738"
         x="-209.30943"
         y="-10.128026"
         transform="matrix(-1,0,0.53221882,-0.84660683,0,0)" /><rect
         style="fill:#fcc215;fill-opacity:1;stroke:none;stroke-width:2.56071;stroke-linecap:round;paint-order:fill markers stroke"
         id="rect14066"
         width="19.765232"
         height="12.173738"
         x="-210.4828"
         y="-51.392582"
         transform="matrix(-1,0,0.53221882,-0.84660683,0,0)" /><rect
         style="fill:#fbae16;fill-opacity:1;stroke:none;stroke-width:2.56071;stroke-linecap:round;paint-order:fill markers stroke"
         id="rect17548"
         width="19.765232"
         height="12.173738"
         x="-32.466747"
         y="-92.29525"
         transform="matrix(1,0,-0.53221882,-0.84660683,0,0)" /><rect
         style="fill:#4d4d4d;fill-opacity:1;stroke:none;stroke-width:2.56071;stroke-linecap:round;paint-order:fill markers stroke"
         id="rect15090"
         width="19.765232"
         height="12.173738"
         x="-101.35694"
         y="-80.309029"
         transform="matrix(-1,0,0.53221882,-0.84660683,0,0)" /><rect
         style="fill:#cc6828;fill-opacity:1;stroke:none;stroke-width:2.56071;stroke-linecap:round;paint-order:fill markers stroke"
         id="rect14080"
         width="19.765232"
         height="12.173738"
         x="139.95903"
         y="-43.65604"
         transform="matrix(1,0,-0.53221882,-0.84660683,0,0)" /><rect
         style="fill:#fbae16;fill-opacity:1;stroke:none;stroke-width:2.56071;stroke-linecap:round;paint-order:fill markers stroke"
         id="rect14086"
         width="19.765232"
         height="12.173738"
         x="-188.74387"
         y="-57.823719"
         transform="matrix(-1,0,0.53221882,-0.84660683,0,0)" /><rect
         style="fill:#fbae16;fill-opacity:1;stroke:none;stroke-width:2.56071;stroke-linecap:round;paint-order:fill markers stroke"
         id="rect14090"
         width="19.765232"
         height="12.173738"
         x="-176.48077"
         y="-14.683114"
         transform="matrix(-1,0,0.53221882,-0.84660683,0,0)" /><rect
         style="fill:#fcc215;fill-opacity:1;stroke:none;stroke-width:2.56071;stroke-linecap:round;paint-order:fill markers stroke"
         id="rect14926"
         width="19.765232"
         height="12.173738"
         x="122.14606"
         y="-16.768606"
         transform="matrix(1,0,-0.53221882,-0.84660683,0,0)" /><rect
         style="fill:#fcc215;fill-opacity:1;stroke:none;stroke-width:2.56071;stroke-linecap:round;paint-order:fill markers stroke"
         id="rect14932"
         width="19.765232"
         height="12.173738"
         x="-154.62836"
         y="-43.9534"
         transform="matrix(-1,0,0.53221882,-0.84660683,0,0)" /><rect
         style="fill:#cc6828;fill-opacity:1;stroke:none;stroke-width:2.56071;stroke-linecap:round;paint-order:fill markers stroke"
         id="rect14934"
         width="19.765232"
         height="12.173738"
         x="-122.84155"
         y="-22.17452"
         transform="matrix(-1,0,0.53221882,-0.84660683,0,0)" /><rect
         style="fill:#4d4d4d;fill-opacity:1;stroke:none;stroke-width:2.56071;stroke-linecap:round;paint-order:fill markers stroke"
         id="rect14936"
         width="19.765232"
         height="12.173738"
         x="81.1231"
         y="-42.262432"
         transform="matrix(1,0,-0.53221882,-0.84660683,0,0)" /><rect
         style="fill:#f6921b;fill-opacity:1;stroke:none;stroke-width:2.56071;stroke-linecap:round;paint-order:fill markers stroke"
         id="rect14924"
         width="19.765232"
         height="12.173738"
         x="-137.168"
         y="-26.930399"
         transform="matrix(-1,0,0.53221882,-0.84660683,0,0)" /><rect
         style="fill:#fbae16;fill-opacity:1;stroke:none;stroke-width:2.56071;stroke-linecap:round;paint-order:fill markers stroke"
         id="rect15004"
         width="19.765232"
         height="12.173738"
         x="-140.09711"
         y="-58.472519"
         transform="matrix(-1,0,0.53221882,-0.84660683,0,0)" /><rect
         style="fill:#f6921b;fill-opacity:1;stroke:none;stroke-width:2.56071;stroke-linecap:round;paint-order:fill markers stroke"
         id="rect15006"
         width="19.765232"
         height="12.173738"
         x="-165.4075"
         y="-57.859875"
         transform="matrix(-1,0,0.53221882,-0.84660683,0,0)" /><rect
         style="fill:#fcc215;fill-opacity:1;stroke:none;stroke-width:2.56071;stroke-linecap:round;paint-order:fill markers stroke"
         id="rect15008"
         width="19.765232"
         height="12.173738"
         x="-162.78293"
         y="-72.082054"
         transform="matrix(-1,0,0.53221882,-0.84660683,0,0)" /><rect
         style="fill:#cc6828;fill-opacity:1;stroke:none;stroke-width:2.56071;stroke-linecap:round;paint-order:fill markers stroke"
         id="rect15052"
         width="19.765232"
         height="12.173738"
         x="19.53182"
         y="-75.200394"
         transform="matrix(1,0,-0.53221882,-0.84660683,0,0)" /><rect
         style="fill:#fcc215;fill-opacity:1;stroke:none;stroke-width:2.56071;stroke-linecap:round;paint-order:fill markers stroke"
         id="rect15054"
         width="19.765232"
         height="12.173738"
         x="33.208981"
         y="-62.354206"
         transform="matrix(1,0,-0.53221882,-0.84660683,0,0)" /><rect
         style="fill:#fbae16;fill-opacity:1;stroke:none;stroke-width:2.56071;stroke-linecap:round;paint-order:fill markers stroke"
         id="rect15056"
         width="19.765232"
         height="12.173738"
         x="-118.72583"
         y="-98.245346"
         transform="matrix(-1,0,0.53221882,-0.84660683,0,0)" /><rect
         style="fill:#4d4d4d;fill-opacity:1;stroke:none;stroke-width:2.56071;stroke-linecap:round;paint-order:fill markers stroke"
         id="rect15058"
         width="19.765232"
         height="12.173738"
         x="-110.29146"
         y="-36.409279"
         transform="matrix(-1,0,0.53221882,-0.84660683,0,0)" /><rect
         style="fill:#fbae16;fill-opacity:1;stroke:none;stroke-width:2.56071;stroke-linecap:round;paint-order:fill markers stroke"
         id="rect15060"
         width="19.765232"
         height="12.173738"
         x="-91.343491"
         y="-48.428001"
         transform="matrix(-1,0,0.53221882,-0.84660683,0,0)" /><rect
         style="fill:#cc6828;fill-opacity:1;stroke:none;stroke-width:2.56071;stroke-linecap:round;paint-order:fill markers stroke"
         id="rect15062"
         width="19.765232"
         height="12.173738"
         x="-71.636124"
         y="-64.127235"
         transform="matrix(-1,0,0.53221882,-0.84660683,0,0)" /><rect
         style="fill:#f6921b;fill-opacity:1;stroke:none;stroke-width:2.56071;stroke-linecap:round;paint-order:fill markers stroke"
         id="rect15068"
         width="19.765232"
         height="12.173738"
         x="-117.30755"
         y="-50.622265"
         transform="matrix(-1,0,0.53221882,-0.84660683,0,0)" /><rect
         style="fill:#fcc215;fill-opacity:1;stroke:none;stroke-width:2.56071;stroke-linecap:round;paint-order:fill markers stroke"
         id="rect15072"
         width="19.765232"
         height="12.173738"
         x="-79.59024"
         y="-78.503693"
         transform="matrix(-1,0,0.53221882,-0.84660683,0,0)" /><rect
         style="fill:#fbae16;fill-opacity:1;stroke:none;stroke-width:2.56071;stroke-linecap:round;paint-order:fill markers stroke"
         id="rect15084"
         width="19.765232"
         height="12.173738"
         x="-56.991711"
         y="-79.127037"
         transform="matrix(-1,0,0.53221882,-0.84660683,0,0)" /><rect
         style="fill:#f6921b;fill-opacity:1;stroke:none;stroke-width:2.56071;stroke-linecap:round;paint-order:fill markers stroke"
         id="rect15086"
         width="19.765232"
         height="12.173738"
         x="-112.80484"
         y="-126.07995"
         transform="matrix(-1,0,0.53221882,-0.84660683,0,0)" /><rect
         style="fill:#fcc215;fill-opacity:1;stroke:none;stroke-width:2.56071;stroke-linecap:round;paint-order:fill markers stroke"
         id="rect17604"
         width="19.765232"
         height="12.173738"
         x="-52.058086"
         y="-130.05164"
         transform="matrix(1,0,-0.53221882,-0.84660683,0,0)" /><rect
         style="fill:#fcc215;fill-opacity:1;stroke:none;stroke-width:2.56071;stroke-linecap:round;paint-order:fill markers stroke"
         id="rect15088"
         width="19.765232"
         height="12.173738"
         x="-70.967896"
         y="-106.40476"
         transform="matrix(-1,0,0.53221882,-0.84660683,0,0)" /><rect
         style="fill:#cc6828;fill-opacity:1;stroke:none;stroke-width:2.56071;stroke-linecap:round;paint-order:fill markers stroke"
         id="rect15094"
         width="19.765232"
         height="12.173738"
         x="-39.892849"
         y="-109.73763"
         transform="matrix(1,0,-0.53221882,-0.84660683,0,0)" /><rect
         style="fill:#fbae16;fill-opacity:1;stroke:none;stroke-width:2.56071;stroke-linecap:round;paint-order:fill markers stroke"
         id="rect15096"
         width="19.765232"
         height="12.173738"
         x="-17.174692"
         y="-105.69743"
         transform="matrix(1,0,-0.53221882,-0.84660683,0,0)" /><rect
         style="fill:#fcc215;fill-opacity:1;stroke:none;stroke-width:2.56071;stroke-linecap:round;paint-order:fill markers stroke"
         id="rect15098"
         width="19.765232"
         height="12.173738"
         x="-140.49698"
         y="-98.245346"
         transform="matrix(-1,0,0.53221882,-0.84660683,0,0)" /><rect
         style="fill:#fbae16;fill-opacity:1;stroke:none;stroke-width:2.56071;stroke-linecap:round;paint-order:fill markers stroke"
         id="rect15100"
         width="19.765232"
         height="12.173738"
         x="-125.98306"
         y="-84.709724"
         transform="matrix(-1,0,0.53221882,-0.84660683,0,0)" /><rect
         style="fill:#fcc215;fill-opacity:1;stroke:none;stroke-width:2.56071;stroke-linecap:round;paint-order:fill markers stroke"
         id="rect15104"
         width="19.765232"
         height="12.173738"
         x="44.934303"
         y="-71.039223"
         transform="matrix(1,0,-0.53221882,-0.84660683,0,0)" /><rect
         style="fill:#fcc215;fill-opacity:1;stroke:none;stroke-width:2.56071;stroke-linecap:round;paint-order:fill markers stroke"
         id="rect15934"
         width="19.765232"
         height="12.173738"
         x="262.02246"
         y="-30.005333"
         transform="matrix(1,0,-0.53221882,-0.84660683,0,0)" /><rect
         style="fill:#f6921b;fill-opacity:1;stroke:none;stroke-width:2.56071;stroke-linecap:round;paint-order:fill markers stroke"
         id="rect16490"
         width="19.765232"
         height="12.173738"
         x="-87.78569"
         y="-64.127235"
         transform="matrix(-1,0,0.53221882,-0.84660683,0,0)" /><rect
         style="fill:#fbae16;fill-opacity:1;stroke:none;stroke-width:2.56071;stroke-linecap:round;paint-order:fill markers stroke"
         id="rect16569"
         width="19.765232"
         height="12.173738"
         x="240.18602"
         y="-26.621876"
         transform="matrix(1,0,-0.53221882,-0.84660683,0,0)" /><rect
         style="fill:#f6921b;fill-opacity:1;stroke:none;stroke-width:2.56071;stroke-linecap:round;paint-order:fill markers stroke"
         id="rect16571"
         width="19.765232"
         height="12.173738"
         x="121.33442"
         y="-43.65604"
         transform="matrix(1,0,-0.53221882,-0.84660683,0,0)" /><rect
         style="fill:#fbae16;fill-opacity:1;stroke:none;stroke-width:2.56071;stroke-linecap:round;paint-order:fill markers stroke"
         id="rect16573"
         width="19.765232"
         height="12.173738"
         x="-165.36218"
         y="-30.194544"
         transform="matrix(-1,0,0.53221882,-0.84660683,0,0)" /><rect
         style="fill:#fcc215;fill-opacity:1;stroke:none;stroke-width:2.56071;stroke-linecap:round;paint-order:fill markers stroke"
         id="rect16575"
         width="19.765232"
         height="12.173738"
         x="-181.65886"
         y="-30.194544"
         transform="matrix(-1,0,0.53221882,-0.84660683,0,0)" /><rect
         style="fill:#4d4d4d;fill-opacity:1;stroke:none;stroke-width:2.56071;stroke-linecap:round;paint-order:fill markers stroke"
         id="rect14072"
         width="19.765232"
         height="12.173738"
         x="-199.74219"
         y="-19.529144"
         transform="matrix(-1,0,0.53221882,-0.84660683,0,0)" /><rect
         style="fill:#fcc215;fill-opacity:1;stroke:none;stroke-width:2.56071;stroke-linecap:round;paint-order:fill markers stroke"
         id="rect17536"
         width="19.765232"
         height="12.173738"
         x="-127.78043"
         y="-112.21071"
         transform="matrix(-1,0,0.53221882,-0.84660683,0,0)" /><rect
         style="fill:#cc6828;fill-opacity:1;stroke:none;stroke-width:2.56071;stroke-linecap:round;paint-order:fill markers stroke"
         id="rect17538"
         width="19.765232"
         height="12.173738"
         x="-149.91701"
         y="-84.709724"
         transform="matrix(-1,0,0.53221882,-0.84660683,0,0)" /><rect
         style="fill:#cc6828;fill-opacity:1;stroke:none;stroke-width:2.56071;stroke-linecap:round;paint-order:fill markers stroke"
         id="rect17542"
         width="19.765232"
         height="12.173738"
         x="-102.60227"
         y="-93.863571"
         transform="matrix(-1,0,0.53221882,-0.84660683,0,0)" /><rect
         style="fill:#cc6828;fill-opacity:1;stroke:none;stroke-width:2.56071;stroke-linecap:round;paint-order:fill markers stroke"
         id="rect17544"
         width="19.765232"
         height="12.173738"
         x="-85.825577"
         y="-126.61755"
         transform="matrix(-1,0,0.53221882,-0.84660683,0,0)" /><rect
         style="fill:#fcc215;fill-opacity:1;stroke:none;stroke-width:2.56071;stroke-linecap:round;paint-order:fill markers stroke"
         id="rect17546"
         width="19.765232"
         height="12.173738"
         x="-95.875717"
         y="-143.9193"
         transform="matrix(-1,0,0.53221882,-0.84660683,0,0)" /><rect
         style="fill:#4d4d4d;fill-opacity:1;stroke:none;stroke-width:2.56071;stroke-linecap:round;paint-order:fill markers stroke"
         id="rect17719"
         width="19.765232"
         height="12.173738"
         x="-91.941093"
         y="-158.44327"
         transform="matrix(-1,0,0.53221882,-0.84660683,0,0)" /></g><g
       id="g3470"
       inkscape:label="River of Colour Back"
       style="display:inline;opacity:0.123881"
       transform="rotate(180,318.2617,111.10939)"><rect
         style="fill:#cc6828;fill-opacity:1;stroke:none;stroke-width:2.56071;stroke-linecap:round;paint-order:fill markers stroke"
         id="rect3360"
         width="19.765232"
         height="12.173738"
         x="-303.25317"
         y="-14.528629"
         transform="matrix(-1,0,0.53221882,-0.84660683,0,0)" /><rect
         style="fill:#fbae16;fill-opacity:1;stroke:none;stroke-width:2.56071;stroke-linecap:round;paint-order:fill markers stroke"
         id="rect3362"
         width="19.765232"
         height="12.173738"
         x="250.29169"
         y="-11.465811"
         transform="matrix(1,0,-0.53221882,-0.84660683,0,0)" /><rect
         style="fill:#f6921b;fill-opacity:1;stroke:none;stroke-width:2.56071;stroke-linecap:round;paint-order:fill markers stroke"
         id="rect3364"
         width="19.765232"
         height="12.173738"
         x="227.34389"
         y="-17.552679"
         transform="matrix(1,0,-0.53221882,-0.84660683,0,0)" /><rect
         style="fill:#fcc215;fill-opacity:1;stroke:none;stroke-width:2.56071;stroke-linecap:round;paint-order:fill markers stroke"
         id="rect3366"
         width="19.765232"
         height="12.173738"
         x="230.30341"
         y="-32.708744"
         transform="matrix(1,0,-0.53221882,-0.84660683,0,0)" /><rect
         style="fill:#4d4d4d;fill-opacity:1;stroke:none;stroke-width:2.56071;stroke-linecap:round;paint-order:fill markers stroke"
         id="rect3368"
         width="19.765232"
         height="12.173738"
         x="-256.48575"
         y="-37.787571"
         transform="matrix(-1,0,0.53221882,-0.84660683,0,0)" /><rect
         style="fill:#fbae16;fill-opacity:1;stroke:none;stroke-width:2.56071;stroke-linecap:round;paint-order:fill markers stroke"
         id="rect3370"
         width="19.765232"
         height="12.173738"
         x="206.38947"
         y="-23.918465"
         transform="matrix(1,0,-0.53221882,-0.84660683,0,0)" /><rect
         style="fill:#cc6828;fill-opacity:1;stroke:none;stroke-width:2.56071;stroke-linecap:round;paint-order:fill markers stroke"
         id="rect3372"
         width="19.765232"
         height="12.173738"
         x="-230.73352"
         y="-13.95615"
         transform="matrix(-1,0,0.53221882,-0.84660683,0,0)" /><rect
         style="fill:#f6921b;fill-opacity:1;stroke:none;stroke-width:2.56071;stroke-linecap:round;paint-order:fill markers stroke"
         id="rect3374"
         width="19.765232"
         height="12.173738"
         x="-209.88419"
         y="-33.834507"
         transform="matrix(-1,0,0.53221882,-0.84660683,0,0)" /><rect
         style="fill:#fcc215;fill-opacity:1;stroke:none;stroke-width:2.56071;stroke-linecap:round;paint-order:fill markers stroke"
         id="rect3376"
         width="19.765232"
         height="12.173738"
         x="184.15321"
         y="-28.411274"
         transform="matrix(1,0,-0.53221882,-0.84660683,0,0)" /><rect
         style="fill:#f6921b;fill-opacity:1;stroke:none;stroke-width:2.56071;stroke-linecap:round;paint-order:fill markers stroke"
         id="rect3378"
         width="19.765232"
         height="12.173738"
         x="-233.10196"
         y="-43.25708"
         transform="matrix(-1,0,0.53221882,-0.84660683,0,0)" /><rect
         style="fill:#fbae16;fill-opacity:1;stroke:none;stroke-width:2.56071;stroke-linecap:round;paint-order:fill markers stroke"
         id="rect3380"
         width="19.765232"
         height="12.173738"
         x="-209.30943"
         y="-10.128026"
         transform="matrix(-1,0,0.53221882,-0.84660683,0,0)" /><rect
         style="fill:#fcc215;fill-opacity:1;stroke:none;stroke-width:2.56071;stroke-linecap:round;paint-order:fill markers stroke"
         id="rect3382"
         width="19.765232"
         height="12.173738"
         x="-210.4828"
         y="-51.392582"
         transform="matrix(-1,0,0.53221882,-0.84660683,0,0)" /><rect
         style="fill:#fbae16;fill-opacity:1;stroke:none;stroke-width:2.56071;stroke-linecap:round;paint-order:fill markers stroke"
         id="rect3384"
         width="19.765232"
         height="12.173738"
         x="-32.466747"
         y="-92.29525"
         transform="matrix(1,0,-0.53221882,-0.84660683,0,0)" /><rect
         style="fill:#4d4d4d;fill-opacity:1;stroke:none;stroke-width:2.56071;stroke-linecap:round;paint-order:fill markers stroke"
         id="rect3386"
         width="19.765232"
         height="12.173738"
         x="-101.35694"
         y="-80.309029"
         transform="matrix(-1,0,0.53221882,-0.84660683,0,0)" /><rect
         style="fill:#cc6828;fill-opacity:1;stroke:none;stroke-width:2.56071;stroke-linecap:round;paint-order:fill markers stroke"
         id="rect3388"
         width="19.765232"
         height="12.173738"
         x="139.95903"
         y="-43.65604"
         transform="matrix(1,0,-0.53221882,-0.84660683,0,0)" /><rect
         style="fill:#fbae16;fill-opacity:1;stroke:none;stroke-width:2.56071;stroke-linecap:round;paint-order:fill markers stroke"
         id="rect3390"
         width="19.765232"
         height="12.173738"
         x="-188.74387"
         y="-57.823719"
         transform="matrix(-1,0,0.53221882,-0.84660683,0,0)" /><rect
         style="fill:#fbae16;fill-opacity:1;stroke:none;stroke-width:2.56071;stroke-linecap:round;paint-order:fill markers stroke"
         id="rect3392"
         width="19.765232"
         height="12.173738"
         x="-176.48077"
         y="-14.683114"
         transform="matrix(-1,0,0.53221882,-0.84660683,0,0)" /><rect
         style="fill:#fcc215;fill-opacity:1;stroke:none;stroke-width:2.56071;stroke-linecap:round;paint-order:fill markers stroke"
         id="rect3394"
         width="19.765232"
         height="12.173738"
         x="122.14606"
         y="-16.768606"
         transform="matrix(1,0,-0.53221882,-0.84660683,0,0)" /><rect
         style="fill:#fcc215;fill-opacity:1;stroke:none;stroke-width:2.56071;stroke-linecap:round;paint-order:fill markers stroke"
         id="rect3396"
         width="19.765232"
         height="12.173738"
         x="-154.62836"
         y="-43.9534"
         transform="matrix(-1,0,0.53221882,-0.84660683,0,0)" /><rect
         style="fill:#cc6828;fill-opacity:1;stroke:none;stroke-width:2.56071;stroke-linecap:round;paint-order:fill markers stroke"
         id="rect3398"
         width="19.765232"
         height="12.173738"
         x="-122.84155"
         y="-22.17452"
         transform="matrix(-1,0,0.53221882,-0.84660683,0,0)" /><rect
         style="fill:#4d4d4d;fill-opacity:1;stroke:none;stroke-width:2.56071;stroke-linecap:round;paint-order:fill markers stroke"
         id="rect3400"
         width="19.765232"
         height="12.173738"
         x="81.1231"
         y="-42.262432"
         transform="matrix(1,0,-0.53221882,-0.84660683,0,0)" /><rect
         style="fill:#f6921b;fill-opacity:1;stroke:none;stroke-width:2.56071;stroke-linecap:round;paint-order:fill markers stroke"
         id="rect3402"
         width="19.765232"
         height="12.173738"
         x="-137.168"
         y="-26.930399"
         transform="matrix(-1,0,0.53221882,-0.84660683,0,0)" /><rect
         style="fill:#fbae16;fill-opacity:1;stroke:none;stroke-width:2.56071;stroke-linecap:round;paint-order:fill markers stroke"
         id="rect3404"
         width="19.765232"
         height="12.173738"
         x="-140.09711"
         y="-58.472519"
         transform="matrix(-1,0,0.53221882,-0.84660683,0,0)" /><rect
         style="fill:#f6921b;fill-opacity:1;stroke:none;stroke-width:2.56071;stroke-linecap:round;paint-order:fill markers stroke"
         id="rect3406"
         width="19.765232"
         height="12.173738"
         x="-165.4075"
         y="-57.859875"
         transform="matrix(-1,0,0.53221882,-0.84660683,0,0)" /><rect
         style="fill:#fcc215;fill-opacity:1;stroke:none;stroke-width:2.56071;stroke-linecap:round;paint-order:fill markers stroke"
         id="rect3408"
         width="19.765232"
         height="12.173738"
         x="-162.78293"
         y="-72.082054"
         transform="matrix(-1,0,0.53221882,-0.84660683,0,0)" /><rect
         style="fill:#cc6828;fill-opacity:1;stroke:none;stroke-width:2.56071;stroke-linecap:round;paint-order:fill markers stroke"
         id="rect3410"
         width="19.765232"
         height="12.173738"
         x="19.53182"
         y="-75.200394"
         transform="matrix(1,0,-0.53221882,-0.84660683,0,0)" /><rect
         style="fill:#fcc215;fill-opacity:1;stroke:none;stroke-width:2.56071;stroke-linecap:round;paint-order:fill markers stroke"
         id="rect3412"
         width="19.765232"
         height="12.173738"
         x="33.208981"
         y="-62.354206"
         transform="matrix(1,0,-0.53221882,-0.84660683,0,0)" /><rect
         style="fill:#fbae16;fill-opacity:1;stroke:none;stroke-width:2.56071;stroke-linecap:round;paint-order:fill markers stroke"
         id="rect3414"
         width="19.765232"
         height="12.173738"
         x="-118.72583"
         y="-98.245346"
         transform="matrix(-1,0,0.53221882,-0.84660683,0,0)" /><rect
         style="fill:#4d4d4d;fill-opacity:1;stroke:none;stroke-width:2.56071;stroke-linecap:round;paint-order:fill markers stroke"
         id="rect3416"
         width="19.765232"
         height="12.173738"
         x="-110.29146"
         y="-36.409279"
         transform="matrix(-1,0,0.53221882,-0.84660683,0,0)" /><rect
         style="fill:#fbae16;fill-opacity:1;stroke:none;stroke-width:2.56071;stroke-linecap:round;paint-order:fill markers stroke"
         id="rect3418"
         width="19.765232"
         height="12.173738"
         x="-91.343491"
         y="-48.428001"
         transform="matrix(-1,0,0.53221882,-0.84660683,0,0)" /><rect
         style="fill:#cc6828;fill-opacity:1;stroke:none;stroke-width:2.56071;stroke-linecap:round;paint-order:fill markers stroke"
         id="rect3420"
         width="19.765232"
         height="12.173738"
         x="-71.636124"
         y="-64.127235"
         transform="matrix(-1,0,0.53221882,-0.84660683,0,0)" /><rect
         style="fill:#f6921b;fill-opacity:1;stroke:none;stroke-width:2.56071;stroke-linecap:round;paint-order:fill markers stroke"
         id="rect3422"
         width="19.765232"
         height="12.173738"
         x="-117.30755"
         y="-50.622265"
         transform="matrix(-1,0,0.53221882,-0.84660683,0,0)" /><rect
         style="fill:#fcc215;fill-opacity:1;stroke:none;stroke-width:2.56071;stroke-linecap:round;paint-order:fill markers stroke"
         id="rect3424"
         width="19.765232"
         height="12.173738"
         x="-79.59024"
         y="-78.503693"
         transform="matrix(-1,0,0.53221882,-0.84660683,0,0)" /><rect
         style="fill:#fbae16;fill-opacity:1;stroke:none;stroke-width:2.56071;stroke-linecap:round;paint-order:fill markers stroke"
         id="rect3426"
         width="19.765232"
         height="12.173738"
         x="-56.991711"
         y="-79.127037"
         transform="matrix(-1,0,0.53221882,-0.84660683,0,0)" /><rect
         style="fill:#f6921b;fill-opacity:1;stroke:none;stroke-width:2.56071;stroke-linecap:round;paint-order:fill markers stroke"
         id="rect3428"
         width="19.765232"
         height="12.173738"
         x="-112.80484"
         y="-126.07995"
         transform="matrix(-1,0,0.53221882,-0.84660683,0,0)" /><rect
         style="fill:#fcc215;fill-opacity:1;stroke:none;stroke-width:2.56071;stroke-linecap:round;paint-order:fill markers stroke"
         id="rect3430"
         width="19.765232"
         height="12.173738"
         x="-52.058086"
         y="-130.05164"
         transform="matrix(1,0,-0.53221882,-0.84660683,0,0)" /><rect
         style="fill:#fcc215;fill-opacity:1;stroke:none;stroke-width:2.56071;stroke-linecap:round;paint-order:fill markers stroke"
         id="rect3432"
         width="19.765232"
         height="12.173738"
         x="-70.967896"
         y="-106.40476"
         transform="matrix(-1,0,0.53221882,-0.84660683,0,0)" /><rect
         style="fill:#cc6828;fill-opacity:1;stroke:none;stroke-width:2.56071;stroke-linecap:round;paint-order:fill markers stroke"
         id="rect3434"
         width="19.765232"
         height="12.173738"
         x="-39.892849"
         y="-109.73763"
         transform="matrix(1,0,-0.53221882,-0.84660683,0,0)" /><rect
         style="fill:#fbae16;fill-opacity:1;stroke:none;stroke-width:2.56071;stroke-linecap:round;paint-order:fill markers stroke"
         id="rect3436"
         width="19.765232"
         height="12.173738"
         x="-17.174692"
         y="-105.69743"
         transform="matrix(1,0,-0.53221882,-0.84660683,0,0)" /><rect
         style="fill:#fcc215;fill-opacity:1;stroke:none;stroke-width:2.56071;stroke-linecap:round;paint-order:fill markers stroke"
         id="rect3438"
         width="19.765232"
         height="12.173738"
         x="-140.49698"
         y="-98.245346"
         transform="matrix(-1,0,0.53221882,-0.84660683,0,0)" /><rect
         style="fill:#fbae16;fill-opacity:1;stroke:none;stroke-width:2.56071;stroke-linecap:round;paint-order:fill markers stroke"
         id="rect3440"
         width="19.765232"
         height="12.173738"
         x="-125.98306"
         y="-84.709724"
         transform="matrix(-1,0,0.53221882,-0.84660683,0,0)" /><rect
         style="fill:#fcc215;fill-opacity:1;stroke:none;stroke-width:2.56071;stroke-linecap:round;paint-order:fill markers stroke"
         id="rect3442"
         width="19.765232"
         height="12.173738"
         x="44.934303"
         y="-71.039223"
         transform="matrix(1,0,-0.53221882,-0.84660683,0,0)" /><rect
         style="fill:#fcc215;fill-opacity:1;stroke:none;stroke-width:2.56071;stroke-linecap:round;paint-order:fill markers stroke"
         id="rect3444"
         width="19.765232"
         height="12.173738"
         x="262.02246"
         y="-30.005333"
         transform="matrix(1,0,-0.53221882,-0.84660683,0,0)" /><rect
         style="fill:#f6921b;fill-opacity:1;stroke:none;stroke-width:2.56071;stroke-linecap:round;paint-order:fill markers stroke"
         id="rect3446"
         width="19.765232"
         height="12.173738"
         x="-87.78569"
         y="-64.127235"
         transform="matrix(-1,0,0.53221882,-0.84660683,0,0)" /><rect
         style="fill:#fbae16;fill-opacity:1;stroke:none;stroke-width:2.56071;stroke-linecap:round;paint-order:fill markers stroke"
         id="rect3448"
         width="19.765232"
         height="12.173738"
         x="240.18602"
         y="-26.621876"
         transform="matrix(1,0,-0.53221882,-0.84660683,0,0)" /><rect
         style="fill:#f6921b;fill-opacity:1;stroke:none;stroke-width:2.56071;stroke-linecap:round;paint-order:fill markers stroke"
         id="rect3450"
         width="19.765232"
         height="12.173738"
         x="121.33442"
         y="-43.65604"
         transform="matrix(1,0,-0.53221882,-0.84660683,0,0)" /><rect
         style="fill:#fbae16;fill-opacity:1;stroke:none;stroke-width:2.56071;stroke-linecap:round;paint-order:fill markers stroke"
         id="rect3452"
         width="19.765232"
         height="12.173738"
         x="-165.36218"
         y="-30.194544"
         transform="matrix(-1,0,0.53221882,-0.84660683,0,0)" /><rect
         style="fill:#fcc215;fill-opacity:1;stroke:none;stroke-width:2.56071;stroke-linecap:round;paint-order:fill markers stroke"
         id="rect3454"
         width="19.765232"
         height="12.173738"
         x="-181.65886"
         y="-30.194544"
         transform="matrix(-1,0,0.53221882,-0.84660683,0,0)" /><rect
         style="fill:#4d4d4d;fill-opacity:1;stroke:none;stroke-width:2.56071;stroke-linecap:round;paint-order:fill markers stroke"
         id="rect3456"
         width="19.765232"
         height="12.173738"
         x="-199.74219"
         y="-19.529144"
         transform="matrix(-1,0,0.53221882,-0.84660683,0,0)" /><rect
         style="fill:#fcc215;fill-opacity:1;stroke:none;stroke-width:2.56071;stroke-linecap:round;paint-order:fill markers stroke"
         id="rect3458"
         width="19.765232"
         height="12.173738"
         x="-127.78043"
         y="-112.21071"
         transform="matrix(-1,0,0.53221882,-0.84660683,0,0)" /><rect
         style="fill:#cc6828;fill-opacity:1;stroke:none;stroke-width:2.56071;stroke-linecap:round;paint-order:fill markers stroke"
         id="rect3460"
         width="19.765232"
         height="12.173738"
         x="-149.91701"
         y="-84.709724"
         transform="matrix(-1,0,0.53221882,-0.84660683,0,0)" /><rect
         style="fill:#cc6828;fill-opacity:1;stroke:none;stroke-width:2.56071;stroke-linecap:round;paint-order:fill markers stroke"
         id="rect3462"
         width="19.765232"
         height="12.173738"
         x="-102.60227"
         y="-93.863571"
         transform="matrix(-1,0,0.53221882,-0.84660683,0,0)" /><rect
         style="fill:#cc6828;fill-opacity:1;stroke:none;stroke-width:2.56071;stroke-linecap:round;paint-order:fill markers stroke"
         id="rect3464"
         width="19.765232"
         height="12.173738"
         x="-85.825577"
         y="-126.61755"
         transform="matrix(-1,0,0.53221882,-0.84660683,0,0)" /><rect
         style="fill:#fcc215;fill-opacity:1;stroke:none;stroke-width:2.56071;stroke-linecap:round;paint-order:fill markers stroke"
         id="rect3466"
         width="19.765232"
         height="12.173738"
         x="-95.875717"
         y="-143.9193"
         transform="matrix(-1,0,0.53221882,-0.84660683,0,0)" /><rect
         style="fill:#4d4d4d;fill-opacity:1;stroke:none;stroke-width:2.56071;stroke-linecap:round;paint-order:fill markers stroke"
         id="rect3468"
         width="19.765232"
         height="12.173738"
         x="-91.941093"
         y="-158.44327"
         transform="matrix(-1,0,0.53221882,-0.84660683,0,0)" /></g><g
       id="g2980"
       inkscape:label="Housing Co-operatives"
       style="display:inline"><g
         id="g22171"
         transform="translate(29.482173,60.228348)"
         inkscape:label="Housing"><path
           id="path22163"
           style="fill:#fcc215;fill-opacity:1;stroke:none;stroke-width:1.8144;stroke-linecap:round;paint-order:fill markers stroke"
           d="m 367.54984,107.40585 -8.31274,8.03982 v 22.47046 h 16.79313 v -22.47046 h -1.8e-4 z" /><g
           id="g22169"
           inkscape:label="Tenant"
           transform="translate(-10.488839,30.786639)"
           style="fill:#ffffff"><path
             id="path22165"
             style="fill:#ffffff;stroke-width:3;stroke-linecap:round;paint-order:fill markers stroke"
             d="m 378.12214,94.316207 c -2.81212,0 -5.0861,2.219589 -5.17436,5.009513 h -0.003 v 0.168465 4.883425 h 10.35544 V 99.494185 99.32572 h -0.003 c -0.0882,-2.789931 -2.36275,-5.009513 -5.17488,-5.009513 z" /><circle
             style="fill:#ffffff;fill-opacity:1;stroke:none;stroke-width:2.55524;stroke-linecap:round;paint-order:fill markers stroke"
             id="circle22167"
             cx="378.14304"
             cy="90.003067"
             r="4.3131433" /></g></g><g
         id="g22191"
         transform="translate(8.451856,39.527846)"
         inkscape:label="Housing"><path
           id="path22183"
           style="fill:#fcc215;fill-opacity:1;stroke:none;stroke-width:1.8144;stroke-linecap:round;paint-order:fill markers stroke"
           d="m 367.54984,107.40585 -8.31274,8.03982 v 22.47046 h 16.79313 v -22.47046 h -1.8e-4 z" /><g
           id="g22189"
           inkscape:label="Tenant"
           transform="translate(-10.488839,30.786639)"
           style="fill:#ffffff"><path
             id="path22185"
             style="fill:#ffffff;stroke-width:3;stroke-linecap:round;paint-order:fill markers stroke"
             d="m 378.12214,94.316207 c -2.81212,0 -5.0861,2.219589 -5.17436,5.009513 h -0.003 v 0.168465 4.883425 h 10.35544 V 99.494185 99.32572 h -0.003 c -0.0882,-2.789931 -2.36275,-5.009513 -5.17488,-5.009513 z" /><circle
             style="fill:#ffffff;fill-opacity:1;stroke:none;stroke-width:2.55524;stroke-linecap:round;paint-order:fill markers stroke"
             id="circle22187"
             cx="378.14304"
             cy="90.003067"
             r="4.3131433" /></g></g><g
         id="g22201"
         transform="translate(50.532538,39.527684)"
         inkscape:label="Housing"><path
           id="path22193"
           style="fill:#fcc215;fill-opacity:1;stroke:none;stroke-width:1.8144;stroke-linecap:round;paint-order:fill markers stroke"
           d="m 367.54984,107.40585 -8.31274,8.03982 v 22.47046 h 16.79313 v -22.47046 h -1.8e-4 z" /><g
           id="g22199"
           inkscape:label="Tenant"
           transform="translate(-10.488839,30.786639)"
           style="fill:#ffffff"><path
             id="path22195"
             style="fill:#ffffff;stroke-width:3;stroke-linecap:round;paint-order:fill markers stroke"
             d="m 378.12214,94.316207 c -2.81212,0 -5.0861,2.219589 -5.17436,5.009513 h -0.003 v 0.168465 4.883425 h 10.35544 V 99.494185 99.32572 h -0.003 c -0.0882,-2.789931 -2.36275,-5.009513 -5.17488,-5.009513 z" /><circle
             style="fill:#ffffff;fill-opacity:1;stroke:none;stroke-width:2.55524;stroke-linecap:round;paint-order:fill markers stroke"
             id="circle22197"
             cx="378.14304"
             cy="90.003067"
             r="4.3131433" /></g></g><path
         id="path22705"
         style="color:#000000;fill:#fbae16;fill-rule:evenodd;-inkscape-stroke:none"
         d="m 389.88269,159.11056 -5.32422,3.07836 5.32422,3.07785 v -2.57814 h 14.56273 v 1.28908 1.28907 l 2.66211,-1.53892 2.66211,-1.53893 -2.66211,-1.53918 -2.66211,-1.53918 v 1.28907 1.28906 h -14.56273 z"
         sodipodi:nodetypes="ccccccccccccccc" /><path
         id="path23022"
         style="color:#000000;fill:#fbae16;fill-rule:evenodd;-inkscape-stroke:none"
         d="m 376.09058,177.44395 -0.28939,0.50023 -2.78897,4.82606 h 2.57813 v 8.37882 h 7.80263 v 2.57813 l 4.82606,-2.78897 0.50023,-0.28939 -5.32578,-3.07733 v 2.57503 l -6.8032,-0.006 v -7.37113 h 2.57814 z" /><path
         id="path1201"
         style="color:#000000;fill:#fbae16;fill-rule:evenodd;-inkscape-stroke:none"
         d="m 418.14109,177.44395 0.28939,0.50023 2.78897,4.82606 h -2.57813 v 8.37882 h -7.80263 v 2.57813 l -4.82606,-2.78897 -0.50023,-0.28939 5.32578,-3.07733 v 2.57503 l 6.8032,-0.006 v -7.37113 h -2.57814 z" /><text
         xml:space="preserve"
         style="font-style:normal;font-variant:normal;font-weight:normal;font-stretch:normal;font-size:4.9389px;line-height:1;font-family:Cantarell;-inkscape-font-specification:Cantarell;font-variant-ligatures:normal;font-variant-caps:normal;font-variant-numeric:normal;font-variant-east-asian:normal;text-align:start;text-anchor:start;fill:#4d4d4d;fill-opacity:1;stroke:none;stroke-width:3;stroke-linecap:round;paint-order:fill markers stroke"
         x="343.84207"
         y="142.37286"
         id="text18912"><tspan
           sodipodi:role="line"
           id="tspan18910"
           style="font-style:normal;font-variant:normal;font-weight:300;font-stretch:normal;font-family:Cantarell;-inkscape-font-specification:'Cantarell Light';fill:#4d4d4d;fill-opacity:1;stroke-width:3"
           x="343.84207"
           y="142.37286">                         Housing Ownership :</tspan></text><text
         xml:space="preserve"
         style="font-style:normal;font-variant:normal;font-weight:normal;font-stretch:normal;font-size:4.9389px;line-height:1;font-family:Cantarell;-inkscape-font-specification:Cantarell;font-variant-ligatures:normal;font-variant-caps:normal;font-variant-numeric:normal;font-variant-east-asian:normal;text-align:start;text-anchor:start;display:inline;fill:#fcc215;fill-opacity:1;stroke:none;stroke-width:3;stroke-linecap:round;paint-order:fill markers stroke"
         x="343.84207"
         y="142.37286"
         id="text18924"><tspan
           sodipodi:role="line"
           id="tspan18922"
           style="font-style:normal;font-variant:normal;font-weight:300;font-stretch:normal;font-family:Cantarell;-inkscape-font-specification:'Cantarell Light';fill:#fcc215;fill-opacity:1;stroke-width:3"
           x="343.84207"
           y="142.37286"><tspan
   style="font-weight:bold;fill:#fcc215;fill-opacity:1"
   id="tspan18920">Cooperative</tspan> </tspan></text><text
         xml:space="preserve"
         style="font-style:normal;font-variant:normal;font-weight:300;font-stretch:normal;font-size:4.9389px;line-height:1;font-family:Cantarell;-inkscape-font-specification:'Cantarell Light';font-variant-ligatures:normal;font-variant-caps:normal;font-variant-numeric:normal;font-variant-east-asian:normal;text-align:start;text-anchor:start;fill:#4d4d4d;fill-opacity:1;stroke:none;stroke-width:3;stroke-linecap:round;paint-order:fill markers stroke"
         x="345.20184"
         y="149.18336"
         id="text2707"><tspan
           sodipodi:role="line"
           style="stroke-width:3"
           x="345.20184"
           y="149.18336"
           id="tspan2705">Tenants</tspan><tspan
           sodipodi:role="line"
           style="stroke-width:3"
           x="345.20184"
           y="154.12227"
           id="tspan2714">own house</tspan><tspan
           sodipodi:role="line"
           style="stroke-width:3"
           x="345.20184"
           y="159.06116"
           id="tspan2716">together</tspan></text></g><g
       id="g3038"
       inkscape:label="A Housing Co-op is"><g
         id="g17205"
         transform="translate(-0.33806342,-0.02328378)"><text
           xml:space="preserve"
           style="font-style:normal;font-variant:normal;font-weight:bold;font-stretch:normal;font-size:7.76126px;line-height:1;font-family:Cantarell;-inkscape-font-specification:'Cantarell, Bold';font-variant-ligatures:normal;font-variant-caps:normal;font-variant-numeric:normal;font-variant-east-asian:normal;text-align:start;text-anchor:start;fill:#4d4d4d;fill-opacity:1;stroke:none;stroke-width:3;stroke-linecap:round;paint-order:fill markers stroke"
           x="343.50314"
           y="11.41468"
           id="text16846"><tspan
             sodipodi:role="line"
             style="font-style:normal;font-variant:normal;font-weight:normal;font-stretch:normal;font-family:Cantarell;-inkscape-font-specification:Cantarell;text-align:start;text-anchor:start;fill:#4d4d4d;fill-opacity:1;stroke-width:3"
             x="343.50314"
             y="11.41468"
             id="tspan16848">A Housing                             is:</tspan></text><text
           xml:space="preserve"
           style="font-style:normal;font-variant:normal;font-weight:bold;font-stretch:normal;font-size:8.29987px;line-height:1;font-family:Cantarell;-inkscape-font-specification:'Cantarell, Bold';font-variant-ligatures:normal;font-variant-caps:normal;font-variant-numeric:normal;font-variant-east-asian:normal;text-align:start;text-anchor:start;display:inline;fill:#fcc215;fill-opacity:1;stroke:none;stroke-width:3.20819;stroke-linecap:round;paint-order:fill markers stroke"
           x="380.41748"
           y="11.55364"
           id="text17130"><tspan
             sodipodi:role="line"
             style="text-align:start;text-anchor:start;fill:#fcc215;fill-opacity:1;stroke-width:3.20819"
             x="380.41748"
             y="11.55364"
             id="tspan17128">Cooperative </tspan></text></g><text
         xml:space="preserve"
         transform="scale(0.26458333)"
         id="text17949"
         style="font-style:normal;font-variant:normal;font-weight:normal;font-stretch:normal;font-size:18.6667px;line-height:1;font-family:Cantarell;-inkscape-font-specification:'Cantarell, Normal';font-variant-ligatures:normal;font-variant-caps:normal;font-variant-numeric:normal;font-variant-east-asian:normal;text-align:center;white-space:pre;shape-inside:url(#rect17951);shape-padding:0.00003881;display:inline;fill:#cc6828;fill-opacity:1;stroke:none;stroke-width:11.3386;stroke-linecap:round;paint-order:fill markers stroke"
         x="-29.055222"
         y="0"><tspan
           x="1299.0566"
           y="69.445219"
           id="tspan7155"><tspan
             style="font-weight:300;-inkscape-font-specification:'Cantarell Light';text-align:start;fill:#4d4d4d"
             id="tspan7149">Housing co-operatives is a </tspan><tspan
             style="font-weight:bold"
             id="tspan7151">alternative</tspan><tspan
             style="font-weight:bold;-inkscape-font-specification:'Cantarell Light';text-align:start;fill:#4d4d4d"
             id="tspan7153"> </tspan></tspan><tspan
           x="1299.0566"
           y="88.111921"
           id="tspan7163"><tspan
             style="font-weight:bold"
             id="tspan7157">ownership method</tspan><tspan
             style="font-weight:300;-inkscape-font-specification:'Cantarell Light'"
             id="tspan7159"> </tspan><tspan
             style="font-weight:300;-inkscape-font-specification:'Cantarell Light';text-align:start;fill:#4d4d4d"
             id="tspan7161">for housing. Where </tspan></tspan><tspan
           x="1299.0566"
           y="106.77862"
           id="tspan7167"><tspan
             style="font-weight:300;-inkscape-font-specification:'Cantarell Light';text-align:start;fill:#4d4d4d"
             id="tspan7165">the residents of the housing collectivly </tspan></tspan><tspan
           x="1299.0566"
           y="125.44533"
           id="tspan7171"><tspan
             style="font-weight:300;-inkscape-font-specification:'Cantarell Light';text-align:start;fill:#4d4d4d"
             id="tspan7169">own the housing together.
</tspan></tspan><tspan
           x="1299.0566"
           y="144.11203"
           id="tspan7175"><tspan
             style="font-weight:300;-inkscape-font-specification:'Cantarell Light';text-align:start;fill:#4d4d4d"
             id="tspan7173">
</tspan></tspan><tspan
           x="1299.0566"
           y="162.77873"
           id="tspan7179"><tspan
             style="font-weight:300;-inkscape-font-specification:'Cantarell Light';text-align:start;fill:#4d4d4d"
             id="tspan7177">Residents together take part in the </tspan></tspan><tspan
           x="1299.0566"
           y="181.44543"
           id="tspan7183"><tspan
             style="font-weight:300;-inkscape-font-specification:'Cantarell Light';text-align:start;fill:#4d4d4d"
             id="tspan7181">management and maintainance of all </tspan></tspan><tspan
           x="1299.0566"
           y="200.11213"
           id="tspan7187"><tspan
             style="font-weight:300;-inkscape-font-specification:'Cantarell Light';text-align:start;fill:#4d4d4d"
             id="tspan7185">dwellings, common areas and gardens. 
</tspan></tspan><tspan
           x="1299.0566"
           y="218.77884"
           id="tspan7191"><tspan
             style="font-weight:300;-inkscape-font-specification:'Cantarell Light';text-align:start;fill:#4d4d4d"
             id="tspan7189">
</tspan></tspan><tspan
           x="1299.0566"
           y="237.44554"
           id="tspan7199"><tspan
             style="font-weight:300;-inkscape-font-specification:'Cantarell Light';text-align:start;fill:#4d4d4d"
             id="tspan7193">Decisons are made </tspan><tspan
             style="font-weight:bold"
             id="tspan7195">democratically</tspan><tspan
             style="font-weight:300;-inkscape-font-specification:'Cantarell Light';text-align:start;fill:#4d4d4d"
             id="tspan7197"> by the </tspan></tspan><tspan
           x="1299.0566"
           y="256.11224"
           id="tspan7203"><tspan
             style="font-weight:300;-inkscape-font-specification:'Cantarell Light';text-align:start;fill:#4d4d4d"
             id="tspan7201">residents of the property together.</tspan></tspan></text></g><g
       id="g3003"
       inkscape:label="Traditonal Housing"><g
         id="g18804"
         inkscape:label="Landlord"
         transform="translate(18.964857,-8.6743995)"><path
           id="rect18605"
           style="fill:#4d4d4d;fill-opacity:1;stroke-width:3;stroke-linecap:round;paint-order:fill markers stroke"
           d="m 378.12214,94.316207 c -2.81212,0 -5.0861,2.219589 -5.17436,5.009513 h -0.003 v 0.168465 4.883425 h 10.35544 V 99.494185 99.32572 h -0.003 c -0.0882,-2.789931 -2.36275,-5.009513 -5.17488,-5.009513 z" /><circle
           style="fill:#ffffff;fill-opacity:1;stroke:none;stroke-width:4.16913;stroke-linecap:round;paint-order:fill markers stroke"
           id="path18618"
           cx="378.12213"
           cy="94.316208"
           r="1.0907739" /><circle
           style="fill:#4d4d4d;fill-opacity:1;stroke:none;stroke-width:2.55524;stroke-linecap:round;paint-order:fill markers stroke"
           id="path18603"
           cx="378.14304"
           cy="90.003067"
           r="4.3131433" /><rect
           style="fill:#ffffff;fill-opacity:1;stroke:none;stroke-width:3.16937;stroke-linecap:round;paint-order:fill markers stroke"
           id="rect18623"
           width="2.1815333"
           height="5.8638182"
           x="377.03165"
           y="95.563187"
           ry="1.0907667"
           rx="1.0907667" /></g><g
         id="g21191"
         transform="translate(8.3725223,-2.7270963)"><path
           id="rect19399"
           style="fill:#4d4d4d;fill-opacity:1;stroke:none;stroke-width:1.8144;stroke-linecap:round;paint-order:fill markers stroke"
           d="m 367.54984,107.40585 -8.31274,8.03982 v 22.47046 h 16.79313 v -22.47046 h -1.8e-4 z" /><g
           id="g18888"
           inkscape:label="Tenant"
           transform="translate(-10.488839,30.786639)"
           style="fill:#ffffff"><path
             id="path18880"
             style="fill:#ffffff;stroke-width:3;stroke-linecap:round;paint-order:fill markers stroke"
             d="m 378.12214,94.316207 c -2.81212,0 -5.0861,2.219589 -5.17436,5.009513 h -0.003 v 0.168465 4.883425 h 10.35544 V 99.494185 99.32572 h -0.003 c -0.0882,-2.789931 -2.36275,-5.009513 -5.17488,-5.009513 z" /><circle
             style="fill:#ffffff;fill-opacity:1;stroke:none;stroke-width:2.55524;stroke-linecap:round;paint-order:fill markers stroke"
             id="circle18884"
             cx="378.14304"
             cy="90.003067"
             r="4.3131433" /></g></g><g
         id="g21213"
         transform="translate(50.495175,-2.727039)"><path
           id="path21205"
           style="fill:#4d4d4d;fill-opacity:1;stroke:none;stroke-width:1.8144;stroke-linecap:round;paint-order:fill markers stroke"
           d="m 367.54984,107.40585 -8.31274,8.03982 v 22.47046 h 16.79313 v -22.47046 h -1.8e-4 z" /><g
           id="g21211"
           inkscape:label="Tenant"
           transform="translate(-10.488839,30.786639)"
           style="fill:#ffffff"><path
             id="path21207"
             style="fill:#ffffff;stroke-width:3;stroke-linecap:round;paint-order:fill markers stroke"
             d="m 378.12214,94.316207 c -2.81212,0 -5.0861,2.219589 -5.17436,5.009513 h -0.003 v 0.168465 4.883425 h 10.35544 V 99.494185 99.32572 h -0.003 c -0.0882,-2.789931 -2.36275,-5.009513 -5.17488,-5.009513 z" /><circle
             style="fill:#ffffff;fill-opacity:1;stroke:none;stroke-width:2.55524;stroke-linecap:round;paint-order:fill markers stroke"
             id="circle21209"
             cx="378.14304"
             cy="90.003067"
             r="4.3131433" /></g></g><g
         id="g21877"
         transform="translate(29.53039,-2.6328146)"><path
           id="path21867"
           style="fill:#4d4d4d;fill-opacity:1;stroke:none;stroke-width:1.8144;stroke-linecap:round;paint-order:fill markers stroke"
           d="m 367.54984,107.40585 -8.31274,8.03982 v 22.47046 h 16.79313 v -22.47046 h -1.8e-4 z" /><g
           id="g21875"
           inkscape:label="Tenant"
           transform="translate(-10.488839,30.786639)"
           style="fill:#ffffff"><path
             id="path21871"
             style="fill:#ffffff;stroke-width:3;stroke-linecap:round;paint-order:fill markers stroke"
             d="m 378.12214,94.316207 c -2.81212,0 -5.0861,2.219589 -5.17436,5.009513 h -0.003 v 0.168465 4.883425 h 10.35544 V 99.494185 99.32572 h -0.003 c -0.0882,-2.789931 -2.36275,-5.009513 -5.17488,-5.009513 z" /><circle
             style="fill:#ffffff;fill-opacity:1;stroke:none;stroke-width:2.55524;stroke-linecap:round;paint-order:fill markers stroke"
             id="circle21873"
             cx="378.14304"
             cy="90.003067"
             r="4.3131433" /></g></g><path
         id="path21855"
         style="color:#000000;fill:#cc6828;fill-rule:evenodd;-inkscape-stroke:none"
         d="m 394.12375,101.09921 2.44843,-0.0145 -0.005,1.99523 -21.16409,-0.0935 0.10956,9.57771 0.99994,-0.0114 -0.0977,-8.56279 c 6.73371,0.0565 13.48163,0.0214 20.20806,0.0939 l 0.0754,8.60286 0.96274,-0.006 -0.0749,-8.60131 20.14658,-0.0894 -0.0977,8.56279 0.99994,0.0114 0.10955,-9.57771 -21.16408,0.0935 -0.005,-2.00194 2.47634,-0.0145 c -0.9225,-1.92921 -2.97786,-5.360343 -2.97786,-5.360343 z"
         sodipodi:nodetypes="cccccccccccccccccccc"
         inkscape:label="path21855" /><text
         xml:space="preserve"
         style="font-style:normal;font-variant:normal;font-weight:300;font-stretch:normal;font-size:4.9389px;line-height:1;font-family:Cantarell;-inkscape-font-specification:'Cantarell Light';font-variant-ligatures:normal;font-variant-caps:normal;font-variant-numeric:normal;font-variant-east-asian:normal;text-align:start;text-anchor:start;fill:#4d4d4d;fill-opacity:1;stroke:none;stroke-width:3;stroke-linecap:round;paint-order:fill markers stroke"
         x="345.20184"
         y="83.373444"
         id="text18904"><tspan
           sodipodi:role="line"
           id="tspan18902"
           style="stroke-width:3"
           x="345.20184"
           y="83.373444">1 owner</tspan><tspan
           sodipodi:role="line"
           style="stroke-width:3"
           x="345.20184"
           y="88.312347"
           id="tspan18906">over many</tspan><tspan
           sodipodi:role="line"
           style="stroke-width:3"
           x="345.20184"
           y="93.251244"
           id="tspan18908">Tenants</tspan></text><text
         xml:space="preserve"
         style="font-style:normal;font-variant:normal;font-weight:normal;font-stretch:normal;font-size:4.9389px;line-height:1;font-family:Cantarell;-inkscape-font-specification:Cantarell;font-variant-ligatures:normal;font-variant-caps:normal;font-variant-numeric:normal;font-variant-east-asian:normal;text-align:start;text-anchor:start;fill:#4d4d4d;fill-opacity:1;stroke:none;stroke-width:3;stroke-linecap:round;paint-order:fill markers stroke"
         x="343.84207"
         y="75.894394"
         id="text18808"><tspan
           sodipodi:role="line"
           id="tspan18806"
           style="font-style:normal;font-variant:normal;font-weight:300;font-stretch:normal;font-family:Cantarell;-inkscape-font-specification:'Cantarell Light';fill:#4d4d4d;fill-opacity:1;stroke-width:3"
           x="343.84207"
           y="75.894394"><tspan
   style="font-weight:bold"
   id="tspan24308">Traditonal</tspan> Housing Ownership :</tspan></text></g><g
       id="g25035"
       transform="matrix(0.9722569,0,0,0.9722569,106.09837,0.35469143)"
       inkscape:label="Why Housing Coop"><text
         xml:space="preserve"
         style="font-style:normal;font-variant:normal;font-weight:bold;font-stretch:normal;font-size:7.76126px;line-height:1;font-family:Cantarell;-inkscape-font-specification:'Cantarell, Bold';font-variant-ligatures:normal;font-variant-caps:normal;font-variant-numeric:normal;font-variant-east-asian:normal;text-align:start;text-anchor:start;fill:#4d4d4d;fill-opacity:1;stroke:none;stroke-width:3;stroke-linecap:round;paint-order:fill markers stroke"
         x="343.50314"
         y="11.41468"
         id="text25029"><tspan
           sodipodi:role="line"
           style="font-style:normal;font-variant:normal;font-weight:normal;font-stretch:normal;font-family:Cantarell;-inkscape-font-specification:Cantarell;text-align:start;text-anchor:start;fill:#4d4d4d;fill-opacity:1;stroke-width:3"
           x="343.50314"
           y="11.41468"
           id="tspan25027">Why Housing                           </tspan></text><text
         xml:space="preserve"
         style="font-style:normal;font-variant:normal;font-weight:bold;font-stretch:normal;font-size:7.76126px;line-height:1;font-family:Cantarell;-inkscape-font-specification:'Cantarell, Bold';font-variant-ligatures:normal;font-variant-caps:normal;font-variant-numeric:normal;font-variant-east-asian:normal;text-align:start;text-anchor:start;display:inline;fill:#fcc215;fill-opacity:1;stroke:none;stroke-width:3;stroke-linecap:round;paint-order:fill markers stroke"
         x="390.8237"
         y="11.430202"
         id="text25033"><tspan
           sodipodi:role="line"
           style="text-align:start;text-anchor:start;fill:#fcc215;fill-opacity:1;stroke-width:3"
           x="390.8237"
           y="11.430202"
           id="tspan25031">Cooperatives? </tspan></text></g><g
       id="g25045"
       transform="matrix(0.9722569,0,0,0.9722569,204.4006,0.26155632)"
       inkscape:label="Housing Coop in WA"><text
         xml:space="preserve"
         style="font-style:normal;font-variant:normal;font-weight:bold;font-stretch:normal;font-size:7.76126px;line-height:1;font-family:Cantarell;-inkscape-font-specification:'Cantarell, Bold';font-variant-ligatures:normal;font-variant-caps:normal;font-variant-numeric:normal;font-variant-east-asian:normal;text-align:start;text-anchor:start;fill:#4d4d4d;fill-opacity:1;stroke:none;stroke-width:3;stroke-linecap:round;paint-order:fill markers stroke"
         x="343.98099"
         y="11.41468"
         id="text25039"><tspan
           sodipodi:role="line"
           style="font-style:normal;font-variant:normal;font-weight:normal;font-stretch:normal;font-family:Cantarell;-inkscape-font-specification:Cantarell;text-align:start;text-anchor:start;fill:#4d4d4d;fill-opacity:1;stroke-width:3"
           x="343.98099"
           y="11.41468"
           id="tspan25037">Housing                             in WA</tspan></text><text
         xml:space="preserve"
         style="font-style:normal;font-variant:normal;font-weight:bold;font-stretch:normal;font-size:7.76126px;line-height:1;font-family:Cantarell;-inkscape-font-specification:'Cantarell, Bold';font-variant-ligatures:normal;font-variant-caps:normal;font-variant-numeric:normal;font-variant-east-asian:normal;text-align:start;text-anchor:start;display:inline;fill:#fcc215;fill-opacity:1;stroke:none;stroke-width:3;stroke-linecap:round;paint-order:fill markers stroke"
         x="374.27838"
         y="11.430202"
         id="text25043"><tspan
           sodipodi:role="line"
           style="text-align:start;text-anchor:start;fill:#fcc215;fill-opacity:1;stroke-width:3"
           x="374.27838"
           y="11.430202"
           id="tspan25041">Cooperatives </tspan></text></g><text
       xml:space="preserve"
       style="font-style:normal;font-variant:normal;font-weight:300;font-stretch:normal;font-size:14.4427px;line-height:1;font-family:Cantarell;-inkscape-font-specification:'Cantarell Light';font-variant-ligatures:normal;font-variant-caps:normal;font-variant-numeric:normal;font-variant-east-asian:normal;text-align:start;text-anchor:start;fill:#4d4d4d;fill-opacity:1;stroke:none;stroke-width:2.92428;stroke-linecap:round;stroke-dasharray:none;stroke-opacity:1;paint-order:fill markers stroke"
       x="108.98014"
       y="86.873238"
       id="text25298"><tspan
         sodipodi:role="line"
         id="tspan25296"
         style="fill:#4d4d4d;fill-opacity:1;stroke:none;stroke-width:2.92428"
         x="108.98014"
         y="86.873238">Get Involved</tspan></text></g></svg>
