<svg version="1.1" xmlns="http://www.w3.org/2000/svg" width="220px" height="220px" viewBox="0 0 220 220" preserveAspectRatio="xMinYMin meet" xlink="http://www.w3.org/1999/xlink" svgjs="http://svgjs.com/svgjs"><rect width="100%" height="100%" fill="#d7d7db" cx="0" cy="0"></rect><path d="M11,11l6,0 0,6 -6,0 0,-6z M17,11l6,0 0,6 -6,0 0,-6z M23,11l6,0 0,6 -6,0 0,-6z M29,11l6,0 0,6 -6,0 0,-6z M35,11l6,0 0,6 -6,0 0,-6z M41,11l6,0 0,6 -6,0 0,-6z M47,11l6,0 0,6 -6,0 0,-6z M65,11l6,0 0,6 -6,0 0,-6z M77,11l6,0 0,6 -6,0 0,-6z M101,11l6,0 0,6 -6,0 0,-6z M107,11l6,0 0,6 -6,0 0,-6z M113,11l6,0 0,6 -6,0 0,-6z M137,11l6,0 0,6 -6,0 0,-6z M143,11l6,0 0,6 -6,0 0,-6z M155,11l6,0 0,6 -6,0 0,-6z M167,11l6,0 0,6 -6,0 0,-6z M173,11l6,0 0,6 -6,0 0,-6z M179,11l6,0 0,6 -6,0 0,-6z M185,11l6,0 0,6 -6,0 0,-6z M191,11l6,0 0,6 -6,0 0,-6z M197,11l6,0 0,6 -6,0 0,-6z M203,11l6,0 0,6 -6,0 0,-6z M11,17l6,0 0,6 -6,0 0,-6z M47,17l6,0 0,6 -6,0 0,-6z M65,17l6,0 0,6 -6,0 0,-6z M71,17l6,0 0,6 -6,0 0,-6z M77,17l6,0 0,6 -6,0 0,-6z M83,17l6,0 0,6 -6,0 0,-6z M131,17l6,0 0,6 -6,0 0,-6z M155,17l6,0 0,6 -6,0 0,-6z M167,17l6,0 0,6 -6,0 0,-6z M203,17l6,0 0,6 -6,0 0,-6z M11,23l6,0 0,6 -6,0 0,-6z M23,23l6,0 0,6 -6,0 0,-6z M29,23l6,0 0,6 -6,0 0,-6z M35,23l6,0 0,6 -6,0 0,-6z M47,23l6,0 0,6 -6,0 0,-6z M71,23l6,0 0,6 -6,0 0,-6z M77,23l6,0 0,6 -6,0 0,-6z M89,23l6,0 0,6 -6,0 0,-6z M107,23l6,0 0,6 -6,0 0,-6z M113,23l6,0 0,6 -6,0 0,-6z M125,23l6,0 0,6 -6,0 0,-6z M131,23l6,0 0,6 -6,0 0,-6z M137,23l6,0 0,6 -6,0 0,-6z M155,23l6,0 0,6 -6,0 0,-6z M167,23l6,0 0,6 -6,0 0,-6z M179,23l6,0 0,6 -6,0 0,-6z M185,23l6,0 0,6 -6,0 0,-6z M191,23l6,0 0,6 -6,0 0,-6z M203,23l6,0 0,6 -6,0 0,-6z M11,29l6,0 0,6 -6,0 0,-6z M23,29l6,0 0,6 -6,0 0,-6z M29,29l6,0 0,6 -6,0 0,-6z M35,29l6,0 0,6 -6,0 0,-6z M47,29l6,0 0,6 -6,0 0,-6z M59,29l6,0 0,6 -6,0 0,-6z M83,29l6,0 0,6 -6,0 0,-6z M95,29l6,0 0,6 -6,0 0,-6z M101,29l6,0 0,6 -6,0 0,-6z M167,29l6,0 0,6 -6,0 0,-6z M179,29l6,0 0,6 -6,0 0,-6z M185,29l6,0 0,6 -6,0 0,-6z M191,29l6,0 0,6 -6,0 0,-6z M203,29l6,0 0,6 -6,0 0,-6z M11,35l6,0 0,6 -6,0 0,-6z M23,35l6,0 0,6 -6,0 0,-6z M29,35l6,0 0,6 -6,0 0,-6z M35,35l6,0 0,6 -6,0 0,-6z M47,35l6,0 0,6 -6,0 0,-6z M65,35l6,0 0,6 -6,0 0,-6z M89,35l6,0 0,6 -6,0 0,-6z M95,35l6,0 0,6 -6,0 0,-6z M125,35l6,0 0,6 -6,0 0,-6z M149,35l6,0 0,6 -6,0 0,-6z M167,35l6,0 0,6 -6,0 0,-6z M179,35l6,0 0,6 -6,0 0,-6z M185,35l6,0 0,6 -6,0 0,-6z M191,35l6,0 0,6 -6,0 0,-6z M203,35l6,0 0,6 -6,0 0,-6z M11,41l6,0 0,6 -6,0 0,-6z M47,41l6,0 0,6 -6,0 0,-6z M59,41l6,0 0,6 -6,0 0,-6z M71,41l6,0 0,6 -6,0 0,-6z M77,41l6,0 0,6 -6,0 0,-6z M89,41l6,0 0,6 -6,0 0,-6z M101,41l6,0 0,6 -6,0 0,-6z M125,41l6,0 0,6 -6,0 0,-6z M137,41l6,0 0,6 -6,0 0,-6z M143,41l6,0 0,6 -6,0 0,-6z M149,41l6,0 0,6 -6,0 0,-6z M167,41l6,0 0,6 -6,0 0,-6z M203,41l6,0 0,6 -6,0 0,-6z M11,47l6,0 0,6 -6,0 0,-6z M17,47l6,0 0,6 -6,0 0,-6z M23,47l6,0 0,6 -6,0 0,-6z M29,47l6,0 0,6 -6,0 0,-6z M35,47l6,0 0,6 -6,0 0,-6z M41,47l6,0 0,6 -6,0 0,-6z M47,47l6,0 0,6 -6,0 0,-6z M59,47l6,0 0,6 -6,0 0,-6z M71,47l6,0 0,6 -6,0 0,-6z M83,47l6,0 0,6 -6,0 0,-6z M95,47l6,0 0,6 -6,0 0,-6z M107,47l6,0 0,6 -6,0 0,-6z M119,47l6,0 0,6 -6,0 0,-6z M131,47l6,0 0,6 -6,0 0,-6z M143,47l6,0 0,6 -6,0 0,-6z M155,47l6,0 0,6 -6,0 0,-6z M167,47l6,0 0,6 -6,0 0,-6z M173,47l6,0 0,6 -6,0 0,-6z M179,47l6,0 0,6 -6,0 0,-6z M185,47l6,0 0,6 -6,0 0,-6z M191,47l6,0 0,6 -6,0 0,-6z M197,47l6,0 0,6 -6,0 0,-6z M203,47l6,0 0,6 -6,0 0,-6z M59,53l6,0 0,6 -6,0 0,-6z M83,53l6,0 0,6 -6,0 0,-6z M95,53l6,0 0,6 -6,0 0,-6z M125,53l6,0 0,6 -6,0 0,-6z M131,53l6,0 0,6 -6,0 0,-6z M149,53l6,0 0,6 -6,0 0,-6z M155,53l6,0 0,6 -6,0 0,-6z M17,59l6,0 0,6 -6,0 0,-6z M23,59l6,0 0,6 -6,0 0,-6z M47,59l6,0 0,6 -6,0 0,-6z M65,59l6,0 0,6 -6,0 0,-6z M71,59l6,0 0,6 -6,0 0,-6z M77,59l6,0 0,6 -6,0 0,-6z M89,59l6,0 0,6 -6,0 0,-6z M95,59l6,0 0,6 -6,0 0,-6z M101,59l6,0 0,6 -6,0 0,-6z M107,59l6,0 0,6 -6,0 0,-6z M113,59l6,0 0,6 -6,0 0,-6z M167,59l6,0 0,6 -6,0 0,-6z M173,59l6,0 0,6 -6,0 0,-6z M185,59l6,0 0,6 -6,0 0,-6z M17,65l6,0 0,6 -6,0 0,-6z M23,65l6,0 0,6 -6,0 0,-6z M35,65l6,0 0,6 -6,0 0,-6z M41,65l6,0 0,6 -6,0 0,-6z M53,65l6,0 0,6 -6,0 0,-6z M71,65l6,0 0,6 -6,0 0,-6z M83,65l6,0 0,6 -6,0 0,-6z M113,65l6,0 0,6 -6,0 0,-6z M125,65l6,0 0,6 -6,0 0,-6z M137,65l6,0 0,6 -6,0 0,-6z M149,65l6,0 0,6 -6,0 0,-6z M155,65l6,0 0,6 -6,0 0,-6z M167,65l6,0 0,6 -6,0 0,-6z M185,65l6,0 0,6 -6,0 0,-6z M197,65l6,0 0,6 -6,0 0,-6z M11,71l6,0 0,6 -6,0 0,-6z M17,71l6,0 0,6 -6,0 0,-6z M29,71l6,0 0,6 -6,0 0,-6z M35,71l6,0 0,6 -6,0 0,-6z M47,71l6,0 0,6 -6,0 0,-6z M53,71l6,0 0,6 -6,0 0,-6z M59,71l6,0 0,6 -6,0 0,-6z M65,71l6,0 0,6 -6,0 0,-6z M71,71l6,0 0,6 -6,0 0,-6z M83,71l6,0 0,6 -6,0 0,-6z M89,71l6,0 0,6 -6,0 0,-6z M95,71l6,0 0,6 -6,0 0,-6z M125,71l6,0 0,6 -6,0 0,-6z M149,71l6,0 0,6 -6,0 0,-6z M161,71l6,0 0,6 -6,0 0,-6z M167,71l6,0 0,6 -6,0 0,-6z M185,71l6,0 0,6 -6,0 0,-6z M191,71l6,0 0,6 -6,0 0,-6z M203,71l6,0 0,6 -6,0 0,-6z M29,77l6,0 0,6 -6,0 0,-6z M41,77l6,0 0,6 -6,0 0,-6z M53,77l6,0 0,6 -6,0 0,-6z M59,77l6,0 0,6 -6,0 0,-6z M65,77l6,0 0,6 -6,0 0,-6z M71,77l6,0 0,6 -6,0 0,-6z M95,77l6,0 0,6 -6,0 0,-6z M101,77l6,0 0,6 -6,0 0,-6z M107,77l6,0 0,6 -6,0 0,-6z M113,77l6,0 0,6 -6,0 0,-6z M137,77l6,0 0,6 -6,0 0,-6z M155,77l6,0 0,6 -6,0 0,-6z M173,77l6,0 0,6 -6,0 0,-6z M179,77l6,0 0,6 -6,0 0,-6z M185,77l6,0 0,6 -6,0 0,-6z M197,77l6,0 0,6 -6,0 0,-6z M11,83l6,0 0,6 -6,0 0,-6z M23,83l6,0 0,6 -6,0 0,-6z M35,83l6,0 0,6 -6,0 0,-6z M41,83l6,0 0,6 -6,0 0,-6z M47,83l6,0 0,6 -6,0 0,-6z M59,83l6,0 0,6 -6,0 0,-6z M65,83l6,0 0,6 -6,0 0,-6z M83,83l6,0 0,6 -6,0 0,-6z M89,83l6,0 0,6 -6,0 0,-6z M113,83l6,0 0,6 -6,0 0,-6z M125,83l6,0 0,6 -6,0 0,-6z M137,83l6,0 0,6 -6,0 0,-6z M155,83l6,0 0,6 -6,0 0,-6z M167,83l6,0 0,6 -6,0 0,-6z M179,83l6,0 0,6 -6,0 0,-6z M203,83l6,0 0,6 -6,0 0,-6z M17,89l6,0 0,6 -6,0 0,-6z M23,89l6,0 0,6 -6,0 0,-6z M89,89l6,0 0,6 -6,0 0,-6z M95,89l6,0 0,6 -6,0 0,-6z M107,89l6,0 0,6 -6,0 0,-6z M173,89l6,0 0,6 -6,0 0,-6z M197,89l6,0 0,6 -6,0 0,-6z M203,89l6,0 0,6 -6,0 0,-6z M17,95l6,0 0,6 -6,0 0,-6z M29,95l6,0 0,6 -6,0 0,-6z M35,95l6,0 0,6 -6,0 0,-6z M47,95l6,0 0,6 -6,0 0,-6z M83,95l6,0 0,6 -6,0 0,-6z M101,95l6,0 0,6 -6,0 0,-6z M113,95l6,0 0,6 -6,0 0,-6z M125,95l6,0 0,6 -6,0 0,-6z M149,95l6,0 0,6 -6,0 0,-6z M173,95l6,0 0,6 -6,0 0,-6z M191,95l6,0 0,6 -6,0 0,-6z M203,95l6,0 0,6 -6,0 0,-6z M17,101l6,0 0,6 -6,0 0,-6z M23,101l6,0 0,6 -6,0 0,-6z M35,101l6,0 0,6 -6,0 0,-6z M53,101l6,0 0,6 -6,0 0,-6z M65,101l6,0 0,6 -6,0 0,-6z M71,101l6,0 0,6 -6,0 0,-6z M77,101l6,0 0,6 -6,0 0,-6z M101,101l6,0 0,6 -6,0 0,-6z M143,101l6,0 0,6 -6,0 0,-6z M161,101l6,0 0,6 -6,0 0,-6z M167,101l6,0 0,6 -6,0 0,-6z M173,101l6,0 0,6 -6,0 0,-6z M185,101l6,0 0,6 -6,0 0,-6z M41,107l6,0 0,6 -6,0 0,-6z M47,107l6,0 0,6 -6,0 0,-6z M53,107l6,0 0,6 -6,0 0,-6z M71,107l6,0 0,6 -6,0 0,-6z M107,107l6,0 0,6 -6,0 0,-6z M113,107l6,0 0,6 -6,0 0,-6z M125,107l6,0 0,6 -6,0 0,-6z M155,107l6,0 0,6 -6,0 0,-6z M167,107l6,0 0,6 -6,0 0,-6z M173,107l6,0 0,6 -6,0 0,-6z M185,107l6,0 0,6 -6,0 0,-6z M197,107l6,0 0,6 -6,0 0,-6z M11,113l6,0 0,6 -6,0 0,-6z M17,113l6,0 0,6 -6,0 0,-6z M23,113l6,0 0,6 -6,0 0,-6z M35,113l6,0 0,6 -6,0 0,-6z M53,113l6,0 0,6 -6,0 0,-6z M71,113l6,0 0,6 -6,0 0,-6z M83,113l6,0 0,6 -6,0 0,-6z M95,113l6,0 0,6 -6,0 0,-6z M125,113l6,0 0,6 -6,0 0,-6z M149,113l6,0 0,6 -6,0 0,-6z M155,113l6,0 0,6 -6,0 0,-6z M167,113l6,0 0,6 -6,0 0,-6z M185,113l6,0 0,6 -6,0 0,-6z M197,113l6,0 0,6 -6,0 0,-6z M203,113l6,0 0,6 -6,0 0,-6z M17,119l6,0 0,6 -6,0 0,-6z M29,119l6,0 0,6 -6,0 0,-6z M35,119l6,0 0,6 -6,0 0,-6z M41,119l6,0 0,6 -6,0 0,-6z M47,119l6,0 0,6 -6,0 0,-6z M53,119l6,0 0,6 -6,0 0,-6z M59,119l6,0 0,6 -6,0 0,-6z M65,119l6,0 0,6 -6,0 0,-6z M71,119l6,0 0,6 -6,0 0,-6z M83,119l6,0 0,6 -6,0 0,-6z M101,119l6,0 0,6 -6,0 0,-6z M119,119l6,0 0,6 -6,0 0,-6z M125,119l6,0 0,6 -6,0 0,-6z M137,119l6,0 0,6 -6,0 0,-6z M143,119l6,0 0,6 -6,0 0,-6z M149,119l6,0 0,6 -6,0 0,-6z M155,119l6,0 0,6 -6,0 0,-6z M161,119l6,0 0,6 -6,0 0,-6z M173,119l6,0 0,6 -6,0 0,-6z M185,119l6,0 0,6 -6,0 0,-6z M191,119l6,0 0,6 -6,0 0,-6z M197,119l6,0 0,6 -6,0 0,-6z M203,119l6,0 0,6 -6,0 0,-6z M11,125l6,0 0,6 -6,0 0,-6z M17,125l6,0 0,6 -6,0 0,-6z M23,125l6,0 0,6 -6,0 0,-6z M29,125l6,0 0,6 -6,0 0,-6z M53,125l6,0 0,6 -6,0 0,-6z M65,125l6,0 0,6 -6,0 0,-6z M89,125l6,0 0,6 -6,0 0,-6z M107,125l6,0 0,6 -6,0 0,-6z M119,125l6,0 0,6 -6,0 0,-6z M143,125l6,0 0,6 -6,0 0,-6z M149,125l6,0 0,6 -6,0 0,-6z M179,125l6,0 0,6 -6,0 0,-6z M185,125l6,0 0,6 -6,0 0,-6z M11,131l6,0 0,6 -6,0 0,-6z M17,131l6,0 0,6 -6,0 0,-6z M23,131l6,0 0,6 -6,0 0,-6z M29,131l6,0 0,6 -6,0 0,-6z M35,131l6,0 0,6 -6,0 0,-6z M47,131l6,0 0,6 -6,0 0,-6z M77,131l6,0 0,6 -6,0 0,-6z M101,131l6,0 0,6 -6,0 0,-6z M113,131l6,0 0,6 -6,0 0,-6z M131,131l6,0 0,6 -6,0 0,-6z M137,131l6,0 0,6 -6,0 0,-6z M143,131l6,0 0,6 -6,0 0,-6z M149,131l6,0 0,6 -6,0 0,-6z M167,131l6,0 0,6 -6,0 0,-6z M203,131l6,0 0,6 -6,0 0,-6z M17,137l6,0 0,6 -6,0 0,-6z M29,137l6,0 0,6 -6,0 0,-6z M71,137l6,0 0,6 -6,0 0,-6z M77,137l6,0 0,6 -6,0 0,-6z M83,137l6,0 0,6 -6,0 0,-6z M101,137l6,0 0,6 -6,0 0,-6z M107,137l6,0 0,6 -6,0 0,-6z M113,137l6,0 0,6 -6,0 0,-6z M131,137l6,0 0,6 -6,0 0,-6z M137,137l6,0 0,6 -6,0 0,-6z M143,137l6,0 0,6 -6,0 0,-6z M149,137l6,0 0,6 -6,0 0,-6z M167,137l6,0 0,6 -6,0 0,-6z M173,137l6,0 0,6 -6,0 0,-6z M185,137l6,0 0,6 -6,0 0,-6z M191,137l6,0 0,6 -6,0 0,-6z M203,137l6,0 0,6 -6,0 0,-6z M11,143l6,0 0,6 -6,0 0,-6z M17,143l6,0 0,6 -6,0 0,-6z M23,143l6,0 0,6 -6,0 0,-6z M29,143l6,0 0,6 -6,0 0,-6z M41,143l6,0 0,6 -6,0 0,-6z M47,143l6,0 0,6 -6,0 0,-6z M53,143l6,0 0,6 -6,0 0,-6z M59,143l6,0 0,6 -6,0 0,-6z M77,143l6,0 0,6 -6,0 0,-6z M101,143l6,0 0,6 -6,0 0,-6z M119,143l6,0 0,6 -6,0 0,-6z M131,143l6,0 0,6 -6,0 0,-6z M137,143l6,0 0,6 -6,0 0,-6z M149,143l6,0 0,6 -6,0 0,-6z M167,143l6,0 0,6 -6,0 0,-6z M179,143l6,0 0,6 -6,0 0,-6z M191,143l6,0 0,6 -6,0 0,-6z M203,143l6,0 0,6 -6,0 0,-6z M53,149l6,0 0,6 -6,0 0,-6z M71,149l6,0 0,6 -6,0 0,-6z M77,149l6,0 0,6 -6,0 0,-6z M89,149l6,0 0,6 -6,0 0,-6z M95,149l6,0 0,6 -6,0 0,-6z M107,149l6,0 0,6 -6,0 0,-6z M113,149l6,0 0,6 -6,0 0,-6z M125,149l6,0 0,6 -6,0 0,-6z M131,149l6,0 0,6 -6,0 0,-6z M149,149l6,0 0,6 -6,0 0,-6z M167,149l6,0 0,6 -6,0 0,-6z M173,149l6,0 0,6 -6,0 0,-6z M185,149l6,0 0,6 -6,0 0,-6z M197,149l6,0 0,6 -6,0 0,-6z M203,149l6,0 0,6 -6,0 0,-6z M11,155l6,0 0,6 -6,0 0,-6z M17,155l6,0 0,6 -6,0 0,-6z M35,155l6,0 0,6 -6,0 0,-6z M47,155l6,0 0,6 -6,0 0,-6z M59,155l6,0 0,6 -6,0 0,-6z M71,155l6,0 0,6 -6,0 0,-6z M77,155l6,0 0,6 -6,0 0,-6z M83,155l6,0 0,6 -6,0 0,-6z M107,155l6,0 0,6 -6,0 0,-6z M131,155l6,0 0,6 -6,0 0,-6z M149,155l6,0 0,6 -6,0 0,-6z M155,155l6,0 0,6 -6,0 0,-6z M161,155l6,0 0,6 -6,0 0,-6z M167,155l6,0 0,6 -6,0 0,-6z M173,155l6,0 0,6 -6,0 0,-6z M179,155l6,0 0,6 -6,0 0,-6z M185,155l6,0 0,6 -6,0 0,-6z M191,155l6,0 0,6 -6,0 0,-6z M197,155l6,0 0,6 -6,0 0,-6z M203,155l6,0 0,6 -6,0 0,-6z M59,161l6,0 0,6 -6,0 0,-6z M65,161l6,0 0,6 -6,0 0,-6z M77,161l6,0 0,6 -6,0 0,-6z M89,161l6,0 0,6 -6,0 0,-6z M119,161l6,0 0,6 -6,0 0,-6z M125,161l6,0 0,6 -6,0 0,-6z M131,161l6,0 0,6 -6,0 0,-6z M137,161l6,0 0,6 -6,0 0,-6z M149,161l6,0 0,6 -6,0 0,-6z M155,161l6,0 0,6 -6,0 0,-6z M179,161l6,0 0,6 -6,0 0,-6z M197,161l6,0 0,6 -6,0 0,-6z M203,161l6,0 0,6 -6,0 0,-6z M11,167l6,0 0,6 -6,0 0,-6z M17,167l6,0 0,6 -6,0 0,-6z M23,167l6,0 0,6 -6,0 0,-6z M29,167l6,0 0,6 -6,0 0,-6z M35,167l6,0 0,6 -6,0 0,-6z M41,167l6,0 0,6 -6,0 0,-6z M47,167l6,0 0,6 -6,0 0,-6z M65,167l6,0 0,6 -6,0 0,-6z M71,167l6,0 0,6 -6,0 0,-6z M77,167l6,0 0,6 -6,0 0,-6z M89,167l6,0 0,6 -6,0 0,-6z M95,167l6,0 0,6 -6,0 0,-6z M101,167l6,0 0,6 -6,0 0,-6z M107,167l6,0 0,6 -6,0 0,-6z M113,167l6,0 0,6 -6,0 0,-6z M125,167l6,0 0,6 -6,0 0,-6z M155,167l6,0 0,6 -6,0 0,-6z M167,167l6,0 0,6 -6,0 0,-6z M179,167l6,0 0,6 -6,0 0,-6z M185,167l6,0 0,6 -6,0 0,-6z M191,167l6,0 0,6 -6,0 0,-6z M197,167l6,0 0,6 -6,0 0,-6z M203,167l6,0 0,6 -6,0 0,-6z M11,173l6,0 0,6 -6,0 0,-6z M47,173l6,0 0,6 -6,0 0,-6z M77,173l6,0 0,6 -6,0 0,-6z M83,173l6,0 0,6 -6,0 0,-6z M95,173l6,0 0,6 -6,0 0,-6z M119,173l6,0 0,6 -6,0 0,-6z M125,173l6,0 0,6 -6,0 0,-6z M131,173l6,0 0,6 -6,0 0,-6z M137,173l6,0 0,6 -6,0 0,-6z M149,173l6,0 0,6 -6,0 0,-6z M155,173l6,0 0,6 -6,0 0,-6z M179,173l6,0 0,6 -6,0 0,-6z M185,173l6,0 0,6 -6,0 0,-6z M11,179l6,0 0,6 -6,0 0,-6z M23,179l6,0 0,6 -6,0 0,-6z M29,179l6,0 0,6 -6,0 0,-6z M35,179l6,0 0,6 -6,0 0,-6z M47,179l6,0 0,6 -6,0 0,-6z M83,179l6,0 0,6 -6,0 0,-6z M113,179l6,0 0,6 -6,0 0,-6z M119,179l6,0 0,6 -6,0 0,-6z M137,179l6,0 0,6 -6,0 0,-6z M149,179l6,0 0,6 -6,0 0,-6z M155,179l6,0 0,6 -6,0 0,-6z M161,179l6,0 0,6 -6,0 0,-6z M167,179l6,0 0,6 -6,0 0,-6z M173,179l6,0 0,6 -6,0 0,-6z M179,179l6,0 0,6 -6,0 0,-6z M203,179l6,0 0,6 -6,0 0,-6z M11,185l6,0 0,6 -6,0 0,-6z M23,185l6,0 0,6 -6,0 0,-6z M29,185l6,0 0,6 -6,0 0,-6z M35,185l6,0 0,6 -6,0 0,-6z M47,185l6,0 0,6 -6,0 0,-6z M77,185l6,0 0,6 -6,0 0,-6z M89,185l6,0 0,6 -6,0 0,-6z M113,185l6,0 0,6 -6,0 0,-6z M119,185l6,0 0,6 -6,0 0,-6z M149,185l6,0 0,6 -6,0 0,-6z M155,185l6,0 0,6 -6,0 0,-6z M161,185l6,0 0,6 -6,0 0,-6z M173,185l6,0 0,6 -6,0 0,-6z M179,185l6,0 0,6 -6,0 0,-6z M185,185l6,0 0,6 -6,0 0,-6z M203,185l6,0 0,6 -6,0 0,-6z M11,191l6,0 0,6 -6,0 0,-6z M23,191l6,0 0,6 -6,0 0,-6z M29,191l6,0 0,6 -6,0 0,-6z M35,191l6,0 0,6 -6,0 0,-6z M47,191l6,0 0,6 -6,0 0,-6z M59,191l6,0 0,6 -6,0 0,-6z M65,191l6,0 0,6 -6,0 0,-6z M83,191l6,0 0,6 -6,0 0,-6z M107,191l6,0 0,6 -6,0 0,-6z M125,191l6,0 0,6 -6,0 0,-6z M137,191l6,0 0,6 -6,0 0,-6z M161,191l6,0 0,6 -6,0 0,-6z M173,191l6,0 0,6 -6,0 0,-6z M179,191l6,0 0,6 -6,0 0,-6z M185,191l6,0 0,6 -6,0 0,-6z M191,191l6,0 0,6 -6,0 0,-6z M197,191l6,0 0,6 -6,0 0,-6z M203,191l6,0 0,6 -6,0 0,-6z M11,197l6,0 0,6 -6,0 0,-6z M47,197l6,0 0,6 -6,0 0,-6z M59,197l6,0 0,6 -6,0 0,-6z M65,197l6,0 0,6 -6,0 0,-6z M83,197l6,0 0,6 -6,0 0,-6z M89,197l6,0 0,6 -6,0 0,-6z M101,197l6,0 0,6 -6,0 0,-6z M143,197l6,0 0,6 -6,0 0,-6z M149,197l6,0 0,6 -6,0 0,-6z M155,197l6,0 0,6 -6,0 0,-6z M173,197l6,0 0,6 -6,0 0,-6z M179,197l6,0 0,6 -6,0 0,-6z M185,197l6,0 0,6 -6,0 0,-6z M11,203l6,0 0,6 -6,0 0,-6z M17,203l6,0 0,6 -6,0 0,-6z M23,203l6,0 0,6 -6,0 0,-6z M29,203l6,0 0,6 -6,0 0,-6z M35,203l6,0 0,6 -6,0 0,-6z M41,203l6,0 0,6 -6,0 0,-6z M47,203l6,0 0,6 -6,0 0,-6z M71,203l6,0 0,6 -6,0 0,-6z M77,203l6,0 0,6 -6,0 0,-6z M83,203l6,0 0,6 -6,0 0,-6z M89,203l6,0 0,6 -6,0 0,-6z M95,203l6,0 0,6 -6,0 0,-6z M107,203l6,0 0,6 -6,0 0,-6z M113,203l6,0 0,6 -6,0 0,-6z M125,203l6,0 0,6 -6,0 0,-6z M131,203l6,0 0,6 -6,0 0,-6z M143,203l6,0 0,6 -6,0 0,-6z M149,203l6,0 0,6 -6,0 0,-6z M155,203l6,0 0,6 -6,0 0,-6z M173,203l6,0 0,6 -6,0 0,-6z M179,203l6,0 0,6 -6,0 0,-6z M203,203l6,0 0,6 -6,0 0,-6z " stroke="transparent" fill="#0c0c0d"></path></svg>
