<?xml version="1.0" encoding="UTF-8" standalone="no"?>
<!-- Created with Inkscape (http://www.inkscape.org/) -->

<svg
   width="191.5322mm"
   height="212.71671mm"
   viewBox="0 0 191.5322 212.71671"
   version="1.1"
   id="svg1"
   xml:space="preserve"
   inkscape:version="1.4 (e7c3feb100, 2024-10-09)"
   sodipodi:docname="Plant2.svg"
   xmlns:inkscape="http://www.inkscape.org/namespaces/inkscape"
   xmlns:sodipodi="http://sodipodi.sourceforge.net/DTD/sodipodi-0.dtd"
   xmlns="http://www.w3.org/2000/svg"
   xmlns:svg="http://www.w3.org/2000/svg"><sodipodi:namedview
     id="namedview1"
     pagecolor="#505050"
     bordercolor="#eeeeee"
     borderopacity="1"
     inkscape:showpageshadow="0"
     inkscape:pageopacity="0"
     inkscape:pagecheckerboard="0"
     inkscape:deskcolor="#505050"
     inkscape:document-units="mm"
     inkscape:zoom="1.672131"
     inkscape:cx="166.55394"
     inkscape:cy="454.80886"
     inkscape:window-width="3840"
     inkscape:window-height="2086"
     inkscape:window-x="0"
     inkscape:window-y="0"
     inkscape:window-maximized="1"
     inkscape:current-layer="g1" /><defs
     id="defs1" /><g
     inkscape:label="Layer 1"
     inkscape:groupmode="layer"
     id="layer1"
     transform="translate(-60.982837,-28.223374)"><g
       id="g1"
       transform="translate(45.095898,36.551412)"><path
         style="fill:#aed595;stroke-width:4.44644"
         d="m 77.393492,202.68193 c -0.389508,-1.01539 -0.378392,-2.17631 0.02668,-2.57973 0.403292,-0.4033 0.733574,0.14895 0.733574,1.22717 0,2.31846 34.557694,3.04928 35.695574,0.75487 0.32904,-0.66318 0.4619,-0.53086 0.29569,0.29436 -0.49915,2.47471 -35.804647,2.76635 -36.749738,0.30369 z M 73.539229,179.0748 c 0.05647,-1.37052 0.335261,-1.64927 0.710808,-0.71081 0.339708,0.84927 0.297911,1.86395 -0.09293,2.25488 -0.390842,0.39084 -0.668967,-0.30369 -0.617922,-1.54407 z m -23.164866,-5.40825 c -1.080832,-1.74883 -1.361629,-32.90246 -0.310895,-34.49317 0.427392,-0.64705 0.989564,-2.23527 1.249259,-3.52936 0.446004,-2.22247 0.557343,-2.19832 2.008652,0.43619 0.84506,1.53394 1.018711,2.46898 0.385907,2.07787 -6.191953,-3.82683 -1.641235,10.02605 5.480874,16.68442 l 5.434799,5.0809 -5.282215,-3.90446 c -2.905238,-2.14745 -5.962948,-4.6986 -6.794913,-5.66917 -1.244656,-1.45203 -1.455182,0.58053 -1.188249,11.47191 0.178436,7.28007 0.223301,13.2359 0.09973,13.2351 -0.123567,-8e-4 -0.610892,-0.62637 -1.082926,-1.39014 z m 14.929702,-0.47403 c 0.05647,-1.37053 0.335262,-1.64928 0.710764,-0.71077 0.339708,0.84923 0.297911,1.86395 -0.09293,2.25484 -0.390842,0.39084 -0.669011,-0.30369 -0.617922,-1.54407 z m -24.798408,-9.47497 c 0,-0.62797 1.985269,-2.96617 4.411705,-5.19602 l 4.411701,-4.05426 -4.117586,4.69286 c -2.264675,2.58107 -4.249939,4.91927 -4.411705,5.19602 -0.161762,0.27657 -0.294132,-0.009 -0.294132,-0.6386 z m 45.293475,-15.71692 c 0,-3.88081 0.397067,-7.05748 0.882352,-7.05926 0.485284,-0.002 0.882352,3.17312 0.882352,7.05544 0,3.88227 -0.397068,7.05894 -0.882352,7.05925 -0.485285,3.2e-4 -0.882352,-3.17467 -0.882352,-7.05543 z m 4.454089,1.76084 c 0.0089,-3.23523 0.23744,-4.41914 0.507694,-2.63083 0.270344,1.78827 0.263229,4.43528 -0.01779,5.88224 -0.279236,1.44696 -0.500491,-0.0178 -0.491643,-3.25141 z m 60.931979,3.43131 c 0.0565,-1.37048 0.33526,-1.64927 0.7108,-0.71076 0.33971,0.84927 0.29792,1.86395 -0.0929,2.25488 -0.39084,0.39084 -0.66896,-0.30369 -0.61792,-1.54412 z m 6.37766,-4.01953 c 1.1711,-1.2941 2.39405,-2.35293 2.71757,-2.35293 0.3237,0 -0.36994,1.05883 -1.54113,2.35293 -1.17115,1.29409 -2.39405,2.35292 -2.71758,2.35292 -0.3237,0 0.36995,-1.05883 1.54114,-2.35292 z m -122.351246,0 c 0.399913,-0.64705 1.256493,-1.17644 1.903544,-1.17644 0.64705,0 0.849265,0.52939 0.449366,1.17644 -0.399913,0.64704 -1.256493,1.17643 -1.903544,1.17643 -0.647046,0 -0.849261,-0.52939 -0.449366,-1.17643 z m 4.117591,-2.22589 c 0,-0.58911 1.852916,-2.16431 4.117591,-3.50051 5.347778,-3.15528 5.335577,-1.55194 -0.01467,1.91375 -2.256666,1.46181 -4.103028,2.17582 -4.103028,1.58676 z m 24.705535,-2.47992 c -1.060343,-0.68524 -1.20543,-1.14762 -0.363719,-1.15847 0.770613,-0.009 1.728331,0.51138 2.128244,1.15847 0.902672,1.46057 0.495423,1.46057 -1.764703,0 z m 73.82247,-0.77915 c 0.80885,-0.32636 2.13234,-0.32636 2.94115,0 0.8088,0.32637 0.14717,0.59338 -1.47058,0.59338 -1.61761,0 -2.27937,-0.26678 -1.47057,-0.59338 z m -81.469423,-2.75021 c -0.399913,-0.64709 -0.16643,-1.17648 0.518797,-1.17648 0.685237,0 1.245884,0.52939 1.245884,1.17648 0,0.64705 -0.233438,1.17644 -0.518793,1.17644 -0.285328,0 -0.845988,-0.52939 -1.245888,-1.17644 z m 72.201843,-0.88235 c -1.46332,-1.86595 -1.4217,-1.90752 0.4442,-0.4442 1.13233,0.88804 2.05879,1.8145 2.05879,2.05879 0,0.9683 -0.96608,0.34505 -2.50299,-1.61459 z m 54.26698,-0.66225 c 0,-0.20232 1.72055,-1.92304 3.82345,-3.82345 l 3.8235,-3.45538 -3.45538,3.8235 c -3.22086,3.564 -4.19157,4.36422 -4.19157,3.45533 z m -30.23526,-6.69061 c 0,-3.55875 0.22054,-5.0146 0.49009,-3.23523 0.26945,1.77938 0.26945,4.69109 0,6.47051 -0.26946,1.77938 -0.49009,0.3237 -0.49009,-3.23528 z m 18.70004,1.76471 c 0.0222,-1.94119 0.28769,-2.59286 0.58595,-1.44821 0.29836,1.14465 0.27879,2.73287 -0.0445,3.52936 -0.32237,0.79654 -0.5663,-0.14006 -0.54233,-2.08115 z m -102.264351,0.9494 c 1.144691,-0.29835 2.732871,-0.27879 3.529362,0.0445 0.796535,0.32236 -0.140063,0.56629 -2.081157,0.54233 -1.941138,-0.0222 -2.592852,-0.28769 -1.448205,-0.58591 z m -42.66883,-0.84976 c 0,-1.0273 7.222207,-4.4459 7.919444,-3.74866 0.353136,0.35305 -0.831151,1.20214 -2.631737,1.88672 -1.800586,0.68461 -3.726922,1.52477 -4.280748,1.86706 -0.553827,0.34237 -1.006959,0.34015 -1.006959,-0.004 z m 64.79783,-1.37413 c 0.05647,-1.37052 0.335262,-1.64927 0.710808,-0.7108 0.339708,0.84927 0.297912,1.86394 -0.09293,2.25488 -0.390842,0.39084 -0.668967,-0.30414 -0.617922,-1.54408 z m -55.386196,-2.82068 c 0,-0.65941 0.727931,-1.1989 1.617624,-1.1989 0.889692,0 3.404364,-0.27879 5.588157,-0.61961 2.90136,-0.45278 3.336951,-0.34149 1.617624,0.41352 -4.397667,1.93051 -8.823405,2.63536 -8.823405,1.40521 z m 15.748861,-0.6876 c 0.554484,-1.44496 0.138151,-1.68245 -1.932926,-1.10272 l -2.63962,0.73891 2.632208,-2.13251 c 3.661577,-2.96653 5.242491,-13.38939 1.929688,-12.72238 -5.404577,1.08822 -15.019902,1.52291 -12.797078,0.57853 1.294101,-0.54981 4.29488,-1.03687 6.668394,-1.08231 6.533119,-0.12539 8.026185,-1.08142 8.132833,-5.20852 l 0.09555,-3.6976 1.375017,3.06398 c 2.638696,5.87984 4.279006,6.9252 11.224821,7.15353 l 6.620572,0.21743 -6.141156,0.43086 c -3.377606,0.23699 -7.157565,-0.11294 -8.399882,-0.778 -2.035821,-1.08955 -2.338806,-0.67505 -3.069756,4.19927 -1.024269,6.83031 -0.204047,7.61839 9.019515,8.66598 l 7.414796,0.84215 -5.882241,0.15385 c -3.235274,0.0845 -7.338147,-0.60574 -9.117537,-1.53393 -3.106644,-1.6206 -3.235248,-1.57356 -3.235248,1.18368 0,1.57924 -0.586045,2.87138 -1.302323,2.87138 -0.716277,0 -0.984308,-0.82873 -0.595627,-1.84163 z M 73.446387,130.35 c -1.060343,-0.68525 -1.20543,-1.14763 -0.363719,-1.15848 0.770613,-0.009 1.728332,0.51139 2.1282,1.15848 0.902716,1.46056 0.495422,1.46056 -1.764659,0 z m -39.043585,-6.68594 c 0.849257,-0.33971 1.863948,-0.29791 2.254875,0.0929 0.390931,0.39084 -0.303914,0.66897 -1.544098,0.61788 -1.370504,-0.0565 -1.649269,-0.33526 -0.710777,-0.71076 z m 130.656938,-1.25514 c -1.46337,-1.86595 -1.42175,-1.90752 0.44419,-0.4442 1.13233,0.88804 2.0588,1.8145 2.0588,2.05879 0,0.9683 -0.96608,0.34505 -2.50295,-1.61459 z m -20.50561,-9.31205 4.87148,-10.11391 -0.94403,-9.551457 c -1.43362,-14.504467 -1.65541,-15.138134 -4.77098,-13.630066 -2.368,1.146208 -2.42145,1.108196 -0.55932,-0.397912 1.13233,-0.915837 2.05879,-2.590647 2.05879,-3.721799 0,-2.06209 -1.29592,-2.050903 -7.83178,0.06763 -1.59508,0.517019 -1.41188,0.08564 0.69311,-1.632159 2.69925,-2.202753 2.73251,-2.373034 0.58822,-3.008395 -1.32389,-0.392265 -0.92211,-0.513631 0.9623,-0.290664 2.5077,0.296756 3.23523,-0.109605 3.23523,-1.806935 0,-1.204372 0.46625,-2.057417 1.03611,-1.895656 0.56981,0.161762 3.25239,-2.209805 5.9612,-5.270152 2.70882,-3.060347 6.61017,-6.689563 8.66967,-8.064923 2.54052,-1.696597 2.12892,-1.098884 -1.28017,1.858937 -4.47036,3.878634 -12.03389,13.443092 -12.03389,15.217471 0,1.587335 9.58363,0.475725 14.28308,-1.656699 2.82064,-1.27989 6.18722,-2.311113 7.48131,-2.291611 3.46115,0.05216 -12.27631,5.691168 -16.76446,6.00699 -3.95164,0.27808 -5.41389,2.098177 -1.7647,2.196555 1.93802,0.05224 15.84622,6.82875 14.25964,6.947723 -0.40729,0.03068 -3.74977,-1.32234 -7.42817,-3.006367 -7.91258,-3.622498 -7.78955,-3.68059 -6.48647,3.061867 0.5627,2.911725 1.04616,7.184941 1.07435,9.496037 0.0476,3.915455 0.47239,4.391833 6.22764,6.986029 7.55108,3.403686 14.08183,7.180636 13.47151,7.790966 -0.24855,0.24874 -4.01562,-1.40509 -8.37091,-3.6752 -10.9173,-5.690509 -10.98195,-5.665684 -9.92793,3.81359 0.85755,7.71223 1.11526,19.14073 0.35172,15.58798 -0.20854,-0.97057 -0.73309,-4.9411 -1.16541,-8.82338 l -0.78609,-7.05872 -3.96485,7.85477 c -5.85912,11.60738 -6.81572,10.78052 -1.14602,-0.99058 z m -68.754865,7.84148 c 0,-0.64705 0.560652,-1.17644 1.245893,-1.17644 0.685241,0 0.918724,0.52939 0.518811,1.17644 -0.399735,0.64704 -0.960565,1.17644 -1.245893,1.17644 -0.285461,0 -0.518811,-0.5294 -0.518811,-1.17644 z m 5.882285,-2.35292 c 0,-0.64705 0.560652,-1.17644 1.245893,-1.17644 0.685241,0 0.918679,0.52939 0.518811,1.17644 -0.399735,0.64704 -0.960565,1.17648 -1.245893,1.17648 -0.285461,0 -0.518811,-0.52944 -0.518811,-1.17648 z M 32.270481,116.9466 c 0,-0.25434 0.821604,-0.77764 1.825784,-1.16297 1.046954,-0.40195 1.519179,-0.20453 1.107021,0.46239 -0.690879,1.11784 -2.932805,1.65341 -2.932805,0.70058 z m 137.495059,-1.5964 c -1.46337,-1.86595 -1.42175,-1.90753 0.4442,-0.4442 1.95968,1.53691 2.58284,2.50299 1.61459,2.50299 -0.24411,0 -1.17075,-0.92646 -2.05879,-2.05879 z m -68.67248,-2.64701 c 1.17111,-1.29414 2.39406,-2.35293 2.71758,-2.35293 0.3237,0 -0.36994,1.05879 -1.54114,2.35293 -1.17114,1.29409 -2.394049,2.35287 -2.717572,2.35287 -0.323701,0 0.369944,-1.05878 1.541132,-2.35287 z m -10.946999,-2.94115 c 0.02223,-1.94118 0.287685,-2.59285 0.585952,-1.4482 0.298356,1.14464 0.278792,2.73287 -0.04446,3.52936 -0.322367,0.79653 -0.566299,-0.14006 -0.542332,-2.08116 z m 105.749559,2.60824 c 0.26946,-0.18319 1.54901,-1.10956 2.8431,-2.05879 2.17644,-1.5965 2.23185,-1.57151 0.73829,0.33304 -0.88805,1.13237 -2.16742,2.05883 -2.8431,2.05883 -0.67564,0 -1.00788,-0.14984 -0.73829,-0.33304 z M 92.566303,107.40912 c 0.01334,-2.5882 0.253892,-3.50848 0.535396,-2.04507 0.28146,1.46339 0.270789,3.581 -0.02223,4.70582 -0.294354,1.12477 -0.52468,-0.0725 -0.511652,-2.66075 z m 66.761217,3.05697 c 0,-1.2217 2.23785,-2.99023 2.90077,-2.29245 0.2152,0.22677 -0.34949,1.09458 -1.25474,1.92887 -0.9053,0.83433 -1.64603,0.99796 -1.64603,0.36372 z m -47.54881,-1.13437 c -0.50677,-0.82002 -0.6037,-1.80864 -0.21521,-2.19695 1.05287,-1.05287 2.20085,0.49565 1.6322,2.20166 -0.3984,1.19551 -0.67559,1.19458 -1.41682,-0.004 z M 80.068248,98.291604 C 79.661844,92.953444 79.156951,87.129994 78.946545,85.350609 78.736228,83.571223 78.471309,78.956787 78.358059,75.096312 l -0.205871,-7.019049 -4.411713,2.514325 -4.41167,2.514324 3.72714,-4.024567 c 5.28166,-5.703102 5.830973,-9.253149 1.154029,-7.458441 -2.389828,0.917069 -4.665294,-1.499256 -3.360619,-3.568682 0.453225,-0.718834 0.94718,-0.37448 1.185109,0.826171 0.462297,2.333002 2.053411,2.699683 3.257863,0.750808 0.444644,-0.71939 0.0787,-1.770093 -0.812898,-2.334893 -1.083731,-0.686419 -1.153096,-1.032881 -0.208983,-1.044922 0.77666,-0.0098 1.95172,0.908443 2.611216,2.040778 1.10294,1.893566 1.20423,1.869964 1.262212,-0.294088 0.03557,-1.2941 0.385506,-6.77838 0.779505,-12.187293 l 0.716499,-9.834383 -2.802547,0.723066 -2.802547,0.723063 2.647011,-1.362434 c 6.605054,-3.399655 3.49299,-7.621203 -5.802383,-7.870898 -4.647152,-0.124856 -8.73103,-0.508646 -9.075318,-0.85292 -0.344154,-0.344288 3.175959,-0.495303 7.822756,-0.335618 10.058916,0.345667 11.840782,-0.641101 4.816562,-2.667281 -2.812951,-0.811414 -6.15872,-2.171615 -7.435026,-3.022673 -3.050525,-2.034149 -1.891027,-1.95815 3.315577,0.217298 5.876772,2.455466 7.119818,2.242184 4.953957,-0.849995 -1.007252,-1.438073 -1.823263,-3.158636 -1.813347,-3.823477 0.0089,-0.664836 0.496979,-0.451949 1.082352,0.473093 1.379197,2.179369 5.030748,2.699914 6.312879,0.899924 0.698713,-0.980925 0.846958,-0.872405 0.490753,0.359317 -0.28057,0.970573 -1.374083,1.692101 -2.429801,1.603395 -1.055719,-0.08871 -1.629265,0.30836 -1.274528,0.882338 1.455542,2.355111 5.275168,0.75557 9.230632,-3.865495 2.311127,-2.700021 4.511137,-4.600016 4.888951,-4.222211 0.377947,0.377814 -1.197649,2.772894 -3.500994,5.32242 -2.303345,2.549527 -3.844482,4.978929 -3.424738,5.398664 0.419744,0.419744 -0.277902,0.76316 -1.550518,0.76316 -10.181904,0 -0.563141,7.453368 11.976977,9.280682 5.704162,0.8312 6.172372,1.047092 2.524155,1.163945 -2.463417,0.07888 -6.884913,-0.462363 -9.825477,-1.202807 -4.316827,-1.086986 -5.535063,-1.041161 -6.325595,0.237929 -1.47026,2.378939 -0.445356,3.22788 6.269036,5.192624 7.50239,2.195328 14.385653,5.667167 19.066823,9.617046 4.11145,3.469176 1.23353,2.29777 -6.89029,-2.804561 -4.672942,-2.934962 -13.839013,-6.155754 -17.582604,-6.178235 -5.098556,-0.03068 -2.115216,12.163873 3.306729,13.516485 4.550665,1.135252 13.519135,7.232193 13.51918,9.190619 4.4e-5,0.525494 -2.313261,-0.705855 -5.140664,-2.736331 -6.032308,-4.332073 -13.522114,-6.476605 -14.422741,-4.129609 -1.98827,5.18137 0.16852,11.742543 4.692106,14.272251 5.368455,3.002344 12.031668,9.077017 13.858577,12.634481 0.904851,1.761987 -0.08582,1.251953 -3.254972,-1.675828 -5.730083,-5.293643 -14.028253,-11.673453 -15.183527,-11.673453 -2.791209,0 0.631305,12.988412 4.359735,16.544987 3.467957,3.308116 3.550349,3.517183 0.721346,1.830075 -1.756611,-1.047586 -3.462977,-1.904704 -3.791925,-1.904704 -0.329036,0 -0.267675,5.029342 0.136061,11.176315 0.403737,6.146973 0.457628,11.176293 0.11961,11.176293 -0.33793,0 -0.947137,-4.36757 -1.353675,-9.705727 z m -5.958007,7.007986 c 0.441976,-1.16024 1.099604,-1.81317 1.461856,-1.45096 0.362385,0.3622 7.11e-4,1.3115 -0.803294,2.10953 -1.161855,1.15323 -1.297027,1.0181 -0.658562,-0.65857 z m 108.657309,-1.71394 -2.85208,-3.23525 3.23523,2.85209 c 3.02385,2.66572 3.77476,3.61841 2.85213,3.61841 -0.21077,0 -1.66662,-1.45587 -3.23528,-3.23525 z M 48.945909,101.74514 c -1.40689,-1.49756 -2.541879,-3.218128 -2.522204,-3.823475 0.01957,-0.605347 0.575387,-0.174167 1.23491,0.958164 0.659527,1.132341 1.998182,2.058791 2.974793,2.058791 0.976608,0 1.47641,0.48419 1.110668,1.07598 -0.365764,0.59178 6.2e-5,1.34409 0.812907,1.6718 0.812845,0.3277 0.908426,0.63763 0.212406,0.68871 -0.696019,0.0511 -2.416587,-1.1324 -3.82348,-2.62997 z m 9.299441,0.76209 c 0.06247,-1.45126 0.301513,-1.63221 0.730634,-0.55315 0.538442,1.35395 0.812739,1.35395 1.761365,0 0.928861,-1.32572 1.044379,-1.31056 0.666388,0.0875 -0.690355,2.55362 -3.264644,2.93317 -3.158387,0.46568 z m 58.99256,-2.24165 c -0.12983,-1.570972 -0.04,-2.856318 0.20143,-2.856318 0.87452,0 1.64567,4.717168 0.85136,5.208058 -0.44901,0.2775 -0.92282,-0.78076 -1.05283,-2.35174 z M 90.034856,99.414553 c -1.488135,-2.477975 -1.463057,-2.503044 0.562697,-0.562733 1.166168,1.116933 1.867016,2.28401 1.557544,2.59352 -0.309473,0.30952 -1.263634,-0.60435 -2.120241,-2.030787 z m -23.647193,0.417032 c 0,-0.608865 0.523346,-1.430465 1.162966,-1.825784 0.666877,-0.412141 0.864121,0.06007 0.462341,1.107021 -0.782084,2.038108 -1.625307,2.411008 -1.625307,0.718763 z m 60.527127,-1.834113 c 3.98499,-6.584293 11.51646,-15.882214 12.85021,-15.864117 0.89889,0.01201 0.92998,0.297067 0.0961,0.882343 -0.67724,0.475378 -3.80696,4.305453 -6.95495,8.511279 -6.70514,8.958243 -8.99141,11.427363 -5.9914,6.470495 z M 71.951182,92.409315 c 2.401123,-2.657927 3.432297,-2.599394 4.174008,0.236951 0.499602,1.910346 0.04446,2.255959 -2.716776,2.058795 C 70.328632,94.485096 70.224363,94.3208 71.951182,92.409328 Z M 47.088546,91.526977 c 0.930431,-3.488108 4.235048,-8.389237 7.185532,-10.656975 1.262852,-0.970623 1.051508,-0.428015 -0.525018,1.347938 -1.4513,1.634894 -3.72015,5.06 -5.041885,7.61135 -1.381198,2.666135 -2.069529,3.388086 -1.618629,1.697687 z m 12.276151,1.489126 c -0.01957,-0.798603 1.420095,-2.941725 3.199472,-4.762489 1.779376,-1.820764 2.381113,-2.226168 1.337133,-0.900902 -1.04398,1.32527 -2.483737,3.468392 -3.199481,4.762489 -0.715743,1.294101 -1.317444,1.699505 -1.337124,0.900902 z M 94.62256,91.457546 c 0,-0.685237 0.529393,-0.918697 1.176439,-0.518798 0.647046,0.399913 1.176439,0.960547 1.176439,1.245884 0,0.285328 -0.529393,0.518797 -1.176439,0.518797 -0.647046,0 -1.176439,-0.560647 -1.176439,-1.245883 z M 68.426845,90.204539 c 0.798002,-0.80401 1.747318,-1.165479 2.109525,-0.803268 0.362384,0.362207 -0.290798,1.020045 -1.450963,1.461839 -1.676664,0.638442 -1.811791,0.50331 -0.658562,-0.658571 z M 36.454781,87.735844 c -1.007265,-1.438073 -1.810195,-3.158636 -1.78429,-3.823477 0.02579,-0.664836 0.864775,0.300224 1.864153,2.144585 1.401687,2.586837 2.458481,3.230762 4.623111,2.816967 1.543332,-0.295021 2.526138,-0.0835 2.184007,0.470096 -1.178583,1.906989 -5.059636,1.000729 -6.886981,-1.608171 z m 55.044377,-0.377192 c -0.383284,-0.998479 -0.433973,-2.078288 -0.112495,-2.39957 0.321477,-0.3213 0.866522,0.495658 1.211655,1.815419 0.733084,2.803405 -0.08137,3.236297 -1.09916,0.584151 z m 36.773532,0.835042 c -0.33349,-0.539211 0.14139,-0.980378 1.05527,-0.980378 0.91361,0 1.38849,0.441176 1.05523,0.980378 -0.33304,0.539206 -0.8081,0.980378 -1.05523,0.980378 -0.24722,0 -0.72206,-0.441176 -1.05527,-0.980378 z m 11.44727,-0.732551 c 0,-0.942112 0.4498,-1.434938 0.99956,-1.095163 0.54976,0.339752 0.69498,1.110587 0.32281,1.712929 -0.95131,1.539251 -1.32228,1.365929 -1.32228,-0.617766 z m -83.330901,-1.81642 c 0.941831,-3.325991 5.292758,-8.37644 5.292758,-6.143705 0,0.79084 -0.529393,1.43789 -1.176439,1.43789 -0.647046,0 -1.193292,0.661755 -1.21387,1.470567 -0.02045,0.808812 -0.869439,2.529375 -1.886358,3.823476 -1.796419,2.286062 -1.825281,2.269352 -1.016091,-0.588228 z m 37.653596,1.189929 c -0.412185,-0.666886 0.06003,-0.864116 1.10703,-0.462358 2.038115,0.782093 2.410994,1.625338 0.718767,1.625338 -0.608895,0 -1.430508,-0.523341 -1.825797,-1.16298 z M 44.127901,84.958459 c 0.05647,-1.370504 0.335217,-1.649274 0.710773,-0.710777 0.339841,0.849253 0.298045,1.863944 -0.09289,2.25487 -0.390931,0.390931 -0.668981,-0.303914 -0.617896,-1.544093 z m 64.832699,-0.56372 c 0.28323,-0.849252 1.20952,-1.775708 2.05879,-2.058795 0.8823,-0.294132 1.32348,0.147044 1.02939,1.0294 -0.28324,0.849252 -1.20956,1.775708 -2.05879,2.058795 -0.88235,0.294132 -1.32353,-0.147043 -1.02939,-1.0294 z M 68.104745,81.576176 c 2.608326,-2.087986 4.391749,-1.872187 5.063562,0.612711 0.375279,1.387881 0.257004,1.405658 -0.65923,0.09911 -0.881373,-1.256897 -1.705076,-1.30515 -3.913001,-0.229214 -2.670976,1.301562 -2.693031,1.279872 -0.491331,-0.482621 z m 16.591181,-1.320343 c -1.02277,-1.02274 -1.558744,-2.346249 -1.191068,-2.941134 0.921925,-1.491705 4.058978,-1.364742 4.058978,0.164296 0,0.685236 -0.598091,0.876247 -1.329086,0.424457 -0.81401,-0.503075 -1.098938,-0.18804 -0.735308,0.812912 0.326814,0.898879 1.22873,1.488855 2.004767,1.311064 0.776037,-0.177813 1.075683,0.219254 0.665854,0.882338 -0.984219,1.592506 -1.284176,1.536045 -3.474137,-0.653925 z m 41.690894,1.312691 c 0,-0.300757 1.19116,-1.181539 2.64701,-1.957287 2.40023,-1.278952 2.4965,-1.22797 1.03242,0.546832 -1.50334,1.822351 -3.67943,2.656539 -3.67943,1.410455 z M 52.569384,72.703727 c 3.557281,-4.205822 7.459869,-7.813014 8.672458,-8.015985 1.656654,-0.277325 1.437756,0.161317 -0.880707,1.764681 -1.69693,1.173544 -5.599531,4.780737 -8.672435,8.015985 -4.972028,5.23471 -4.875077,5.04044 0.880684,-1.764681 z m 43.893469,1.521305 c -0.63842,-1.676677 -0.503293,-1.811809 0.658606,-0.658571 0.804006,0.798029 1.165457,1.747317 0.80325,2.109533 -0.362385,0.362207 -1.020058,-0.290708 -1.461856,-1.450962 z m 2.776446,-2.403644 -2.85208,-3.235247 3.235274,2.852093 c 1.779377,1.568651 3.235227,3.024514 3.235227,3.235248 0,0.922663 -0.95269,0.171722 -3.618421,-2.852094 z M 63.44652,71.527256 c 1.171148,-1.2941 2.394053,-2.352909 2.717576,-2.352909 0.323701,0 -0.369944,1.058809 -1.541137,2.352909 -1.171148,1.294101 -2.394052,2.35291 -2.717575,2.35291 -0.323701,0 0.369944,-1.058809 1.541136,-2.35291 z m 59.42774,0.689065 c 0.7619,-0.761893 1.55737,-0.761893 2.31927,0 0.7619,0.761893 0.36416,1.15965 -1.15963,1.15965 -1.5238,0 -1.92153,-0.397779 -1.15964,-1.15965 z m -98.105391,-2.49921 c -0.40347,-1.051401 -0.659025,-4.118307 -0.567922,-6.815349 0.155848,-4.613573 0.214319,-4.520874 0.988221,1.566788 0.876941,6.898097 0.762254,8.330251 -0.420322,5.248561 z m 7.15828,-3.593907 c 2.809643,-5.026999 10.879075,-12.24274 13.691168,-12.24274 0.676646,0 -1.257458,1.577668 -4.298009,3.505929 -3.760858,2.385062 -6.354213,5.20595 -8.111704,8.823405 -1.420887,2.924611 -2.970075,5.317476 -3.442639,5.317476 -0.472567,0 0.499967,-2.431834 2.161184,-5.40407 z m 5.014082,3.116683 c 0.673298,-1.258062 1.805646,-2.646757 2.516329,-3.085985 0.710688,-0.439219 0.382261,0.590096 -0.729856,2.287387 -2.354817,3.593902 -3.5742,4.139 -1.786473,0.798598 z m 112.754049,0.307294 c 0.84927,-0.339842 1.86395,-0.298045 2.25488,0.09289 0.39084,0.390931 -0.30369,0.66898 -1.54407,0.617895 -1.37053,-0.05643 -1.64927,-0.335217 -0.71081,-0.710772 z M 49.25792,64.759672 c 3.079516,-3.407437 11.959199,-8.700719 15.513684,-9.247881 0.728816,-0.112183 2.449366,-0.560807 3.823494,-0.996932 1.374084,-0.436106 2.498366,-0.53512 2.498366,-0.220009 0,0.315119 -2.779381,1.490878 -6.176373,2.612772 -6.909395,2.2819 -10.412434,4.227476 -15.588028,8.657536 l -3.529362,3.020969 z m 17.129743,1.767673 c 0,-1.024495 -0.661764,-2.129742 -1.470572,-2.456107 -1.15185,-0.464768 -1.143846,-0.61352 0.03557,-0.686263 1.677553,-0.10338 3.31491,3.123833 2.167195,4.271522 -0.403292,0.40347 -0.733529,-0.10467 -0.733529,-1.129152 z m 19.510403,-1.63697 c -0.645135,-1.681199 -0.471101,-1.724276 1.344692,-0.332905 1.147182,0.879003 2.306324,1.747989 2.575912,1.931085 0.269454,0.183104 -0.335262,0.332905 -1.344693,0.332905 -1.009164,0 -2.168351,-0.868991 -2.575911,-1.931085 z M 200.35336,64.762673 c -1.46337,-1.865922 -1.42175,-1.907532 0.4442,-0.444199 1.95968,1.536885 2.58289,2.502972 1.61463,2.502972 -0.24411,0 -1.17075,-0.92646 -2.05879,-2.058795 z M 43.446796,62.11564 c 1.171143,-1.294096 2.394052,-2.352905 2.717579,-2.352905 0.323524,0 -0.369988,1.058809 -1.541127,2.352905 -1.171143,1.294101 -2.394052,2.35291 -2.71758,2.35291 -0.323523,0 0.369988,-1.058809 1.541128,-2.35291 z M 87.269703,61.3365 c 0.808808,-0.326369 2.132335,-0.326369 2.941143,0 0.808808,0.326368 0.147177,0.593386 -1.470571,0.593386 -1.617615,0 -2.279379,-0.267009 -1.470572,-0.593386 z m 18.019907,-2.077898 c -1.47621,-1.571372 -2.40441,-3.556641 -2.06261,-4.411705 0.42552,-1.064971 0.65069,-0.933076 0.71432,0.418766 0.0511,1.085372 1.48778,3.070641 3.19263,4.411701 1.7049,1.341064 2.5913,2.438294 1.96978,2.438294 -0.62153,0 -2.33785,-1.285666 -3.81412,-2.857038 z m 80.80223,0.901445 c 0.80881,-0.326369 2.13234,-0.326369 2.94115,0 0.8088,0.326369 0.14717,0.593386 -1.47058,0.593386 -1.61761,0 -2.27937,-0.267008 -1.47057,-0.593386 z m -1.10294,-2.377418 c 0.84927,-0.339842 1.86395,-0.298045 2.25488,0.09289 0.39084,0.390931 -0.30413,0.66898 -1.54407,0.617895 -1.37052,-0.05647 -1.64927,-0.335217 -0.71081,-0.710772 z m 6.96313,-1.64356 c 0.41619,-1.590808 0.94927,-2.124083 1.24296,-1.242985 0.28279,0.848741 -0.0449,2.102508 -0.7286,2.786148 -0.87301,0.87301 -1.0261,0.413697 -0.51436,-1.543163 z M 25.211756,55.238638 c 0,-0.647704 1.300687,-2.723423 2.890413,-4.612707 2.188249,-2.600589 2.559781,-3.765685 1.529389,-4.796077 -1.030391,-1.030396 -1.01807,-1.361024 0.05073,-1.361024 0.77646,0 1.411745,0.611456 1.411745,1.358792 0,0.85634 0.761293,0.690283 2.058795,-0.449077 1.132335,-0.994327 3.382305,-2.149294 4.999929,-2.566592 2.071463,-0.534378 1.738879,-0.140686 -1.124758,1.331415 -2.236244,1.149578 -5.809719,4.381269 -7.941067,7.181531 -2.131343,2.800261 -3.875171,4.561443 -3.875171,3.913739 z m 28.234897,0.681532 c 0,-0.232682 1.622044,-1.977061 3.604543,-3.876411 1.982494,-1.899355 3.283527,-2.660154 2.891129,-1.690674 -0.639967,1.581261 -6.495672,6.59986 -6.495672,5.567085 z m 20.076524,-3.896945 c 1.553275,-1.871546 3.452572,-2.219703 3.452572,-0.632879 0,0.571581 -1.089067,1.324039 -2.420153,1.672124 -1.985825,0.5193 -2.171108,0.332816 -1.032419,-1.039245 z m 19.229121,-0.05656 c 0.929084,-2.421189 -1.271148,-5.144928 -4.156088,-5.144928 -2.783561,0 -2.881827,3.020458 -0.149845,4.611582 1.132375,0.659527 1.502941,1.215238 0.823525,1.234914 -1.902409,0.05509 -4.058755,-2.551025 -4.058755,-4.905331 0,-2.955331 4.752222,-2.757064 8.073135,0.336818 2.084091,1.941618 2.34612,2.801929 1.254252,4.117591 -1.845628,2.223851 -2.690096,2.105345 -1.786002,-0.250646 z m 34.222742,-1.17415 c -2.1154,-1.800101 -2.54795,-2.515871 -1.07969,-1.786602 2.15648,1.071112 6.20132,4.943682 5.0472,4.832241 -0.24099,-0.02312 -2.02637,-1.393808 -3.96751,-3.045639 z m 21.76439,1.467317 c 0,-0.244288 0.92646,-1.170757 2.05879,-2.058795 1.86591,-1.463355 1.90752,-1.421745 0.4442,0.444199 -1.53691,1.959675 -2.50299,2.582879 -2.50299,1.614618 z M 66.167075,49.547447 c 0.849225,-0.339841 1.863948,-0.298045 2.254879,0.09289 0.390842,0.390931 -0.304137,0.668975 -1.544116,0.617895 -1.370482,-0.05647 -1.649273,-0.335217 -0.710763,-0.710782 z m 75.606515,-1.059066 c 0.0565,-1.3705 0.33526,-1.649269 0.71077,-0.710773 0.3397,0.849253 0.29791,1.863944 -0.0929,2.25487 -0.39085,0.390931 -0.66897,-0.303914 -0.61788,-1.544097 z M 72.269903,45.731548 c 0,-0.599607 -0.92646,-1.332301 -2.058791,-1.628211 -1.549273,-0.404849 -1.403696,-0.571795 0.58822,-0.67449 1.629265,-0.08399 2.647055,0.542039 2.647055,1.628211 0,0.970574 -0.264563,1.764681 -0.58822,1.764681 -0.3237,0 -0.588264,-0.490584 -0.588264,-1.090191 z m 37.066637,-0.07279 c -0.41218,-0.666881 0.06,-0.864112 1.10703,-0.462358 2.03812,0.782098 2.411,1.625338 0.71877,1.625338 -0.60885,0 -1.43046,-0.523341 -1.8258,-1.16298 z m 28.3104,-4.479762 -3.35862,-4.357116 3.92999,3.785767 c 2.16146,2.082174 3.67285,4.042877 3.35862,4.35712 -0.31437,0.31423 -2.08272,-1.389353 -3.92999,-3.785771 z m -84.514005,1.967395 c 0.798025,-0.80401 1.747318,-1.165479 2.109529,-0.803263 0.362207,0.362207 -0.290708,1.02004 -1.450958,1.461838 -1.676682,0.638442 -1.811813,0.503311 -0.658571,-0.658575 z M 27.794013,40.351244 c 0.02401,-1.941152 0.287641,-2.592831 0.585926,-1.448179 0.298267,1.144651 0.278658,2.732862 -0.04358,3.529362 -0.322278,0.796495 -0.566308,-0.140019 -0.542333,-2.081183 z m 81.901847,2.137479 c 0.84927,-0.339841 1.86395,-0.298045 2.25488,0.09289 0.39084,0.390931 -0.30369,0.668976 -1.54412,0.617895 -1.37048,-0.05647 -1.64927,-0.335217 -0.71076,-0.710781 z M 38.740976,39.360586 c 1.941152,-1.673276 4.279353,-3.061353 5.196008,-3.084625 2.003873,-0.05087 1.93121,0.01112 -4.019551,3.426245 l -4.705819,2.700692 z m 20.587949,1.737708 c 4.392341,-1.446627 12.85156,-2.686921 9.99988,-1.466178 -1.294136,0.553973 -4.735237,1.328441 -7.646988,1.72104 -3.483742,0.469726 -4.288312,0.382571 -2.352892,-0.25487 z M 46.167346,40.135818 c 0.849252,-0.339841 1.863943,-0.298045 2.25487,0.09289 0.390931,0.390931 -0.303914,0.66898 -1.544098,0.617895 -1.3705,-0.05647 -1.649269,-0.335217 -0.710772,-0.710772 z M 174.40082,38.959361 c 0.84927,-0.339841 1.86395,-0.298045 2.25488,0.09289 0.39084,0.390931 -0.3037,0.668976 -1.54407,0.617895 -1.37053,-0.05647 -1.64928,-0.335217 -0.71081,-0.710781 z M 53.838807,36.873629 c 0,-0.942112 0.449802,-1.434933 0.999569,-1.095163 0.549762,0.339753 0.694983,1.110592 0.322723,1.712934 -0.951307,1.539251 -1.322287,1.365929 -1.322292,-0.617771 z m 8.367912,-0.742484 c -0.434862,-0.703427 -0.314808,-1.754672 0.266787,-2.336102 0.625214,-0.625219 1.057141,-0.102669 1.057141,1.27896 0,2.673178 -0.217876,2.846985 -1.323839,1.057142 z m 78.003421,-0.87787 c 2.41063,-2.525423 2.99018,-2.459273 1.96061,0.223789 -0.40818,1.063184 -1.47924,1.933064 -2.38058,1.933064 -1.24807,0 -1.14794,-0.514267 0.42019,-2.156831 z m -71.75635,0.1988 c 0.81281,-0.327702 1.128062,-1.161814 0.700537,-1.853574 -0.463319,-0.749656 -0.220988,-0.91385 0.600092,-0.406449 1.61966,1.000992 0.647134,3.082939 -1.377419,2.948737 -1.00285,-0.06647 -0.981018,-0.262251 0.07692,-0.688709 z m 58.88888,-1.19852 c 0.84927,-0.339841 1.86395,-0.298045 2.25488,0.09289 0.39084,0.390931 -0.30369,0.668981 -1.54412,0.617895 -1.37048,-0.05643 -1.64927,-0.335217 -0.71076,-0.710772 z m 4.92639,-0.372789 c -1.0603,-0.685237 -1.20543,-1.147613 -0.36372,-1.15844 0.77066,-0.0098 1.72833,0.511389 2.12824,1.15844 0.90268,1.460597 0.49543,1.460597 -1.7647,0 z m -11.98511,-0.80365 c 0.84927,-0.339841 1.86394,-0.298045 2.25487,0.09289 0.39085,0.390931 -0.30413,0.66898 -1.54411,0.617895 -1.37048,-0.05647 -1.64927,-0.335217 -0.71076,-0.710772 z m -10.68636,-1.657335 c -2.96493,-1.726104 -1.3747,-3.445605 3.03532,-3.282091 l 3.75404,0.139173 -3.52936,0.855318 -3.52936,0.855321 2.94114,1.283826 c 1.61762,0.706103 2.14701,1.301281 1.17644,1.32262 -0.97057,0.02134 -2.70228,-0.507045 -3.84822,-1.174185 z M 87.563836,30.281972 c 0,-0.685236 0.529393,-0.918692 1.176439,-0.518793 0.647046,0.399913 1.176439,0.960547 1.176439,1.245884 0,0.285328 -0.529393,0.518797 -1.176439,0.518797 -0.647046,0 -1.176439,-0.560651 -1.176439,-1.245888 z m 53.033274,0.459767 c -0.0511,-0.755895 -0.39751,-2.344106 -0.7699,-3.529362 -0.64358,-2.048467 -0.61041,-2.051032 0.6715,-0.05189 0.74167,1.156714 1.08813,2.744925 0.7699,3.529362 -0.41752,1.029391 -0.60445,1.043833 -0.6715,0.05189 z M 31.811617,28.965612 c 0.862805,-1.39604 7.502488,-4.711861 8.558046,-4.273838 0.484524,0.201068 -1.379637,1.466298 -4.14258,2.811635 -2.762942,1.345342 -4.749901,2.003331 -4.415466,1.462203 z m 1.635316,-6.690754 c 0,-2.964077 4.149587,-8.045772 8.339055,-10.212229 4.84746,-2.5067208 4.246875,-1.390749 -1.18668,2.205008 -5.085794,3.365617 -7.193024,7.530665 -4.631247,9.153882 1.243865,0.788145 1.141752,1.015541 -0.462332,1.029578 -1.231309,0.01067 -2.058796,-0.863912 -2.058796,-2.176239 z m 12.081046,1.378983 c 1.144651,-0.298267 2.732867,-0.278658 3.529362,0.04358 0.7965,0.322234 -0.140019,0.566308 -2.081183,0.542328 -1.941152,-0.02401 -2.592831,-0.28764 -1.448179,-0.58592 z m 44.682867,-0.02757 c 1.779377,-0.269543 4.691128,-0.269543 6.470505,0 1.779376,0.269544 0.323701,0.490096 -3.235275,0.490096 -3.558753,0 -5.014607,-0.220543 -3.23523,-0.490096 z m 45.583974,-2.980635 c -1.73207,-2.365974 -2.01615,-3.187667 -0.74527,-2.155555 1.92913,1.566686 4.84609,5.979031 3.95267,5.979031 -0.22455,0 -1.66795,-1.720563 -3.2074,-3.823476 z M 47.880888,20.124479 c 1.144652,-0.298267 2.732863,-0.278658 3.529362,0.04358 0.796496,0.322234 -0.140018,0.566308 -2.081187,0.542328 -1.941147,-0.02401 -2.592826,-0.28764 -1.448175,-0.585921 z m 58.800332,-2.316778 c -3.37547,-1.362024 -0.55198,-5.271784 3.62558,-5.02044 0.75585,0.04549 0.40863,0.463199 -0.7715,0.92827 -3.82101,1.505676 -2.68476,3.090001 2.73407,3.812276 l 5.29402,0.705641 -4.7058,0.08382 c -2.58818,0.04611 -5.36757,-0.183193 -6.17637,-0.509562 z m 18.24872,-1.229374 c 1.46342,-0.281415 3.58103,-0.270699 4.70585,0.02357 1.12477,0.294444 -0.0725,0.524694 -2.66075,0.511635 -2.58819,-0.0129 -3.50851,-0.253981 -2.0451,-0.535379 z M 76.028613,13.292799 c 0.02223,-1.941151 0.287685,-2.592831 0.585952,-1.448179 0.298356,1.144652 0.278792,2.732867 -0.04447,3.529362 -0.322367,0.7965 -0.566298,-0.140018 -0.542332,-2.081183 z m 45.358277,-0.19093 c 0.8088,-0.326369 2.13229,-0.326369 2.94114,0 0.80881,0.326369 0.14718,0.593386 -1.47057,0.593386 -1.61766,0 -2.27938,-0.267008 -1.47057,-0.593386 z m 10.88217,-1.418681 c 0,-1.285182 -1.98525,-4.0298227 -4.41167,-6.0992094 -2.42647,-2.0693823 -3.61762,-3.3526784 -2.64705,-2.8517691 5.15515,2.6605543 10.31583,9.2746795 8.23836,10.5586105 -0.64878,0.40098 -1.17964,-0.322455 -1.17964,-1.607632 z M 61.041263,10.436366 C 61.41254,9.8359006 60.609513,8.9934558 59.257351,8.5642675 57.90509,8.1350971 57.057955,7.5246631 57.374826,7.2077964 c 0.84276,-0.8427606 5.483475,1.8529518 5.483475,3.1852606 0,0.624285 -0.560652,1.135061 -1.245893,1.135061 -0.685241,0 -0.942245,-0.491287 -0.571145,-1.091752 z M 49.034953,9.5407059 c 1.132335,-0.2959106 2.985251,-0.2959106 4.117586,0 1.13234,0.2959106 0.20587,0.5380191 -2.058795,0.5380191 -2.26467,0 -3.19113,-0.2421085 -2.058791,-0.5380191 z M 46.865855,4.2909225 c -0.829813,-1.3426649 1.455724,-3.59079856 5.99257,-5.8945038 1.294101,-0.6571128 0.811649,0.088173 -1.072112,1.65616567 -1.998493,1.66351123 -3.072064,3.42201613 -2.577589,4.22209083 0.466085,0.7541475 0.31801,1.3711711 -0.329036,1.3711711 -0.647051,0 -1.55328,-0.6097137 -2.013846,-1.3549238 z M 74.121134,2.6306839 C 73.6495,0.75153814 71.939266,-1.0041167 69.581897,-2.0290834 67.271704,-3.0335566 66.62159,-3.691612 67.91168,-3.7197357 c 2.56902,-0.056025 7.887585,5.0332061 7.887585,7.5474281 0,2.767131 -0.832151,2.1735357 -1.678131,-1.1970085 z M 120.35491,0.17153999 c -0.88778,-1.0697202 -3.20255,-2.63721499 -5.14395,-3.48331479 -2.12851,-0.9276386 -2.71985,-1.5566499 -1.4896,-1.5844135 1.83166,-0.041352 10.76398,6.8951397 8.98603,6.9781859 -0.40596,0.01912 -1.46466,-0.8407374 -2.35248,-1.91045761 z M 83.806371,-0.92140842 c 1.297605,-2.49097158 4.933904,-6.03870188 4.933904,-4.81372088 0,0.3694103 -1.39725,2.1548028 -3.104994,3.9675277 -2.224154,2.36089092 -2.743009,2.6009409 -1.82891,0.84619318 z M 57.858358,-3.3684714 c 0.808812,-0.3263687 2.1323,-0.3263687 2.941152,0 0.808807,0.3263688 0.147177,0.5933864 -1.470585,0.5933864 -1.617624,0 -2.279379,-0.2670087 -1.470567,-0.5933864 z M 106.1665,-6.9223467 c 0.84927,-0.3398415 1.86395,-0.2980449 2.25488,0.092886 0.39084,0.3909311 -0.30414,0.6689759 -1.54412,0.6178952 -1.37048,-0.05647 -1.64927,-0.3352172 -0.71076,-0.7107812 z m -7.720491,-1.1837581 c 1.132331,-0.2959106 2.985251,-0.2959106 4.117581,0 1.13238,0.2959106 0.20587,0.5380193 -2.05879,0.5380193 -2.264661,0 -3.191121,-0.2421087 -2.058791,-0.5380193 z"
         id="path6"
         inkscape:export-filename="path6.png"
         inkscape:export-xdpi="96"
         inkscape:export-ydpi="96" /><path
         style="fill:#98c95d;stroke-width:4.44644"
         d="m 151.61721,125.54166 c -0.43486,-0.70343 -0.2281,-1.84118 0.45887,-2.52829 0.88151,-0.88151 1.1933,-0.50489 1.05892,1.27893 -0.21698,2.87827 -0.41174,3.03878 -1.51779,1.24936 z m -72.395253,-8.22351 c -0.911876,-0.57729 -2.817931,-1.05768 -4.23559,-1.06759 -3.869737,-0.0267 -4.317093,-1.90753 -1.76119,-7.40311 4.797753,-10.315773 5.343776,-16.985461 1.49556,-18.268201 -1.060343,-0.353448 -1.286178,-0.02312 -0.668122,0.976892 0.575947,0.931872 0.464341,1.220739 -0.291242,0.753805 -0.673725,-0.416365 -1.889204,0.04313 -2.701079,1.021614 -1.230019,1.482074 -1.154163,1.655094 0.454915,1.03763 2.497966,-0.958559 2.460571,-0.689331 -0.916589,6.59995 -1.566214,3.38053 -2.594632,6.80592 -2.285293,7.61197 0.783507,2.04181 -2.23776,2.96462 -4.400864,1.34416 -3.67605,-2.7539 -2.796189,-13.692461 1.101383,-13.692461 0.604627,0 1.386445,-1.098097 1.737402,-2.440215 0.350824,-1.342118 1.730288,-2.725819 3.065154,-3.074887 1.334821,-0.349046 2.136959,-1.103887 1.782533,-1.677375 -0.354381,-0.573485 -0.231214,-1.704455 0.274346,-2.513271 1.362256,-2.180592 1.551274,-4.659589 0.498713,-6.540447 -2.440207,-4.360389 -14.663881,13.057101 -14.420252,20.547366 0.139441,4.2874 -1.867424,5.55913 -5.073339,3.21491 -1.228903,-0.8986 -1.838959,-1.63381 -1.35568,-1.63381 0.483275,0 -0.570469,-1.24651 -2.34166,-2.770025 -3.484431,-2.997181 -2.686228,-8.636841 1.730924,-12.229765 0.994357,-0.808812 1.404221,-1.470567 0.910809,-1.470567 -0.493413,0 -0.07688,-0.82024 0.925642,-1.822756 1.002512,-1.002517 2.294127,-2.665054 2.870253,-3.694534 2.004704,-3.582204 3.619802,-0.545205 1.727411,3.248182 -0.985616,1.975723 -1.529927,3.854326 -1.209574,4.174679 0.320366,0.320366 1.298929,-1.036154 2.174616,-3.014465 0.875682,-1.978305 1.992321,-3.596921 2.481429,-3.596921 0.489109,0 0.889244,-0.560652 0.889244,-1.245888 0,-0.685237 -0.473902,-0.952979 -1.053184,-0.594983 -0.579238,0.357983 -1.356315,-0.139129 -1.726842,-1.104682 -0.420233,-1.09511 0.529233,-2.525272 2.523733,-3.801467 4.824833,-3.087177 5.639954,-4.161299 5.593222,-7.370428 -0.122722,-8.430523 -17.83951,5.20679 -22.54344,17.352696 -2.168235,5.598549 -5.359512,6.644707 -7.584929,2.486472 -2.362029,-4.413484 -1.641035,-15.145928 1.078382,-16.052402 0.756308,-0.252113 1.115371,-0.87863 0.797918,-1.392283 -0.864837,-1.399335 4.8669,-6.69187 13.132433,-12.126145 7.525631,-4.947813 10.017568,-7.915149 6.647042,-7.915149 -2.941094,0 -10.98177,2.627108 -10.98177,3.588042 0,0.474484 -1.205355,1.165225 -2.678572,1.534978 -3.097248,0.777358 -12.615329,8.602208 -12.615329,10.371104 0,0.656335 -0.980756,2.440167 -2.179463,3.964073 -5.640274,7.170446 -7.137413,-8.93807 -1.546041,-16.634663 4.658865,-6.41299 5.427823,-6.904784 16.6665,-10.659238 5.499922,-1.837336 9.857438,-3.870018 9.683369,-4.517064 -0.465814,-1.731537 -6.498464,-3.067261 -7.831671,-1.734058 -0.630203,0.630207 -1.932335,1.14583 -2.893619,1.14583 -0.961285,0 -4.296529,2.149129 -7.411661,4.775846 -3.115127,2.626713 -5.663867,4.183683 -5.663867,3.459931 0,-0.723752 -0.612964,-0.937083 -1.36214,-0.474066 -1.82417,1.127399 -0.45231,-10.869475 1.513844,-13.238547 2.828318,-3.407917 11.350397,-6.287703 18.607015,-6.287703 7.789728,0 9.074371,-1.259281 3.598509,-3.527459 -3.458313,-1.432479 -4.890685,-1.273567 -17.063185,1.893041 -1.913294,0.49773 -2.023197,0.381238 -0.588228,-0.623413 1.255595,-0.879075 1.328503,-1.2407 0.252735,-1.253519 -2.312069,-0.02757 0.625072,-4.866006 3.393306,-5.589918 1.229934,-0.321611 2.236244,-1.05245 2.236244,-1.624031 0,-0.571586 0.794107,-1.039244 1.764681,-1.039244 0.970573,0 1.764681,-0.607086 1.764681,-1.349082 0,-0.960853 2.539135,-1.134447 8.823405,-0.60323 4.852872,0.410228 8.823406,0.284083 8.823406,-0.280304 0,-1.8536143 -5.728563,-4.8261176 -9.300811,-4.8261176 -8.623747,0 -2.484911,-7.6642049 6.830991,-8.5283795 11.174838,-1.0366165 14.409891,2.38660023 15.842311,16.7635611 0.583329,5.854766 0.481506,6.253185 -1.069858,4.186844 -2.307124,-3.072891 -2.200854,-0.698834 0.116942,2.610109 2.165861,3.092179 0.922814,3.305462 -4.953957,0.849995 -5.206604,-2.175452 -6.366103,-2.251451 -3.315578,-0.217298 1.276307,0.851058 4.622075,2.21126 7.435027,3.022673 7.02422,2.026181 5.242353,3.012939 -4.816562,2.667282 -4.646797,-0.159672 -8.167044,-0.0084 -7.822756,0.335617 0.344154,0.344288 4.428165,0.728087 9.075318,0.852921 9.295373,0.249712 12.407436,4.471242 5.802382,7.870897 l -2.64701,1.362434 2.799612,-0.722133 2.799613,-0.722137 -0.764877,11.009907 c -1.090223,15.693916 -1.587779,17.594035 -5.785353,22.093202 l -3.754796,4.024566 4.411669,-2.514324 4.411714,-2.514324 0.20587,7.019049 c 0.113384,3.860475 0.369499,8.474911 0.569722,10.254296 0.20009,1.779386 0.869635,7.735188 1.487779,13.23511 L 81.53962,108.58556 81.053935,97.115134 C 80.786704,90.8064 80.837394,85.644709 81.16643,85.644709 c 0.329037,0 2.035314,0.857119 3.791925,1.904704 2.829003,1.687109 2.746611,1.478042 -0.721346,-1.830075 -3.673516,-3.504217 -7.168463,-16.544987 -4.43408,-16.544987 2.079245,0 13.537589,9.818212 12.85426,11.014318 -0.420634,0.736148 -0.321923,0.936554 0.219209,0.445351 0.541043,-0.491207 2.28596,0.302892 3.877652,1.764681 3.58721,3.29447 2.025265,-0.33953 -1.964171,-4.569825 -1.308054,-1.386982 -2.013081,-2.886962 -1.566747,-3.333287 0.446333,-0.44632 0.281904,-0.649647 -0.365053,-0.451834 -0.647046,0.197822 -2.632293,-0.552172 -4.411714,-1.666641 -1.779377,-1.11447 -4.558758,-2.832619 -6.176373,-3.81811 -2.810684,-1.712333 -4.458268,-11.592809 -2.294007,-13.757073 1.354608,-1.354613 9.280032,1.402794 14.211891,4.944579 6.134714,4.4056 6.914884,3.196577 0.988621,-1.531999 L 91.0245,54.90162 l 2.557504,-2.07093 2.557503,-2.070934 -2.744876,-2.557241 c -3.520381,-3.27973 -8.183496,-3.434177 -8.183496,-0.271055 0,1.257409 1.176617,3.110325 2.614685,4.11759 3.107973,2.176915 0.651092,2.567508 -4.302776,0.684054 -3.85791,-1.466778 -4.710026,-12.980578 -0.95892,-12.957377 3.689612,0.02268 12.880805,3.263781 17.521106,6.178236 8.12383,5.102331 11.00174,6.273736 6.8903,2.804561 -4.68117,-3.949879 -11.564438,-7.421718 -19.066829,-9.617046 -6.714391,-1.964744 -7.739296,-2.813685 -6.269036,-5.192624 0.790533,-1.279103 2.008768,-1.324928 6.325595,-0.237929 2.940565,0.740443 7.362061,1.281709 9.825478,1.202807 3.648212,-0.116853 3.180002,-0.332728 -2.524156,-1.163945 C 83.890231,32.092056 80.9759,30.781005 80.9759,27.320972 c 0,-2.347 0.477415,-2.87839 2.184803,-2.431896 1.341847,0.350913 1.997697,0.03957 1.699919,-0.806656 -0.266786,-0.7579 1.332465,-3.410344 3.55364,-5.894321 2.221175,-2.483977 3.729407,-4.825433 3.351593,-5.203238 -0.377947,-0.377814 -2.577824,1.52219 -4.88895,4.222211 -2.70597,3.161334 -5.111806,4.860537 -6.757389,4.772653 -1.989693,-0.10627 -2.099609,-0.255581 -0.496534,-0.674489 2.042383,-0.533737 2.644921,-4.134892 2.088582,-12.4833951 -0.120943,-1.8119734 0.417521,-4.0619434 1.195826,-4.9999289 0.778482,-0.93799 0.953539,-1.7222709 0.389063,-1.742849 -0.56452,-0.020454 0.0012,-0.8146858 1.257231,-1.76468111 1.256031,-0.94999979 1.817927,-1.72726869 1.248739,-1.72726869 -0.569189,0 0.244998,-1.191157 1.809523,-2.6470194 6.121148,-5.6963038 29.037834,-2.2032113 32.900904,5.01493568 0.70756,1.32209132 1.78929,2.09302842 2.40388,1.71319572 0.61458,-0.3798594 1.11743,-0.1299694 1.11743,0.5552759 0,0.6852365 0.69863,1.2458838 1.55252,1.2458838 2.2784,0 6.1999,4.9741084 5.7476,7.2903301 -0.34237,1.753899 -1.57719,1.912499 -10.16869,1.306187 -10.83193,-0.764419 -15.95468,0.03068 -15.95468,2.476342 0,2.622578 2.9604,3.056341 15.64583,2.292443 11.23606,-0.676624 12.14363,-0.563231 14.24195,1.779416 1.23264,1.376152 1.76203,2.510198 1.17648,2.520105 -0.5856,0.0098 -0.27079,0.520007 0.7,1.133544 0.97057,0.613543 1.80904,1.531893 1.86324,2.040783 0.0542,0.508886 0.73757,2.472408 1.51859,4.363377 1.52473,3.691688 1.04158,6.561732 -1.10463,6.561732 -1.37066,0 -8.29634,-3.57709 -9.33592,-4.821987 -0.3237,-0.387418 -1.4398,-0.696237 -2.48058,-0.686263 -1.04083,0.0098 -5.11737,-0.666255 -9.059,-1.502728 -3.94164,-0.836478 -8.07558,-1.172055 -9.18657,-0.74574 -3.77974,1.450425 0.26634,3.303221 10.93424,5.007026 5.70905,0.911818 10.55661,2.168213 10.77226,2.791995 0.21565,0.623783 1.11957,1.13415 2.00863,1.13415 1.71535,0 7.77332,6.943152 8.37576,9.599651 0.19654,0.867167 0.69427,3.036674 1.10583,4.821129 1.77622,7.70196 -2.74278,12.208338 -6.77433,6.755392 -2.54252,-3.438908 -5.69624,-4.732426 -5.69624,-2.336324 0,0.65617 1.62001,2.641439 3.60001,4.411705 5.15921,4.612626 4.68148,19.100792 -0.62979,19.100792 -0.98658,0 -2.19085,0 -2.67613,0 -0.48529,0 -0.88231,-0.409028 -0.88231,-0.909003 0,-1.395436 -11.17408,-16.737807 -12.19041,-16.737807 -0.49235,0 -2.06626,-1.091019 -3.49757,-2.424484 -2.75243,-2.564294 -10.68426,-6.300833 -11.54598,-5.439109 -0.73566,0.735637 5.45961,7.863593 6.83462,7.863593 1.20521,0 1.81677,0.51347 10.24265,8.599304 5.22759,5.016661 9.02952,11.770035 7.77175,13.805109 -0.38239,0.618566 -0.0698,1.124669 0.69485,1.124669 1.05927,0 1.06412,0.392576 0.0222,1.650274 -1.02775,1.238387 -1.03198,1.762814 -0.0178,2.10117 0.74394,0.247978 -0.87853,2.466623 -3.60548,4.930289 -5.5533,5.017074 -6.09003,4.813596 -8.22329,-3.117675 -1.45652,-5.415147 -2.53514,-6.788097 -14.30758,-18.212011 -5.288465,-5.131869 -8.832234,-5.360594 -5.977041,-0.385774 1.084754,1.890147 2.372976,3.189028 2.862618,2.886403 1.006052,-0.621773 10.274613,8.320379 13.110993,12.649256 2.90909,4.439762 3.8323,15.441734 1.49219,17.781844 -1.04545,1.04546 -1.90081,2.50482 -1.90081,3.24311 0,2.48827 -5.29136,0.74051 -5.33587,-1.76248 -0.15518,-8.726407 -7.543426,-21.764402 -12.333132,-21.764402 -0.711208,0 -0.915389,-0.611203 -0.45367,-1.358227 0.520055,-0.841516 0.322811,-1.03888 -0.518811,-0.518798 -2.359459,1.458233 -1.487957,4.111299 2.646299,8.055981 7.703594,7.3503 9.784254,16.968996 4.691617,21.688676 -4.602866,4.26582 -7.016572,3.18627 -6.554942,-2.93176 0.505249,-6.69639 -1.697696,-13.171333 -4.481257,-13.171333 -1.420637,0 -2.022952,0.703169 -1.763458,2.058796 0.216542,1.132337 0.475147,2.058797 0.574169,2.058797 0.292131,0 1.341891,4.42582 1.97502,8.32528 0.770568,4.74586 -6.407854,9.94064 -10.316898,7.46602 z M 68.01297,99.11284 c 0.401958,-1.046955 0.204536,-1.51918 -0.462341,-1.107022 -0.63962,0.395333 -1.162966,1.21692 -1.162966,1.825784 0,1.692248 0.843223,1.319348 1.625307,-0.718762 z M 87.889493,78.527857 c -0.370833,-1.41873 -1.413524,-2.257787 -2.536561,-2.041512 -2.41753,0.465573 -2.532159,3.627691 -0.166742,4.599465 2.550834,1.047941 3.428962,0.21703 2.703303,-2.557953 z M 55.799563,60.74583 c 1.617624,-0.989106 5.720492,-2.716295 9.117528,-3.838194 3.396992,-1.121895 6.176373,-2.297645 6.176373,-2.612773 0,-0.315119 -1.124282,-0.216142 -2.498366,0.22001 -1.374128,0.436107 -3.094678,0.884744 -3.823494,0.996932 -3.554485,0.547161 -12.434168,5.840444 -15.513684,9.24788 l -3.458219,3.826469 3.529362,-3.02097 c 1.941151,-1.661532 4.852876,-3.830234 6.4705,-4.819341 z m 35.07696,2.249294 c 0.309917,-2.682489 0.01778,-3.086634 -1.764704,-2.428659 -2.764352,1.021414 -3.840879,2.689647 -3.055816,4.735495 1.05603,2.751977 4.42243,1.141014 4.82052,-2.306836 z M 75.417316,62.517999 c -0.425524,-0.425747 -0.165852,-1.506997 0.577593,-2.402768 2.064704,-2.487823 -0.4442,-4.461322 -3.554885,-2.796446 -2.714418,1.45271 -2.257235,4.368672 0.812409,5.181641 1.077239,0.285284 2.179201,0.580141 2.448788,0.655201 0.269455,0.07506 0.141842,-0.211873 -0.284127,-0.637628 z M 130.4072,54.037694 c 0.96368,-1.559215 -12.33852,-10.6742 -14.29299,-9.793925 -0.14985,0.06759 -2.10699,-0.643534 -4.3488,-1.580221 -2.77751,-1.160525 -4.32096,-1.306697 -4.84497,-0.458841 -1.07013,1.731497 2.37697,3.99221 9.52111,6.244189 3.33746,1.052046 7.28616,2.969231 8.77492,4.260415 2.9576,2.565116 4.22581,2.889671 5.19073,1.328383 z M 76.975749,51.390346 c 0,-1.586824 -1.899297,-1.238667 -3.452572,0.632879 -1.138689,1.372039 -0.953406,1.558545 1.032419,1.039245 1.331086,-0.348068 2.420153,-1.100543 2.420153,-1.672124 z M 70.831702,48.51971 c 3.249059,-2.275732 3.365689,-4.756517 0.261895,-5.56821 -1.294092,-0.338419 -2.352922,-0.04722 -2.352922,0.64709 0,0.694316 -0.330371,0.93197 -0.734241,0.528117 -0.937843,-0.937838 -5.115096,4.149419 -4.381656,5.336174 0.906496,1.466725 4.423586,1.006451 7.207058,-0.943171 z M 55.242464,42.343129 c -0.362207,-0.362207 -1.311504,-7.47e-4 -2.109529,0.803263 -1.153242,1.161886 -1.018111,1.297017 0.658571,0.658575 1.160241,-0.441798 1.813174,-1.099622 1.450958,-1.461838 z m 14.086341,-2.711013 c 2.85168,-1.220743 -5.607539,0.01957 -9.99988,1.466178 -1.93542,0.637438 -1.13085,0.724588 2.352892,0.25487 2.911751,-0.39262 6.352852,-1.167066 7.646988,-1.721039 z m 1.223794,-4.651532 c 0.333928,-0.53998 -0.466876,-1.556379 -1.77911,-2.258659 -3.41491,-1.82762 -8.913067,1.298156 -6.510122,3.701106 0.864032,0.864015 7.586739,-0.305826 8.289232,-1.442447 z m 22.893477,-5.091561 c 0,-1.907368 -2.509126,-3.067004 -6.636134,-3.067004 -1.674485,0 -2.599968,0.50866 -2.175377,1.195644 0.406405,0.657606 1.24487,0.882956 1.863236,0.500784 0.618367,-0.382171 1.048516,-0.258471 0.955852,0.274924 -0.377503,2.173567 0.248111,2.734467 3.051325,2.734467 1.729621,0 2.941098,-0.675049 2.941098,-1.638815 z m 3.235275,-6.26255 c -1.779377,-0.269543 -4.691128,-0.269543 -6.470505,0 -1.779377,0.269544 -0.323701,0.490096 3.23523,0.490096 3.558798,0 5.014651,-0.220543 3.235275,-0.490096 z m 43.234699,57.312435 c 0.39973,-0.64705 0.96052,-1.176457 1.24585,-1.176457 0.28546,0 0.51881,0.529407 0.51881,1.176457 0,0.647046 -0.56065,1.176453 -1.2459,1.176453 -0.68524,0 -0.91867,-0.529407 -0.51876,-1.176453 z"
         id="path5" /><path
         style="fill:#98a05a;stroke-width:4.44644"
         d="m 78.396698,162.06859 c -0.823836,-1.31921 -1.904055,-2.14754 -2.400411,-1.84078 -0.4964,0.3068 -1.527041,-0.44242 -2.290361,-1.66448 -1.05892,-1.69565 -1.061499,-2.42398 -0.0089,-3.07334 0.757362,-0.46807 1.591248,-0.20854 1.853098,0.57715 0.261896,0.78551 1.796007,2.99686 3.409264,4.91412 1.613258,1.91721 2.484049,3.48587 1.935136,3.48587 -0.548914,0 -1.672084,-1.07933 -2.495965,-2.39854 z m 6.907101,-5.34644 c 0.05647,-1.37049 0.335261,-1.64928 0.710763,-0.71077 0.339708,0.84927 0.297912,1.86395 -0.09293,2.25488 -0.390842,0.39084 -0.668967,-0.30369 -0.617878,-1.54411 z m 5.568811,-1.29383 c 0.849225,-0.33971 1.863948,-0.29791 2.254879,0.0929 0.390842,0.39084 -0.304137,0.66897 -1.544116,0.61788 -1.370482,-0.0565 -1.649273,-0.33526 -0.710763,-0.71077 z m 13.74982,-1.54927 c -0.39974,-0.64705 -0.1663,-1.17644 0.51876,-1.17644 0.68524,0 1.2459,0.52939 1.2459,1.17644 0,0.64704 -0.23344,1.17648 -0.51882,1.17648 -0.28546,0 -0.84598,-0.52944 -1.24584,-1.17648 z m 1.64198,-5.78153 c 0.90307,-0.57186 1.32326,-1.87031 0.93371,-2.88547 -0.38951,-1.01513 -0.26234,-2.12145 0.28323,-2.4584 0.54523,-0.33704 1.25497,0.39574 1.5772,1.6278 0.60814,2.32549 -1.05438,4.80509 -3.20068,4.77379 -0.67942,-0.009 -0.4964,-0.48591 0.40685,-1.05772 z m 60.12183,-5.25071 c 0,-0.24411 0.92646,-1.17075 2.05879,-2.0588 1.86591,-1.46336 1.90753,-1.42174 0.4442,0.4442 -1.53691,1.95968 -2.50299,2.5829 -2.50299,1.61464 z m -56.33813,-7.3718 c -1.68196,-1.89943 -0.23655,-3.91256 2.80948,-3.91256 0.64705,0 0.49676,0.43131 -0.33393,0.95839 -0.83264,0.52832 -1.17208,1.84002 -0.75647,2.92313 0.93082,2.42567 0.40952,2.43509 -1.71904,0.0311 z m 1.07888,-6.25552 c -0.95185,-0.60196 -1.42433,-1.40076 -1.04998,-1.77511 0.37439,-0.37439 1.35025,0.12628 2.16875,1.1125 1.69716,2.04492 1.37173,2.23763 -1.11877,0.66261 z m 40.15109,-1.22242 c 0,-1.61761 0.26723,-2.27938 0.59342,-1.47057 0.32637,0.80881 0.32637,2.13234 0,2.94114 -0.32637,0.80881 -0.59342,0.14718 -0.59342,-1.47057 z M 92.866171,116.24602 c -0.412185,-0.66692 0.06003,-0.86412 1.107031,-0.46239 2.038115,0.78209 2.411038,1.62536 0.718767,1.62536 -0.608851,0 -1.430465,-0.52335 -1.825798,-1.16297 z m 9.478969,-20.844815 c -0.63847,-1.676677 -0.50329,-1.811809 0.65856,-0.658571 0.80401,0.798029 1.1655,1.747317 0.80329,2.109533 -0.36238,0.362207 -1.02005,-0.290708 -1.46185,-1.450962 z m 62.7146,-0.05073 c -1.46337,-1.865918 -1.42175,-1.907532 0.44419,-0.444155 1.95968,1.536881 2.5829,2.502968 1.61464,2.502968 -0.24411,0 -1.17075,-0.926456 -2.05879,-2.058795 z M 130.62557,92.89953 c -0.33349,-0.539206 0.14184,-0.980378 1.05527,-0.980378 0.91365,0 1.38853,0.441176 1.05527,0.980378 -0.33348,0.539211 -0.80809,0.980378 -1.05527,0.980378 -0.24722,0 -0.72201,-0.441176 -1.05527,-0.980378 z m 65.02194,-4.607779 c -1.46332,-1.865918 -1.4217,-1.907532 0.4442,-0.444155 1.95968,1.536881 2.58289,2.502968 1.61464,2.502968 -0.24411,0 -1.1708,-0.926456 -2.05884,-2.058796 z m -46.81519,-4.50974 c 0.0565,-1.3705 0.33526,-1.64927 0.71076,-0.710773 0.33971,0.849253 0.29791,1.863944 -0.0929,2.25487 -0.39084,0.390931 -0.66897,-0.303914 -0.61788,-1.544097 z m 57.64623,-2.352906 c 0.0565,-1.370504 0.33526,-1.649273 0.71076,-0.710776 0.33971,0.849252 0.29792,1.863943 -0.0929,2.25487 -0.39084,0.390931 -0.66901,-0.303915 -0.61792,-1.544094 z m -99.06509,-2.548984 c -1.46333,-1.865922 -1.42171,-1.907532 0.4442,-0.444199 1.13233,0.888038 2.05879,1.814499 2.05879,2.058795 0,0.968261 -0.96608,0.345044 -2.50299,-1.614618 z M 57.564244,78.585985 c -0.399913,-0.64705 -0.16643,-1.176452 0.518797,-1.176452 0.685237,0 1.245884,0.529402 1.245884,1.176452 0,0.647051 -0.233438,1.176453 -0.518797,1.176453 -0.285328,0 -0.845984,-0.529402 -1.245884,-1.176453 z m 89.998746,-1.176452 c 0,-0.647051 0.56065,-1.176457 1.24589,-1.176457 0.6852,0 0.91868,0.529406 0.51877,1.176457 -0.39973,0.647046 -0.96052,1.176452 -1.24589,1.176452 -0.28546,0 -0.51877,-0.529406 -0.51877,-1.176452 z m 19.7791,-5.509469 c 0.84927,-0.339842 1.86395,-0.298045 2.25488,0.09289 0.39084,0.390931 -0.30369,0.66898 -1.54407,0.617895 -1.37053,-0.05647 -1.64927,-0.335217 -0.71081,-0.710772 z m -53.18685,-6.058982 c -0.33348,-0.539211 0.14184,-0.980383 1.05527,-0.980383 0.91361,0 1.38849,0.441176 1.05523,0.980383 -0.33304,0.539206 -0.80809,0.980378 -1.05523,0.980378 -0.24722,0 -0.72205,-0.441176 -1.05527,-0.980378 z m 36.22969,-5.196008 c -0.46546,-0.808812 -0.40107,-1.066101 0.14317,-0.571755 0.54416,0.494347 2.61429,-0.564462 4.60029,-2.352909 l 3.61095,-3.251718 -3.45537,3.823472 c -3.95844,4.380189 -3.7813,4.29511 -4.899,2.35291 z m 18.0601,0.691426 c 0.80881,-0.326369 2.13234,-0.326369 2.94114,0 0.80881,0.326368 0.14718,0.593386 -1.47057,0.593386 -1.61761,0 -2.27938,-0.267009 -1.47057,-0.593386 z m -36.87597,-3.044336 -2.2411,-2.647019 2.64701,2.24113 c 2.48752,2.10611 3.18259,3.052913 2.24114,3.052913 -0.22321,0 -1.41441,-1.191162 -2.64705,-2.647024 z m 47.5376,-1.685992 c 0.84923,-0.339842 1.86395,-0.298045 2.25488,0.09289 0.39084,0.390931 -0.30413,0.668976 -1.54411,0.617895 -1.37049,-0.05647 -1.64928,-0.335217 -0.71077,-0.710781 z M 89.135741,29.371003 c -1.026105,-1.643093 -1.00952,-2.15683 0.06981,-2.15683 0.779106,0 1.489691,0.970573 1.579065,2.15683 0.08937,1.186257 0.0578,2.156835 -0.06981,2.156835 -0.127613,0 -0.838288,-0.970578 -1.579109,-2.156835 z M 35.799843,22.116204 c -1.06033,-0.685236 -1.205435,-1.147613 -0.363541,-1.15844 0.770626,-0.0098 1.728327,0.51139 2.128226,1.15844 0.902699,1.460598 0.495432,1.460598 -1.764685,0 z M 131.18551,12.018307 c 0.0565,-1.3705 0.33526,-1.649269 0.71076,-0.710772 0.33971,0.849252 0.29791,1.863943 -0.0929,2.25487 -0.39084,0.390931 -0.66897,-0.303915 -0.61788,-1.544098 z"
         id="path4" /><path
         style="fill:#9f7c51;stroke-width:4.44644"
         d="m 78.130801,202.40777 c -0.01334,-0.48529 -1.048293,-7.21773 -2.303345,-14.96099 -1.255052,-7.74325 -1.854877,-14.36084 -1.332999,-14.70567 0.521924,-0.34504 0.990445,-1.42112 1.041135,-2.39169 0.05069,-0.97057 0.219654,-3.83039 0.375279,-6.35517 l 0.283238,-4.59046 2.155546,2.662 2.15559,2.66204 2.393741,-2.77738 c 1.316546,-1.52753 2.891698,-3.96849 3.500238,-5.42439 1.113789,-2.66449 3.517623,-3.6648 3.517623,-1.46382 0,0.73171 2.253723,0.90872 5.905985,0.46386 3.948928,-0.48097 6.491848,-0.233 7.673888,0.74789 1.47004,1.22006 1.64221,1.13962 1.02175,-0.47719 -0.55345,-1.4423 -0.25834,-1.75724 1.14278,-1.21957 1.03891,0.39884 1.54958,1.33113 1.13486,2.07213 -0.45558,0.81401 -0.12672,0.76519 0.83024,-0.12317 2.82914,-2.62593 12.87832,-1.90872 12.87832,0.91912 0,2.31495 -5.37193,37.85108 -6.53018,43.19793 -0.57844,2.67031 -35.779571,4.40335 -35.843556,1.76466 z"
         id="path3" /><path
         style="fill:#628a4a;stroke-width:4.44644"
         d="m 43.828558,168.78965 c -0.437708,-2.14683 -0.273723,-2.92038 0.462879,-2.18378 0.627384,0.62739 0.932401,2.1234 0.677815,3.32447 -0.34282,1.61739 -0.638669,1.32157 -1.140694,-1.14069 z m -18.616802,-2.41379 c 0,-0.24411 0.926461,-1.17075 2.058796,-2.05879 1.865922,-1.46333 1.907532,-1.42175 0.444199,0.4442 -1.536885,1.95968 -2.502972,2.58289 -2.502972,1.61459 z m 16.971081,-5.07833 c 0.171499,-1.16843 0.702507,-2.0362 1.180032,-1.92837 1.786598,0.40329 1.854819,1.27537 0.206804,2.64309 -1.381411,1.14647 -1.640416,1.01299 -1.386849,-0.71472 z m 40.086933,-0.35971 c 1.171148,-1.2941 2.394053,-2.35288 2.717576,-2.35288 0.3237,0 -0.369944,1.05878 -1.541092,2.35288 -1.171148,1.29409 -2.394097,2.35292 -2.71762,2.35292 -0.323701,0 0.369944,-1.05883 1.541136,-2.35292 z m -19.561537,-3.23523 c -1.463368,-1.86595 -1.421749,-1.90753 0.4442,-0.4442 1.13233,0.88804 2.058791,1.8145 2.058791,2.05879 0,0.9683 -0.966079,0.34504 -2.502946,-1.61459 z m 10.200135,0.96363 c -0.372167,-0.60236 -0.227213,-1.37315 0.322811,-1.71295 0.549758,-0.33971 0.999605,0.15296 0.999605,1.09516 0,1.98369 -0.370834,2.15701 -1.322327,0.61779 z m -38.873206,-2.43421 c 1.171143,-1.29409 2.394057,-2.35292 2.71758,-2.35292 0.323523,0 -0.369989,1.05883 -1.541128,2.35292 -1.171143,1.2941 -2.394052,2.35293 -2.717575,2.35293 -0.323523,0 0.369988,-1.05883 1.541123,-2.35293 z m 71.798878,-3.47733 c -0.57101,-1.76324 -0.46501,-3.04595 0.27212,-3.29166 0.66425,-0.22143 0.98426,-1.56835 0.71116,-2.99317 l -0.49653,-2.59063 1.13469,2.54688 c 0.6241,1.40081 0.72508,4.04782 0.22454,5.88229 l -0.91019,3.3354 z m 45.99149,-1.38609 c -1.21713,-6.08549 -3.80229,-8.07759 -10.4824,-8.07759 -6.95032,0 -13.42687,-3.478 -14.50958,-7.79185 -0.82957,-3.30513 1.65928,-13.38432 3.30495,-13.38432 0.60112,0 0.76581,-0.52939 0.36595,-1.17644 -0.39974,-0.64704 -0.1663,-1.17644 0.51881,-1.17644 0.68519,0 1.24584,-0.51103 1.24584,-1.13562 0,-0.62459 1.60126,-3.66048 3.55836,-6.74654 6.52519,-10.28912 7.23658,-18.905719 1.29849,-15.727755 -2.27244,1.216173 -11.51948,13.646775 -11.67048,15.688405 -0.16363,2.20899 -1.76519,8.6188 -2.42056,9.68617 -0.39706,0.64705 -0.8052,2.68654 -0.90649,4.53221 -0.30547,5.5649 -2.7025,6.9883 -7.08803,4.20887 -5.11812,-3.24377 -5.89949,-8.30075 -2.82202,-18.26446 2.85933,-9.25738 3.02558,-14.889087 0.63926,-21.652648 -2.07506,-5.881374 -2.07519,-5.882267 -0.6988,-5.882267 1.53349,0 4.80945,10.261482 4.85551,15.209361 l 0.04,4.202134 2.32994,-2.94114 c 1.28146,-1.617626 4.57263,-5.520969 7.31368,-8.674096 6.42564,-7.391624 7.33143,-8.972716 5.14026,-8.972716 -0.94882,0 -1.96145,0.661754 -2.2503,1.470566 -0.28901,0.808817 -0.87488,1.14929 -1.30218,0.756611 -1.35785,-1.247693 0.57884,-4.460882 3.18779,-5.28893 1.3836,-0.43913 3.84932,-1.751595 5.47948,-2.916584 7.38238,-5.275902 9.73552,-1.994069 11.20316,15.624743 l 0.83144,9.981306 -4.96134,10.25009 c -6.09247,12.58703 -5.43493,14.61919 0.97462,3.01198 l 4.68672,-8.48733 0.80459,9.26905 c 0.44242,5.09798 1.22121,12.7102 1.73042,16.91604 l 0.92588,7.64695 0.14896,-7.89493 c 0.0818,-4.34221 -0.42597,-13.17667 -1.12802,-19.63214 -1.82798,-16.802812 -2.23354,-16.334504 9.30542,-10.74542 15.76321,7.63518 13.9022,4.68376 -2.19245,-3.477047 -8.58994,-4.35555 -8.87745,-4.639918 -9.11965,-9.020573 -0.13739,-2.487784 -0.56034,-6.508513 -0.93958,-8.934949 -0.82508,-5.278943 -0.30058,-5.372683 8.23045,-1.470567 3.53648,1.617624 7.39034,2.899342 8.56416,2.848256 1.63593,-0.07119 1.72219,-0.240952 0.3695,-0.727033 -0.97057,-0.348778 -4.82461,-2.159907 -8.56447,-4.024709 -3.7399,-1.864806 -7.71044,-3.426324 -8.82343,-3.470042 -1.11298,-0.04358 4.01905,-2.071365 11.40455,-4.505885 7.4553,-2.457534 12.64336,-4.727526 11.66385,-5.103402 -0.97034,-0.372345 -5.6303,0.876265 -10.35544,2.774704 -8.41854,3.38234 -12.77441,3.958688 -6.38327,0.84461 4.75409,-2.316449 5.04031,-4.635312 0.5297,-4.291616 -4.65275,0.354515 -8.48812,4.068885 -5.89509,5.709066 1.35595,0.857656 1.1748,1.090413 -0.85967,1.104629 -1.41766,0.0098 -2.90477,-0.51139 -3.30468,-1.158436 -0.39974,-0.64705 -0.22811,-1.176457 0.3815,-1.176457 0.60979,0 1.39947,-1.112072 1.75492,-2.471278 0.4113,-1.572773 1.16888,-2.148285 2.08369,-1.582906 0.86844,0.53673 1.13482,0.398845 0.67306,-0.348379 -0.42019,-0.680207 2.43972,-4.203136 6.35579,-7.828723 8.29012,-7.675228 7.67851,-8.964696 -0.75514,-1.592057 -8.03672,7.025625 -9.39395,8.440015 -10.25692,10.688869 -0.41796,1.088911 -1.43624,1.842574 -2.26306,1.67481 -0.82948,-0.168298 -1.35892,0.571661 -1.1812,1.650941 0.57555,3.495463 -4.2323,1.078195 -5.0239,-2.525876 -0.39528,-1.799474 -2.58431,-5.451469 -4.86467,-8.115541 -2.28035,-2.664076 -3.82829,-4.84377 -3.4399,-4.84377 1.58387,0 11.24172,9.838497 11.24172,11.452012 0,1.103971 0.6807,1.479504 1.86088,1.026621 1.02348,-0.392754 2.07604,-0.714094 2.339,-0.714094 0.26279,0 0.81797,-2.125336 1.23335,-4.722973 2.43212,-15.209775 25.10061,-25.638545 37.36651,-17.190695 11.84634,8.158907 12.29236,15.612506 0.80579,13.466583 -2.89228,-0.540336 -7.93094,-0.605668 -11.19699,-0.145176 -3.26608,0.460482 -6.24716,0.75862 -6.62461,0.662528 -0.37751,-0.09609 -0.68627,0.58998 -0.68627,1.524609 0,2.088826 -1.4804,1.896545 16.23876,2.109165 18.7353,0.224812 22.13353,2.655876 24.06498,17.215679 l 0.83148,6.267965 -3.99588,-0.799172 c -2.19774,-0.439531 -6.53249,-2.125528 -9.63277,-3.746629 -11.598,-6.064425 -24.07472,-9.807652 -26.89025,-8.067542 -1.67737,1.036661 2.36702,3.769711 7.81493,5.281073 7.10462,1.970965 15.88216,5.940303 15.88216,7.182167 0,0.605556 0.44548,0.825668 0.99004,0.489135 0.54451,-0.336551 2.766,1.220432 4.93657,3.459931 2.17062,2.239494 3.44568,4.079916 2.83345,4.089822 -0.61223,0.0098 -0.37083,0.487877 0.53602,1.062153 1.01877,0.644992 1.62726,2.999168 1.59178,6.158369 -0.1663,14.83529 -4.80589,15.22444 -18.81107,1.57795 -10.3911,-10.124991 -20.31169,-15.627204 -20.31169,-11.265392 0,1.659269 9.02667,10.676882 9.85673,9.846822 0.40241,-0.402223 0.73135,-0.113693 0.73135,0.64119 0,0.75489 0.68978,1.37253 1.53292,1.37253 1.88346,0 11.40805,6.88497 11.40805,8.24647 0,0.54127 1.58822,2.57236 3.52936,4.51354 5.75952,5.75947 4.62554,13.38223 -3.178,21.3639 l -3.58263,3.66444 -4.25458,-10.95313 c -5.02288,-12.93101 -11.49049,-20.95297 -16.89323,-20.95297 -3.80197,0 -0.33615,10.75532 5.11777,15.88216 7.38896,6.94569 2.29405,27.13511 -5.6143,22.24749 -0.55349,-0.34193 -1.02789,-0.19386 -1.05416,0.32993 -0.0267,0.52348 -1.54301,2.69903 -3.37045,4.83457 l -3.32265,3.88277 z M 139.618,84.199007 c 6.20537,-6.237267 5.64013,-7.649158 -0.79893,-1.995602 -4.18575,3.675152 -13.60873,16.843739 -13.60873,19.018195 0,0.65518 1.98529,-1.643947 4.41171,-5.109187 2.42642,-3.46524 6.92462,-8.826273 9.99595,-11.913406 z m 1.47449,3.79867 c 1.87942,-2.076741 1.90565,-2.35291 0.22365,-2.35291 -1.04807,0 -2.47226,1.058809 -3.16484,2.35291 -0.69258,1.294096 -0.79324,2.352905 -0.22366,2.352905 0.56955,0 1.99374,-1.058809 3.16489,-2.352905 z M 55.005051,153.10497 c 0.425746,-0.42553 0.116941,-1.61691 -0.686264,-2.64701 -1.290032,-1.65448 -1.221748,-1.68587 0.585481,-0.26901 1.84047,1.44282 1.86578,3.69014 0.04135,3.69014 -0.393199,0 -0.36652,-0.34815 0.05923,-0.77408 z m 32.558785,-5.69643 c 0,-3.82914 0.516098,-6.47046 1.2643,-6.47046 0.822725,0 1.035621,-2.11988 0.609607,-6.06881 -0.748336,-6.93609 2.279023,-19.6602 4.216604,-17.72262 0.748158,0.7482 0.725793,2.73976 -0.06403,5.70576 -0.667411,2.50606 -1.567549,6.14462 -2.000232,8.08581 -0.755672,3.39001 -0.87915,4.89086 -1.427351,17.35267 -0.342821,7.79328 -2.598723,7.02738 -2.598723,-0.88235 z m -38.637243,0.58827 c 0,-1.61766 0.267009,-2.27938 0.593387,-1.47057 0.326368,0.8088 0.326368,2.13229 0,2.94109 -0.326369,0.80886 -0.593387,0.14718 -0.593387,-1.47052 z m 59.479487,-4.67917 c -0.88035,-3.36645 0.1036,-8.26184 1.6603,-8.26184 0.58924,0 0.73918,-1.32353 0.33304,-2.94115 -0.4486,-1.78729 -0.23611,-2.94114 0.54175,-2.94114 1.34212,0 0.90899,6.99528 -0.83748,13.52558 -0.93651,3.50167 -0.94314,3.50407 -1.69774,0.61855 z m -92.513076,-3.06582 c 0.05643,-1.37053 0.335217,-1.64928 0.710773,-0.71081 0.339841,0.84927 0.298045,1.86395 -0.09289,2.25488 -0.390932,0.39084 -0.668981,-0.30369 -0.617896,-1.54407 z m 44.391786,-13.0584 c 0.84927,-0.3397 1.863948,-0.29791 2.254879,0.0929 0.390842,0.39085 -0.303692,0.66897 -1.544116,0.61788 -1.370486,-0.0565 -1.649256,-0.33526 -0.710763,-0.71076 z m 0.941845,-6.47032 c 0.339708,-0.54981 1.110587,-0.69503 1.712947,-0.32282 1.539268,0.95128 1.365946,1.32229 -0.617789,1.32229 -0.942112,0 -1.434911,-0.4498 -1.095158,-0.99956 z m 17.815242,-0.56635 c 0.812809,-0.3277 1.128062,-1.16181 0.700536,-1.85358 -0.45945,-0.7434 -0.221877,-0.91446 0.580928,-0.41841 2.052788,1.26865 1.627575,3.06559 -0.700581,2.96057 -1.242025,-0.056 -1.472484,-0.32904 -0.580883,-0.68871 z m -4.713183,-3.52691 c 0.808852,-0.32637 2.132335,-0.32637 2.941143,0 0.808807,0.32637 0.147177,0.59337 -1.470572,0.59337 -1.617615,0 -2.279378,-0.26678 -1.470571,-0.59337 z m -31.15362,-1.21259 c 1.144651,-0.29836 2.732862,-0.27879 3.529362,0.0445 0.796495,0.32237 -0.140019,0.5663 -2.081188,0.54233 -1.941147,-0.0222 -2.592826,-0.28768 -1.448174,-0.58595 z m 15.840128,-0.50716 c 0.798029,-0.80401 1.747313,-1.16546 2.10952,-0.80325 0.362385,0.36238 -0.290797,1.02001 -1.450944,1.46181 -1.676682,0.63846 -1.811814,0.50334 -0.658576,-0.65856 z m 45.615938,-3.36925 c -1.72468,-2.79063 -4.12016,-14.608317 -3.15648,-15.572012 1.35065,-1.350633 3.35061,3.95153 4.20433,11.146162 0.65296,5.50273 0.36639,6.71386 -1.04785,4.42585 z m 2.93238,-0.0133 c 0,-0.64704 0.56066,-1.17644 1.2459,-1.17644 0.68524,0 0.91872,0.5294 0.51881,1.17644 -0.39974,0.64705 -0.96057,1.17649 -1.24589,1.17649 -0.28547,0 -0.51882,-0.52944 -0.51882,-1.17649 z m -36.470056,-1.10703 c 0,-0.60885 0.523346,-1.43046 1.162967,-1.82575 0.666877,-0.41219 0.864121,0.06 0.462385,1.10703 -0.782129,2.03807 -1.625352,2.41099 -1.625352,0.71872 z M 105.215,80.356118 c -1.5173,-1.615072 -2.40161,-3.293608 -1.96515,-3.730075 0.85955,-0.859537 6.6666,4.101361 6.6666,5.695192 0,1.796242 -1.92291,0.992499 -4.70145,-1.965117 z m 20.22437,-2.324728 c -1.6438,-3.6077 -0.0267,-4.821867 2.58458,-1.93844 1.63661,1.808426 1.69179,2.372105 0.34194,3.492426 -1.26395,1.049 -1.8925,0.715223 -2.92643,-1.553986 z m -5.83826,-7.679768 c -1.27595,-2.043153 -1.17493,-2.35291 0.76759,-2.35291 2.24251,0 4.11936,2.683063 2.79983,4.002571 -1.19045,1.190436 -2.03874,0.798158 -3.56742,-1.649661 z m -7.35842,-7.085407 c -1.27946,-1.279428 -2.28445,-3.252683 -2.23336,-4.385022 0.0556,-1.229908 0.33171,-1.466734 0.68627,-0.588229 0.32637,0.808817 1.26132,1.470572 2.07769,1.470572 0.81636,0 2.38333,0.993397 3.48209,2.207551 2.94123,3.250023 -0.83802,4.469806 -4.01269,1.295128 z M 91.093198,30.352182 c 0,-0.723423 -0.402848,-1.066315 -0.895336,-0.761978 -0.492398,0.304314 -1.948296,-0.223523 -3.23523,-1.173029 -2.218996,-1.637113 -2.162748,-1.694765 1.087555,-1.115176 4.078364,0.727251 6.153029,2.443381 4.32194,3.575058 -0.703427,0.434729 -1.278929,0.198534 -1.278929,-0.524875 z"
         id="path2" /><path
         style="fill:#2d6447;stroke-width:4.44644"
         d="m 46.273215,184.70706 -3.681199,-3.28912 1.419246,-6.83649 c 2.083736,-10.0373 -0.376169,-11.69538 -3.055207,-2.05937 -2.276426,8.18786 -4.540616,9.30009 -8.551696,4.20082 -5.091344,-6.47259 -4.717394,-8.03961 4.586494,-19.21934 8.28202,-9.95189 5.212678,-10.04046 -3.617935,-0.10449 -8.428957,9.48408 -8.730088,9.59831 -11.268677,4.27481 -2.945864,-6.17753 -1.108586,-9.70511 7.881579,-15.1327 9.589495,-5.78945 14.537339,-10.35243 11.08133,-10.21948 -3.237645,0.1245 -8.40448,2.26444 -14.987568,6.20719 -7.009716,4.19824 -9.103002,3.55693 -9.103002,-2.78881 0,-9.87577 3.899132,-13.67885 15.239672,-14.86414 11.089551,-1.1591 9.985789,-4.32234 -1.313737,-3.76503 -10.107813,0.49854 -10.431887,-0.009 -5.407778,-8.44121 5.096621,-8.55559 10.859106,-11.60904 17.854215,-9.46064 2.642012,0.81144 5.99482,1.48264 7.450682,1.49156 9.428508,0.0578 2.41367,7.95668 -8.255937,9.29639 -4.611577,0.57906 -8.941952,1.62482 -9.623062,2.32393 -0.883464,0.90681 -0.05829,1.09045 2.879208,0.64078 2.264674,-0.34682 7.174265,-0.95696 10.9102,-1.35617 l 6.792609,-0.72583 -0.779941,5.0881 c -0.9786,6.38407 0.247889,5.50341 -12.147805,8.72294 -9.748745,2.53207 -17.360455,5.93627 -16.097421,7.19932 0.283594,0.28369 2.201263,-0.35616 4.261495,-1.42144 2.060236,-1.06541 7.497014,-2.71922 12.08173,-3.67516 4.58472,-0.95594 8.852294,-2.05723 9.483502,-2.44736 0.717317,-0.44331 0.88722,1.23237 0.45311,4.46889 -0.736944,5.49438 -1.12904,5.93115 -13.099694,14.59349 -9.726264,7.03822 -7.900275,7.44418 2.355475,0.5237 4.905487,-3.3102 9.125221,-5.81239 9.377178,-5.56045 1.887932,1.88796 -1.831462,12.64665 -5.776433,16.70888 -5.366298,5.52581 -4.61151,7.3051 0.85237,2.0093 l 3.925313,-3.80455 0.769181,8.00257 c 0.936278,9.74104 1.838114,13.29659 3.372567,13.29659 0.640812,0 0.793792,-0.92646 0.339975,-2.05879 -0.453831,-1.13233 -1.11977,-7.56091 -1.479864,-14.28571 l -0.654717,-12.22691 6.597807,4.87406 c 8.990933,6.642 9.752964,6.12955 1.639073,-1.10227 -6.321055,-5.63387 -6.705339,-6.287 -6.705339,-11.39641 v -5.42008 l 3.235248,2.97365 c 3.492283,3.20984 10.533956,6.44214 11.635294,5.3408 0.372612,-0.37261 -1.357587,-1.52807 -3.845148,-2.56742 -7.103642,-2.96809 -9.848941,-6.17918 -9.848941,-11.52002 0,-3.96342 0.29511,-4.49815 2.058795,-3.73034 1.132335,0.49293 5.543671,1.25772 9.803005,1.69947 4.259334,0.44154 8.494569,1.2555 9.411647,1.80833 1.374173,0.82837 1.408233,0.68497 0.193865,-0.81552 -0.926683,-1.14492 -4.395884,-2.09357 -9.346773,-2.55591 -4.330211,-0.40418 -8.487397,-1.40721 -9.238241,-2.2286 -1.829817,-2.00174 -0.813827,-11.99538 1.068546,-10.51067 0.738834,0.58275 5.77084,1.34825 11.182247,1.70103 12.016416,0.78342 15.846313,3.13919 5.396156,3.31918 l -6.999898,0.1205 7.039916,1.53562 c 7.04365,1.53647 14.658046,7.80942 14.706957,12.11602 0.0089,0.847 0.451136,1.27203 0.981107,0.94451 0.529971,-0.3277 0.734597,0.9647 0.454693,2.87169 -0.605961,4.12865 -2.582359,4.39388 -7.962908,1.06848 -4.607624,-2.84764 -15.091397,-4.41834 -16.311722,-2.44381 -0.465365,0.753 0.103602,1.6246 1.311478,2.00948 14.796731,4.71398 22.774356,15.80852 15.864099,22.06221 -2.915487,2.63848 -2.978804,2.611 -6.601141,-2.86275 -3.00446,-4.54004 -12.778092,-10.52183 -14.453733,-8.84615 -1.062699,1.0627 1.831889,3.87677 5.588064,5.43262 8.18483,3.39028 9.775588,11.45479 4.000685,20.28195 -3.838523,5.86739 -4.794864,5.57237 -5.493133,-1.69481 -0.481549,-5.01162 -1.270526,-6.71741 -4.400286,-9.51387 -5.340091,-4.77138 -6.592293,-2.78751 -3.484089,5.5199 3.309433,8.84535 2.476481,13.77174 -2.889208,17.08794 -4.919684,3.04057 -4.654005,3.06595 -9.053433,-0.86497 z M 64.03474,121.59602 c 0,-1.24176 -2.257769,-1.76341 -2.929271,-0.67688 -0.406404,0.65763 0.08626,1.19565 1.095159,1.19565 1.008764,0 1.834112,-0.23344 1.834112,-0.51877 z m 30.453671,28.45958 c -1.394182,-2.74999 -2.920867,-5.26463 -3.392679,-5.58816 -0.471812,-0.3237 -0.482483,-1.63913 -0.02223,-2.92353 0.852205,-2.38587 8.217733,8.37042 8.245301,12.04105 0.02223,3.05012 -2.385737,1.28973 -4.828923,-3.52936 z M 59.015865,113.34956 c -2.421038,-1.21307 -5.126328,-7.70512 -3.21078,-7.70512 0.538171,0 1.8159,-0.32134 2.839395,-0.71409 1.170357,-0.44911 1.860898,-0.0802 1.860898,0.99412 0,2.23441 3.768669,5.60223 6.269036,5.60223 1.18182,0 1.966127,-0.93855 1.966127,-2.35288 0,-1.37679 0.784308,-2.35292 1.890582,-2.35292 1.240557,0 1.64505,0.63975 1.176439,1.86088 -0.39262,1.02353 -0.714098,2.89788 -0.714098,4.16525 0,2.59329 -7.298699,2.89694 -12.077599,0.50253 z"
         id="path1" /></g></g></svg>
